<svg width="80" height="80" viewBox="0 0 80 80" fill="none" xmlns="http://www.w3.org/2000/svg">
<circle cx="40" cy="40" r="40" fill="#EC724A"/>
<path d="M37.1254 26.5103C37.1539 26.5229 37.1836 26.5331 37.2144 26.5407C37.2179 26.5447 37.2216 26.5486 37.2254 26.5524C37.2683 26.5949 37.3264 26.6185 37.3868 26.6179C39.1833 26.6008 40.9414 27.1386 42.4209 28.1578C43.9005 29.177 45.0294 30.6279 45.6537 32.3126L45.6534 32.3127L45.6585 32.3245C47.2389 35.945 47.0778 40.0153 46.833 43.8966C45.0248 44.017 43.2036 43.7983 41.465 43.2451L41.4639 43.2448C41.1733 43.154 40.8587 43.0073 40.5151 42.8467L40.5128 42.8456C40.3614 42.7748 40.2051 42.7018 40.0466 42.6321C40.6973 39.7399 40.3169 36.7048 38.9614 34.0561C37.5889 31.3742 35.3103 29.2715 32.5374 28.1165C33.9844 27.3844 35.5265 26.843 37.1254 26.5103ZM51.7628 50.596C51.7688 50.5925 51.7746 50.5886 51.7803 50.5845C51.8871 50.5068 51.9652 50.3968 52.0037 50.2716C54.1408 47.977 55.6132 45.1431 56.2617 42.0738L56.2618 42.0738L56.2626 42.0695C56.3251 41.7432 56.3761 41.4155 56.4157 41.0873C56.5328 40.9689 56.5901 40.8236 56.5853 40.6739C56.5816 40.5601 56.5427 40.4557 56.4844 40.3686C56.6562 37.9266 56.2049 35.4709 55.1599 33.2365C53.8716 30.4816 51.7465 28.2038 49.0876 26.7276C49.0828 26.725 49.0779 26.7225 49.0729 26.7201C46.0419 25.3161 42.7034 24.7069 39.3718 24.9499C36.0403 25.1929 32.8255 26.28 30.0304 28.109L30.0303 28.109L30.0279 28.1106C24.4008 31.8981 21.5397 39.7583 25.2314 45.9112C25.2349 45.9169 25.2386 45.9224 25.2425 45.9278C25.3309 46.0495 25.4614 46.134 25.6086 46.165L25.6552 45.9436L25.6086 46.165C25.7558 46.196 25.9092 46.1713 26.0393 46.0957C26.1693 46.0202 26.2667 45.899 26.3126 45.7557C26.3584 45.6124 26.3495 45.4573 26.2876 45.3202C26.2837 45.3116 26.2793 45.3033 26.2744 45.2953C23.2941 40.4225 25.0119 33.9983 29.1419 30.3314C29.8585 29.7427 30.616 29.2106 31.4074 28.7384C31.4573 28.903 31.5747 29.0525 31.7786 29.134C31.8014 29.1432 31.8254 29.1485 31.8499 29.1499C33.6987 29.8699 35.3149 31.0525 36.554 32.5672C33.4306 34.2172 30.9508 36.8701 29.5153 40.1013C28.2234 43.0093 27.8461 46.2312 28.4174 49.3424C28.2055 49.0899 28.0017 48.8296 27.8064 48.5618C27.5824 48.241 27.2064 48.2579 26.9711 48.4002C26.8511 48.4728 26.7448 48.5881 26.6982 48.7369C26.6492 48.8935 26.6737 49.0647 26.7801 49.2184C26.8252 49.2836 26.8992 49.3184 26.9742 49.3158C28.8367 51.8836 31.4382 53.8246 34.4332 54.8783C37.4824 55.9511 40.7892 56.0513 43.8978 55.1652C46.8141 54.3726 49.4687 52.8291 51.5983 50.6923C51.6534 50.6606 51.7082 50.6285 51.7628 50.596ZM40.4227 44.2108C40.4307 44.2149 40.4389 44.2186 40.4472 44.2217C41.5021 44.6183 42.5985 44.8937 43.7156 45.0427L43.7156 45.0427C45.9869 45.3446 48.2967 45.1495 50.4851 44.4708C51.9371 44.0205 53.3127 43.3644 54.5712 42.5257C54.6191 42.502 54.6639 42.4719 54.7045 42.4359C54.782 42.3831 54.859 42.3296 54.9356 42.2754C54.4921 44.2146 53.682 46.0594 52.541 47.7073C52.0521 48.4135 51.508 49.0754 50.9152 49.6877C48.5895 51.0064 45.8988 51.5436 43.2406 51.2156C40.5748 50.8866 38.0889 49.7058 36.1511 47.8522C36.5335 46.8331 36.9267 45.8191 37.3345 44.8128C37.488 44.4444 37.6469 44.0983 37.8689 43.8528C38.0753 43.6245 38.3336 43.4854 38.7142 43.5163C39.3038 43.6948 39.8758 43.9273 40.4227 44.2108ZM35.6977 49.0758C37.7625 50.9057 40.3379 52.0729 43.0882 52.4138C44.6704 52.6099 46.2632 52.5267 47.7971 52.1788C47.2592 52.506 46.7004 52.8015 46.1233 53.0632L46.1233 53.0631L46.1167 53.0663C43.0225 54.5921 39.489 54.9767 36.139 54.1522C35.4511 53.9829 34.78 53.7649 34.1302 53.5011C34.6412 52.0226 35.1599 50.5451 35.6977 49.0758ZM29.8589 50.2433C29.8578 50.2359 29.8562 50.2286 29.8543 50.2214C29.003 47.0111 29.2765 43.6062 30.6291 40.5729C31.98 37.5436 34.3259 35.0674 37.2775 33.5549C37.5063 33.9053 37.7168 34.2695 37.9074 34.6463C39.0988 37.0007 39.4372 39.6888 38.8765 42.2551C38.6264 42.2164 38.3716 42.2119 38.1181 42.2626C37.5668 42.3729 37.1959 42.6275 36.9243 42.9564C36.6642 43.2715 36.4997 43.6509 36.3492 43.9981L36.3432 44.0119C36.3212 44.0627 36.2994 44.1129 36.2774 44.1628L36.2767 44.1646C35.2439 46.5661 34.3735 49.0574 33.5117 51.524L33.5104 51.5277L33.5103 51.5278C33.3402 52.0148 33.1704 52.5008 32.9997 52.9853C31.8139 52.3822 30.715 51.62 29.734 50.7194C29.7467 50.7035 29.7586 50.687 29.7697 50.6697C29.8512 50.5435 29.8829 50.3916 29.8589 50.2433ZM55.235 40.5047C55.1138 40.607 54.991 40.7072 54.8667 40.8053C54.6231 37.3532 53.3308 34.047 51.1486 31.337C49.5208 29.3153 47.4631 27.7067 45.1443 26.6154C45.4819 26.6949 45.8177 26.7841 46.1513 26.8827C48.8895 27.7277 51.2713 29.4548 52.9253 31.7949C54.5791 34.1346 55.4125 36.9555 55.2958 39.8182C55.2805 40.0478 55.2603 40.2767 55.235 40.5047ZM43.1302 27.0958C45.8913 28.058 48.3431 29.7753 50.1967 32.0698C52.3921 34.7876 53.6192 38.1557 53.6904 41.6424C52.2295 42.5761 50.6078 43.2442 48.9001 43.6087C48.6197 43.6685 48.338 43.72 48.0555 43.763C48.3058 39.5336 48.4193 35.0383 46.4671 31.1305C45.7414 29.5049 44.5866 28.1108 43.1302 27.0958Z" fill="white" stroke="white" stroke-width="0.452541" stroke-linejoin="round"/>
</svg>
