<svg width="80" height="80" viewBox="0 0 80 80" fill="none" xmlns="http://www.w3.org/2000/svg">
<circle cx="40" cy="40" r="40" fill="#EC724A"/>
<mask id="path-2-outside-1_0_220" maskUnits="userSpaceOnUse" x="21.6553" y="23.7788" width="36" height="32" fill="black">
<rect fill="white" x="21.6553" y="23.7788" width="36" height="32"/>
<path d="M31.9277 32.1759C33.6341 33.1314 35.224 34.2849 36.6647 35.6129C37.0737 35.9738 37.67 35.3723 37.261 34.9942C35.7802 33.6202 34.1446 32.4263 32.3878 31.4369C31.9107 31.162 31.4847 31.9181 31.9618 32.1759H31.9277Z"/>
<path d="M36.5966 40.3729C34.8871 39.4088 33.237 38.3414 31.6552 37.1765C31.5617 37.1162 31.4941 37.0227 31.4657 36.9145C31.4373 36.8063 31.4502 36.6913 31.5018 36.5922C31.5587 36.4947 31.6515 36.4237 31.76 36.3948C31.8684 36.3658 31.9839 36.3812 32.0812 36.4375C33.663 37.6024 35.3131 38.6699 37.0226 39.634C37.1079 39.6965 37.1672 39.7888 37.1889 39.8928C37.2107 39.9969 37.1934 40.1054 37.1403 40.1974C37.0873 40.2893 37.0024 40.3582 36.902 40.3906C36.8015 40.423 36.6927 40.4167 36.5966 40.3729Z"/>
<path d="M31.7063 42.6931C33.2739 43.4836 34.8075 44.3257 36.307 45.2365C36.4041 45.2721 36.5105 45.2723 36.6077 45.2371C36.705 45.2019 36.787 45.1335 36.8396 45.0438C36.8921 44.9541 36.912 44.8487 36.8956 44.7458C36.8793 44.6429 36.8277 44.549 36.75 44.4804C35.2505 43.5867 33.6999 42.7618 32.1323 41.9541C31.6552 41.6964 31.2121 42.4525 31.7063 42.6931Z"/>
<path d="M48.4054 33.1898L43.532 36.4206C43.106 36.7127 42.6459 35.9738 43.106 35.6816L47.9794 32.4508C48.4054 32.1415 48.8654 32.8804 48.4054 33.1898Z"/>
<path d="M43.4805 40.8023C45.0106 39.8388 46.6113 38.9943 48.2686 38.2761C48.3654 38.2187 48.4357 38.1252 48.4644 38.0158C48.4931 37.9064 48.4778 37.79 48.4219 37.6918C48.3621 37.5976 48.2694 37.5294 48.1621 37.5007C48.0549 37.4721 47.9409 37.4851 47.8427 37.5372C46.1836 38.2517 44.5827 39.0964 43.0545 40.0634C42.5945 40.3555 43.0545 41.1117 43.4805 40.8023Z"/>
<path d="M46.8543 44.4118C45.7203 44.7495 44.6239 45.2044 43.5827 45.7695H43.6338C43.5377 45.8133 43.429 45.8195 43.3285 45.7871C43.2281 45.7547 43.1431 45.6858 43.09 45.5939C43.037 45.502 43.0198 45.3934 43.0416 45.2894C43.0633 45.1853 43.1225 45.0931 43.2078 45.0305C44.2931 44.4358 45.4348 43.9522 46.6157 43.5869C46.7241 43.555 46.8408 43.5679 46.9399 43.6227C47.0389 43.6775 47.1123 43.7697 47.1439 43.8791C47.1755 43.9885 47.1629 44.1061 47.1085 44.206C47.0542 44.3059 46.9627 44.3799 46.8543 44.4118Z"/>
<path fill-rule="evenodd" clip-rule="evenodd" d="M40.1752 30.9039C36.7497 28.5937 33.1489 26.5596 29.4062 24.8204C29.1062 24.6847 28.825 24.9039 28.7648 25.147C28.5596 25.1542 28.3577 25.2916 28.3494 25.5592C28.3065 26.7534 28.2616 27.9473 28.2145 29.141C28.1933 29.0896 28.1622 29.0423 28.1224 29.0022C28.0425 28.9216 27.9342 28.8764 27.8212 28.8764L24.8052 28.5842C24.6922 28.5842 24.5839 28.6295 24.504 28.71C24.4241 28.7906 24.3792 28.8999 24.3792 29.0138C24.3792 29.0547 24.385 29.0949 24.396 29.1335C24.7584 37.3766 24.2213 45.6354 22.7943 53.7602C22.7907 53.7839 22.7887 53.807 22.7882 53.8295C22.4881 54.0489 22.7284 54.6596 23.1865 54.585C28.6939 53.6145 34.342 53.8194 39.766 55.1865C39.87 55.2035 39.9765 55.181 40.0649 55.1234C40.1534 55.0658 40.2176 54.9772 40.2452 54.8747C40.254 54.8418 40.2589 54.8082 40.2598 54.7746C40.2806 54.7842 40.3021 54.7921 40.3244 54.7983C40.4346 54.8289 40.5524 54.8141 40.6518 54.7571H40.6688C40.9439 54.5941 41.2196 54.4323 41.496 54.2716C41.5596 54.3218 41.6418 54.3553 41.7426 54.3616L55.7832 55.0146C56.0211 55.0146 56.1551 54.8577 56.1855 54.6778C56.2644 54.6082 56.3155 54.503 56.3112 54.3614C56.045 46.306 56.2686 38.2419 56.9808 30.2143C57.0085 30.1641 57.0261 30.1088 57.0326 30.0517C57.0391 29.9946 57.0344 29.9367 57.0188 29.8814C57.0157 29.8707 57.0123 29.8601 57.0084 29.8496C56.9783 29.4468 56.4953 29.3709 56.2697 29.6218C54.9078 29.8774 53.5216 29.9789 52.1369 29.9244C52.015 29.9244 51.9203 29.9666 51.8528 30.0322C51.8449 28.7082 51.7697 27.3835 51.5917 26.0578C51.5917 25.8541 51.4678 25.7589 51.3154 25.7467C51.1966 25.5942 50.9989 25.5146 50.808 25.6455C47.4658 27.7154 44.0064 29.5859 40.4474 31.2474C40.4229 31.2372 40.3974 31.2293 40.3713 31.2236C40.3605 31.1051 40.301 30.9885 40.1752 30.9039ZM55.4528 54.14C55.2295 46.2582 55.4751 38.3702 56.1882 30.5183C54.8501 30.7402 53.4932 30.8292 52.1369 30.7836C52.0142 30.7798 51.9191 30.7341 51.8516 30.6657C51.8297 32.9605 51.6227 35.2534 51.4156 37.5464C51.0752 41.3155 50.7348 45.0848 51.2168 48.8624C51.2363 49.0197 51.1749 49.1306 51.0773 49.1963C51.0486 49.2698 50.9897 49.3343 50.8926 49.3782C48.1167 50.6647 45.4047 52.0552 42.7567 53.5495L55.4528 54.14ZM28.1177 29.6051C28.1517 29.5708 28.1796 29.5315 28.2007 29.4889C27.9508 35.7712 27.6425 42.0457 27.2759 48.3123C27.2759 48.4501 27.3273 48.5534 27.4048 48.6221C27.4363 48.698 27.4988 48.765 27.5995 48.8106C31.427 50.4539 35.2128 52.223 38.9321 54.1054C33.8997 52.9755 28.6986 52.8205 23.6063 53.6503C25.007 45.688 25.5623 37.5979 25.2629 29.517L27.8212 29.7356C27.9328 29.7314 28.0387 29.6847 28.1177 29.6051ZM39.8298 31.6868C39.8032 31.6756 39.7763 31.661 39.7493 31.6429C36.388 29.3811 32.8605 27.3814 29.1977 25.6611C28.9278 33.1476 28.575 40.6341 28.1391 48.1206C32.0463 49.8092 35.8958 51.6141 39.6876 53.5353C39.2336 46.2581 39.2811 38.9577 39.8298 31.6868ZM40.5571 53.8121C43.8193 51.9577 47.0814 50.2503 50.3435 48.6899C49.9029 45.0129 50.2396 41.344 50.5761 37.6772C50.9134 34.0012 51.2505 30.3274 50.8041 26.6496C47.5262 28.6602 44.1363 30.4792 40.6513 32.0975C40.1247 39.3248 40.0932 46.5802 40.5571 53.8121Z"/>
</mask>
<path d="M31.9277 32.1759C33.6341 33.1314 35.224 34.2849 36.6647 35.6129C37.0737 35.9738 37.67 35.3723 37.261 34.9942C35.7802 33.6202 34.1446 32.4263 32.3878 31.4369C31.9107 31.162 31.4847 31.9181 31.9618 32.1759H31.9277Z" fill="white"/>
<path d="M36.5966 40.3729C34.8871 39.4088 33.237 38.3414 31.6552 37.1765C31.5617 37.1162 31.4941 37.0227 31.4657 36.9145C31.4373 36.8063 31.4502 36.6913 31.5018 36.5922C31.5587 36.4947 31.6515 36.4237 31.76 36.3948C31.8684 36.3658 31.9839 36.3812 32.0812 36.4375C33.663 37.6024 35.3131 38.6699 37.0226 39.634C37.1079 39.6965 37.1672 39.7888 37.1889 39.8928C37.2107 39.9969 37.1934 40.1054 37.1403 40.1974C37.0873 40.2893 37.0024 40.3582 36.902 40.3906C36.8015 40.423 36.6927 40.4167 36.5966 40.3729Z" fill="white"/>
<path d="M31.7063 42.6931C33.2739 43.4836 34.8075 44.3257 36.307 45.2365C36.4041 45.2721 36.5105 45.2723 36.6077 45.2371C36.705 45.2019 36.787 45.1335 36.8396 45.0438C36.8921 44.9541 36.912 44.8487 36.8956 44.7458C36.8793 44.6429 36.8277 44.549 36.75 44.4804C35.2505 43.5867 33.6999 42.7618 32.1323 41.9541C31.6552 41.6964 31.2121 42.4525 31.7063 42.6931Z" fill="white"/>
<path d="M48.4054 33.1898L43.532 36.4206C43.106 36.7127 42.6459 35.9738 43.106 35.6816L47.9794 32.4508C48.4054 32.1415 48.8654 32.8804 48.4054 33.1898Z" fill="white"/>
<path d="M43.4805 40.8023C45.0106 39.8388 46.6113 38.9943 48.2686 38.2761C48.3654 38.2187 48.4357 38.1252 48.4644 38.0158C48.4931 37.9064 48.4778 37.79 48.4219 37.6918C48.3621 37.5976 48.2694 37.5294 48.1621 37.5007C48.0549 37.4721 47.9409 37.4851 47.8427 37.5372C46.1836 38.2517 44.5827 39.0964 43.0545 40.0634C42.5945 40.3555 43.0545 41.1117 43.4805 40.8023Z" fill="white"/>
<path d="M46.8543 44.4118C45.7203 44.7495 44.6239 45.2044 43.5827 45.7695H43.6338C43.5377 45.8133 43.429 45.8195 43.3285 45.7871C43.2281 45.7547 43.1431 45.6858 43.09 45.5939C43.037 45.502 43.0198 45.3934 43.0416 45.2894C43.0633 45.1853 43.1225 45.0931 43.2078 45.0305C44.2931 44.4358 45.4348 43.9522 46.6157 43.5869C46.7241 43.555 46.8408 43.5679 46.9399 43.6227C47.0389 43.6775 47.1123 43.7697 47.1439 43.8791C47.1755 43.9885 47.1629 44.1061 47.1085 44.206C47.0542 44.3059 46.9627 44.3799 46.8543 44.4118Z" fill="white"/>
<path fill-rule="evenodd" clip-rule="evenodd" d="M40.1752 30.9039C36.7497 28.5937 33.1489 26.5596 29.4062 24.8204C29.1062 24.6847 28.825 24.9039 28.7648 25.147C28.5596 25.1542 28.3577 25.2916 28.3494 25.5592C28.3065 26.7534 28.2616 27.9473 28.2145 29.141C28.1933 29.0896 28.1622 29.0423 28.1224 29.0022C28.0425 28.9216 27.9342 28.8764 27.8212 28.8764L24.8052 28.5842C24.6922 28.5842 24.5839 28.6295 24.504 28.71C24.4241 28.7906 24.3792 28.8999 24.3792 29.0138C24.3792 29.0547 24.385 29.0949 24.396 29.1335C24.7584 37.3766 24.2213 45.6354 22.7943 53.7602C22.7907 53.7839 22.7887 53.807 22.7882 53.8295C22.4881 54.0489 22.7284 54.6596 23.1865 54.585C28.6939 53.6145 34.342 53.8194 39.766 55.1865C39.87 55.2035 39.9765 55.181 40.0649 55.1234C40.1534 55.0658 40.2176 54.9772 40.2452 54.8747C40.254 54.8418 40.2589 54.8082 40.2598 54.7746C40.2806 54.7842 40.3021 54.7921 40.3244 54.7983C40.4346 54.8289 40.5524 54.8141 40.6518 54.7571H40.6688C40.9439 54.5941 41.2196 54.4323 41.496 54.2716C41.5596 54.3218 41.6418 54.3553 41.7426 54.3616L55.7832 55.0146C56.0211 55.0146 56.1551 54.8577 56.1855 54.6778C56.2644 54.6082 56.3155 54.503 56.3112 54.3614C56.045 46.306 56.2686 38.2419 56.9808 30.2143C57.0085 30.1641 57.0261 30.1088 57.0326 30.0517C57.0391 29.9946 57.0344 29.9367 57.0188 29.8814C57.0157 29.8707 57.0123 29.8601 57.0084 29.8496C56.9783 29.4468 56.4953 29.3709 56.2697 29.6218C54.9078 29.8774 53.5216 29.9789 52.1369 29.9244C52.015 29.9244 51.9203 29.9666 51.8528 30.0322C51.8449 28.7082 51.7697 27.3835 51.5917 26.0578C51.5917 25.8541 51.4678 25.7589 51.3154 25.7467C51.1966 25.5942 50.9989 25.5146 50.808 25.6455C47.4658 27.7154 44.0064 29.5859 40.4474 31.2474C40.4229 31.2372 40.3974 31.2293 40.3713 31.2236C40.3605 31.1051 40.301 30.9885 40.1752 30.9039ZM55.4528 54.14C55.2295 46.2582 55.4751 38.3702 56.1882 30.5183C54.8501 30.7402 53.4932 30.8292 52.1369 30.7836C52.0142 30.7798 51.9191 30.7341 51.8516 30.6657C51.8297 32.9605 51.6227 35.2534 51.4156 37.5464C51.0752 41.3155 50.7348 45.0848 51.2168 48.8624C51.2363 49.0197 51.1749 49.1306 51.0773 49.1963C51.0486 49.2698 50.9897 49.3343 50.8926 49.3782C48.1167 50.6647 45.4047 52.0552 42.7567 53.5495L55.4528 54.14ZM28.1177 29.6051C28.1517 29.5708 28.1796 29.5315 28.2007 29.4889C27.9508 35.7712 27.6425 42.0457 27.2759 48.3123C27.2759 48.4501 27.3273 48.5534 27.4048 48.6221C27.4363 48.698 27.4988 48.765 27.5995 48.8106C31.427 50.4539 35.2128 52.223 38.9321 54.1054C33.8997 52.9755 28.6986 52.8205 23.6063 53.6503C25.007 45.688 25.5623 37.5979 25.2629 29.517L27.8212 29.7356C27.9328 29.7314 28.0387 29.6847 28.1177 29.6051ZM39.8298 31.6868C39.8032 31.6756 39.7763 31.661 39.7493 31.6429C36.388 29.3811 32.8605 27.3814 29.1977 25.6611C28.9278 33.1476 28.575 40.6341 28.1391 48.1206C32.0463 49.8092 35.8958 51.6141 39.6876 53.5353C39.2336 46.2581 39.2811 38.9577 39.8298 31.6868ZM40.5571 53.8121C43.8193 51.9577 47.0814 50.2503 50.3435 48.6899C49.9029 45.0129 50.2396 41.344 50.5761 37.6772C50.9134 34.0012 51.2505 30.3274 50.8041 26.6496C47.5262 28.6602 44.1363 30.4792 40.6513 32.0975C40.1247 39.3248 40.0932 46.5802 40.5571 53.8121Z" fill="white"/>
<path d="M31.9277 32.1759C33.6341 33.1314 35.224 34.2849 36.6647 35.6129C37.0737 35.9738 37.67 35.3723 37.261 34.9942C35.7802 33.6202 34.1446 32.4263 32.3878 31.4369C31.9107 31.162 31.4847 31.9181 31.9618 32.1759H31.9277Z" stroke="white" stroke-width="0.905082" stroke-linejoin="round" mask="url(#path-2-outside-1_0_220)"/>
<path d="M36.5966 40.3729C34.8871 39.4088 33.237 38.3414 31.6552 37.1765C31.5617 37.1162 31.4941 37.0227 31.4657 36.9145C31.4373 36.8063 31.4502 36.6913 31.5018 36.5922C31.5587 36.4947 31.6515 36.4237 31.76 36.3948C31.8684 36.3658 31.9839 36.3812 32.0812 36.4375C33.663 37.6024 35.3131 38.6699 37.0226 39.634C37.1079 39.6965 37.1672 39.7888 37.1889 39.8928C37.2107 39.9969 37.1934 40.1054 37.1403 40.1974C37.0873 40.2893 37.0024 40.3582 36.902 40.3906C36.8015 40.423 36.6927 40.4167 36.5966 40.3729Z" stroke="white" stroke-width="0.905082" stroke-linejoin="round" mask="url(#path-2-outside-1_0_220)"/>
<path d="M31.7063 42.6931C33.2739 43.4836 34.8075 44.3257 36.307 45.2365C36.4041 45.2721 36.5105 45.2723 36.6077 45.2371C36.705 45.2019 36.787 45.1335 36.8396 45.0438C36.8921 44.9541 36.912 44.8487 36.8956 44.7458C36.8793 44.6429 36.8277 44.549 36.75 44.4804C35.2505 43.5867 33.6999 42.7618 32.1323 41.9541C31.6552 41.6964 31.2121 42.4525 31.7063 42.6931Z" stroke="white" stroke-width="0.905082" stroke-linejoin="round" mask="url(#path-2-outside-1_0_220)"/>
<path d="M48.4054 33.1898L43.532 36.4206C43.106 36.7127 42.6459 35.9738 43.106 35.6816L47.9794 32.4508C48.4054 32.1415 48.8654 32.8804 48.4054 33.1898Z" stroke="white" stroke-width="0.905082" stroke-linejoin="round" mask="url(#path-2-outside-1_0_220)"/>
<path d="M43.4805 40.8023C45.0106 39.8388 46.6113 38.9943 48.2686 38.2761C48.3654 38.2187 48.4357 38.1252 48.4644 38.0158C48.4931 37.9064 48.4778 37.79 48.4219 37.6918C48.3621 37.5976 48.2694 37.5294 48.1621 37.5007C48.0549 37.4721 47.9409 37.4851 47.8427 37.5372C46.1836 38.2517 44.5827 39.0964 43.0545 40.0634C42.5945 40.3555 43.0545 41.1117 43.4805 40.8023Z" stroke="white" stroke-width="0.905082" stroke-linejoin="round" mask="url(#path-2-outside-1_0_220)"/>
<path d="M46.8543 44.4118C45.7203 44.7495 44.6239 45.2044 43.5827 45.7695H43.6338C43.5377 45.8133 43.429 45.8195 43.3285 45.7871C43.2281 45.7547 43.1431 45.6858 43.09 45.5939C43.037 45.502 43.0198 45.3934 43.0416 45.2894C43.0633 45.1853 43.1225 45.0931 43.2078 45.0305C44.2931 44.4358 45.4348 43.9522 46.6157 43.5869C46.7241 43.555 46.8408 43.5679 46.9399 43.6227C47.0389 43.6775 47.1123 43.7697 47.1439 43.8791C47.1755 43.9885 47.1629 44.1061 47.1085 44.206C47.0542 44.3059 46.9627 44.3799 46.8543 44.4118Z" stroke="white" stroke-width="0.905082" stroke-linejoin="round" mask="url(#path-2-outside-1_0_220)"/>
<path fill-rule="evenodd" clip-rule="evenodd" d="M40.1752 30.9039C36.7497 28.5937 33.1489 26.5596 29.4062 24.8204C29.1062 24.6847 28.825 24.9039 28.7648 25.147C28.5596 25.1542 28.3577 25.2916 28.3494 25.5592C28.3065 26.7534 28.2616 27.9473 28.2145 29.141C28.1933 29.0896 28.1622 29.0423 28.1224 29.0022C28.0425 28.9216 27.9342 28.8764 27.8212 28.8764L24.8052 28.5842C24.6922 28.5842 24.5839 28.6295 24.504 28.71C24.4241 28.7906 24.3792 28.8999 24.3792 29.0138C24.3792 29.0547 24.385 29.0949 24.396 29.1335C24.7584 37.3766 24.2213 45.6354 22.7943 53.7602C22.7907 53.7839 22.7887 53.807 22.7882 53.8295C22.4881 54.0489 22.7284 54.6596 23.1865 54.585C28.6939 53.6145 34.342 53.8194 39.766 55.1865C39.87 55.2035 39.9765 55.181 40.0649 55.1234C40.1534 55.0658 40.2176 54.9772 40.2452 54.8747C40.254 54.8418 40.2589 54.8082 40.2598 54.7746C40.2806 54.7842 40.3021 54.7921 40.3244 54.7983C40.4346 54.8289 40.5524 54.8141 40.6518 54.7571H40.6688C40.9439 54.5941 41.2196 54.4323 41.496 54.2716C41.5596 54.3218 41.6418 54.3553 41.7426 54.3616L55.7832 55.0146C56.0211 55.0146 56.1551 54.8577 56.1855 54.6778C56.2644 54.6082 56.3155 54.503 56.3112 54.3614C56.045 46.306 56.2686 38.2419 56.9808 30.2143C57.0085 30.1641 57.0261 30.1088 57.0326 30.0517C57.0391 29.9946 57.0344 29.9367 57.0188 29.8814C57.0157 29.8707 57.0123 29.8601 57.0084 29.8496C56.9783 29.4468 56.4953 29.3709 56.2697 29.6218C54.9078 29.8774 53.5216 29.9789 52.1369 29.9244C52.015 29.9244 51.9203 29.9666 51.8528 30.0322C51.8449 28.7082 51.7697 27.3835 51.5917 26.0578C51.5917 25.8541 51.4678 25.7589 51.3154 25.7467C51.1966 25.5942 50.9989 25.5146 50.808 25.6455C47.4658 27.7154 44.0064 29.5859 40.4474 31.2474C40.4229 31.2372 40.3974 31.2293 40.3713 31.2236C40.3605 31.1051 40.301 30.9885 40.1752 30.9039ZM55.4528 54.14C55.2295 46.2582 55.4751 38.3702 56.1882 30.5183C54.8501 30.7402 53.4932 30.8292 52.1369 30.7836C52.0142 30.7798 51.9191 30.7341 51.8516 30.6657C51.8297 32.9605 51.6227 35.2534 51.4156 37.5464C51.0752 41.3155 50.7348 45.0848 51.2168 48.8624C51.2363 49.0197 51.1749 49.1306 51.0773 49.1963C51.0486 49.2698 50.9897 49.3343 50.8926 49.3782C48.1167 50.6647 45.4047 52.0552 42.7567 53.5495L55.4528 54.14ZM28.1177 29.6051C28.1517 29.5708 28.1796 29.5315 28.2007 29.4889C27.9508 35.7712 27.6425 42.0457 27.2759 48.3123C27.2759 48.4501 27.3273 48.5534 27.4048 48.6221C27.4363 48.698 27.4988 48.765 27.5995 48.8106C31.427 50.4539 35.2128 52.223 38.9321 54.1054C33.8997 52.9755 28.6986 52.8205 23.6063 53.6503C25.007 45.688 25.5623 37.5979 25.2629 29.517L27.8212 29.7356C27.9328 29.7314 28.0387 29.6847 28.1177 29.6051ZM39.8298 31.6868C39.8032 31.6756 39.7763 31.661 39.7493 31.6429C36.388 29.3811 32.8605 27.3814 29.1977 25.6611C28.9278 33.1476 28.575 40.6341 28.1391 48.1206C32.0463 49.8092 35.8958 51.6141 39.6876 53.5353C39.2336 46.2581 39.2811 38.9577 39.8298 31.6868ZM40.5571 53.8121C43.8193 51.9577 47.0814 50.2503 50.3435 48.6899C49.9029 45.0129 50.2396 41.344 50.5761 37.6772C50.9134 34.0012 51.2505 30.3274 50.8041 26.6496C47.5262 28.6602 44.1363 30.4792 40.6513 32.0975C40.1247 39.3248 40.0932 46.5802 40.5571 53.8121Z" stroke="white" stroke-width="0.905082" stroke-linejoin="round" mask="url(#path-2-outside-1_0_220)"/>
</svg>
