<svg width="51" height="51" viewBox="0 0 51 51" fill="none" xmlns="http://www.w3.org/2000/svg">
<path fill-rule="evenodd" clip-rule="evenodd" d="M25.5 49.4691C38.7378 49.4691 49.4691 38.7378 49.4691 25.5C49.4691 12.2622 38.7378 1.53093 25.5 1.53093C12.2622 1.53093 1.53093 12.2622 1.53093 25.5C1.53093 38.7378 12.2622 49.4691 25.5 49.4691ZM25.5 50.5C39.3071 50.5 50.5 39.3071 50.5 25.5C50.5 11.6929 39.3071 0.5 25.5 0.5C11.6929 0.5 0.5 11.6929 0.5 25.5C0.5 39.3071 11.6929 50.5 25.5 50.5Z" fill="white"/>
<path d="M23.1547 30.1046C23.1639 30.1286 23.1712 30.1538 23.1765 30.18C23.2028 30.3105 23.1728 30.4448 23.0905 30.5638L23.0897 30.5649L22.5065 31.3963C24.2292 32.0338 26.0855 32.2342 27.9085 31.9764C28.3964 31.9074 28.8775 31.8062 29.3489 31.674C29.2901 31.6341 29.2378 31.5806 29.1952 31.5132C26.9136 27.9518 23.7543 25.0428 20.0265 23.0623C19.9056 23.5825 19.8179 24.111 19.7643 24.6448C19.6144 26.136 19.7334 27.6399 20.1136 29.0854L20.8549 28.4398L20.858 28.4372L20.858 28.4372C20.9575 28.3536 21.0707 28.3108 21.1841 28.304C21.193 28.2996 21.202 28.2955 21.2112 28.2916M23.1547 30.1046L21.2556 28.3961L21.2636 28.3052C21.2478 28.3038 21.2319 28.3031 21.216 28.3031L21.2112 28.2916M23.1547 30.1046C23.1602 30.0591 23.1518 30.0121 23.1291 29.9701C22.8004 29.3615 22.3493 28.8277 21.8042 28.4021M23.1547 30.1046L22.7927 29.8399C22.4925 29.3532 22.1071 28.9236 21.6542 28.5721M21.2112 28.2916C21.2112 28.2916 21.2112 28.2916 21.2112 28.2916L21.216 28.3031L21.5493 28.4999C21.5887 28.5166 21.6244 28.5412 21.6542 28.5721M21.2112 28.2916C21.2787 28.2629 21.3513 28.2482 21.4245 28.2482C21.4978 28.2482 21.5703 28.2629 21.6378 28.2916C21.6996 28.3179 21.756 28.3554 21.8042 28.4021M21.8042 28.4021C21.8004 28.3992 21.7967 28.3962 21.7929 28.3933L21.6542 28.5721M21.8042 28.4021C21.8085 28.4063 21.8128 28.4107 21.8171 28.415L21.6542 28.5721M29.3038 22.7497L29.3038 22.7499L29.3151 22.7503C29.8293 22.767 30.3359 22.621 30.7625 22.3333C31.189 22.0455 31.514 21.6306 31.6911 21.1475L31.6914 21.1476L31.6948 21.1368C31.842 20.6629 31.8369 20.1548 31.6799 19.6841C31.523 19.2134 31.2223 18.8038 30.8202 18.5131L30.8203 18.5129L30.8135 18.5084C30.3477 18.1964 29.7837 18.0659 29.2281 18.1415C28.8462 18.1935 28.4865 18.3404 28.1802 18.5653C27.7567 18.7498 27.4107 19.0784 27.205 19.4947C26.9825 19.9451 26.9414 20.4636 27.0898 20.9434C27.2329 21.4327 27.5208 21.8672 27.9157 22.1896C28.3111 22.5124 28.7951 22.7077 29.3038 22.7497ZM28.2734 20.9663L28.2734 20.9663L28.2715 20.9629C28.1778 20.7875 28.1251 20.5541 28.1344 20.3249C28.1423 20.1311 28.1933 19.9586 28.2819 19.8306C28.3269 19.8238 28.3709 19.8113 28.4129 19.7934L28.3244 19.5852L28.4129 19.7934C28.4803 19.7648 28.5413 19.7228 28.5922 19.67C28.5965 19.6656 28.6005 19.6611 28.6044 19.6564C28.6285 19.6269 28.654 19.5986 28.6806 19.5717C28.7509 19.5351 28.8123 19.4837 28.8606 19.4213C28.9802 19.3394 29.1141 19.2788 29.2566 19.2432C29.5106 19.1797 29.7783 19.199 30.0204 19.2983C30.2568 19.415 30.4504 19.6032 30.5737 19.8364C30.6978 20.0709 30.7442 20.3388 30.7064 20.6014C30.6617 20.8735 30.5329 21.1246 30.3379 21.3196L30.4979 21.4796L30.3379 21.3196C30.1436 21.5138 29.8935 21.6425 29.6226 21.6876C29.3519 21.7189 29.078 21.6671 28.8374 21.539C28.5953 21.4101 28.3985 21.2103 28.2734 20.9663ZM21.5266 17.6749L21.5266 17.6749L21.5249 17.6768C20.3906 18.9264 19.6239 20.3718 19.1679 21.9087C19.0592 22.033 18.9885 22.2162 19.0336 22.3991C18.4241 24.8233 18.5544 27.4434 19.2056 29.876L13.646 34.7173H13.646L13.6456 34.7176C13.5601 34.7924 13.5032 34.8844 13.4789 34.9856C13.4393 35.0634 13.4183 35.15 13.4183 35.2386C13.4183 35.3755 13.4686 35.5077 13.5598 35.61L16.3513 38.9623C16.3567 38.9688 16.3624 38.9749 16.3685 38.9808C16.4724 39.0805 16.6108 39.1361 16.7548 39.1361C16.8988 39.1361 17.0372 39.0805 17.1411 38.9808C17.1452 38.9768 17.1493 38.9726 17.1531 38.9683C17.2205 38.893 17.2663 38.8016 17.2866 38.7038C17.3726 38.6658 17.4519 38.6033 17.5144 38.5132C17.5146 38.513 17.5147 38.5128 17.5148 38.5127L21.8631 32.3135C23.6914 33.035 25.6663 33.3083 27.6227 33.11C29.6111 32.9085 31.5205 32.2258 33.1859 31.121L33.1859 31.121L33.189 31.1189C34.6531 30.1131 35.8431 28.7577 36.6512 27.1758C37.4592 25.5938 37.8598 23.8352 37.8165 22.0594L37.8165 22.0589C37.7695 20.271 37.2113 18.5339 36.208 17.0532C35.2046 15.5725 33.7982 14.4103 32.1549 13.7039C32.1446 13.6995 32.1338 13.6958 32.1229 13.6929C30.0971 13.1624 27.9452 13.4283 26.1096 14.4356C24.3739 15.1859 22.8132 16.289 21.5266 17.6749ZM33.2635 29.6716C32.3296 30.4151 31.2859 30.9997 30.1746 31.4073C30.1785 31.3979 30.1821 31.3882 30.1854 31.3784C30.2322 31.2404 30.2163 31.0863 30.1239 30.9485C27.6948 27.1591 24.311 24.0802 20.317 22.0187C20.5775 21.2183 20.9187 20.4441 21.3367 19.7082C22.2976 18.2612 23.5804 17.0562 25.0847 16.1875L25.0848 16.1878L25.0944 16.1816C26.6216 15.1942 28.3721 14.6057 30.1856 14.4698C31.9172 14.4727 33.4098 15.36 34.5373 16.6613C35.6671 17.9651 36.4149 19.6686 36.6516 21.2535C36.8474 22.8285 36.6392 24.4275 36.0468 25.9C35.4541 27.373 34.4962 28.6709 33.2635 29.6716ZM21.6192 29.7586C21.6192 29.8033 21.6325 29.847 21.6573 29.8842L21.7843 30.0747C21.7844 30.0748 21.7845 30.0749 21.7845 30.075C21.8379 30.1559 21.8875 30.2393 21.9329 30.3249L16.7458 37.7198L14.6883 35.2584L21.3563 29.4621C21.4489 29.5531 21.5366 29.6489 21.6192 29.7492V29.7586Z" fill="white" stroke="white" stroke-width="0.452541" stroke-linejoin="round"/>
</svg>
