<svg width="50" height="51" viewBox="0 0 50 51" fill="none" xmlns="http://www.w3.org/2000/svg">
<path fill-rule="evenodd" clip-rule="evenodd" d="M25 49.4691C38.2378 49.4691 48.9691 38.7378 48.9691 25.5C48.9691 12.2622 38.2378 1.53093 25 1.53093C11.7622 1.53093 1.03093 12.2622 1.03093 25.5C1.03093 38.7378 11.7622 49.4691 25 49.4691ZM25 50.5C38.8071 50.5 50 39.3071 50 25.5C50 11.6929 38.8071 0.5 25 0.5C11.1929 0.5 0 11.6929 0 25.5C0 39.3071 11.1929 50.5 25 50.5Z" fill="white"/>
<mask id="path-2-outside-1_0_121" maskUnits="userSpaceOnUse" x="14.2646" y="11.9978" width="22" height="27" fill="black">
<rect fill="white" x="14.2646" y="11.9978" width="22" height="27"/>
<path d="M18.7736 20.1153C18.8942 20.2995 19.0547 20.4543 19.2433 20.568L19.2743 20.537C19.326 20.5746 19.3619 20.6301 19.3751 20.6927C19.3883 20.7552 19.3778 20.8205 19.3456 20.8757C19.3135 20.931 19.262 20.9724 19.2011 20.9919C19.1402 21.0114 19.0743 21.0076 19.016 20.9813C18.6533 20.7631 18.3689 20.4356 18.2037 20.0459C18.0385 19.6561 18.001 19.2241 18.0965 18.8117C18.2161 18.4148 18.441 18.0578 18.7474 17.7785C18.7872 17.7403 18.831 17.7 18.8769 17.6579C19.1404 17.4157 19.469 17.1139 19.4602 16.7971C19.4515 16.4835 19.1858 16.2434 18.9602 16.0395C18.9182 16.0016 18.8776 15.9649 18.8403 15.9292C18.5747 15.71 18.3656 15.43 18.2308 15.1131C17.9312 14.2246 18.6957 13.5323 19.3363 13.0468C19.6049 12.8505 19.8632 13.2947 19.6049 13.491C19.2004 13.725 18.8872 14.0892 18.7164 14.5242C18.6863 14.7035 18.7071 14.8876 18.7765 15.0556C18.8459 15.2237 18.9611 15.3688 19.109 15.4746C19.1796 15.5453 19.2547 15.6129 19.33 15.6808C19.6514 15.9702 19.9768 16.2634 19.9768 16.8074C19.9768 17.3238 19.6041 17.6692 19.2487 17.9985C19.1419 18.0974 19.0367 18.1949 18.9437 18.2951C18.791 18.4538 18.6761 18.6449 18.6074 18.8541C18.5387 19.0633 18.518 19.2853 18.5467 19.5036C18.5755 19.722 18.6531 19.931 18.7736 20.1153Z"/>
<path d="M18.3756 25.7545C18.4441 25.7545 18.5098 25.7273 18.5582 25.6789C18.6066 25.6304 18.6338 25.5647 18.6338 25.4962C18.6338 25.4277 18.6066 25.362 18.5582 25.3136C18.5098 25.2651 18.4441 25.2379 18.3756 25.2379C18.3071 25.2379 18.2414 25.2651 18.1929 25.3136C18.1445 25.362 18.1173 25.4277 18.1173 25.4962C18.1173 25.5647 18.1445 25.6304 18.1929 25.6789C18.2414 25.7273 18.3071 25.7545 18.3756 25.7545Z"/>
<path d="M28.0043 25.3513L21.6401 25.7853C21.3095 25.8059 21.3095 25.2687 21.6401 25.2687L28.0043 24.8348C28.3452 24.8038 28.3349 25.3513 28.0043 25.3513Z"/>
<path fill-rule="evenodd" clip-rule="evenodd" d="M26.2327 37.6C26.825 36.6832 27.3908 35.7498 27.9296 34.8012C28.6201 34.9861 29.3487 34.9807 30.0378 34.7843C30.7709 34.5754 31.428 34.1591 31.9302 33.5856C33.0911 32.4569 34.021 31.1129 34.6681 29.6287C35.1743 28.4199 35.5772 26.6326 34.7404 25.4961C33.7692 24.153 31.9819 24.8039 30.8144 25.4961C30.7721 25.5269 30.7403 25.5697 30.7229 25.6186C30.7152 24.6682 30.6537 23.7127 30.5768 22.7583C30.5768 22.6586 30.527 22.5889 30.4582 22.5494C30.4179 22.4971 30.3543 22.4636 30.2669 22.469C25.5235 22.8288 20.7637 22.9254 16.0096 22.7583C15.8942 22.7583 15.8191 22.82 15.7842 22.9007C15.6829 22.9251 15.5946 23.0051 15.5861 23.1406C15.5515 23.7694 15.499 24.4013 15.4464 25.0346C15.2629 27.2417 15.0781 29.4655 15.6481 31.633C16.3078 34.1197 18.0743 35.9483 19.8897 37.6673C18.6928 37.6872 17.4959 37.711 16.2989 37.739C16.2304 37.739 16.1648 37.7662 16.1163 37.8146C16.0679 37.8631 16.0407 37.9287 16.0407 37.9972C16.0407 38.0658 16.0679 38.1314 16.1163 38.1799C16.1648 38.2283 16.2304 38.2555 16.2989 38.2555C20.4315 38.1453 24.5641 38.0971 28.6966 38.1109C28.7651 38.1109 28.8308 38.0837 28.8793 38.0352C28.9277 37.9868 28.9549 37.9211 28.9549 37.8526C28.9549 37.7841 28.9277 37.7184 28.8793 37.67C28.8308 37.6215 28.7651 37.5943 28.6966 37.5943C27.8753 37.5943 27.054 37.5962 26.2327 37.6ZM30.0797 22.9997C25.4268 23.3458 20.7585 23.4386 16.0955 23.2779C16.0637 23.8699 16.0166 24.4696 15.9693 25.0718C15.8044 27.1716 15.637 29.3038 16.1027 31.2611C16.7122 33.8233 18.5202 35.6416 20.3695 37.398H20.3592C20.4428 37.478 20.4522 37.5759 20.4185 37.6588C22.1519 37.6318 23.8852 37.6133 25.6186 37.6032C27.0121 35.47 28.2646 33.2479 29.368 30.9511C30.3913 28.3929 30.2943 25.6982 30.0797 22.9997ZM29.9281 34.3C29.3607 34.4594 28.7633 34.4695 28.1934 34.3315C28.7843 33.2678 29.3415 32.1852 29.8639 31.0854C30.526 29.3706 30.7256 27.5922 30.7238 25.7937C30.7289 25.8078 30.7354 25.8216 30.7431 25.8348C30.7752 25.8901 30.8267 25.9315 30.8876 25.951C30.9485 25.9705 31.0145 25.9667 31.0727 25.9404L31.114 25.899C32.2195 25.2791 34.0895 24.6179 34.6061 26.3123C34.8647 27.6236 34.6213 28.9842 33.9242 30.1246C33.3157 31.2699 32.5352 32.3152 31.6099 33.224C31.1684 33.7415 30.583 34.1161 29.9281 34.3Z"/>
<path d="M22.787 13.2326C22.5293 13.3817 22.3164 13.5972 22.1705 13.8567C22.0245 14.1162 21.9508 14.41 21.9572 14.7077C21.9635 15.0053 22.0496 15.2958 22.2065 15.5488C22.3633 15.8018 22.5852 16.0081 22.849 16.1461C23.0548 16.2253 23.2467 16.3369 23.4172 16.4767C23.5002 16.5849 23.5451 16.7174 23.5451 16.8538C23.5451 16.9901 23.5002 17.1227 23.4172 17.2309C23.239 17.5561 22.9417 17.7795 22.6454 18.0021C22.2546 18.2958 21.8655 18.5882 21.7539 19.1112C21.5576 20.0307 22.3324 20.5163 22.973 20.8675C23.0319 20.9031 23.1025 20.9139 23.1694 20.8974C23.2362 20.881 23.2938 20.8386 23.3294 20.7797C23.365 20.7208 23.3758 20.6502 23.3593 20.5833C23.3428 20.5165 23.3005 20.4589 23.2416 20.4233C22.8974 20.2715 22.5958 20.0373 22.3634 19.7414C22.2714 19.5696 22.2447 19.3702 22.2884 19.1803C22.3321 18.9903 22.4432 18.8226 22.601 18.7083C22.751 18.5551 22.9256 18.4197 23.1006 18.284C23.4919 17.9805 23.8847 17.6758 24.0061 17.1689C24.0472 17.0241 24.0584 16.8725 24.0388 16.7232C24.0193 16.574 23.9695 16.4303 23.8925 16.301C23.6766 16.0392 23.3949 15.8395 23.0763 15.7225C22.885 15.626 22.7243 15.4784 22.612 15.296C22.4997 15.1135 22.4403 14.9036 22.4403 14.6894C22.4403 14.4751 22.4997 14.2651 22.612 14.0827C22.7243 13.9003 22.885 13.7527 23.0763 13.6562C23.1352 13.6206 23.1775 13.563 23.194 13.4962C23.2105 13.4293 23.1997 13.3587 23.1641 13.2998C23.1285 13.2409 23.0709 13.1985 23.0041 13.182C22.9372 13.1656 22.8666 13.1763 22.8077 13.212L22.787 13.2326Z"/>
<path d="M26.7711 20.0137C26.9217 20.1364 27.1076 20.2076 27.3017 20.2169C27.6426 20.2376 27.6426 20.7335 27.3017 20.7335C27.102 20.7267 26.9059 20.6781 26.7263 20.5907C26.5466 20.5033 26.3873 20.3791 26.2587 20.2261C26.1301 20.0732 26.0351 19.8949 25.9798 19.7029C25.9246 19.5109 25.9103 19.3094 25.9379 19.1115C26.0245 18.7306 26.2017 18.3762 26.4545 18.0784C26.7392 17.8052 26.9154 17.4382 26.9504 17.0452C26.9096 16.662 26.605 16.3881 26.3261 16.1374C26.2516 16.0704 26.1789 16.0051 26.1136 15.9397C25.9389 15.7914 25.7971 15.6081 25.6975 15.4017C25.5979 15.1953 25.5425 14.9704 25.535 14.7413C25.5867 13.7392 26.7231 13.4912 27.5186 13.3982C27.8493 13.3569 27.8493 13.9148 27.5186 13.9148C27.0763 13.914 26.6453 14.0553 26.2892 14.3177C25.9173 14.6793 25.9276 14.9686 26.3615 15.4542C26.4566 15.5605 26.5615 15.6663 26.6678 15.7735C27.0468 16.1558 27.4428 16.5553 27.467 17.0555C27.4914 17.5591 27.2029 17.9477 26.9178 18.3318C26.8402 18.4363 26.7628 18.5405 26.6921 18.6466C26.5884 18.7672 26.5139 18.9101 26.4745 19.0642C26.4351 19.2183 26.4318 19.3795 26.4648 19.5351C26.5132 19.7232 26.6205 19.891 26.7711 20.0137Z"/>
</mask>
<path d="M18.7736 20.1153C18.8942 20.2995 19.0547 20.4543 19.2433 20.568L19.2743 20.537C19.326 20.5746 19.3619 20.6301 19.3751 20.6927C19.3883 20.7552 19.3778 20.8205 19.3456 20.8757C19.3135 20.931 19.262 20.9724 19.2011 20.9919C19.1402 21.0114 19.0743 21.0076 19.016 20.9813C18.6533 20.7631 18.3689 20.4356 18.2037 20.0459C18.0385 19.6561 18.001 19.2241 18.0965 18.8117C18.2161 18.4148 18.441 18.0578 18.7474 17.7785C18.7872 17.7403 18.831 17.7 18.8769 17.6579C19.1404 17.4157 19.469 17.1139 19.4602 16.7971C19.4515 16.4835 19.1858 16.2434 18.9602 16.0395C18.9182 16.0016 18.8776 15.9649 18.8403 15.9292C18.5747 15.71 18.3656 15.43 18.2308 15.1131C17.9312 14.2246 18.6957 13.5323 19.3363 13.0468C19.6049 12.8505 19.8632 13.2947 19.6049 13.491C19.2004 13.725 18.8872 14.0892 18.7164 14.5242C18.6863 14.7035 18.7071 14.8876 18.7765 15.0556C18.8459 15.2237 18.9611 15.3688 19.109 15.4746C19.1796 15.5453 19.2547 15.6129 19.33 15.6808C19.6514 15.9702 19.9768 16.2634 19.9768 16.8074C19.9768 17.3238 19.6041 17.6692 19.2487 17.9985C19.1419 18.0974 19.0367 18.1949 18.9437 18.2951C18.791 18.4538 18.6761 18.6449 18.6074 18.8541C18.5387 19.0633 18.518 19.2853 18.5467 19.5036C18.5755 19.722 18.6531 19.931 18.7736 20.1153Z" fill="white"/>
<path d="M18.3756 25.7545C18.4441 25.7545 18.5098 25.7273 18.5582 25.6789C18.6066 25.6304 18.6338 25.5647 18.6338 25.4962C18.6338 25.4277 18.6066 25.362 18.5582 25.3136C18.5098 25.2651 18.4441 25.2379 18.3756 25.2379C18.3071 25.2379 18.2414 25.2651 18.1929 25.3136C18.1445 25.362 18.1173 25.4277 18.1173 25.4962C18.1173 25.5647 18.1445 25.6304 18.1929 25.6789C18.2414 25.7273 18.3071 25.7545 18.3756 25.7545Z" fill="white"/>
<path d="M28.0043 25.3513L21.6401 25.7853C21.3095 25.8059 21.3095 25.2687 21.6401 25.2687L28.0043 24.8348C28.3452 24.8038 28.3349 25.3513 28.0043 25.3513Z" fill="white"/>
<path fill-rule="evenodd" clip-rule="evenodd" d="M26.2327 37.6C26.825 36.6832 27.3908 35.7498 27.9296 34.8012C28.6201 34.9861 29.3487 34.9807 30.0378 34.7843C30.7709 34.5754 31.428 34.1591 31.9302 33.5856C33.0911 32.4569 34.021 31.1129 34.6681 29.6287C35.1743 28.4199 35.5772 26.6326 34.7404 25.4961C33.7692 24.153 31.9819 24.8039 30.8144 25.4961C30.7721 25.5269 30.7403 25.5697 30.7229 25.6186C30.7152 24.6682 30.6537 23.7127 30.5768 22.7583C30.5768 22.6586 30.527 22.5889 30.4582 22.5494C30.4179 22.4971 30.3543 22.4636 30.2669 22.469C25.5235 22.8288 20.7637 22.9254 16.0096 22.7583C15.8942 22.7583 15.8191 22.82 15.7842 22.9007C15.6829 22.9251 15.5946 23.0051 15.5861 23.1406C15.5515 23.7694 15.499 24.4013 15.4464 25.0346C15.2629 27.2417 15.0781 29.4655 15.6481 31.633C16.3078 34.1197 18.0743 35.9483 19.8897 37.6673C18.6928 37.6872 17.4959 37.711 16.2989 37.739C16.2304 37.739 16.1648 37.7662 16.1163 37.8146C16.0679 37.8631 16.0407 37.9287 16.0407 37.9972C16.0407 38.0658 16.0679 38.1314 16.1163 38.1799C16.1648 38.2283 16.2304 38.2555 16.2989 38.2555C20.4315 38.1453 24.5641 38.0971 28.6966 38.1109C28.7651 38.1109 28.8308 38.0837 28.8793 38.0352C28.9277 37.9868 28.9549 37.9211 28.9549 37.8526C28.9549 37.7841 28.9277 37.7184 28.8793 37.67C28.8308 37.6215 28.7651 37.5943 28.6966 37.5943C27.8753 37.5943 27.054 37.5962 26.2327 37.6ZM30.0797 22.9997C25.4268 23.3458 20.7585 23.4386 16.0955 23.2779C16.0637 23.8699 16.0166 24.4696 15.9693 25.0718C15.8044 27.1716 15.637 29.3038 16.1027 31.2611C16.7122 33.8233 18.5202 35.6416 20.3695 37.398H20.3592C20.4428 37.478 20.4522 37.5759 20.4185 37.6588C22.1519 37.6318 23.8852 37.6133 25.6186 37.6032C27.0121 35.47 28.2646 33.2479 29.368 30.9511C30.3913 28.3929 30.2943 25.6982 30.0797 22.9997ZM29.9281 34.3C29.3607 34.4594 28.7633 34.4695 28.1934 34.3315C28.7843 33.2678 29.3415 32.1852 29.8639 31.0854C30.526 29.3706 30.7256 27.5922 30.7238 25.7937C30.7289 25.8078 30.7354 25.8216 30.7431 25.8348C30.7752 25.8901 30.8267 25.9315 30.8876 25.951C30.9485 25.9705 31.0145 25.9667 31.0727 25.9404L31.114 25.899C32.2195 25.2791 34.0895 24.6179 34.6061 26.3123C34.8647 27.6236 34.6213 28.9842 33.9242 30.1246C33.3157 31.2699 32.5352 32.3152 31.6099 33.224C31.1684 33.7415 30.583 34.1161 29.9281 34.3Z" fill="white"/>
<path d="M22.787 13.2326C22.5293 13.3817 22.3164 13.5972 22.1705 13.8567C22.0245 14.1162 21.9508 14.41 21.9572 14.7077C21.9635 15.0053 22.0496 15.2958 22.2065 15.5488C22.3633 15.8018 22.5852 16.0081 22.849 16.1461C23.0548 16.2253 23.2467 16.3369 23.4172 16.4767C23.5002 16.5849 23.5451 16.7174 23.5451 16.8538C23.5451 16.9901 23.5002 17.1227 23.4172 17.2309C23.239 17.5561 22.9417 17.7795 22.6454 18.0021C22.2546 18.2958 21.8655 18.5882 21.7539 19.1112C21.5576 20.0307 22.3324 20.5163 22.973 20.8675C23.0319 20.9031 23.1025 20.9139 23.1694 20.8974C23.2362 20.881 23.2938 20.8386 23.3294 20.7797C23.365 20.7208 23.3758 20.6502 23.3593 20.5833C23.3428 20.5165 23.3005 20.4589 23.2416 20.4233C22.8974 20.2715 22.5958 20.0373 22.3634 19.7414C22.2714 19.5696 22.2447 19.3702 22.2884 19.1803C22.3321 18.9903 22.4432 18.8226 22.601 18.7083C22.751 18.5551 22.9256 18.4197 23.1006 18.284C23.4919 17.9805 23.8847 17.6758 24.0061 17.1689C24.0472 17.0241 24.0584 16.8725 24.0388 16.7232C24.0193 16.574 23.9695 16.4303 23.8925 16.301C23.6766 16.0392 23.3949 15.8395 23.0763 15.7225C22.885 15.626 22.7243 15.4784 22.612 15.296C22.4997 15.1135 22.4403 14.9036 22.4403 14.6894C22.4403 14.4751 22.4997 14.2651 22.612 14.0827C22.7243 13.9003 22.885 13.7527 23.0763 13.6562C23.1352 13.6206 23.1775 13.563 23.194 13.4962C23.2105 13.4293 23.1997 13.3587 23.1641 13.2998C23.1285 13.2409 23.0709 13.1985 23.0041 13.182C22.9372 13.1656 22.8666 13.1763 22.8077 13.212L22.787 13.2326Z" fill="white"/>
<path d="M26.7711 20.0137C26.9217 20.1364 27.1076 20.2076 27.3017 20.2169C27.6426 20.2376 27.6426 20.7335 27.3017 20.7335C27.102 20.7267 26.9059 20.6781 26.7263 20.5907C26.5466 20.5033 26.3873 20.3791 26.2587 20.2261C26.1301 20.0732 26.0351 19.8949 25.9798 19.7029C25.9246 19.5109 25.9103 19.3094 25.9379 19.1115C26.0245 18.7306 26.2017 18.3762 26.4545 18.0784C26.7392 17.8052 26.9154 17.4382 26.9504 17.0452C26.9096 16.662 26.605 16.3881 26.3261 16.1374C26.2516 16.0704 26.1789 16.0051 26.1136 15.9397C25.9389 15.7914 25.7971 15.6081 25.6975 15.4017C25.5979 15.1953 25.5425 14.9704 25.535 14.7413C25.5867 13.7392 26.7231 13.4912 27.5186 13.3982C27.8493 13.3569 27.8493 13.9148 27.5186 13.9148C27.0763 13.914 26.6453 14.0553 26.2892 14.3177C25.9173 14.6793 25.9276 14.9686 26.3615 15.4542C26.4566 15.5605 26.5615 15.6663 26.6678 15.7735C27.0468 16.1558 27.4428 16.5553 27.467 17.0555C27.4914 17.5591 27.2029 17.9477 26.9178 18.3318C26.8402 18.4363 26.7628 18.5405 26.6921 18.6466C26.5884 18.7672 26.5139 18.9101 26.4745 19.0642C26.4351 19.2183 26.4318 19.3795 26.4648 19.5351C26.5132 19.7232 26.6205 19.891 26.7711 20.0137Z" fill="white"/>
<path d="M18.7736 20.1153C18.8942 20.2995 19.0547 20.4543 19.2433 20.568L19.2743 20.537C19.326 20.5746 19.3619 20.6301 19.3751 20.6927C19.3883 20.7552 19.3778 20.8205 19.3456 20.8757C19.3135 20.931 19.262 20.9724 19.2011 20.9919C19.1402 21.0114 19.0743 21.0076 19.016 20.9813C18.6533 20.7631 18.3689 20.4356 18.2037 20.0459C18.0385 19.6561 18.001 19.2241 18.0965 18.8117C18.2161 18.4148 18.441 18.0578 18.7474 17.7785C18.7872 17.7403 18.831 17.7 18.8769 17.6579C19.1404 17.4157 19.469 17.1139 19.4602 16.7971C19.4515 16.4835 19.1858 16.2434 18.9602 16.0395C18.9182 16.0016 18.8776 15.9649 18.8403 15.9292C18.5747 15.71 18.3656 15.43 18.2308 15.1131C17.9312 14.2246 18.6957 13.5323 19.3363 13.0468C19.6049 12.8505 19.8632 13.2947 19.6049 13.491C19.2004 13.725 18.8872 14.0892 18.7164 14.5242C18.6863 14.7035 18.7071 14.8876 18.7765 15.0556C18.8459 15.2237 18.9611 15.3688 19.109 15.4746C19.1796 15.5453 19.2547 15.6129 19.33 15.6808C19.6514 15.9702 19.9768 16.2634 19.9768 16.8074C19.9768 17.3238 19.6041 17.6692 19.2487 17.9985C19.1419 18.0974 19.0367 18.1949 18.9437 18.2951C18.791 18.4538 18.6761 18.6449 18.6074 18.8541C18.5387 19.0633 18.518 19.2853 18.5467 19.5036C18.5755 19.722 18.6531 19.931 18.7736 20.1153Z" stroke="white" stroke-width="0.4" stroke-linejoin="round" mask="url(#path-2-outside-1_0_121)"/>
<path d="M18.3756 25.7545C18.4441 25.7545 18.5098 25.7273 18.5582 25.6789C18.6066 25.6304 18.6338 25.5647 18.6338 25.4962C18.6338 25.4277 18.6066 25.362 18.5582 25.3136C18.5098 25.2651 18.4441 25.2379 18.3756 25.2379C18.3071 25.2379 18.2414 25.2651 18.1929 25.3136C18.1445 25.362 18.1173 25.4277 18.1173 25.4962C18.1173 25.5647 18.1445 25.6304 18.1929 25.6789C18.2414 25.7273 18.3071 25.7545 18.3756 25.7545Z" stroke="white" stroke-width="0.4" stroke-linejoin="round" mask="url(#path-2-outside-1_0_121)"/>
<path d="M28.0043 25.3513L21.6401 25.7853C21.3095 25.8059 21.3095 25.2687 21.6401 25.2687L28.0043 24.8348C28.3452 24.8038 28.3349 25.3513 28.0043 25.3513Z" stroke="white" stroke-width="0.4" stroke-linejoin="round" mask="url(#path-2-outside-1_0_121)"/>
<path fill-rule="evenodd" clip-rule="evenodd" d="M26.2327 37.6C26.825 36.6832 27.3908 35.7498 27.9296 34.8012C28.6201 34.9861 29.3487 34.9807 30.0378 34.7843C30.7709 34.5754 31.428 34.1591 31.9302 33.5856C33.0911 32.4569 34.021 31.1129 34.6681 29.6287C35.1743 28.4199 35.5772 26.6326 34.7404 25.4961C33.7692 24.153 31.9819 24.8039 30.8144 25.4961C30.7721 25.5269 30.7403 25.5697 30.7229 25.6186C30.7152 24.6682 30.6537 23.7127 30.5768 22.7583C30.5768 22.6586 30.527 22.5889 30.4582 22.5494C30.4179 22.4971 30.3543 22.4636 30.2669 22.469C25.5235 22.8288 20.7637 22.9254 16.0096 22.7583C15.8942 22.7583 15.8191 22.82 15.7842 22.9007C15.6829 22.9251 15.5946 23.0051 15.5861 23.1406C15.5515 23.7694 15.499 24.4013 15.4464 25.0346C15.2629 27.2417 15.0781 29.4655 15.6481 31.633C16.3078 34.1197 18.0743 35.9483 19.8897 37.6673C18.6928 37.6872 17.4959 37.711 16.2989 37.739C16.2304 37.739 16.1648 37.7662 16.1163 37.8146C16.0679 37.8631 16.0407 37.9287 16.0407 37.9972C16.0407 38.0658 16.0679 38.1314 16.1163 38.1799C16.1648 38.2283 16.2304 38.2555 16.2989 38.2555C20.4315 38.1453 24.5641 38.0971 28.6966 38.1109C28.7651 38.1109 28.8308 38.0837 28.8793 38.0352C28.9277 37.9868 28.9549 37.9211 28.9549 37.8526C28.9549 37.7841 28.9277 37.7184 28.8793 37.67C28.8308 37.6215 28.7651 37.5943 28.6966 37.5943C27.8753 37.5943 27.054 37.5962 26.2327 37.6ZM30.0797 22.9997C25.4268 23.3458 20.7585 23.4386 16.0955 23.2779C16.0637 23.8699 16.0166 24.4696 15.9693 25.0718C15.8044 27.1716 15.637 29.3038 16.1027 31.2611C16.7122 33.8233 18.5202 35.6416 20.3695 37.398H20.3592C20.4428 37.478 20.4522 37.5759 20.4185 37.6588C22.1519 37.6318 23.8852 37.6133 25.6186 37.6032C27.0121 35.47 28.2646 33.2479 29.368 30.9511C30.3913 28.3929 30.2943 25.6982 30.0797 22.9997ZM29.9281 34.3C29.3607 34.4594 28.7633 34.4695 28.1934 34.3315C28.7843 33.2678 29.3415 32.1852 29.8639 31.0854C30.526 29.3706 30.7256 27.5922 30.7238 25.7937C30.7289 25.8078 30.7354 25.8216 30.7431 25.8348C30.7752 25.8901 30.8267 25.9315 30.8876 25.951C30.9485 25.9705 31.0145 25.9667 31.0727 25.9404L31.114 25.899C32.2195 25.2791 34.0895 24.6179 34.6061 26.3123C34.8647 27.6236 34.6213 28.9842 33.9242 30.1246C33.3157 31.2699 32.5352 32.3152 31.6099 33.224C31.1684 33.7415 30.583 34.1161 29.9281 34.3Z" stroke="white" stroke-width="0.4" stroke-linejoin="round" mask="url(#path-2-outside-1_0_121)"/>
<path d="M22.787 13.2326C22.5293 13.3817 22.3164 13.5972 22.1705 13.8567C22.0245 14.1162 21.9508 14.41 21.9572 14.7077C21.9635 15.0053 22.0496 15.2958 22.2065 15.5488C22.3633 15.8018 22.5852 16.0081 22.849 16.1461C23.0548 16.2253 23.2467 16.3369 23.4172 16.4767C23.5002 16.5849 23.5451 16.7174 23.5451 16.8538C23.5451 16.9901 23.5002 17.1227 23.4172 17.2309C23.239 17.5561 22.9417 17.7795 22.6454 18.0021C22.2546 18.2958 21.8655 18.5882 21.7539 19.1112C21.5576 20.0307 22.3324 20.5163 22.973 20.8675C23.0319 20.9031 23.1025 20.9139 23.1694 20.8974C23.2362 20.881 23.2938 20.8386 23.3294 20.7797C23.365 20.7208 23.3758 20.6502 23.3593 20.5833C23.3428 20.5165 23.3005 20.4589 23.2416 20.4233C22.8974 20.2715 22.5958 20.0373 22.3634 19.7414C22.2714 19.5696 22.2447 19.3702 22.2884 19.1803C22.3321 18.9903 22.4432 18.8226 22.601 18.7083C22.751 18.5551 22.9256 18.4197 23.1006 18.284C23.4919 17.9805 23.8847 17.6758 24.0061 17.1689C24.0472 17.0241 24.0584 16.8725 24.0388 16.7232C24.0193 16.574 23.9695 16.4303 23.8925 16.301C23.6766 16.0392 23.3949 15.8395 23.0763 15.7225C22.885 15.626 22.7243 15.4784 22.612 15.296C22.4997 15.1135 22.4403 14.9036 22.4403 14.6894C22.4403 14.4751 22.4997 14.2651 22.612 14.0827C22.7243 13.9003 22.885 13.7527 23.0763 13.6562C23.1352 13.6206 23.1775 13.563 23.194 13.4962C23.2105 13.4293 23.1997 13.3587 23.1641 13.2998C23.1285 13.2409 23.0709 13.1985 23.0041 13.182C22.9372 13.1656 22.8666 13.1763 22.8077 13.212L22.787 13.2326Z" stroke="white" stroke-width="0.4" stroke-linejoin="round" mask="url(#path-2-outside-1_0_121)"/>
<path d="M26.7711 20.0137C26.9217 20.1364 27.1076 20.2076 27.3017 20.2169C27.6426 20.2376 27.6426 20.7335 27.3017 20.7335C27.102 20.7267 26.9059 20.6781 26.7263 20.5907C26.5466 20.5033 26.3873 20.3791 26.2587 20.2261C26.1301 20.0732 26.0351 19.8949 25.9798 19.7029C25.9246 19.5109 25.9103 19.3094 25.9379 19.1115C26.0245 18.7306 26.2017 18.3762 26.4545 18.0784C26.7392 17.8052 26.9154 17.4382 26.9504 17.0452C26.9096 16.662 26.605 16.3881 26.3261 16.1374C26.2516 16.0704 26.1789 16.0051 26.1136 15.9397C25.9389 15.7914 25.7971 15.6081 25.6975 15.4017C25.5979 15.1953 25.5425 14.9704 25.535 14.7413C25.5867 13.7392 26.7231 13.4912 27.5186 13.3982C27.8493 13.3569 27.8493 13.9148 27.5186 13.9148C27.0763 13.914 26.6453 14.0553 26.2892 14.3177C25.9173 14.6793 25.9276 14.9686 26.3615 15.4542C26.4566 15.5605 26.5615 15.6663 26.6678 15.7735C27.0468 16.1558 27.4428 16.5553 27.467 17.0555C27.4914 17.5591 27.2029 17.9477 26.9178 18.3318C26.8402 18.4363 26.7628 18.5405 26.6921 18.6466C26.5884 18.7672 26.5139 18.9101 26.4745 19.0642C26.4351 19.2183 26.4318 19.3795 26.4648 19.5351C26.5132 19.7232 26.6205 19.891 26.7711 20.0137Z" stroke="white" stroke-width="0.4" stroke-linejoin="round" mask="url(#path-2-outside-1_0_121)"/>
</svg>
