<svg width="51" height="51" viewBox="0 0 51 51" fill="none" xmlns="http://www.w3.org/2000/svg">
<path fill-rule="evenodd" clip-rule="evenodd" d="M25.5 49.4691C38.7378 49.4691 49.4691 38.7378 49.4691 25.5C49.4691 12.2622 38.7378 1.53093 25.5 1.53093C12.2622 1.53093 1.53093 12.2622 1.53093 25.5C1.53093 38.7378 12.2622 49.4691 25.5 49.4691ZM25.5 50.5C39.3071 50.5 50.5 39.3071 50.5 25.5C50.5 11.6929 39.3071 0.5 25.5 0.5C11.6929 0.5 0.5 11.6929 0.5 25.5C0.5 39.3071 11.6929 50.5 25.5 50.5Z" fill="white"/>
<mask id="path-2-outside-1_0_92" maskUnits="userSpaceOnUse" x="10.5" y="11.9148" width="29" height="27" fill="black">
<rect fill="white" x="10.5" y="11.9148" width="29" height="27"/>
<path d="M26.0047 25.5596C26.7451 27.2603 27.4161 29.0304 28.0062 30.7659C28.1335 31.1246 28.6888 30.9741 28.5731 30.6155C27.9599 28.7991 27.2658 27.0173 26.5137 25.2587C26.3633 24.9232 25.8658 25.2587 26.0047 25.5596Z"/>
<path d="M29.229 32.3698C29.1747 32.4241 29.1012 32.4545 29.0245 32.4545C28.9477 32.4545 28.8742 32.4241 28.82 32.3698C28.7657 32.3156 28.7352 32.242 28.7352 32.1653C28.7352 32.0886 28.7657 32.015 28.82 31.9608C28.8742 31.9065 28.9477 31.876 29.0245 31.876C29.1012 31.876 29.1747 31.9065 29.229 31.9608C29.2832 32.015 29.3137 32.0886 29.3137 32.1653C29.3137 32.242 29.2832 32.3156 29.229 32.3698Z"/>
<path fill-rule="evenodd" clip-rule="evenodd" d="M19.0437 14.1555C20.9634 15.1584 22.526 16.7168 23.5347 18.6162C23.7619 17.639 24.1869 16.7151 24.7874 15.903C25.5795 14.8317 26.6472 13.9952 27.8769 13.4825C29.1065 12.9697 30.4522 12.7999 31.7707 12.9911C33.0892 13.1822 34.3312 13.7272 35.3647 14.5681C35.4448 14.6297 35.4741 14.7037 35.4683 14.7747C35.4762 14.8013 35.4804 14.8291 35.4804 14.8573C35.4804 14.934 35.4499 15.0076 35.3956 15.0618C35.3414 15.1161 35.2678 15.1466 35.1911 15.1466C33.6183 15.1581 32.0783 15.5981 30.7368 16.4192C30.7033 16.4382 30.6665 16.4504 30.6284 16.4552C30.5902 16.4599 30.5515 16.4571 30.5145 16.4469C30.4792 16.4372 30.446 16.4209 30.4167 16.399L29.5655 16.2302L29.7303 16.6622C29.7476 16.6963 29.7566 16.7339 29.7566 16.7721C29.7566 16.8103 29.7476 16.848 29.7303 16.8821C29.7113 16.9138 29.6862 16.9413 29.6564 16.9632C29.6266 16.985 29.5928 17.0007 29.5568 17.0093C29.5352 17.0182 29.5128 17.0243 29.4901 17.0278C29.4597 17.0384 29.4275 17.044 29.3947 17.044H28.3651L28.4345 17.2523C28.4635 17.3227 28.4635 17.4017 28.4345 17.4721C28.3941 17.5368 28.3329 17.5857 28.261 17.6109C28.2496 17.6153 28.238 17.619 28.2264 17.622C28.1987 17.6428 28.1673 17.6587 28.1334 17.6686C26.6973 18.0963 25.3369 18.7436 24.1 19.5867C24.2439 19.6394 24.376 19.7201 24.4885 19.8243C24.6059 19.933 24.6996 20.065 24.7634 20.2117L24.7704 20.2282L24.776 20.2418L24.7816 20.2373C24.8039 20.197 24.8404 20.1609 24.8941 20.1332C26.2008 19.51 27.6266 19.176 29.0741 19.154C30.5217 19.1321 31.957 19.4226 33.282 20.0059C35.7785 21.1337 37.8555 23.0204 39.2173 25.3974C39.2468 25.4626 39.251 25.5365 39.2291 25.6047C39.2073 25.6729 39.161 25.7305 39.0991 25.7665C39.0372 25.8025 38.9641 25.8143 38.8941 25.7995C38.8724 25.7949 38.8514 25.7879 38.8316 25.7786C38.7981 25.7809 38.7643 25.7773 38.7315 25.7677L35.3762 24.8653C35.3095 24.8395 35.2547 24.79 35.2224 24.7262C35.2075 24.6967 35.1978 24.6651 35.1936 24.6329C35.1317 24.4968 35.0532 24.3688 34.9598 24.2519V24.3097C34.9347 24.2754 34.9081 24.2422 34.8801 24.2102L34.427 24.5071C34.3897 24.5432 34.3434 24.5694 34.2924 24.5825C34.2168 24.602 34.1367 24.5913 34.0689 24.5527L32.3068 23.6889L31.616 24.0666C31.5825 24.0856 31.5457 24.0978 31.5076 24.1026C31.4694 24.1073 31.4307 24.1045 31.3936 24.0943C31.3831 24.0914 31.3728 24.088 31.3628 24.0839C31.3354 24.0808 31.3086 24.0737 31.2831 24.0628C31.2473 24.0476 31.215 24.0254 31.188 23.9974C30.8722 23.6788 30.5362 23.3811 30.1821 23.106C30.1592 23.1014 30.1358 23.0941 30.1123 23.0835C28.9218 22.5003 27.7148 21.9556 26.4988 21.442C26.5467 21.5527 26.5775 21.6711 26.5891 21.7934C26.6183 22.1003 26.5243 22.4061 26.3279 22.6437C26.2858 22.6946 26.2398 22.7415 26.1904 22.784C26.2114 22.8022 26.2307 22.8246 26.2478 22.8517C28.4425 26.4421 30.0845 30.3423 31.1186 34.4213C31.1305 34.4675 31.1315 34.5105 31.124 34.5495C33.7481 35.0893 36.2817 36.0424 38.6272 37.3833C38.6851 37.4254 38.7254 37.4875 38.7402 37.5576C38.7549 37.6276 38.7432 37.7007 38.7072 37.7626C38.6712 37.8245 38.6135 37.8708 38.5453 37.8927C38.4771 37.9145 38.4032 37.9102 38.338 37.8808C34.5015 35.688 30.1502 34.5569 25.7315 34.6036C21.3128 34.6504 16.9864 35.8734 13.1972 38.1469C13.1319 38.1763 13.058 38.1806 12.9898 38.1588C12.9216 38.1369 12.864 38.0906 12.828 38.0287C12.792 37.9668 12.7803 37.8937 12.795 37.8236C12.8098 37.7536 12.85 37.6915 12.9079 37.6494C16.0408 35.7714 19.5321 34.5949 23.1418 34.1877C24.5174 30.7488 24.941 27.0065 24.3736 23.3538C24.2799 23.4655 24.1755 23.5687 24.0613 23.6617C23.9075 23.7847 23.7306 23.8756 23.541 23.9289C23.4713 23.9485 23.4005 23.9629 23.329 23.9721C23.3313 24.0036 23.3285 24.0356 23.3207 24.0668C23.2397 24.5758 23.1356 25.189 23.0199 25.7328C23.0105 25.7703 22.9937 25.8055 22.9705 25.8364C22.9472 25.8673 22.918 25.8933 22.8845 25.9127C22.8617 25.926 22.8372 25.936 22.8117 25.9426C22.8094 25.9463 22.807 25.95 22.8045 25.9536L22.8001 25.9597C22.7782 25.9895 22.7507 26.0146 22.719 26.0337C22.6445 26.0621 22.5621 26.0621 22.4876 26.0337L22.3347 25.9768C22.3079 26.314 22.2428 26.6475 22.1404 26.9706L22.1866 26.9359C22.1627 27.0079 22.1124 27.0681 22.0459 27.1046C22.0282 27.1143 22.0098 27.1221 21.9908 27.128C21.9368 27.1687 21.8728 27.1943 21.8053 27.2021L21.3074 27.1632V27.6996C21.3074 27.7763 21.2769 27.8499 21.2227 27.9041C21.1686 27.9582 21.0954 27.9886 21.019 27.9888C20.0708 28.6733 19.198 29.4567 18.4153 30.326C18.2413 30.5157 17.9971 30.3812 17.9375 30.1921C17.9176 30.1549 17.9061 30.1108 17.9061 30.06C17.8028 28.6296 18.1342 27.2014 18.8568 25.9627C19.5584 24.76 20.597 23.7903 21.8428 23.1728C21.8045 23.0818 21.7778 22.9859 21.7638 22.8874C21.7412 22.7297 21.7516 22.5693 21.7938 22.4162C21.0757 22.8607 20.3733 23.3301 19.6878 23.8238C19.655 23.8476 19.6177 23.8643 19.5781 23.8727C19.5385 23.8812 19.4976 23.8812 19.458 23.8729C19.4184 23.8645 19.381 23.848 19.3482 23.8243C19.333 23.8133 19.3189 23.8009 19.3062 23.7872L19.0027 23.6272L18.4498 24.5641C18.4332 24.601 18.4089 24.634 18.3787 24.6609C18.3485 24.6879 18.3131 24.7081 18.2745 24.7205C18.236 24.7328 18.1953 24.7369 18.155 24.7326C18.1148 24.7282 18.0759 24.7154 18.0409 24.6951C18.0059 24.6747 17.9756 24.6473 17.9519 24.6145C17.948 24.6092 17.9444 24.6037 17.9409 24.5982L17.4562 24.2908L17.2235 26.0221C17.2235 26.0988 17.193 26.1724 17.1387 26.2266C17.1341 26.2312 17.1293 26.2357 17.1245 26.24C17.1045 26.2882 17.0691 26.333 17.015 26.3691L12.0747 29.7011L12.0516 29.7474C11.8139 29.9186 11.5606 29.613 11.6513 29.3831C11.5154 27.9115 11.8411 26.4334 12.5842 25.1545C13.1338 23.8057 13.9392 22.5761 14.9559 21.5332C16.0427 20.6444 17.3292 20.033 18.7046 19.7515C20.0384 19.3521 21.4696 19.4346 22.748 19.9833L22.762 19.9666C22.8109 19.9095 22.8642 19.8571 22.9214 19.8098L18.3649 18.2123L18.3572 18.2124C18.3198 18.2117 18.2829 18.2031 18.2491 18.1871C18.2152 18.1712 18.185 18.1483 18.1606 18.1199C18.1095 18.0659 18.077 17.997 18.068 17.9232L18.0211 17.2513L17.1423 17.3563C17.0665 17.3535 16.9946 17.3221 16.941 17.2684C16.9273 17.2547 16.915 17.2398 16.9043 17.224C16.8886 17.2133 16.8737 17.2011 16.8601 17.1875C16.8065 17.1338 16.7751 17.0619 16.7722 16.9861L16.7206 16.2493L15.9162 16.5466C15.8931 16.5556 15.8689 16.5615 15.8443 16.5642C15.7555 16.5903 15.6546 16.574 15.5692 16.4886C14.4426 15.3578 13.1116 14.4509 11.647 13.816C11.6133 13.798 11.5838 13.7733 11.56 13.7434C11.5363 13.7135 11.519 13.6789 11.5093 13.642C11.4995 13.6051 11.4974 13.5666 11.5032 13.5288C11.509 13.4911 11.5226 13.4549 11.543 13.4226C11.5723 13.3769 11.6132 13.3402 11.6611 13.3161C11.6906 13.2502 11.7496 13.1979 11.8435 13.1797C14.2839 12.6544 16.8311 12.9996 19.0437 14.1555ZM22.4906 25.4236C22.5989 24.9525 22.689 24.4345 22.7612 23.9334C22.6363 23.8998 22.5162 23.8498 22.4039 23.7844C22.3306 23.7417 22.2612 23.6929 22.1966 23.6385C21.0118 24.2065 20.024 25.1169 19.3614 26.2525C18.7968 27.2201 18.4907 28.3127 18.4673 29.4258C19.1641 28.7177 19.9208 28.0705 20.7289 27.4915V26.8897C20.7289 26.813 20.7593 26.7394 20.8136 26.6852C20.8329 26.6659 20.8547 26.6496 20.8782 26.6366C20.9011 26.6145 20.9281 26.5969 20.9576 26.5848C20.9915 26.5708 21.0281 26.5643 21.0648 26.5658L21.6808 26.6139C21.719 26.4686 21.7489 26.3212 21.7702 26.1723C21.7647 26.1495 21.7647 26.1257 21.7702 26.1029C21.7639 26.0491 21.7639 25.9947 21.7702 25.9409V25.6285C21.7702 25.5518 21.8006 25.4783 21.8549 25.424C21.8803 25.3986 21.91 25.3784 21.9423 25.3641C21.9568 25.3504 21.9728 25.3382 21.9901 25.3279C22.0605 25.299 22.1395 25.299 22.2099 25.3279L22.4906 25.4236ZM24.7747 20.8815C24.808 20.8482 24.8323 20.8077 24.8461 20.7636C24.8506 20.7657 24.8551 20.7677 24.8597 20.7696L25.0468 20.8444C24.8417 20.9401 24.6589 21.08 24.5123 21.2554C24.4134 21.3598 24.2926 21.4409 24.1585 21.4929C24.0245 21.5449 23.8806 21.5666 23.7372 21.5562C23.6075 21.544 23.4829 21.5002 23.374 21.4288C23.2652 21.3573 23.1755 21.2603 23.1128 21.1462C23.05 21.0321 23.0161 20.9044 23.0141 20.7742C23.012 20.644 23.0418 20.5153 23.1008 20.3993C23.1709 20.282 23.2744 20.1885 23.3982 20.1307C23.5219 20.073 23.6601 20.0537 23.795 20.0753C23.9308 20.1083 24.052 20.1851 24.1399 20.2938C24.2277 20.4026 24.2773 20.5372 24.281 20.6769C24.281 20.7537 24.3114 20.8272 24.3656 20.8815C24.4199 20.9357 24.4935 20.9662 24.5702 20.9662C24.6469 20.9662 24.7205 20.9357 24.7747 20.8815ZM30.4015 22.5282C28.819 21.7851 27.2212 21.0911 25.608 20.4462C30.3982 18.3795 35.5441 20.979 38.3183 25.0582L35.6548 24.3443C35.5426 24.1171 35.3938 23.9099 35.2143 23.7308C35.2112 23.7192 35.2073 23.7077 35.2026 23.6965C35.1646 23.6297 35.1026 23.5801 35.0291 23.5576C34.9585 23.5299 34.88 23.5299 34.8093 23.5576L34.7977 23.5692L34.1804 23.963L32.588 23.1875C32.5457 23.126 32.4825 23.0815 32.4104 23.0624C32.3382 23.0433 32.2616 23.0507 32.1944 23.0832L31.481 23.4732C31.1521 23.1598 30.8071 22.8636 30.4475 22.5859C30.4332 22.573 30.4178 22.5616 30.4015 22.5518V22.5282ZM27.7056 16.8473L27.8104 17.1618C26.4829 17.5702 25.2203 18.1632 24.0594 18.9226C24.2559 17.955 24.6617 17.0391 25.2514 16.2404C25.9774 15.2572 26.9552 14.4881 28.0818 14.0142C29.2084 13.5403 30.4421 13.3793 31.6526 13.548C32.6544 13.6877 33.6097 14.0489 34.4501 14.6024C33.0813 14.7208 31.7532 15.1428 30.5639 15.8407L29.2789 15.586C29.2326 15.576 29.1849 15.5767 29.1395 15.5878C29.1044 15.5886 29.0693 15.5958 29.0362 15.6094C29.0002 15.618 28.9663 15.6337 28.9365 15.6555C28.9067 15.6774 28.8816 15.705 28.8626 15.7367C28.8453 15.7707 28.8363 15.8084 28.8363 15.8466C28.8363 15.8848 28.8453 15.9224 28.8626 15.9565L29.0569 16.4655H28.0571C28.0362 16.4584 28.0146 16.4539 27.9926 16.452C27.9543 16.4486 27.9156 16.4532 27.8792 16.4655C27.8433 16.4741 27.8094 16.4898 27.7796 16.5117C27.7498 16.5335 27.7247 16.5611 27.7056 16.5928C27.6767 16.6632 27.6767 16.7422 27.7056 16.8126V16.8473ZM18.6307 17.6974L18.5771 16.9282C18.5681 16.8544 18.5357 16.7855 18.4846 16.7315C18.4601 16.7031 18.43 16.6802 18.3961 16.6642C18.3622 16.6483 18.3253 16.6397 18.2878 16.6389C18.2618 16.6389 18.2355 16.6431 18.2099 16.6507L18.2068 16.6506L17.3345 16.7549L17.2697 15.8292C17.2713 15.7907 17.265 15.7524 17.251 15.7166C17.2371 15.6807 17.2158 15.6482 17.1886 15.621C17.1614 15.5938 17.1289 15.5726 17.0931 15.5586C17.0572 15.5446 17.0189 15.5383 16.9804 15.5399C16.9138 15.5424 16.8502 15.567 16.7994 15.6093L15.8576 15.9574C14.8922 15.0184 13.7903 14.2328 12.5901 13.6266C14.6981 13.3082 16.8589 13.6638 18.7601 14.651C20.7299 15.6739 22.3052 17.3146 23.248 19.3162L18.6307 17.6974ZM22.4529 20.8736C22.4465 20.7451 22.4592 20.6175 22.4898 20.4948C21.2232 19.9769 19.81 19.9428 18.5194 20.3994C17.3013 20.669 16.1711 21.2421 15.2337 22.0654C14.3861 22.984 13.7014 24.0404 13.209 25.1892C12.5182 26.3237 12.1685 27.6303 12.1979 28.9535L16.6591 25.9169L16.9342 23.8701C16.9342 23.8439 16.9378 23.8181 16.9447 23.7932C16.9451 23.783 16.9461 23.7728 16.9477 23.7627C16.9534 23.7249 16.9665 23.6887 16.9863 23.656C17.006 23.6234 17.0321 23.5949 17.0628 23.5723C17.0936 23.5497 17.1285 23.5333 17.1655 23.5242C17.2026 23.5151 17.2411 23.5133 17.2789 23.5191C17.3166 23.5248 17.3528 23.5379 17.3855 23.5577L18.1035 24.0187L18.5779 23.2147C18.5782 23.2106 18.5785 23.2064 18.579 23.2023C18.5831 23.1645 18.5946 23.1279 18.6129 23.0946C18.6312 23.0613 18.6558 23.032 18.6854 23.0082C18.715 22.9844 18.7491 22.9667 18.7855 22.9561C18.8203 22.9411 18.8576 22.9334 18.8954 22.9334C18.9332 22.9334 18.9706 22.9411 19.0053 22.9561L19.5292 23.2323C20.4837 22.5487 21.471 21.9121 22.4876 21.3247C22.5086 21.3118 22.5297 21.3022 22.5507 21.2956C22.4969 21.1619 22.4635 21.0197 22.4529 20.8736ZM25.544 23.0603C25.5509 23.0605 25.558 23.0605 25.5652 23.0603H25.544ZM25.5425 23.0602C25.5983 23.0549 25.6533 23.0456 25.7071 23.0325C25.7119 23.0682 25.7257 23.1047 25.7503 23.1409V23.1062C27.8878 26.6288 29.4974 30.4454 30.528 34.4342C28.9519 34.149 27.3461 34.012 25.7315 34.0287C25.079 34.0354 24.4284 34.0672 23.7811 34.1237C25.2052 30.4375 25.5645 26.4228 24.8148 22.5387C24.8182 22.5274 24.8216 22.516 24.8248 22.5047C24.9405 22.146 24.3852 21.9956 24.2695 22.3427V22.3774C24.177 22.7066 23.9776 22.9956 23.7026 23.1989C23.569 23.3 23.4119 23.3658 23.2461 23.3901C23.0802 23.4144 22.9109 23.3964 22.7539 23.3377C22.6354 23.2846 22.5333 23.2009 22.458 23.0951C22.3827 22.9893 22.3371 22.8654 22.3258 22.7361C22.325 22.6044 22.3731 22.4771 22.4607 22.3788C22.5483 22.2805 22.6692 22.2182 22.8001 22.2039C22.8738 22.1824 22.9359 22.1325 22.9728 22.0653C23.0023 22.0115 23.0137 21.95 23.0061 21.8899C23.2236 22.054 23.4856 22.1519 23.7603 22.1694C24.102 22.1829 24.4388 22.0855 24.7205 21.8918C24.8011 21.8332 24.8748 21.7595 24.9488 21.6854C25.1086 21.5255 25.2702 21.3638 25.5073 21.348C25.5812 21.3417 25.6556 21.3502 25.7261 21.3731C25.7966 21.3961 25.8619 21.4329 25.918 21.4814C25.974 21.5299 26.0198 21.5892 26.0526 21.6557C26.0854 21.7222 26.1046 21.7946 26.1089 21.8686C26.1136 21.9446 26.1033 22.0208 26.0785 22.0928C26.0537 22.1648 26.0149 22.2312 25.9644 22.2881C25.9138 22.3451 25.8526 22.3915 25.7841 22.4248C25.7156 22.458 25.6412 22.4774 25.5652 22.4818C25.2027 22.4818 25.1951 23.0475 25.5425 23.0602Z"/>
</mask>
<path d="M26.0047 25.5596C26.7451 27.2603 27.4161 29.0304 28.0062 30.7659C28.1335 31.1246 28.6888 30.9741 28.5731 30.6155C27.9599 28.7991 27.2658 27.0173 26.5137 25.2587C26.3633 24.9232 25.8658 25.2587 26.0047 25.5596Z" fill="white"/>
<path d="M29.229 32.3698C29.1747 32.4241 29.1012 32.4545 29.0245 32.4545C28.9477 32.4545 28.8742 32.4241 28.82 32.3698C28.7657 32.3156 28.7352 32.242 28.7352 32.1653C28.7352 32.0886 28.7657 32.015 28.82 31.9608C28.8742 31.9065 28.9477 31.876 29.0245 31.876C29.1012 31.876 29.1747 31.9065 29.229 31.9608C29.2832 32.015 29.3137 32.0886 29.3137 32.1653C29.3137 32.242 29.2832 32.3156 29.229 32.3698Z" fill="white"/>
<path fill-rule="evenodd" clip-rule="evenodd" d="M19.0437 14.1555C20.9634 15.1584 22.526 16.7168 23.5347 18.6162C23.7619 17.639 24.1869 16.7151 24.7874 15.903C25.5795 14.8317 26.6472 13.9952 27.8769 13.4825C29.1065 12.9697 30.4522 12.7999 31.7707 12.9911C33.0892 13.1822 34.3312 13.7272 35.3647 14.5681C35.4448 14.6297 35.4741 14.7037 35.4683 14.7747C35.4762 14.8013 35.4804 14.8291 35.4804 14.8573C35.4804 14.934 35.4499 15.0076 35.3956 15.0618C35.3414 15.1161 35.2678 15.1466 35.1911 15.1466C33.6183 15.1581 32.0783 15.5981 30.7368 16.4192C30.7033 16.4382 30.6665 16.4504 30.6284 16.4552C30.5902 16.4599 30.5515 16.4571 30.5145 16.4469C30.4792 16.4372 30.446 16.4209 30.4167 16.399L29.5655 16.2302L29.7303 16.6622C29.7476 16.6963 29.7566 16.7339 29.7566 16.7721C29.7566 16.8103 29.7476 16.848 29.7303 16.8821C29.7113 16.9138 29.6862 16.9413 29.6564 16.9632C29.6266 16.985 29.5928 17.0007 29.5568 17.0093C29.5352 17.0182 29.5128 17.0243 29.4901 17.0278C29.4597 17.0384 29.4275 17.044 29.3947 17.044H28.3651L28.4345 17.2523C28.4635 17.3227 28.4635 17.4017 28.4345 17.4721C28.3941 17.5368 28.3329 17.5857 28.261 17.6109C28.2496 17.6153 28.238 17.619 28.2264 17.622C28.1987 17.6428 28.1673 17.6587 28.1334 17.6686C26.6973 18.0963 25.3369 18.7436 24.1 19.5867C24.2439 19.6394 24.376 19.7201 24.4885 19.8243C24.6059 19.933 24.6996 20.065 24.7634 20.2117L24.7704 20.2282L24.776 20.2418L24.7816 20.2373C24.8039 20.197 24.8404 20.1609 24.8941 20.1332C26.2008 19.51 27.6266 19.176 29.0741 19.154C30.5217 19.1321 31.957 19.4226 33.282 20.0059C35.7785 21.1337 37.8555 23.0204 39.2173 25.3974C39.2468 25.4626 39.251 25.5365 39.2291 25.6047C39.2073 25.6729 39.161 25.7305 39.0991 25.7665C39.0372 25.8025 38.9641 25.8143 38.8941 25.7995C38.8724 25.7949 38.8514 25.7879 38.8316 25.7786C38.7981 25.7809 38.7643 25.7773 38.7315 25.7677L35.3762 24.8653C35.3095 24.8395 35.2547 24.79 35.2224 24.7262C35.2075 24.6967 35.1978 24.6651 35.1936 24.6329C35.1317 24.4968 35.0532 24.3688 34.9598 24.2519V24.3097C34.9347 24.2754 34.9081 24.2422 34.8801 24.2102L34.427 24.5071C34.3897 24.5432 34.3434 24.5694 34.2924 24.5825C34.2168 24.602 34.1367 24.5913 34.0689 24.5527L32.3068 23.6889L31.616 24.0666C31.5825 24.0856 31.5457 24.0978 31.5076 24.1026C31.4694 24.1073 31.4307 24.1045 31.3936 24.0943C31.3831 24.0914 31.3728 24.088 31.3628 24.0839C31.3354 24.0808 31.3086 24.0737 31.2831 24.0628C31.2473 24.0476 31.215 24.0254 31.188 23.9974C30.8722 23.6788 30.5362 23.3811 30.1821 23.106C30.1592 23.1014 30.1358 23.0941 30.1123 23.0835C28.9218 22.5003 27.7148 21.9556 26.4988 21.442C26.5467 21.5527 26.5775 21.6711 26.5891 21.7934C26.6183 22.1003 26.5243 22.4061 26.3279 22.6437C26.2858 22.6946 26.2398 22.7415 26.1904 22.784C26.2114 22.8022 26.2307 22.8246 26.2478 22.8517C28.4425 26.4421 30.0845 30.3423 31.1186 34.4213C31.1305 34.4675 31.1315 34.5105 31.124 34.5495C33.7481 35.0893 36.2817 36.0424 38.6272 37.3833C38.6851 37.4254 38.7254 37.4875 38.7402 37.5576C38.7549 37.6276 38.7432 37.7007 38.7072 37.7626C38.6712 37.8245 38.6135 37.8708 38.5453 37.8927C38.4771 37.9145 38.4032 37.9102 38.338 37.8808C34.5015 35.688 30.1502 34.5569 25.7315 34.6036C21.3128 34.6504 16.9864 35.8734 13.1972 38.1469C13.1319 38.1763 13.058 38.1806 12.9898 38.1588C12.9216 38.1369 12.864 38.0906 12.828 38.0287C12.792 37.9668 12.7803 37.8937 12.795 37.8236C12.8098 37.7536 12.85 37.6915 12.9079 37.6494C16.0408 35.7714 19.5321 34.5949 23.1418 34.1877C24.5174 30.7488 24.941 27.0065 24.3736 23.3538C24.2799 23.4655 24.1755 23.5687 24.0613 23.6617C23.9075 23.7847 23.7306 23.8756 23.541 23.9289C23.4713 23.9485 23.4005 23.9629 23.329 23.9721C23.3313 24.0036 23.3285 24.0356 23.3207 24.0668C23.2397 24.5758 23.1356 25.189 23.0199 25.7328C23.0105 25.7703 22.9937 25.8055 22.9705 25.8364C22.9472 25.8673 22.918 25.8933 22.8845 25.9127C22.8617 25.926 22.8372 25.936 22.8117 25.9426C22.8094 25.9463 22.807 25.95 22.8045 25.9536L22.8001 25.9597C22.7782 25.9895 22.7507 26.0146 22.719 26.0337C22.6445 26.0621 22.5621 26.0621 22.4876 26.0337L22.3347 25.9768C22.3079 26.314 22.2428 26.6475 22.1404 26.9706L22.1866 26.9359C22.1627 27.0079 22.1124 27.0681 22.0459 27.1046C22.0282 27.1143 22.0098 27.1221 21.9908 27.128C21.9368 27.1687 21.8728 27.1943 21.8053 27.2021L21.3074 27.1632V27.6996C21.3074 27.7763 21.2769 27.8499 21.2227 27.9041C21.1686 27.9582 21.0954 27.9886 21.019 27.9888C20.0708 28.6733 19.198 29.4567 18.4153 30.326C18.2413 30.5157 17.9971 30.3812 17.9375 30.1921C17.9176 30.1549 17.9061 30.1108 17.9061 30.06C17.8028 28.6296 18.1342 27.2014 18.8568 25.9627C19.5584 24.76 20.597 23.7903 21.8428 23.1728C21.8045 23.0818 21.7778 22.9859 21.7638 22.8874C21.7412 22.7297 21.7516 22.5693 21.7938 22.4162C21.0757 22.8607 20.3733 23.3301 19.6878 23.8238C19.655 23.8476 19.6177 23.8643 19.5781 23.8727C19.5385 23.8812 19.4976 23.8812 19.458 23.8729C19.4184 23.8645 19.381 23.848 19.3482 23.8243C19.333 23.8133 19.3189 23.8009 19.3062 23.7872L19.0027 23.6272L18.4498 24.5641C18.4332 24.601 18.4089 24.634 18.3787 24.6609C18.3485 24.6879 18.3131 24.7081 18.2745 24.7205C18.236 24.7328 18.1953 24.7369 18.155 24.7326C18.1148 24.7282 18.0759 24.7154 18.0409 24.6951C18.0059 24.6747 17.9756 24.6473 17.9519 24.6145C17.948 24.6092 17.9444 24.6037 17.9409 24.5982L17.4562 24.2908L17.2235 26.0221C17.2235 26.0988 17.193 26.1724 17.1387 26.2266C17.1341 26.2312 17.1293 26.2357 17.1245 26.24C17.1045 26.2882 17.0691 26.333 17.015 26.3691L12.0747 29.7011L12.0516 29.7474C11.8139 29.9186 11.5606 29.613 11.6513 29.3831C11.5154 27.9115 11.8411 26.4334 12.5842 25.1545C13.1338 23.8057 13.9392 22.5761 14.9559 21.5332C16.0427 20.6444 17.3292 20.033 18.7046 19.7515C20.0384 19.3521 21.4696 19.4346 22.748 19.9833L22.762 19.9666C22.8109 19.9095 22.8642 19.8571 22.9214 19.8098L18.3649 18.2123L18.3572 18.2124C18.3198 18.2117 18.2829 18.2031 18.2491 18.1871C18.2152 18.1712 18.185 18.1483 18.1606 18.1199C18.1095 18.0659 18.077 17.997 18.068 17.9232L18.0211 17.2513L17.1423 17.3563C17.0665 17.3535 16.9946 17.3221 16.941 17.2684C16.9273 17.2547 16.915 17.2398 16.9043 17.224C16.8886 17.2133 16.8737 17.2011 16.8601 17.1875C16.8065 17.1338 16.7751 17.0619 16.7722 16.9861L16.7206 16.2493L15.9162 16.5466C15.8931 16.5556 15.8689 16.5615 15.8443 16.5642C15.7555 16.5903 15.6546 16.574 15.5692 16.4886C14.4426 15.3578 13.1116 14.4509 11.647 13.816C11.6133 13.798 11.5838 13.7733 11.56 13.7434C11.5363 13.7135 11.519 13.6789 11.5093 13.642C11.4995 13.6051 11.4974 13.5666 11.5032 13.5288C11.509 13.4911 11.5226 13.4549 11.543 13.4226C11.5723 13.3769 11.6132 13.3402 11.6611 13.3161C11.6906 13.2502 11.7496 13.1979 11.8435 13.1797C14.2839 12.6544 16.8311 12.9996 19.0437 14.1555ZM22.4906 25.4236C22.5989 24.9525 22.689 24.4345 22.7612 23.9334C22.6363 23.8998 22.5162 23.8498 22.4039 23.7844C22.3306 23.7417 22.2612 23.6929 22.1966 23.6385C21.0118 24.2065 20.024 25.1169 19.3614 26.2525C18.7968 27.2201 18.4907 28.3127 18.4673 29.4258C19.1641 28.7177 19.9208 28.0705 20.7289 27.4915V26.8897C20.7289 26.813 20.7593 26.7394 20.8136 26.6852C20.8329 26.6659 20.8547 26.6496 20.8782 26.6366C20.9011 26.6145 20.9281 26.5969 20.9576 26.5848C20.9915 26.5708 21.0281 26.5643 21.0648 26.5658L21.6808 26.6139C21.719 26.4686 21.7489 26.3212 21.7702 26.1723C21.7647 26.1495 21.7647 26.1257 21.7702 26.1029C21.7639 26.0491 21.7639 25.9947 21.7702 25.9409V25.6285C21.7702 25.5518 21.8006 25.4783 21.8549 25.424C21.8803 25.3986 21.91 25.3784 21.9423 25.3641C21.9568 25.3504 21.9728 25.3382 21.9901 25.3279C22.0605 25.299 22.1395 25.299 22.2099 25.3279L22.4906 25.4236ZM24.7747 20.8815C24.808 20.8482 24.8323 20.8077 24.8461 20.7636C24.8506 20.7657 24.8551 20.7677 24.8597 20.7696L25.0468 20.8444C24.8417 20.9401 24.6589 21.08 24.5123 21.2554C24.4134 21.3598 24.2926 21.4409 24.1585 21.4929C24.0245 21.5449 23.8806 21.5666 23.7372 21.5562C23.6075 21.544 23.4829 21.5002 23.374 21.4288C23.2652 21.3573 23.1755 21.2603 23.1128 21.1462C23.05 21.0321 23.0161 20.9044 23.0141 20.7742C23.012 20.644 23.0418 20.5153 23.1008 20.3993C23.1709 20.282 23.2744 20.1885 23.3982 20.1307C23.5219 20.073 23.6601 20.0537 23.795 20.0753C23.9308 20.1083 24.052 20.1851 24.1399 20.2938C24.2277 20.4026 24.2773 20.5372 24.281 20.6769C24.281 20.7537 24.3114 20.8272 24.3656 20.8815C24.4199 20.9357 24.4935 20.9662 24.5702 20.9662C24.6469 20.9662 24.7205 20.9357 24.7747 20.8815ZM30.4015 22.5282C28.819 21.7851 27.2212 21.0911 25.608 20.4462C30.3982 18.3795 35.5441 20.979 38.3183 25.0582L35.6548 24.3443C35.5426 24.1171 35.3938 23.9099 35.2143 23.7308C35.2112 23.7192 35.2073 23.7077 35.2026 23.6965C35.1646 23.6297 35.1026 23.5801 35.0291 23.5576C34.9585 23.5299 34.88 23.5299 34.8093 23.5576L34.7977 23.5692L34.1804 23.963L32.588 23.1875C32.5457 23.126 32.4825 23.0815 32.4104 23.0624C32.3382 23.0433 32.2616 23.0507 32.1944 23.0832L31.481 23.4732C31.1521 23.1598 30.8071 22.8636 30.4475 22.5859C30.4332 22.573 30.4178 22.5616 30.4015 22.5518V22.5282ZM27.7056 16.8473L27.8104 17.1618C26.4829 17.5702 25.2203 18.1632 24.0594 18.9226C24.2559 17.955 24.6617 17.0391 25.2514 16.2404C25.9774 15.2572 26.9552 14.4881 28.0818 14.0142C29.2084 13.5403 30.4421 13.3793 31.6526 13.548C32.6544 13.6877 33.6097 14.0489 34.4501 14.6024C33.0813 14.7208 31.7532 15.1428 30.5639 15.8407L29.2789 15.586C29.2326 15.576 29.1849 15.5767 29.1395 15.5878C29.1044 15.5886 29.0693 15.5958 29.0362 15.6094C29.0002 15.618 28.9663 15.6337 28.9365 15.6555C28.9067 15.6774 28.8816 15.705 28.8626 15.7367C28.8453 15.7707 28.8363 15.8084 28.8363 15.8466C28.8363 15.8848 28.8453 15.9224 28.8626 15.9565L29.0569 16.4655H28.0571C28.0362 16.4584 28.0146 16.4539 27.9926 16.452C27.9543 16.4486 27.9156 16.4532 27.8792 16.4655C27.8433 16.4741 27.8094 16.4898 27.7796 16.5117C27.7498 16.5335 27.7247 16.5611 27.7056 16.5928C27.6767 16.6632 27.6767 16.7422 27.7056 16.8126V16.8473ZM18.6307 17.6974L18.5771 16.9282C18.5681 16.8544 18.5357 16.7855 18.4846 16.7315C18.4601 16.7031 18.43 16.6802 18.3961 16.6642C18.3622 16.6483 18.3253 16.6397 18.2878 16.6389C18.2618 16.6389 18.2355 16.6431 18.2099 16.6507L18.2068 16.6506L17.3345 16.7549L17.2697 15.8292C17.2713 15.7907 17.265 15.7524 17.251 15.7166C17.2371 15.6807 17.2158 15.6482 17.1886 15.621C17.1614 15.5938 17.1289 15.5726 17.0931 15.5586C17.0572 15.5446 17.0189 15.5383 16.9804 15.5399C16.9138 15.5424 16.8502 15.567 16.7994 15.6093L15.8576 15.9574C14.8922 15.0184 13.7903 14.2328 12.5901 13.6266C14.6981 13.3082 16.8589 13.6638 18.7601 14.651C20.7299 15.6739 22.3052 17.3146 23.248 19.3162L18.6307 17.6974ZM22.4529 20.8736C22.4465 20.7451 22.4592 20.6175 22.4898 20.4948C21.2232 19.9769 19.81 19.9428 18.5194 20.3994C17.3013 20.669 16.1711 21.2421 15.2337 22.0654C14.3861 22.984 13.7014 24.0404 13.209 25.1892C12.5182 26.3237 12.1685 27.6303 12.1979 28.9535L16.6591 25.9169L16.9342 23.8701C16.9342 23.8439 16.9378 23.8181 16.9447 23.7932C16.9451 23.783 16.9461 23.7728 16.9477 23.7627C16.9534 23.7249 16.9665 23.6887 16.9863 23.656C17.006 23.6234 17.0321 23.5949 17.0628 23.5723C17.0936 23.5497 17.1285 23.5333 17.1655 23.5242C17.2026 23.5151 17.2411 23.5133 17.2789 23.5191C17.3166 23.5248 17.3528 23.5379 17.3855 23.5577L18.1035 24.0187L18.5779 23.2147C18.5782 23.2106 18.5785 23.2064 18.579 23.2023C18.5831 23.1645 18.5946 23.1279 18.6129 23.0946C18.6312 23.0613 18.6558 23.032 18.6854 23.0082C18.715 22.9844 18.7491 22.9667 18.7855 22.9561C18.8203 22.9411 18.8576 22.9334 18.8954 22.9334C18.9332 22.9334 18.9706 22.9411 19.0053 22.9561L19.5292 23.2323C20.4837 22.5487 21.471 21.9121 22.4876 21.3247C22.5086 21.3118 22.5297 21.3022 22.5507 21.2956C22.4969 21.1619 22.4635 21.0197 22.4529 20.8736ZM25.544 23.0603C25.5509 23.0605 25.558 23.0605 25.5652 23.0603H25.544ZM25.5425 23.0602C25.5983 23.0549 25.6533 23.0456 25.7071 23.0325C25.7119 23.0682 25.7257 23.1047 25.7503 23.1409V23.1062C27.8878 26.6288 29.4974 30.4454 30.528 34.4342C28.9519 34.149 27.3461 34.012 25.7315 34.0287C25.079 34.0354 24.4284 34.0672 23.7811 34.1237C25.2052 30.4375 25.5645 26.4228 24.8148 22.5387C24.8182 22.5274 24.8216 22.516 24.8248 22.5047C24.9405 22.146 24.3852 21.9956 24.2695 22.3427V22.3774C24.177 22.7066 23.9776 22.9956 23.7026 23.1989C23.569 23.3 23.4119 23.3658 23.2461 23.3901C23.0802 23.4144 22.9109 23.3964 22.7539 23.3377C22.6354 23.2846 22.5333 23.2009 22.458 23.0951C22.3827 22.9893 22.3371 22.8654 22.3258 22.7361C22.325 22.6044 22.3731 22.4771 22.4607 22.3788C22.5483 22.2805 22.6692 22.2182 22.8001 22.2039C22.8738 22.1824 22.9359 22.1325 22.9728 22.0653C23.0023 22.0115 23.0137 21.95 23.0061 21.8899C23.2236 22.054 23.4856 22.1519 23.7603 22.1694C24.102 22.1829 24.4388 22.0855 24.7205 21.8918C24.8011 21.8332 24.8748 21.7595 24.9488 21.6854C25.1086 21.5255 25.2702 21.3638 25.5073 21.348C25.5812 21.3417 25.6556 21.3502 25.7261 21.3731C25.7966 21.3961 25.8619 21.4329 25.918 21.4814C25.974 21.5299 26.0198 21.5892 26.0526 21.6557C26.0854 21.7222 26.1046 21.7946 26.1089 21.8686C26.1136 21.9446 26.1033 22.0208 26.0785 22.0928C26.0537 22.1648 26.0149 22.2312 25.9644 22.2881C25.9138 22.3451 25.8526 22.3915 25.7841 22.4248C25.7156 22.458 25.6412 22.4774 25.5652 22.4818C25.2027 22.4818 25.1951 23.0475 25.5425 23.0602Z" fill="white"/>
<path d="M25.5391 23.1602L25.5405 23.1602L25.5474 22.9604L25.546 22.9603L25.5391 23.1602ZM19.0437 14.1555L19.1363 13.9782L19.0437 14.1555ZM23.5347 18.6162L23.3581 18.71C23.3972 18.7837 23.478 18.8253 23.5607 18.8145C23.6434 18.8037 23.7107 18.7427 23.7296 18.6615L23.5347 18.6162ZM24.7874 15.903L24.6266 15.7841L24.7874 15.903ZM31.7707 12.9911L31.742 13.189L31.7707 12.9911ZM35.3647 14.5681L35.2384 14.7233L35.2427 14.7266L35.3647 14.5681ZM35.4683 14.7747L35.269 14.7586C35.267 14.7833 35.2696 14.8081 35.2766 14.8319L35.4683 14.7747ZM35.3956 15.0618L35.537 15.2033V15.2033L35.3956 15.0618ZM35.1911 15.1466V14.9466L35.1896 14.9466L35.1911 15.1466ZM30.7368 16.4192L30.8356 16.5932L30.8412 16.5898L30.7368 16.4192ZM30.5145 16.4469L30.4614 16.6397V16.6397L30.5145 16.4469ZM30.4167 16.399L30.5366 16.2389C30.5126 16.221 30.485 16.2087 30.4556 16.2028L30.4167 16.399ZM29.5655 16.2302L29.6044 16.0341C29.533 16.0199 29.4596 16.0456 29.4127 16.1012C29.3657 16.1569 29.3527 16.2336 29.3786 16.3015L29.5655 16.2302ZM29.7303 16.6622L29.5435 16.7335C29.546 16.7401 29.5488 16.7465 29.552 16.7527L29.7303 16.6622ZM29.7303 16.8821L29.9023 16.9852L29.9087 16.9725L29.7303 16.8821ZM29.5568 17.0093L29.5103 16.8148C29.5002 16.8172 29.4904 16.8204 29.4808 16.8243L29.5568 17.0093ZM29.4901 17.0278L29.4603 16.83C29.448 16.8319 29.4359 16.8349 29.4241 16.839L29.4901 17.0278ZM28.3651 17.044V16.844C28.3008 16.844 28.2405 16.8749 28.2029 16.927C28.1653 16.9792 28.155 17.0462 28.1754 17.1072L28.3651 17.044ZM28.4345 17.2523L28.2444 17.3157L28.2495 17.3283L28.4345 17.2523ZM28.4345 17.4721L28.6042 17.5781C28.6101 17.5685 28.6153 17.5585 28.6195 17.5481L28.4345 17.4721ZM28.261 17.6109L28.1948 17.4221L28.1895 17.4241L28.261 17.6109ZM28.2264 17.622L28.1763 17.4284C28.1509 17.4349 28.1271 17.4464 28.1061 17.4622L28.2264 17.622ZM28.1334 17.6686L28.0774 17.4766L28.0763 17.4769L28.1334 17.6686ZM24.1 19.5867L23.9874 19.4215C23.9254 19.4637 23.8923 19.537 23.9016 19.6114C23.9108 19.6858 23.9609 19.7488 24.0313 19.7745L24.1 19.5867ZM24.4885 19.8243L24.6244 19.6775L24.6244 19.6775L24.4885 19.8243ZM24.7634 20.2117L24.9474 20.1333L24.9468 20.1319L24.7634 20.2117ZM24.7704 20.2282L24.9555 20.1524L24.9544 20.1498L24.7704 20.2282ZM24.776 20.2418L24.5909 20.3175C24.6147 20.3758 24.6646 20.4194 24.7255 20.4353C24.7864 20.4512 24.8512 20.4375 24.9005 20.3983L24.776 20.2418ZM24.7816 20.2373L24.9061 20.3939C24.9267 20.3774 24.9439 20.3571 24.9567 20.334L24.7816 20.2373ZM24.8941 20.1332L24.8079 19.9525L24.8022 19.9555L24.8941 20.1332ZM29.0741 19.154L29.0772 19.354L29.0741 19.154ZM33.282 20.0059L33.3644 19.8236L33.3626 19.8228L33.282 20.0059ZM39.2173 25.3974L39.3995 25.315C39.3969 25.3092 39.394 25.3035 39.3908 25.2979L39.2173 25.3974ZM39.0991 25.7665L39.1996 25.9394L39.1996 25.9394L39.0991 25.7665ZM38.8941 25.7995L38.9353 25.6038H38.9353L38.8941 25.7995ZM38.8316 25.7786L38.916 25.5974C38.8855 25.5831 38.8519 25.5769 38.8183 25.5791L38.8316 25.7786ZM38.7315 25.7677L38.7875 25.5757L38.7834 25.5746L38.7315 25.7677ZM35.3762 24.8653L35.3042 25.0519C35.3107 25.0544 35.3175 25.0566 35.3243 25.0584L35.3762 24.8653ZM35.2224 24.7262L35.4008 24.6358L35.4008 24.6358L35.2224 24.7262ZM35.1936 24.6329L35.3919 24.607C35.3894 24.5873 35.3839 24.5681 35.3757 24.55L35.1936 24.6329ZM34.9598 24.2519L35.116 24.1271C35.063 24.0607 34.9738 24.035 34.8936 24.0631C34.8134 24.0912 34.7598 24.1669 34.7598 24.2519H34.9598ZM34.9598 24.3097L34.7981 24.4275C34.8492 24.4975 34.9394 24.5267 35.0217 24.4999C35.104 24.4731 35.1598 24.3963 35.1598 24.3097H34.9598ZM34.8801 24.2102L35.0304 24.0783C34.9647 24.0034 34.8538 23.9883 34.7705 24.0429L34.8801 24.2102ZM34.427 24.5071L34.3173 24.3398C34.3068 24.3468 34.2968 24.3547 34.2877 24.3635L34.427 24.5071ZM34.2924 24.5825L34.2426 24.3888L34.2924 24.5825ZM34.0689 24.5527L34.1679 24.3785L34.1569 24.3732L34.0689 24.5527ZM32.3068 23.6889L32.3948 23.5094C32.3365 23.4808 32.2679 23.4823 32.2109 23.5135L32.3068 23.6889ZM31.616 24.0666L31.52 23.8911L31.5172 23.8927L31.616 24.0666ZM31.5076 24.1026L31.4828 23.9041L31.4828 23.9041L31.5076 24.1026ZM31.3936 24.0943L31.4467 23.9015L31.4467 23.9015L31.3936 24.0943ZM31.3628 24.0839L31.437 23.8982C31.4206 23.8917 31.4034 23.8873 31.3859 23.8853L31.3628 24.0839ZM31.2831 24.0628L31.3614 23.8788L31.3614 23.8788L31.2831 24.0628ZM31.188 23.9974L31.332 23.8586L31.33 23.8566L31.188 23.9974ZM30.1821 23.106L30.3048 22.948C30.2801 22.9289 30.2514 22.9158 30.2208 22.9097L30.1821 23.106ZM30.1123 23.0835L30.0242 23.2632L30.0305 23.266L30.1123 23.0835ZM26.4988 21.442L26.5766 21.2578C26.5014 21.226 26.4143 21.2432 26.3568 21.3012C26.2992 21.3592 26.2828 21.4464 26.3153 21.5214L26.4988 21.442ZM26.5891 21.7934L26.7882 21.7745L26.5891 21.7934ZM26.3279 22.6437L26.1737 22.5163L26.1737 22.5163L26.3279 22.6437ZM26.1904 22.784L26.0599 22.6325C26.0158 22.6704 25.9905 22.7257 25.9904 22.7838C25.9903 22.842 26.0156 22.8973 26.0596 22.9353L26.1904 22.784ZM26.2478 22.8517L26.4184 22.7474L26.417 22.7451L26.2478 22.8517ZM31.1186 34.4213L30.9248 34.4705L30.925 34.4713L31.1186 34.4213ZM31.124 34.5495L30.9276 34.5116C30.9069 34.6191 30.9764 34.7233 31.0837 34.7454L31.124 34.5495ZM38.6272 37.3833L38.7449 37.2215C38.739 37.2172 38.7328 37.2133 38.7265 37.2096L38.6272 37.3833ZM38.7402 37.5576L38.9359 37.5163L38.9359 37.5163L38.7402 37.5576ZM38.7072 37.7626L38.8801 37.8631L38.8801 37.8631L38.7072 37.7626ZM38.5453 37.8927L38.4843 37.7022H38.4843L38.5453 37.8927ZM38.338 37.8808L38.2388 38.0544C38.2442 38.0575 38.2499 38.0604 38.2556 38.063L38.338 37.8808ZM25.7315 34.6036L25.7294 34.4036L25.7315 34.6036ZM13.1972 38.1469L13.2795 38.3291C13.2866 38.3259 13.2934 38.3223 13.3001 38.3184L13.1972 38.1469ZM12.9898 38.1588L12.9289 38.3492H12.9289L12.9898 38.1588ZM12.828 38.0287L12.6551 38.1292L12.6551 38.1292L12.828 38.0287ZM12.795 37.8236L12.9907 37.8649L12.795 37.8236ZM12.9079 37.6494L12.8051 37.4778C12.8 37.4809 12.7951 37.4841 12.7903 37.4876L12.9079 37.6494ZM23.1418 34.1877L23.1642 34.3864C23.2374 34.3782 23.3001 34.3304 23.3275 34.262L23.1418 34.1877ZM24.3736 23.3538L24.5712 23.3231C24.5592 23.2456 24.5029 23.1822 24.4273 23.1611C24.3517 23.1401 24.2708 23.1652 24.2204 23.2253L24.3736 23.3538ZM24.0613 23.6617L24.1862 23.8178L24.1875 23.8168L24.0613 23.6617ZM23.541 23.9289L23.4869 23.7364L23.541 23.9289ZM23.329 23.9721L23.3037 23.7737C23.1984 23.7871 23.1219 23.8805 23.1295 23.9864L23.329 23.9721ZM23.3207 24.0668L23.1267 24.0181C23.1253 24.0238 23.1241 24.0295 23.1232 24.0353L23.3207 24.0668ZM23.0199 25.7328L23.214 25.7814L23.2155 25.7744L23.0199 25.7328ZM22.9705 25.8364L23.1303 25.9567L23.1303 25.9567L22.9705 25.8364ZM22.8845 25.9127L22.7841 25.7397L22.7841 25.7397L22.8845 25.9127ZM22.8117 25.9426L22.7617 25.7489C22.712 25.7618 22.6692 25.7932 22.642 25.8367L22.8117 25.9426ZM22.8045 25.9536L22.9674 26.0697L22.9689 26.0674L22.8045 25.9536ZM22.8001 25.9597L22.9614 26.078L22.963 26.0758L22.8001 25.9597ZM22.719 26.0337L22.7904 26.2205C22.8013 26.2163 22.8118 26.2112 22.8218 26.2052L22.719 26.0337ZM22.4876 26.0337L22.559 25.8468L22.5573 25.8462L22.4876 26.0337ZM22.3347 25.9768L22.4044 25.7893C22.3457 25.7675 22.28 25.7744 22.2272 25.8081C22.1743 25.8419 22.1403 25.8984 22.1353 25.961L22.3347 25.9768ZM22.1404 26.9706L21.9497 26.9102C21.9235 26.9931 21.9538 27.0834 22.0247 27.1338C22.0956 27.1841 22.1909 27.1828 22.2604 27.1306L22.1404 26.9706ZM22.1866 26.9359L22.3764 26.9991C22.404 26.9161 22.3745 26.8248 22.3035 26.7737C22.2326 26.7225 22.1366 26.7234 22.0666 26.776L22.1866 26.9359ZM22.0459 27.1046L22.1421 27.28H22.1421L22.0459 27.1046ZM21.9908 27.128L21.9313 26.9371C21.9094 26.9439 21.8889 26.9544 21.8706 26.9682L21.9908 27.128ZM21.8053 27.2021L21.7897 27.4015C21.8025 27.4025 21.8154 27.4023 21.8282 27.4008L21.8053 27.2021ZM21.3074 27.1632L21.323 26.9638C21.2674 26.9595 21.2125 26.9785 21.1716 27.0164C21.1307 27.0543 21.1074 27.1075 21.1074 27.1632H21.3074ZM21.2227 27.9041L21.3641 28.0455L21.3641 28.0455L21.2227 27.9041ZM21.019 27.9888L21.0184 27.7888C20.9766 27.7889 20.9358 27.8022 20.9019 27.8266L21.019 27.9888ZM18.4153 30.326L18.5628 30.4611L18.5639 30.4598L18.4153 30.326ZM17.9375 30.1921L18.1282 30.132C18.1245 30.1202 18.1197 30.1088 18.1139 30.098L17.9375 30.1921ZM17.9061 30.06H18.1061C18.1061 30.0552 18.1059 30.0504 18.1055 30.0456L17.9061 30.06ZM18.8568 25.9627L19.0296 26.0634L18.8568 25.9627ZM21.8428 23.1728L21.9317 23.352C22.0263 23.305 22.0682 23.1925 22.0272 23.0952L21.8428 23.1728ZM21.7638 22.8874L21.5658 22.9157L21.7638 22.8874ZM21.7938 22.4162L21.9866 22.4693C22.0085 22.39 21.9796 22.3054 21.9137 22.2561C21.8479 22.2068 21.7585 22.2028 21.6886 22.2461L21.7938 22.4162ZM19.6878 23.8238L19.5709 23.6615L19.5701 23.662L19.6878 23.8238ZM19.5781 23.8727L19.5363 23.6771L19.5363 23.6771L19.5781 23.8727ZM19.3482 23.8243L19.231 23.9863L19.231 23.9863L19.3482 23.8243ZM19.3062 23.7872L19.4524 23.6508C19.4372 23.6344 19.4193 23.6207 19.3995 23.6103L19.3062 23.7872ZM19.0027 23.6272L19.096 23.4503C19.0016 23.4005 18.8847 23.4336 18.8304 23.5255L19.0027 23.6272ZM18.4498 24.5641L18.2776 24.4625C18.2739 24.4687 18.2706 24.4752 18.2676 24.4818L18.4498 24.5641ZM18.3787 24.6609L18.2456 24.5116L18.2456 24.5116L18.3787 24.6609ZM18.2745 24.7205L18.3355 24.911L18.3355 24.911L18.2745 24.7205ZM18.155 24.7326L18.1767 24.5337L18.155 24.7326ZM17.9519 24.6145L18.114 24.4973L18.1139 24.4973L17.9519 24.6145ZM17.9409 24.5982L18.1106 24.4923C18.0947 24.4669 18.0733 24.4453 18.048 24.4293L17.9409 24.5982ZM17.4562 24.2908L17.5633 24.1219C17.5057 24.0854 17.4335 24.0807 17.3717 24.1095C17.3099 24.1383 17.267 24.1966 17.258 24.2641L17.4562 24.2908ZM17.2235 26.0221L17.0253 25.9955C17.0241 26.0043 17.0235 26.0132 17.0235 26.0221H17.2235ZM17.1387 26.2266L16.9973 26.0852L16.9973 26.0852L17.1387 26.2266ZM17.1245 26.24L16.9929 26.0893C16.9697 26.1096 16.9515 26.135 16.9397 26.1635L17.1245 26.24ZM17.015 26.3691L16.904 26.2026L16.9032 26.2032L17.015 26.3691ZM12.0747 29.7011L11.9629 29.5353C11.9343 29.5546 11.9112 29.581 11.8958 29.6118L12.0747 29.7011ZM12.0516 29.7474L12.1685 29.9097C12.1948 29.8908 12.2161 29.8657 12.2306 29.8367L12.0516 29.7474ZM11.6513 29.3831L11.8373 29.4565C11.8488 29.4274 11.8533 29.3959 11.8504 29.3647L11.6513 29.3831ZM12.5842 25.1545L12.7571 25.255C12.7618 25.2469 12.7659 25.2386 12.7694 25.23L12.5842 25.1545ZM14.9559 21.5332L14.8293 21.3784C14.8235 21.3831 14.818 21.3882 14.8127 21.3936L14.9559 21.5332ZM18.7046 19.7515L18.7447 19.9474C18.7505 19.9462 18.7563 19.9448 18.7619 19.9431L18.7046 19.7515ZM22.748 19.9833L22.6691 20.1671C22.7501 20.2019 22.8444 20.1795 22.9011 20.1119L22.748 19.9833ZM22.762 19.9666L22.61 19.8366L22.6089 19.838L22.762 19.9666ZM22.9214 19.8098L23.0488 19.9639C23.1044 19.918 23.131 19.8456 23.1183 19.7746C23.1056 19.7036 23.0557 19.6449 22.9876 19.6211L22.9214 19.8098ZM18.3649 18.2123L18.4311 18.0236C18.409 18.0158 18.3857 18.012 18.3622 18.0123L18.3649 18.2123ZM18.3572 18.2124L18.3534 18.4125L18.3599 18.4124L18.3572 18.2124ZM18.1606 18.1199L18.3124 17.9893L18.3058 17.9823L18.1606 18.1199ZM18.068 17.9232L17.8682 17.9371L17.8695 17.9474L18.068 17.9232ZM18.0211 17.2513L18.2206 17.2373C18.2168 17.1827 18.1908 17.1321 18.1486 17.0972C18.1064 17.0623 18.0517 17.0462 17.9974 17.0527L18.0211 17.2513ZM17.1423 17.3563L17.1348 17.5562C17.1452 17.5566 17.1557 17.5562 17.1661 17.5549L17.1423 17.3563ZM16.9043 17.224L17.0701 17.1121C17.0558 17.0909 17.0375 17.0726 17.0164 17.0583L16.9043 17.224ZM16.7722 16.9861L16.9722 16.9786L16.9717 16.9722L16.7722 16.9861ZM16.7206 16.2493L16.9201 16.2354C16.9157 16.1726 16.882 16.1155 16.8291 16.0813C16.7762 16.0472 16.7103 16.0399 16.6513 16.0617L16.7206 16.2493ZM15.9162 16.5466L15.8469 16.359L15.8442 16.36L15.9162 16.5466ZM15.8443 16.5642L15.822 16.3655C15.8105 16.3668 15.7991 16.3691 15.788 16.3723L15.8443 16.5642ZM15.5692 16.4886L15.4275 16.6298L15.4278 16.63L15.5692 16.4886ZM11.647 13.816L11.553 13.9925C11.5577 13.995 11.5626 13.9974 11.5675 13.9995L11.647 13.816ZM11.5093 13.642L11.3159 13.6932L11.3159 13.6932L11.5093 13.642ZM11.543 13.4226L11.3745 13.3149L11.3739 13.3158L11.543 13.4226ZM11.6611 13.3161L11.751 13.4947C11.7921 13.474 11.8248 13.4398 11.8436 13.3978L11.6611 13.3161ZM11.8435 13.1797L11.8816 13.3761L11.8856 13.3752L11.8435 13.1797ZM22.4906 25.4236L22.4261 25.6129C22.4797 25.6312 22.5385 25.6259 22.5879 25.5983C22.6374 25.5708 22.6729 25.5236 22.6855 25.4684L22.4906 25.4236ZM22.7612 23.9334L22.9592 23.9619C22.9736 23.8617 22.9109 23.7666 22.8132 23.7403L22.7612 23.9334ZM22.4039 23.7844L22.3033 23.9573L22.4039 23.7844ZM22.1966 23.6385L22.3255 23.4855C22.2653 23.4348 22.1811 23.4241 22.1102 23.4581L22.1966 23.6385ZM19.3614 26.2525L19.5341 26.3533L19.3614 26.2525ZM18.4673 29.4258L18.2673 29.4216C18.2656 29.5036 18.314 29.5783 18.3895 29.6101C18.465 29.642 18.5523 29.6245 18.6098 29.5661L18.4673 29.4258ZM20.7289 27.4915L20.8454 27.654C20.8978 27.6165 20.9289 27.5559 20.9289 27.4915H20.7289ZM20.8136 26.6852L20.955 26.8266L20.955 26.8266L20.8136 26.6852ZM20.8782 26.6366L20.9749 26.8116C20.9901 26.8032 21.0042 26.7928 21.0167 26.7808L20.8782 26.6366ZM20.9576 26.5848L20.8814 26.3998H20.8814L20.9576 26.5848ZM21.0648 26.5658L21.0804 26.3663L21.0729 26.366L21.0648 26.5658ZM21.6808 26.6139L21.6652 26.8133C21.7616 26.8208 21.8495 26.7583 21.8742 26.6649L21.6808 26.6139ZM21.7702 26.1723L21.9681 26.2006C21.9717 26.1758 21.9705 26.1506 21.9648 26.1262L21.7702 26.1723ZM21.7702 26.1029L21.9648 26.1491C21.9701 26.1264 21.9715 26.1031 21.9688 26.08L21.7702 26.1029ZM21.7702 25.9409L21.9688 25.9639C21.9697 25.9563 21.9702 25.9486 21.9702 25.9409H21.7702ZM21.8549 25.424L21.9963 25.5655L21.9963 25.5654L21.8549 25.424ZM21.9423 25.3641L22.0233 25.5469C22.044 25.5378 22.063 25.5251 22.0795 25.5096L21.9423 25.3641ZM21.9901 25.3279L21.9141 25.1429C21.9048 25.1467 21.8958 25.1512 21.8872 25.1564L21.9901 25.3279ZM22.2099 25.3279L22.1337 25.5132L22.1454 25.5172L22.2099 25.3279ZM24.7747 20.8815L24.9161 21.0229L24.9161 21.0229L24.7747 20.8815ZM24.8461 20.7636L24.9306 20.5823C24.8784 20.558 24.8182 20.5574 24.7655 20.5806C24.7128 20.6039 24.6726 20.6487 24.6553 20.7037L24.8461 20.7636ZM24.8597 20.7696L24.7832 20.9544L24.7854 20.9553L24.8597 20.7696ZM25.0468 20.8444L25.1313 21.0257C25.2036 20.992 25.2489 20.9185 25.2467 20.8388C25.2444 20.7591 25.1951 20.6883 25.121 20.6587L25.0468 20.8444ZM24.5123 21.2554L24.6577 21.3933L24.6658 21.3837L24.5123 21.2554ZM23.7372 21.5562L23.7183 21.7554L23.7228 21.7557L23.7372 21.5562ZM23.1128 21.1462L23.288 21.0498V21.0498L23.1128 21.1462ZM23.0141 20.7742L23.214 20.771V20.771L23.0141 20.7742ZM23.1008 20.3993L22.9287 20.2965L22.9226 20.3085L23.1008 20.3993ZM23.3982 20.1307L23.4828 20.312L23.4828 20.312L23.3982 20.1307ZM23.795 20.0753L23.8422 19.881C23.8371 19.8797 23.8319 19.8787 23.8267 19.8778L23.795 20.0753ZM24.1399 20.2938L23.9843 20.4195V20.4195L24.1399 20.2938ZM24.281 20.6769H24.481L24.4809 20.6717L24.281 20.6769ZM24.3656 20.8815L24.5071 20.74L24.5071 20.74L24.3656 20.8815ZM30.4015 22.5282H30.6015C30.6015 22.4506 30.5567 22.3801 30.4865 22.3471L30.4015 22.5282ZM25.608 20.4462L25.5287 20.2626C25.4545 20.2946 25.4069 20.3681 25.408 20.4489C25.4091 20.5297 25.4587 20.6019 25.5337 20.6319L25.608 20.4462ZM38.3183 25.0582L38.2666 25.2514C38.3473 25.2731 38.433 25.2422 38.4814 25.1741C38.5298 25.1059 38.5307 25.0149 38.4837 24.9458L38.3183 25.0582ZM35.6548 24.3443L35.4755 24.4329C35.501 24.4845 35.5474 24.5226 35.603 24.5375L35.6548 24.3443ZM35.2143 23.7308L35.0212 23.7831C35.0304 23.8169 35.0483 23.8477 35.0731 23.8725L35.2143 23.7308ZM35.2026 23.6965L35.3876 23.6205C35.3844 23.6126 35.3807 23.6049 35.3764 23.5975L35.2026 23.6965ZM35.0291 23.5576L34.9561 23.7438C34.9609 23.7457 34.9658 23.7474 34.9707 23.7489L35.0291 23.5576ZM34.8093 23.5576L34.7362 23.3715C34.7107 23.3815 34.6874 23.3967 34.668 23.4161L34.8093 23.5576ZM34.7977 23.5692L34.9053 23.7378C34.9175 23.73 34.9288 23.721 34.939 23.7107L34.7977 23.5692ZM34.1804 23.963L34.0928 24.1428C34.1553 24.1733 34.2293 24.1691 34.2879 24.1316L34.1804 23.963ZM32.588 23.1875L32.4233 23.3009C32.4428 23.3293 32.4694 23.3522 32.5004 23.3673L32.588 23.1875ZM32.4104 23.0624L32.3592 23.2557L32.3592 23.2557L32.4104 23.0624ZM32.1944 23.0832L32.1072 22.9029L32.0985 22.9077L32.1944 23.0832ZM31.481 23.4732L31.343 23.618C31.406 23.678 31.5006 23.6904 31.5769 23.6487L31.481 23.4732ZM30.4475 22.5859L30.3142 22.7349C30.3178 22.7381 30.3215 22.7412 30.3253 22.7442L30.4475 22.5859ZM30.4015 22.5518H30.2015C30.2015 22.6216 30.238 22.6864 30.2976 22.7227L30.4015 22.5518ZM27.7056 16.8473H27.5056C27.5056 16.8688 27.5091 16.8902 27.5159 16.9106L27.7056 16.8473ZM27.8104 17.1618L27.8693 17.3529C27.9207 17.3371 27.9636 17.3011 27.9883 17.2533C28.0129 17.2054 28.0172 17.1496 28.0002 17.0985L27.8104 17.1618ZM24.0594 18.9226L23.8634 18.8828C23.8474 18.9618 23.8804 19.0428 23.9472 19.0881C24.0139 19.1334 24.1014 19.1341 24.1689 19.0899L24.0594 18.9226ZM25.2514 16.2404L25.4123 16.3592L25.2514 16.2404ZM28.0818 14.0142L28.1593 14.1985L28.0818 14.0142ZM31.6526 13.548L31.625 13.7461L31.6526 13.548ZM34.4501 14.6024L34.4673 14.8016C34.5522 14.7943 34.6231 14.734 34.644 14.6515C34.6649 14.5689 34.6312 14.4822 34.5601 14.4353L34.4501 14.6024ZM30.5639 15.8407L30.525 16.0369C30.573 16.0464 30.6228 16.038 30.6651 16.0132L30.5639 15.8407ZM29.2789 15.586L29.2368 15.7815L29.24 15.7821L29.2789 15.586ZM29.1395 15.5878L29.1441 15.7877C29.1584 15.7874 29.1727 15.7855 29.1867 15.7821L29.1395 15.5878ZM29.0362 15.6094L29.0827 15.8039C29.0928 15.8015 29.1026 15.7983 29.1122 15.7944L29.0362 15.6094ZM28.9365 15.6555L29.0548 15.8168L29.0548 15.8168L28.9365 15.6555ZM28.8626 15.7367L28.6906 15.6336L28.6842 15.6462L28.8626 15.7367ZM28.8626 15.9565L29.0495 15.8852C29.047 15.8786 29.0441 15.8722 29.041 15.866L28.8626 15.9565ZM29.0569 16.4655V16.6655C29.1227 16.6655 29.1842 16.6331 29.2216 16.5789C29.2589 16.5247 29.2672 16.4556 29.2437 16.3942L29.0569 16.4655ZM28.0571 16.4655L27.9931 16.655C28.0137 16.6619 28.0353 16.6655 28.0571 16.6655V16.4655ZM27.9926 16.452L27.9751 16.6512L27.9926 16.452ZM27.8792 16.4655L27.9258 16.6601C27.9317 16.6586 27.9376 16.6569 27.9433 16.655L27.8792 16.4655ZM27.7056 16.5928L27.5341 16.49C27.529 16.4986 27.5245 16.5075 27.5207 16.5168L27.7056 16.5928ZM27.7056 16.8126H27.9056C27.9056 16.7866 27.9006 16.7608 27.8906 16.7366L27.7056 16.8126ZM18.6307 17.6974L18.4312 17.7114C18.4368 17.791 18.4892 17.8598 18.5646 17.8862L18.6307 17.6974ZM18.5771 16.9282L18.7768 16.9143L18.7756 16.904L18.5771 16.9282ZM18.4846 16.7315L18.3327 16.8621L18.3394 16.8691L18.4846 16.7315ZM18.3961 16.6642L18.3109 16.8452L18.3109 16.8452L18.3961 16.6642ZM18.2878 16.6389L18.2916 16.4389H18.2878V16.6389ZM18.2099 16.6507L18.2013 16.8505C18.2234 16.8515 18.2456 16.8487 18.2669 16.8424L18.2099 16.6507ZM18.2068 16.6506L18.2153 16.4508C18.2046 16.4503 18.1937 16.4507 18.183 16.452L18.2068 16.6506ZM17.3345 16.7549L17.135 16.7688C17.1388 16.8235 17.1648 16.8741 17.207 16.909C17.2492 16.9439 17.3039 16.96 17.3582 16.9535L17.3345 16.7549ZM17.2697 15.8292L17.0699 15.8206C17.0695 15.8281 17.0696 15.8356 17.0702 15.8431L17.2697 15.8292ZM17.251 15.7166L17.4374 15.644L17.4374 15.644L17.251 15.7166ZM17.0931 15.5586L17.1657 15.3722L17.1657 15.3722L17.0931 15.5586ZM16.9804 15.5399L16.988 15.7398L16.989 15.7397L16.9804 15.5399ZM16.7994 15.6093L16.8687 15.7969C16.89 15.7891 16.9099 15.7776 16.9273 15.763L16.7994 15.6093ZM15.8576 15.9574L15.7181 16.1007C15.7734 16.1545 15.8546 16.1717 15.9269 16.145L15.8576 15.9574ZM12.5901 13.6266L12.5602 13.4289C12.4741 13.4419 12.4064 13.509 12.3926 13.595C12.3788 13.6809 12.4222 13.7659 12.4999 13.8052L12.5901 13.6266ZM18.7601 14.651L18.8523 14.4735L18.7601 14.651ZM23.248 19.3162L23.1818 19.505C23.2579 19.5316 23.3425 19.51 23.3965 19.4502C23.4505 19.3903 23.4633 19.3039 23.4289 19.231L23.248 19.3162ZM22.4529 20.8736L22.2531 20.8837L22.2535 20.8881L22.4529 20.8736ZM22.4898 20.4948L22.6839 20.5432C22.7079 20.4468 22.6575 20.3473 22.5655 20.3097L22.4898 20.4948ZM18.5194 20.3994L18.5626 20.5946C18.5706 20.5929 18.5784 20.5906 18.5861 20.5879L18.5194 20.3994ZM15.2337 22.0654L15.1017 21.9151C15.0964 21.9197 15.0914 21.9246 15.0867 21.9298L15.2337 22.0654ZM13.209 25.1892L13.3798 25.2932C13.3847 25.2851 13.3891 25.2767 13.3928 25.268L13.209 25.1892ZM12.1979 28.9535L11.9979 28.9579C11.9995 29.0312 12.0411 29.0978 12.1063 29.1313C12.1715 29.1649 12.2498 29.1601 12.3104 29.1188L12.1979 28.9535ZM16.6591 25.9169L16.7717 26.0822C16.8186 26.0503 16.8498 25.9999 16.8574 25.9436L16.6591 25.9169ZM16.9342 23.8701L17.1325 23.8968C17.1336 23.888 17.1342 23.8791 17.1342 23.8701H16.9342ZM16.9447 23.7932L17.1374 23.8464C17.1414 23.832 17.1438 23.8172 17.1445 23.8023L16.9447 23.7932ZM16.9477 23.7627L17.1454 23.7928V23.7928L16.9477 23.7627ZM16.9863 23.656L17.1574 23.7595L17.1574 23.7595L16.9863 23.656ZM17.0628 23.5723L17.1814 23.7334L17.1814 23.7334L17.0628 23.5723ZM17.1655 23.5242L17.1177 23.33L17.1177 23.33L17.1655 23.5242ZM17.2789 23.5191L17.309 23.3213L17.309 23.3213L17.2789 23.5191ZM17.3855 23.5577L17.4936 23.3893L17.489 23.3865L17.3855 23.5577ZM18.1035 24.0187L17.9955 24.187C18.0412 24.2163 18.097 24.2258 18.1498 24.2132C18.2027 24.2007 18.2482 24.1671 18.2758 24.1203L18.1035 24.0187ZM18.5779 23.2147L18.7502 23.3163C18.7661 23.2894 18.7754 23.2591 18.7775 23.2279L18.5779 23.2147ZM18.579 23.2023L18.3802 23.1806L18.3802 23.1806L18.579 23.2023ZM18.6129 23.0946L18.7883 23.1908L18.7883 23.1908L18.6129 23.0946ZM18.6854 23.0082L18.5602 22.8522L18.5602 22.8522L18.6854 23.0082ZM18.7855 22.9561L18.8415 23.1481C18.8494 23.1458 18.8572 23.143 18.8647 23.1397L18.7855 22.9561ZM19.0053 22.9561L19.0986 22.7791C19.094 22.7767 19.0893 22.7745 19.0845 22.7724L19.0053 22.9561ZM19.5292 23.2323L19.4359 23.4092C19.5029 23.4445 19.5841 23.4389 19.6456 23.3949L19.5292 23.2323ZM22.4876 21.3247L22.5877 21.498L22.5924 21.4951L22.4876 21.3247ZM22.5507 21.2956L22.6108 21.4864C22.6639 21.4696 22.7077 21.4315 22.7316 21.381C22.7554 21.3306 22.7571 21.2726 22.7362 21.2208L22.5507 21.2956ZM25.5425 23.0602L25.5352 23.2601C25.544 23.2604 25.5528 23.2602 25.5615 23.2593L25.5425 23.0602ZM25.544 23.0603V22.8603C25.4348 22.8603 25.3457 22.9479 25.344 23.0571C25.3422 23.1663 25.4284 23.2567 25.5375 23.2602L25.544 23.0603ZM25.5652 23.0603L25.5714 23.2602C25.6806 23.2568 25.7669 23.1664 25.7652 23.0572C25.7634 22.9479 25.6744 22.8603 25.5652 22.8603V23.0603ZM25.7071 23.0325L25.9053 23.0057C25.8977 22.9496 25.8667 22.8992 25.8198 22.8673C25.773 22.8354 25.7148 22.8248 25.6598 22.8382L25.7071 23.0325ZM25.7503 23.1409L25.5849 23.2534C25.6343 23.326 25.7252 23.3579 25.8091 23.3321C25.893 23.3063 25.9503 23.2287 25.9503 23.1409H25.7503ZM25.7503 23.1062L25.9213 23.0024C25.8747 22.9258 25.7828 22.8894 25.6964 22.9136C25.61 22.9378 25.5503 23.0165 25.5503 23.1062H25.7503ZM30.528 34.4342L30.4924 34.631C30.5595 34.6432 30.6282 34.6203 30.6746 34.5703C30.721 34.5204 30.7387 34.4502 30.7217 34.3842L30.528 34.4342ZM25.7315 34.0287L25.7336 34.2287L25.7315 34.0287ZM23.7811 34.1237L23.5946 34.0517C23.5697 34.1161 23.5798 34.1887 23.6212 34.2439C23.6627 34.2991 23.7297 34.329 23.7985 34.323L23.7811 34.1237ZM24.8148 22.5387L24.6234 22.4806C24.614 22.5117 24.6123 22.5447 24.6184 22.5766L24.8148 22.5387ZM24.8248 22.5047L24.6344 22.4433L24.6326 22.4496L24.8248 22.5047ZM24.2695 22.3427L24.0798 22.2795C24.073 22.2999 24.0695 22.3212 24.0695 22.3427H24.2695ZM24.2695 22.3774L24.4621 22.4315C24.467 22.4139 24.4695 22.3957 24.4695 22.3774H24.2695ZM23.7026 23.1989L23.5837 23.038L23.5819 23.0394L23.7026 23.1989ZM23.2461 23.3901L23.2171 23.1922L23.2171 23.1922L23.2461 23.3901ZM22.7539 23.3377L22.6719 23.5206L22.6839 23.5251L22.7539 23.3377ZM22.458 23.0951L22.295 23.2111V23.2111L22.458 23.0951ZM22.3258 22.7361L22.1258 22.7373C22.1258 22.7427 22.1261 22.7481 22.1266 22.7535L22.3258 22.7361ZM22.4607 22.3788L22.3114 22.2457L22.4607 22.3788ZM22.8001 22.2039L22.8219 22.4027C22.8335 22.4014 22.8449 22.3991 22.8561 22.3959L22.8001 22.2039ZM22.9728 22.0653L23.1482 22.1615L23.1482 22.1615L22.9728 22.0653ZM23.0061 21.8899L23.1265 21.7302C23.0623 21.6818 22.9754 21.6765 22.9058 21.7169C22.8362 21.7572 22.7976 21.8353 22.8077 21.915L23.0061 21.8899ZM23.7603 22.1694L23.7476 22.3691L23.7525 22.3693L23.7603 22.1694ZM24.7205 21.8918L24.8339 22.0566L24.8382 22.0535L24.7205 21.8918ZM24.9488 21.6854L25.0903 21.8267L24.9488 21.6854ZM25.5073 21.348L25.5206 21.5476L25.5244 21.5473L25.5073 21.348ZM25.7261 21.3731L25.6643 21.5634H25.6643L25.7261 21.3731ZM26.0526 21.6557L25.8733 21.7441L25.8733 21.7441L26.0526 21.6557ZM26.1089 21.8686L25.9093 21.8804L25.9093 21.881L26.1089 21.8686ZM26.0785 22.0928L25.8894 22.0276L25.8894 22.0276L26.0785 22.0928ZM25.9644 22.2881L26.114 22.4208L26.114 22.4208L25.9644 22.2881ZM25.7841 22.4248L25.8714 22.6047H25.8714L25.7841 22.4248ZM25.5652 22.4818V22.6821L25.5768 22.6815L25.5652 22.4818ZM26.0047 25.5596L26.1881 25.4797L26.1863 25.4757L26.0047 25.5596ZM28.0062 30.7659L27.8168 30.8303L27.8177 30.8328L28.0062 30.7659ZM28.5731 30.6155L28.7635 30.5541L28.7626 30.5515L28.5731 30.6155ZM26.5137 25.2587L26.6977 25.1801L26.6962 25.1769L26.5137 25.2587ZM18.951 14.3327C20.8348 15.3169 22.3682 16.8462 23.3581 18.71L23.7114 18.5224C22.6838 16.5875 21.0919 14.9999 19.1363 13.9782L18.951 14.3327ZM23.7296 18.6615C23.9505 17.7108 24.364 16.812 24.9482 16.0219L24.6266 15.7841C24.0098 16.6182 23.5732 17.5673 23.3399 18.5709L23.7296 18.6615ZM24.9482 16.0219C25.7188 14.9797 26.7575 14.1659 27.9538 13.6671L27.7999 13.2979C26.5369 13.8246 25.4402 14.6838 24.6266 15.7841L24.9482 16.0219ZM27.9538 13.6671C29.1501 13.1682 30.4593 13.003 31.742 13.189L31.7994 12.7931C30.4451 12.5968 29.0629 12.7712 27.7999 13.2979L27.9538 13.6671ZM31.742 13.189C33.0247 13.375 34.233 13.9052 35.2384 14.7232L35.4909 14.4129C34.4294 13.5493 33.1537 12.9895 31.7994 12.7931L31.742 13.189ZM35.2427 14.7266C35.2612 14.7409 35.2667 14.7508 35.2679 14.7535C35.269 14.7558 35.2691 14.7568 35.269 14.7586L35.6677 14.7909C35.6795 14.6449 35.6144 14.5078 35.4866 14.4095L35.2427 14.7266ZM35.2766 14.8319C35.2791 14.8401 35.2804 14.8486 35.2804 14.8573H35.6804C35.6804 14.8096 35.6734 14.7625 35.66 14.7176L35.2766 14.8319ZM35.2804 14.8573C35.2804 14.8809 35.271 14.9036 35.2542 14.9204L35.537 15.2033C35.6288 15.1115 35.6804 14.9871 35.6804 14.8573H35.2804ZM35.2542 14.9204C35.2374 14.9372 35.2148 14.9466 35.1911 14.9466V15.3466C35.3209 15.3466 35.4453 15.295 35.537 15.2033L35.2542 14.9204ZM35.1896 14.9466C33.5805 14.9584 32.0049 15.4085 30.6323 16.2486L30.8412 16.5898C32.1517 15.7876 33.6561 15.3578 35.1926 15.3466L35.1896 14.9466ZM30.638 16.2453C30.6273 16.2514 30.6157 16.2552 30.6036 16.2567L30.6531 16.6537C30.7174 16.6456 30.7793 16.625 30.8356 16.5931L30.638 16.2453ZM30.6036 16.2567C30.5916 16.2582 30.5793 16.2573 30.5676 16.2541L30.4614 16.6397C30.5237 16.6569 30.5889 16.6617 30.6531 16.6537L30.6036 16.2567ZM30.5676 16.2541C30.5564 16.251 30.5458 16.2459 30.5366 16.2389L30.2968 16.5591C30.3461 16.596 30.402 16.6234 30.4614 16.6397L30.5676 16.2541ZM30.4556 16.2028L29.6044 16.0341L29.5266 16.4264L30.3778 16.5952L30.4556 16.2028ZM29.3786 16.3015L29.5435 16.7335L29.9172 16.5909L29.7524 16.159L29.3786 16.3015ZM29.552 16.7527C29.555 16.7587 29.5566 16.7653 29.5566 16.7721H29.9566C29.9566 16.7026 29.9402 16.6339 29.9087 16.5718L29.552 16.7527ZM29.5566 16.7721C29.5566 16.7789 29.555 16.7856 29.552 16.7916L29.9087 16.9725C29.9402 16.9104 29.9566 16.8417 29.9566 16.7721H29.5566ZM29.5588 16.7792C29.5535 16.7881 29.5465 16.7958 29.5381 16.8019L29.7747 17.1245C29.8259 17.0869 29.8692 17.0394 29.9019 16.9849L29.5588 16.7792ZM29.5381 16.8019C29.5297 16.8081 29.5203 16.8124 29.5103 16.8148L29.6034 17.2038C29.6653 17.189 29.7235 17.162 29.7747 17.1245L29.5381 16.8019ZM29.4808 16.8243C29.4742 16.8271 29.4673 16.829 29.4603 16.83L29.52 17.2255C29.5584 17.2197 29.5963 17.2093 29.6328 17.1943L29.4808 16.8243ZM29.4241 16.839C29.4148 16.8422 29.4049 16.844 29.3947 16.844V17.244C29.4502 17.244 29.5047 17.2345 29.5561 17.2166L29.4241 16.839ZM29.3947 16.844H28.3651V17.244H29.3947V16.844ZM28.1754 17.1072L28.2448 17.3155L28.6243 17.189L28.5548 16.9807L28.1754 17.1072ZM28.2495 17.3283C28.2585 17.35 28.2585 17.3744 28.2495 17.3961L28.6195 17.5481C28.6685 17.429 28.6685 17.2954 28.6195 17.1763L28.2495 17.3283ZM28.2649 17.3661C28.2486 17.3922 28.2239 17.412 28.1948 17.4222L28.3271 17.7997C28.4419 17.7594 28.5397 17.6813 28.6042 17.5781L28.2649 17.3661ZM28.1895 17.4241C28.1852 17.4258 28.1808 17.4272 28.1763 17.4284L28.2764 17.8156C28.2953 17.8107 28.314 17.8048 28.3324 17.7977L28.1895 17.4241ZM28.1061 17.4622C28.0976 17.4686 28.0879 17.4735 28.0774 17.4766L28.1894 17.8606C28.2467 17.8439 28.2998 17.817 28.3466 17.7818L28.1061 17.4622ZM28.0763 17.4769C26.6204 17.9105 25.2413 18.5667 23.9874 19.4215L24.2127 19.752C25.4325 18.9205 26.7742 18.2821 28.1905 17.8602L28.0763 17.4769ZM24.0313 19.7745C24.1503 19.8181 24.2595 19.8849 24.3526 19.9711L24.6244 19.6775C24.4924 19.5554 24.3375 19.4607 24.1688 19.3989L24.0313 19.7745ZM24.3526 19.9711C24.4498 20.061 24.5272 20.1701 24.58 20.2915L24.9468 20.1319C24.8719 19.9598 24.7621 19.8051 24.6244 19.6775L24.3526 19.9711ZM24.5794 20.2901L24.5864 20.3066L24.9544 20.1498L24.9474 20.1334L24.5794 20.2901ZM24.5853 20.304L24.5909 20.3175L24.9611 20.166L24.9555 20.1524L24.5853 20.304ZM24.9005 20.3983L24.9061 20.3939L24.6571 20.0808L24.6515 20.0852L24.9005 20.3983ZM24.9567 20.334C24.9575 20.3325 24.9593 20.3298 24.9631 20.3262C24.9671 20.3224 24.9741 20.3169 24.9859 20.3108L24.8022 19.9555C24.7176 19.9993 24.6501 20.0618 24.6065 20.1407L24.9567 20.334ZM24.9801 20.3137C26.2609 19.7029 27.6584 19.3755 29.0772 19.354L29.0711 18.9541C27.5948 18.9765 26.1407 19.3171 24.808 19.9526L24.9801 20.3137ZM29.0772 19.354C30.496 19.3325 31.9028 19.6173 33.2015 20.1889L33.3626 19.8228C32.0112 19.228 30.5474 18.9317 29.0711 18.9541L29.0772 19.354ZM33.1997 20.1882C35.6578 21.2986 37.7029 23.1563 39.0437 25.4968L39.3908 25.2979C38.0081 22.8844 35.8992 20.9687 33.3644 19.8236L33.1997 20.1882ZM39.035 25.4797C39.0441 25.4998 39.0454 25.5226 39.0387 25.5437L39.4196 25.6656C39.4565 25.5504 39.4494 25.4254 39.3995 25.315L39.035 25.4797ZM39.0387 25.5437C39.0319 25.5647 39.0176 25.5825 38.9985 25.5936L39.1996 25.9394C39.3043 25.8785 39.3827 25.781 39.4196 25.6656L39.0387 25.5437ZM38.9986 25.5936C38.9794 25.6047 38.9569 25.6083 38.9353 25.6038L38.8528 25.9952C38.9714 26.0202 39.0949 26.0003 39.1996 25.9394L38.9986 25.5936ZM38.9353 25.6038C38.9286 25.6024 38.9221 25.6002 38.916 25.5974L38.7471 25.9599C38.7807 25.9756 38.8161 25.9875 38.8528 25.9952L38.9353 25.6038ZM38.8183 25.5791C38.808 25.5798 38.7976 25.5787 38.7875 25.5757L38.6754 25.9597C38.7309 25.9759 38.7883 25.982 38.8448 25.9782L38.8183 25.5791ZM38.7834 25.5746L35.4282 24.6722L35.3243 25.0584L38.6795 25.9609L38.7834 25.5746ZM35.4483 24.6787C35.4277 24.6708 35.4108 24.6555 35.4008 24.6358L35.044 24.8165C35.0987 24.9244 35.1913 25.0083 35.3042 25.0519L35.4483 24.6787ZM35.4008 24.6358C35.3962 24.6267 35.3932 24.6169 35.3919 24.607L34.9953 24.6587C35.0024 24.7133 35.0187 24.7667 35.044 24.8166L35.4008 24.6358ZM35.3757 24.55C35.3069 24.3989 35.2197 24.2569 35.116 24.1271L34.8035 24.3767C34.8866 24.4807 34.9565 24.5946 35.0116 24.7157L35.3757 24.55ZM34.7598 24.2519V24.3097H35.1598V24.2519H34.7598ZM35.1214 24.1919C35.0928 24.1527 35.0624 24.1147 35.0304 24.0783L34.7298 24.3422C34.7538 24.3696 34.7767 24.3981 34.7981 24.4275L35.1214 24.1919ZM34.7705 24.0429L34.3173 24.3398L34.5366 24.6744L34.9897 24.3775L34.7705 24.0429ZM34.2877 24.3635C34.2752 24.3756 34.2597 24.3844 34.2426 24.3888L34.3422 24.7762C34.4272 24.7544 34.5042 24.7108 34.5662 24.6507L34.2877 24.3635ZM34.2426 24.3888C34.2173 24.3953 34.1904 24.3918 34.1677 24.3788L33.9701 24.7266C34.083 24.7908 34.2164 24.8086 34.3422 24.7762L34.2426 24.3888ZM34.1569 24.3732L32.3948 23.5094L32.2188 23.8685L33.9809 24.7323L34.1569 24.3732ZM32.2109 23.5135L31.52 23.8911L31.7119 24.2421L32.4027 23.8644L32.2109 23.5135ZM31.5172 23.8927C31.5065 23.8987 31.4949 23.9026 31.4828 23.9041L31.5323 24.301C31.5966 24.293 31.6585 24.2724 31.7148 24.2405L31.5172 23.8927ZM31.4828 23.9041C31.4707 23.9056 31.4584 23.9047 31.4467 23.9015L31.3405 24.2871C31.4029 24.3043 31.4681 24.309 31.5323 24.301L31.4828 23.9041ZM31.4467 23.9015C31.4434 23.9006 31.4402 23.8995 31.437 23.8982L31.2886 24.2697C31.3055 24.2764 31.3228 24.2823 31.3405 24.2871L31.4467 23.9015ZM31.3859 23.8853C31.3775 23.8843 31.3692 23.8821 31.3614 23.8788L31.2049 24.2469C31.248 24.2652 31.2934 24.2772 31.3397 24.2826L31.3859 23.8853ZM31.3614 23.8788C31.3503 23.8741 31.3403 23.8672 31.332 23.8586L31.044 24.1362C31.0896 24.1835 31.1443 24.2212 31.2049 24.2469L31.3614 23.8788ZM31.33 23.8566C31.0081 23.5319 30.6657 23.2284 30.3048 22.948L30.0594 23.2639C30.4067 23.5337 30.7362 23.8258 31.046 24.1382L31.33 23.8566ZM30.2208 22.9097C30.2132 22.9082 30.2043 22.9056 30.1941 22.901L30.0305 23.266C30.0674 23.2826 30.1052 23.2946 30.1433 23.3022L30.2208 22.9097ZM30.2003 22.9039C29.006 22.3188 27.7956 21.7726 26.5766 21.2578L26.421 21.6262C27.634 22.1386 28.8376 22.6817 30.0243 23.2631L30.2003 22.9039ZM26.3153 21.5214C26.3549 21.613 26.3804 21.7111 26.39 21.8123L26.7882 21.7745C26.7746 21.6312 26.7385 21.4923 26.6824 21.3626L26.3153 21.5214ZM26.39 21.8123C26.4141 22.0663 26.3363 22.3196 26.1737 22.5163L26.4821 22.7711C26.7122 22.4927 26.8224 22.1342 26.7882 21.7745L26.39 21.8123ZM26.1737 22.5163C26.1389 22.5585 26.1008 22.5973 26.0599 22.6325L26.3209 22.9356C26.3788 22.8857 26.4327 22.8308 26.4821 22.7711L26.1737 22.5163ZM26.0596 22.9353C26.0647 22.9398 26.0714 22.9469 26.0785 22.9582L26.417 22.7451C26.39 22.7023 26.358 22.6645 26.3212 22.6328L26.0596 22.9353ZM26.0771 22.956C28.2613 26.5293 29.8955 30.4109 30.9248 34.4705L31.3125 34.3722C30.2734 30.2737 28.6236 26.3549 26.4184 22.7474L26.0771 22.956ZM30.925 34.4713C30.9299 34.4905 30.9292 34.5034 30.9276 34.5116L31.3204 34.5874C31.3338 34.5176 31.3312 34.4446 31.3123 34.3714L30.925 34.4713ZM31.0837 34.7454C33.6872 35.281 36.2009 36.2266 38.528 37.5569L38.7265 37.2096C36.3626 35.8582 33.809 34.8977 31.1643 34.3536L31.0837 34.7454ZM38.5096 37.545C38.5275 37.558 38.5399 37.5772 38.5445 37.5988L38.9359 37.5163C38.9109 37.3978 38.8428 37.2928 38.7449 37.2215L38.5096 37.545ZM38.5444 37.5988C38.549 37.6204 38.5454 37.6429 38.5343 37.662L38.8801 37.8631C38.941 37.7584 38.9608 37.6348 38.9359 37.5163L38.5444 37.5988ZM38.5343 37.662C38.5232 37.6812 38.5054 37.6954 38.4843 37.7022L38.6063 38.0831C38.7217 38.0462 38.8192 37.9678 38.8801 37.8631L38.5343 37.662ZM38.4843 37.7022C38.4633 37.7089 38.4405 37.7076 38.4204 37.6985L38.2556 38.063C38.366 38.1129 38.491 38.1201 38.6063 38.0831L38.4843 37.7022ZM38.4372 37.7071C34.5699 35.4968 30.1836 34.3565 25.7294 34.4036L25.7336 34.8036C30.1168 34.7572 34.4331 35.8793 38.2388 38.0544L38.4372 37.7071ZM25.7294 34.4036C21.2752 34.4508 16.914 35.6836 13.0943 37.9754L13.3001 38.3184C17.0588 36.0632 21.3505 34.85 25.7336 34.8036L25.7294 34.4036ZM13.1148 37.9646C13.0947 37.9737 13.0719 37.975 13.0508 37.9683L12.9289 38.3492C13.0442 38.3862 13.1692 38.379 13.2795 38.3291L13.1148 37.9646ZM13.0508 37.9683C13.0298 37.9615 13.012 37.9472 13.0009 37.9281L12.6551 38.1292C12.716 38.2339 12.8135 38.3123 12.9289 38.3492L13.0508 37.9683ZM13.0009 37.9281C12.9898 37.909 12.9862 37.8865 12.9907 37.8649L12.5993 37.7824C12.5743 37.9009 12.5942 38.0245 12.6551 38.1292L13.0009 37.9281ZM12.9907 37.8649C12.9953 37.8433 13.0077 37.8241 13.0256 37.8111L12.7903 37.4876C12.6924 37.5588 12.6243 37.6639 12.5993 37.7824L12.9907 37.8649ZM13.0108 37.8209C16.119 35.9577 19.5829 34.7904 23.1642 34.3864L23.1194 33.989C19.4813 34.3993 15.9626 35.5851 12.8051 37.4778L13.0108 37.8209ZM23.3275 34.262C24.7165 30.7897 25.1441 27.0112 24.5712 23.3231L24.176 23.3845C24.7379 27.0018 24.3184 30.7078 22.9561 34.1134L23.3275 34.262ZM24.2204 23.2253C24.1348 23.3274 24.0393 23.4216 23.935 23.5065L24.1875 23.8168C24.3116 23.7158 24.4251 23.6037 24.5269 23.4823L24.2204 23.2253ZM23.9363 23.5055C23.8035 23.6118 23.6506 23.6903 23.4869 23.7364L23.5952 24.1215C23.8105 24.0609 24.0116 23.9576 24.1862 23.8178L23.9363 23.5055ZM23.4869 23.7364C23.4267 23.7534 23.3654 23.7658 23.3037 23.7737L23.3543 24.1704C23.4355 24.1601 23.516 24.1437 23.5952 24.1215L23.4869 23.7364ZM23.1295 23.9864C23.1303 23.9969 23.1294 24.0076 23.1267 24.0181L23.5147 24.1155C23.5277 24.0635 23.5322 24.0103 23.5285 23.9577L23.1295 23.9864ZM23.1232 24.0353C23.0424 24.5434 22.9389 25.1525 22.8243 25.6912L23.2155 25.7744C23.3323 25.2255 23.4371 24.6083 23.5182 24.0982L23.1232 24.0353ZM22.8259 25.6842C22.823 25.6959 22.8178 25.7067 22.8106 25.7162L23.1303 25.9567C23.1696 25.9044 23.198 25.8447 23.2139 25.7814L22.8259 25.6842ZM22.8106 25.7162C22.8035 25.7257 22.7945 25.7337 22.7841 25.7397L22.9849 26.0856C23.0414 26.0528 23.0909 26.009 23.1303 25.9567L22.8106 25.7162ZM22.7841 25.7397C22.777 25.7438 22.7695 25.7469 22.7617 25.7489L22.8617 26.1362C22.9048 26.1251 22.9463 26.1081 22.985 26.0856L22.7841 25.7397ZM22.642 25.8367C22.6414 25.8377 22.6407 25.8387 22.64 25.8397L22.9689 26.0674C22.9732 26.0612 22.9774 26.0549 22.9814 26.0485L22.642 25.8367ZM22.6416 25.8375L22.6372 25.8436L22.963 26.0758L22.9673 26.0696L22.6416 25.8375ZM22.6388 25.8414C22.6327 25.8498 22.625 25.8568 22.6161 25.8621L22.8218 26.2052C22.8763 26.1725 22.9238 26.1292 22.9614 26.078L22.6388 25.8414ZM22.6475 25.8468C22.619 25.8577 22.5875 25.8577 22.559 25.8468L22.4161 26.2205C22.5366 26.2665 22.6699 26.2665 22.7904 26.2205L22.6475 25.8468ZM22.5573 25.8462L22.4044 25.7893L22.2649 26.1642L22.4178 26.2211L22.5573 25.8462ZM22.1353 25.961C22.1098 26.283 22.0476 26.6015 21.9497 26.9102L22.331 27.0311C22.4381 26.6934 22.5061 26.3449 22.5341 25.9926L22.1353 25.961ZM22.2604 27.1306L22.3067 27.0959L22.0666 26.776L22.0204 26.8107L22.2604 27.1306ZM21.9969 26.8727C21.9889 26.8969 21.972 26.917 21.9497 26.9292L22.1421 27.28C22.2528 27.2192 22.3365 27.1189 22.3764 26.9991L21.9969 26.8727ZM21.9497 26.9292C21.9438 26.9325 21.9376 26.9351 21.9313 26.9371L22.0503 27.319C22.0819 27.3091 22.1127 27.2961 22.1421 27.28L21.9497 26.9292ZM21.8706 26.9682C21.8449 26.9875 21.8144 26.9997 21.7823 27.0035L21.8282 27.4008C21.9311 27.3889 22.0287 27.3498 22.111 27.2879L21.8706 26.9682ZM21.8208 27.0027L21.323 26.9638L21.2918 27.3626L21.7897 27.4015L21.8208 27.0027ZM21.1074 27.1632V27.6996H21.5074V27.1632H21.1074ZM21.1074 27.6996C21.1074 27.7232 21.098 27.7459 21.0812 27.7627L21.3641 28.0455C21.4558 27.9538 21.5074 27.8294 21.5074 27.6996H21.1074ZM21.0812 27.7627C21.0646 27.7794 21.042 27.7887 21.0184 27.7888L21.0195 28.1888C21.1488 28.1884 21.2726 28.137 21.3641 28.0455L21.0812 27.7627ZM20.9019 27.8266C19.9422 28.5195 19.0588 29.3124 18.2667 30.1921L18.5639 30.4598C19.3371 29.6011 20.1993 28.8272 21.136 28.151L20.9019 27.8266ZM18.2679 30.1908C18.249 30.2114 18.2358 30.2156 18.2308 30.2168C18.2249 30.2182 18.2161 30.2184 18.2032 30.2136C18.1726 30.2023 18.1401 30.1696 18.1282 30.132L17.7467 30.2522C17.7945 30.4038 17.9139 30.5329 18.0638 30.5886C18.2273 30.6493 18.4186 30.6184 18.5627 30.4611L18.2679 30.1908ZM18.1139 30.098C18.1103 30.0911 18.1061 30.0796 18.1061 30.06H17.7061C17.7061 30.142 17.725 30.2187 17.761 30.2863L18.1139 30.098ZM18.1055 30.0456C18.0052 28.6554 18.3273 27.2674 19.0296 26.0634L18.6841 25.8619C17.9411 27.1355 17.6005 28.6038 17.7066 30.0744L18.1055 30.0456ZM19.0296 26.0634C19.7114 24.8945 20.7208 23.9522 21.9317 23.352L21.754 22.9936C20.4731 23.6285 19.4054 24.6254 18.6841 25.8619L19.0296 26.0634ZM22.0272 23.0952C21.9954 23.0199 21.9734 22.9406 21.9618 22.8592L21.5658 22.9157C21.5823 23.0312 21.6136 23.1437 21.6585 23.2504L22.0272 23.0952ZM21.9618 22.8592C21.9431 22.7287 21.9517 22.596 21.9866 22.4693L21.601 22.363C21.5515 22.5425 21.5394 22.7307 21.5658 22.9157L21.9618 22.8592ZM21.6886 22.2461C20.9665 22.6931 20.2602 23.1651 19.5709 23.6615L19.8046 23.9861C20.4864 23.4952 21.185 23.0283 21.8991 22.5862L21.6886 22.2461ZM19.5701 23.662C19.56 23.6694 19.5485 23.6745 19.5363 23.6771L19.6199 24.0683C19.6869 24.054 19.75 24.0258 19.8054 23.9855L19.5701 23.662ZM19.5363 23.6771C19.5241 23.6797 19.5115 23.6798 19.4992 23.6772L19.4167 24.0686C19.4837 24.0827 19.5529 24.0826 19.6199 24.0683L19.5363 23.6771ZM19.4992 23.6772C19.487 23.6746 19.4755 23.6695 19.4653 23.6622L19.231 23.9863C19.2865 24.0264 19.3498 24.0545 19.4167 24.0686L19.4992 23.6772ZM19.4653 23.6622C19.4607 23.6588 19.4564 23.655 19.4524 23.6508L19.16 23.9237C19.1815 23.9467 19.2053 23.9677 19.231 23.9863L19.4653 23.6622ZM19.3995 23.6103L19.096 23.4503L18.9094 23.8041L19.2129 23.9641L19.3995 23.6103ZM18.8304 23.5255L18.2776 24.4625L18.6221 24.6658L19.1749 23.7288L18.8304 23.5255ZM18.2676 24.4818C18.2625 24.4931 18.255 24.5033 18.2456 24.5116L18.5118 24.8102C18.5629 24.7647 18.6039 24.7089 18.6321 24.6465L18.2676 24.4818ZM18.2456 24.5116C18.2363 24.52 18.2253 24.5262 18.2135 24.53L18.3355 24.911C18.4008 24.8901 18.4608 24.8557 18.5118 24.8102L18.2456 24.5116ZM18.2135 24.53C18.2016 24.5338 18.1891 24.5351 18.1767 24.5337L18.1334 24.9314C18.2014 24.9388 18.2703 24.9318 18.3355 24.911L18.2135 24.53ZM18.1767 24.5337C18.1642 24.5324 18.1522 24.5284 18.1414 24.5222L17.9404 24.868C17.9996 24.9024 18.0654 24.924 18.1334 24.9314L18.1767 24.5337ZM18.1414 24.5222C18.1306 24.5159 18.1212 24.5074 18.114 24.4973L17.7898 24.7316C17.8299 24.7872 17.8813 24.8336 17.9404 24.868L18.1414 24.5222ZM18.1139 24.4973C18.1128 24.4957 18.1116 24.494 18.1106 24.4923L17.7712 24.704C17.7771 24.7134 17.7833 24.7226 17.7898 24.7316L18.1139 24.4973ZM18.048 24.4293L17.5633 24.1219L17.3491 24.4597L17.8338 24.7671L18.048 24.4293ZM17.258 24.2641L17.0253 25.9955L17.4217 26.0487L17.6544 24.3174L17.258 24.2641ZM17.0235 26.0221C17.0235 26.0457 17.0141 26.0684 16.9973 26.0852L17.2802 26.368C17.3719 26.2763 17.4235 26.1519 17.4235 26.0221H17.0235ZM16.9973 26.0852C16.9959 26.0866 16.9944 26.088 16.9929 26.0893L17.256 26.3906C17.2643 26.3834 17.2723 26.3759 17.2802 26.368L16.9973 26.0852ZM16.9397 26.1635C16.9356 26.1733 16.9268 26.1875 16.9041 26.2027L17.1259 26.5355C17.2114 26.4785 17.2734 26.4031 17.3092 26.3165L16.9397 26.1635ZM16.9032 26.2032L11.9629 29.5353L12.1866 29.8669L17.1268 26.5349L16.9032 26.2032ZM11.8958 29.6118L11.8727 29.6581L12.2306 29.8367L12.2537 29.7904L11.8958 29.6118ZM11.9348 29.5851C11.9146 29.5996 11.906 29.5973 11.905 29.5971C11.9003 29.5964 11.8875 29.5925 11.8714 29.576C11.8553 29.5595 11.8422 29.5364 11.8361 29.5122C11.8301 29.4884 11.8321 29.4696 11.8373 29.4565L11.4652 29.3097C11.3855 29.5117 11.4596 29.7266 11.5852 29.8553C11.6508 29.9226 11.7402 29.9773 11.847 29.9929C11.9576 30.0091 12.0698 29.9808 12.1685 29.9097L11.9348 29.5851ZM11.8504 29.3647C11.7184 27.9345 12.0349 26.4979 12.7571 25.255L12.4113 25.054C11.6473 26.3689 11.3124 27.8885 11.4521 29.4015L11.8504 29.3647ZM12.7694 25.23C13.3093 23.9051 14.1004 22.6972 15.0992 21.6728L14.8127 21.3936C13.778 22.4549 12.9584 23.7064 12.399 25.079L12.7694 25.23ZM15.0826 21.688C16.1442 20.8197 17.401 20.2224 18.7447 19.9474L18.6645 19.5555C17.2573 19.8435 15.9412 20.4691 14.8293 21.3784L15.0826 21.688ZM18.7619 19.9431C20.0509 19.5572 21.4338 19.6368 22.6691 20.1671L22.8269 19.7995C21.5054 19.2323 20.026 19.147 18.6472 19.5599L18.7619 19.9431ZM22.9011 20.1119L22.9152 20.0952L22.6089 19.838L22.5948 19.8547L22.9011 20.1119ZM22.9141 20.0965C22.9554 20.0482 23.0005 20.0039 23.0488 19.9639L22.794 19.6556C22.728 19.7102 22.6664 19.7707 22.61 19.8366L22.9141 20.0965ZM22.9876 19.6211L18.4311 18.0236L18.2987 18.4011L22.8552 19.9985L22.9876 19.6211ZM18.3622 18.0123L18.3546 18.0124L18.3599 18.4124L18.3675 18.4123L18.3622 18.0123ZM18.3611 18.0125C18.3518 18.0123 18.3427 18.0102 18.3342 18.0062L18.1639 18.3681C18.2232 18.396 18.2878 18.4111 18.3534 18.4124L18.3611 18.0125ZM18.3342 18.0062C18.3258 18.0022 18.3183 17.9965 18.3122 17.9895L18.0089 18.2503C18.0517 18.3 18.1046 18.3402 18.1639 18.3681L18.3342 18.0062ZM18.3058 17.9823C18.2841 17.9594 18.2703 17.9302 18.2665 17.899L17.8695 17.9474C17.8836 18.0637 17.9348 18.1724 18.0154 18.2574L18.3058 17.9823ZM18.2675 17.9093L18.2206 17.2373L17.8216 17.2652L17.8685 17.9371L18.2675 17.9093ZM17.9974 17.0527L17.1186 17.1578L17.1661 17.5549L18.0449 17.4499L17.9974 17.0527ZM17.1499 17.1565C17.1245 17.1555 17.1004 17.145 17.0824 17.127L16.7996 17.4099C16.8888 17.4991 17.0085 17.5514 17.1348 17.5562L17.1499 17.1565ZM17.0824 17.127C17.0778 17.1224 17.0737 17.1174 17.0701 17.1121L16.7385 17.3358C16.7563 17.3622 16.7767 17.387 16.7996 17.4099L17.0824 17.127ZM17.0164 17.0583C17.0111 17.0547 17.0061 17.0506 17.0015 17.0461L16.7187 17.3289C16.7414 17.3516 16.766 17.3719 16.7923 17.3896L17.0164 17.0583ZM17.0015 17.0461C16.9835 17.028 16.973 17.0039 16.972 16.9786L16.5723 16.9937C16.5771 17.1199 16.6294 17.2396 16.7187 17.3289L17.0015 17.0461ZM16.9717 16.9722L16.9201 16.2354L16.5211 16.2633L16.5727 17.0001L16.9717 16.9722ZM16.6513 16.0617L15.8469 16.359L15.9856 16.7342L16.7899 16.4369L16.6513 16.0617ZM15.8442 16.36C15.837 16.3628 15.8296 16.3646 15.822 16.3655L15.8667 16.763C15.9082 16.7583 15.9491 16.7483 15.9883 16.7332L15.8442 16.36ZM15.788 16.3723C15.7742 16.3764 15.7627 16.3763 15.7529 16.3739C15.7438 16.3717 15.7292 16.3658 15.7106 16.3472L15.4278 16.63C15.5671 16.7694 15.7447 16.8019 15.9007 16.7561L15.788 16.3723ZM15.7109 16.3475C14.5664 15.1987 13.2144 14.2774 11.7266 13.6325L11.5675 13.9995C13.0089 14.6243 14.3187 15.5168 15.4275 16.6298L15.7109 16.3475ZM11.7411 13.6395C11.7318 13.6345 11.7235 13.6277 11.7168 13.6192L11.4033 13.8676C11.444 13.919 11.4949 13.9616 11.553 13.9925L11.7411 13.6395ZM11.7168 13.6192C11.7102 13.6108 11.7054 13.6012 11.7026 13.5909L11.3159 13.6932C11.3327 13.7567 11.3625 13.8161 11.4033 13.8676L11.7168 13.6192ZM11.7026 13.5909C11.6998 13.5804 11.6993 13.5696 11.7009 13.5592L11.3055 13.4985C11.2955 13.5636 11.2992 13.6299 11.3159 13.6932L11.7026 13.5909ZM11.7009 13.5592C11.7025 13.5487 11.7063 13.5386 11.712 13.5295L11.3739 13.3158C11.3389 13.3713 11.3155 13.4334 11.3055 13.4985L11.7009 13.5592ZM11.7114 13.5304C11.7212 13.5151 11.735 13.5028 11.751 13.4947L11.5711 13.1375C11.4914 13.1776 11.4233 13.2386 11.3745 13.3149L11.7114 13.5304ZM11.8436 13.3978C11.8458 13.3928 11.8483 13.3899 11.8513 13.3876C11.8542 13.3853 11.8626 13.3797 11.8816 13.3761L11.8055 12.9833C11.6497 13.0135 11.5355 13.1071 11.4785 13.2344L11.8436 13.3978ZM11.8856 13.3752C14.2803 12.8597 16.7799 13.1984 18.951 14.3327L19.1363 13.9782C16.8824 12.8007 14.2875 12.449 11.8015 12.9842L11.8856 13.3752ZM22.6855 25.4684C22.7954 24.9903 22.8865 24.4666 22.9592 23.9619L22.5633 23.9049C22.4916 24.4025 22.4023 24.9147 22.2957 25.3788L22.6855 25.4684ZM22.8132 23.7403C22.7053 23.7112 22.6015 23.668 22.5045 23.6116L22.3033 23.9573C22.4309 24.0315 22.5674 24.0883 22.7092 24.1265L22.8132 23.7403ZM22.5045 23.6116C22.4411 23.5747 22.3813 23.5325 22.3255 23.4855L22.0678 23.7914C22.1412 23.8533 22.22 23.9088 22.3033 23.9573L22.5045 23.6116ZM22.1102 23.4581C20.8892 24.0434 19.8714 24.9815 19.1886 26.1517L19.5341 26.3533C20.1766 25.2522 21.1343 24.3695 22.2831 23.8188L22.1102 23.4581ZM19.1886 26.1517C18.6069 27.1487 18.2915 28.2747 18.2673 29.4216L18.6672 29.4301C18.69 28.3508 18.9867 27.2914 19.5341 26.3533L19.1886 26.1517ZM18.6098 29.5661C19.2986 28.8662 20.0466 28.2264 20.8454 27.654L20.6124 27.3289C19.795 27.9146 19.0296 28.5693 18.3247 29.2856L18.6098 29.5661ZM20.9289 27.4915V26.8897H20.5289V27.4915H20.9289ZM20.9289 26.8897C20.9289 26.8659 20.9383 26.8433 20.955 26.8266L20.6722 26.5438C20.5803 26.6356 20.5289 26.76 20.5289 26.8897H20.9289ZM20.955 26.8266C20.961 26.8206 20.9677 26.8156 20.9749 26.8116L20.7814 26.4615C20.7417 26.4835 20.7048 26.5111 20.6722 26.5438L20.955 26.8266ZM21.0167 26.7808C21.0217 26.776 21.0275 26.7723 21.0337 26.7697L20.8814 26.3998C20.8287 26.4215 20.7806 26.453 20.7396 26.4923L21.0167 26.7808ZM21.0337 26.7697C21.041 26.7667 21.0488 26.7653 21.0567 26.7656L21.0729 26.366C21.0074 26.3633 20.9421 26.3749 20.8814 26.3998L21.0337 26.7697ZM21.0492 26.7652L21.6652 26.8133L21.6963 26.4145L21.0804 26.3664L21.0492 26.7652ZM21.8742 26.6649C21.9144 26.5121 21.9458 26.3571 21.9681 26.2006L21.5722 26.144C21.552 26.2852 21.5237 26.4251 21.4873 26.563L21.8742 26.6649ZM21.9648 26.1262C21.9665 26.1337 21.9665 26.1415 21.9648 26.1491L21.5756 26.0568C21.5629 26.1099 21.5629 26.1653 21.5756 26.2185L21.9648 26.1262ZM21.9688 26.08C21.9644 26.0414 21.9644 26.0024 21.9688 25.9639L21.5715 25.918C21.5635 25.987 21.5635 26.0568 21.5715 26.1259L21.9688 26.08ZM21.9702 25.9409V25.6285H21.5702V25.9409H21.9702ZM21.9702 25.6285C21.9702 25.6049 21.9795 25.5822 21.9963 25.5655L21.7135 25.2826C21.6217 25.3743 21.5702 25.4988 21.5702 25.6285H21.9702ZM21.9963 25.5654C22.0042 25.5576 22.0133 25.5514 22.0233 25.5469L21.8613 25.1812C21.8067 25.2054 21.7565 25.2396 21.7135 25.2826L21.9963 25.5654ZM22.0795 25.5096C22.0836 25.5057 22.0881 25.5023 22.0929 25.4994L21.8872 25.1564C21.8576 25.1741 21.8301 25.195 21.8051 25.2186L22.0795 25.5096ZM22.0661 25.5129C22.0878 25.504 22.1122 25.504 22.1339 25.5129L22.2859 25.1429C22.1668 25.094 22.0332 25.094 21.9141 25.1429L22.0661 25.5129ZM22.1454 25.5172L22.4261 25.6129L22.5551 25.2343L22.2744 25.1386L22.1454 25.5172ZM24.9161 21.0229C24.9724 20.9666 25.0135 20.8981 25.0369 20.8236L24.6553 20.7037C24.6511 20.7173 24.6436 20.7298 24.6333 20.74L24.9161 21.0229ZM24.7617 20.9449C24.7686 20.9482 24.7758 20.9513 24.7832 20.9544L24.9362 20.5848C24.9344 20.584 24.9325 20.5832 24.9306 20.5823L24.7617 20.9449ZM24.7854 20.9553L24.9725 21.0301L25.121 20.6587L24.934 20.5839L24.7854 20.9553ZM24.9622 20.6631C24.7307 20.7711 24.5243 20.9291 24.3588 21.1272L24.6658 21.3837C24.7935 21.2308 24.9527 21.109 25.1313 21.0257L24.9622 20.6631ZM24.3671 21.1179C24.2886 21.2007 24.1926 21.2652 24.0862 21.3065L24.2309 21.6794C24.3925 21.6167 24.5382 21.5188 24.6575 21.393L24.3671 21.1179ZM24.0862 21.3065C23.9797 21.3478 23.8654 21.365 23.7515 21.3568L23.7228 21.7557C23.8957 21.7682 24.0692 21.7421 24.2309 21.6794L24.0862 21.3065ZM23.756 21.3571C23.6588 21.3479 23.5654 21.3151 23.4838 21.2616L23.2643 21.5959C23.4004 21.6853 23.5562 21.74 23.7183 21.7553L23.756 21.3571ZM23.4838 21.2616C23.4023 21.208 23.335 21.1353 23.288 21.0498L22.9375 21.2426C23.016 21.3852 23.1282 21.5065 23.2643 21.5959L23.4838 21.2616ZM23.288 21.0498C23.241 20.9643 23.2156 20.8686 23.214 20.771L22.8141 20.7774C22.8167 20.9402 22.8591 21.0999 22.9375 21.2426L23.288 21.0498ZM23.214 20.771C23.2125 20.6734 23.2348 20.577 23.2791 20.49L22.9226 20.3085C22.8487 20.4536 22.8115 20.6146 22.8141 20.7774L23.214 20.771ZM23.2725 20.5018C23.3221 20.4189 23.3953 20.3528 23.4828 20.312L23.3136 19.9495C23.1536 20.0242 23.0197 20.1451 22.9291 20.2967L23.2725 20.5018ZM23.4828 20.312C23.5703 20.2711 23.668 20.2575 23.7633 20.2728L23.8267 19.8778C23.6523 19.8499 23.4736 19.8748 23.3136 19.9495L23.4828 20.312ZM23.7478 20.2697C23.8409 20.2923 23.9241 20.345 23.9843 20.4195L24.2955 20.1682C24.18 20.0252 24.0207 19.9243 23.8422 19.881L23.7478 20.2697ZM23.9843 20.4195C24.0445 20.4941 24.0785 20.5864 24.081 20.6822L24.4809 20.6717C24.4761 20.488 24.4109 20.3111 24.2955 20.1682L23.9843 20.4195ZM24.081 20.6769C24.081 20.8066 24.1324 20.9311 24.2242 21.0229L24.5071 20.74C24.4904 20.7234 24.481 20.7007 24.481 20.6769H24.081ZM24.2242 21.0229C24.316 21.1147 24.4405 21.1662 24.5702 21.1662V20.7662C24.5465 20.7662 24.5238 20.7568 24.5071 20.74L24.2242 21.0229ZM24.5702 21.1662C24.7 21.1662 24.8244 21.1146 24.9161 21.0229L24.6333 20.74C24.6165 20.7568 24.5939 20.7662 24.5702 20.7662V21.1662ZM30.4865 22.3471C28.9005 21.6024 27.2991 20.9068 25.6822 20.2605L25.5337 20.6319C27.1433 21.2753 28.7375 21.9678 30.3165 22.7092L30.4865 22.3471ZM25.6872 20.6298C30.3594 18.6141 35.4119 21.1402 38.153 25.1707L38.4837 24.9458C35.6763 20.8177 30.437 18.145 25.5287 20.2626L25.6872 20.6298ZM38.3701 24.8651L35.7066 24.1511L35.603 24.5375L38.2666 25.2514L38.3701 24.8651ZM35.8341 24.2557C35.7122 24.0089 35.5505 23.7837 35.3555 23.5892L35.0731 23.8725C35.237 24.036 35.3729 24.2253 35.4755 24.4329L35.8341 24.2557ZM35.4074 23.6786C35.402 23.6589 35.3955 23.6395 35.3876 23.6205L35.0176 23.7725C35.0191 23.776 35.0203 23.7795 35.0212 23.7831L35.4074 23.6786ZM35.3764 23.5975C35.3132 23.4864 35.2099 23.4037 35.0875 23.3664L34.9707 23.7489C34.9953 23.7564 35.0161 23.773 35.0288 23.7954L35.3764 23.5975ZM35.1022 23.3715C34.9846 23.3253 34.8539 23.3253 34.7362 23.3715L34.8824 23.7438C34.9061 23.7345 34.9324 23.7345 34.9561 23.7438L35.1022 23.3715ZM34.668 23.4161L34.6564 23.4277L34.939 23.7107L34.9506 23.6992L34.668 23.4161ZM34.6902 23.4006L34.0728 23.7944L34.2879 24.1316L34.9053 23.7378L34.6902 23.4006ZM34.2679 23.7832L32.6756 23.0077L32.5004 23.3673L34.0928 24.1428L34.2679 23.7832ZM32.7528 23.0742C32.6834 22.9734 32.58 22.9004 32.4616 22.8691L32.3592 23.2557C32.3851 23.2626 32.408 23.2787 32.4233 23.3009L32.7528 23.0742ZM32.4616 22.8691C32.3432 22.8377 32.2175 22.8498 32.1073 22.9031L32.2815 23.2632C32.3057 23.2515 32.3333 23.2489 32.3592 23.2557L32.4616 22.8691ZM32.0985 22.9077L31.385 23.2977L31.5769 23.6487L32.2904 23.2587L32.0985 22.9077ZM31.6189 23.3284C31.285 23.0102 30.9349 22.7096 30.5698 22.4276L30.3253 22.7442C30.6794 23.0177 31.0191 23.3094 31.343 23.618L31.6189 23.3284ZM30.5809 22.4368C30.5573 22.4158 30.5321 22.3971 30.5054 22.3809L30.2976 22.7227C30.3035 22.7262 30.309 22.7303 30.3142 22.7349L30.5809 22.4368ZM30.6015 22.5518V22.5282H30.2015V22.5518H30.6015ZM27.5159 16.9106L27.6207 17.225L28.0002 17.0985L27.8954 16.7841L27.5159 16.9106ZM27.7516 16.9706C26.4062 17.3846 25.1265 17.9856 23.9499 18.7552L24.1689 19.0899C25.3141 18.3408 26.5597 17.7559 27.8693 17.3529L27.7516 16.9706ZM24.2554 18.9624C24.4461 18.0233 24.84 17.1344 25.4123 16.3592L25.0905 16.1216C24.4834 16.9438 24.0657 17.8867 23.8634 18.8828L24.2554 18.9624ZM25.4123 16.3592C26.1169 15.4049 27.0659 14.6585 28.1593 14.1985L28.0043 13.8298C26.8444 14.3177 25.8378 15.1094 25.0905 16.1216L25.4123 16.3592ZM28.1593 14.1985C29.2528 13.7386 30.4501 13.5823 31.625 13.7461L31.6802 13.3499C30.4341 13.1762 29.1641 13.342 28.0043 13.8298L28.1593 14.1985ZM31.625 13.7461C32.5973 13.8816 33.5244 14.2323 34.3401 14.7694L34.5601 14.4353C33.6949 13.8656 32.7115 13.4937 31.6802 13.3499L31.625 13.7461ZM34.4328 14.4031C33.0344 14.5241 31.6777 14.9553 30.4626 15.6682L30.6651 16.0132C31.8287 15.3304 33.1281 14.9175 34.4673 14.8016L34.4328 14.4031ZM30.6028 15.6446L29.3178 15.3898L29.24 15.7821L30.525 16.0369L30.6028 15.6446ZM29.321 15.3905C29.245 15.3741 29.1668 15.3753 29.0923 15.3934L29.1867 15.7821C29.203 15.7782 29.2201 15.7779 29.2368 15.7815L29.321 15.3905ZM29.135 15.3878C29.0755 15.3892 29.0162 15.4014 28.9602 15.4244L29.1122 15.7944C29.1224 15.7902 29.1332 15.788 29.1441 15.7877L29.135 15.3878ZM28.9896 15.4149C28.9278 15.4297 28.8695 15.4566 28.8183 15.4943L29.0548 15.8168C29.0631 15.8107 29.0726 15.8063 29.0827 15.8039L28.9896 15.4149ZM28.8183 15.4943C28.767 15.5318 28.7238 15.5793 28.6911 15.6338L29.0341 15.8395C29.0394 15.8306 29.0465 15.8229 29.0548 15.8168L28.8183 15.4943ZM28.6842 15.6462C28.6527 15.7083 28.6363 15.777 28.6363 15.8466H29.0363C29.0363 15.8398 29.0379 15.8331 29.041 15.8271L28.6842 15.6462ZM28.6363 15.8466C28.6363 15.9162 28.6527 15.9848 28.6842 16.047L29.041 15.866C29.0379 15.86 29.0363 15.8534 29.0363 15.8466H28.6363ZM28.6757 16.0278L28.87 16.5368L29.2437 16.3942L29.0495 15.8852L28.6757 16.0278ZM29.0569 16.2655H28.0571V16.6655H29.0569V16.2655ZM28.1211 16.276C28.0852 16.2639 28.048 16.2561 28.0101 16.2527L27.9751 16.6512C27.9812 16.6517 27.9873 16.653 27.9931 16.655L28.1211 16.276ZM28.0101 16.2527C27.9442 16.2469 27.8778 16.2549 27.8151 16.2761L27.9433 16.655C27.9535 16.6515 27.9643 16.6502 27.9751 16.6512L28.0101 16.2527ZM27.8327 16.271C27.7709 16.2858 27.7126 16.3128 27.6613 16.3504L27.8979 16.673C27.9061 16.6669 27.9156 16.6625 27.9258 16.6601L27.8327 16.271ZM27.6613 16.3504C27.61 16.388 27.5668 16.4355 27.5341 16.49L27.8772 16.6957C27.8825 16.6868 27.8895 16.679 27.8979 16.673L27.6613 16.3504ZM27.5207 16.5168C27.4717 16.6359 27.4717 16.7695 27.5207 16.8886L27.8906 16.7366C27.8817 16.7149 27.8817 16.6905 27.8906 16.6688L27.5207 16.5168ZM27.5056 16.8126V16.8473H27.9056V16.8126H27.5056ZM18.8302 17.6835L18.7766 16.9143L18.3775 16.9421L18.4312 17.7114L18.8302 17.6835ZM18.7756 16.904C18.7614 16.7878 18.7104 16.6791 18.6297 16.594L18.3394 16.8691C18.361 16.8919 18.3747 16.921 18.3785 16.9524L18.7756 16.904ZM18.6362 16.6011C18.5934 16.5513 18.5406 16.5112 18.4812 16.4833L18.3109 16.8452C18.3194 16.8492 18.3269 16.8549 18.3329 16.8619L18.6362 16.6011ZM18.4812 16.4833C18.4218 16.4553 18.3572 16.4402 18.2916 16.439L18.284 16.8389C18.2933 16.8391 18.3025 16.8412 18.3109 16.8452L18.4812 16.4833ZM18.2878 16.4389C18.2407 16.4389 18.1952 16.4464 18.1528 16.459L18.2669 16.8424C18.2758 16.8398 18.283 16.8389 18.2878 16.8389V16.4389ZM18.2184 16.4509L18.2153 16.4508L18.1982 16.8504L18.2013 16.8505L18.2184 16.4509ZM18.183 16.452L17.3107 16.5563L17.3582 16.9535L18.2305 16.8492L18.183 16.452ZM17.534 16.7409L17.4692 15.8152L17.0702 15.8431L17.135 16.7688L17.534 16.7409ZM17.4695 15.8377C17.4723 15.7717 17.4615 15.7058 17.4374 15.644L17.0647 15.7892C17.0685 15.7991 17.0703 15.8098 17.0699 15.8206L17.4695 15.8377ZM17.4374 15.644C17.4134 15.5822 17.3767 15.5263 17.33 15.4796L17.0472 15.7624C17.0549 15.7701 17.0608 15.7792 17.0647 15.7892L17.4374 15.644ZM17.33 15.4796C17.2833 15.4329 17.2274 15.3963 17.1657 15.3722L17.0205 15.745C17.0304 15.7488 17.0395 15.7548 17.0472 15.7624L17.33 15.4796ZM17.1657 15.3722C17.104 15.3482 17.038 15.3373 16.9719 15.3401L16.989 15.7397C16.9997 15.7393 17.0105 15.7411 17.0205 15.745L17.1657 15.3722ZM16.9729 15.3401C16.8619 15.3443 16.756 15.3852 16.6714 15.4556L16.9273 15.763C16.9444 15.7488 16.9657 15.7406 16.988 15.7398L16.9729 15.3401ZM16.73 15.4217L15.7882 15.7698L15.9269 16.145L16.8687 15.7969L16.73 15.4217ZM15.997 15.814C15.0171 14.8609 13.8985 14.0634 12.6802 13.4481L12.4999 13.8052C13.682 14.4021 14.7674 15.176 15.7181 16.1007L15.997 15.814ZM12.6199 13.8244C14.6863 13.5123 16.8043 13.8608 18.668 14.8285L18.8523 14.4735C16.9135 13.4667 14.71 13.1042 12.5602 13.4289L12.6199 13.8244ZM18.668 14.8285C20.5988 15.8311 22.1429 17.4394 23.0671 19.4014L23.4289 19.231C22.4675 17.1897 20.861 15.5166 18.8523 14.4735L18.668 14.8285ZM23.3142 19.1275L18.6969 17.5087L18.5646 17.8862L23.1818 19.505L23.3142 19.1275ZM22.6527 20.8636C22.6472 20.7549 22.658 20.647 22.6839 20.5432L22.2958 20.4464C22.2604 20.5881 22.2457 20.7353 22.2532 20.8837L22.6527 20.8636ZM22.5655 20.3097C21.2534 19.7732 19.7896 19.7378 18.4527 20.2108L18.5861 20.5879C19.8304 20.1477 21.1929 20.1806 22.4141 20.6799L22.5655 20.3097ZM18.4762 20.2041C17.2252 20.481 16.0644 21.0696 15.1017 21.9151L15.3657 22.2157C16.2778 21.4146 17.3774 20.857 18.5626 20.5946L18.4762 20.2041ZM15.0867 21.9298C14.2237 22.8651 13.5265 23.9407 13.0252 25.1104L13.3928 25.268C13.8762 24.1401 14.5485 23.1029 15.3807 22.201L15.0867 21.9298ZM13.0382 25.0852C12.3274 26.2523 11.9677 27.5967 11.9979 28.9579L12.3978 28.9491C12.3693 27.664 12.7089 26.395 13.3798 25.2932L13.0382 25.0852ZM12.3104 29.1188L16.7717 26.0822L16.5466 25.7516L12.0853 28.7882L12.3104 29.1188ZM16.8574 25.9436L17.1325 23.8968L16.736 23.8435L16.4609 25.8903L16.8574 25.9436ZM17.1342 23.8701C17.1342 23.8621 17.1353 23.8541 17.1374 23.8464L16.7519 23.74C16.7403 23.782 16.7342 23.8258 16.7342 23.8701H17.1342ZM17.1445 23.8023C17.1446 23.7991 17.1449 23.7959 17.1454 23.7928L16.7499 23.7326C16.7473 23.7497 16.7456 23.7669 16.7449 23.7842L17.1445 23.8023ZM17.1454 23.7928C17.1472 23.781 17.1513 23.7697 17.1574 23.7595L16.8151 23.5525C16.7818 23.6077 16.7597 23.6688 16.7499 23.7326L17.1454 23.7928ZM17.1574 23.7595C17.1635 23.7495 17.1716 23.7405 17.1814 23.7334L16.9443 23.4112C16.8926 23.4493 16.8486 23.4973 16.8151 23.5525L17.1574 23.7595ZM17.1814 23.7334C17.191 23.7263 17.2019 23.7212 17.2134 23.7184L17.1177 23.33C17.055 23.3454 16.9962 23.3731 16.9443 23.4112L17.1814 23.7334ZM17.2134 23.7184C17.2249 23.7155 17.2369 23.715 17.2487 23.7168L17.309 23.3213C17.2453 23.3116 17.1803 23.3146 17.1177 23.33L17.2134 23.7184ZM17.2487 23.7168C17.2605 23.7186 17.2718 23.7227 17.282 23.7288L17.489 23.3865C17.4338 23.3532 17.3727 23.331 17.309 23.3213L17.2487 23.7168ZM17.2774 23.726L17.9955 24.187L18.2116 23.8504L17.4935 23.3894L17.2774 23.726ZM18.2758 24.1203L18.7502 23.3163L18.4057 23.1131L17.9313 23.917L18.2758 24.1203ZM18.7775 23.2279C18.7776 23.2266 18.7777 23.2253 18.7778 23.224L18.3802 23.1806C18.3794 23.1875 18.3788 23.1945 18.3783 23.2015L18.7775 23.2279ZM18.7778 23.224C18.7791 23.2123 18.7827 23.201 18.7883 23.1908L18.4375 22.9985C18.4066 23.0549 18.3872 23.1168 18.3802 23.1806L18.7778 23.224ZM18.7883 23.1908C18.7939 23.1805 18.8015 23.1715 18.8106 23.1641L18.5602 22.8522C18.5101 22.8924 18.4684 22.9421 18.4375 22.9985L18.7883 23.1908ZM18.8106 23.1641C18.8197 23.1568 18.8302 23.1514 18.8415 23.1481L18.7295 22.7641C18.6679 22.782 18.6103 22.812 18.5602 22.8522L18.8106 23.1641ZM18.8647 23.1397C18.8745 23.1355 18.8849 23.1334 18.8954 23.1334V22.7334C18.8304 22.7334 18.766 22.7467 18.7064 22.7724L18.8647 23.1397ZM18.8954 23.1334C18.9059 23.1334 18.9164 23.1355 18.9261 23.1397L19.0845 22.7724C19.0248 22.7467 18.9605 22.7334 18.8954 22.7334V23.1334ZM18.912 23.133L19.4359 23.4092L19.6225 23.0553L19.0986 22.7791L18.912 23.133ZM19.6456 23.3949C20.5949 22.7151 21.5767 22.082 22.5877 21.4979L22.3875 21.1516C21.3653 21.7422 20.3725 22.3823 19.4127 23.0697L19.6456 23.3949ZM22.5924 21.4951C22.6 21.4904 22.6061 21.4878 22.6108 21.4864L22.4907 21.1048C22.4533 21.1166 22.4172 21.1332 22.3828 21.1544L22.5924 21.4951ZM22.7362 21.2208C22.6901 21.1062 22.6615 20.9843 22.6524 20.8592L22.2535 20.8881C22.2656 21.055 22.3037 21.2176 22.3652 21.3704L22.7362 21.2208ZM25.5375 23.2602C25.5488 23.2605 25.5601 23.2605 25.5714 23.2602L25.5589 22.8604C25.5559 22.8605 25.553 22.8605 25.5504 22.8604L25.5375 23.2602ZM25.5652 22.8603H25.544V23.2603H25.5652V22.8603ZM25.5615 23.2593C25.6269 23.2531 25.6914 23.2422 25.7544 23.2268L25.6598 22.8382C25.6152 22.849 25.5697 22.8567 25.5235 22.8611L25.5615 23.2593ZM25.5089 23.0593C25.5182 23.1279 25.5442 23.1935 25.5849 23.2534L25.9157 23.0285C25.9072 23.016 25.9057 23.0084 25.9053 23.0057L25.5089 23.0593ZM25.9503 23.1409V23.1062H25.5503V23.1409H25.9503ZM25.5793 23.21C27.7067 26.7158 29.3087 30.5143 30.3344 34.4843L30.7217 34.3842C29.6862 30.3764 28.0689 26.5417 25.9213 23.0024L25.5793 23.21ZM30.5636 34.2374C28.9751 33.9499 27.3567 33.8118 25.7294 33.8287L25.7336 34.2287C27.3355 34.2121 28.9287 34.348 30.4924 34.631L30.5636 34.2374ZM25.7294 33.8287C25.0718 33.8355 24.4161 33.8676 23.7637 33.9245L23.7985 34.323C24.4407 34.2669 25.0862 34.2354 25.7336 34.2287L25.7294 33.8287ZM23.9677 34.1958C25.4053 30.4746 25.768 26.4217 25.0112 22.5008L24.6184 22.5766C25.361 26.4238 25.0051 30.4004 23.5946 34.0517L23.9677 34.1958ZM25.0062 22.5967C25.0099 22.5844 25.0135 22.5721 25.0171 22.5598L24.6326 22.4496C24.6296 22.46 24.6265 22.4703 24.6234 22.4806L25.0062 22.5967ZM25.0152 22.5661C25.0612 22.4234 25.0434 22.2844 24.9719 22.1719C24.9036 22.0646 24.7966 21.997 24.6881 21.9665C24.4741 21.9063 24.1798 21.9795 24.0798 22.2795L24.4592 22.406C24.4701 22.3734 24.4864 22.361 24.5015 22.3544C24.521 22.3459 24.5497 22.3431 24.5798 22.3516C24.6101 22.3601 24.6275 22.3757 24.6344 22.3866C24.638 22.3923 24.6463 22.4066 24.6345 22.4433L25.0152 22.5661ZM24.0695 22.3427V22.3774H24.4695V22.3427H24.0695ZM24.077 22.3233C23.9965 22.6098 23.823 22.8612 23.5837 23.038L23.8215 23.3597C24.1322 23.1301 24.3576 22.8035 24.4621 22.4315L24.077 22.3233ZM23.5819 23.0394C23.4751 23.1203 23.3496 23.1728 23.2171 23.1922L23.275 23.588C23.4742 23.5588 23.6628 23.4798 23.8233 23.3583L23.5819 23.0394ZM23.2171 23.1922C23.0846 23.2116 22.9493 23.1972 22.8239 23.1503L22.6839 23.5251C22.8725 23.5955 23.0758 23.6171 23.275 23.588L23.2171 23.1922ZM22.8357 23.1552C22.7497 23.1167 22.6756 23.0559 22.621 22.9792L22.295 23.2111C22.391 23.3459 22.5211 23.4526 22.6721 23.5202L22.8357 23.1552ZM22.621 22.9792C22.5664 22.9024 22.5333 22.8125 22.525 22.7186L22.1266 22.7535C22.141 22.9183 22.1991 23.0762 22.295 23.2111L22.621 22.9792ZM22.5258 22.7349C22.5253 22.6527 22.5553 22.5732 22.61 22.5119L22.3114 22.2457C22.1908 22.381 22.1247 22.5561 22.1258 22.7373L22.5258 22.7349ZM22.61 22.5119C22.6647 22.4505 22.7402 22.4116 22.8219 22.4027L22.7784 22.0051C22.5983 22.0247 22.4319 22.1105 22.3114 22.2457L22.61 22.5119ZM22.8561 22.3959C22.9806 22.3596 23.0857 22.2753 23.1482 22.1615L22.7974 21.9691C22.7861 21.9898 22.7669 22.0052 22.7441 22.0119L22.8561 22.3959ZM23.1482 22.1615C23.1981 22.0703 23.2174 21.9664 23.2045 21.8648L22.8077 21.915C22.81 21.9337 22.8065 21.9526 22.7974 21.9691L23.1482 22.1615ZM22.8856 22.0496C23.1343 22.2371 23.4337 22.349 23.7476 22.369L23.773 21.9698C23.5376 21.9548 23.313 21.8709 23.1265 21.7302L22.8856 22.0496ZM23.7525 22.3693C24.1372 22.3844 24.5165 22.2747 24.8338 22.0566L24.6072 21.727C24.361 21.8962 24.0667 21.9813 23.7682 21.9696L23.7525 22.3693ZM24.8382 22.0535C24.9338 21.984 25.0185 21.8986 25.0903 21.8267L24.8073 21.544C24.731 21.6204 24.6685 21.6823 24.6029 21.73L24.8382 22.0535ZM25.0903 21.8267C25.2605 21.6564 25.3705 21.5576 25.5206 21.5475L25.494 21.1484C25.1698 21.17 24.9567 21.3945 24.8073 21.544L25.0903 21.8267ZM25.5244 21.5473C25.5716 21.5432 25.6192 21.5487 25.6643 21.5634L25.7879 21.1829C25.692 21.1518 25.5908 21.1401 25.4903 21.1487L25.5244 21.5473ZM25.6643 21.5634C25.7095 21.578 25.7512 21.6016 25.7871 21.6326L26.0488 21.3301C25.9726 21.2641 25.8838 21.2141 25.7879 21.1829L25.6643 21.5634ZM25.7871 21.6326C25.823 21.6637 25.8523 21.7016 25.8733 21.7441L26.232 21.5672C26.1874 21.4768 26.1251 21.3961 26.0488 21.3301L25.7871 21.6326ZM25.8733 21.7441C25.8942 21.7866 25.9065 21.833 25.9093 21.8804L26.3086 21.8568C26.3026 21.7562 26.2766 21.6577 26.232 21.5672L25.8733 21.7441ZM25.9093 21.881C25.9124 21.9307 25.9056 21.9806 25.8894 22.0276L26.2676 22.158C26.301 22.061 26.3149 21.9585 26.3085 21.8563L25.9093 21.881ZM25.8894 22.0276C25.8732 22.0747 25.8478 22.1181 25.8147 22.1554L26.114 22.4208C26.182 22.3442 26.2342 22.2548 26.2676 22.158L25.8894 22.0276ZM25.8147 22.1554C25.7817 22.1927 25.7416 22.2231 25.6968 22.2448L25.8714 22.6047C25.9636 22.56 26.046 22.4975 26.114 22.4208L25.8147 22.1554ZM25.6968 22.2448C25.652 22.2666 25.6033 22.2793 25.5536 22.2821L25.5768 22.6815C25.6791 22.6755 25.7792 22.6494 25.8714 22.6047L25.6968 22.2448ZM25.5652 22.2818C25.4174 22.2818 25.2936 22.3417 25.2089 22.4392C25.1278 22.5326 25.0906 22.6503 25.0877 22.761C25.0848 22.8715 25.1156 22.9904 25.1904 23.087C25.2688 23.1882 25.3884 23.2547 25.5352 23.2601L25.5498 22.8604C25.5229 22.8594 25.5132 22.8505 25.5066 22.842C25.4965 22.829 25.4867 22.8041 25.4876 22.7715C25.4884 22.7392 25.4994 22.7147 25.5108 22.7016C25.5186 22.6926 25.5317 22.6818 25.5652 22.6818V22.2818ZM25.8213 25.6394C26.5592 27.3343 27.2283 29.0992 27.8168 30.8303L28.1956 30.7015C27.604 28.9617 26.9311 27.1863 26.188 25.4797L25.8213 25.6394ZM27.8177 30.8328C27.9233 31.1304 28.2133 31.2116 28.4325 31.1529C28.5425 31.1234 28.6506 31.0563 28.7196 30.9487C28.7918 30.836 28.8094 30.6967 28.7634 30.5541L28.3828 30.6769C28.3946 30.7136 28.3862 30.7276 28.3829 30.7328C28.3763 30.743 28.3593 30.7584 28.329 30.7665C28.299 30.7745 28.2691 30.7718 28.2469 30.7618C28.2286 30.7535 28.2083 30.7375 28.1947 30.699L27.8177 30.8328ZM28.7626 30.5515C28.1475 28.7293 27.4514 26.9426 26.6976 25.1801L26.3298 25.3374C27.0802 27.092 27.7724 28.8688 28.3836 30.6795L28.7626 30.5515ZM26.6962 25.1769C26.6339 25.0378 26.5219 24.9478 26.3844 24.9247C26.2576 24.9033 26.1361 24.9431 26.0439 25.0015C25.8712 25.1106 25.6952 25.3663 25.8231 25.6434L26.1863 25.4757C26.1788 25.4596 26.1777 25.442 26.1882 25.4175C26.2002 25.3897 26.2253 25.36 26.2576 25.3396C26.2911 25.3184 26.3136 25.3184 26.3181 25.3191C26.3188 25.3192 26.3187 25.3193 26.3182 25.3191C26.3176 25.3188 26.3173 25.3185 26.3175 25.3187C26.3177 25.3189 26.3191 25.3201 26.3215 25.3232C26.3238 25.3263 26.3273 25.3318 26.3312 25.3405L26.6962 25.1769ZM29.0875 32.2284C29.0708 32.2451 29.0481 32.2545 29.0245 32.2545V32.6545C29.1542 32.6545 29.2786 32.603 29.3704 32.5112L29.0875 32.2284ZM29.0245 32.2545C29.0008 32.2545 28.9781 32.2451 28.9614 32.2284L28.6785 32.5112C28.7703 32.603 28.8947 32.6545 29.0245 32.6545V32.2545ZM28.9614 32.2284C28.9446 32.2116 28.9352 32.1889 28.9352 32.1653H28.5352C28.5352 32.2951 28.5868 32.4195 28.6785 32.5112L28.9614 32.2284ZM28.9352 32.1653C28.9352 32.1417 28.9446 32.1189 28.9614 32.1022L28.6785 31.8193C28.5868 31.9111 28.5352 32.0355 28.5352 32.1653H28.9352ZM28.9614 32.1022C28.9781 32.0854 29.0008 32.076 29.0245 32.076V31.676C28.8947 31.676 28.7703 31.7276 28.6785 31.8193L28.9614 32.1022ZM29.0245 32.076C29.0481 32.076 29.0708 32.0854 29.0875 32.1022L29.3704 31.8193C29.2786 31.7276 29.1542 31.676 29.0245 31.676V32.076ZM29.0875 32.1022C29.1043 32.1189 29.1137 32.1417 29.1137 32.1653H29.5137C29.5137 32.0355 29.4621 31.9111 29.3704 31.8193L29.0875 32.1022ZM29.1137 32.1653C29.1137 32.1889 29.1043 32.2116 29.0875 32.2284L29.3704 32.5112C29.4621 32.4195 29.5137 32.2951 29.5137 32.1653H29.1137Z" fill="white" mask="url(#path-2-outside-1_0_92)"/>
</svg>
