<svg width="50" height="51" viewBox="0 0 50 51" fill="none" xmlns="http://www.w3.org/2000/svg">
<path fill-rule="evenodd" clip-rule="evenodd" d="M25 49.4691C38.2378 49.4691 48.9691 38.7378 48.9691 25.5C48.9691 12.2622 38.2378 1.53093 25 1.53093C11.7622 1.53093 1.03093 12.2622 1.03093 25.5C1.03093 38.7378 11.7622 49.4691 25 49.4691ZM25 50.5C38.8071 50.5 50 39.3071 50 25.5C50 11.6929 38.8071 0.5 25 0.5C11.1929 0.5 0 11.6929 0 25.5C0 39.3071 11.1929 50.5 25 50.5Z" fill="white"/>
<mask id="path-2-outside-1_0_113" maskUnits="userSpaceOnUse" x="11.1133" y="12.9021" width="28" height="27" fill="black">
<rect fill="white" x="11.1133" y="12.9021" width="28" height="27"/>
<path d="M20.7503 18.1705C19.5715 19.0398 18.6445 20.2074 18.0643 21.5536C17.9265 21.8987 17.375 21.7492 17.5129 21.404C18.1278 19.9365 19.127 18.6626 20.4049 17.7168C21.6828 16.771 23.192 16.1885 24.7732 16.0307C25.1408 15.9961 25.1408 16.606 24.7732 16.606C23.3175 16.7612 21.9291 17.3011 20.7503 18.1705Z"/>
<path d="M27.2318 16.7673C27.3079 16.7673 27.381 16.737 27.4348 16.6831C27.4887 16.6291 27.5189 16.556 27.5189 16.4797C27.5189 16.4034 27.4887 16.3302 27.4348 16.2763C27.381 16.2223 27.3079 16.192 27.2318 16.192C27.1556 16.192 27.0825 16.2223 27.0287 16.2763C26.9748 16.3302 26.9446 16.4034 26.9446 16.4797C26.9446 16.556 26.9748 16.6291 27.0287 16.6831C27.0825 16.737 27.1556 16.7673 27.2318 16.7673Z"/>
<path fill-rule="evenodd" clip-rule="evenodd" d="M25.1296 27.6148C25.5321 27.2924 26.0107 27.0792 26.5193 26.996L26.4734 26.95C26.5258 26.9382 26.574 26.9403 26.6168 26.9527C26.5503 26.7822 26.6396 26.5358 26.8755 26.5358C27.5012 26.5203 28.1076 26.7538 28.5619 27.185C29.0162 27.6163 29.2814 28.2103 29.2994 28.837C29.3233 29.3838 29.1994 29.9269 28.9405 30.4089C28.6817 30.891 28.2976 31.294 27.829 31.5754C27.3894 31.8937 26.8555 32.0544 26.3136 32.0314C25.7717 32.0084 25.2533 31.8032 24.8421 31.4489C24.4999 31.1187 24.2595 30.6971 24.1495 30.2341C24.0396 29.771 24.0646 29.2862 24.2218 28.837C24.4145 28.3582 24.7272 27.9373 25.1296 27.6148ZM26.7944 27.1058C26.8713 27.2564 26.8356 27.4623 26.6227 27.5023C26.1845 27.5742 25.7745 27.7658 25.438 28.0561C25.1016 28.3465 24.8516 28.7242 24.7158 29.1477C24.6238 29.5011 24.6355 29.8737 24.7496 30.2206C24.8637 30.5676 25.0753 30.8742 25.3591 31.1037C25.7261 31.3349 26.1589 31.4388 26.5907 31.3993C27.0225 31.3597 27.4294 31.1791 27.7485 30.8851C28.1041 30.6271 28.3814 30.2755 28.5497 29.8693C28.718 29.4631 28.7707 29.0182 28.702 28.5839C28.6273 28.1585 28.4009 27.7747 28.065 27.5038C27.729 27.233 27.3064 27.0934 26.8755 27.1111C26.8461 27.1129 26.8191 27.1109 26.7944 27.1058Z"/>
<path fill-rule="evenodd" clip-rule="evenodd" d="M37.1684 28.676C37.6509 24.4763 36.7778 19.9659 33.7221 16.9053C30.6664 13.8446 26.0483 13.5915 21.9242 14.1208C19.7616 14.2966 17.7104 15.1547 16.0654 16.5716C15.9421 16.6848 15.9567 16.8278 16.034 16.9288C14.8579 18.0756 13.9116 19.4421 13.2509 20.9551C12.9013 21.8195 12.7667 22.756 12.8587 23.6841C12.9496 24.5999 13.2584 25.4803 13.7591 26.2515C13.7795 26.4101 13.9104 26.5482 14.1012 26.4781H14.1127C14.9271 26.1679 15.7604 25.9145 16.6069 25.719C16.6075 25.7409 16.6107 25.764 16.6169 25.7879V25.7419C16.9396 27.0106 17.2143 28.2903 17.4405 29.5782C15.6572 30.1678 13.9343 30.9328 12.2973 31.8633C12.2398 31.9052 12.1998 31.9669 12.1852 32.0366C12.175 32.0849 12.1775 32.1347 12.1919 32.1811C12.1871 32.2004 12.1839 32.2209 12.1825 32.2427C12.0367 34.4814 12.1214 36.7293 12.4352 38.9507C12.4352 39.1562 12.6213 39.1968 12.7777 39.1306C12.7895 39.1326 12.8018 39.134 12.8145 39.1348C13.9697 39.2059 15.1238 38.9799 16.1673 38.4785C17.2108 37.9771 18.109 37.2168 18.7766 36.2698C18.8651 36.1368 18.8253 36.0081 18.7336 35.9287C18.6936 35.1637 18.637 34.3999 18.5639 33.638L20.4539 33.4625C20.8215 33.4625 20.8215 32.8526 20.4539 32.8872L18.506 33.0681C18.3955 32.0351 18.2546 31.0057 18.0834 29.9812C18.7507 29.7704 19.4264 29.5845 20.109 29.424C20.1741 29.4093 20.2223 29.3788 20.2554 29.3393L20.2701 29.4698C20.3514 30.776 20.5203 32.0753 20.7755 33.3589C21.0077 34.3063 21.5125 35.1646 22.2272 35.8273C22.942 36.49 23.8352 36.928 24.7962 37.0868C26.9904 37.432 28.9203 36.0743 30.5401 34.7856C31.2773 34.1677 32.0067 33.5406 32.7322 32.9092L34.1587 34.2793C34.1855 34.305 34.2165 34.3252 34.25 34.3393C34.3512 34.4368 34.5125 34.4717 34.6411 34.3485L37.8003 31.3799C37.9499 31.2366 37.8859 31.0454 37.7522 30.9523L36.952 29.2106C36.9629 29.2011 36.9738 29.1916 36.9847 29.1822C37.1009 29.0804 37.0947 28.9479 37.028 28.8468C37.0784 28.8015 37.1144 28.7368 37.1225 28.6529L37.1684 28.676ZM36.5047 29.5998C35.9122 30.1168 35.3217 30.6365 34.7311 31.1564C34.2092 31.6157 33.6872 32.0751 33.1636 32.5328L34.4374 33.7479L37.2126 31.1408L36.5047 29.5998ZM32.6264 32.221L36.5697 28.7693C36.5559 28.7359 36.5481 28.6972 36.5481 28.6529C37.111 23.6708 35.6635 18.0444 30.9076 15.6166C28.5038 14.592 25.8701 14.2304 23.2797 14.5695C21.181 14.5594 19.1343 15.1664 17.3882 16.3028C17.4111 16.3869 17.3923 16.4807 17.3061 16.5598C15.8402 17.7497 14.662 19.2562 13.8597 20.9666C13.4997 21.7702 13.3498 22.6524 13.4241 23.53C13.4936 24.3499 13.7566 25.1405 14.1904 25.8373C16.0115 25.1747 17.9209 24.7857 19.8566 24.6832C19.9406 24.6779 20.0055 24.7051 20.0511 24.7502C20.2163 24.7218 20.4194 24.8129 20.4194 25.017C20.5154 25.8634 20.5986 26.7138 20.6818 27.5645C20.8475 29.2579 21.0133 30.9529 21.281 32.6225C21.3916 33.66 21.859 34.6268 22.6029 35.3572C23.3469 36.0877 24.3212 36.5364 25.3591 36.6266C27.475 36.7325 29.1914 35.2284 30.7147 33.8935L30.7154 33.8929C30.8459 33.7786 30.9752 33.6652 31.103 33.5545L32.4508 32.3747C32.4648 32.3444 32.4842 32.3165 32.5082 32.2924C32.5414 32.2591 32.5821 32.2348 32.6264 32.221ZM17.5392 30.1592C17.7005 31.1423 17.8337 32.1299 17.9386 33.1208L12.694 33.6081C12.7048 33.1707 12.7246 32.7335 12.7533 32.2966C14.2801 31.4352 15.8826 30.72 17.5392 30.1592ZM17.9957 33.6908L12.6849 34.1842C12.6749 35.6491 12.7651 37.1136 12.9552 38.5674C13.9615 38.6122 14.9643 38.4109 15.8767 37.98C16.7795 37.5536 17.5654 36.9156 18.1686 36.1212C18.168 36.1134 18.1677 36.1055 18.1677 36.0974C18.1289 35.2936 18.0715 34.4912 17.9957 33.6908ZM20.2101 28.9344L19.7985 25.2617C18.91 25.3129 18.0275 25.4263 17.1573 25.6004C17.1616 25.6123 17.1653 25.625 17.1683 25.6384C17.486 26.8841 17.758 28.1404 17.9837 29.4046C18.6351 29.2036 19.2942 29.0258 19.9596 28.8717C20.0629 28.8483 20.1488 28.8782 20.2101 28.9344Z"/>
</mask>
<path d="M20.7503 18.1705C19.5715 19.0398 18.6445 20.2074 18.0643 21.5536C17.9265 21.8987 17.375 21.7492 17.5129 21.404C18.1278 19.9365 19.127 18.6626 20.4049 17.7168C21.6828 16.771 23.192 16.1885 24.7732 16.0307C25.1408 15.9961 25.1408 16.606 24.7732 16.606C23.3175 16.7612 21.9291 17.3011 20.7503 18.1705Z" fill="white"/>
<path d="M27.2318 16.7673C27.3079 16.7673 27.381 16.737 27.4348 16.6831C27.4887 16.6291 27.5189 16.556 27.5189 16.4797C27.5189 16.4034 27.4887 16.3302 27.4348 16.2763C27.381 16.2223 27.3079 16.192 27.2318 16.192C27.1556 16.192 27.0825 16.2223 27.0287 16.2763C26.9748 16.3302 26.9446 16.4034 26.9446 16.4797C26.9446 16.556 26.9748 16.6291 27.0287 16.6831C27.0825 16.737 27.1556 16.7673 27.2318 16.7673Z" fill="white"/>
<path fill-rule="evenodd" clip-rule="evenodd" d="M25.1296 27.6148C25.5321 27.2924 26.0107 27.0792 26.5193 26.996L26.4734 26.95C26.5258 26.9382 26.574 26.9403 26.6168 26.9527C26.5503 26.7822 26.6396 26.5358 26.8755 26.5358C27.5012 26.5203 28.1076 26.7538 28.5619 27.185C29.0162 27.6163 29.2814 28.2103 29.2994 28.837C29.3233 29.3838 29.1994 29.9269 28.9405 30.4089C28.6817 30.891 28.2976 31.294 27.829 31.5754C27.3894 31.8937 26.8555 32.0544 26.3136 32.0314C25.7717 32.0084 25.2533 31.8032 24.8421 31.4489C24.4999 31.1187 24.2595 30.6971 24.1495 30.2341C24.0396 29.771 24.0646 29.2862 24.2218 28.837C24.4145 28.3582 24.7272 27.9373 25.1296 27.6148ZM26.7944 27.1058C26.8713 27.2564 26.8356 27.4623 26.6227 27.5023C26.1845 27.5742 25.7745 27.7658 25.438 28.0561C25.1016 28.3465 24.8516 28.7242 24.7158 29.1477C24.6238 29.5011 24.6355 29.8737 24.7496 30.2206C24.8637 30.5676 25.0753 30.8742 25.3591 31.1037C25.7261 31.3349 26.1589 31.4388 26.5907 31.3993C27.0225 31.3597 27.4294 31.1791 27.7485 30.8851C28.1041 30.6271 28.3814 30.2755 28.5497 29.8693C28.718 29.4631 28.7707 29.0182 28.702 28.5839C28.6273 28.1585 28.4009 27.7747 28.065 27.5038C27.729 27.233 27.3064 27.0934 26.8755 27.1111C26.8461 27.1129 26.8191 27.1109 26.7944 27.1058Z" fill="white"/>
<path fill-rule="evenodd" clip-rule="evenodd" d="M37.1684 28.676C37.6509 24.4763 36.7778 19.9659 33.7221 16.9053C30.6664 13.8446 26.0483 13.5915 21.9242 14.1208C19.7616 14.2966 17.7104 15.1547 16.0654 16.5716C15.9421 16.6848 15.9567 16.8278 16.034 16.9288C14.8579 18.0756 13.9116 19.4421 13.2509 20.9551C12.9013 21.8195 12.7667 22.756 12.8587 23.6841C12.9496 24.5999 13.2584 25.4803 13.7591 26.2515C13.7795 26.4101 13.9104 26.5482 14.1012 26.4781H14.1127C14.9271 26.1679 15.7604 25.9145 16.6069 25.719C16.6075 25.7409 16.6107 25.764 16.6169 25.7879V25.7419C16.9396 27.0106 17.2143 28.2903 17.4405 29.5782C15.6572 30.1678 13.9343 30.9328 12.2973 31.8633C12.2398 31.9052 12.1998 31.9669 12.1852 32.0366C12.175 32.0849 12.1775 32.1347 12.1919 32.1811C12.1871 32.2004 12.1839 32.2209 12.1825 32.2427C12.0367 34.4814 12.1214 36.7293 12.4352 38.9507C12.4352 39.1562 12.6213 39.1968 12.7777 39.1306C12.7895 39.1326 12.8018 39.134 12.8145 39.1348C13.9697 39.2059 15.1238 38.9799 16.1673 38.4785C17.2108 37.9771 18.109 37.2168 18.7766 36.2698C18.8651 36.1368 18.8253 36.0081 18.7336 35.9287C18.6936 35.1637 18.637 34.3999 18.5639 33.638L20.4539 33.4625C20.8215 33.4625 20.8215 32.8526 20.4539 32.8872L18.506 33.0681C18.3955 32.0351 18.2546 31.0057 18.0834 29.9812C18.7507 29.7704 19.4264 29.5845 20.109 29.424C20.1741 29.4093 20.2223 29.3788 20.2554 29.3393L20.2701 29.4698C20.3514 30.776 20.5203 32.0753 20.7755 33.3589C21.0077 34.3063 21.5125 35.1646 22.2272 35.8273C22.942 36.49 23.8352 36.928 24.7962 37.0868C26.9904 37.432 28.9203 36.0743 30.5401 34.7856C31.2773 34.1677 32.0067 33.5406 32.7322 32.9092L34.1587 34.2793C34.1855 34.305 34.2165 34.3252 34.25 34.3393C34.3512 34.4368 34.5125 34.4717 34.6411 34.3485L37.8003 31.3799C37.9499 31.2366 37.8859 31.0454 37.7522 30.9523L36.952 29.2106C36.9629 29.2011 36.9738 29.1916 36.9847 29.1822C37.1009 29.0804 37.0947 28.9479 37.028 28.8468C37.0784 28.8015 37.1144 28.7368 37.1225 28.6529L37.1684 28.676ZM36.5047 29.5998C35.9122 30.1168 35.3217 30.6365 34.7311 31.1564C34.2092 31.6157 33.6872 32.0751 33.1636 32.5328L34.4374 33.7479L37.2126 31.1408L36.5047 29.5998ZM32.6264 32.221L36.5697 28.7693C36.5559 28.7359 36.5481 28.6972 36.5481 28.6529C37.111 23.6708 35.6635 18.0444 30.9076 15.6166C28.5038 14.592 25.8701 14.2304 23.2797 14.5695C21.181 14.5594 19.1343 15.1664 17.3882 16.3028C17.4111 16.3869 17.3923 16.4807 17.3061 16.5598C15.8402 17.7497 14.662 19.2562 13.8597 20.9666C13.4997 21.7702 13.3498 22.6524 13.4241 23.53C13.4936 24.3499 13.7566 25.1405 14.1904 25.8373C16.0115 25.1747 17.9209 24.7857 19.8566 24.6832C19.9406 24.6779 20.0055 24.7051 20.0511 24.7502C20.2163 24.7218 20.4194 24.8129 20.4194 25.017C20.5154 25.8634 20.5986 26.7138 20.6818 27.5645C20.8475 29.2579 21.0133 30.9529 21.281 32.6225C21.3916 33.66 21.859 34.6268 22.6029 35.3572C23.3469 36.0877 24.3212 36.5364 25.3591 36.6266C27.475 36.7325 29.1914 35.2284 30.7147 33.8935L30.7154 33.8929C30.8459 33.7786 30.9752 33.6652 31.103 33.5545L32.4508 32.3747C32.4648 32.3444 32.4842 32.3165 32.5082 32.2924C32.5414 32.2591 32.5821 32.2348 32.6264 32.221ZM17.5392 30.1592C17.7005 31.1423 17.8337 32.1299 17.9386 33.1208L12.694 33.6081C12.7048 33.1707 12.7246 32.7335 12.7533 32.2966C14.2801 31.4352 15.8826 30.72 17.5392 30.1592ZM17.9957 33.6908L12.6849 34.1842C12.6749 35.6491 12.7651 37.1136 12.9552 38.5674C13.9615 38.6122 14.9643 38.4109 15.8767 37.98C16.7795 37.5536 17.5654 36.9156 18.1686 36.1212C18.168 36.1134 18.1677 36.1055 18.1677 36.0974C18.1289 35.2936 18.0715 34.4912 17.9957 33.6908ZM20.2101 28.9344L19.7985 25.2617C18.91 25.3129 18.0275 25.4263 17.1573 25.6004C17.1616 25.6123 17.1653 25.625 17.1683 25.6384C17.486 26.8841 17.758 28.1404 17.9837 29.4046C18.6351 29.2036 19.2942 29.0258 19.9596 28.8717C20.0629 28.8483 20.1488 28.8782 20.2101 28.9344Z" fill="white"/>
<path d="M20.7503 18.1705C19.5715 19.0398 18.6445 20.2074 18.0643 21.5536C17.9265 21.8987 17.375 21.7492 17.5129 21.404C18.1278 19.9365 19.127 18.6626 20.4049 17.7168C21.6828 16.771 23.192 16.1885 24.7732 16.0307C25.1408 15.9961 25.1408 16.606 24.7732 16.606C23.3175 16.7612 21.9291 17.3011 20.7503 18.1705Z" stroke="white" stroke-width="0.905082" stroke-linejoin="round" mask="url(#path-2-outside-1_0_113)"/>
<path d="M27.2318 16.7673C27.3079 16.7673 27.381 16.737 27.4348 16.6831C27.4887 16.6291 27.5189 16.556 27.5189 16.4797C27.5189 16.4034 27.4887 16.3302 27.4348 16.2763C27.381 16.2223 27.3079 16.192 27.2318 16.192C27.1556 16.192 27.0825 16.2223 27.0287 16.2763C26.9748 16.3302 26.9446 16.4034 26.9446 16.4797C26.9446 16.556 26.9748 16.6291 27.0287 16.6831C27.0825 16.737 27.1556 16.7673 27.2318 16.7673Z" stroke="white" stroke-width="0.905082" stroke-linejoin="round" mask="url(#path-2-outside-1_0_113)"/>
<path fill-rule="evenodd" clip-rule="evenodd" d="M25.1296 27.6148C25.5321 27.2924 26.0107 27.0792 26.5193 26.996L26.4734 26.95C26.5258 26.9382 26.574 26.9403 26.6168 26.9527C26.5503 26.7822 26.6396 26.5358 26.8755 26.5358C27.5012 26.5203 28.1076 26.7538 28.5619 27.185C29.0162 27.6163 29.2814 28.2103 29.2994 28.837C29.3233 29.3838 29.1994 29.9269 28.9405 30.4089C28.6817 30.891 28.2976 31.294 27.829 31.5754C27.3894 31.8937 26.8555 32.0544 26.3136 32.0314C25.7717 32.0084 25.2533 31.8032 24.8421 31.4489C24.4999 31.1187 24.2595 30.6971 24.1495 30.2341C24.0396 29.771 24.0646 29.2862 24.2218 28.837C24.4145 28.3582 24.7272 27.9373 25.1296 27.6148ZM26.7944 27.1058C26.8713 27.2564 26.8356 27.4623 26.6227 27.5023C26.1845 27.5742 25.7745 27.7658 25.438 28.0561C25.1016 28.3465 24.8516 28.7242 24.7158 29.1477C24.6238 29.5011 24.6355 29.8737 24.7496 30.2206C24.8637 30.5676 25.0753 30.8742 25.3591 31.1037C25.7261 31.3349 26.1589 31.4388 26.5907 31.3993C27.0225 31.3597 27.4294 31.1791 27.7485 30.8851C28.1041 30.6271 28.3814 30.2755 28.5497 29.8693C28.718 29.4631 28.7707 29.0182 28.702 28.5839C28.6273 28.1585 28.4009 27.7747 28.065 27.5038C27.729 27.233 27.3064 27.0934 26.8755 27.1111C26.8461 27.1129 26.8191 27.1109 26.7944 27.1058Z" stroke="white" stroke-width="0.905082" stroke-linejoin="round" mask="url(#path-2-outside-1_0_113)"/>
<path fill-rule="evenodd" clip-rule="evenodd" d="M37.1684 28.676C37.6509 24.4763 36.7778 19.9659 33.7221 16.9053C30.6664 13.8446 26.0483 13.5915 21.9242 14.1208C19.7616 14.2966 17.7104 15.1547 16.0654 16.5716C15.9421 16.6848 15.9567 16.8278 16.034 16.9288C14.8579 18.0756 13.9116 19.4421 13.2509 20.9551C12.9013 21.8195 12.7667 22.756 12.8587 23.6841C12.9496 24.5999 13.2584 25.4803 13.7591 26.2515C13.7795 26.4101 13.9104 26.5482 14.1012 26.4781H14.1127C14.9271 26.1679 15.7604 25.9145 16.6069 25.719C16.6075 25.7409 16.6107 25.764 16.6169 25.7879V25.7419C16.9396 27.0106 17.2143 28.2903 17.4405 29.5782C15.6572 30.1678 13.9343 30.9328 12.2973 31.8633C12.2398 31.9052 12.1998 31.9669 12.1852 32.0366C12.175 32.0849 12.1775 32.1347 12.1919 32.1811C12.1871 32.2004 12.1839 32.2209 12.1825 32.2427C12.0367 34.4814 12.1214 36.7293 12.4352 38.9507C12.4352 39.1562 12.6213 39.1968 12.7777 39.1306C12.7895 39.1326 12.8018 39.134 12.8145 39.1348C13.9697 39.2059 15.1238 38.9799 16.1673 38.4785C17.2108 37.9771 18.109 37.2168 18.7766 36.2698C18.8651 36.1368 18.8253 36.0081 18.7336 35.9287C18.6936 35.1637 18.637 34.3999 18.5639 33.638L20.4539 33.4625C20.8215 33.4625 20.8215 32.8526 20.4539 32.8872L18.506 33.0681C18.3955 32.0351 18.2546 31.0057 18.0834 29.9812C18.7507 29.7704 19.4264 29.5845 20.109 29.424C20.1741 29.4093 20.2223 29.3788 20.2554 29.3393L20.2701 29.4698C20.3514 30.776 20.5203 32.0753 20.7755 33.3589C21.0077 34.3063 21.5125 35.1646 22.2272 35.8273C22.942 36.49 23.8352 36.928 24.7962 37.0868C26.9904 37.432 28.9203 36.0743 30.5401 34.7856C31.2773 34.1677 32.0067 33.5406 32.7322 32.9092L34.1587 34.2793C34.1855 34.305 34.2165 34.3252 34.25 34.3393C34.3512 34.4368 34.5125 34.4717 34.6411 34.3485L37.8003 31.3799C37.9499 31.2366 37.8859 31.0454 37.7522 30.9523L36.952 29.2106C36.9629 29.2011 36.9738 29.1916 36.9847 29.1822C37.1009 29.0804 37.0947 28.9479 37.028 28.8468C37.0784 28.8015 37.1144 28.7368 37.1225 28.6529L37.1684 28.676ZM36.5047 29.5998C35.9122 30.1168 35.3217 30.6365 34.7311 31.1564C34.2092 31.6157 33.6872 32.0751 33.1636 32.5328L34.4374 33.7479L37.2126 31.1408L36.5047 29.5998ZM32.6264 32.221L36.5697 28.7693C36.5559 28.7359 36.5481 28.6972 36.5481 28.6529C37.111 23.6708 35.6635 18.0444 30.9076 15.6166C28.5038 14.592 25.8701 14.2304 23.2797 14.5695C21.181 14.5594 19.1343 15.1664 17.3882 16.3028C17.4111 16.3869 17.3923 16.4807 17.3061 16.5598C15.8402 17.7497 14.662 19.2562 13.8597 20.9666C13.4997 21.7702 13.3498 22.6524 13.4241 23.53C13.4936 24.3499 13.7566 25.1405 14.1904 25.8373C16.0115 25.1747 17.9209 24.7857 19.8566 24.6832C19.9406 24.6779 20.0055 24.7051 20.0511 24.7502C20.2163 24.7218 20.4194 24.8129 20.4194 25.017C20.5154 25.8634 20.5986 26.7138 20.6818 27.5645C20.8475 29.2579 21.0133 30.9529 21.281 32.6225C21.3916 33.66 21.859 34.6268 22.6029 35.3572C23.3469 36.0877 24.3212 36.5364 25.3591 36.6266C27.475 36.7325 29.1914 35.2284 30.7147 33.8935L30.7154 33.8929C30.8459 33.7786 30.9752 33.6652 31.103 33.5545L32.4508 32.3747C32.4648 32.3444 32.4842 32.3165 32.5082 32.2924C32.5414 32.2591 32.5821 32.2348 32.6264 32.221ZM17.5392 30.1592C17.7005 31.1423 17.8337 32.1299 17.9386 33.1208L12.694 33.6081C12.7048 33.1707 12.7246 32.7335 12.7533 32.2966C14.2801 31.4352 15.8826 30.72 17.5392 30.1592ZM17.9957 33.6908L12.6849 34.1842C12.6749 35.6491 12.7651 37.1136 12.9552 38.5674C13.9615 38.6122 14.9643 38.4109 15.8767 37.98C16.7795 37.5536 17.5654 36.9156 18.1686 36.1212C18.168 36.1134 18.1677 36.1055 18.1677 36.0974C18.1289 35.2936 18.0715 34.4912 17.9957 33.6908ZM20.2101 28.9344L19.7985 25.2617C18.91 25.3129 18.0275 25.4263 17.1573 25.6004C17.1616 25.6123 17.1653 25.625 17.1683 25.6384C17.486 26.8841 17.758 28.1404 17.9837 29.4046C18.6351 29.2036 19.2942 29.0258 19.9596 28.8717C20.0629 28.8483 20.1488 28.8782 20.2101 28.9344Z" stroke="white" stroke-width="0.905082" stroke-linejoin="round" mask="url(#path-2-outside-1_0_113)"/>
</svg>
