<svg width="50" height="51" viewBox="0 0 50 51" fill="none" xmlns="http://www.w3.org/2000/svg">
<path fill-rule="evenodd" clip-rule="evenodd" d="M25 49.4691C38.2378 49.4691 48.9691 38.7378 48.9691 25.5C48.9691 12.2622 38.2378 1.53093 25 1.53093C11.7622 1.53093 1.03093 12.2622 1.03093 25.5C1.03093 38.7378 11.7622 49.4691 25 49.4691ZM25 50.5C38.8071 50.5 50 39.3071 50 25.5C50 11.6929 38.8071 0.5 25 0.5C11.1929 0.5 0 11.6929 0 25.5C0 39.3071 11.1929 50.5 25 50.5Z" fill="white"/>
<path d="M22.0623 32.1335C22.0631 32.1412 22.0641 32.1489 22.0654 32.1565C22.0716 32.1943 22.0984 32.2242 22.1332 32.2355C22.1753 32.7024 22.1063 33.173 21.9311 33.6095C21.7458 34.0715 21.4474 34.4809 21.0624 34.801L19.3338 34.7905H19.3331C19.2101 34.7905 19.1106 34.8381 19.043 34.9151C18.9771 34.9902 18.9465 35.0873 18.9465 35.1812C18.9465 35.2751 18.9771 35.3724 19.0422 35.4485C19.1087 35.5264 19.2072 35.5769 19.3301 35.5807L19.3301 35.5807L19.3325 35.5808L31.0133 35.6516H31.0139C31.1192 35.6516 31.2205 35.6102 31.2953 35.5363C31.3702 35.4622 31.4124 35.3616 31.4124 35.2565C31.4124 35.1513 31.3703 35.0507 31.2953 34.9766C31.2206 34.9027 31.1194 34.8614 31.0142 34.8613L31.0145 34.8613L31.0139 34.9613V34.8613L22.0623 32.1335ZM22.0623 32.1335C19.3849 32.1704 16.7065 32.1548 14.0287 32.0867L22.0623 32.1335ZM29.3971 34.8515L29.3914 34.8471C28.9716 34.5201 28.6446 34.0914 28.442 33.6028C28.2401 33.1159 28.1685 32.5859 28.2341 32.0639M29.3971 34.8515L14.4148 15.5241M29.3971 34.8515L29.388 34.8515L29.3534 34.8513L29.3531 34.8963L29.3531 34.9026L29.3528 34.9513M29.3971 34.8515L29.4008 34.8544L29.4003 34.8549C29.4111 34.8656 29.4212 34.8768 29.4307 34.8885L29.3528 34.9513M28.2341 32.0639C28.2426 32.0279 28.2459 31.9912 28.2441 31.9549M28.2341 32.0639C28.2336 32.066 28.2331 32.0681 28.2326 32.0703L28.1356 32.0457M28.2341 32.0639C28.2344 32.062 28.2346 32.0602 28.2348 32.0583L28.1356 32.0457M28.2441 31.9549C30.8514 31.8401 33.4566 31.6754 36.0583 31.461M28.2441 31.9549C28.2425 31.9212 28.2365 31.8878 28.2262 31.8555L29.3528 34.9513M28.2441 31.9549C28.2108 31.9563 28.1775 31.9578 28.1442 31.9592C28.1457 31.9881 28.1429 32.0172 28.1356 32.0457M36.0583 31.461C36.2718 31.459 36.3959 31.3083 36.4301 31.1505C36.4594 31.0155 36.4279 30.8496 36.3121 30.7504C36.0248 25.7527 35.9363 20.7512 36.0465 15.7458L36.0465 15.7458V15.7436C36.0465 15.6385 36.0044 15.5378 35.9294 15.4638L35.9294 15.4638C35.8546 15.3898 35.7533 15.3485 35.648 15.3485C35.6013 15.3485 35.5554 15.3566 35.5123 15.3721L14.5799 15.4901C14.5798 15.4901 14.5797 15.4901 14.5796 15.4901L14.5794 15.4901L14.5799 15.5901M36.0583 31.461C36.0568 31.461 36.0554 31.461 36.0539 31.461V31.361L36.0621 31.4607C36.0609 31.4608 36.0596 31.4609 36.0583 31.461ZM14.5799 15.5901C14.5193 15.5901 14.4683 15.6052 14.427 15.6306M14.5799 15.5901L35.5169 15.472L14.5799 15.5901ZM14.427 15.6306L14.4571 15.5353C14.4433 15.5309 14.4292 15.5272 14.4148 15.5241M14.427 15.6306L14.3746 15.5454C14.3875 15.5375 14.4009 15.5304 14.4148 15.5241M14.427 15.6306C14.2449 15.5731 14.0081 15.6618 14.0304 15.897M14.4148 15.5241C14.3107 15.5019 14.1962 15.5147 14.1032 15.5668C13.9916 15.6294 13.9161 15.7468 13.9308 15.9054M14.0304 15.897L13.9307 15.9046C13.9307 15.9048 13.9307 15.9051 13.9308 15.9054M14.0304 15.897L13.9308 15.9064C13.9308 15.9061 13.9308 15.9057 13.9308 15.9054M14.0304 15.897L13.9308 15.9054M28.1356 32.0457C28.0666 32.5868 28.1403 33.1364 28.3496 33.6411C28.5589 34.1458 28.8966 34.5884 29.33 34.926C29.3381 34.934 29.3457 34.9425 29.3528 34.9513M35.4184 28.9745C35.4093 28.988 35.3993 29.001 35.3882 29.0133C35.3204 29.0893 35.221 29.1356 35.0987 29.1356H35.0937L35.0937 29.1355C28.3335 28.8004 21.5605 28.8004 14.8002 29.1355M35.4184 28.9745L14.6272 28.9949C14.671 29.0239 14.7268 29.0398 14.7947 29.0356L14.7997 29.1355C14.7998 29.1355 14.8 29.1355 14.8002 29.1355M35.4184 28.9745C35.4469 29.5544 35.4782 30.1344 35.5122 30.7144C28.4837 31.2754 21.4303 31.4725 14.3809 31.305M35.4184 28.9745L14.3809 31.305M14.8002 29.1355C14.7307 29.1397 14.6694 29.1275 14.6172 29.1034C14.5488 29.8381 14.4701 30.5721 14.3809 31.305M14.8002 29.1355L14.3809 31.305M19.3331 34.8905C18.951 34.8905 18.951 35.4689 19.3331 35.4808L31.0139 35.5516L19.3331 34.8905ZM22.1257 34.8075C22.3506 34.5083 22.5304 34.1769 22.6582 33.8232C22.8553 33.2777 22.9228 32.6953 22.8565 32.121C24.4033 32.0937 25.9497 32.0488 27.4954 31.9864C27.4148 32.6058 27.4867 33.2358 27.7055 33.8226C27.843 34.1913 28.0359 34.5357 28.2762 34.8447L22.1257 34.8075ZM35.1048 28.3456L35.1036 28.3455C28.3374 28.0101 21.5583 28.0101 14.7921 28.3454C14.753 28.3456 14.7165 28.3509 14.6827 28.3604C15.018 24.3424 15.0427 20.3037 14.756 16.2793L35.2399 16.1638C35.1524 20.2698 35.2042 24.3783 35.3952 28.4894C35.3318 28.4105 35.2349 28.3536 35.1048 28.3456Z" fill="white" stroke="white" stroke-width="0.2" stroke-linejoin="round"/>
</svg>
