<svg width="50" height="51" viewBox="0 0 50 51" fill="none" xmlns="http://www.w3.org/2000/svg">
<path fill-rule="evenodd" clip-rule="evenodd" d="M25 49.4691C38.2378 49.4691 48.9691 38.7378 48.9691 25.5C48.9691 12.2622 38.2378 1.53093 25 1.53093C11.7622 1.53093 1.03093 12.2622 1.03093 25.5C1.03093 38.7378 11.7622 49.4691 25 49.4691ZM25 50.5C38.8071 50.5 50 39.3071 50 25.5C50 11.6929 38.8071 0.5 25 0.5C11.1929 0.5 0 11.6929 0 25.5C0 39.3071 11.1929 50.5 25 50.5Z" fill="white"/>
<path d="M14.8752 24.4192L14.9094 24.3252C14.9094 24.3252 14.9094 24.3252 14.9095 24.3253C15.433 24.5152 15.9921 24.5883 16.5471 24.5392C17.102 24.4901 17.6394 24.3201 18.1211 24.0414C18.5968 23.76 19.0078 23.382 19.3271 22.9319C19.6466 22.4816 19.8672 21.9694 19.9748 21.4285L19.9763 21.4205L19.9767 21.4206C20.0866 21.0343 20.2893 20.6058 20.5719 20.2744C20.8543 19.9434 21.2267 19.6986 21.6731 19.711C22.1166 19.7233 22.4612 19.9664 22.7257 20.2678C22.9895 20.5685 23.1828 20.9376 23.3237 21.2241C24.0328 22.6376 24.7305 24.0549 25.4276 25.4712L25.4278 25.4715C25.9253 26.4823 26.4226 27.4925 26.9237 28.5008C26.9252 28.5037 26.9265 28.5066 26.9276 28.5096C26.9282 28.5113 26.9288 28.5129 26.9294 28.5146C27.1022 29.0499 27.3646 29.5521 27.7054 30.0002C27.8535 30.1203 27.9954 30.1804 28.127 30.1985C28.261 30.2169 28.3909 30.1926 28.5139 30.1341C28.763 30.0156 28.9827 29.7573 29.1286 29.4448L29.129 29.4442C29.391 28.8941 29.524 28.3002 29.6596 27.6923L29.6608 27.6873C29.7918 27.1002 29.9257 26.5002 30.1853 25.9373C30.5377 25.1047 31.2026 24.4423 32.0381 24.0916L32.05 24.0865L32.0503 24.0873C33.0058 23.8243 34.0118 23.8089 34.9733 24.0411C35.0042 20.8932 35.1686 17.7464 35.4663 14.6092L14.6164 24.345C14.6469 24.3269 14.6805 24.3139 14.7164 24.3069V24.4097C14.7624 24.3963 14.8159 24.3975 14.8752 24.4192ZM14.8752 24.4192C15.4126 24.6142 15.9863 24.6892 16.5559 24.6388C17.1255 24.5884 17.6771 24.4139 18.1716 24.1277L14.8752 24.4192ZM14.9089 14.0039C14.9088 14.0039 14.9086 14.0039 14.9085 14.0039L36.0706 35.5633C36.1905 35.5633 36.2861 35.5135 36.3501 35.4364C36.4121 35.3615 36.4406 35.2658 36.4406 35.1746C36.4406 35.0835 36.4121 34.988 36.3484 34.915C36.2991 34.8586 36.2321 34.8199 36.1515 34.8069C35.5525 27.9428 35.5926 21.038 36.2713 14.181L36.2717 14.1811V14.1712C36.2717 14.0021 36.1795 13.8841 36.0554 13.8321C35.9484 13.7874 35.8207 13.7927 35.7151 13.8477C35.702 13.8468 35.6886 13.8466 35.6749 13.847C35.6745 13.847 35.6741 13.847 35.6737 13.847L14.9089 14.0039ZM34.9683 24.8328C34.9592 28.1747 35.1004 31.5171 35.392 34.8499C28.376 35.331 21.3566 35.5002 14.3337 35.3574C14.5338 31.9347 14.6605 28.5015 14.7137 25.0579C15.4895 25.3223 16.3222 25.3752 17.1256 25.211C17.935 25.0457 18.6848 24.6661 19.2962 24.1121L19.2962 24.1121L19.2972 24.1112C19.9574 23.496 20.4179 22.6982 20.6198 21.8202C20.7039 21.5187 20.8656 21.0464 21.1066 20.7372C21.227 20.5827 21.3581 20.4808 21.498 20.4506C21.6317 20.4216 21.7953 20.4536 21.9957 20.6131C22.3825 21.033 22.6799 21.5267 22.8698 22.0643L22.8692 22.0646L22.8745 22.0753C23.2799 22.8947 23.684 23.7128 24.0877 24.5302L24.0882 24.531C24.883 26.1402 25.6763 27.7462 26.4746 29.3522C26.6319 29.6713 26.8192 30.0371 27.0694 30.3387C27.3208 30.6417 27.6418 30.8872 28.0675 30.9539C28.4978 31.0213 28.8888 30.8574 29.2047 30.5925C29.52 30.3282 29.7678 29.9582 29.9191 29.5929C30.1494 29.0468 30.2763 28.4701 30.4004 27.9057L30.4014 27.9013C30.5554 27.201 30.7059 26.5198 31.0388 25.9036C31.4729 25.1691 32.0654 24.8237 32.7392 24.6983C33.4193 24.5717 34.1852 24.669 34.9588 24.831L34.9604 24.8313C34.963 24.8319 34.9657 24.8323 34.9683 24.8328Z" fill="white" stroke="white" stroke-width="0.2" stroke-linejoin="round"/>
</svg>
