<svg width="50" height="51" viewBox="0 0 50 51" fill="none" xmlns="http://www.w3.org/2000/svg">
<path fill-rule="evenodd" clip-rule="evenodd" d="M25 49.4691C38.2378 49.4691 48.9691 38.7378 48.9691 25.5C48.9691 12.2622 38.2378 1.53093 25 1.53093C11.7622 1.53093 1.03093 12.2622 1.03093 25.5C1.03093 38.7378 11.7622 49.4691 25 49.4691ZM25 50.5C38.8071 50.5 50 39.3071 50 25.5C50 11.6929 38.8071 0.5 25 0.5C11.1929 0.5 0 11.6929 0 25.5C0 39.3071 11.1929 50.5 25 50.5Z" fill="white"/>
<path d="M14.0452 13.1984C14.0407 13.1826 14.0402 13.1657 14.0439 13.1493C14.0711 13.0289 14.1408 12.9432 14.2327 12.8959C14.3036 12.8595 14.3831 12.8482 14.4591 12.8558C14.5335 12.7892 14.63 12.7521 14.7304 12.7521H14.7309L14.7309 12.7521L31.776 12.838C31.7761 12.838 31.7762 12.838 31.7763 12.838L31.7765 12.838L14.0452 13.1984ZM14.0452 13.1984C13.6175 15.1247 13.6212 17.1219 14.0562 19.047M14.0452 13.1984L14.0562 19.047M14.0562 19.047C14.08 19.1523 14.1361 19.2322 14.2128 19.2824C14.2788 19.3255 14.3547 19.3433 14.4286 19.3418C14.4761 19.3645 14.5297 19.3785 14.5883 19.3822C20.3831 19.8406 26.1819 20.0615 31.9848 20.0452M14.0562 19.047L32.2723 19.3507C32.3486 19.427 32.3915 19.5305 32.3915 19.6384C32.3915 19.7463 32.3486 19.8498 32.2723 19.926C32.196 20.0023 32.0927 20.0451 31.9848 20.0452M31.9848 20.0452C31.9848 20.0452 31.9847 20.0452 31.9847 20.0452V19.9452L31.985 20.0452C31.9849 20.0452 31.9849 20.0452 31.9848 20.0452ZM14.7869 18.5832C20.3151 19.0009 25.8546 19.2168 31.4053 19.2308L14.7869 18.5832ZM14.7869 18.5832C14.4479 16.9278 14.4503 15.2206 14.7941 13.566L31.45 13.6499C31.6686 15.5004 31.6542 17.3715 31.407 19.2192L14.7869 18.5832ZM24.4427 35.0905C24.4781 35.089 24.5129 35.083 24.5463 35.073C24.5946 35.6619 24.6646 36.2494 24.756 36.8345C24.7638 36.884 24.7786 36.9285 24.7996 36.9673C24.429 37.1684 24.025 37.3029 23.6058 37.3637C23.1678 37.4272 22.7227 37.4089 22.293 37.3106C22.2061 36.6256 22.1573 35.9377 22.1462 35.25C22.149 35.2501 22.1518 35.2501 22.1547 35.2501V35.2504L22.1617 35.2499L24.4427 35.0905ZM22.1506 34.4366C22.1933 32.8663 22.4328 31.3037 22.8664 29.7861L23.9325 29.5166C23.9394 29.5151 23.9464 29.5134 23.9532 29.5115L24.7115 29.6392C24.4904 31.1777 24.418 32.7321 24.4943 34.281C24.4755 34.2784 24.4564 34.277 24.4372 34.277V34.2768L24.4303 34.2773L22.1509 34.4366C22.1508 34.4366 22.1507 34.4366 22.1506 34.4366Z" fill="white" stroke="white" stroke-width="0.2" stroke-linejoin="round"/>
</svg>
