<svg width="51" height="51" viewBox="0 0 51 51" fill="none" xmlns="http://www.w3.org/2000/svg">
<path fill-rule="evenodd" clip-rule="evenodd" d="M25.5 49.4691C38.7378 49.4691 49.4691 38.7378 49.4691 25.5C49.4691 12.2622 38.7378 1.53093 25.5 1.53093C12.2622 1.53093 1.53093 12.2622 1.53093 25.5C1.53093 38.7378 12.2622 49.4691 25.5 49.4691ZM25.5 50.5C39.3071 50.5 50.5 39.3071 50.5 25.5C50.5 11.6929 39.3071 0.5 25.5 0.5C11.6929 0.5 0.5 11.6929 0.5 25.5C0.5 39.3071 11.6929 50.5 25.5 50.5Z" fill="white"/>
<path d="M29.6454 33.8218C30.7548 32.9075 31.4631 31.5235 31.4631 29.9771C31.4631 27.7192 29.9525 25.8085 27.8891 25.1998L26.1583 16.703C25.6691 14.3015 26.4117 11.833 28.1447 10.1L29.1964 9.04842C31.1912 12.1209 30.0818 14.2262 27.5125 16.749C27.307 16.9508 27.304 17.2811 27.5058 17.4865C27.7077 17.6921 28.0377 17.6951 28.2433 17.4933C29.4073 16.3503 30.6562 14.9574 31.0937 13.2927C31.5427 11.584 31.0835 9.82967 29.69 7.92943C29.6 7.8067 29.4609 7.72944 29.3092 7.71783C29.1579 7.70622 29.0082 7.76143 28.9006 7.86907L27.4071 9.36259C25.4259 11.3438 24.5769 14.1658 25.1362 16.9113L25.4869 18.6331C23.085 20.8304 19.8291 23.835 19.8291 28.305C19.8291 31.9736 22.8137 34.9582 26.4823 34.9582C27.2809 34.9582 28.0357 34.7681 28.7053 34.4326L29.6517 39.0786C29.8121 39.866 29.6126 40.6747 29.1041 41.297C28.5958 41.9192 27.8433 42.2762 27.0397 42.2762C25.9977 42.2762 25.0646 41.802 24.444 41.0584C24.5631 41.0785 24.6852 41.0896 24.81 41.0896C26.0196 41.0896 27.0038 40.1055 27.0038 38.8958C27.0038 37.6862 26.0196 36.7021 24.81 36.7021C23.6003 36.7021 22.6162 37.6862 22.6162 38.8958C22.6162 41.3349 24.6006 43.3193 27.0397 43.3193C28.1578 43.3193 29.2047 42.8227 29.912 41.9568C30.6193 41.0908 30.897 39.9659 30.6738 38.8702L29.6454 33.8218ZM26.4823 33.9149C23.3888 33.9149 20.8722 31.3982 20.8722 28.3048C20.8722 24.7875 23.0277 22.3428 25.7303 19.8277L26.7852 25.0063C26.6849 25.0002 26.5841 24.9962 26.4823 24.9962C24.3505 24.9962 22.6162 26.7305 22.6162 28.8623C22.6162 30.9941 24.3505 32.7283 26.4823 32.7283C26.7703 32.7283 27.0038 32.4948 27.0038 32.2068C27.0038 31.9188 26.7703 31.6853 26.4823 31.6853C24.9257 31.6853 23.6593 30.4189 23.6593 28.8623C23.6593 27.3056 24.9257 26.0393 26.4823 26.0393C28.6536 26.0393 30.4201 27.8058 30.4201 29.9771C30.4201 30.9925 30.0337 31.9193 29.4003 32.6184L28.4838 28.1191C28.4263 27.8369 28.1509 27.6546 27.8686 27.7122C27.5864 27.7697 27.4042 28.0451 27.4617 28.3273L28.4877 33.3642C27.8999 33.7135 27.2143 33.9149 26.4823 33.9149ZM24.81 37.7451C25.4445 37.7451 25.9607 38.2612 25.9607 38.8958C25.9607 39.5303 25.4445 40.0465 24.81 40.0465C24.1754 40.0465 23.6593 39.5303 23.6593 38.8958C23.6593 38.2612 24.1754 37.7451 24.81 37.7451Z" fill="white"/>
</svg>
