<svg width="51" height="51" viewBox="0 0 51 51" fill="none" xmlns="http://www.w3.org/2000/svg">
<path fill-rule="evenodd" clip-rule="evenodd" d="M25.5 49.4691C38.7378 49.4691 49.4691 38.7378 49.4691 25.5C49.4691 12.2622 38.7378 1.53093 25.5 1.53093C12.2622 1.53093 1.53093 12.2622 1.53093 25.5C1.53093 38.7378 12.2622 49.4691 25.5 49.4691ZM25.5 50.5C39.3071 50.5 50.5 39.3071 50.5 25.5C50.5 11.6929 39.3071 0.5 25.5 0.5C11.6929 0.5 0.5 11.6929 0.5 25.5C0.5 39.3071 11.6929 50.5 25.5 50.5Z" fill="white"/>
<mask id="path-2-outside-1_0_63" maskUnits="userSpaceOnUse" x="12.1289" y="13.4175" width="26" height="24" fill="black">
<rect fill="white" x="12.1289" y="13.4175" width="26" height="24"/>
<path d="M19.8019 19.8084C21.03 20.5048 22.1742 21.3454 23.211 22.3133C23.5053 22.5763 23.9345 22.1379 23.6402 21.8624C22.5745 20.8611 21.3974 19.9909 20.1331 19.2699C19.7897 19.0695 19.4831 19.6205 19.8265 19.8084H19.8019Z"/>
<path d="M23.162 25.7824C21.9318 25.0797 20.7442 24.3018 19.6059 23.4528C19.5386 23.4089 19.4899 23.3407 19.4695 23.2619C19.4491 23.183 19.4583 23.0992 19.4955 23.027C19.5364 22.9559 19.6032 22.9042 19.6812 22.8831C19.7593 22.862 19.8424 22.8732 19.9124 22.9143C21.0508 23.7633 22.2383 24.5412 23.4686 25.2438C23.53 25.2894 23.5726 25.3566 23.5883 25.4325C23.6039 25.5083 23.5915 25.5874 23.5533 25.6544C23.5152 25.7214 23.4541 25.7716 23.3818 25.7953C23.3095 25.8189 23.2312 25.8143 23.162 25.7824Z"/>
<path d="M19.6426 27.4733C20.7708 28.0494 21.8745 28.6631 22.9536 29.3269C23.0235 29.3528 23.1 29.353 23.17 29.3273C23.24 29.3017 23.299 29.2519 23.3369 29.1865C23.3747 29.1211 23.389 29.0443 23.3772 28.9693C23.3654 28.8943 23.3284 28.8259 23.2724 28.7758C22.1933 28.1246 21.0774 27.5234 19.9492 26.9347C19.6058 26.7469 19.287 27.2979 19.6426 27.4733Z"/>
<path d="M31.6604 20.5473L28.1532 22.9019C27.8466 23.1148 27.5155 22.5763 27.8466 22.3634L31.3538 20.0088C31.6604 19.7833 31.9915 20.3219 31.6604 20.5473Z"/>
<path d="M28.1162 26.0953C29.2173 25.3931 30.3692 24.7776 31.562 24.2542C31.6316 24.2124 31.6822 24.1442 31.7029 24.0645C31.7235 23.9848 31.7126 23.8999 31.6723 23.8284C31.6293 23.7597 31.5626 23.71 31.4854 23.6891C31.4082 23.6683 31.3261 23.6777 31.2554 23.7157C30.0615 24.2364 28.9093 24.852 27.8096 25.5568C27.4785 25.7697 27.8096 26.3208 28.1162 26.0953Z"/>
<path d="M30.5441 28.7259C29.728 28.972 28.939 29.3035 28.1897 29.7153H28.2264C28.1573 29.7472 28.079 29.7518 28.0068 29.7282C27.9345 29.7046 27.8733 29.6544 27.8351 29.5874C27.797 29.5204 27.7846 29.4413 27.8003 29.3654C27.8159 29.2896 27.8585 29.2224 27.9199 29.1768C28.701 28.7434 29.5226 28.3909 30.3724 28.1247C30.4505 28.1015 30.5344 28.1108 30.6057 28.1508C30.677 28.1907 30.7298 28.2579 30.7526 28.3376C30.7753 28.4174 30.7662 28.5031 30.7271 28.5759C30.688 28.6487 30.6222 28.7026 30.5441 28.7259Z"/>
<path fill-rule="evenodd" clip-rule="evenodd" d="M25.7375 18.8814C23.2722 17.1978 20.6808 15.7153 17.9874 14.4478C17.7714 14.3489 17.569 14.5087 17.5257 14.6858C17.3781 14.6911 17.2328 14.7912 17.2268 14.9862C17.1959 15.8565 17.1636 16.7267 17.1297 17.5966C17.1144 17.5591 17.092 17.5247 17.0634 17.4955C17.0059 17.4367 16.928 17.4037 16.8467 17.4037L14.6761 17.1908C14.5948 17.1908 14.5169 17.2238 14.4594 17.2825C14.4019 17.3413 14.3696 17.4209 14.3696 17.5039C14.3696 17.5337 14.3737 17.563 14.3817 17.5911C14.6425 23.5987 14.2559 29.6176 13.229 35.5389C13.2263 35.5562 13.2249 35.573 13.2246 35.5894C13.0086 35.7493 13.1815 36.1944 13.5112 36.14C17.4747 35.4327 21.5395 35.5821 25.443 36.5784C25.5178 36.5908 25.5944 36.5744 25.6581 36.5324C25.7218 36.4905 25.768 36.4259 25.7878 36.3512C25.7941 36.3272 25.7976 36.3027 25.7983 36.2782C25.8132 36.2852 25.8288 36.291 25.8448 36.2955C25.9241 36.3178 26.0089 36.307 26.0804 36.2655H26.0927C26.2906 36.1467 26.489 36.0287 26.688 35.9116C26.7337 35.9482 26.7928 35.9726 26.8654 35.9772L36.97 36.4532C37.1412 36.4532 37.2377 36.3387 37.2595 36.2077C37.3163 36.157 37.353 36.0803 37.35 35.9771C37.1584 30.1064 37.3193 24.2293 37.8319 18.3788C37.8518 18.3422 37.8644 18.302 37.8691 18.2603C37.8738 18.2187 37.8704 18.1765 37.8592 18.1362C37.857 18.1284 37.8545 18.1207 37.8517 18.1131C37.8301 17.8195 37.4824 17.7642 37.3201 17.947C36.34 18.1333 35.3424 18.2073 34.3459 18.1675C34.2581 18.1675 34.1899 18.1983 34.1414 18.2461C34.1357 17.2812 34.0816 16.3158 33.9535 15.3496C33.9535 15.2012 33.8644 15.1318 33.7546 15.1229C33.6692 15.0118 33.5269 14.9537 33.3895 15.0491C30.9842 16.5577 28.4946 17.9209 25.9333 19.1317C25.9157 19.1243 25.8973 19.1185 25.8785 19.1144C25.8708 19.028 25.8279 18.943 25.7375 18.8814ZM36.7322 35.8157C36.5715 30.0715 36.7483 24.3228 37.2615 18.6004C36.2985 18.7621 35.3219 18.8269 34.3459 18.7938C34.2576 18.7909 34.1891 18.7577 34.1406 18.7078C34.1248 20.3802 33.9758 22.0513 33.8268 23.7224C33.5818 26.4693 33.3368 29.2163 33.6837 31.9694C33.6977 32.0841 33.6535 32.1649 33.5833 32.2128C33.5627 32.2663 33.5202 32.3133 33.4504 32.3453C31.4526 33.283 29.5009 34.2963 27.5952 35.3854L36.7322 35.8157ZM17.06 17.9348C17.0845 17.9099 17.1046 17.8812 17.1198 17.8502C16.9399 22.4287 16.7181 27.0015 16.4542 31.5685C16.4542 31.6689 16.4912 31.7442 16.547 31.7943C16.5696 31.8496 16.6146 31.8985 16.6871 31.9317C19.4416 33.1293 22.1662 34.4186 24.8428 35.7905C21.2211 34.967 17.4781 34.8541 13.8133 35.4589C14.8214 29.656 15.221 23.7599 15.0055 17.8706L16.8467 18.03C16.927 18.0269 17.0032 17.9929 17.06 17.9348ZM25.4888 19.452C25.4697 19.4438 25.4503 19.4332 25.4309 19.42C23.0119 17.7716 20.4733 16.3142 17.8373 15.0605C17.6431 20.5166 17.3891 25.9727 17.0754 31.4289C19.8873 32.6595 22.6577 33.9749 25.3865 35.375C25.0598 30.0714 25.0939 24.751 25.4888 19.452ZM26.0123 35.5768C28.3599 34.2253 30.7076 32.9809 33.0552 31.8437C32.7381 29.1639 32.9804 26.4901 33.2226 23.8177C33.4653 21.1387 33.7079 18.4612 33.3867 15.7809C31.0277 17.2462 28.5881 18.5719 26.08 19.7513C25.7011 25.0185 25.6784 30.3062 26.0123 35.5768Z"/>
</mask>
<path d="M19.8019 19.8084C21.03 20.5048 22.1742 21.3454 23.211 22.3133C23.5053 22.5763 23.9345 22.1379 23.6402 21.8624C22.5745 20.8611 21.3974 19.9909 20.1331 19.2699C19.7897 19.0695 19.4831 19.6205 19.8265 19.8084H19.8019Z" fill="white"/>
<path d="M23.162 25.7824C21.9318 25.0797 20.7442 24.3018 19.6059 23.4528C19.5386 23.4089 19.4899 23.3407 19.4695 23.2619C19.4491 23.183 19.4583 23.0992 19.4955 23.027C19.5364 22.9559 19.6032 22.9042 19.6812 22.8831C19.7593 22.862 19.8424 22.8732 19.9124 22.9143C21.0508 23.7633 22.2383 24.5412 23.4686 25.2438C23.53 25.2894 23.5726 25.3566 23.5883 25.4325C23.6039 25.5083 23.5915 25.5874 23.5533 25.6544C23.5152 25.7214 23.4541 25.7716 23.3818 25.7953C23.3095 25.8189 23.2312 25.8143 23.162 25.7824Z" fill="white"/>
<path d="M19.6426 27.4733C20.7708 28.0494 21.8745 28.6631 22.9536 29.3269C23.0235 29.3528 23.1 29.353 23.17 29.3273C23.24 29.3017 23.299 29.2519 23.3369 29.1865C23.3747 29.1211 23.389 29.0443 23.3772 28.9693C23.3654 28.8943 23.3284 28.8259 23.2724 28.7758C22.1933 28.1246 21.0774 27.5234 19.9492 26.9347C19.6058 26.7469 19.287 27.2979 19.6426 27.4733Z" fill="white"/>
<path d="M31.6604 20.5473L28.1532 22.9019C27.8466 23.1148 27.5155 22.5763 27.8466 22.3634L31.3538 20.0088C31.6604 19.7833 31.9915 20.3219 31.6604 20.5473Z" fill="white"/>
<path d="M28.1162 26.0953C29.2173 25.3931 30.3692 24.7776 31.562 24.2542C31.6316 24.2124 31.6822 24.1442 31.7029 24.0645C31.7235 23.9848 31.7126 23.8999 31.6723 23.8284C31.6293 23.7597 31.5626 23.71 31.4854 23.6891C31.4082 23.6683 31.3261 23.6777 31.2554 23.7157C30.0615 24.2364 28.9093 24.852 27.8096 25.5568C27.4785 25.7697 27.8096 26.3208 28.1162 26.0953Z" fill="white"/>
<path d="M30.5441 28.7259C29.728 28.972 28.939 29.3035 28.1897 29.7153H28.2264C28.1573 29.7472 28.079 29.7518 28.0068 29.7282C27.9345 29.7046 27.8733 29.6544 27.8351 29.5874C27.797 29.5204 27.7846 29.4413 27.8003 29.3654C27.8159 29.2896 27.8585 29.2224 27.9199 29.1768C28.701 28.7434 29.5226 28.3909 30.3724 28.1247C30.4505 28.1015 30.5344 28.1108 30.6057 28.1508C30.677 28.1907 30.7298 28.2579 30.7526 28.3376C30.7753 28.4174 30.7662 28.5031 30.7271 28.5759C30.688 28.6487 30.6222 28.7026 30.5441 28.7259Z" fill="white"/>
<path fill-rule="evenodd" clip-rule="evenodd" d="M25.7375 18.8814C23.2722 17.1978 20.6808 15.7153 17.9874 14.4478C17.7714 14.3489 17.569 14.5087 17.5257 14.6858C17.3781 14.6911 17.2328 14.7912 17.2268 14.9862C17.1959 15.8565 17.1636 16.7267 17.1297 17.5966C17.1144 17.5591 17.092 17.5247 17.0634 17.4955C17.0059 17.4367 16.928 17.4037 16.8467 17.4037L14.6761 17.1908C14.5948 17.1908 14.5169 17.2238 14.4594 17.2825C14.4019 17.3413 14.3696 17.4209 14.3696 17.5039C14.3696 17.5337 14.3737 17.563 14.3817 17.5911C14.6425 23.5987 14.2559 29.6176 13.229 35.5389C13.2263 35.5562 13.2249 35.573 13.2246 35.5894C13.0086 35.7493 13.1815 36.1944 13.5112 36.14C17.4747 35.4327 21.5395 35.5821 25.443 36.5784C25.5178 36.5908 25.5944 36.5744 25.6581 36.5324C25.7218 36.4905 25.768 36.4259 25.7878 36.3512C25.7941 36.3272 25.7976 36.3027 25.7983 36.2782C25.8132 36.2852 25.8288 36.291 25.8448 36.2955C25.9241 36.3178 26.0089 36.307 26.0804 36.2655H26.0927C26.2906 36.1467 26.489 36.0287 26.688 35.9116C26.7337 35.9482 26.7928 35.9726 26.8654 35.9772L36.97 36.4532C37.1412 36.4532 37.2377 36.3387 37.2595 36.2077C37.3163 36.157 37.353 36.0803 37.35 35.9771C37.1584 30.1064 37.3193 24.2293 37.8319 18.3788C37.8518 18.3422 37.8644 18.302 37.8691 18.2603C37.8738 18.2187 37.8704 18.1765 37.8592 18.1362C37.857 18.1284 37.8545 18.1207 37.8517 18.1131C37.8301 17.8195 37.4824 17.7642 37.3201 17.947C36.34 18.1333 35.3424 18.2073 34.3459 18.1675C34.2581 18.1675 34.1899 18.1983 34.1414 18.2461C34.1357 17.2812 34.0816 16.3158 33.9535 15.3496C33.9535 15.2012 33.8644 15.1318 33.7546 15.1229C33.6692 15.0118 33.5269 14.9537 33.3895 15.0491C30.9842 16.5577 28.4946 17.9209 25.9333 19.1317C25.9157 19.1243 25.8973 19.1185 25.8785 19.1144C25.8708 19.028 25.8279 18.943 25.7375 18.8814ZM36.7322 35.8157C36.5715 30.0715 36.7483 24.3228 37.2615 18.6004C36.2985 18.7621 35.3219 18.8269 34.3459 18.7938C34.2576 18.7909 34.1891 18.7577 34.1406 18.7078C34.1248 20.3802 33.9758 22.0513 33.8268 23.7224C33.5818 26.4693 33.3368 29.2163 33.6837 31.9694C33.6977 32.0841 33.6535 32.1649 33.5833 32.2128C33.5627 32.2663 33.5202 32.3133 33.4504 32.3453C31.4526 33.283 29.5009 34.2963 27.5952 35.3854L36.7322 35.8157ZM17.06 17.9348C17.0845 17.9099 17.1046 17.8812 17.1198 17.8502C16.9399 22.4287 16.7181 27.0015 16.4542 31.5685C16.4542 31.6689 16.4912 31.7442 16.547 31.7943C16.5696 31.8496 16.6146 31.8985 16.6871 31.9317C19.4416 33.1293 22.1662 34.4186 24.8428 35.7905C21.2211 34.967 17.4781 34.8541 13.8133 35.4589C14.8214 29.656 15.221 23.7599 15.0055 17.8706L16.8467 18.03C16.927 18.0269 17.0032 17.9929 17.06 17.9348ZM25.4888 19.452C25.4697 19.4438 25.4503 19.4332 25.4309 19.42C23.0119 17.7716 20.4733 16.3142 17.8373 15.0605C17.6431 20.5166 17.3891 25.9727 17.0754 31.4289C19.8873 32.6595 22.6577 33.9749 25.3865 35.375C25.0598 30.0714 25.0939 24.751 25.4888 19.452ZM26.0123 35.5768C28.3599 34.2253 30.7076 32.9809 33.0552 31.8437C32.7381 29.1639 32.9804 26.4901 33.2226 23.8177C33.4653 21.1387 33.7079 18.4612 33.3867 15.7809C31.0277 17.2462 28.5881 18.5719 26.08 19.7513C25.7011 25.0185 25.6784 30.3062 26.0123 35.5768Z" fill="white"/>
<path d="M19.8019 19.8084C21.03 20.5048 22.1742 21.3454 23.211 22.3133C23.5053 22.5763 23.9345 22.1379 23.6402 21.8624C22.5745 20.8611 21.3974 19.9909 20.1331 19.2699C19.7897 19.0695 19.4831 19.6205 19.8265 19.8084H19.8019Z" stroke="white" stroke-width="0.4" stroke-linejoin="round" mask="url(#path-2-outside-1_0_63)"/>
<path d="M23.162 25.7824C21.9318 25.0797 20.7442 24.3018 19.6059 23.4528C19.5386 23.4089 19.4899 23.3407 19.4695 23.2619C19.4491 23.183 19.4583 23.0992 19.4955 23.027C19.5364 22.9559 19.6032 22.9042 19.6812 22.8831C19.7593 22.862 19.8424 22.8732 19.9124 22.9143C21.0508 23.7633 22.2383 24.5412 23.4686 25.2438C23.53 25.2894 23.5726 25.3566 23.5883 25.4325C23.6039 25.5083 23.5915 25.5874 23.5533 25.6544C23.5152 25.7214 23.4541 25.7716 23.3818 25.7953C23.3095 25.8189 23.2312 25.8143 23.162 25.7824Z" stroke="white" stroke-width="0.4" stroke-linejoin="round" mask="url(#path-2-outside-1_0_63)"/>
<path d="M19.6426 27.4733C20.7708 28.0494 21.8745 28.6631 22.9536 29.3269C23.0235 29.3528 23.1 29.353 23.17 29.3273C23.24 29.3017 23.299 29.2519 23.3369 29.1865C23.3747 29.1211 23.389 29.0443 23.3772 28.9693C23.3654 28.8943 23.3284 28.8259 23.2724 28.7758C22.1933 28.1246 21.0774 27.5234 19.9492 26.9347C19.6058 26.7469 19.287 27.2979 19.6426 27.4733Z" stroke="white" stroke-width="0.4" stroke-linejoin="round" mask="url(#path-2-outside-1_0_63)"/>
<path d="M31.6604 20.5473L28.1532 22.9019C27.8466 23.1148 27.5155 22.5763 27.8466 22.3634L31.3538 20.0088C31.6604 19.7833 31.9915 20.3219 31.6604 20.5473Z" stroke="white" stroke-width="0.4" stroke-linejoin="round" mask="url(#path-2-outside-1_0_63)"/>
<path d="M28.1162 26.0953C29.2173 25.3931 30.3692 24.7776 31.562 24.2542C31.6316 24.2124 31.6822 24.1442 31.7029 24.0645C31.7235 23.9848 31.7126 23.8999 31.6723 23.8284C31.6293 23.7597 31.5626 23.71 31.4854 23.6891C31.4082 23.6683 31.3261 23.6777 31.2554 23.7157C30.0615 24.2364 28.9093 24.852 27.8096 25.5568C27.4785 25.7697 27.8096 26.3208 28.1162 26.0953Z" stroke="white" stroke-width="0.4" stroke-linejoin="round" mask="url(#path-2-outside-1_0_63)"/>
<path d="M30.5441 28.7259C29.728 28.972 28.939 29.3035 28.1897 29.7153H28.2264C28.1573 29.7472 28.079 29.7518 28.0068 29.7282C27.9345 29.7046 27.8733 29.6544 27.8351 29.5874C27.797 29.5204 27.7846 29.4413 27.8003 29.3654C27.8159 29.2896 27.8585 29.2224 27.9199 29.1768C28.701 28.7434 29.5226 28.3909 30.3724 28.1247C30.4505 28.1015 30.5344 28.1108 30.6057 28.1508C30.677 28.1907 30.7298 28.2579 30.7526 28.3376C30.7753 28.4174 30.7662 28.5031 30.7271 28.5759C30.688 28.6487 30.6222 28.7026 30.5441 28.7259Z" stroke="white" stroke-width="0.4" stroke-linejoin="round" mask="url(#path-2-outside-1_0_63)"/>
<path fill-rule="evenodd" clip-rule="evenodd" d="M25.7375 18.8814C23.2722 17.1978 20.6808 15.7153 17.9874 14.4478C17.7714 14.3489 17.569 14.5087 17.5257 14.6858C17.3781 14.6911 17.2328 14.7912 17.2268 14.9862C17.1959 15.8565 17.1636 16.7267 17.1297 17.5966C17.1144 17.5591 17.092 17.5247 17.0634 17.4955C17.0059 17.4367 16.928 17.4037 16.8467 17.4037L14.6761 17.1908C14.5948 17.1908 14.5169 17.2238 14.4594 17.2825C14.4019 17.3413 14.3696 17.4209 14.3696 17.5039C14.3696 17.5337 14.3737 17.563 14.3817 17.5911C14.6425 23.5987 14.2559 29.6176 13.229 35.5389C13.2263 35.5562 13.2249 35.573 13.2246 35.5894C13.0086 35.7493 13.1815 36.1944 13.5112 36.14C17.4747 35.4327 21.5395 35.5821 25.443 36.5784C25.5178 36.5908 25.5944 36.5744 25.6581 36.5324C25.7218 36.4905 25.768 36.4259 25.7878 36.3512C25.7941 36.3272 25.7976 36.3027 25.7983 36.2782C25.8132 36.2852 25.8288 36.291 25.8448 36.2955C25.9241 36.3178 26.0089 36.307 26.0804 36.2655H26.0927C26.2906 36.1467 26.489 36.0287 26.688 35.9116C26.7337 35.9482 26.7928 35.9726 26.8654 35.9772L36.97 36.4532C37.1412 36.4532 37.2377 36.3387 37.2595 36.2077C37.3163 36.157 37.353 36.0803 37.35 35.9771C37.1584 30.1064 37.3193 24.2293 37.8319 18.3788C37.8518 18.3422 37.8644 18.302 37.8691 18.2603C37.8738 18.2187 37.8704 18.1765 37.8592 18.1362C37.857 18.1284 37.8545 18.1207 37.8517 18.1131C37.8301 17.8195 37.4824 17.7642 37.3201 17.947C36.34 18.1333 35.3424 18.2073 34.3459 18.1675C34.2581 18.1675 34.1899 18.1983 34.1414 18.2461C34.1357 17.2812 34.0816 16.3158 33.9535 15.3496C33.9535 15.2012 33.8644 15.1318 33.7546 15.1229C33.6692 15.0118 33.5269 14.9537 33.3895 15.0491C30.9842 16.5577 28.4946 17.9209 25.9333 19.1317C25.9157 19.1243 25.8973 19.1185 25.8785 19.1144C25.8708 19.028 25.8279 18.943 25.7375 18.8814ZM36.7322 35.8157C36.5715 30.0715 36.7483 24.3228 37.2615 18.6004C36.2985 18.7621 35.3219 18.8269 34.3459 18.7938C34.2576 18.7909 34.1891 18.7577 34.1406 18.7078C34.1248 20.3802 33.9758 22.0513 33.8268 23.7224C33.5818 26.4693 33.3368 29.2163 33.6837 31.9694C33.6977 32.0841 33.6535 32.1649 33.5833 32.2128C33.5627 32.2663 33.5202 32.3133 33.4504 32.3453C31.4526 33.283 29.5009 34.2963 27.5952 35.3854L36.7322 35.8157ZM17.06 17.9348C17.0845 17.9099 17.1046 17.8812 17.1198 17.8502C16.9399 22.4287 16.7181 27.0015 16.4542 31.5685C16.4542 31.6689 16.4912 31.7442 16.547 31.7943C16.5696 31.8496 16.6146 31.8985 16.6871 31.9317C19.4416 33.1293 22.1662 34.4186 24.8428 35.7905C21.2211 34.967 17.4781 34.8541 13.8133 35.4589C14.8214 29.656 15.221 23.7599 15.0055 17.8706L16.8467 18.03C16.927 18.0269 17.0032 17.9929 17.06 17.9348ZM25.4888 19.452C25.4697 19.4438 25.4503 19.4332 25.4309 19.42C23.0119 17.7716 20.4733 16.3142 17.8373 15.0605C17.6431 20.5166 17.3891 25.9727 17.0754 31.4289C19.8873 32.6595 22.6577 33.9749 25.3865 35.375C25.0598 30.0714 25.0939 24.751 25.4888 19.452ZM26.0123 35.5768C28.3599 34.2253 30.7076 32.9809 33.0552 31.8437C32.7381 29.1639 32.9804 26.4901 33.2226 23.8177C33.4653 21.1387 33.7079 18.4612 33.3867 15.7809C31.0277 17.2462 28.5881 18.5719 26.08 19.7513C25.7011 25.0185 25.6784 30.3062 26.0123 35.5768Z" stroke="white" stroke-width="0.4" stroke-linejoin="round" mask="url(#path-2-outside-1_0_63)"/>
</svg>
