<svg width="429" height="233" viewBox="0 0 429 233" fill="none" xmlns="http://www.w3.org/2000/svg">
<path fill-rule="evenodd" clip-rule="evenodd" d="M38.7179 152.099L25.4723 170.858L49.198 217.393C49.198 217.393 61.8157 215.069 61.9113 214.495C62.0132 213.884 69.5451 207.368 70.5844 207.224C71.2283 207.135 78.2972 205.182 80.4926 205.469C82.3817 205.715 89.2389 211.273 89.0804 211.431C88.6059 213.418 90.3289 215.406 91.9915 217.393C92.849 219.511 93.4398 220.564 94.0293 221.61C96.4744 222.123 97.7186 221.798 99.7334 220.691L99.8515 163.297L126.779 154.426L153.494 175.923C153.494 175.923 161.858 187 162.732 187C163.605 187 174.068 184.785 174.068 184.785C174.093 184.752 188.216 185.521 187.998 185.956C187.399 187.155 192.8 183.065 192.8 183.065C195.096 185.497 197.172 188.003 199.84 190.311L202.614 196.889L205.662 194.442L204.506 210.268H210.038C210.038 210.268 210.628 216.075 210.62 217.248C210.609 218.774 211.784 223.646 211.784 223.646C211.784 223.646 217.434 224.468 219.062 223.646C220.749 222.795 225.447 223.46 225.03 223.356L227.213 225.828C226.626 226.781 225.737 227.561 226.049 229.027C226.152 229.648 230.795 234.06 231.725 231.935C232.297 230.63 231.209 228.445 231.143 228.445C230.737 227.177 233.194 226.263 233.035 225.973C232.823 225.582 233.845 222.787 235.947 222.774C237.083 222.767 235.947 219.284 236.965 219.284C237.984 219.284 239.585 217.684 239.585 217.684L243.079 215.212C244.426 215.011 245.719 214.776 245.99 213.903C245.99 213.903 247.968 213.25 248.464 212.158C250.808 207.005 251.334 209.537 253.122 209.686C251.887 208.776 255.245 206.059 256.616 206.487C257.171 206.66 255.014 205.323 255.014 205.323C255.168 205.553 257.332 203.841 256.907 202.851C256.347 201.549 257.644 200.371 258.362 200.67L259.236 198.634L261.128 197.907L263.02 198.052C263.313 197.336 266.224 198.459 267.823 198.198C268.649 198.063 274.45 199.087 274.082 199.943C274.376 199.388 275.687 200.178 275.975 201.833C276.074 202.406 278.759 201.439 280.08 201.769C281.402 202.098 281.36 203.724 281.36 203.724L282.816 203.869C283.264 203.734 282.204 201.625 282.247 200.608C282.29 199.59 282.818 198.636 283.304 197.109C283.891 195.262 283.374 194.067 283.586 194.067L286.283 192.954C290.198 191.036 293.032 191.211 294.751 193.544C297.576 195.861 299.122 195.879 301.301 197.034L305.668 197.471L307.225 195.263L314.838 196.162L319.496 194.998L321.534 196.016C321.534 195.368 329.248 196.197 330.121 196.889C330.843 197.46 335.507 196.52 335.507 196.52L340.491 198.464L342.494 198.052C342.457 199.152 342.462 200.198 343.367 200.088C343.367 200.088 344.24 201.542 344.823 201.833C345.405 202.124 344.883 203.254 345.405 202.997C346.556 202.429 351.157 203.067 350.936 203.287C350.608 203.616 353.344 208.589 353.847 207.65C354.13 207.121 352.537 200.67 352.537 199.943C352.537 199.216 353.726 197.307 353.726 197.307C355.593 197.397 356.235 196.57 357.049 195.871C357.049 195.871 354.188 195.007 354.77 194.426C355.353 193.844 358.068 192.381 358.068 192.381L359.524 193.253C359.251 187.776 356.377 182.195 354.745 176.718L354.866 171.876C354.866 171.876 354.875 170.705 354.866 169.404C354.858 168.282 356.691 168.357 356.236 167.454C355.541 166.072 352.869 166.043 352.869 166.043C352.869 166.043 351.373 167.223 350.79 166.641C350.208 166.06 349.354 164.768 349.354 164.768C350.606 163.772 351.245 162.408 354.429 162.569C355.599 161.533 357.765 160.827 361.147 160.431C363.567 160.148 365.81 159.003 367.82 158.061C369.04 156.355 371.403 161.776 371.605 161.115C371.944 160.006 375.746 159.36 377.136 161.406C377.136 161.406 379.756 158.643 378.737 157.043C377.718 155.444 375.389 156.462 375.098 155.008C374.807 153.553 376.554 151.372 376.699 150.499C376.845 149.627 378.155 143.228 378.155 143.228C378.155 143.228 380.193 138.284 380.629 136.975C381.066 135.666 382.231 132.758 382.231 132.758C382.672 131.13 381.606 127.73 384.123 128.541L392.711 132.613C394.066 131.808 396.866 132.053 399.697 132.322C399.697 132.322 400.812 136.378 401.444 135.085C402.463 133 407.703 130.647 407.703 131.013C408.266 131.254 412.528 126.308 410.76 126.214C409.726 126.159 408.39 120.562 408.576 119.088C408.722 117.934 410.652 111.507 410.468 110.654C410.233 109.562 413.183 108.923 415.819 109.267C417.353 109.468 419.157 107.355 420.366 106.873C422.115 106.176 422.076 102.383 421.676 101.638C420.297 99.0657 425.438 97.5164 427.79 99.4566C429.361 100.753 426.48 96.4027 426.48 96.4027C426.48 96.4027 424.728 95.2275 424.005 95.5302C423.177 95.8772 421.887 92.6369 421.967 92.4763C421.597 91.7799 420.847 91.4629 419.93 91.313C420.063 90.9432 419.904 90.4276 420.803 90.4404C421.611 90.1496 421.837 89.8588 421.967 89.5679C422.099 88.6125 421.636 88.2504 420.948 88.1137C420.463 87.8118 419.978 87.7833 419.493 88.8408C419.264 90.0538 418.673 90.8605 417.349 90.8429C416.574 89.9822 416.388 93.8021 416 93.4943C415.409 93.0261 410.891 91.6591 410.614 91.6038C409.083 90.4798 407.321 90.9769 405.52 91.7492C405.788 89.2403 404.191 87.2642 402.864 85.7018C403.067 85.2142 404.17 84.6271 403.336 83.7511C401.211 82.9914 400.09 81.3959 396.495 81.8606C396.441 82.0512 394.169 79.3571 394.603 76.9163C395.007 74.6456 393.266 74.5312 392.573 74.1951C391.613 73.7291 392.711 72.1174 392.711 72.1174C390.527 71.0391 388.344 69.6677 386.161 69.3544C384.621 68.9469 384.351 69.526 384.01 70.0496C383.481 70.5276 383.776 71.3656 381.212 70.954C377.971 69.9163 378.767 72.687 377.718 73.717C377.718 73.0735 371.629 73.0489 373.497 74.1533C374.676 74.8501 369.832 72.6296 368.112 72.8445C368.062 73.5176 367.048 73.403 365.492 72.8445C366.832 68.7142 364.228 69.7378 362.144 70.0815C361.974 68.6678 364.123 65.2538 361.27 66.1551L359.2 64.8448C358.234 63.7783 357.614 65.1381 356.904 65.8642C355.976 65.9887 354.471 65.665 355.885 67.6093L355.448 70.0815C353.609 70.8339 351.184 71.4402 351.955 72.8445C351.955 72.8445 338.127 48.7045 337.254 46.9595C336.38 45.2144 330.995 37.2162 330.995 37.2162L326.919 31.3994L314.11 22.6741C314.781 22.6741 312.99 20.0903 313.45 19.654C314.158 18.9821 315.982 20.7477 316.73 20.0565C317.445 19.3958 318.251 17.1806 317.895 17.0027C318.035 15.9762 317.714 15.296 317.312 14.6759C316.426 15.5311 315.781 16.5304 314.256 17.0027H311.345V18.4569C308.446 18.8771 307.125 19.998 305.377 20.9291L303.776 20.3474C302.713 20.4377 302.017 20.7474 302.32 21.6562C302.689 22.0617 303.504 22.4301 302.32 22.965C301.741 22.6533 298.975 25.8301 298.972 25.728C298.936 24.3565 295.333 25.0009 295.333 25.0009C295.088 25.7458 295.408 26.5613 294.169 27.1822C293.207 26.776 292.602 26.8335 293.005 28.2001C292.527 27.9175 293.065 29.6072 293.005 30.5269C292.911 31.9622 290.111 28.679 290.111 28.679C289.377 27.907 288.644 28.2103 287.91 28.2001C286.049 27.3736 285.393 28.3546 284.271 28.6364C284.271 28.4143 282.374 31.4963 282.233 30.8177C281.967 29.5336 280.58 29.4382 280.341 29.0726C279.635 27.9937 280.4 28.2861 280.743 27.1822C280.914 26.6297 281.647 23.2225 283.689 24.4192L284.708 24.71C284.734 23.2001 285.312 22.351 286.018 21.6562C285.255 21.8811 283.742 19.6419 283.835 22.6741C282.049 23.0818 280.369 22.6204 278.33 22.5199L277.867 20.9291C276.947 20.0685 275.367 20.3094 274.082 20.0565L272.918 21.0745C275.126 21.6376 275.021 22.4209 274.373 23.2558C273.061 22.7368 273.382 23.3063 273.209 23.5466C272.47 23.5395 271.103 23.8748 271.753 23.1104C271.35 22.2577 271.635 21.8177 271.899 21.3653C272.861 21.4918 271.937 20.4065 271.026 19.3294L271.462 18.3115C270.086 17.588 269.579 16.6907 268.842 15.8393L268.114 16.2756C268.391 17.245 267.676 18.2145 269.424 19.184C269.395 19.7361 269.362 20.2845 268.26 19.7657C264.095 16.9632 264.9 18.961 264.621 19.9111C264.438 20.8813 263.263 20.7357 262.001 20.4928C261.203 18.5191 259.997 18.8954 258.653 20.0565C257.993 20.3656 257.611 18.5838 256.702 17.4052C256.702 17.4052 259.527 17.5467 258.944 16.7118C257.641 14.8444 259.698 11.0867 259.818 11.7675C260.01 12.8637 256.207 9.49473 256.761 5.5144C256.907 4.46313 253.958 2.46596 255.014 2.31513C254.589 1.49005 253.804 1.47281 252.831 1.87887C251.854 0.977856 249.696 3.60579 248.729 4.03372C246.414 5.05816 243.836 1.24783 244.052 1.68052C242.868 1.33812 241.432 0.0510727 240.75 1.58802C239.661 -0.569973 238.961 0.37792 238.275 1.4426C237.534 -0.395252 236.198 -0.0091065 234.928 0.133809C235.393 0.902609 235.849 1.6688 235.51 2.16971C234.642 1.01002 233.738 0.166733 232.599 1.4426L232.017 3.4785C230.379 3.653 227.659 2.35374 227.359 4.35103C227.359 4.35103 229.833 4.20561 228.96 5.5144C228.087 6.82319 226.631 7.5503 226.631 7.5503C226.519 7.29753 222.919 5.92164 222.847 8.42282C222.833 8.8897 220.194 7.21042 218.458 8.85323C217.429 9.82669 213.465 10.1589 213.094 10.4587C210.311 11.1423 207.801 11.006 204.652 12.7855C203.977 9.75113 202.482 11.8004 201.159 12.7855C199.375 12.0742 197.875 12.5931 196.501 13.658C195.774 14.8214 196.159 15.9847 196.646 17.1481L194.9 17.4389C193.938 15.7368 192.77 15.2735 191.261 16.8573C189.057 17.0181 186.7 17.148 185.147 17.4389C184.502 17.7032 182.543 17.0195 184.129 18.8932L181.654 19.4748C181.522 17.4698 179.091 18.5801 177.142 19.0386C175.901 19.305 174.823 19.7141 174.667 20.9291L171.029 20.6382C169.997 19.8725 166.676 22.2731 168.845 24.4192C169.826 25.3898 166.33 22.229 166.33 22.229C164.977 22.3849 163.275 20.6765 162.295 22.8195L159.966 22.6741C158.476 21.4073 157.755 22.4458 156.764 22.6741C156.057 22.3113 155.767 21.8651 155.745 21.3653L153.998 22.6741C153.188 23.0358 150.702 22.7996 153.416 24.4192L154.726 24.8554C154.463 24.5544 153.63 26.4294 152.98 27.1822C152.123 28.1727 150.796 26.8913 150.796 26.8913C151.405 27.6837 151.719 29.065 153.093 28.3279C153.152 27.9954 153.474 30.0824 154.435 29.3635C155.543 28.5345 158.714 28.5749 158.511 29.2181C158.316 29.5687 158.147 30.3793 157.492 30.8177C156.197 31.6464 155.582 30.7795 154.803 30.3212C154.235 30.7539 153.643 31.1716 154.144 32.2719C154.144 32.2719 153.441 34.1794 155.308 33.8716C156.17 33.7294 157.564 34.1662 158.755 34.9319C159.816 35.6144 160.985 35.4712 160.985 35.4712C162.004 35.6295 163.023 35.8055 164.042 36.6346C163.879 37.329 164.085 38.2072 163.168 38.525L159.093 38.2342C158.855 37.818 155.533 37.2823 155.6 38.6705C155.634 39.3967 153.656 37.4542 153.656 37.4542C152.2 38.9084 150.24 41.2027 149.289 41.8168C148.869 42.1736 148.514 42.5628 148.904 43.3239C149.546 43.951 150.739 43.6609 150.651 45.5053C152.187 46.2891 152.468 47.6998 153.271 48.8499C150.49 49.2093 149.389 50.315 147.74 51.1767C146.016 51.5818 144.224 51.9236 144.101 53.7943C142.91 53.5119 141.472 52.9111 141.189 53.7943L142.208 55.8302C146.236 55.8419 147.986 56.511 145.847 58.3023L147.303 59.3203H151.67C151.547 60.2731 150.978 61.2601 152.543 62.0833L156.327 61.7924C157.129 62.6474 157.513 63.1899 158.802 64.41L159.384 65.428L158.22 66.3005L156.182 72.1174C155.668 71.6507 148.334 75.3321 148.904 75.462C149.697 75.643 143.581 73.1356 143.082 73.717C143.1 71.9439 143.153 70.0981 140.898 73.1353C140.752 74.0563 140.687 74.9773 139.879 75.8983L137.696 77.0617C137.696 77.0617 134.844 77.6605 135.658 77.2071C139.615 75.0034 133.719 74.6117 132.893 74.8804L129.399 73.717C128.463 73.717 125.524 70.1152 127.216 69.7906C129.228 69.4045 126.379 67.5384 124.887 67.4639C125.029 66.7221 122.992 66.3007 123.116 67.4501C123.161 67.8647 123.405 68.5371 122.995 68.4818C122.08 68.3587 117.4 66.8314 117.609 68.191C118.397 70.8749 117.851 71.3947 116.445 70.5177C115.43 72.5025 113.749 69.6073 112.369 68.9181C108.285 67.5133 106.001 67.518 106.984 70.0815C106.984 70.0815 105.352 66.0377 104.8 68.0456C104.156 70.3925 102.945 71.3179 102.763 70.954H101.598L101.016 74.0078C99.4762 74.684 97.8135 75.2679 96.7949 76.3346C97.1344 75.264 91.2161 73.889 92.4282 74.8804C92.9957 75.3446 87.6058 68.5366 86.897 68.7727C85.9886 68.9661 84.7379 68.8459 84.4418 69.712L86.3148 71.2448C85.5105 72.9547 85.9126 74.3029 86.4604 75.6075C86.3542 75.8409 83.3092 78.3455 83.5492 75.3166C83.6321 74.2713 82.8193 73.7837 83.4037 73.1353C84.8987 71.4767 83.7754 71.1029 82.3848 70.954C81.6054 70.8705 80.4926 68.7727 80.4926 68.7727L79.037 67.0276C79.1929 65.4702 77.4519 66.3335 76.1259 65.428C73.9964 63.9738 74.9115 62.9838 74.938 62.9573C74.3273 61.4354 72.6375 61.7341 72.1492 61.8019C70.7229 61.5342 69.2038 61.197 68.8392 61.7249C68.5483 61.8901 66.4508 62.1425 65.9325 61.4035C65.4495 60.715 65.1981 64.4834 63.4287 62.0656C63.2659 61.8432 62.0826 57.8292 61.8614 57.8661C61.7911 55.2907 59.5562 58.0021 58.368 58.1569C57.5242 57.7073 54.3421 60.1902 56.3302 61.5016C57.2146 62.0849 52.8369 61.647 51.9636 61.647C51.0902 61.647 48.5463 61.0746 49.7802 60.9199C53.3114 60.4773 51.1091 58.3587 49.198 58.0115L46.8691 58.4478C44.2689 55.3751 45.1177 57.4713 45.7046 59.1749C45.3115 59.5772 45.8878 60.3023 44.3946 60.3382C43.8124 57.289 43.2302 59.6363 42.648 62.0833C41.1704 62.0591 40.5625 63.2297 40.1735 64.7009C39.8674 64.3432 36.1198 65.8254 35.3701 67.4639C34.8531 68.594 32.6253 66.4709 32.6253 67.0319C29.8293 67.6478 30.1427 69.6277 30.9712 71.5606C28.5818 72.2438 26.52 73.0907 25.7634 74.5895C23.1145 75.3865 22.9486 74.7348 22.9979 75.8013C22.4194 75.6568 24.6707 83.2779 25.6179 84.0903C26.668 84.991 20.4463 87.8792 19.4707 87.3939C18.3503 86.8366 17.7414 83.441 16.5934 83.024C16.5934 83.024 14.5556 78.9522 13.3912 78.225C12.2267 77.4979 11.9356 77.3525 11.9356 77.3525C11.0232 78.2888 11.1556 80.3732 9.02448 79.9701C8.00492 81.4771 8.58586 83.1295 9.02448 84.769L4.94891 87.6774L3.93002 95.0939C7.27676 97.033 7.49621 99.4929 2.62001 102.801L0 109.781L6.69558 111.672C6.90689 114.338 6.38294 117.004 7.56892 119.67L9.17004 120.979C10.1925 120.794 9.72895 119.761 9.89782 119.088L11.9356 119.379C12.4384 120.48 15.2962 119.699 17.0301 119.816L21.2512 125.487C22.6579 127.184 23.5858 129.359 24.7446 131.304L26.6353 135.931C26.6493 136.639 26.0845 136.687 25.1388 136.3L23.5801 136.684C22.6815 135.783 21.6621 134.277 21.6879 137.993C22.3904 139.102 22.9796 139.191 23.5463 139.079L29.839 142.21L36.389 148.173L38.7179 152.099Z" fill="white" fill-opacity="0.2"/>
</svg>
