<svg width="345" height="268" viewBox="0 0 345 268" fill="none" xmlns="http://www.w3.org/2000/svg">
<path fill-rule="evenodd" clip-rule="evenodd" d="M31.1714 174.739L20.5075 196.29L39.6088 249.752C39.6088 249.752 49.7672 247.081 49.8442 246.422C49.9262 245.72 55.9901 238.234 56.8268 238.069C57.3452 237.967 63.0364 235.723 64.8038 236.052C66.3247 236.336 71.8454 242.72 71.7178 242.902C71.3358 245.185 72.723 247.468 74.0615 249.752C74.7518 252.185 75.2275 253.394 75.7021 254.597C77.6706 255.185 78.6723 254.813 80.2944 253.54L80.3895 187.603L102.069 177.412L123.577 202.109C123.577 202.109 130.311 214.835 131.014 214.835C131.717 214.835 140.14 212.29 140.14 212.29C140.16 212.251 151.531 213.135 151.356 213.635C150.873 215.013 155.222 210.314 155.222 210.314C157.07 213.108 158.741 215.986 160.889 218.638L163.123 226.195L165.577 223.384L164.646 241.565H169.099C169.099 241.565 169.574 248.238 169.568 249.585C169.56 251.338 170.505 256.936 170.505 256.936C170.505 256.936 175.054 257.879 176.365 256.936C177.723 255.958 181.505 256.721 181.169 256.601L182.927 259.442C182.454 260.536 181.738 261.432 181.99 263.117C182.073 263.83 185.811 268.9 186.56 266.458C187.02 264.959 186.144 262.449 186.091 262.449C185.764 260.991 187.742 259.942 187.615 259.609C187.443 259.16 188.266 255.948 189.958 255.933C190.874 255.925 189.958 251.924 190.779 251.924C191.599 251.924 192.888 250.086 192.888 250.086L195.7 247.246C196.785 247.015 197.826 246.745 198.044 245.742C198.044 245.742 199.637 244.992 200.036 243.737C201.923 237.817 202.346 240.727 203.786 240.897C202.792 239.852 205.495 236.731 206.599 237.222C207.046 237.421 205.31 235.885 205.31 235.885C205.433 236.149 207.176 234.183 206.833 233.045C206.382 231.549 207.427 230.196 208.005 230.539L208.708 228.2L210.231 227.365L211.755 227.532C211.991 226.709 214.334 227.999 215.622 227.699C216.287 227.544 220.957 228.72 220.661 229.704C220.898 229.066 221.953 229.974 222.184 231.875C222.265 232.534 224.426 231.423 225.49 231.801C226.554 232.18 226.52 234.047 226.52 234.047L227.692 234.214C228.053 234.059 227.2 231.637 227.235 230.468C227.269 229.299 227.694 228.203 228.085 226.448C228.558 224.326 228.142 222.953 228.312 222.953L230.483 221.674C233.635 219.471 235.917 219.673 237.301 222.353C239.575 225.014 240.82 225.035 242.575 226.362L246.09 226.863L247.344 224.327L253.473 225.36L257.223 224.023L258.864 225.193C258.864 224.449 265.074 225.401 265.778 226.195C266.358 226.852 270.113 225.772 270.113 225.772L274.126 228.004L275.738 227.532C275.709 228.795 275.713 229.997 276.441 229.871C276.441 229.871 277.145 231.541 277.613 231.875C278.082 232.21 277.662 233.508 278.082 233.212C279.009 232.559 282.713 233.293 282.535 233.546C282.271 233.923 284.474 239.637 284.879 238.558C285.107 237.951 283.824 230.539 283.824 229.704C283.824 228.868 284.782 226.676 284.782 226.676C286.284 226.779 286.801 225.829 287.457 225.026C287.457 225.026 285.153 224.033 285.622 223.365C286.091 222.697 288.277 221.016 288.277 221.016L289.449 222.019C289.23 215.726 286.916 209.315 285.602 203.022L285.699 197.46C285.699 197.46 285.707 196.114 285.699 194.62C285.693 193.33 287.168 193.416 286.802 192.379C286.243 190.792 284.092 190.759 284.092 190.759C284.092 190.759 282.887 192.114 282.418 191.445C281.949 190.777 281.262 189.294 281.262 189.294C282.269 188.149 282.784 186.582 285.348 186.767C286.289 185.577 288.033 184.765 290.756 184.311C292.704 183.985 294.51 182.671 296.129 181.588C297.111 179.628 299.013 185.856 299.176 185.097C299.449 183.823 302.51 183.08 303.629 185.431C303.629 185.431 305.738 182.257 304.918 180.419C304.097 178.581 302.222 179.751 301.988 178.08C301.754 176.409 303.16 173.903 303.277 172.901C303.394 171.898 304.449 164.548 304.449 164.548C304.449 164.548 306.09 158.867 306.441 157.364C306.793 155.86 307.73 152.519 307.73 152.519C308.085 150.648 307.227 146.742 309.254 147.674L316.167 152.352C317.259 151.427 319.513 151.709 321.792 152.018C321.792 152.018 322.69 156.678 323.199 155.192C324.019 152.797 328.238 150.093 328.238 150.514C328.691 150.791 332.122 145.108 330.699 145.001C329.867 144.938 328.791 138.507 328.941 136.814C329.058 135.488 330.612 128.105 330.464 127.125C330.275 125.87 332.65 125.136 334.772 125.531C336.007 125.762 337.459 123.335 338.433 122.781C339.84 121.98 339.809 117.622 339.487 116.766C338.377 113.811 342.516 112.031 344.409 114.26C345.674 115.75 343.355 110.752 343.355 110.752C343.355 110.752 341.944 109.402 341.362 109.75C340.695 110.148 339.657 106.426 339.722 106.241C339.424 105.441 338.82 105.077 338.081 104.905C338.188 104.48 338.061 103.888 338.784 103.902C339.435 103.568 339.617 103.234 339.722 102.9C339.828 101.802 339.455 101.386 338.902 101.229C338.511 100.882 338.12 100.85 337.73 102.065C337.545 103.458 337.07 104.385 336.004 104.365C335.38 103.376 335.23 107.764 334.917 107.411C334.442 106.873 330.804 105.302 330.581 105.239C329.349 103.947 327.93 104.519 326.48 105.406C326.696 102.523 325.41 100.253 324.342 98.4583C324.505 97.8981 325.394 97.2237 324.722 96.2172C323.011 95.3445 322.109 93.5114 319.214 94.0453C319.17 94.2643 317.341 91.1692 317.691 88.365C318.016 85.7563 316.614 85.625 316.057 85.2388C315.284 84.7035 316.167 82.8518 316.167 82.8518C314.41 81.613 312.652 80.0375 310.894 79.6776C309.655 79.2095 309.437 79.8748 309.162 80.4763C308.737 81.0255 308.974 81.9882 306.91 81.5153C304.301 80.3232 304.942 83.5063 304.097 84.6896C304.097 83.9502 299.195 83.922 300.699 85.1908C301.648 85.9913 297.748 83.4403 296.363 83.6872C296.323 84.4605 295.507 84.3289 294.254 83.6872C295.333 78.9421 293.236 80.1181 291.558 80.5129C291.422 78.8888 293.152 74.9666 290.855 76.0021L289.189 74.4967C288.411 73.2716 287.912 74.8337 287.34 75.6679C286.593 75.8109 285.381 75.4391 286.519 77.6728L286.168 80.5129C284.687 81.3773 282.735 82.0739 283.355 83.6872C283.355 83.6872 272.223 55.9541 271.52 53.9493C270.817 51.9445 266.481 42.7558 266.481 42.7558L263.199 36.0731L252.887 26.0491C253.427 26.0491 251.986 23.0807 252.356 22.5795C252.925 21.8075 254.394 23.836 254.996 23.0419C255.572 22.2828 256.221 19.7379 255.934 19.5335C256.047 18.3542 255.789 17.5727 255.465 16.8604C254.752 17.8429 254.232 18.9909 253.004 19.5335H250.661V21.2042C248.327 21.687 247.263 22.9746 245.856 24.0443L244.567 23.376C243.712 23.4798 243.151 23.8356 243.395 24.8796C243.692 25.3456 244.348 25.7688 243.395 26.3832C242.929 26.0252 240.702 29.6748 240.7 29.5575C240.67 27.982 237.77 28.7222 237.77 28.7222C237.573 29.578 237.83 30.5149 236.833 31.2282C236.058 30.7615 235.571 30.8276 235.895 32.3976C235.511 32.073 235.944 34.0141 235.895 35.0707C235.819 36.7197 233.566 32.9478 233.566 32.9478C232.975 32.0609 232.384 32.4093 231.794 32.3976C230.295 31.448 229.767 32.5751 228.864 32.8988C228.864 32.6436 227.337 36.1845 227.223 35.4048C227.009 33.9296 225.893 33.82 225.7 33.4C225.132 32.1605 225.748 32.4964 226.023 31.2282C226.161 30.5935 226.751 26.6791 228.395 28.0539L229.216 28.388C229.237 26.6534 229.702 25.6779 230.27 24.8796C229.656 25.1381 228.438 22.5656 228.512 26.0491C227.075 26.5175 225.723 25.9874 224.081 25.8719L223.708 24.0443C222.968 23.0557 221.695 23.3324 220.661 23.0419L219.724 24.2114C221.501 24.8583 221.416 25.7582 220.895 26.7174C219.838 26.1211 220.097 26.7753 219.958 27.0515C219.363 27.0433 218.262 27.4284 218.786 26.5503C218.461 25.5707 218.691 25.0653 218.903 24.5455C219.678 24.6908 218.934 23.444 218.2 22.2066L218.552 21.0371C217.443 20.2059 217.035 19.1751 216.442 18.1969L215.856 18.6981C216.079 19.8119 215.504 20.9257 216.911 22.0395C216.887 22.6738 216.86 23.3038 215.974 22.7078C212.62 19.4881 213.269 21.7833 213.044 22.8748C212.897 23.9894 211.951 23.8222 210.935 23.5431C210.292 21.2756 209.321 21.708 208.239 23.0419C207.708 23.397 207.4 21.3499 206.669 19.9959C206.669 19.9959 208.943 20.1585 208.474 19.1993C207.424 17.0539 209.081 12.7369 209.177 13.5191C209.332 14.7785 206.27 10.908 206.716 6.3352C206.834 5.12746 204.459 2.83301 205.31 2.65973C204.967 1.71184 204.335 1.69204 203.552 2.15853C202.765 1.12341 201.028 4.14251 200.249 4.63413C198.386 5.81105 196.31 1.43357 196.484 1.93066C195.531 1.5373 194.375 0.0586747 193.825 1.8244C192.949 -0.654811 192.385 0.434172 191.833 1.65733C191.236 -0.454084 190.161 -0.010462 189.138 0.153726C189.512 1.03696 189.88 1.9172 189.607 2.49266C188.908 1.16035 188.18 0.191551 187.263 1.65733L186.794 3.99626C185.476 4.19674 183.286 2.70409 183.044 4.99867C183.044 4.99867 185.036 4.8316 184.333 6.3352C183.63 7.8388 182.458 8.67414 182.458 8.67414C182.368 8.38375 179.47 6.80306 179.412 9.67654C179.401 10.2129 177.276 8.28367 175.878 10.171C175.05 11.2894 171.858 11.671 171.56 12.0155C169.319 12.8008 167.299 12.6442 164.763 14.6885C164.22 11.2026 163.016 13.5568 161.951 14.6885C160.515 13.8714 159.307 14.4676 158.201 15.6909C157.616 17.0275 157.925 18.364 158.318 19.7006L156.912 20.0347C156.138 18.0792 155.198 17.5469 153.982 19.3664C152.208 19.5512 150.31 19.7004 149.06 20.0347C148.541 20.3383 146.964 19.5528 148.24 21.7054L146.248 22.3736C146.141 20.0701 144.185 21.3457 142.615 21.8724C141.616 22.1785 140.749 22.6485 140.623 24.0443L137.693 23.7102C136.863 22.8304 134.189 25.5884 135.936 28.0539C136.726 29.1691 133.91 25.5378 133.91 25.5378C132.821 25.7168 131.451 23.7541 130.662 26.2162L128.787 26.0491C127.588 24.5937 127.007 25.7868 126.209 26.0491C125.64 25.6323 125.406 25.1196 125.389 24.5455L123.983 26.0491C123.33 26.4646 121.328 26.1933 123.514 28.0539L124.569 28.5551C124.356 28.2092 123.686 30.3633 123.162 31.2282C122.473 32.3661 121.405 30.894 121.405 30.894C121.895 31.8044 122.147 33.3912 123.254 32.5444C123.301 32.1624 123.561 34.56 124.334 33.7342C125.226 32.7818 127.779 32.8282 127.615 33.5671C127.458 33.97 127.323 34.9012 126.795 35.4048C125.753 36.3569 125.257 35.361 124.63 34.8344C124.173 35.3316 123.696 35.8114 124.1 37.0755C124.1 37.0755 123.534 39.2669 125.037 38.9132C125.731 38.75 126.853 39.2518 127.812 40.1315C128.666 40.9156 129.608 40.751 129.608 40.751C130.428 40.9329 131.248 41.135 132.068 42.0875C131.938 42.8854 132.103 43.8943 131.365 44.2594L128.084 43.9252C127.893 43.4471 125.218 42.8317 125.272 44.4264C125.3 45.2608 123.707 43.0291 123.707 43.0291C122.535 44.6998 120.957 47.3356 120.191 48.0411C119.853 48.451 119.567 48.8981 119.881 49.7726C120.398 50.493 121.359 50.1597 121.287 52.2786C122.524 53.1791 122.75 54.7998 123.397 56.1211C121.158 56.5339 120.272 57.8042 118.944 58.7942C117.556 59.2596 116.113 59.6523 116.014 61.8014C115.056 61.477 113.898 60.7868 113.67 61.8014L114.491 64.1403C117.733 64.1539 119.142 64.9225 117.42 66.9805L118.592 68.1499H122.108C122.009 69.2446 121.551 70.3785 122.811 71.3242L125.858 70.9901C126.503 71.9722 126.812 72.5955 127.85 73.9973L128.319 75.1668L127.381 76.1692L125.74 82.8518C125.327 82.3157 119.423 86.545 119.881 86.6944C120.52 86.9023 115.595 84.0216 115.194 84.6896C115.209 82.6525 115.251 80.532 113.436 84.0213C113.318 85.0794 113.266 86.1375 112.616 87.1956L110.858 88.5321C110.858 88.5321 108.562 89.22 109.217 88.6992C112.403 86.1675 107.656 85.7174 106.991 86.0261L104.178 84.6896C103.425 84.6896 101.059 80.5517 102.42 80.1788C104.04 79.7352 101.746 77.5913 100.545 77.5057C100.659 76.6535 99.0199 76.1694 99.1196 77.4899C99.1556 77.9662 99.3525 78.7386 99.0221 78.6752C98.2857 78.5337 94.5176 76.7791 94.6862 78.341C95.32 81.4245 94.8807 82.0216 93.7487 81.0141C92.9317 83.2943 91.5784 79.9681 90.4675 79.1764C87.1792 77.5625 85.34 77.5678 86.1316 80.5129C86.1316 80.5129 84.818 75.8673 84.3738 78.1739C83.8546 80.8702 82.8799 81.9334 82.7332 81.5153H81.7957L81.327 85.0237C80.0874 85.8005 78.7487 86.4714 77.9286 87.6968C78.202 86.4668 73.4372 84.8871 74.413 86.0261C74.8699 86.5594 70.5306 78.7381 69.96 79.0093C69.2286 79.2315 68.2217 79.0935 67.9832 80.0885L69.4912 81.8494C68.8436 83.8138 69.1674 85.3627 69.6084 86.8614C69.5229 87.1296 67.0714 90.007 67.2647 86.5273C67.3314 85.3263 66.677 84.7662 67.1475 84.0213C68.3511 82.1158 67.4468 81.6864 66.3272 81.5153C65.6997 81.4194 64.8038 79.0093 64.8038 79.0093L63.6319 77.0045C63.7574 75.2152 62.3558 76.207 61.2882 75.1668C59.5738 73.4961 60.3105 72.3587 60.3318 72.3284C59.8402 70.5799 58.4797 70.923 58.0866 71.0009C56.9383 70.6934 55.7153 70.306 55.4218 70.9125C55.1876 71.1022 53.4989 71.3922 53.0816 70.5433C52.6928 69.7522 52.4904 74.0815 51.0658 71.3039C50.9347 71.0484 49.9821 66.4369 49.804 66.4793C49.7475 63.5206 47.9481 66.6356 46.9915 66.8134C46.3122 66.2968 43.7503 69.1493 45.3509 70.6559C46.0629 71.3261 42.5385 70.823 41.8354 70.823C41.1322 70.823 39.0841 70.1654 40.0776 69.9877C42.9205 69.4792 41.1475 67.0452 39.6088 66.6463L37.7339 67.1475C35.6405 63.6176 36.3239 66.0257 36.7964 67.9829C36.4799 68.445 36.9439 69.2781 35.7417 69.3194C35.273 65.8163 34.8042 68.513 34.3355 71.3242C33.1459 71.2965 32.6565 72.6413 32.3433 74.3314C32.0968 73.9205 29.0797 75.6234 28.4762 77.5057C28.0599 78.804 26.2663 76.3649 26.2663 77.0094C24.0153 77.717 24.2676 79.9916 24.9346 82.2122C23.011 82.9971 21.351 83.97 20.7419 85.692C18.6093 86.6075 18.4757 85.8588 18.5154 87.0841C18.0497 86.9181 19.8621 95.6736 20.6247 96.6069C21.4702 97.6416 16.4611 100.96 15.6757 100.402C14.7736 99.762 14.2834 95.861 13.3592 95.3818C13.3592 95.3818 11.7186 90.704 10.7811 89.8686C9.84361 89.0333 9.60924 88.8662 9.60924 88.8662C8.8747 89.9419 8.98126 92.3365 7.26552 91.8734C6.44468 93.6048 6.91239 95.5031 7.26552 97.3866L3.98432 100.728L3.16402 109.248C5.85845 111.476 6.03513 114.302 2.10935 118.103L0 126.122L5.39055 128.294C5.56067 131.357 5.13884 134.42 6.09366 137.483L7.38271 138.986C8.20586 138.774 7.83268 137.587 7.96864 136.814L9.60924 137.149C10.0141 138.413 12.3149 137.515 13.7107 137.65L17.1091 144.165C18.2416 146.115 18.9887 148.614 19.9216 150.848L21.4438 156.164C21.4551 156.978 21.0004 157.033 20.239 156.588L18.9841 157.03C18.2607 155.994 17.44 154.264 17.4607 158.533C18.0263 159.807 18.5006 159.909 18.9569 159.78L24.0231 163.378L29.2965 170.228L31.1714 174.739Z" fill="white" fill-opacity="0.2"/>
</svg>
