<svg width="24" height="18" viewBox="0 0 24 18" fill="none" xmlns="http://www.w3.org/2000/svg">
<path d="M20.4833 0H3.51675C2.78321 0.000794094 2.07993 0.292545 1.56124 0.811239C1.04255 1.32993 0.750794 2.03321 0.75 2.76675V15.2333C0.750794 15.9668 1.04255 16.6701 1.56124 17.1888C2.07993 17.7075 2.78321 17.9992 3.51675 18H20.4833C21.2168 17.9992 21.9201 17.7075 22.4388 17.1888C22.9575 16.6701 23.2492 15.9668 23.25 15.2333V2.76675C23.2492 2.03321 22.9575 1.32993 22.4388 0.811239C21.9201 0.292545 21.2168 0.000794094 20.4833 0V0ZM3.51675 1.5H20.4833C20.8191 1.5004 21.1411 1.63399 21.3785 1.87146C21.616 2.10894 21.7496 2.43091 21.75 2.76675V3.3405L12 9.60825L2.25 3.3405V2.76675C2.2504 2.43091 2.38399 2.10894 2.62146 1.87146C2.85894 1.63399 3.18091 1.5004 3.51675 1.5V1.5ZM20.4833 16.5H3.51675C3.18091 16.4996 2.85894 16.366 2.62146 16.1285C2.38399 15.8911 2.2504 15.5691 2.25 15.2333V5.124L11.5942 11.1307C11.7153 11.2086 11.8561 11.25 12 11.25C12.1439 11.25 12.2847 11.2086 12.4058 11.1307L21.75 5.124V15.2333C21.7496 15.5691 21.616 15.8911 21.3785 16.1285C21.1411 16.366 20.8191 16.4996 20.4833 16.5V16.5Z" fill="#EC724A"/>
</svg>
