<svg width="165" height="340" viewBox="0 0 165 340" fill="none" xmlns="http://www.w3.org/2000/svg">
<path fill-rule="evenodd" clip-rule="evenodd" d="M124.592 0.214646H39.8421C32.8655 0.214646 27.646 0.214813 23.5044 0.553162C19.3654 0.891306 16.3218 1.56615 13.6938 2.90508C9.04872 5.27165 5.27214 9.04787 2.90535 13.6925C1.5663 16.3203 0.891389 19.3636 0.553214 23.5023C0.214833 27.6434 0.214666 32.8625 0.214666 39.8384V300.162C0.214666 307.138 0.214833 312.357 0.553214 316.498C0.891389 320.636 1.5663 323.68 2.90535 326.307C5.27214 330.952 9.04872 334.728 13.6938 337.095C16.3218 338.434 19.3654 339.109 23.5044 339.447C27.646 339.785 32.8655 339.785 39.8421 339.785H124.592C131.569 339.785 136.789 339.785 140.93 339.447C145.069 339.109 148.113 338.434 150.741 337.095C155.386 334.728 159.162 330.952 161.529 326.307C162.868 323.68 163.543 320.636 163.881 316.498C164.22 312.357 164.22 307.138 164.22 300.162V39.8384C164.22 32.8625 164.22 27.6434 163.881 23.5023C163.543 19.3636 162.868 16.3203 161.529 13.6925C159.162 9.04787 155.386 5.27165 150.741 2.90508C148.113 1.56615 145.069 0.891306 140.93 0.553162C136.789 0.214813 131.569 0.214646 124.592 0.214646ZM2.71408 13.5951C0 18.9213 0 25.8936 0 39.8384V300.162C0 314.106 0 321.079 2.71408 326.405C5.10145 331.09 8.91087 334.899 13.5964 337.286C18.923 340 25.8961 340 39.8421 340H124.592C138.538 340 145.511 340 150.838 337.286C155.524 334.899 159.333 331.09 161.72 326.405C164.435 321.079 164.435 314.106 164.435 300.162V39.8384C164.435 25.8936 164.435 18.9213 161.72 13.5951C159.333 8.91004 155.524 5.10098 150.838 2.71383C145.511 0 138.538 0 124.592 0H39.8421C25.8961 0 18.923 0 13.5964 2.71383C8.91087 5.10098 5.10145 8.91004 2.71408 13.5951Z" fill="#EC724A"/>
<path fill-rule="evenodd" clip-rule="evenodd" d="M2.71408 13.5951C0 18.9213 0 25.8936 0 39.8384V300.162C0 314.106 0 321.079 2.71408 326.405C5.10145 331.09 8.91087 334.899 13.5964 337.286C18.923 340 25.8961 340 39.8421 340H124.592C138.538 340 145.511 340 150.838 337.286C155.524 334.899 159.333 331.09 161.72 326.405C164.435 321.079 164.435 314.106 164.435 300.162V39.8384C164.435 25.8936 164.435 18.9213 161.72 13.5951C159.333 8.91004 155.524 5.10098 150.838 2.71383C145.511 0 138.538 0 124.592 0H39.8421C25.8961 0 18.923 0 13.5964 2.71383C8.91087 5.10098 5.10145 8.91004 2.71408 13.5951ZM7.08301 37.2567C7.08301 26.6949 7.08301 21.414 9.13385 17.3799C10.9378 13.8315 13.8163 10.9465 17.3568 9.13846C21.1461 7.20338 26.0379 7.09005 35.3908 7.08341C35.7981 7.08312 36.0018 7.08298 36.1654 7.13851C36.4732 7.24304 36.7152 7.48546 36.8197 7.79388C36.8752 7.95773 36.8752 8.16089 36.8752 8.56718V8.56727C36.8752 11.818 36.8752 13.4434 37.319 14.7537C38.1548 17.2212 40.088 19.1587 42.5499 19.9963C43.8573 20.4411 45.479 20.4411 48.7224 20.4411H115.711C118.955 20.4411 120.577 20.4411 121.884 19.9963C124.346 19.1587 126.279 17.2212 127.115 14.7537C127.559 13.4434 127.559 11.818 127.559 8.56727C127.559 8.16092 127.559 7.95775 127.614 7.79388C127.719 7.48546 127.961 7.24304 128.269 7.13851C128.432 7.08298 128.636 7.08312 129.043 7.08341C138.396 7.09005 143.288 7.20338 147.077 9.13846C150.618 10.9465 153.496 13.8315 155.3 17.3799C157.351 21.414 157.351 26.6949 157.351 37.2567V302.743C157.351 313.305 157.351 318.586 155.3 322.62C153.496 326.168 150.618 329.053 147.077 330.861C143.052 332.917 137.783 332.917 127.245 332.917H37.1888C26.6508 332.917 21.3818 332.917 17.3568 330.861C13.8163 329.053 10.9378 326.168 9.13385 322.62C7.08301 318.586 7.08301 313.305 7.08301 302.743V37.2567Z" fill="white"/>
<rect width="124.97" height="19.7321" transform="translate(19.7324 100.685)" fill="white" fill-opacity="0.7"/>
<path d="M58.2578 109.952H59.1602C59.6022 109.952 59.9668 109.879 60.2539 109.733C60.5456 109.583 60.762 109.38 60.9033 109.125C61.0492 108.865 61.1221 108.573 61.1221 108.25C61.1221 107.867 61.0583 107.546 60.9307 107.286C60.8031 107.026 60.6117 106.83 60.3564 106.698C60.1012 106.566 59.7777 106.5 59.3857 106.5C59.0303 106.5 58.7158 106.571 58.4424 106.712C58.1735 106.849 57.9616 107.044 57.8066 107.3C57.6562 107.555 57.5811 107.856 57.5811 108.202H56.3164C56.3164 107.696 56.444 107.236 56.6992 106.821C56.9544 106.406 57.3122 106.076 57.7725 105.83C58.2373 105.584 58.7751 105.461 59.3857 105.461C59.9873 105.461 60.5137 105.568 60.9648 105.782C61.416 105.992 61.7669 106.306 62.0176 106.725C62.2682 107.14 62.3936 107.657 62.3936 108.277C62.3936 108.528 62.3343 108.797 62.2158 109.084C62.1019 109.366 61.9219 109.631 61.6758 109.877C61.4342 110.123 61.1198 110.326 60.7324 110.485C60.3451 110.64 59.8802 110.718 59.3379 110.718H58.2578V109.952ZM58.2578 110.991V110.232H59.3379C59.9714 110.232 60.4954 110.307 60.9102 110.458C61.3249 110.608 61.6507 110.809 61.8877 111.059C62.1292 111.31 62.2979 111.586 62.3936 111.887C62.4938 112.183 62.5439 112.479 62.5439 112.775C62.5439 113.24 62.4642 113.653 62.3047 114.013C62.1497 114.373 61.9287 114.678 61.6416 114.929C61.359 115.179 61.0264 115.368 60.6436 115.496C60.2607 115.624 59.8438 115.687 59.3926 115.687C58.9596 115.687 58.5518 115.626 58.1689 115.503C57.7907 115.38 57.4557 115.202 57.1641 114.97C56.8724 114.733 56.6445 114.443 56.4805 114.101C56.3164 113.755 56.2344 113.361 56.2344 112.919H57.499C57.499 113.265 57.5742 113.568 57.7246 113.828C57.8796 114.088 58.0983 114.291 58.3809 114.436C58.668 114.578 59.0052 114.648 59.3926 114.648C59.7799 114.648 60.1126 114.582 60.3906 114.45C60.6732 114.313 60.8896 114.108 61.04 113.835C61.195 113.561 61.2725 113.217 61.2725 112.803C61.2725 112.388 61.1859 112.048 61.0127 111.784C60.8395 111.515 60.5934 111.317 60.2744 111.189C59.96 111.057 59.5885 110.991 59.1602 110.991H58.2578ZM70.8086 114.512V115.551H64.2939V114.641L67.5547 111.012C67.9557 110.565 68.2656 110.187 68.4844 109.877C68.7077 109.562 68.8626 109.282 68.9492 109.036C69.0404 108.785 69.0859 108.53 69.0859 108.27C69.0859 107.942 69.0176 107.646 68.8809 107.382C68.7487 107.113 68.5527 106.899 68.293 106.739C68.0332 106.58 67.7188 106.5 67.3496 106.5C66.9076 106.5 66.5384 106.586 66.2422 106.76C65.9505 106.928 65.7318 107.165 65.5859 107.471C65.4401 107.776 65.3672 108.127 65.3672 108.523H64.1025C64.1025 107.963 64.2256 107.45 64.4717 106.985C64.7178 106.52 65.0824 106.151 65.5654 105.878C66.0485 105.6 66.6432 105.461 67.3496 105.461C67.9785 105.461 68.5163 105.572 68.9629 105.796C69.4095 106.015 69.7513 106.324 69.9883 106.725C70.2298 107.122 70.3506 107.587 70.3506 108.12C70.3506 108.412 70.3005 108.708 70.2002 109.009C70.1045 109.305 69.9701 109.601 69.7969 109.897C69.6283 110.194 69.43 110.485 69.2021 110.772C68.9788 111.059 68.7396 111.342 68.4844 111.62L65.8184 114.512H70.8086ZM78.4102 109.781V111.299C78.4102 112.114 78.3372 112.803 78.1914 113.363C78.0456 113.924 77.8359 114.375 77.5625 114.717C77.2891 115.058 76.9587 115.307 76.5713 115.462C76.1885 115.612 75.7555 115.687 75.2725 115.687C74.8896 115.687 74.5365 115.64 74.2129 115.544C73.8893 115.448 73.5977 115.295 73.3379 115.086C73.0827 114.872 72.8639 114.594 72.6816 114.252C72.4993 113.91 72.3604 113.495 72.2646 113.008C72.1689 112.52 72.1211 111.95 72.1211 111.299V109.781C72.1211 108.965 72.194 108.282 72.3398 107.73C72.4902 107.179 72.7021 106.737 72.9756 106.404C73.249 106.067 73.5771 105.825 73.96 105.68C74.3473 105.534 74.7803 105.461 75.2588 105.461C75.6462 105.461 76.0016 105.509 76.3252 105.604C76.6533 105.696 76.945 105.844 77.2002 106.049C77.4554 106.249 77.6719 106.518 77.8496 106.855C78.0319 107.188 78.1709 107.596 78.2666 108.079C78.3623 108.562 78.4102 109.129 78.4102 109.781ZM77.1387 111.504V109.569C77.1387 109.123 77.1113 108.731 77.0566 108.393C77.0065 108.052 76.9313 107.76 76.8311 107.518C76.7308 107.277 76.6032 107.081 76.4482 106.931C76.2979 106.78 76.1224 106.671 75.9219 106.602C75.7259 106.53 75.5049 106.493 75.2588 106.493C74.958 106.493 74.6914 106.55 74.459 106.664C74.2266 106.773 74.0306 106.949 73.8711 107.19C73.7161 107.432 73.5977 107.749 73.5156 108.141C73.4336 108.532 73.3926 109.009 73.3926 109.569V111.504C73.3926 111.95 73.4176 112.345 73.4678 112.686C73.5225 113.028 73.6022 113.324 73.707 113.575C73.8118 113.821 73.9395 114.024 74.0898 114.183C74.2402 114.343 74.4134 114.461 74.6094 114.539C74.8099 114.612 75.0309 114.648 75.2725 114.648C75.5824 114.648 75.8535 114.589 76.0859 114.471C76.3184 114.352 76.512 114.168 76.667 113.917C76.8265 113.662 76.945 113.336 77.0225 112.939C77.0999 112.538 77.1387 112.06 77.1387 111.504ZM84.501 108.154L86.1211 110.848L87.7617 108.154H89.2451L86.8252 111.805L89.3203 115.551H87.8574L86.1484 112.775L84.4395 115.551H82.9697L85.458 111.805L83.0449 108.154H84.501ZM95.5273 110.813L94.5156 110.554L95.0146 105.598H100.121V106.766H96.0879L95.7871 109.474C95.9694 109.369 96.1995 109.271 96.4775 109.18C96.7601 109.088 97.0837 109.043 97.4482 109.043C97.9085 109.043 98.321 109.123 98.6855 109.282C99.0501 109.437 99.36 109.66 99.6152 109.952C99.875 110.244 100.073 110.595 100.21 111.005C100.347 111.415 100.415 111.873 100.415 112.379C100.415 112.857 100.349 113.297 100.217 113.698C100.089 114.099 99.8955 114.45 99.6357 114.751C99.376 115.047 99.0479 115.277 98.6514 115.441C98.2594 115.605 97.7969 115.687 97.2637 115.687C96.8626 115.687 96.4821 115.633 96.1221 115.523C95.7666 115.409 95.4476 115.238 95.165 115.011C94.887 114.778 94.6592 114.491 94.4814 114.149C94.3083 113.803 94.1989 113.397 94.1533 112.932H95.3564C95.4111 113.306 95.5205 113.621 95.6846 113.876C95.8486 114.131 96.0628 114.325 96.3271 114.457C96.596 114.585 96.9082 114.648 97.2637 114.648C97.5645 114.648 97.8311 114.596 98.0635 114.491C98.2959 114.386 98.4919 114.236 98.6514 114.04C98.8109 113.844 98.9316 113.607 99.0137 113.329C99.1003 113.051 99.1436 112.739 99.1436 112.392C99.1436 112.078 99.1003 111.786 99.0137 111.517C98.9271 111.249 98.7972 111.014 98.624 110.813C98.4554 110.613 98.248 110.458 98.002 110.349C97.7559 110.235 97.4733 110.178 97.1543 110.178C96.7305 110.178 96.4092 110.235 96.1904 110.349C95.9762 110.462 95.7552 110.617 95.5273 110.813ZM108.051 109.781V111.299C108.051 112.114 107.978 112.803 107.832 113.363C107.686 113.924 107.477 114.375 107.203 114.717C106.93 115.058 106.599 115.307 106.212 115.462C105.829 115.612 105.396 115.687 104.913 115.687C104.53 115.687 104.177 115.64 103.854 115.544C103.53 115.448 103.238 115.295 102.979 115.086C102.723 114.872 102.505 114.594 102.322 114.252C102.14 113.91 102.001 113.495 101.905 113.008C101.81 112.52 101.762 111.95 101.762 111.299V109.781C101.762 108.965 101.835 108.282 101.98 107.73C102.131 107.179 102.343 106.737 102.616 106.404C102.89 106.067 103.218 105.825 103.601 105.68C103.988 105.534 104.421 105.461 104.899 105.461C105.287 105.461 105.642 105.509 105.966 105.604C106.294 105.696 106.586 105.844 106.841 106.049C107.096 106.249 107.312 106.518 107.49 106.855C107.673 107.188 107.812 107.596 107.907 108.079C108.003 108.562 108.051 109.129 108.051 109.781ZM106.779 111.504V109.569C106.779 109.123 106.752 108.731 106.697 108.393C106.647 108.052 106.572 107.76 106.472 107.518C106.371 107.277 106.244 107.081 106.089 106.931C105.938 106.78 105.763 106.671 105.562 106.602C105.367 106.53 105.146 106.493 104.899 106.493C104.599 106.493 104.332 106.55 104.1 106.664C103.867 106.773 103.671 106.949 103.512 107.19C103.357 107.432 103.238 107.749 103.156 108.141C103.074 108.532 103.033 109.009 103.033 109.569V111.504C103.033 111.95 103.058 112.345 103.108 112.686C103.163 113.028 103.243 113.324 103.348 113.575C103.452 113.821 103.58 114.024 103.73 114.183C103.881 114.343 104.054 114.461 104.25 114.539C104.451 114.612 104.672 114.648 104.913 114.648C105.223 114.648 105.494 114.589 105.727 114.471C105.959 114.352 106.153 114.168 106.308 113.917C106.467 113.662 106.586 113.336 106.663 112.939C106.741 112.538 106.779 112.06 106.779 111.504Z" fill="#2B2B2B"/>
</svg>
