<svg width="575" height="331" viewBox="0 0 575 331" fill="none" xmlns="http://www.w3.org/2000/svg">
<path d="M83.9023 1H493.379C508.29 1 520.379 13.0883 520.379 28V312.022C520.379 313.679 519.035 315.022 517.379 315.022H59.9023C58.2455 315.022 56.9023 313.679 56.9023 312.022V28C56.9023 13.0883 68.9907 1 83.9023 1Z" fill="white" stroke="white" stroke-width="2"/>
<path d="M58.7539 24.8518C58.7539 12.7015 68.6036 2.85181 80.7539 2.85181H496.526C508.676 2.85181 518.526 12.7015 518.526 24.8518V304.042H58.7539V24.8518Z" fill="white"/>
<rect x="67.8818" y="17.6833" width="439.236" height="273.81" fill="#EC724A"/>
<path d="M0 315.74C0 314.635 0.895431 313.74 2 313.74H573C574.105 313.74 575 314.635 575 315.74V324.008H0V315.74Z" fill="white"/>
<path d="M0 315.74C0 314.635 0.895431 313.74 2 313.74H573C574.105 313.74 575 314.635 575 315.74V324.008H0V315.74Z" fill="white"/>
<path d="M0 324.008H575V324.008C552.429 328.56 529.46 330.853 506.435 330.853H62.3585C41.3849 330.853 20.4742 328.558 0 324.008V324.008Z" fill="white"/>
<path d="M0 324.008H575V324.008C552.429 328.56 529.46 330.853 506.435 330.853H62.3585C41.3849 330.853 20.4742 328.558 0 324.008V324.008Z" fill="white"/>
<path fill-rule="evenodd" clip-rule="evenodd" d="M240.173 313.74C240.466 318.2 244.177 321.726 248.711 321.726H326.86C331.394 321.726 335.105 318.2 335.398 313.74H240.173Z" fill="white"/>
<path fill-rule="evenodd" clip-rule="evenodd" d="M240.173 313.74C240.466 318.2 244.177 321.726 248.711 321.726H326.86C331.394 321.726 335.105 318.2 335.398 313.74H240.173Z" fill="white"/>
<rect width="253" height="23" transform="translate(78 43)" fill="white" fill-opacity="0.7"/>
<path d="M179.952 58.4404H180.082C180.811 58.4404 181.404 58.3379 181.859 58.1328C182.315 57.9277 182.666 57.652 182.912 57.3057C183.158 56.9593 183.327 56.5697 183.418 56.1367C183.509 55.6992 183.555 55.2503 183.555 54.79V53.2656C183.555 52.8145 183.502 52.4134 183.397 52.0625C183.297 51.7116 183.156 51.4176 182.974 51.1807C182.796 50.9437 182.593 50.7637 182.365 50.6406C182.137 50.5176 181.896 50.4561 181.641 50.4561C181.349 50.4561 181.087 50.5153 180.854 50.6338C180.627 50.7477 180.433 50.9095 180.273 51.1191C180.118 51.3288 180 51.5749 179.918 51.8574C179.836 52.14 179.795 52.4476 179.795 52.7803C179.795 53.0765 179.831 53.3636 179.904 53.6416C179.977 53.9196 180.089 54.1702 180.239 54.3936C180.39 54.6169 180.576 54.7946 180.8 54.9268C181.028 55.0544 181.294 55.1182 181.6 55.1182C181.882 55.1182 182.146 55.0635 182.393 54.9541C182.643 54.8402 182.864 54.6875 183.056 54.4961C183.252 54.3001 183.407 54.0791 183.521 53.833C183.639 53.5869 183.707 53.3294 183.726 53.0605H184.327C184.327 53.4388 184.252 53.8125 184.102 54.1816C183.956 54.5462 183.751 54.8789 183.486 55.1797C183.222 55.4805 182.912 55.722 182.557 55.9043C182.201 56.082 181.814 56.1709 181.395 56.1709C180.902 56.1709 180.476 56.0752 180.116 55.8838C179.756 55.6924 179.46 55.4372 179.228 55.1182C179 54.7992 178.829 54.4437 178.715 54.0518C178.605 53.6553 178.551 53.2542 178.551 52.8486C178.551 52.3747 178.617 51.9303 178.749 51.5156C178.881 51.1009 179.077 50.7363 179.337 50.4219C179.597 50.1029 179.918 49.8545 180.301 49.6768C180.688 49.499 181.135 49.4102 181.641 49.4102C182.21 49.4102 182.696 49.5241 183.097 49.752C183.498 49.9798 183.824 50.2852 184.074 50.668C184.329 51.0508 184.516 51.4814 184.635 51.96C184.753 52.4385 184.812 52.9307 184.812 53.4365V53.8945C184.812 54.4095 184.778 54.9336 184.71 55.4668C184.646 55.9954 184.521 56.5013 184.334 56.9844C184.152 57.4674 183.885 57.9004 183.534 58.2832C183.183 58.6615 182.725 58.9622 182.16 59.1855C181.6 59.4043 180.907 59.5137 180.082 59.5137H179.952V58.4404ZM193.002 49.5469V50.2578L188.88 59.5H187.547L191.662 50.5859H186.275V49.5469H193.002ZM200.692 53.7305V55.248C200.692 56.0638 200.619 56.752 200.474 57.3125C200.328 57.873 200.118 58.3242 199.845 58.666C199.571 59.0078 199.241 59.2562 198.854 59.4111C198.471 59.5615 198.038 59.6367 197.555 59.6367C197.172 59.6367 196.819 59.5889 196.495 59.4932C196.172 59.3975 195.88 59.2448 195.62 59.0352C195.365 58.821 195.146 58.543 194.964 58.2012C194.782 57.8594 194.643 57.4447 194.547 56.957C194.451 56.4694 194.403 55.8997 194.403 55.248V53.7305C194.403 52.9147 194.476 52.2311 194.622 51.6797C194.772 51.1283 194.984 50.6862 195.258 50.3535C195.531 50.0163 195.859 49.7747 196.242 49.6289C196.63 49.4831 197.062 49.4102 197.541 49.4102C197.928 49.4102 198.284 49.458 198.607 49.5537C198.936 49.6449 199.227 49.793 199.482 49.998C199.738 50.1986 199.954 50.4674 200.132 50.8047C200.314 51.1374 200.453 51.5452 200.549 52.0283C200.645 52.5114 200.692 53.0788 200.692 53.7305ZM199.421 55.4531V53.5186C199.421 53.0719 199.394 52.68 199.339 52.3428C199.289 52.001 199.214 51.7093 199.113 51.4678C199.013 51.2262 198.885 51.0303 198.73 50.8799C198.58 50.7295 198.405 50.6201 198.204 50.5518C198.008 50.4788 197.787 50.4424 197.541 50.4424C197.24 50.4424 196.974 50.4993 196.741 50.6133C196.509 50.7227 196.313 50.8981 196.153 51.1396C195.998 51.3812 195.88 51.6979 195.798 52.0898C195.716 52.4818 195.675 52.958 195.675 53.5186V55.4531C195.675 55.8997 195.7 56.2939 195.75 56.6357C195.805 56.9775 195.884 57.2738 195.989 57.5244C196.094 57.7705 196.222 57.9733 196.372 58.1328C196.522 58.2923 196.696 58.4108 196.892 58.4883C197.092 58.5612 197.313 58.5977 197.555 58.5977C197.865 58.5977 198.136 58.5384 198.368 58.4199C198.601 58.3014 198.794 58.1169 198.949 57.8662C199.109 57.611 199.227 57.2852 199.305 56.8887C199.382 56.4876 199.421 56.0091 199.421 55.4531ZM206.783 52.1035L208.403 54.7969L210.044 52.1035H211.527L209.107 55.7539L211.603 59.5H210.14L208.431 56.7246L206.722 59.5H205.252L207.74 55.7539L205.327 52.1035H206.783ZM217.468 58.4404H217.598C218.327 58.4404 218.919 58.3379 219.375 58.1328C219.831 57.9277 220.182 57.652 220.428 57.3057C220.674 56.9593 220.842 56.5697 220.934 56.1367C221.025 55.6992 221.07 55.2503 221.07 54.79V53.2656C221.07 52.8145 221.018 52.4134 220.913 52.0625C220.813 51.7116 220.672 51.4176 220.489 51.1807C220.312 50.9437 220.109 50.7637 219.881 50.6406C219.653 50.5176 219.411 50.4561 219.156 50.4561C218.865 50.4561 218.603 50.5153 218.37 50.6338C218.142 50.7477 217.949 50.9095 217.789 51.1191C217.634 51.3288 217.516 51.5749 217.434 51.8574C217.352 52.14 217.311 52.4476 217.311 52.7803C217.311 53.0765 217.347 53.3636 217.42 53.6416C217.493 53.9196 217.604 54.1702 217.755 54.3936C217.905 54.6169 218.092 54.7946 218.315 54.9268C218.543 55.0544 218.81 55.1182 219.115 55.1182C219.398 55.1182 219.662 55.0635 219.908 54.9541C220.159 54.8402 220.38 54.6875 220.571 54.4961C220.767 54.3001 220.922 54.0791 221.036 53.833C221.155 53.5869 221.223 53.3294 221.241 53.0605H221.843C221.843 53.4388 221.768 53.8125 221.617 54.1816C221.471 54.5462 221.266 54.8789 221.002 55.1797C220.738 55.4805 220.428 55.722 220.072 55.9043C219.717 56.082 219.329 56.1709 218.91 56.1709C218.418 56.1709 217.992 56.0752 217.632 55.8838C217.272 55.6924 216.976 55.4372 216.743 55.1182C216.515 54.7992 216.344 54.4437 216.23 54.0518C216.121 53.6553 216.066 53.2542 216.066 52.8486C216.066 52.3747 216.132 51.9303 216.265 51.5156C216.397 51.1009 216.593 50.7363 216.853 50.4219C217.112 50.1029 217.434 49.8545 217.816 49.6768C218.204 49.499 218.65 49.4102 219.156 49.4102C219.726 49.4102 220.211 49.5241 220.612 49.752C221.013 49.9798 221.339 50.2852 221.59 50.668C221.845 51.0508 222.032 51.4814 222.15 51.96C222.269 52.4385 222.328 52.9307 222.328 53.4365V53.8945C222.328 54.4095 222.294 54.9336 222.226 55.4668C222.162 55.9954 222.036 56.5013 221.85 56.9844C221.667 57.4674 221.401 57.9004 221.05 58.2832C220.699 58.6615 220.241 58.9622 219.676 59.1855C219.115 59.4043 218.423 59.5137 217.598 59.5137H217.468V58.4404ZM230.333 53.7305V55.248C230.333 56.0638 230.26 56.752 230.114 57.3125C229.968 57.873 229.759 58.3242 229.485 58.666C229.212 59.0078 228.882 59.2562 228.494 59.4111C228.111 59.5615 227.678 59.6367 227.195 59.6367C226.812 59.6367 226.459 59.5889 226.136 59.4932C225.812 59.3975 225.521 59.2448 225.261 59.0352C225.006 58.821 224.787 58.543 224.604 58.2012C224.422 57.8594 224.283 57.4447 224.188 56.957C224.092 56.4694 224.044 55.8997 224.044 55.248V53.7305C224.044 52.9147 224.117 52.2311 224.263 51.6797C224.413 51.1283 224.625 50.6862 224.898 50.3535C225.172 50.0163 225.5 49.7747 225.883 49.6289C226.27 49.4831 226.703 49.4102 227.182 49.4102C227.569 49.4102 227.924 49.458 228.248 49.5537C228.576 49.6449 228.868 49.793 229.123 49.998C229.378 50.1986 229.595 50.4674 229.772 50.8047C229.955 51.1374 230.094 51.5452 230.189 52.0283C230.285 52.5114 230.333 53.0788 230.333 53.7305ZM229.062 55.4531V53.5186C229.062 53.0719 229.034 52.68 228.979 52.3428C228.929 52.001 228.854 51.7093 228.754 51.4678C228.654 51.2262 228.526 51.0303 228.371 50.8799C228.221 50.7295 228.045 50.6201 227.845 50.5518C227.649 50.4788 227.428 50.4424 227.182 50.4424C226.881 50.4424 226.614 50.4993 226.382 50.6133C226.149 50.7227 225.953 50.8981 225.794 51.1396C225.639 51.3812 225.521 51.6979 225.438 52.0898C225.356 52.4818 225.315 52.958 225.315 53.5186V55.4531C225.315 55.8997 225.34 56.2939 225.391 56.6357C225.445 56.9775 225.525 57.2738 225.63 57.5244C225.735 57.7705 225.862 57.9733 226.013 58.1328C226.163 58.2923 226.336 58.4108 226.532 58.4883C226.733 58.5612 226.954 58.5977 227.195 58.5977C227.505 58.5977 227.776 58.5384 228.009 58.4199C228.241 58.3014 228.435 58.1169 228.59 57.8662C228.749 57.611 228.868 57.2852 228.945 56.8887C229.023 56.4876 229.062 56.0091 229.062 55.4531Z" fill="#2B2B2B"/>
<rect width="190.466" height="23.5467" transform="translate(77.8271 82.4355)" fill="white" fill-opacity="0.7"/>
<path d="M153.32 89.2557V89.9667L149.198 99.2089H147.865L151.98 90.2948H146.594V89.2557H153.32ZM161.284 98.1698V99.2089H154.77V98.2997L158.03 94.6698C158.431 94.2232 158.741 93.8449 158.96 93.535C159.183 93.2206 159.338 92.9403 159.425 92.6942C159.516 92.4436 159.562 92.1884 159.562 91.9286C159.562 91.6005 159.493 91.3042 159.356 91.0399C159.224 90.771 159.028 90.5568 158.769 90.3973C158.509 90.2378 158.194 90.1581 157.825 90.1581C157.383 90.1581 157.014 90.2447 156.718 90.4178C156.426 90.5865 156.207 90.8234 156.062 91.1288C155.916 91.4341 155.843 91.785 155.843 92.1815H154.578C154.578 91.621 154.701 91.1083 154.947 90.6434C155.193 90.1786 155.558 89.8094 156.041 89.536C156.524 89.258 157.119 89.119 157.825 89.119C158.454 89.119 158.992 89.2307 159.438 89.454C159.885 89.6727 160.227 89.9826 160.464 90.3837C160.705 90.7802 160.826 91.245 160.826 91.7782C160.826 92.0699 160.776 92.3661 160.676 92.6669C160.58 92.9631 160.446 93.2593 160.272 93.5555C160.104 93.8518 159.906 94.1434 159.678 94.4305C159.454 94.7177 159.215 95.0002 158.96 95.2782L156.294 98.1698H161.284ZM168.913 96.5155C168.913 97.1216 168.772 97.6366 168.489 98.0604C168.211 98.4797 167.833 98.7987 167.354 99.0175C166.881 99.2362 166.345 99.3456 165.748 99.3456C165.151 99.3456 164.613 99.2362 164.135 99.0175C163.656 98.7987 163.278 98.4797 163 98.0604C162.722 97.6366 162.583 97.1216 162.583 96.5155C162.583 96.119 162.658 95.7567 162.809 95.4286C162.964 95.0959 163.18 94.8065 163.458 94.5604C163.741 94.3143 164.073 94.1252 164.456 93.993C164.843 93.8563 165.27 93.788 165.734 93.788C166.345 93.788 166.89 93.9065 167.368 94.1434C167.847 94.3759 168.223 94.6971 168.496 95.1073C168.774 95.5175 168.913 95.9869 168.913 96.5155ZM167.642 96.4882C167.642 96.119 167.562 95.7932 167.402 95.5106C167.243 95.2235 167.02 95.0002 166.732 94.8407C166.445 94.6812 166.113 94.6014 165.734 94.6014C165.347 94.6014 165.012 94.6812 164.729 94.8407C164.451 95.0002 164.235 95.2235 164.08 95.5106C163.925 95.7932 163.848 96.119 163.848 96.4882C163.848 96.871 163.923 97.1991 164.073 97.4725C164.228 97.7414 164.447 97.9488 164.729 98.0946C165.017 98.2359 165.356 98.3065 165.748 98.3065C166.14 98.3065 166.477 98.2359 166.76 98.0946C167.042 97.9488 167.259 97.7414 167.409 97.4725C167.564 97.1991 167.642 96.871 167.642 96.4882ZM168.681 91.8466C168.681 92.3296 168.553 92.7649 168.298 93.1522C168.043 93.5396 167.694 93.8449 167.252 94.0682C166.81 94.2915 166.309 94.4032 165.748 94.4032C165.178 94.4032 164.67 94.2915 164.224 94.0682C163.782 93.8449 163.435 93.5396 163.185 93.1522C162.934 92.7649 162.809 92.3296 162.809 91.8466C162.809 91.2678 162.934 90.7756 163.185 90.37C163.44 89.9644 163.788 89.6545 164.23 89.4403C164.673 89.2261 165.176 89.119 165.741 89.119C166.311 89.119 166.817 89.2261 167.259 89.4403C167.701 89.6545 168.047 89.9644 168.298 90.37C168.553 90.7756 168.681 91.2678 168.681 91.8466ZM167.416 91.8671C167.416 91.5344 167.345 91.2404 167.204 90.9852C167.063 90.73 166.867 90.5295 166.616 90.3837C166.366 90.2333 166.074 90.1581 165.741 90.1581C165.409 90.1581 165.117 90.2287 164.866 90.37C164.62 90.5067 164.426 90.7027 164.285 90.9579C164.148 91.2131 164.08 91.5162 164.08 91.8671C164.08 92.2089 164.148 92.5074 164.285 92.7626C164.426 93.0178 164.622 93.216 164.873 93.3573C165.124 93.4986 165.415 93.5692 165.748 93.5692C166.081 93.5692 166.37 93.4986 166.616 93.3573C166.867 93.216 167.063 93.0178 167.204 92.7626C167.345 92.5074 167.416 92.2089 167.416 91.8671ZM174.977 91.8124L176.597 94.5057L178.237 91.8124H179.721L177.301 95.4628L179.796 99.2089H178.333L176.624 96.4335L174.915 99.2089H173.445L175.934 95.4628L173.521 91.8124H174.977ZM185.661 98.1493H185.791C186.52 98.1493 187.113 98.0468 187.568 97.8417C188.024 97.6366 188.375 97.3609 188.621 97.0145C188.867 96.6682 189.036 96.2785 189.127 95.8456C189.218 95.4081 189.264 94.9592 189.264 94.4989V92.9745C189.264 92.5233 189.211 92.1223 189.106 91.7714C189.006 91.4205 188.865 91.1265 188.683 90.8895C188.505 90.6525 188.302 90.4725 188.074 90.3495C187.846 90.2264 187.605 90.1649 187.35 90.1649C187.058 90.1649 186.796 90.2242 186.563 90.3427C186.336 90.4566 186.142 90.6184 185.982 90.828C185.827 91.0376 185.709 91.2837 185.627 91.5663C185.545 91.8488 185.504 92.1565 185.504 92.4891C185.504 92.7854 185.54 93.0725 185.613 93.3505C185.686 93.6285 185.798 93.8791 185.948 94.1024C186.099 94.3257 186.285 94.5035 186.509 94.6356C186.737 94.7632 187.003 94.827 187.309 94.827C187.591 94.827 187.855 94.7723 188.102 94.663C188.352 94.549 188.573 94.3964 188.765 94.205C188.961 94.009 189.116 93.788 189.229 93.5419C189.348 93.2958 189.416 93.0383 189.435 92.7694H190.036C190.036 93.1477 189.961 93.5214 189.811 93.8905C189.665 94.2551 189.46 94.5878 189.195 94.8885C188.931 95.1893 188.621 95.4309 188.266 95.6132C187.91 95.7909 187.523 95.8798 187.104 95.8798C186.611 95.8798 186.185 95.7841 185.825 95.5927C185.465 95.4012 185.169 95.146 184.937 94.827C184.709 94.508 184.538 94.1525 184.424 93.7606C184.314 93.3641 184.26 92.9631 184.26 92.5575C184.26 92.0835 184.326 91.6392 184.458 91.2245C184.59 90.8098 184.786 90.4452 185.046 90.1307C185.306 89.8117 185.627 89.5634 186.01 89.3856C186.397 89.2079 186.844 89.119 187.35 89.119C187.919 89.119 188.405 89.233 188.806 89.4608C189.207 89.6887 189.533 89.994 189.783 90.3768C190.038 90.7596 190.225 91.1903 190.344 91.6688C190.462 92.1473 190.521 92.6395 190.521 93.1454V93.6034C190.521 94.1184 190.487 94.6425 190.419 95.1757C190.355 95.7043 190.23 96.2102 190.043 96.6932C189.861 97.1763 189.594 97.6093 189.243 97.9921C188.892 98.3703 188.434 98.6711 187.869 98.8944C187.309 99.1132 186.616 99.2225 185.791 99.2225H185.661V98.1493ZM198.526 93.4393V94.9569C198.526 95.7727 198.453 96.4608 198.308 97.0214C198.162 97.5819 197.952 98.0331 197.679 98.3749C197.405 98.7167 197.075 98.965 196.688 99.12C196.305 99.2704 195.872 99.3456 195.389 99.3456C195.006 99.3456 194.653 99.2977 194.329 99.202C194.006 99.1063 193.714 98.9537 193.454 98.744C193.199 98.5298 192.98 98.2518 192.798 97.91C192.616 97.5682 192.477 97.1535 192.381 96.6659C192.285 96.1783 192.237 95.6086 192.237 94.9569V93.4393C192.237 92.6236 192.31 91.94 192.456 91.3885C192.606 90.8371 192.818 90.3951 193.092 90.0624C193.365 89.7251 193.693 89.4836 194.076 89.3378C194.464 89.1919 194.896 89.119 195.375 89.119C195.762 89.119 196.118 89.1669 196.441 89.2626C196.77 89.3537 197.061 89.5018 197.316 89.7069C197.572 89.9074 197.788 90.1763 197.966 90.5135C198.148 90.8462 198.287 91.2541 198.383 91.7372C198.479 92.2203 198.526 92.7876 198.526 93.4393ZM197.255 95.162V93.2274C197.255 92.7808 197.228 92.3889 197.173 92.0516C197.123 91.7098 197.048 91.4182 196.947 91.1766C196.847 90.9351 196.719 90.7391 196.564 90.5887C196.414 90.4384 196.239 90.329 196.038 90.2606C195.842 90.1877 195.621 90.1512 195.375 90.1512C195.074 90.1512 194.808 90.2082 194.575 90.3221C194.343 90.4315 194.147 90.607 193.987 90.8485C193.832 91.09 193.714 91.4068 193.632 91.7987C193.55 92.1906 193.509 92.6669 193.509 93.2274V95.162C193.509 95.6086 193.534 96.0028 193.584 96.3446C193.639 96.6864 193.718 96.9826 193.823 97.2333C193.928 97.4794 194.056 97.6822 194.206 97.8417C194.356 98.0012 194.53 98.1197 194.726 98.1971C194.926 98.2701 195.147 98.3065 195.389 98.3065C195.699 98.3065 195.97 98.2473 196.202 98.1288C196.435 98.0103 196.628 97.8257 196.783 97.5751C196.943 97.3199 197.061 96.994 197.139 96.5975C197.216 96.1965 197.255 95.718 197.255 95.162Z" fill="#404040"/>
<rect width="209" height="157" transform="translate(78 118)" fill="white" fill-opacity="0.7"/>
<path d="M158.603 185.807C158.603 186.413 158.461 186.928 158.179 187.352C157.901 187.771 157.522 188.09 157.044 188.309C156.57 188.527 156.035 188.637 155.438 188.637C154.84 188.637 154.303 188.527 153.824 188.309C153.346 188.09 152.967 187.771 152.689 187.352C152.411 186.928 152.272 186.413 152.272 185.807C152.272 185.41 152.348 185.048 152.498 184.72C152.653 184.387 152.869 184.098 153.147 183.852C153.43 183.605 153.763 183.416 154.146 183.284C154.533 183.147 154.959 183.079 155.424 183.079C156.035 183.079 156.579 183.198 157.058 183.435C157.536 183.667 157.912 183.988 158.186 184.398C158.464 184.809 158.603 185.278 158.603 185.807ZM157.331 185.779C157.331 185.41 157.251 185.084 157.092 184.802C156.932 184.515 156.709 184.291 156.422 184.132C156.135 183.972 155.802 183.893 155.424 183.893C155.036 183.893 154.701 183.972 154.419 184.132C154.141 184.291 153.924 184.515 153.77 184.802C153.615 185.084 153.537 185.41 153.537 185.779C153.537 186.162 153.612 186.49 153.763 186.764C153.918 187.033 154.136 187.24 154.419 187.386C154.706 187.527 155.046 187.598 155.438 187.598C155.829 187.598 156.167 187.527 156.449 187.386C156.732 187.24 156.948 187.033 157.099 186.764C157.254 186.49 157.331 186.162 157.331 185.779ZM158.37 181.138C158.37 181.621 158.243 182.056 157.987 182.443C157.732 182.831 157.383 183.136 156.941 183.359C156.499 183.583 155.998 183.694 155.438 183.694C154.868 183.694 154.36 183.583 153.913 183.359C153.471 183.136 153.125 182.831 152.874 182.443C152.623 182.056 152.498 181.621 152.498 181.138C152.498 180.559 152.623 180.067 152.874 179.661C153.129 179.256 153.478 178.946 153.92 178.731C154.362 178.517 154.866 178.41 155.431 178.41C156 178.41 156.506 178.517 156.948 178.731C157.39 178.946 157.737 179.256 157.987 179.661C158.243 180.067 158.37 180.559 158.37 181.138ZM157.105 181.158C157.105 180.826 157.035 180.532 156.894 180.276C156.752 180.021 156.556 179.821 156.306 179.675C156.055 179.524 155.763 179.449 155.431 179.449C155.098 179.449 154.806 179.52 154.556 179.661C154.31 179.798 154.116 179.994 153.975 180.249C153.838 180.504 153.77 180.807 153.77 181.158C153.77 181.5 153.838 181.799 153.975 182.054C154.116 182.309 154.312 182.507 154.562 182.648C154.813 182.79 155.105 182.86 155.438 182.86C155.77 182.86 156.06 182.79 156.306 182.648C156.556 182.507 156.752 182.309 156.894 182.054C157.035 181.799 157.105 181.5 157.105 181.158ZM166.45 182.73V184.248C166.45 185.064 166.377 185.752 166.231 186.312C166.086 186.873 165.876 187.324 165.603 187.666C165.329 188.008 164.999 188.256 164.611 188.411C164.229 188.562 163.796 188.637 163.312 188.637C162.93 188.637 162.576 188.589 162.253 188.493C161.929 188.397 161.638 188.245 161.378 188.035C161.123 187.821 160.904 187.543 160.722 187.201C160.539 186.859 160.4 186.445 160.305 185.957C160.209 185.469 160.161 184.9 160.161 184.248V182.73C160.161 181.915 160.234 181.231 160.38 180.68C160.53 180.128 160.742 179.686 161.016 179.354C161.289 179.016 161.617 178.775 162 178.629C162.387 178.483 162.82 178.41 163.299 178.41C163.686 178.41 164.042 178.458 164.365 178.554C164.693 178.645 164.985 178.793 165.24 178.998C165.495 179.199 165.712 179.467 165.89 179.805C166.072 180.137 166.211 180.545 166.307 181.028C166.402 181.511 166.45 182.079 166.45 182.73ZM165.179 184.453V182.519C165.179 182.072 165.151 181.68 165.097 181.343C165.047 181.001 164.971 180.709 164.871 180.468C164.771 180.226 164.643 180.03 164.488 179.88C164.338 179.729 164.162 179.62 163.962 179.552C163.766 179.479 163.545 179.442 163.299 179.442C162.998 179.442 162.731 179.499 162.499 179.613C162.267 179.723 162.071 179.898 161.911 180.14C161.756 180.381 161.638 180.698 161.556 181.09C161.474 181.482 161.433 181.958 161.433 182.519V184.453C161.433 184.9 161.458 185.294 161.508 185.636C161.562 185.978 161.642 186.274 161.747 186.524C161.852 186.771 161.979 186.973 162.13 187.133C162.28 187.292 162.453 187.411 162.649 187.488C162.85 187.561 163.071 187.598 163.312 187.598C163.622 187.598 163.894 187.538 164.126 187.42C164.358 187.301 164.552 187.117 164.707 186.866C164.867 186.611 164.985 186.285 165.062 185.889C165.14 185.488 165.179 185.009 165.179 184.453ZM174.325 182.73V184.248C174.325 185.064 174.252 185.752 174.106 186.312C173.961 186.873 173.751 187.324 173.478 187.666C173.204 188.008 172.874 188.256 172.486 188.411C172.104 188.562 171.671 188.637 171.188 188.637C170.805 188.637 170.451 188.589 170.128 188.493C169.804 188.397 169.513 188.245 169.253 188.035C168.998 187.821 168.779 187.543 168.597 187.201C168.414 186.859 168.275 186.445 168.18 185.957C168.084 185.469 168.036 184.9 168.036 184.248V182.73C168.036 181.915 168.109 181.231 168.255 180.68C168.405 180.128 168.617 179.686 168.891 179.354C169.164 179.016 169.492 178.775 169.875 178.629C170.262 178.483 170.695 178.41 171.174 178.41C171.561 178.41 171.917 178.458 172.24 178.554C172.568 178.645 172.86 178.793 173.115 178.998C173.37 179.199 173.587 179.467 173.765 179.805C173.947 180.137 174.086 180.545 174.182 181.028C174.277 181.511 174.325 182.079 174.325 182.73ZM173.054 184.453V182.519C173.054 182.072 173.026 181.68 172.972 181.343C172.922 181.001 172.846 180.709 172.746 180.468C172.646 180.226 172.518 180.03 172.363 179.88C172.213 179.729 172.037 179.62 171.837 179.552C171.641 179.479 171.42 179.442 171.174 179.442C170.873 179.442 170.606 179.499 170.374 179.613C170.142 179.723 169.946 179.898 169.786 180.14C169.631 180.381 169.513 180.698 169.431 181.09C169.349 181.482 169.308 181.958 169.308 182.519V184.453C169.308 184.9 169.333 185.294 169.383 185.636C169.438 185.978 169.517 186.274 169.622 186.524C169.727 186.771 169.854 186.973 170.005 187.133C170.155 187.292 170.328 187.411 170.524 187.488C170.725 187.561 170.946 187.598 171.188 187.598C171.497 187.598 171.769 187.538 172.001 187.42C172.233 187.301 172.427 187.117 172.582 186.866C172.742 186.611 172.86 186.285 172.938 185.889C173.015 185.488 173.054 185.009 173.054 184.453ZM180.416 181.104L182.036 183.797L183.677 181.104H185.16L182.74 184.754L185.235 188.5H183.772L182.063 185.725L180.354 188.5H178.885L181.373 184.754L178.96 181.104H180.416ZM194.696 178.533H194.806V179.606H194.696C194.026 179.606 193.466 179.716 193.015 179.935C192.563 180.149 192.206 180.438 191.941 180.803C191.677 181.163 191.486 181.568 191.367 182.02C191.253 182.471 191.196 182.929 191.196 183.394V184.856C191.196 185.299 191.249 185.69 191.354 186.032C191.458 186.369 191.602 186.654 191.784 186.887C191.966 187.119 192.172 187.295 192.399 187.413C192.632 187.532 192.873 187.591 193.124 187.591C193.416 187.591 193.675 187.536 193.903 187.427C194.131 187.313 194.323 187.156 194.478 186.955C194.637 186.75 194.758 186.508 194.84 186.23C194.922 185.952 194.963 185.647 194.963 185.314C194.963 185.018 194.926 184.733 194.854 184.46C194.781 184.182 194.669 183.936 194.519 183.722C194.368 183.503 194.179 183.332 193.951 183.209C193.728 183.081 193.461 183.018 193.151 183.018C192.8 183.018 192.472 183.104 192.167 183.277C191.866 183.446 191.618 183.669 191.422 183.947C191.23 184.221 191.121 184.519 191.094 184.843L190.424 184.836C190.488 184.326 190.606 183.89 190.779 183.53C190.957 183.166 191.176 182.869 191.436 182.642C191.7 182.409 191.994 182.241 192.317 182.136C192.646 182.026 192.992 181.972 193.356 181.972C193.853 181.972 194.282 182.065 194.642 182.252C195.002 182.439 195.298 182.689 195.53 183.004C195.763 183.314 195.934 183.665 196.043 184.057C196.157 184.444 196.214 184.843 196.214 185.253C196.214 185.722 196.148 186.162 196.016 186.572C195.883 186.982 195.685 187.342 195.421 187.652C195.161 187.962 194.84 188.204 194.457 188.377C194.074 188.55 193.63 188.637 193.124 188.637C192.586 188.637 192.117 188.527 191.716 188.309C191.315 188.085 190.982 187.789 190.718 187.42C190.453 187.051 190.255 186.641 190.123 186.189C189.991 185.738 189.925 185.28 189.925 184.815V184.221C189.925 183.519 189.995 182.831 190.137 182.156C190.278 181.482 190.522 180.871 190.868 180.324C191.219 179.777 191.704 179.342 192.324 179.019C192.944 178.695 193.735 178.533 194.696 178.533ZM203.966 182.73V184.248C203.966 185.064 203.893 185.752 203.747 186.312C203.601 186.873 203.392 187.324 203.118 187.666C202.845 188.008 202.514 188.256 202.127 188.411C201.744 188.562 201.311 188.637 200.828 188.637C200.445 188.637 200.092 188.589 199.769 188.493C199.445 188.397 199.153 188.245 198.894 188.035C198.638 187.821 198.42 187.543 198.237 187.201C198.055 186.859 197.916 186.445 197.82 185.957C197.725 185.469 197.677 184.9 197.677 184.248V182.73C197.677 181.915 197.75 181.231 197.896 180.68C198.046 180.128 198.258 179.686 198.531 179.354C198.805 179.016 199.133 178.775 199.516 178.629C199.903 178.483 200.336 178.41 200.814 178.41C201.202 178.41 201.557 178.458 201.881 178.554C202.209 178.645 202.501 178.793 202.756 178.998C203.011 179.199 203.228 179.467 203.405 179.805C203.588 180.137 203.727 180.545 203.822 181.028C203.918 181.511 203.966 182.079 203.966 182.73ZM202.694 184.453V182.519C202.694 182.072 202.667 181.68 202.612 181.343C202.562 181.001 202.487 180.709 202.387 180.468C202.286 180.226 202.159 180.03 202.004 179.88C201.854 179.729 201.678 179.62 201.478 179.552C201.282 179.479 201.061 179.442 200.814 179.442C200.514 179.442 200.247 179.499 200.015 179.613C199.782 179.723 199.586 179.898 199.427 180.14C199.272 180.381 199.153 180.698 199.071 181.09C198.989 181.482 198.948 181.958 198.948 182.519V184.453C198.948 184.9 198.973 185.294 199.023 185.636C199.078 185.978 199.158 186.274 199.263 186.524C199.368 186.771 199.495 186.973 199.646 187.133C199.796 187.292 199.969 187.411 200.165 187.488C200.366 187.561 200.587 187.598 200.828 187.598C201.138 187.598 201.409 187.538 201.642 187.42C201.874 187.301 202.068 187.117 202.223 186.866C202.382 186.611 202.501 186.285 202.578 185.889C202.656 185.488 202.694 185.009 202.694 184.453ZM211.841 182.73V184.248C211.841 185.064 211.768 185.752 211.622 186.312C211.476 186.873 211.267 187.324 210.993 187.666C210.72 188.008 210.389 188.256 210.002 188.411C209.619 188.562 209.186 188.637 208.703 188.637C208.32 188.637 207.967 188.589 207.644 188.493C207.32 188.397 207.028 188.245 206.769 188.035C206.513 187.821 206.295 187.543 206.112 187.201C205.93 186.859 205.791 186.445 205.695 185.957C205.6 185.469 205.552 184.9 205.552 184.248V182.73C205.552 181.915 205.625 181.231 205.771 180.68C205.921 180.128 206.133 179.686 206.406 179.354C206.68 179.016 207.008 178.775 207.391 178.629C207.778 178.483 208.211 178.41 208.689 178.41C209.077 178.41 209.432 178.458 209.756 178.554C210.084 178.645 210.376 178.793 210.631 178.998C210.886 179.199 211.103 179.467 211.28 179.805C211.463 180.137 211.602 180.545 211.697 181.028C211.793 181.511 211.841 182.079 211.841 182.73ZM210.569 184.453V182.519C210.569 182.072 210.542 181.68 210.487 181.343C210.437 181.001 210.362 180.709 210.262 180.468C210.161 180.226 210.034 180.03 209.879 179.88C209.729 179.729 209.553 179.62 209.353 179.552C209.157 179.479 208.936 179.442 208.689 179.442C208.389 179.442 208.122 179.499 207.89 179.613C207.657 179.723 207.461 179.898 207.302 180.14C207.147 180.381 207.028 180.698 206.946 181.09C206.864 181.482 206.823 181.958 206.823 182.519V184.453C206.823 184.9 206.848 185.294 206.898 185.636C206.953 185.978 207.033 186.274 207.138 186.524C207.243 186.771 207.37 186.973 207.521 187.133C207.671 187.292 207.844 187.411 208.04 187.488C208.241 187.561 208.462 187.598 208.703 187.598C209.013 187.598 209.284 187.538 209.517 187.42C209.749 187.301 209.943 187.117 210.098 186.866C210.257 186.611 210.376 186.285 210.453 185.889C210.531 185.488 210.569 185.009 210.569 184.453Z" fill="#202020"/>
<path d="M150.475 204.547V214.5H149.155V204.547H150.475ZM154.645 209.024V210.104H150.188V209.024H154.645ZM155.321 204.547V205.627H150.188V204.547H155.321ZM161.077 212.791V207.104H162.349V214.5H161.139L161.077 212.791ZM161.316 211.232L161.843 211.219C161.843 211.711 161.79 212.167 161.686 212.586C161.585 213.001 161.421 213.361 161.193 213.666C160.965 213.971 160.667 214.211 160.298 214.384C159.929 214.552 159.48 214.637 158.951 214.637C158.591 214.637 158.261 214.584 157.96 214.479C157.664 214.375 157.409 214.213 157.194 213.994C156.98 213.775 156.814 213.491 156.695 213.14C156.581 212.789 156.524 212.367 156.524 211.875V207.104H157.789V211.889C157.789 212.221 157.826 212.497 157.898 212.716C157.976 212.93 158.078 213.101 158.206 213.229C158.338 213.352 158.484 213.438 158.644 213.488C158.808 213.538 158.976 213.563 159.149 213.563C159.687 213.563 160.113 213.461 160.428 213.256C160.742 213.046 160.968 212.766 161.104 212.415C161.246 212.06 161.316 211.665 161.316 211.232ZM165.65 204V214.5H164.379V204H165.65ZM169.055 204V214.5H167.783V204H169.055ZM180.054 211.984C180.054 211.752 180.017 211.547 179.944 211.369C179.876 211.187 179.753 211.023 179.575 210.877C179.402 210.731 179.16 210.592 178.851 210.46C178.545 210.328 178.158 210.193 177.688 210.057C177.196 209.911 176.752 209.749 176.355 209.571C175.959 209.389 175.619 209.182 175.337 208.949C175.054 208.717 174.838 208.45 174.688 208.149C174.537 207.849 174.462 207.505 174.462 207.117C174.462 206.73 174.542 206.372 174.701 206.044C174.861 205.716 175.089 205.431 175.385 205.189C175.686 204.943 176.043 204.752 176.458 204.615C176.873 204.479 177.335 204.41 177.846 204.41C178.593 204.41 179.227 204.554 179.746 204.841C180.27 205.123 180.669 205.495 180.942 205.955C181.216 206.411 181.353 206.898 181.353 207.418H180.04C180.04 207.044 179.96 206.714 179.801 206.427C179.641 206.135 179.4 205.907 179.076 205.743C178.753 205.575 178.342 205.49 177.846 205.49C177.376 205.49 176.989 205.561 176.684 205.702C176.378 205.843 176.15 206.035 176 206.276C175.854 206.518 175.781 206.794 175.781 207.104C175.781 207.313 175.825 207.505 175.911 207.678C176.002 207.846 176.141 208.004 176.328 208.149C176.52 208.295 176.761 208.43 177.053 208.553C177.349 208.676 177.702 208.794 178.112 208.908C178.677 209.068 179.165 209.245 179.575 209.441C179.985 209.637 180.323 209.858 180.587 210.104C180.856 210.346 181.054 210.622 181.182 210.932C181.314 211.237 181.38 211.583 181.38 211.971C181.38 212.376 181.298 212.743 181.134 213.071C180.97 213.399 180.735 213.68 180.43 213.912C180.124 214.145 179.757 214.325 179.329 214.452C178.905 214.575 178.431 214.637 177.907 214.637C177.447 214.637 176.993 214.573 176.547 214.445C176.105 214.318 175.701 214.126 175.337 213.871C174.977 213.616 174.688 213.301 174.469 212.928C174.255 212.549 174.147 212.112 174.147 211.615H175.46C175.46 211.957 175.526 212.251 175.658 212.497C175.79 212.739 175.97 212.939 176.198 213.099C176.431 213.258 176.693 213.377 176.984 213.454C177.281 213.527 177.588 213.563 177.907 213.563C178.368 213.563 178.757 213.5 179.076 213.372C179.395 213.244 179.637 213.062 179.801 212.825C179.969 212.588 180.054 212.308 180.054 211.984ZM185.83 213.598C186.131 213.598 186.409 213.536 186.664 213.413C186.919 213.29 187.129 213.121 187.293 212.907C187.457 212.688 187.55 212.44 187.573 212.162H188.776C188.754 212.6 188.605 213.007 188.332 213.386C188.063 213.759 187.71 214.062 187.272 214.295C186.835 214.523 186.354 214.637 185.83 214.637C185.274 214.637 184.789 214.539 184.374 214.343C183.964 214.147 183.622 213.878 183.349 213.536C183.08 213.194 182.877 212.802 182.74 212.36C182.608 211.914 182.542 211.442 182.542 210.945V210.658C182.542 210.161 182.608 209.692 182.74 209.25C182.877 208.803 183.08 208.409 183.349 208.067C183.622 207.726 183.964 207.457 184.374 207.261C184.789 207.065 185.274 206.967 185.83 206.967C186.409 206.967 186.915 207.085 187.348 207.322C187.781 207.555 188.12 207.874 188.366 208.279C188.617 208.68 188.754 209.136 188.776 209.646H187.573C187.55 209.341 187.464 209.065 187.313 208.819C187.168 208.573 186.967 208.377 186.712 208.231C186.461 208.081 186.167 208.006 185.83 208.006C185.443 208.006 185.117 208.083 184.853 208.238C184.593 208.389 184.385 208.594 184.23 208.854C184.08 209.109 183.971 209.394 183.902 209.708C183.839 210.018 183.807 210.335 183.807 210.658V210.945C183.807 211.269 183.839 211.588 183.902 211.902C183.966 212.217 184.073 212.502 184.224 212.757C184.379 213.012 184.586 213.217 184.846 213.372C185.11 213.522 185.438 213.598 185.83 213.598ZM191.463 208.266V214.5H190.198V207.104H191.429L191.463 208.266ZM193.773 207.062L193.767 208.238C193.662 208.215 193.562 208.202 193.466 208.197C193.375 208.188 193.27 208.184 193.151 208.184C192.86 208.184 192.602 208.229 192.379 208.32C192.156 208.411 191.966 208.539 191.812 208.703C191.657 208.867 191.534 209.063 191.442 209.291C191.356 209.514 191.299 209.76 191.271 210.029L190.916 210.234C190.916 209.788 190.959 209.368 191.046 208.977C191.137 208.585 191.276 208.238 191.463 207.938C191.65 207.632 191.887 207.395 192.174 207.227C192.465 207.053 192.812 206.967 193.213 206.967C193.304 206.967 193.409 206.978 193.527 207.001C193.646 207.019 193.728 207.04 193.773 207.062ZM197.875 214.637C197.36 214.637 196.893 214.55 196.474 214.377C196.059 214.199 195.701 213.951 195.4 213.632C195.104 213.313 194.876 212.935 194.717 212.497C194.557 212.06 194.478 211.581 194.478 211.062V210.774C194.478 210.173 194.566 209.637 194.744 209.168C194.922 208.694 195.163 208.293 195.469 207.965C195.774 207.637 196.12 207.388 196.508 207.22C196.895 207.051 197.296 206.967 197.711 206.967C198.24 206.967 198.695 207.058 199.078 207.24C199.465 207.423 199.782 207.678 200.028 208.006C200.274 208.329 200.457 208.712 200.575 209.154C200.694 209.592 200.753 210.07 200.753 210.59V211.157H195.229V210.125H199.488V210.029C199.47 209.701 199.402 209.382 199.283 209.072C199.169 208.762 198.987 208.507 198.736 208.307C198.486 208.106 198.144 208.006 197.711 208.006C197.424 208.006 197.16 208.067 196.918 208.19C196.676 208.309 196.469 208.487 196.296 208.724C196.123 208.961 195.988 209.25 195.893 209.592C195.797 209.934 195.749 210.328 195.749 210.774V211.062C195.749 211.412 195.797 211.743 195.893 212.053C195.993 212.358 196.136 212.627 196.323 212.859C196.515 213.092 196.745 213.274 197.014 213.406C197.287 213.538 197.597 213.604 197.943 213.604C198.39 213.604 198.768 213.513 199.078 213.331C199.388 213.149 199.659 212.905 199.892 212.6L200.657 213.208C200.498 213.45 200.295 213.68 200.049 213.898C199.803 214.117 199.5 214.295 199.14 214.432C198.784 214.568 198.363 214.637 197.875 214.637ZM205.299 214.637C204.784 214.637 204.317 214.55 203.897 214.377C203.483 214.199 203.125 213.951 202.824 213.632C202.528 213.313 202.3 212.935 202.141 212.497C201.981 212.06 201.901 211.581 201.901 211.062V210.774C201.901 210.173 201.99 209.637 202.168 209.168C202.346 208.694 202.587 208.293 202.893 207.965C203.198 207.637 203.544 207.388 203.932 207.22C204.319 207.051 204.72 206.967 205.135 206.967C205.663 206.967 206.119 207.058 206.502 207.24C206.889 207.423 207.206 207.678 207.452 208.006C207.698 208.329 207.881 208.712 207.999 209.154C208.118 209.592 208.177 210.07 208.177 210.59V211.157H202.653V210.125H206.912V210.029C206.894 209.701 206.826 209.382 206.707 209.072C206.593 208.762 206.411 208.507 206.16 208.307C205.91 208.106 205.568 208.006 205.135 208.006C204.848 208.006 204.583 208.067 204.342 208.19C204.1 208.309 203.893 208.487 203.72 208.724C203.547 208.961 203.412 209.25 203.316 209.592C203.221 209.934 203.173 210.328 203.173 210.774V211.062C203.173 211.412 203.221 211.743 203.316 212.053C203.417 212.358 203.56 212.627 203.747 212.859C203.938 213.092 204.169 213.274 204.438 213.406C204.711 213.538 205.021 213.604 205.367 213.604C205.814 213.604 206.192 213.513 206.502 213.331C206.812 213.149 207.083 212.905 207.315 212.6L208.081 213.208C207.922 213.45 207.719 213.68 207.473 213.898C207.227 214.117 206.924 214.295 206.563 214.432C206.208 214.568 205.786 214.637 205.299 214.637ZM210.918 208.683V214.5H209.653V207.104H210.85L210.918 208.683ZM210.617 210.521L210.091 210.501C210.095 209.995 210.171 209.528 210.316 209.1C210.462 208.667 210.667 208.291 210.932 207.972C211.196 207.653 211.51 207.407 211.875 207.233C212.244 207.056 212.652 206.967 213.099 206.967C213.463 206.967 213.791 207.017 214.083 207.117C214.375 207.213 214.623 207.368 214.828 207.582C215.038 207.796 215.197 208.074 215.307 208.416C215.416 208.753 215.471 209.166 215.471 209.653V214.5H214.199V209.64C214.199 209.252 214.142 208.942 214.028 208.71C213.914 208.473 213.748 208.302 213.529 208.197C213.311 208.088 213.042 208.033 212.723 208.033C212.408 208.033 212.121 208.099 211.861 208.231C211.606 208.364 211.385 208.546 211.198 208.778C211.016 209.011 210.872 209.277 210.768 209.578C210.667 209.874 210.617 210.189 210.617 210.521Z" fill="#202020"/>
<rect width="78.1749" height="156.821" transform="translate(298.508 117.765)" fill="white" fill-opacity="0.7"/>
<path d="M309.268 195.577H310.17C310.612 195.577 310.977 195.504 311.264 195.358C311.556 195.208 311.772 195.005 311.914 194.75C312.059 194.49 312.132 194.198 312.132 193.875C312.132 193.492 312.069 193.17 311.941 192.911C311.813 192.651 311.622 192.455 311.367 192.323C311.111 192.191 310.788 192.125 310.396 192.125C310.041 192.125 309.726 192.195 309.453 192.336C309.184 192.473 308.972 192.669 308.817 192.924C308.667 193.18 308.591 193.48 308.591 193.827H307.327C307.327 193.321 307.454 192.861 307.709 192.446C307.965 192.031 308.322 191.701 308.783 191.455C309.248 191.208 309.785 191.085 310.396 191.085C310.998 191.085 311.524 191.193 311.975 191.407C312.426 191.616 312.777 191.931 313.028 192.35C313.278 192.765 313.404 193.282 313.404 193.902C313.404 194.153 313.345 194.421 313.226 194.708C313.112 194.991 312.932 195.255 312.686 195.501C312.444 195.748 312.13 195.95 311.743 196.11C311.355 196.265 310.89 196.342 310.348 196.342H309.268V195.577ZM309.268 196.616V195.857H310.348C310.982 195.857 311.506 195.932 311.92 196.083C312.335 196.233 312.661 196.433 312.898 196.684C313.139 196.935 313.308 197.21 313.404 197.511C313.504 197.807 313.554 198.104 313.554 198.4C313.554 198.865 313.474 199.277 313.315 199.637C313.16 199.997 312.939 200.303 312.652 200.553C312.369 200.804 312.037 200.993 311.654 201.121C311.271 201.248 310.854 201.312 310.403 201.312C309.97 201.312 309.562 201.25 309.179 201.127C308.801 201.004 308.466 200.827 308.174 200.594C307.883 200.357 307.655 200.068 307.491 199.726C307.327 199.38 307.245 198.986 307.245 198.543H308.509C308.509 198.89 308.584 199.193 308.735 199.453C308.89 199.712 309.109 199.915 309.391 200.061C309.678 200.202 310.015 200.273 310.403 200.273C310.79 200.273 311.123 200.207 311.401 200.075C311.683 199.938 311.9 199.733 312.05 199.459C312.205 199.186 312.283 198.842 312.283 198.427C312.283 198.013 312.196 197.673 312.023 197.409C311.85 197.14 311.604 196.942 311.285 196.814C310.97 196.682 310.599 196.616 310.17 196.616H309.268ZM321.545 195.406V196.923C321.545 197.739 321.472 198.427 321.327 198.988C321.181 199.548 320.971 200 320.698 200.341C320.424 200.683 320.094 200.931 319.707 201.086C319.324 201.237 318.891 201.312 318.408 201.312C318.025 201.312 317.672 201.264 317.348 201.168C317.025 201.073 316.733 200.92 316.473 200.71C316.218 200.496 315.999 200.218 315.817 199.876C315.635 199.535 315.496 199.12 315.4 198.632C315.304 198.145 315.256 197.575 315.256 196.923V195.406C315.256 194.59 315.329 193.906 315.475 193.355C315.625 192.804 315.837 192.361 316.111 192.029C316.384 191.692 316.712 191.45 317.095 191.304C317.483 191.158 317.916 191.085 318.394 191.085C318.781 191.085 319.137 191.133 319.46 191.229C319.789 191.32 320.08 191.468 320.335 191.673C320.591 191.874 320.807 192.143 320.985 192.48C321.167 192.813 321.306 193.221 321.402 193.704C321.498 194.187 321.545 194.754 321.545 195.406ZM320.274 197.128V195.194C320.274 194.747 320.247 194.355 320.192 194.018C320.142 193.676 320.067 193.385 319.966 193.143C319.866 192.902 319.738 192.706 319.583 192.555C319.433 192.405 319.258 192.295 319.057 192.227C318.861 192.154 318.64 192.118 318.394 192.118C318.093 192.118 317.827 192.175 317.594 192.289C317.362 192.398 317.166 192.573 317.006 192.815C316.851 193.056 316.733 193.373 316.651 193.765C316.569 194.157 316.528 194.633 316.528 195.194V197.128C316.528 197.575 316.553 197.969 316.603 198.311C316.658 198.653 316.737 198.949 316.842 199.2C316.947 199.446 317.075 199.649 317.225 199.808C317.375 199.968 317.549 200.086 317.745 200.164C317.945 200.236 318.166 200.273 318.408 200.273C318.718 200.273 318.989 200.214 319.221 200.095C319.454 199.977 319.647 199.792 319.802 199.542C319.962 199.286 320.08 198.96 320.158 198.564C320.235 198.163 320.274 197.684 320.274 197.128ZM329.42 195.406V196.923C329.42 197.739 329.347 198.427 329.202 198.988C329.056 199.548 328.846 200 328.573 200.341C328.299 200.683 327.969 200.931 327.582 201.086C327.199 201.237 326.766 201.312 326.283 201.312C325.9 201.312 325.547 201.264 325.223 201.168C324.9 201.073 324.608 200.92 324.348 200.71C324.093 200.496 323.874 200.218 323.692 199.876C323.51 199.535 323.371 199.12 323.275 198.632C323.179 198.145 323.131 197.575 323.131 196.923V195.406C323.131 194.59 323.204 193.906 323.35 193.355C323.5 192.804 323.712 192.361 323.986 192.029C324.259 191.692 324.587 191.45 324.97 191.304C325.358 191.158 325.791 191.085 326.269 191.085C326.656 191.085 327.012 191.133 327.335 191.229C327.664 191.32 327.955 191.468 328.21 191.673C328.466 191.874 328.682 192.143 328.86 192.48C329.042 192.813 329.181 193.221 329.277 193.704C329.373 194.187 329.42 194.754 329.42 195.406ZM328.149 197.128V195.194C328.149 194.747 328.122 194.355 328.067 194.018C328.017 193.676 327.942 193.385 327.841 193.143C327.741 192.902 327.613 192.706 327.458 192.555C327.308 192.405 327.133 192.295 326.932 192.227C326.736 192.154 326.515 192.118 326.269 192.118C325.968 192.118 325.702 192.175 325.469 192.289C325.237 192.398 325.041 192.573 324.881 192.815C324.726 193.056 324.608 193.373 324.526 193.765C324.444 194.157 324.403 194.633 324.403 195.194V197.128C324.403 197.575 324.428 197.969 324.478 198.311C324.533 198.653 324.612 198.949 324.717 199.2C324.822 199.446 324.95 199.649 325.1 199.808C325.25 199.968 325.424 200.086 325.62 200.164C325.82 200.236 326.041 200.273 326.283 200.273C326.593 200.273 326.864 200.214 327.096 200.095C327.329 199.977 327.522 199.792 327.677 199.542C327.837 199.286 327.955 198.96 328.033 198.564C328.11 198.163 328.149 197.684 328.149 197.128ZM335.511 193.779L337.131 196.472L338.772 193.779H340.255L337.835 197.429L340.331 201.175H338.868L337.159 198.4L335.45 201.175H333.98L336.468 197.429L334.055 193.779H335.511ZM349.792 191.208H349.901V192.282H349.792C349.122 192.282 348.561 192.391 348.11 192.61C347.659 192.824 347.301 193.113 347.037 193.478C346.772 193.838 346.581 194.244 346.462 194.695C346.348 195.146 346.292 195.604 346.292 196.069V197.532C346.292 197.974 346.344 198.366 346.449 198.708C346.554 199.045 346.697 199.33 346.879 199.562C347.062 199.794 347.267 199.97 347.495 200.088C347.727 200.207 347.969 200.266 348.219 200.266C348.511 200.266 348.771 200.211 348.999 200.102C349.226 199.988 349.418 199.831 349.573 199.63C349.732 199.425 349.853 199.184 349.935 198.906C350.017 198.628 350.058 198.322 350.058 197.99C350.058 197.694 350.022 197.409 349.949 197.135C349.876 196.857 349.764 196.611 349.614 196.397C349.463 196.178 349.274 196.007 349.046 195.884C348.823 195.757 348.556 195.693 348.247 195.693C347.896 195.693 347.568 195.779 347.262 195.953C346.961 196.121 346.713 196.345 346.517 196.623C346.326 196.896 346.216 197.194 346.189 197.518L345.519 197.511C345.583 197.001 345.701 196.566 345.875 196.206C346.052 195.841 346.271 195.545 346.531 195.317C346.795 195.084 347.089 194.916 347.413 194.811C347.741 194.702 348.087 194.647 348.452 194.647C348.948 194.647 349.377 194.74 349.737 194.927C350.097 195.114 350.393 195.365 350.625 195.679C350.858 195.989 351.029 196.34 351.138 196.732C351.252 197.119 351.309 197.518 351.309 197.928C351.309 198.398 351.243 198.837 351.111 199.248C350.979 199.658 350.78 200.018 350.516 200.328C350.256 200.638 349.935 200.879 349.552 201.052C349.169 201.225 348.725 201.312 348.219 201.312C347.681 201.312 347.212 201.203 346.811 200.984C346.41 200.761 346.077 200.464 345.813 200.095C345.549 199.726 345.35 199.316 345.218 198.865C345.086 198.414 345.02 197.956 345.02 197.491V196.896C345.02 196.194 345.091 195.506 345.232 194.832C345.373 194.157 345.617 193.546 345.963 193C346.314 192.453 346.8 192.017 347.419 191.694C348.039 191.37 348.83 191.208 349.792 191.208ZM359.061 195.406V196.923C359.061 197.739 358.988 198.427 358.842 198.988C358.696 199.548 358.487 200 358.213 200.341C357.94 200.683 357.61 200.931 357.222 201.086C356.839 201.237 356.406 201.312 355.923 201.312C355.541 201.312 355.187 201.264 354.864 201.168C354.54 201.073 354.249 200.92 353.989 200.71C353.734 200.496 353.515 200.218 353.333 199.876C353.15 199.535 353.011 199.12 352.916 198.632C352.82 198.145 352.772 197.575 352.772 196.923V195.406C352.772 194.59 352.845 193.906 352.991 193.355C353.141 192.804 353.353 192.361 353.626 192.029C353.9 191.692 354.228 191.45 354.611 191.304C354.998 191.158 355.431 191.085 355.91 191.085C356.297 191.085 356.653 191.133 356.976 191.229C357.304 191.32 357.596 191.468 357.851 191.673C358.106 191.874 358.323 192.143 358.5 192.48C358.683 192.813 358.822 193.221 358.917 193.704C359.013 194.187 359.061 194.754 359.061 195.406ZM357.79 197.128V195.194C357.79 194.747 357.762 194.355 357.708 194.018C357.657 193.676 357.582 193.385 357.482 193.143C357.382 192.902 357.254 192.706 357.099 192.555C356.949 192.405 356.773 192.295 356.573 192.227C356.377 192.154 356.156 192.118 355.91 192.118C355.609 192.118 355.342 192.175 355.11 192.289C354.877 192.398 354.681 192.573 354.522 192.815C354.367 193.056 354.249 193.373 354.167 193.765C354.084 194.157 354.043 194.633 354.043 195.194V197.128C354.043 197.575 354.069 197.969 354.119 198.311C354.173 198.653 354.253 198.949 354.358 199.2C354.463 199.446 354.59 199.649 354.741 199.808C354.891 199.968 355.064 200.086 355.26 200.164C355.461 200.236 355.682 200.273 355.923 200.273C356.233 200.273 356.504 200.214 356.737 200.095C356.969 199.977 357.163 199.792 357.318 199.542C357.477 199.286 357.596 198.96 357.673 198.564C357.751 198.163 357.79 197.684 357.79 197.128ZM366.936 195.406V196.923C366.936 197.739 366.863 198.427 366.717 198.988C366.571 199.548 366.362 200 366.088 200.341C365.815 200.683 365.485 200.931 365.097 201.086C364.714 201.237 364.281 201.312 363.798 201.312C363.416 201.312 363.062 201.264 362.739 201.168C362.415 201.073 362.124 200.92 361.864 200.71C361.609 200.496 361.39 200.218 361.208 199.876C361.025 199.535 360.886 199.12 360.791 198.632C360.695 198.145 360.647 197.575 360.647 196.923V195.406C360.647 194.59 360.72 193.906 360.866 193.355C361.016 192.804 361.228 192.361 361.501 192.029C361.775 191.692 362.103 191.45 362.486 191.304C362.873 191.158 363.306 191.085 363.785 191.085C364.172 191.085 364.528 191.133 364.851 191.229C365.179 191.32 365.471 191.468 365.726 191.673C365.981 191.874 366.198 192.143 366.375 192.48C366.558 192.813 366.697 193.221 366.792 193.704C366.888 194.187 366.936 194.754 366.936 195.406ZM365.665 197.128V195.194C365.665 194.747 365.637 194.355 365.583 194.018C365.532 193.676 365.457 193.385 365.357 193.143C365.257 192.902 365.129 192.706 364.974 192.555C364.824 192.405 364.648 192.295 364.448 192.227C364.252 192.154 364.031 192.118 363.785 192.118C363.484 192.118 363.217 192.175 362.985 192.289C362.752 192.398 362.556 192.573 362.397 192.815C362.242 193.056 362.124 193.373 362.042 193.765C361.959 194.157 361.918 194.633 361.918 195.194V197.128C361.918 197.575 361.944 197.969 361.994 198.311C362.048 198.653 362.128 198.949 362.233 199.2C362.338 199.446 362.465 199.649 362.616 199.808C362.766 199.968 362.939 200.086 363.135 200.164C363.336 200.236 363.557 200.273 363.798 200.273C364.108 200.273 364.379 200.214 364.612 200.095C364.844 199.977 365.038 199.792 365.193 199.542C365.352 199.286 365.471 198.96 365.548 198.564C365.626 198.163 365.665 197.684 365.665 197.128Z" fill="#303030"/>
<rect width="78.1749" height="78.1749" transform="translate(388.46 196.411)" fill="white" fill-opacity="0.7"/>
<path d="M399.22 234.9H400.123C400.565 234.9 400.929 234.827 401.216 234.681C401.508 234.531 401.724 234.328 401.866 234.073C402.012 233.813 402.084 233.521 402.084 233.198C402.084 232.815 402.021 232.493 401.893 232.234C401.765 231.974 401.574 231.778 401.319 231.646C401.064 231.514 400.74 231.448 400.348 231.448C399.993 231.448 399.678 231.518 399.405 231.659C399.136 231.796 398.924 231.992 398.769 232.247C398.619 232.503 398.543 232.803 398.543 233.15H397.279C397.279 232.644 397.406 232.184 397.662 231.769C397.917 231.354 398.275 231.024 398.735 230.778C399.2 230.532 399.737 230.409 400.348 230.409C400.95 230.409 401.476 230.516 401.927 230.73C402.378 230.939 402.729 231.254 402.98 231.673C403.231 232.088 403.356 232.605 403.356 233.225C403.356 233.476 403.297 233.744 403.178 234.032C403.064 234.314 402.884 234.578 402.638 234.825C402.397 235.071 402.082 235.273 401.695 235.433C401.307 235.588 400.843 235.665 400.3 235.665H399.22V234.9ZM399.22 235.939V235.18H400.3C400.934 235.18 401.458 235.255 401.873 235.406C402.287 235.556 402.613 235.756 402.85 236.007C403.092 236.258 403.26 236.534 403.356 236.834C403.456 237.131 403.506 237.427 403.506 237.723C403.506 238.188 403.427 238.6 403.267 238.96C403.112 239.32 402.891 239.626 402.604 239.876C402.321 240.127 401.989 240.316 401.606 240.444C401.223 240.571 400.806 240.635 400.355 240.635C399.922 240.635 399.514 240.574 399.131 240.451C398.753 240.327 398.418 240.15 398.126 239.917C397.835 239.68 397.607 239.391 397.443 239.049C397.279 238.703 397.197 238.309 397.197 237.867H398.461C398.461 238.213 398.537 238.516 398.687 238.776C398.842 239.035 399.061 239.238 399.343 239.384C399.63 239.525 399.968 239.596 400.355 239.596C400.742 239.596 401.075 239.53 401.353 239.398C401.636 239.261 401.852 239.056 402.002 238.783C402.157 238.509 402.235 238.165 402.235 237.75C402.235 237.336 402.148 236.996 401.975 236.732C401.802 236.463 401.556 236.265 401.237 236.137C400.922 236.005 400.551 235.939 400.123 235.939H399.22ZM411.498 234.729V236.246C411.498 237.062 411.425 237.75 411.279 238.311C411.133 238.871 410.923 239.323 410.65 239.664C410.376 240.006 410.046 240.255 409.659 240.409C409.276 240.56 408.843 240.635 408.36 240.635C407.977 240.635 407.624 240.587 407.3 240.492C406.977 240.396 406.685 240.243 406.425 240.034C406.17 239.819 405.951 239.541 405.769 239.2C405.587 238.858 405.448 238.443 405.352 237.955C405.256 237.468 405.208 236.898 405.208 236.246V234.729C405.208 233.913 405.281 233.229 405.427 232.678C405.578 232.127 405.79 231.685 406.063 231.352C406.336 231.015 406.665 230.773 407.047 230.627C407.435 230.481 407.868 230.409 408.346 230.409C408.734 230.409 409.089 230.456 409.413 230.552C409.741 230.643 410.032 230.791 410.288 230.996C410.543 231.197 410.759 231.466 410.937 231.803C411.119 232.136 411.258 232.544 411.354 233.027C411.45 233.51 411.498 234.077 411.498 234.729ZM410.226 236.451V234.517C410.226 234.07 410.199 233.678 410.144 233.341C410.094 232.999 410.019 232.708 409.918 232.466C409.818 232.225 409.691 232.029 409.536 231.878C409.385 231.728 409.21 231.618 409.009 231.55C408.813 231.477 408.592 231.441 408.346 231.441C408.045 231.441 407.779 231.498 407.546 231.612C407.314 231.721 407.118 231.896 406.958 232.138C406.804 232.38 406.685 232.696 406.603 233.088C406.521 233.48 406.48 233.956 406.48 234.517V236.451C406.48 236.898 406.505 237.292 406.555 237.634C406.61 237.976 406.69 238.272 406.794 238.523C406.899 238.769 407.027 238.972 407.177 239.131C407.328 239.291 407.501 239.409 407.697 239.487C407.897 239.56 408.118 239.596 408.36 239.596C408.67 239.596 408.941 239.537 409.173 239.418C409.406 239.3 409.599 239.115 409.754 238.865C409.914 238.609 410.032 238.284 410.11 237.887C410.187 237.486 410.226 237.007 410.226 236.451ZM419.373 234.729V236.246C419.373 237.062 419.3 237.75 419.154 238.311C419.008 238.871 418.798 239.323 418.525 239.664C418.251 240.006 417.921 240.255 417.534 240.409C417.151 240.56 416.718 240.635 416.235 240.635C415.852 240.635 415.499 240.587 415.175 240.492C414.852 240.396 414.56 240.243 414.3 240.034C414.045 239.819 413.826 239.541 413.644 239.2C413.462 238.858 413.323 238.443 413.227 237.955C413.131 237.468 413.083 236.898 413.083 236.246V234.729C413.083 233.913 413.156 233.229 413.302 232.678C413.453 232.127 413.665 231.685 413.938 231.352C414.211 231.015 414.54 230.773 414.922 230.627C415.31 230.481 415.743 230.409 416.221 230.409C416.609 230.409 416.964 230.456 417.288 230.552C417.616 230.643 417.907 230.791 418.163 230.996C418.418 231.197 418.634 231.466 418.812 231.803C418.994 232.136 419.133 232.544 419.229 233.027C419.325 233.51 419.373 234.077 419.373 234.729ZM418.101 236.451V234.517C418.101 234.07 418.074 233.678 418.019 233.341C417.969 232.999 417.894 232.708 417.793 232.466C417.693 232.225 417.566 232.029 417.411 231.878C417.26 231.728 417.085 231.618 416.884 231.55C416.688 231.477 416.467 231.441 416.221 231.441C415.92 231.441 415.654 231.498 415.421 231.612C415.189 231.721 414.993 231.896 414.833 232.138C414.679 232.38 414.56 232.696 414.478 233.088C414.396 233.48 414.355 233.956 414.355 234.517V236.451C414.355 236.898 414.38 237.292 414.43 237.634C414.485 237.976 414.565 238.272 414.669 238.523C414.774 238.769 414.902 238.972 415.052 239.131C415.203 239.291 415.376 239.409 415.572 239.487C415.772 239.56 415.993 239.596 416.235 239.596C416.545 239.596 416.816 239.537 417.048 239.418C417.281 239.3 417.474 239.115 417.629 238.865C417.789 238.609 417.907 238.284 417.985 237.887C418.062 237.486 418.101 237.007 418.101 236.451ZM425.463 233.102L427.083 235.795L428.724 233.102H430.208L427.788 236.752L430.283 240.498H428.82L427.111 237.723L425.402 240.498H423.932L426.42 236.752L424.007 233.102H425.463ZM436.736 234.9H437.638C438.08 234.9 438.445 234.827 438.732 234.681C439.024 234.531 439.24 234.328 439.381 234.073C439.527 233.813 439.6 233.521 439.6 233.198C439.6 232.815 439.536 232.493 439.409 232.234C439.281 231.974 439.09 231.778 438.834 231.646C438.579 231.514 438.256 231.448 437.864 231.448C437.508 231.448 437.194 231.518 436.92 231.659C436.652 231.796 436.44 231.992 436.285 232.247C436.134 232.503 436.059 232.803 436.059 233.15H434.794C434.794 232.644 434.922 232.184 435.177 231.769C435.432 231.354 435.79 231.024 436.25 230.778C436.715 230.532 437.253 230.409 437.864 230.409C438.465 230.409 438.992 230.516 439.443 230.73C439.894 230.939 440.245 231.254 440.496 231.673C440.746 232.088 440.872 232.605 440.872 233.225C440.872 233.476 440.812 233.744 440.694 234.032C440.58 234.314 440.4 234.578 440.154 234.825C439.912 235.071 439.598 235.273 439.21 235.433C438.823 235.588 438.358 235.665 437.816 235.665H436.736V234.9ZM436.736 235.939V235.18H437.816C438.449 235.18 438.973 235.255 439.388 235.406C439.803 235.556 440.129 235.756 440.366 236.007C440.607 236.258 440.776 236.534 440.872 236.834C440.972 237.131 441.022 237.427 441.022 237.723C441.022 238.188 440.942 238.6 440.783 238.96C440.628 239.32 440.407 239.626 440.12 239.876C439.837 240.127 439.504 240.316 439.122 240.444C438.739 240.571 438.322 240.635 437.871 240.635C437.438 240.635 437.03 240.574 436.647 240.451C436.269 240.327 435.934 240.15 435.642 239.917C435.35 239.68 435.123 239.391 434.958 239.049C434.794 238.703 434.712 238.309 434.712 237.867H435.977C435.977 238.213 436.052 238.516 436.203 238.776C436.358 239.035 436.576 239.238 436.859 239.384C437.146 239.525 437.483 239.596 437.871 239.596C438.258 239.596 438.591 239.53 438.869 239.398C439.151 239.261 439.368 239.056 439.518 238.783C439.673 238.509 439.75 238.165 439.75 237.75C439.75 237.336 439.664 236.996 439.491 236.732C439.318 236.463 439.071 236.265 438.752 236.137C438.438 236.005 438.067 235.939 437.638 235.939H436.736ZM449.013 234.729V236.246C449.013 237.062 448.94 237.75 448.794 238.311C448.649 238.871 448.439 239.323 448.166 239.664C447.892 240.006 447.562 240.255 447.174 240.409C446.792 240.56 446.359 240.635 445.875 240.635C445.493 240.635 445.139 240.587 444.816 240.492C444.492 240.396 444.201 240.243 443.941 240.034C443.686 239.819 443.467 239.541 443.285 239.2C443.102 238.858 442.963 238.443 442.868 237.955C442.772 237.468 442.724 236.898 442.724 236.246V234.729C442.724 233.913 442.797 233.229 442.943 232.678C443.093 232.127 443.305 231.685 443.579 231.352C443.852 231.015 444.18 230.773 444.563 230.627C444.95 230.481 445.383 230.409 445.862 230.409C446.249 230.409 446.605 230.456 446.928 230.552C447.256 230.643 447.548 230.791 447.803 230.996C448.058 231.197 448.275 231.466 448.453 231.803C448.635 232.136 448.774 232.544 448.87 233.027C448.965 233.51 449.013 234.077 449.013 234.729ZM447.742 236.451V234.517C447.742 234.07 447.714 233.678 447.66 233.341C447.61 232.999 447.534 232.708 447.434 232.466C447.334 232.225 447.206 232.029 447.051 231.878C446.901 231.728 446.725 231.618 446.525 231.55C446.329 231.477 446.108 231.441 445.862 231.441C445.561 231.441 445.294 231.498 445.062 231.612C444.83 231.721 444.634 231.896 444.474 232.138C444.319 232.38 444.201 232.696 444.119 233.088C444.037 233.48 443.996 233.956 443.996 234.517V236.451C443.996 236.898 444.021 237.292 444.071 237.634C444.125 237.976 444.205 238.272 444.31 238.523C444.415 238.769 444.542 238.972 444.693 239.131C444.843 239.291 445.016 239.409 445.212 239.487C445.413 239.56 445.634 239.596 445.875 239.596C446.185 239.596 446.457 239.537 446.689 239.418C446.921 239.3 447.115 239.115 447.27 238.865C447.43 238.609 447.548 238.284 447.625 237.887C447.703 237.486 447.742 237.007 447.742 236.451ZM456.888 234.729V236.246C456.888 237.062 456.815 237.75 456.669 238.311C456.524 238.871 456.314 239.323 456.041 239.664C455.767 240.006 455.437 240.255 455.049 240.409C454.667 240.56 454.234 240.635 453.75 240.635C453.368 240.635 453.014 240.587 452.691 240.492C452.367 240.396 452.076 240.243 451.816 240.034C451.561 239.819 451.342 239.541 451.16 239.2C450.977 238.858 450.838 238.443 450.743 237.955C450.647 237.468 450.599 236.898 450.599 236.246V234.729C450.599 233.913 450.672 233.229 450.818 232.678C450.968 232.127 451.18 231.685 451.454 231.352C451.727 231.015 452.055 230.773 452.438 230.627C452.825 230.481 453.258 230.409 453.737 230.409C454.124 230.409 454.48 230.456 454.803 230.552C455.131 230.643 455.423 230.791 455.678 230.996C455.933 231.197 456.15 231.466 456.328 231.803C456.51 232.136 456.649 232.544 456.745 233.027C456.84 233.51 456.888 234.077 456.888 234.729ZM455.617 236.451V234.517C455.617 234.07 455.589 233.678 455.535 233.341C455.485 232.999 455.409 232.708 455.309 232.466C455.209 232.225 455.081 232.029 454.926 231.878C454.776 231.728 454.6 231.618 454.4 231.55C454.204 231.477 453.983 231.441 453.737 231.441C453.436 231.441 453.169 231.498 452.937 231.612C452.705 231.721 452.509 231.896 452.349 232.138C452.194 232.38 452.076 232.696 451.994 233.088C451.912 233.48 451.871 233.956 451.871 234.517V236.451C451.871 236.898 451.896 237.292 451.946 237.634C452 237.976 452.08 238.272 452.185 238.523C452.29 238.769 452.417 238.972 452.568 239.131C452.718 239.291 452.891 239.409 453.087 239.487C453.288 239.56 453.509 239.596 453.75 239.596C454.06 239.596 454.332 239.537 454.564 239.418C454.796 239.3 454.99 239.115 455.145 238.865C455.305 238.609 455.423 238.284 455.5 237.887C455.578 237.486 455.617 237.007 455.617 236.451Z" fill="#2B2B2B"/>
<rect width="104.547" height="104.547" transform="translate(388.624 80.3875)" fill="white" fill-opacity="0.7"/>
<path d="M417.451 134.311V135.35H410.26V134.605L414.717 127.708H415.749L414.642 129.704L411.695 134.311H417.451ZM416.063 127.708V137.661H414.799V127.708H416.063ZM424.848 131.891V133.409C424.848 134.225 424.775 134.913 424.629 135.474C424.483 136.034 424.273 136.485 424 136.827C423.727 137.169 423.396 137.417 423.009 137.572C422.626 137.723 422.193 137.798 421.71 137.798C421.327 137.798 420.974 137.75 420.65 137.654C420.327 137.558 420.035 137.406 419.775 137.196C419.52 136.982 419.301 136.704 419.119 136.362C418.937 136.02 418.798 135.606 418.702 135.118C418.606 134.63 418.559 134.061 418.559 133.409V131.891C418.559 131.076 418.632 130.392 418.777 129.841C418.928 129.289 419.14 128.847 419.413 128.515C419.687 128.177 420.015 127.936 420.397 127.79C420.785 127.644 421.218 127.571 421.696 127.571C422.084 127.571 422.439 127.619 422.763 127.715C423.091 127.806 423.382 127.954 423.638 128.159C423.893 128.36 424.109 128.628 424.287 128.966C424.469 129.298 424.608 129.706 424.704 130.189C424.8 130.672 424.848 131.24 424.848 131.891ZM423.576 133.614V131.68C423.576 131.233 423.549 130.841 423.494 130.504C423.444 130.162 423.369 129.87 423.269 129.629C423.168 129.387 423.041 129.191 422.886 129.041C422.735 128.891 422.56 128.781 422.359 128.713C422.163 128.64 421.942 128.603 421.696 128.603C421.396 128.603 421.129 128.66 420.896 128.774C420.664 128.884 420.468 129.059 420.309 129.301C420.154 129.542 420.035 129.859 419.953 130.251C419.871 130.643 419.83 131.119 419.83 131.68V133.614C419.83 134.061 419.855 134.455 419.905 134.797C419.96 135.139 420.04 135.435 420.145 135.685C420.249 135.932 420.377 136.134 420.527 136.294C420.678 136.453 420.851 136.572 421.047 136.649C421.247 136.722 421.468 136.759 421.71 136.759C422.02 136.759 422.291 136.699 422.523 136.581C422.756 136.462 422.95 136.278 423.104 136.027C423.264 135.772 423.382 135.446 423.46 135.05C423.537 134.649 423.576 134.17 423.576 133.614ZM432.723 131.891V133.409C432.723 134.225 432.65 134.913 432.504 135.474C432.358 136.034 432.148 136.485 431.875 136.827C431.602 137.169 431.271 137.417 430.884 137.572C430.501 137.723 430.068 137.798 429.585 137.798C429.202 137.798 428.849 137.75 428.525 137.654C428.202 137.558 427.91 137.406 427.65 137.196C427.395 136.982 427.176 136.704 426.994 136.362C426.812 136.02 426.673 135.606 426.577 135.118C426.481 134.63 426.434 134.061 426.434 133.409V131.891C426.434 131.076 426.507 130.392 426.652 129.841C426.803 129.289 427.015 128.847 427.288 128.515C427.562 128.177 427.89 127.936 428.272 127.79C428.66 127.644 429.093 127.571 429.571 127.571C429.959 127.571 430.314 127.619 430.638 127.715C430.966 127.806 431.257 127.954 431.513 128.159C431.768 128.36 431.984 128.628 432.162 128.966C432.344 129.298 432.483 129.706 432.579 130.189C432.675 130.672 432.723 131.24 432.723 131.891ZM431.451 133.614V131.68C431.451 131.233 431.424 130.841 431.369 130.504C431.319 130.162 431.244 129.87 431.144 129.629C431.043 129.387 430.916 129.191 430.761 129.041C430.61 128.891 430.435 128.781 430.234 128.713C430.038 128.64 429.817 128.603 429.571 128.603C429.271 128.603 429.004 128.66 428.771 128.774C428.539 128.884 428.343 129.059 428.184 129.301C428.029 129.542 427.91 129.859 427.828 130.251C427.746 130.643 427.705 131.119 427.705 131.68V133.614C427.705 134.061 427.73 134.455 427.78 134.797C427.835 135.139 427.915 135.435 428.02 135.685C428.124 135.932 428.252 136.134 428.402 136.294C428.553 136.453 428.726 136.572 428.922 136.649C429.122 136.722 429.343 136.759 429.585 136.759C429.895 136.759 430.166 136.699 430.398 136.581C430.631 136.462 430.825 136.278 430.979 136.027C431.139 135.772 431.257 135.446 431.335 135.05C431.412 134.649 431.451 134.17 431.451 133.614ZM438.813 130.265L440.434 132.958L442.074 130.265H443.558L441.138 133.915L443.633 137.661H442.17L440.461 134.886L438.752 137.661H437.282L439.771 133.915L437.357 130.265H438.813ZM454.967 134.311V135.35H447.775V134.605L452.232 127.708H453.265L452.157 129.704L449.211 134.311H454.967ZM453.579 127.708V137.661H452.314V127.708H453.579ZM462.363 131.891V133.409C462.363 134.225 462.29 134.913 462.145 135.474C461.999 136.034 461.789 136.485 461.516 136.827C461.242 137.169 460.912 137.417 460.524 137.572C460.142 137.723 459.709 137.798 459.226 137.798C458.843 137.798 458.49 137.75 458.166 137.654C457.842 137.558 457.551 137.406 457.291 137.196C457.036 136.982 456.817 136.704 456.635 136.362C456.452 136.02 456.313 135.606 456.218 135.118C456.122 134.63 456.074 134.061 456.074 133.409V131.891C456.074 131.076 456.147 130.392 456.293 129.841C456.443 129.289 456.655 128.847 456.929 128.515C457.202 128.177 457.53 127.936 457.913 127.79C458.3 127.644 458.733 127.571 459.212 127.571C459.599 127.571 459.955 127.619 460.278 127.715C460.606 127.806 460.898 127.954 461.153 128.159C461.409 128.36 461.625 128.628 461.803 128.966C461.985 129.298 462.124 129.706 462.22 130.189C462.315 130.672 462.363 131.24 462.363 131.891ZM461.092 133.614V131.68C461.092 131.233 461.064 130.841 461.01 130.504C460.96 130.162 460.884 129.87 460.784 129.629C460.684 129.387 460.556 129.191 460.401 129.041C460.251 128.891 460.076 128.781 459.875 128.713C459.679 128.64 459.458 128.603 459.212 128.603C458.911 128.603 458.645 128.66 458.412 128.774C458.18 128.884 457.984 129.059 457.824 129.301C457.669 129.542 457.551 129.859 457.469 130.251C457.387 130.643 457.346 131.119 457.346 131.68V133.614C457.346 134.061 457.371 134.455 457.421 134.797C457.476 135.139 457.555 135.435 457.66 135.685C457.765 135.932 457.893 136.134 458.043 136.294C458.193 136.453 458.367 136.572 458.562 136.649C458.763 136.722 458.984 136.759 459.226 136.759C459.535 136.759 459.807 136.699 460.039 136.581C460.271 136.462 460.465 136.278 460.62 136.027C460.78 135.772 460.898 135.446 460.976 135.05C461.053 134.649 461.092 134.17 461.092 133.614ZM470.238 131.891V133.409C470.238 134.225 470.165 134.913 470.02 135.474C469.874 136.034 469.664 136.485 469.391 136.827C469.117 137.169 468.787 137.417 468.399 137.572C468.017 137.723 467.584 137.798 467.101 137.798C466.718 137.798 466.365 137.75 466.041 137.654C465.717 137.558 465.426 137.406 465.166 137.196C464.911 136.982 464.692 136.704 464.51 136.362C464.327 136.02 464.188 135.606 464.093 135.118C463.997 134.63 463.949 134.061 463.949 133.409V131.891C463.949 131.076 464.022 130.392 464.168 129.841C464.318 129.289 464.53 128.847 464.804 128.515C465.077 128.177 465.405 127.936 465.788 127.79C466.175 127.644 466.608 127.571 467.087 127.571C467.474 127.571 467.83 127.619 468.153 127.715C468.481 127.806 468.773 127.954 469.028 128.159C469.284 128.36 469.5 128.628 469.678 128.966C469.86 129.298 469.999 129.706 470.095 130.189C470.19 130.672 470.238 131.24 470.238 131.891ZM468.967 133.614V131.68C468.967 131.233 468.939 130.841 468.885 130.504C468.835 130.162 468.759 129.87 468.659 129.629C468.559 129.387 468.431 129.191 468.276 129.041C468.126 128.891 467.951 128.781 467.75 128.713C467.554 128.64 467.333 128.603 467.087 128.603C466.786 128.603 466.52 128.66 466.287 128.774C466.055 128.884 465.859 129.059 465.699 129.301C465.544 129.542 465.426 129.859 465.344 130.251C465.262 130.643 465.221 131.119 465.221 131.68V133.614C465.221 134.061 465.246 134.455 465.296 134.797C465.351 135.139 465.43 135.435 465.535 135.685C465.64 135.932 465.768 136.134 465.918 136.294C466.068 136.453 466.242 136.572 466.438 136.649C466.638 136.722 466.859 136.759 467.101 136.759C467.41 136.759 467.682 136.699 467.914 136.581C468.146 136.462 468.34 136.278 468.495 136.027C468.655 135.772 468.773 135.446 468.851 135.05C468.928 134.649 468.967 134.17 468.967 133.614Z" fill="#2B2B2B"/>
</svg>
