<svg width="80" height="80" viewBox="0 0 80 80" fill="none" xmlns="http://www.w3.org/2000/svg">
<circle cx="40" cy="40" r="40" fill="#EC724A"/>
<mask id="path-2-outside-1_0_225" maskUnits="userSpaceOnUse" x="23.4629" y="24.124" width="32" height="32" fill="black">
<rect fill="white" x="23.4629" y="24.124" width="32" height="32"/>
<path fill-rule="evenodd" clip-rule="evenodd" d="M33.7059 25.2482C40.0925 25.8268 46.5207 25.7858 52.8993 25.1259C53.1525 25.1023 53.2754 25.3053 53.2681 25.508C53.5389 26.9079 53.6474 28.3341 53.5915 29.7587C53.5828 30.0359 53.3371 30.161 53.1257 30.1255L53.1147 30.1256C46.5426 30.2174 39.9756 30.1715 33.4138 29.988C33.1636 29.9803 33.0406 29.7829 33.0448 29.5906C33.0346 29.5561 33.0293 29.52 33.0293 29.4833C33.0164 28.1722 33.1194 26.8624 33.3369 25.5692C33.3386 25.5625 33.3405 25.5559 33.3425 25.5493C33.3694 25.3887 33.4905 25.2482 33.7059 25.2482ZM34.0324 26.0417C33.8745 27.0986 33.7957 28.1656 33.7966 29.2341C40.1475 29.4062 46.4936 29.4499 52.8349 29.365C52.8584 28.2122 52.7695 27.0598 52.5693 25.924C46.4077 26.5406 40.2014 26.5801 34.0324 26.0417Z"/>
<path fill-rule="evenodd" clip-rule="evenodd" d="M28.9371 25.9214C28.918 25.9198 28.8979 25.9197 28.877 25.921L25.1091 26.0891C24.93 26.0891 24.8161 26.1944 24.7673 26.3269C24.6952 26.3422 24.6285 26.3779 24.5755 26.4305C24.5034 26.5022 24.4629 26.5994 24.4629 26.7008L24.5902 29.3866C24.5381 29.4534 24.5093 29.5358 24.5093 29.6212C24.5093 29.7226 24.5498 29.8198 24.622 29.8915C24.6941 29.9632 24.7918 30.0034 24.8938 30.0034H29.2308L29.2423 30.0033L29.2463 30.0033C29.3483 30.0033 29.4461 29.963 29.5182 29.8913C29.5903 29.8196 29.6308 29.7224 29.6308 29.621L29.4309 26.2879C29.4271 26.1877 29.3853 26.0927 29.314 26.0218C29.2427 25.9509 29.1472 25.9094 29.0464 25.9057C29.0091 25.9057 28.9723 25.9111 28.9371 25.9214ZM25.3522 29.239H28.8389L28.6863 26.6939L25.2388 26.8478L25.3522 29.239Z"/>
<path fill-rule="evenodd" clip-rule="evenodd" d="M25.1858 37.652C25.1659 37.6987 25.1553 37.7494 25.1553 37.8011C25.1553 37.9025 25.1959 37.9997 25.268 38.0714C25.3401 38.1431 25.4378 38.1833 25.5398 38.1833H28.8464C28.9484 38.1833 29.0461 38.1431 29.1182 38.0714C29.1903 37.9997 29.2309 37.9025 29.2309 37.8011C29.2309 37.7642 29.2255 37.7279 29.2152 37.6932V33.9481C29.2152 33.8467 29.1747 33.7495 29.1026 33.6778C29.0305 33.6061 28.9327 33.5658 28.8307 33.5658C28.7562 33.5658 28.6839 33.5873 28.6222 33.6269H25.2318C25.1298 33.6269 25.032 33.6672 24.9599 33.7389C24.8878 33.8106 24.8473 33.9078 24.8473 34.0092C24.8473 34.1105 24.8878 34.2078 24.9599 34.2795C25.0212 34.3404 25.101 34.3786 25.1862 34.3887C25.1859 34.3947 25.1858 34.4007 25.1858 34.4067V37.652ZM25.9544 34.3914C25.9546 34.3965 25.9547 34.4016 25.9547 34.4067V37.4188H28.4463V34.3914H25.9544Z"/>
<path fill-rule="evenodd" clip-rule="evenodd" d="M33.2305 38.4231C33.292 38.4933 33.3839 38.5386 33.5062 38.5348L53.4993 38.3819C53.6012 38.3819 53.6991 38.3416 53.7712 38.2699L53.7745 38.2666C53.7894 38.2899 53.8069 38.3116 53.8268 38.3314C53.8989 38.4031 53.9967 38.4434 54.0986 38.4434C54.2006 38.4434 54.2984 38.4031 54.3705 38.3314C54.4426 38.2598 54.4831 38.1625 54.4831 38.0612C54.4374 36.6779 54.2675 35.3015 53.9756 33.9482C53.9373 33.7514 53.7876 33.6706 53.6323 33.6773C53.5968 33.6658 53.5576 33.6589 53.5146 33.6575C46.7939 33.3823 40.0578 33.4282 33.3524 33.7798C32.9263 33.7798 32.8576 34.3757 33.176 34.5159C33.1173 34.5342 33.0633 34.5663 33.0189 34.6104C32.9468 34.6821 32.9064 34.7793 32.9064 34.8807V38.0456C32.9064 38.147 32.9468 38.2442 33.0189 38.3159C33.0767 38.3733 33.1509 38.4106 33.2305 38.4231ZM33.4624 34.5386C33.4992 34.5568 33.5331 34.581 33.5627 34.6104C33.6348 34.6821 33.6754 34.7793 33.6754 34.8807V37.769L53.4993 37.6174C53.5698 37.6174 53.6383 37.6367 53.6978 37.6723C53.6422 36.5776 53.5066 35.4883 53.2921 34.413C46.682 34.1493 40.0574 34.196 33.4624 34.5386Z"/>
<path fill-rule="evenodd" clip-rule="evenodd" d="M33.6493 46.3951C33.7071 46.4371 33.7824 46.4606 33.8751 46.4549C40.6066 46.1032 47.3519 46.1032 54.0834 46.4549C54.1398 46.4549 54.1897 46.4456 54.2333 46.4292C54.2998 46.4822 54.3821 46.5129 54.4681 46.5161C54.57 46.5161 54.6679 46.4759 54.74 46.4042C54.8121 46.3325 54.8526 46.2353 54.8526 46.1339C54.923 44.9604 54.8351 43.7828 54.5911 42.6326C54.5625 42.5386 54.4986 42.4592 54.4127 42.4109C54.39 42.3981 54.3662 42.3877 54.3418 42.3798C54.2712 42.3163 54.1792 42.2809 54.0836 42.2809L33.6599 42.4797C33.4975 42.4797 33.3886 42.5646 33.3334 42.6779C33.3257 42.6845 33.3182 42.6913 33.311 42.6985C33.2389 42.7702 33.1985 42.8674 33.1985 42.9688L33.3676 46.0267C33.3676 46.1281 33.4081 46.2253 33.4802 46.297C33.5275 46.3441 33.5859 46.3776 33.6493 46.3951ZM33.9825 43.241L34.1173 45.6779C40.7684 45.3388 47.4327 45.3429 54.0834 45.6904C54.0891 45.6906 54.0948 45.6908 54.1003 45.6912C54.1176 44.8041 54.0369 43.9176 53.8597 43.0476L33.9825 43.241Z"/>
<path fill-rule="evenodd" clip-rule="evenodd" d="M25.0525 43.118C25.0362 43.1297 25.0208 43.1428 25.0064 43.1571C24.9343 43.2288 24.8937 43.326 24.8937 43.4274C24.9089 44.4015 25.0015 45.3729 25.1705 46.3324C25.1812 46.3814 25.2019 46.4277 25.2313 46.4684C25.2606 46.5092 25.2981 46.5435 25.3414 46.5693C25.3846 46.5951 25.4327 46.6118 25.4826 46.6184C25.4935 46.6198 25.5045 46.6208 25.5154 46.6212C25.5286 46.6226 25.5419 46.6233 25.5553 46.6233H28.6311C28.6701 46.6233 28.7085 46.6174 28.7451 46.6061C28.7688 46.6038 28.7923 46.5993 28.8155 46.5926C28.8633 46.5803 28.9083 46.5585 28.9475 46.5285C28.9868 46.4986 29.0195 46.4611 29.0439 46.4183C29.0683 46.3756 29.0838 46.3283 29.0895 46.2795C29.0951 46.2306 29.0908 46.1811 29.0769 46.1339C28.8823 45.0496 28.8101 43.947 28.8616 42.8467C28.8616 42.7453 28.8211 42.6481 28.749 42.5764C28.6769 42.5047 28.5791 42.4644 28.4772 42.4644C28.4061 42.4671 28.3376 42.4885 28.2784 42.5257H25.3707C25.0332 42.5257 24.9271 42.8924 25.0525 43.118ZM25.8647 45.8588C25.742 45.0539 25.6746 44.2416 25.6627 43.4274C25.6627 43.38 25.6538 43.3336 25.6371 43.2902H28.0779C28.0621 44.15 28.1217 45.0094 28.2559 45.8588H25.8647Z"/>
<path fill-rule="evenodd" clip-rule="evenodd" d="M28.45 50.4347C28.5076 50.0047 29.2155 50.0417 29.2155 50.5065L29.3529 54.3761C29.3736 54.4236 29.3846 54.4753 29.3846 54.5281C29.3846 54.6295 29.3441 54.7268 29.272 54.7984C29.1999 54.8701 29.102 54.9104 29.0001 54.9104H25.9242C25.8222 54.9104 25.7245 54.8701 25.6524 54.7984C25.6353 54.7815 25.62 54.7631 25.6066 54.7436C25.6027 54.74 25.5989 54.7364 25.5952 54.7326C25.5239 54.6618 25.4821 54.5667 25.4783 54.4665V51.6991C25.4783 51.5977 25.5189 51.5005 25.591 51.4288C25.6369 51.3832 25.6932 51.3503 25.7544 51.3324L25.6013 51.3324C25.0938 51.3477 25.1091 50.5679 25.6013 50.5679C26.5417 50.5679 27.4954 50.5154 28.45 50.4347ZM25.9585 51.3322C26.023 51.3506 26.0822 51.3851 26.1304 51.433C26.2017 51.5039 26.2435 51.5989 26.2473 51.6991V54.1459H28.5757L28.4714 51.2084C27.6405 51.317 26.8001 51.3305 25.9585 51.3322Z"/>
<path fill-rule="evenodd" clip-rule="evenodd" d="M32.7709 55.2103C32.7902 55.385 32.9124 55.544 33.1372 55.537L53.1303 55.4147C53.2323 55.4147 53.3302 55.3744 53.4023 55.3027C53.4744 55.2311 53.5148 55.1338 53.5148 55.0325C53.5148 55.0298 53.5148 55.0272 53.5147 55.0245C53.5146 55.0211 53.5145 55.0177 53.5144 55.0143C53.741 55.0816 54.0315 54.9655 54.0221 54.6659L53.899 51.2257C53.899 51.0945 53.8426 50.9985 53.7604 50.9377C53.7413 50.8932 53.7137 50.8522 53.6787 50.8174C53.6066 50.7457 53.5087 50.7054 53.4067 50.7054L33.2445 50.843C33.1425 50.843 33.0447 50.8833 32.9726 50.955C32.9139 51.0134 32.8761 51.0888 32.8641 51.1696C32.8426 51.1659 32.8207 51.164 32.7986 51.164C32.6967 51.164 32.5988 51.2043 32.5267 51.276C32.4546 51.3476 32.4142 51.4449 32.4142 51.5463L32.691 54.9864C32.6941 55.0678 32.7222 55.1458 32.7709 55.2103ZM53.1388 51.4717L33.2445 51.6075C33.2254 51.6075 33.2064 51.6061 33.1877 51.6033L33.4426 54.7707L53.1303 54.6502C53.1725 54.6502 53.2139 54.6571 53.2531 54.6702L53.2531 54.6659L53.1388 51.4717Z"/>
</mask>
<path fill-rule="evenodd" clip-rule="evenodd" d="M33.7059 25.2482C40.0925 25.8268 46.5207 25.7858 52.8993 25.1259C53.1525 25.1023 53.2754 25.3053 53.2681 25.508C53.5389 26.9079 53.6474 28.3341 53.5915 29.7587C53.5828 30.0359 53.3371 30.161 53.1257 30.1255L53.1147 30.1256C46.5426 30.2174 39.9756 30.1715 33.4138 29.988C33.1636 29.9803 33.0406 29.7829 33.0448 29.5906C33.0346 29.5561 33.0293 29.52 33.0293 29.4833C33.0164 28.1722 33.1194 26.8624 33.3369 25.5692C33.3386 25.5625 33.3405 25.5559 33.3425 25.5493C33.3694 25.3887 33.4905 25.2482 33.7059 25.2482ZM34.0324 26.0417C33.8745 27.0986 33.7957 28.1656 33.7966 29.2341C40.1475 29.4062 46.4936 29.4499 52.8349 29.365C52.8584 28.2122 52.7695 27.0598 52.5693 25.924C46.4077 26.5406 40.2014 26.5801 34.0324 26.0417Z" fill="white"/>
<path fill-rule="evenodd" clip-rule="evenodd" d="M28.9371 25.9214C28.918 25.9198 28.8979 25.9197 28.877 25.921L25.1091 26.0891C24.93 26.0891 24.8161 26.1944 24.7673 26.3269C24.6952 26.3422 24.6285 26.3779 24.5755 26.4305C24.5034 26.5022 24.4629 26.5994 24.4629 26.7008L24.5902 29.3866C24.5381 29.4534 24.5093 29.5358 24.5093 29.6212C24.5093 29.7226 24.5498 29.8198 24.622 29.8915C24.6941 29.9632 24.7918 30.0034 24.8938 30.0034H29.2308L29.2423 30.0033L29.2463 30.0033C29.3483 30.0033 29.4461 29.963 29.5182 29.8913C29.5903 29.8196 29.6308 29.7224 29.6308 29.621L29.4309 26.2879C29.4271 26.1877 29.3853 26.0927 29.314 26.0218C29.2427 25.9509 29.1472 25.9094 29.0464 25.9057C29.0091 25.9057 28.9723 25.9111 28.9371 25.9214ZM25.3522 29.239H28.8389L28.6863 26.6939L25.2388 26.8478L25.3522 29.239Z" fill="white"/>
<path fill-rule="evenodd" clip-rule="evenodd" d="M25.1858 37.652C25.1659 37.6987 25.1553 37.7494 25.1553 37.8011C25.1553 37.9025 25.1959 37.9997 25.268 38.0714C25.3401 38.1431 25.4378 38.1833 25.5398 38.1833H28.8464C28.9484 38.1833 29.0461 38.1431 29.1182 38.0714C29.1903 37.9997 29.2309 37.9025 29.2309 37.8011C29.2309 37.7642 29.2255 37.7279 29.2152 37.6932V33.9481C29.2152 33.8467 29.1747 33.7495 29.1026 33.6778C29.0305 33.6061 28.9327 33.5658 28.8307 33.5658C28.7562 33.5658 28.6839 33.5873 28.6222 33.6269H25.2318C25.1298 33.6269 25.032 33.6672 24.9599 33.7389C24.8878 33.8106 24.8473 33.9078 24.8473 34.0092C24.8473 34.1105 24.8878 34.2078 24.9599 34.2795C25.0212 34.3404 25.101 34.3786 25.1862 34.3887C25.1859 34.3947 25.1858 34.4007 25.1858 34.4067V37.652ZM25.9544 34.3914C25.9546 34.3965 25.9547 34.4016 25.9547 34.4067V37.4188H28.4463V34.3914H25.9544Z" fill="white"/>
<path fill-rule="evenodd" clip-rule="evenodd" d="M33.2305 38.4231C33.292 38.4933 33.3839 38.5386 33.5062 38.5348L53.4993 38.3819C53.6012 38.3819 53.6991 38.3416 53.7712 38.2699L53.7745 38.2666C53.7894 38.2899 53.8069 38.3116 53.8268 38.3314C53.8989 38.4031 53.9967 38.4434 54.0986 38.4434C54.2006 38.4434 54.2984 38.4031 54.3705 38.3314C54.4426 38.2598 54.4831 38.1625 54.4831 38.0612C54.4374 36.6779 54.2675 35.3015 53.9756 33.9482C53.9373 33.7514 53.7876 33.6706 53.6323 33.6773C53.5968 33.6658 53.5576 33.6589 53.5146 33.6575C46.7939 33.3823 40.0578 33.4282 33.3524 33.7798C32.9263 33.7798 32.8576 34.3757 33.176 34.5159C33.1173 34.5342 33.0633 34.5663 33.0189 34.6104C32.9468 34.6821 32.9064 34.7793 32.9064 34.8807V38.0456C32.9064 38.147 32.9468 38.2442 33.0189 38.3159C33.0767 38.3733 33.1509 38.4106 33.2305 38.4231ZM33.4624 34.5386C33.4992 34.5568 33.5331 34.581 33.5627 34.6104C33.6348 34.6821 33.6754 34.7793 33.6754 34.8807V37.769L53.4993 37.6174C53.5698 37.6174 53.6383 37.6367 53.6978 37.6723C53.6422 36.5776 53.5066 35.4883 53.2921 34.413C46.682 34.1493 40.0574 34.196 33.4624 34.5386Z" fill="white"/>
<path fill-rule="evenodd" clip-rule="evenodd" d="M33.6493 46.3951C33.7071 46.4371 33.7824 46.4606 33.8751 46.4549C40.6066 46.1032 47.3519 46.1032 54.0834 46.4549C54.1398 46.4549 54.1897 46.4456 54.2333 46.4292C54.2998 46.4822 54.3821 46.5129 54.4681 46.5161C54.57 46.5161 54.6679 46.4759 54.74 46.4042C54.8121 46.3325 54.8526 46.2353 54.8526 46.1339C54.923 44.9604 54.8351 43.7828 54.5911 42.6326C54.5625 42.5386 54.4986 42.4592 54.4127 42.4109C54.39 42.3981 54.3662 42.3877 54.3418 42.3798C54.2712 42.3163 54.1792 42.2809 54.0836 42.2809L33.6599 42.4797C33.4975 42.4797 33.3886 42.5646 33.3334 42.6779C33.3257 42.6845 33.3182 42.6913 33.311 42.6985C33.2389 42.7702 33.1985 42.8674 33.1985 42.9688L33.3676 46.0267C33.3676 46.1281 33.4081 46.2253 33.4802 46.297C33.5275 46.3441 33.5859 46.3776 33.6493 46.3951ZM33.9825 43.241L34.1173 45.6779C40.7684 45.3388 47.4327 45.3429 54.0834 45.6904C54.0891 45.6906 54.0948 45.6908 54.1003 45.6912C54.1176 44.8041 54.0369 43.9176 53.8597 43.0476L33.9825 43.241Z" fill="white"/>
<path fill-rule="evenodd" clip-rule="evenodd" d="M25.0525 43.118C25.0362 43.1297 25.0208 43.1428 25.0064 43.1571C24.9343 43.2288 24.8937 43.326 24.8937 43.4274C24.9089 44.4015 25.0015 45.3729 25.1705 46.3324C25.1812 46.3814 25.2019 46.4277 25.2313 46.4684C25.2606 46.5092 25.2981 46.5435 25.3414 46.5693C25.3846 46.5951 25.4327 46.6118 25.4826 46.6184C25.4935 46.6198 25.5045 46.6208 25.5154 46.6212C25.5286 46.6226 25.5419 46.6233 25.5553 46.6233H28.6311C28.6701 46.6233 28.7085 46.6174 28.7451 46.6061C28.7688 46.6038 28.7923 46.5993 28.8155 46.5926C28.8633 46.5803 28.9083 46.5585 28.9475 46.5285C28.9868 46.4986 29.0195 46.4611 29.0439 46.4183C29.0683 46.3756 29.0838 46.3283 29.0895 46.2795C29.0951 46.2306 29.0908 46.1811 29.0769 46.1339C28.8823 45.0496 28.8101 43.947 28.8616 42.8467C28.8616 42.7453 28.8211 42.6481 28.749 42.5764C28.6769 42.5047 28.5791 42.4644 28.4772 42.4644C28.4061 42.4671 28.3376 42.4885 28.2784 42.5257H25.3707C25.0332 42.5257 24.9271 42.8924 25.0525 43.118ZM25.8647 45.8588C25.742 45.0539 25.6746 44.2416 25.6627 43.4274C25.6627 43.38 25.6538 43.3336 25.6371 43.2902H28.0779C28.0621 44.15 28.1217 45.0094 28.2559 45.8588H25.8647Z" fill="white"/>
<path fill-rule="evenodd" clip-rule="evenodd" d="M28.45 50.4347C28.5076 50.0047 29.2155 50.0417 29.2155 50.5065L29.3529 54.3761C29.3736 54.4236 29.3846 54.4753 29.3846 54.5281C29.3846 54.6295 29.3441 54.7268 29.272 54.7984C29.1999 54.8701 29.102 54.9104 29.0001 54.9104H25.9242C25.8222 54.9104 25.7245 54.8701 25.6524 54.7984C25.6353 54.7815 25.62 54.7631 25.6066 54.7436C25.6027 54.74 25.5989 54.7364 25.5952 54.7326C25.5239 54.6618 25.4821 54.5667 25.4783 54.4665V51.6991C25.4783 51.5977 25.5189 51.5005 25.591 51.4288C25.6369 51.3832 25.6932 51.3503 25.7544 51.3324L25.6013 51.3324C25.0938 51.3477 25.1091 50.5679 25.6013 50.5679C26.5417 50.5679 27.4954 50.5154 28.45 50.4347ZM25.9585 51.3322C26.023 51.3506 26.0822 51.3851 26.1304 51.433C26.2017 51.5039 26.2435 51.5989 26.2473 51.6991V54.1459H28.5757L28.4714 51.2084C27.6405 51.317 26.8001 51.3305 25.9585 51.3322Z" fill="white"/>
<path fill-rule="evenodd" clip-rule="evenodd" d="M32.7709 55.2103C32.7902 55.385 32.9124 55.544 33.1372 55.537L53.1303 55.4147C53.2323 55.4147 53.3302 55.3744 53.4023 55.3027C53.4744 55.2311 53.5148 55.1338 53.5148 55.0325C53.5148 55.0298 53.5148 55.0272 53.5147 55.0245C53.5146 55.0211 53.5145 55.0177 53.5144 55.0143C53.741 55.0816 54.0315 54.9655 54.0221 54.6659L53.899 51.2257C53.899 51.0945 53.8426 50.9985 53.7604 50.9377C53.7413 50.8932 53.7137 50.8522 53.6787 50.8174C53.6066 50.7457 53.5087 50.7054 53.4067 50.7054L33.2445 50.843C33.1425 50.843 33.0447 50.8833 32.9726 50.955C32.9139 51.0134 32.8761 51.0888 32.8641 51.1696C32.8426 51.1659 32.8207 51.164 32.7986 51.164C32.6967 51.164 32.5988 51.2043 32.5267 51.276C32.4546 51.3476 32.4142 51.4449 32.4142 51.5463L32.691 54.9864C32.6941 55.0678 32.7222 55.1458 32.7709 55.2103ZM53.1388 51.4717L33.2445 51.6075C33.2254 51.6075 33.2064 51.6061 33.1877 51.6033L33.4426 54.7707L53.1303 54.6502C53.1725 54.6502 53.2139 54.6571 53.2531 54.6702L53.2531 54.6659L53.1388 51.4717Z" fill="white"/>
<path fill-rule="evenodd" clip-rule="evenodd" d="M33.7059 25.2482C40.0925 25.8268 46.5207 25.7858 52.8993 25.1259C53.1525 25.1023 53.2754 25.3053 53.2681 25.508C53.5389 26.9079 53.6474 28.3341 53.5915 29.7587C53.5828 30.0359 53.3371 30.161 53.1257 30.1255L53.1147 30.1256C46.5426 30.2174 39.9756 30.1715 33.4138 29.988C33.1636 29.9803 33.0406 29.7829 33.0448 29.5906C33.0346 29.5561 33.0293 29.52 33.0293 29.4833C33.0164 28.1722 33.1194 26.8624 33.3369 25.5692C33.3386 25.5625 33.3405 25.5559 33.3425 25.5493C33.3694 25.3887 33.4905 25.2482 33.7059 25.2482ZM34.0324 26.0417C33.8745 27.0986 33.7957 28.1656 33.7966 29.2341C40.1475 29.4062 46.4936 29.4499 52.8349 29.365C52.8584 28.2122 52.7695 27.0598 52.5693 25.924C46.4077 26.5406 40.2014 26.5801 34.0324 26.0417Z" stroke="white" stroke-width="0.905082" stroke-linejoin="round" mask="url(#path-2-outside-1_0_225)"/>
<path fill-rule="evenodd" clip-rule="evenodd" d="M28.9371 25.9214C28.918 25.9198 28.8979 25.9197 28.877 25.921L25.1091 26.0891C24.93 26.0891 24.8161 26.1944 24.7673 26.3269C24.6952 26.3422 24.6285 26.3779 24.5755 26.4305C24.5034 26.5022 24.4629 26.5994 24.4629 26.7008L24.5902 29.3866C24.5381 29.4534 24.5093 29.5358 24.5093 29.6212C24.5093 29.7226 24.5498 29.8198 24.622 29.8915C24.6941 29.9632 24.7918 30.0034 24.8938 30.0034H29.2308L29.2423 30.0033L29.2463 30.0033C29.3483 30.0033 29.4461 29.963 29.5182 29.8913C29.5903 29.8196 29.6308 29.7224 29.6308 29.621L29.4309 26.2879C29.4271 26.1877 29.3853 26.0927 29.314 26.0218C29.2427 25.9509 29.1472 25.9094 29.0464 25.9057C29.0091 25.9057 28.9723 25.9111 28.9371 25.9214ZM25.3522 29.239H28.8389L28.6863 26.6939L25.2388 26.8478L25.3522 29.239Z" stroke="white" stroke-width="0.905082" stroke-linejoin="round" mask="url(#path-2-outside-1_0_225)"/>
<path fill-rule="evenodd" clip-rule="evenodd" d="M25.1858 37.652C25.1659 37.6987 25.1553 37.7494 25.1553 37.8011C25.1553 37.9025 25.1959 37.9997 25.268 38.0714C25.3401 38.1431 25.4378 38.1833 25.5398 38.1833H28.8464C28.9484 38.1833 29.0461 38.1431 29.1182 38.0714C29.1903 37.9997 29.2309 37.9025 29.2309 37.8011C29.2309 37.7642 29.2255 37.7279 29.2152 37.6932V33.9481C29.2152 33.8467 29.1747 33.7495 29.1026 33.6778C29.0305 33.6061 28.9327 33.5658 28.8307 33.5658C28.7562 33.5658 28.6839 33.5873 28.6222 33.6269H25.2318C25.1298 33.6269 25.032 33.6672 24.9599 33.7389C24.8878 33.8106 24.8473 33.9078 24.8473 34.0092C24.8473 34.1105 24.8878 34.2078 24.9599 34.2795C25.0212 34.3404 25.101 34.3786 25.1862 34.3887C25.1859 34.3947 25.1858 34.4007 25.1858 34.4067V37.652ZM25.9544 34.3914C25.9546 34.3965 25.9547 34.4016 25.9547 34.4067V37.4188H28.4463V34.3914H25.9544Z" stroke="white" stroke-width="0.905082" stroke-linejoin="round" mask="url(#path-2-outside-1_0_225)"/>
<path fill-rule="evenodd" clip-rule="evenodd" d="M33.2305 38.4231C33.292 38.4933 33.3839 38.5386 33.5062 38.5348L53.4993 38.3819C53.6012 38.3819 53.6991 38.3416 53.7712 38.2699L53.7745 38.2666C53.7894 38.2899 53.8069 38.3116 53.8268 38.3314C53.8989 38.4031 53.9967 38.4434 54.0986 38.4434C54.2006 38.4434 54.2984 38.4031 54.3705 38.3314C54.4426 38.2598 54.4831 38.1625 54.4831 38.0612C54.4374 36.6779 54.2675 35.3015 53.9756 33.9482C53.9373 33.7514 53.7876 33.6706 53.6323 33.6773C53.5968 33.6658 53.5576 33.6589 53.5146 33.6575C46.7939 33.3823 40.0578 33.4282 33.3524 33.7798C32.9263 33.7798 32.8576 34.3757 33.176 34.5159C33.1173 34.5342 33.0633 34.5663 33.0189 34.6104C32.9468 34.6821 32.9064 34.7793 32.9064 34.8807V38.0456C32.9064 38.147 32.9468 38.2442 33.0189 38.3159C33.0767 38.3733 33.1509 38.4106 33.2305 38.4231ZM33.4624 34.5386C33.4992 34.5568 33.5331 34.581 33.5627 34.6104C33.6348 34.6821 33.6754 34.7793 33.6754 34.8807V37.769L53.4993 37.6174C53.5698 37.6174 53.6383 37.6367 53.6978 37.6723C53.6422 36.5776 53.5066 35.4883 53.2921 34.413C46.682 34.1493 40.0574 34.196 33.4624 34.5386Z" stroke="white" stroke-width="0.905082" stroke-linejoin="round" mask="url(#path-2-outside-1_0_225)"/>
<path fill-rule="evenodd" clip-rule="evenodd" d="M33.6493 46.3951C33.7071 46.4371 33.7824 46.4606 33.8751 46.4549C40.6066 46.1032 47.3519 46.1032 54.0834 46.4549C54.1398 46.4549 54.1897 46.4456 54.2333 46.4292C54.2998 46.4822 54.3821 46.5129 54.4681 46.5161C54.57 46.5161 54.6679 46.4759 54.74 46.4042C54.8121 46.3325 54.8526 46.2353 54.8526 46.1339C54.923 44.9604 54.8351 43.7828 54.5911 42.6326C54.5625 42.5386 54.4986 42.4592 54.4127 42.4109C54.39 42.3981 54.3662 42.3877 54.3418 42.3798C54.2712 42.3163 54.1792 42.2809 54.0836 42.2809L33.6599 42.4797C33.4975 42.4797 33.3886 42.5646 33.3334 42.6779C33.3257 42.6845 33.3182 42.6913 33.311 42.6985C33.2389 42.7702 33.1985 42.8674 33.1985 42.9688L33.3676 46.0267C33.3676 46.1281 33.4081 46.2253 33.4802 46.297C33.5275 46.3441 33.5859 46.3776 33.6493 46.3951ZM33.9825 43.241L34.1173 45.6779C40.7684 45.3388 47.4327 45.3429 54.0834 45.6904C54.0891 45.6906 54.0948 45.6908 54.1003 45.6912C54.1176 44.8041 54.0369 43.9176 53.8597 43.0476L33.9825 43.241Z" stroke="white" stroke-width="0.905082" stroke-linejoin="round" mask="url(#path-2-outside-1_0_225)"/>
<path fill-rule="evenodd" clip-rule="evenodd" d="M25.0525 43.118C25.0362 43.1297 25.0208 43.1428 25.0064 43.1571C24.9343 43.2288 24.8937 43.326 24.8937 43.4274C24.9089 44.4015 25.0015 45.3729 25.1705 46.3324C25.1812 46.3814 25.2019 46.4277 25.2313 46.4684C25.2606 46.5092 25.2981 46.5435 25.3414 46.5693C25.3846 46.5951 25.4327 46.6118 25.4826 46.6184C25.4935 46.6198 25.5045 46.6208 25.5154 46.6212C25.5286 46.6226 25.5419 46.6233 25.5553 46.6233H28.6311C28.6701 46.6233 28.7085 46.6174 28.7451 46.6061C28.7688 46.6038 28.7923 46.5993 28.8155 46.5926C28.8633 46.5803 28.9083 46.5585 28.9475 46.5285C28.9868 46.4986 29.0195 46.4611 29.0439 46.4183C29.0683 46.3756 29.0838 46.3283 29.0895 46.2795C29.0951 46.2306 29.0908 46.1811 29.0769 46.1339C28.8823 45.0496 28.8101 43.947 28.8616 42.8467C28.8616 42.7453 28.8211 42.6481 28.749 42.5764C28.6769 42.5047 28.5791 42.4644 28.4772 42.4644C28.4061 42.4671 28.3376 42.4885 28.2784 42.5257H25.3707C25.0332 42.5257 24.9271 42.8924 25.0525 43.118ZM25.8647 45.8588C25.742 45.0539 25.6746 44.2416 25.6627 43.4274C25.6627 43.38 25.6538 43.3336 25.6371 43.2902H28.0779C28.0621 44.15 28.1217 45.0094 28.2559 45.8588H25.8647Z" stroke="white" stroke-width="0.905082" stroke-linejoin="round" mask="url(#path-2-outside-1_0_225)"/>
<path fill-rule="evenodd" clip-rule="evenodd" d="M28.45 50.4347C28.5076 50.0047 29.2155 50.0417 29.2155 50.5065L29.3529 54.3761C29.3736 54.4236 29.3846 54.4753 29.3846 54.5281C29.3846 54.6295 29.3441 54.7268 29.272 54.7984C29.1999 54.8701 29.102 54.9104 29.0001 54.9104H25.9242C25.8222 54.9104 25.7245 54.8701 25.6524 54.7984C25.6353 54.7815 25.62 54.7631 25.6066 54.7436C25.6027 54.74 25.5989 54.7364 25.5952 54.7326C25.5239 54.6618 25.4821 54.5667 25.4783 54.4665V51.6991C25.4783 51.5977 25.5189 51.5005 25.591 51.4288C25.6369 51.3832 25.6932 51.3503 25.7544 51.3324L25.6013 51.3324C25.0938 51.3477 25.1091 50.5679 25.6013 50.5679C26.5417 50.5679 27.4954 50.5154 28.45 50.4347ZM25.9585 51.3322C26.023 51.3506 26.0822 51.3851 26.1304 51.433C26.2017 51.5039 26.2435 51.5989 26.2473 51.6991V54.1459H28.5757L28.4714 51.2084C27.6405 51.317 26.8001 51.3305 25.9585 51.3322Z" stroke="white" stroke-width="0.905082" stroke-linejoin="round" mask="url(#path-2-outside-1_0_225)"/>
<path fill-rule="evenodd" clip-rule="evenodd" d="M32.7709 55.2103C32.7902 55.385 32.9124 55.544 33.1372 55.537L53.1303 55.4147C53.2323 55.4147 53.3302 55.3744 53.4023 55.3027C53.4744 55.2311 53.5148 55.1338 53.5148 55.0325C53.5148 55.0298 53.5148 55.0272 53.5147 55.0245C53.5146 55.0211 53.5145 55.0177 53.5144 55.0143C53.741 55.0816 54.0315 54.9655 54.0221 54.6659L53.899 51.2257C53.899 51.0945 53.8426 50.9985 53.7604 50.9377C53.7413 50.8932 53.7137 50.8522 53.6787 50.8174C53.6066 50.7457 53.5087 50.7054 53.4067 50.7054L33.2445 50.843C33.1425 50.843 33.0447 50.8833 32.9726 50.955C32.9139 51.0134 32.8761 51.0888 32.8641 51.1696C32.8426 51.1659 32.8207 51.164 32.7986 51.164C32.6967 51.164 32.5988 51.2043 32.5267 51.276C32.4546 51.3476 32.4142 51.4449 32.4142 51.5463L32.691 54.9864C32.6941 55.0678 32.7222 55.1458 32.7709 55.2103ZM53.1388 51.4717L33.2445 51.6075C33.2254 51.6075 33.2064 51.6061 33.1877 51.6033L33.4426 54.7707L53.1303 54.6502C53.1725 54.6502 53.2139 54.6571 53.2531 54.6702L53.2531 54.6659L53.1388 51.4717Z" stroke="white" stroke-width="0.905082" stroke-linejoin="round" mask="url(#path-2-outside-1_0_225)"/>
</svg>
