<svg width="80" height="80" viewBox="0 0 80 80" fill="none" xmlns="http://www.w3.org/2000/svg">
<circle cx="40" cy="40" r="40" fill="#EC724A"/>
<path d="M23.9591 34.3329C23.9422 34.3963 23.9352 34.465 23.9398 34.538L23.9397 34.538L23.9402 34.5434C24.5153 41.1795 24.825 47.7822 24.8693 54.3516C24.8693 54.3519 24.8693 54.3521 24.8693 54.3523L25.0955 54.3508M23.9591 34.3329L24.9029 54.5612M23.9591 34.3329L22.2186 34.3016L22.2156 34.3016L22.2156 34.3015C22.0135 34.2952 21.8556 34.2088 21.7503 34.0838C21.6218 34.0939 21.4898 34.0684 21.3748 34.0047C21.1922 33.9035 21.0668 33.7126 21.0668 33.4611C21.0668 33.4561 21.0669 33.4511 21.0673 33.4461C21.2306 30.9936 20.9694 28.5312 20.2951 26.1676C20.2478 26.0045 20.267 25.8292 20.3487 25.6803C20.4305 25.5311 20.5682 25.4206 20.7315 25.3729C20.8948 25.3253 21.0703 25.3445 21.2195 25.4263C21.2443 25.4399 21.268 25.455 21.2905 25.4715C33.5195 25.7473 45.7321 25.5565 57.9285 24.8991L23.9591 34.3329ZM25.0955 54.3508C25.0955 54.4152 25.108 54.4718 25.1298 54.5206M25.0955 54.3508C25.0512 47.7751 24.7413 41.1661 24.1656 34.5239L25.0955 54.3508ZM25.1298 54.5206L24.9039 54.5071C24.9029 54.525 24.9025 54.5431 24.9029 54.5612M25.1298 54.5206L24.9233 54.613C24.9157 54.5961 24.9089 54.5789 24.9029 54.5612M25.1298 54.5206C25.1173 54.7301 25.2498 54.9556 25.5275 54.9816C35.7541 55.89 46.0491 55.684 56.2311 54.3672M24.9029 54.5612C24.9095 54.856 25.1108 55.1698 25.5064 55.2069L25.5075 55.207C35.746 56.1165 46.0531 55.9107 56.2471 54.5933M56.2311 54.3672V54.5935C56.2364 54.5935 56.2418 54.5934 56.2471 54.5933M56.2311 54.3672C56.7023 54.3672 56.7561 53.6159 56.3542 53.5397L56.2471 54.5933M56.2311 54.3672L56.2601 54.5916C56.2558 54.5922 56.2514 54.5928 56.2471 54.5933M57.8031 29.6889C57.8071 29.7646 57.811 29.8403 57.8146 29.9161M57.8031 29.6889C57.8642 29.692 57.9252 29.6951 57.9863 29.6982L57.9889 29.6984C58.0028 29.6992 58.0167 29.7005 58.0304 29.7021C57.9683 28.5124 57.8639 27.3248 57.7175 26.1416L57.7202 26.1935C57.6459 26.1974 57.5716 26.2013 57.4973 26.2052M57.8031 29.6889C57.7418 28.5249 57.6398 27.363 57.4973 26.2052M57.8031 29.6889C45.9467 29.0877 34.0738 28.8414 22.1846 28.9501C22.0842 28.216 21.948 27.4866 21.7761 26.7644C33.6986 27.0109 45.6057 26.8244 57.4973 26.2052M57.8146 29.9161L21.7208 26.5369C33.656 26.7851 45.5758 26.5993 57.48 25.9795C57.4777 26.0188 57.4791 26.0589 57.4842 26.0994C57.4886 26.1346 57.493 26.1699 57.4973 26.2052M57.8146 29.9161C45.944 29.3136 34.057 29.0672 22.1536 29.1767L57.8146 29.9161ZM47.4149 40.5814C47.4346 40.5139 47.4218 40.4412 47.3803 40.3845C47.6523 38.5355 47.6724 36.6579 47.4399 34.803C47.4391 34.7868 47.4376 34.7708 47.4355 34.7548L54.8938 34.8889L55.1524 53.4443C45.5298 54.6157 35.8118 54.7947 26.1517 53.9783C26.1404 47.4577 25.8305 40.969 25.2221 34.5122C25.2212 34.4569 25.2138 34.4044 25.2008 34.3552L33.1335 34.4978L33.2885 40.4052C33.2891 40.53 33.322 40.6427 33.3817 40.7374C33.4499 40.9733 33.6505 41.1822 33.9713 41.1927C38.1717 41.3728 42.3788 41.3285 46.5745 41.06C46.6289 41.0594 46.6814 41.0526 46.7315 41.0397C46.8607 41.0534 46.9921 41.0276 47.1076 40.9642C47.2568 40.8824 47.3673 40.7447 47.4149 40.5814ZM56.1748 34.7545L56.1748 34.7532L55.9485 34.7562C55.9485 34.7309 55.9462 34.7059 55.9417 34.6814L56.1748 34.7545ZM22.3231 30.2322C34.1723 30.159 46.0161 30.4067 57.8544 30.9752C57.8786 31.8695 57.8788 32.7644 57.8551 33.6592L22.3733 33.0215C22.4136 32.0903 22.3967 31.1588 22.3231 30.2322ZM34.3759 46.307L34.3618 46.0812L46.957 46.1912H46.9653C47.1612 46.1912 47.3241 46.1138 47.4351 45.9859C47.5422 45.8625 47.5901 45.7053 47.5901 45.556C47.5901 45.4067 47.5422 45.2498 47.4371 45.1254C47.3286 44.9971 47.1687 44.915 46.9737 44.9086C42.7729 44.7534 38.5667 44.7921 34.3549 45.0247C34.1573 45.0266 33.9963 45.1106 33.8884 45.2412C33.7836 45.3681 33.737 45.5282 33.737 45.6785C33.737 45.8285 33.7836 45.9893 33.8922 46.1141C34.0063 46.2451 34.1751 46.3196 34.3759 46.307ZM34.5536 49.5951L34.5536 49.5951L47.513 48.6549L47.515 48.4286L47.514 48.4286C47.5137 48.4286 47.5133 48.4286 47.513 48.4286L34.5627 48.3124H34.5607C34.3648 48.3124 34.2019 48.3898 34.0909 48.5177C33.9838 48.6411 33.9359 48.7983 33.9359 48.9475C33.9359 49.0969 33.9838 49.2538 34.0889 49.3782C34.1976 49.5068 34.358 49.5889 34.5536 49.5951ZM34.5591 39.9333L34.4171 34.5208L46.1572 34.7318C46.1531 34.7713 46.1537 34.8125 46.1602 34.8552C46.393 36.4942 46.4127 38.1557 46.2192 39.7985C42.3371 40.0361 38.4456 40.0811 34.5591 39.9333Z" fill="white" stroke="white" stroke-width="0.452541" stroke-linejoin="round"/>
</svg>
