<svg width="80" height="80" viewBox="0 0 80 80" fill="none" xmlns="http://www.w3.org/2000/svg">
<circle cx="40" cy="40" r="40" fill="#EC724A"/>
<path d="M46.6138 32.1184V25.8323C46.6138 25.7384 46.5764 25.6483 46.51 25.5819C46.4436 25.5155 46.3535 25.4782 46.2596 25.4782C46.2461 25.4782 46.2327 25.4789 46.2194 25.4804C46.2007 25.4783 46.1811 25.4775 46.1606 25.4782C39.3186 25.7048 32.4484 25.5773 25.6065 25.124L46.7416 32.3908C46.7416 32.2969 46.7043 32.2068 46.6378 32.1404C46.6301 32.1326 46.6221 32.1253 46.6138 32.1184ZM46.6138 32.1184L46.7584 31.9444C46.772 31.9557 46.7852 31.9677 46.7978 31.9804C46.8128 31.9953 46.8269 32.0111 46.84 32.0274M46.6138 32.1184H46.6598H46.84V32.0274M46.84 32.0274V25.8323C46.84 25.6784 46.7789 25.5307 46.67 25.4219C46.5612 25.313 46.4136 25.2519 46.2596 25.2519C46.2462 25.2519 46.2328 25.2523 46.2194 25.2533C46.1978 25.2517 46.1758 25.2513 46.1537 25.252L46.1531 25.252C39.3189 25.4784 32.4562 25.3511 25.6214 24.8982C25.6164 24.8979 25.6114 24.8978 25.6065 24.8978C25.3726 24.8978 25.201 25.0175 25.1115 25.1818C24.9752 25.2797 24.886 25.4413 24.8989 25.6483L24.8989 25.6483L24.8993 25.6532C25.4234 31.8664 25.4683 38.1106 25.0336 44.3304C24.9738 44.4233 24.9413 44.5321 24.9413 44.6443C24.9413 44.7982 25.0025 44.9459 25.1113 45.0547C25.2202 45.1636 25.3678 45.2247 25.5217 45.2247H33.2419C33.3115 45.2247 33.3799 45.2122 33.4439 45.1884L36.505 45.3093L36.505 45.3095H36.514C36.5437 45.3095 36.5724 45.3075 36.6002 45.3038L36.9395 55.2016C36.9413 55.4806 37.1203 55.6614 37.3233 55.7298C37.4856 55.7846 37.6832 55.775 37.8423 55.6816C43.5542 55.7407 49.257 55.6075 54.9506 55.282C55.1966 55.2793 55.3701 55.1371 55.4522 54.9584C55.5197 54.8114 55.5285 54.6358 55.475 54.482C56.1071 48.5483 56.2135 42.5702 55.793 36.6176C55.7889 36.3101 55.5718 36.1283 55.3495 36.0769C55.1788 36.0374 54.965 36.0659 54.8121 36.1973L46.9678 35.99V32.3908C46.9678 32.258 46.9224 32.13 46.84 32.0274ZM33.2932 44.0213L33.2932 44.0211H33.2842C33.204 44.0211 33.1281 44.0356 33.059 44.0639H26.2137C26.6173 38.0783 26.5786 32.071 26.0977 26.091C32.6165 26.5075 39.1599 26.6281 45.6792 26.4282V32.5326C45.6792 32.6653 45.7247 32.7934 45.807 32.8959V35.9594L37.2213 35.7325C37.0991 35.6451 36.9492 35.6125 36.8136 35.6229C36.6609 35.6345 36.4944 35.7037 36.3885 35.8506C36.3733 35.863 36.3586 35.8763 36.3445 35.8903C36.2357 35.9991 36.1745 36.1468 36.1745 36.3007C36.1745 36.4344 36.2207 36.5634 36.3041 36.6663L36.5607 44.1519C36.55 44.1507 36.5391 44.1498 36.5281 44.1491L36.5281 44.149L36.5229 44.1488L33.2932 44.0213ZM38.0773 54.5238L37.4732 36.9002L54.6806 37.3548C55.0368 42.9543 54.9249 48.574 54.346 54.1552C48.9314 54.4606 43.5085 54.5835 38.0773 54.5238Z" fill="white" stroke="white" stroke-width="0.452541" stroke-linejoin="round"/>
</svg>
