<svg width="80" height="80" viewBox="0 0 80 80" fill="none" xmlns="http://www.w3.org/2000/svg">
<circle cx="40" cy="40" r="40" fill="#EC724A"/>
<path d="M30.6294 37.7875C30.5912 37.8292 30.57 37.8838 30.57 37.9404V37.9662C30.0433 38.5441 29.4735 39.2406 29.1406 40.0046C28.7912 40.8063 28.6971 41.6983 29.1949 42.6006C30.1622 44.3539 32.0895 44.4983 33.5725 44.6093L33.6128 44.6124L33.6128 44.6124L33.6143 44.6125C34.4651 44.7461 35.3359 44.5737 36.0716 44.1257C36.075 44.1236 36.0783 44.1215 36.0816 44.1193C36.0838 44.1178 36.086 44.1162 36.0882 44.1146C36.7555 43.6227 37.213 42.8978 37.3698 42.084C37.5672 41.2601 37.5113 40.3957 37.2093 39.604C36.9068 38.8107 36.3713 38.1274 35.6732 37.644C34.9752 37.1606 34.1473 36.8996 33.2982 36.8954C32.4741 36.8913 31.6676 37.1292 30.9783 37.5787C30.85 37.6075 30.7303 37.6775 30.6294 37.7875ZM32.2735 42.8976C32.2665 42.8958 32.2593 42.8944 32.2522 42.8933C31.6559 42.8034 31.0991 42.541 30.65 42.1387C30.4006 41.8792 30.2857 41.6117 30.2559 41.3448C30.2255 41.072 30.2826 40.7832 30.4043 40.4863C30.6439 39.9022 31.1142 39.3325 31.5388 38.8718C31.5759 38.8544 31.6118 38.8332 31.6465 38.8084C32.0959 38.5019 32.6224 38.3278 33.166 38.3061C33.7087 38.2844 34.2466 38.4154 34.7185 38.6842C35.1533 38.9606 35.5085 39.3459 35.7487 39.8018C35.9898 40.2592 36.1068 40.7718 36.0881 41.2885L36.0881 41.2904C36.074 41.7933 35.8881 42.2762 35.5614 42.6586C35.3752 42.8386 35.1524 42.9765 34.908 43.0628C34.6607 43.15 34.3973 43.1823 34.1362 43.1573C34.1315 43.1568 34.1267 43.1565 34.1219 43.1564C33.4983 43.1363 32.8786 43.0496 32.2735 42.8976ZM40.4527 41.8449L40.4527 41.845L40.4572 41.8452L50.2607 42.2434L50.2607 42.2436H50.2699C50.483 42.2436 50.6598 42.1614 50.7808 42.0242C50.8981 41.8914 50.9513 41.7208 50.9513 41.5575C50.9513 41.2302 50.7297 40.8712 50.284 40.8434L50.284 40.8433L50.2791 40.8431L40.4756 40.4449L40.4756 40.4447H40.4664C40.2509 40.4447 40.0712 40.5251 39.9471 40.6615C39.8263 40.7941 39.7708 40.9656 39.7708 41.1308C39.7708 41.4644 40.0029 41.8177 40.4527 41.8449ZM50.9474 49.9612V49.9612H50.9525C51.1673 49.9612 51.3443 49.8766 51.4647 49.7378C51.5812 49.6035 51.6339 49.4318 51.6339 49.268C51.6339 49.1041 51.5812 48.9325 51.4667 48.797C51.3486 48.6572 51.1741 48.5674 50.9596 48.5607L50.9576 48.5606L28.9234 48.0676L28.9234 48.0675H28.9183C28.7035 48.0675 28.5265 48.1522 28.4061 48.291C28.2896 48.4252 28.237 48.5969 28.237 48.7607C28.237 48.9247 28.2896 49.0962 28.4042 49.2318C28.5223 49.3716 28.6967 49.4614 28.9113 49.4681L28.9133 49.4681L50.9474 49.9612ZM49.6142 45.1253L49.6142 45.1256H49.6258C49.8389 45.1256 50.0157 45.0434 50.1367 44.9063C50.254 44.7734 50.3071 44.6029 50.3071 44.4395C50.3071 44.1124 50.0857 43.7535 49.6402 43.7254C46.6753 43.5354 43.7112 43.4974 40.7482 43.5733C40.5636 43.5741 40.3868 43.6478 40.2562 43.7784C40.1249 43.9097 40.0511 44.0879 40.0511 44.2736C40.0511 44.4594 40.1249 44.6375 40.2562 44.7688C40.3875 44.9001 40.5657 44.9739 40.7514 44.9739C43.7105 44.9739 46.6628 44.974 49.6142 45.1253ZM28.1333 32.9137C27.8617 33.0224 27.721 33.2407 27.6808 33.4662H25.259C24.9165 33.4662 24.696 33.6829 24.6149 33.9343C24.5547 34.1211 24.5657 34.343 24.663 34.5262C24.6348 34.5997 24.6187 34.6803 24.616 34.7666H24.616L24.6159 34.7693L24.2367 54.1487L24.2366 54.1487V54.1531C24.2366 54.2844 24.2682 54.4034 24.3271 54.5047C24.3837 54.7853 24.6055 55.0499 24.9865 55.0618L24.988 55.0618L53.7917 55.7634L53.7917 55.7635H53.7973C54.073 55.7635 54.279 55.6245 54.3886 55.4268C54.4538 55.3089 54.4831 55.1741 54.4781 55.0413C54.5419 55.0085 54.6008 54.9657 54.6525 54.914C54.7838 54.7827 54.8576 54.6045 54.8576 54.4188C54.8576 47.6934 55.1418 40.9858 55.5588 34.2759L55.5592 34.276V34.2619C55.5592 34.1913 55.5502 34.1236 55.5324 34.0599C55.5098 33.9136 55.4413 33.7773 55.3354 33.6713C55.2041 33.54 55.0259 33.4662 54.8402 33.4662H30.685L49.9502 26.2823C49.9504 26.2822 49.9506 26.2821 49.9508 26.282C50.3729 26.1269 50.4784 25.7034 50.3913 25.3905C50.3471 25.2316 50.2489 25.0766 50.0931 24.9827C49.9306 24.8849 49.7315 24.8692 49.5266 24.9481C49.5261 24.9482 49.5256 24.9484 49.5251 24.9486L28.1384 32.9117L28.1384 32.9117L28.1333 32.9137ZM25.6466 53.6771L26.0147 34.8668H54.121C53.7279 41.3561 53.4953 47.8463 53.4573 54.3545L25.6466 53.6771Z" fill="white" stroke="white" stroke-width="0.452541" stroke-linejoin="round"/>
</svg>
