<svg width="80" height="80" viewBox="0 0 80 80" fill="none" xmlns="http://www.w3.org/2000/svg">
<circle cx="40" cy="40" r="40" fill="#EC724A"/>
<path d="M44.8073 38.848H44.8075C44.8075 38.7461 44.8333 38.6467 44.8812 38.5588C44.9735 37.4095 44.9736 36.2458 44.9736 35.0854V35.0842C44.9736 34.9239 45.0373 34.7703 45.1506 34.657C45.2639 34.5437 45.4176 34.48 45.5778 34.48C45.6613 34.48 45.7431 34.4973 45.8182 34.5299C45.8636 34.5181 45.9105 34.5114 45.9581 34.5104C47.2836 34.374 48.6158 34.3134 49.9482 34.3289C49.9486 34.3289 49.949 34.3289 49.9494 34.3289L44.8073 38.848ZM44.8073 38.848L44.8077 38.8565C44.8135 39.0126 44.8782 39.1606 44.9886 39.2711C45.099 39.3815 45.2471 39.4461 45.4031 39.452C45.4151 39.4525 45.4271 39.452 45.439 39.4505C46.9327 39.2687 48.4374 39.1934 49.9418 39.2254L49.9418 39.2254H49.9466C50.0831 39.2254 50.2047 39.1853 50.3023 39.1126C50.4956 39.0287 50.6486 38.8423 50.6417 38.5731V34.9483C50.6417 34.788 50.578 34.6343 50.4647 34.521C50.3643 34.4206 50.2321 34.3592 50.0917 34.3465L44.8073 38.848ZM29.3131 38.7249H29.3131V38.7272C29.3131 38.8874 29.3767 39.0411 29.49 39.1544C29.6034 39.2677 29.7571 39.3314 29.9173 39.3314H33.3941C33.5543 39.3314 33.708 39.2677 33.8213 39.1544C33.9346 39.0411 33.9982 38.8874 33.9982 38.7272C33.9982 38.7191 33.9981 38.7111 33.9978 38.7031C33.998 38.6961 33.9981 38.689 33.9981 38.682V38.6749C33.9981 37.5178 33.9981 36.3279 33.8459 35.1516C33.8334 35.0021 33.7684 34.8617 33.6622 34.7556C33.5543 34.6477 33.4112 34.5823 33.259 34.5714C33.2536 34.571 33.2482 34.5708 33.2428 34.5708C33.1789 34.5708 33.1168 34.582 33.0592 34.601H30.4311C30.3455 34.601 30.2618 34.6191 30.1851 34.6533C30.1328 34.6387 30.0783 34.6312 30.0231 34.6312C29.8629 34.6312 29.7092 34.6948 29.5959 34.8081C29.4825 34.9214 29.4189 35.0751 29.4189 35.2353C29.4189 35.2419 29.4192 35.2485 29.4198 35.2551C29.5162 36.3566 29.4869 37.4655 29.3325 38.5604C29.3188 38.613 29.3124 38.6668 29.3132 38.7204L29.3131 38.7249ZM32.7862 38.123H30.595C30.6734 37.3545 30.6962 36.5812 30.663 35.8093H32.6897C32.7456 36.5787 32.7764 37.3529 32.7862 38.123ZM37.4384 35.2615C37.3842 35.3536 37.3549 35.4593 37.3549 35.568C37.3549 35.5742 37.3551 35.5804 37.3556 35.5866C37.437 36.5771 37.4122 37.5735 37.2816 38.5587C37.2588 38.705 37.2906 38.8547 37.3709 38.9792C37.4519 39.1048 37.5765 39.1958 37.7207 39.2349C37.8649 39.2739 38.0184 39.2581 38.1516 39.1907L38.1463 39.1801L38.1516 39.1907C38.1583 39.1873 38.1649 39.1838 38.1715 39.1801H41.4964C41.6566 39.1801 41.8103 39.1165 41.9236 39.0032C42.0019 38.9248 42.0565 38.8272 42.0828 38.7214C42.1174 38.6428 42.1335 38.5555 42.1307 38.463L42.1305 38.4603L41.9796 34.9425C41.9776 34.685 41.8307 34.5027 41.6425 34.417C41.4833 34.3446 41.2923 34.3391 41.1282 34.4042H37.9742C37.6795 34.4042 37.4845 34.5876 37.415 34.8076C37.3697 34.9507 37.3751 35.1163 37.4384 35.2615ZM49.4333 35.535V38.0103C48.3254 38.0046 47.2179 38.0562 46.1154 38.1649C46.1664 37.345 46.1948 36.5195 46.191 35.6977C47.2687 35.5927 48.3507 35.5384 49.4333 35.535ZM45.5933 49.7163L45.5939 49.7158C45.6627 49.6636 45.7163 49.602 45.7556 49.535H56.1445C56.3047 49.535 56.4585 49.4714 56.5718 49.358C56.6852 49.2447 56.7487 49.091 56.7487 48.9308C56.7487 48.8327 56.7248 48.737 56.6803 48.6514C56.6856 48.6191 56.6883 48.5861 56.6883 48.5529V25.3944C56.6883 25.1017 56.5036 24.9106 56.2893 24.8392C56.1179 24.7821 55.9107 24.7951 55.7455 24.8961H25.2011C25.0961 24.8961 24.9938 24.9235 24.9039 24.9743C24.7994 25.0032 24.6968 25.0604 24.6184 25.1531C24.5269 25.2612 24.482 25.4019 24.4915 25.5592L24.4915 25.5592L24.4916 25.56C24.9752 33.1044 24.7318 40.6777 23.7648 48.1752C23.6678 48.2066 23.5846 48.2618 23.5195 48.3355C23.4176 48.4509 23.3722 48.5981 23.3722 48.7379C23.3722 49.0181 23.563 49.329 23.9471 49.353L23.9482 49.3531L34.0803 49.9393C35.4542 51.8744 36.9457 53.7235 38.5466 55.476C38.6537 55.5974 38.7899 55.6636 38.9348 55.6705C39.0505 55.676 39.1583 55.6433 39.2488 55.5908C39.3725 55.5703 39.4875 55.5052 39.5807 55.3987L39.5807 55.3987L39.5831 55.396C41.3703 53.2863 43.386 51.3815 45.5933 49.7163ZM38.5519 37.9718C38.622 37.1876 38.6272 36.3985 38.5674 35.6126H40.7995L40.9008 37.9718H38.5519ZM34.7283 48.7707C34.5803 48.5576 34.3537 48.4889 34.1503 48.5171C34.0068 48.5371 33.8668 48.6059 33.7637 48.7111L24.9436 48.2015C25.8963 40.8764 26.1607 33.4784 25.7336 26.1045H55.48V48.3266L45.1246 48.3266C44.9644 48.3266 44.8107 48.3903 44.6974 48.5036C44.584 48.6169 44.5204 48.7706 44.5204 48.9308C44.5204 48.9709 44.5244 49.0105 44.5322 49.0493C42.5435 50.5738 40.7093 52.29 39.0561 54.1731C37.5078 52.4598 36.0626 50.6559 34.7283 48.7707Z" fill="white" stroke="white" stroke-width="0.452541" stroke-linejoin="round"/>
</svg>
