<svg width="51" height="51" viewBox="0 0 51 51" fill="none" xmlns="http://www.w3.org/2000/svg">
<path fill-rule="evenodd" clip-rule="evenodd" d="M25.5 49.4691C38.7378 49.4691 49.4691 38.7378 49.4691 25.5C49.4691 12.2622 38.7378 1.53093 25.5 1.53093C12.2622 1.53093 1.53093 12.2622 1.53093 25.5C1.53093 38.7378 12.2622 49.4691 25.5 49.4691ZM25.5 50.5C39.3071 50.5 50.5 39.3071 50.5 25.5C50.5 11.6929 39.3071 0.5 25.5 0.5C11.6929 0.5 0.5 11.6929 0.5 25.5C0.5 39.3071 11.6929 50.5 25.5 50.5Z" fill="white"/>
<mask id="path-2-outside-1_0_99" maskUnits="userSpaceOnUse" x="12.1289" y="12.9021" width="27" height="25" fill="black">
<rect fill="white" x="12.1289" y="12.9021" width="27" height="25"/>
<path fill-rule="evenodd" clip-rule="evenodd" d="M24.9229 22.8868C24.4779 23.0818 24.0672 23.3477 23.7077 23.6746C23.2557 24.0856 22.8942 24.5842 22.6455 25.1394C22.4704 25.7058 22.4846 26.313 22.686 26.8708C22.8873 27.4285 23.2651 27.9072 23.7633 28.2358C24.2747 28.5455 24.869 28.6945 25.4678 28.6629C26.0666 28.6313 26.6415 28.4206 27.1167 28.0588C27.5849 27.6916 27.9384 27.2006 28.1362 26.6429C28.334 26.0851 28.3681 25.4833 28.2345 24.9071C27.9216 23.6022 26.569 22.1646 25.0935 22.5627C25.0291 22.5874 24.9761 22.6347 24.9449 22.6957C24.9146 22.7548 24.9069 22.8226 24.9229 22.8868ZM25.641 23.0472C26.5842 23.0709 27.366 24.013 27.6309 24.8187C27.7847 25.2891 27.799 25.7932 27.6722 26.2714C27.5454 26.7496 27.2828 27.1818 26.9155 27.517C26.5536 27.8399 26.1006 28.0458 25.6172 28.1071C25.1337 28.1684 24.6429 28.0821 24.2104 27.8598C23.7836 27.6309 23.4436 27.2708 23.2419 26.8339C23.0403 26.397 22.9878 25.907 23.0926 25.438C23.3609 24.3321 24.5346 23.7128 25.5071 23.2263C25.5928 23.1824 25.6332 23.1168 25.641 23.0472Z"/>
<path fill-rule="evenodd" clip-rule="evenodd" d="M27.031 13.9374H23.6404C23.5663 13.9374 23.4952 13.9665 23.4428 14.0183C23.3904 14.0702 23.361 14.1405 23.361 14.2138C23.361 14.2399 23.3647 14.2655 23.3718 14.2901C23.3656 14.3118 23.362 14.3344 23.3611 14.3573L23.1159 17.1167C22.4345 17.1043 21.7637 17.2829 21.181 17.6314C20.3918 16.8774 19.5137 16.22 18.5657 15.6734C18.5026 15.6452 18.4313 15.6412 18.3654 15.662C18.3017 15.6822 18.2475 15.7243 18.2125 15.7805C17.2135 16.5294 16.3565 17.4479 15.6815 18.4934C15.5944 18.6226 15.6371 18.7498 15.729 18.8273C15.7344 18.8418 15.741 18.8558 15.7488 18.8693C16.3021 19.6734 17.0483 20.3262 17.9179 20.7709C17.5634 21.1394 17.2941 21.5806 17.1295 22.064C16.9759 22.515 16.9173 22.9913 16.9563 23.4638L14.3107 23.9983C14.275 23.9467 14.2224 23.9084 14.1613 23.8901C14.0902 23.8696 14.0137 23.8778 13.9487 23.9131C13.8837 23.9483 13.8356 24.0077 13.8148 24.0781C13.8083 24.114 13.8017 24.15 13.7951 24.1859C13.7732 24.2273 13.7652 24.2751 13.7692 24.3233C13.607 25.17 13.3983 26.0073 13.1441 26.8317C13.0799 27.0288 13.2299 27.1601 13.3904 27.1709C13.4188 27.1804 13.4488 27.1853 13.4794 27.1853C14.6532 27.2932 15.796 27.6163 16.8496 28.1374C16.893 28.934 17.1197 29.7105 17.5126 30.4076L16.1623 32.6485C16.1291 32.7007 16.1164 32.7522 16.119 32.8001C16.1025 32.8104 16.087 32.8225 16.0728 32.8363C16.0457 32.8621 16.0242 32.893 16.0095 32.9272C15.9948 32.9614 15.9872 32.9982 15.9872 33.0354C15.9872 33.0725 15.9948 33.1093 16.0095 33.1435C16.0242 33.1777 16.0457 33.2086 16.0728 33.2344L18.3866 35.2692C18.4107 35.3009 18.4413 35.3271 18.4764 35.346C18.5116 35.365 18.5504 35.3763 18.5904 35.3791C18.6303 35.3819 18.6704 35.3762 18.7079 35.3623C18.7454 35.3485 18.7795 35.3268 18.8078 35.2988C18.8207 35.286 18.8323 35.2721 18.8424 35.2572C19.5833 34.7805 20.3572 34.3559 21.1582 33.9865C21.8565 34.542 22.6613 34.9517 23.524 35.1908C23.5854 35.8655 23.8051 36.5172 24.166 37.0938C24.1773 37.1128 24.1908 37.1302 24.206 37.1458C24.218 37.1986 24.2449 37.2474 24.2841 37.2861C24.3359 37.3374 24.4054 37.3674 24.4786 37.3702L27.4073 37.6134C27.4638 37.6134 27.5186 37.5965 27.5646 37.5655C27.5682 37.5668 27.5718 37.5681 27.5754 37.5693C27.6113 37.5792 27.649 37.582 27.686 37.5773C27.7231 37.5727 27.7588 37.5607 27.7911 37.5421C27.8234 37.5236 27.8517 37.4988 27.8741 37.4693C27.8966 37.4397 27.9128 37.4061 27.9219 37.3702C28.0258 36.609 28.1787 35.8551 28.3795 35.1132C29.6938 34.8151 30.8882 34.137 31.8111 33.1663L33.4549 34.5616C33.5032 34.5974 33.5617 34.6167 33.6217 34.6169C33.6413 34.6347 33.6637 34.6495 33.688 34.6606C33.7218 34.6761 33.7586 34.684 33.7958 34.684C33.833 34.684 33.8697 34.6761 33.9035 34.6606C33.9373 34.6452 33.9673 34.6227 33.9914 34.5947C34.6177 33.9153 35.1721 33.1742 35.6458 32.383C35.6742 32.3207 35.6783 32.25 35.6572 32.1849C35.6536 32.1734 35.6491 32.1623 35.644 32.1516C35.6442 32.1476 35.6443 32.1437 35.6443 32.1397C35.6443 32.0662 35.6169 31.9954 35.5674 31.9406C34.9802 31.3273 34.3569 30.7489 33.7007 30.2084C34.1941 29.577 34.6469 28.9155 35.0563 28.2277C35.0702 28.221 35.0842 28.2128 35.0981 28.2029C36.0023 27.6128 37.0308 27.2346 38.105 27.097C38.2504 27.097 38.4068 26.9754 38.3845 26.8206L38.0491 23.6689C38.0491 23.5583 37.9709 23.4145 37.8479 23.4035L35.007 22.9808C34.5372 22.388 34.1815 21.7156 33.9568 20.9972C33.9738 20.983 33.9892 20.9667 34.0025 20.9486L35.3439 17.8522C35.3789 17.7897 35.3891 17.7166 35.3725 17.6471C35.3612 17.5996 35.338 17.556 35.3053 17.5203C35.2918 17.4565 35.2514 17.3968 35.1762 17.3543C34.3909 16.9181 33.6432 16.4188 32.9406 15.8614C32.8871 15.8132 32.8173 15.7865 32.745 15.7865C32.6726 15.7865 32.6029 15.8132 32.5494 15.8614L32.5447 15.8659L32.5399 15.8709C32.5317 15.8748 32.5238 15.879 32.516 15.8837C31.5946 16.412 30.743 17.0508 29.9804 17.7855C29.2915 17.368 28.5497 17.0425 27.7745 16.8176C27.7469 15.9035 27.6277 14.9942 27.4187 14.1031C27.3735 13.8986 27.1752 13.864 27.031 13.9374ZM18.4426 21.0368C18.4619 21.0186 18.4775 20.9995 18.4898 20.98C18.496 20.9788 18.5021 20.9775 18.5081 20.9759C18.5793 20.9572 18.6402 20.9116 18.6775 20.8488C18.7114 20.7851 18.7198 20.711 18.7012 20.6414C18.6826 20.5718 18.6382 20.5116 18.5769 20.4728C17.6439 20.0845 16.8397 19.4456 16.2551 18.6289C16.8621 17.7255 17.6169 16.9283 18.4887 16.2699C19.3298 16.7822 20.1127 17.3831 20.8237 18.062C20.8501 18.0875 20.8813 18.1075 20.9155 18.121C20.9232 18.124 20.9311 18.1267 20.939 18.129C20.9766 18.1801 21.031 18.2172 21.0934 18.2335C21.1645 18.2522 21.2403 18.2423 21.3041 18.206C21.8785 17.8191 22.5667 17.6324 23.2603 17.6752C23.2986 17.6752 23.3361 17.6674 23.3706 17.6527L23.3723 17.6527C23.4464 17.6527 23.5175 17.6236 23.5699 17.5718C23.6223 17.5199 23.6517 17.4496 23.6517 17.3763L23.9082 14.4903H26.9363C27.104 15.2798 27.1982 16.083 27.2175 16.8899C27.2175 16.9587 27.2391 17.0141 27.2737 17.0561C27.2758 17.0941 27.2858 17.1315 27.3035 17.166C27.3347 17.227 27.3876 17.2744 27.4521 17.299V17.2437C28.2983 17.4895 29.1013 17.8625 29.833 18.3496C29.8852 18.384 29.9371 18.3979 29.9856 18.3964C30.0029 18.3994 30.0206 18.4009 30.0384 18.4006C30.1128 18.3996 30.1838 18.3694 30.2356 18.3166C30.9726 17.579 31.8038 16.94 32.708 16.4158C33.3659 16.914 34.0578 17.3666 34.7789 17.7705L33.5624 20.5787C33.5563 20.58 33.5503 20.5815 33.5443 20.5832C33.4732 20.6038 33.4132 20.6514 33.3776 20.7157C33.3419 20.78 33.3336 20.8556 33.3543 20.926L33.3991 20.9592C33.6163 21.7939 33.9958 22.5787 34.5164 23.2698C34.5079 23.3761 34.5673 23.4733 34.7181 23.4919L37.5155 23.9066L37.8007 26.5868C36.7606 26.7537 35.765 27.1291 34.8756 27.6911C34.8604 27.6918 34.8453 27.6936 34.8304 27.6968C34.7627 27.7109 34.7027 27.7493 34.662 27.8047V27.8489C34.2005 28.6208 33.6851 29.3599 33.1194 30.0606C33.0707 30.1136 33.0437 30.1826 33.0437 30.2541C33.0437 30.3257 33.0707 30.3947 33.1194 30.4477C33.1249 30.4534 33.1305 30.4589 33.1364 30.4641L33.1083 30.492C33.7999 31.0326 34.4553 31.6172 35.0703 32.2419C34.675 32.8881 34.2243 33.4996 33.7233 34.0696L32.0464 32.6374C31.9923 32.586 31.9202 32.5573 31.8452 32.5573C31.8106 32.5573 31.7765 32.5635 31.7446 32.5751C31.6701 32.5629 31.5898 32.5851 31.5209 32.6595C30.6397 33.641 29.4649 34.319 28.1675 34.5947L28.1605 34.5963C28.1078 34.5946 28.0551 34.6075 28.0088 34.6341C27.9438 34.6714 27.8965 34.7328 27.8772 34.8046C27.6675 35.5449 27.5103 36.2987 27.407 37.0605L24.6546 36.8318C24.6521 36.8269 24.6495 36.8221 24.6467 36.8173C24.3282 36.2999 24.1332 35.7175 24.0766 35.1143C24.0766 35.0538 24.0566 34.9954 24.0202 34.9477C24.018 34.9099 24.0081 34.8726 23.9905 34.8383C23.9593 34.7773 23.9063 34.73 23.8419 34.7053C22.9568 34.4851 22.1322 34.0734 21.4274 33.4999C21.4161 33.4916 21.4042 33.4841 21.3919 33.4775C21.3801 33.4652 21.367 33.4539 21.353 33.4439C21.3213 33.4212 21.2852 33.4054 21.2469 33.3974C21.2086 33.3894 21.1691 33.3895 21.1309 33.3976C21.0926 33.4056 21.0565 33.4216 21.0249 33.4443C20.193 33.8195 19.3898 34.2539 18.6217 34.744L16.6114 32.9666C16.6226 32.9542 16.6332 32.9403 16.643 32.9249H16.5871L18.0291 30.6248C18.0576 30.5624 18.0617 30.4918 18.0406 30.4266C18.0377 30.4178 18.0344 30.4092 18.0308 30.4008C18.0343 30.3932 18.0375 30.3854 18.0404 30.3774C18.0633 30.3143 18.0632 30.2453 18.0401 30.1822V30.2154C17.6493 29.556 17.4309 28.8109 17.4042 28.0475C17.4485 27.9343 17.4232 27.8005 17.2799 27.7272V27.7382C16.1837 27.1793 14.9972 26.8162 13.775 26.6648C13.9796 25.9727 14.1508 25.2713 14.288 24.5631L17.2913 23.9563C17.3791 23.94 17.436 23.8957 17.4666 23.8391C17.4784 23.8255 17.489 23.8107 17.4981 23.7948C17.5334 23.7331 17.5435 23.6602 17.526 23.5913C17.4605 23.124 17.5096 22.648 17.6692 22.2034C17.8287 21.7588 18.094 21.3587 18.4426 21.0368Z"/>
</mask>
<path fill-rule="evenodd" clip-rule="evenodd" d="M24.9229 22.8868C24.4779 23.0818 24.0672 23.3477 23.7077 23.6746C23.2557 24.0856 22.8942 24.5842 22.6455 25.1394C22.4704 25.7058 22.4846 26.313 22.686 26.8708C22.8873 27.4285 23.2651 27.9072 23.7633 28.2358C24.2747 28.5455 24.869 28.6945 25.4678 28.6629C26.0666 28.6313 26.6415 28.4206 27.1167 28.0588C27.5849 27.6916 27.9384 27.2006 28.1362 26.6429C28.334 26.0851 28.3681 25.4833 28.2345 24.9071C27.9216 23.6022 26.569 22.1646 25.0935 22.5627C25.0291 22.5874 24.9761 22.6347 24.9449 22.6957C24.9146 22.7548 24.9069 22.8226 24.9229 22.8868ZM25.641 23.0472C26.5842 23.0709 27.366 24.013 27.6309 24.8187C27.7847 25.2891 27.799 25.7932 27.6722 26.2714C27.5454 26.7496 27.2828 27.1818 26.9155 27.517C26.5536 27.8399 26.1006 28.0458 25.6172 28.1071C25.1337 28.1684 24.6429 28.0821 24.2104 27.8598C23.7836 27.6309 23.4436 27.2708 23.2419 26.8339C23.0403 26.397 22.9878 25.907 23.0926 25.438C23.3609 24.3321 24.5346 23.7128 25.5071 23.2263C25.5928 23.1824 25.6332 23.1168 25.641 23.0472Z" fill="white"/>
<path fill-rule="evenodd" clip-rule="evenodd" d="M27.031 13.9374H23.6404C23.5663 13.9374 23.4952 13.9665 23.4428 14.0183C23.3904 14.0702 23.361 14.1405 23.361 14.2138C23.361 14.2399 23.3647 14.2655 23.3718 14.2901C23.3656 14.3118 23.362 14.3344 23.3611 14.3573L23.1159 17.1167C22.4345 17.1043 21.7637 17.2829 21.181 17.6314C20.3918 16.8774 19.5137 16.22 18.5657 15.6734C18.5026 15.6452 18.4313 15.6412 18.3654 15.662C18.3017 15.6822 18.2475 15.7243 18.2125 15.7805C17.2135 16.5294 16.3565 17.4479 15.6815 18.4934C15.5944 18.6226 15.6371 18.7498 15.729 18.8273C15.7344 18.8418 15.741 18.8558 15.7488 18.8693C16.3021 19.6734 17.0483 20.3262 17.9179 20.7709C17.5634 21.1394 17.2941 21.5806 17.1295 22.064C16.9759 22.515 16.9173 22.9913 16.9563 23.4638L14.3107 23.9983C14.275 23.9467 14.2224 23.9084 14.1613 23.8901C14.0902 23.8696 14.0137 23.8778 13.9487 23.9131C13.8837 23.9483 13.8356 24.0077 13.8148 24.0781C13.8083 24.114 13.8017 24.15 13.7951 24.1859C13.7732 24.2273 13.7652 24.2751 13.7692 24.3233C13.607 25.17 13.3983 26.0073 13.1441 26.8317C13.0799 27.0288 13.2299 27.1601 13.3904 27.1709C13.4188 27.1804 13.4488 27.1853 13.4794 27.1853C14.6532 27.2932 15.796 27.6163 16.8496 28.1374C16.893 28.934 17.1197 29.7105 17.5126 30.4076L16.1623 32.6485C16.1291 32.7007 16.1164 32.7522 16.119 32.8001C16.1025 32.8104 16.087 32.8225 16.0728 32.8363C16.0457 32.8621 16.0242 32.893 16.0095 32.9272C15.9948 32.9614 15.9872 32.9982 15.9872 33.0354C15.9872 33.0725 15.9948 33.1093 16.0095 33.1435C16.0242 33.1777 16.0457 33.2086 16.0728 33.2344L18.3866 35.2692C18.4107 35.3009 18.4413 35.3271 18.4764 35.346C18.5116 35.365 18.5504 35.3763 18.5904 35.3791C18.6303 35.3819 18.6704 35.3762 18.7079 35.3623C18.7454 35.3485 18.7795 35.3268 18.8078 35.2988C18.8207 35.286 18.8323 35.2721 18.8424 35.2572C19.5833 34.7805 20.3572 34.3559 21.1582 33.9865C21.8565 34.542 22.6613 34.9517 23.524 35.1908C23.5854 35.8655 23.8051 36.5172 24.166 37.0938C24.1773 37.1128 24.1908 37.1302 24.206 37.1458C24.218 37.1986 24.2449 37.2474 24.2841 37.2861C24.3359 37.3374 24.4054 37.3674 24.4786 37.3702L27.4073 37.6134C27.4638 37.6134 27.5186 37.5965 27.5646 37.5655C27.5682 37.5668 27.5718 37.5681 27.5754 37.5693C27.6113 37.5792 27.649 37.582 27.686 37.5773C27.7231 37.5727 27.7588 37.5607 27.7911 37.5421C27.8234 37.5236 27.8517 37.4988 27.8741 37.4693C27.8966 37.4397 27.9128 37.4061 27.9219 37.3702C28.0258 36.609 28.1787 35.8551 28.3795 35.1132C29.6938 34.8151 30.8882 34.137 31.8111 33.1663L33.4549 34.5616C33.5032 34.5974 33.5617 34.6167 33.6217 34.6169C33.6413 34.6347 33.6637 34.6495 33.688 34.6606C33.7218 34.6761 33.7586 34.684 33.7958 34.684C33.833 34.684 33.8697 34.6761 33.9035 34.6606C33.9373 34.6452 33.9673 34.6227 33.9914 34.5947C34.6177 33.9153 35.1721 33.1742 35.6458 32.383C35.6742 32.3207 35.6783 32.25 35.6572 32.1849C35.6536 32.1734 35.6491 32.1623 35.644 32.1516C35.6442 32.1476 35.6443 32.1437 35.6443 32.1397C35.6443 32.0662 35.6169 31.9954 35.5674 31.9406C34.9802 31.3273 34.3569 30.7489 33.7007 30.2084C34.1941 29.577 34.6469 28.9155 35.0563 28.2277C35.0702 28.221 35.0842 28.2128 35.0981 28.2029C36.0023 27.6128 37.0308 27.2346 38.105 27.097C38.2504 27.097 38.4068 26.9754 38.3845 26.8206L38.0491 23.6689C38.0491 23.5583 37.9709 23.4145 37.8479 23.4035L35.007 22.9808C34.5372 22.388 34.1815 21.7156 33.9568 20.9972C33.9738 20.983 33.9892 20.9667 34.0025 20.9486L35.3439 17.8522C35.3789 17.7897 35.3891 17.7166 35.3725 17.6471C35.3612 17.5996 35.338 17.556 35.3053 17.5203C35.2918 17.4565 35.2514 17.3968 35.1762 17.3543C34.3909 16.9181 33.6432 16.4188 32.9406 15.8614C32.8871 15.8132 32.8173 15.7865 32.745 15.7865C32.6726 15.7865 32.6029 15.8132 32.5494 15.8614L32.5447 15.8659L32.5399 15.8709C32.5317 15.8748 32.5238 15.879 32.516 15.8837C31.5946 16.412 30.743 17.0508 29.9804 17.7855C29.2915 17.368 28.5497 17.0425 27.7745 16.8176C27.7469 15.9035 27.6277 14.9942 27.4187 14.1031C27.3735 13.8986 27.1752 13.864 27.031 13.9374ZM18.4426 21.0368C18.4619 21.0186 18.4775 20.9995 18.4898 20.98C18.496 20.9788 18.5021 20.9775 18.5081 20.9759C18.5793 20.9572 18.6402 20.9116 18.6775 20.8488C18.7114 20.7851 18.7198 20.711 18.7012 20.6414C18.6826 20.5718 18.6382 20.5116 18.5769 20.4728C17.6439 20.0845 16.8397 19.4456 16.2551 18.6289C16.8621 17.7255 17.6169 16.9283 18.4887 16.2699C19.3298 16.7822 20.1127 17.3831 20.8237 18.062C20.8501 18.0875 20.8813 18.1075 20.9155 18.121C20.9232 18.124 20.9311 18.1267 20.939 18.129C20.9766 18.1801 21.031 18.2172 21.0934 18.2335C21.1645 18.2522 21.2403 18.2423 21.3041 18.206C21.8785 17.8191 22.5667 17.6324 23.2603 17.6752C23.2986 17.6752 23.3361 17.6674 23.3706 17.6527L23.3723 17.6527C23.4464 17.6527 23.5175 17.6236 23.5699 17.5718C23.6223 17.5199 23.6517 17.4496 23.6517 17.3763L23.9082 14.4903H26.9363C27.104 15.2798 27.1982 16.083 27.2175 16.8899C27.2175 16.9587 27.2391 17.0141 27.2737 17.0561C27.2758 17.0941 27.2858 17.1315 27.3035 17.166C27.3347 17.227 27.3876 17.2744 27.4521 17.299V17.2437C28.2983 17.4895 29.1013 17.8625 29.833 18.3496C29.8852 18.384 29.9371 18.3979 29.9856 18.3964C30.0029 18.3994 30.0206 18.4009 30.0384 18.4006C30.1128 18.3996 30.1838 18.3694 30.2356 18.3166C30.9726 17.579 31.8038 16.94 32.708 16.4158C33.3659 16.914 34.0578 17.3666 34.7789 17.7705L33.5624 20.5787C33.5563 20.58 33.5503 20.5815 33.5443 20.5832C33.4732 20.6038 33.4132 20.6514 33.3776 20.7157C33.3419 20.78 33.3336 20.8556 33.3543 20.926L33.3991 20.9592C33.6163 21.7939 33.9958 22.5787 34.5164 23.2698C34.5079 23.3761 34.5673 23.4733 34.7181 23.4919L37.5155 23.9066L37.8007 26.5868C36.7606 26.7537 35.765 27.1291 34.8756 27.6911C34.8604 27.6918 34.8453 27.6936 34.8304 27.6968C34.7627 27.7109 34.7027 27.7493 34.662 27.8047V27.8489C34.2005 28.6208 33.6851 29.3599 33.1194 30.0606C33.0707 30.1136 33.0437 30.1826 33.0437 30.2541C33.0437 30.3257 33.0707 30.3947 33.1194 30.4477C33.1249 30.4534 33.1305 30.4589 33.1364 30.4641L33.1083 30.492C33.7999 31.0326 34.4553 31.6172 35.0703 32.2419C34.675 32.8881 34.2243 33.4996 33.7233 34.0696L32.0464 32.6374C31.9923 32.586 31.9202 32.5573 31.8452 32.5573C31.8106 32.5573 31.7765 32.5635 31.7446 32.5751C31.6701 32.5629 31.5898 32.5851 31.5209 32.6595C30.6397 33.641 29.4649 34.319 28.1675 34.5947L28.1605 34.5963C28.1078 34.5946 28.0551 34.6075 28.0088 34.6341C27.9438 34.6714 27.8965 34.7328 27.8772 34.8046C27.6675 35.5449 27.5103 36.2987 27.407 37.0605L24.6546 36.8318C24.6521 36.8269 24.6495 36.8221 24.6467 36.8173C24.3282 36.2999 24.1332 35.7175 24.0766 35.1143C24.0766 35.0538 24.0566 34.9954 24.0202 34.9477C24.018 34.9099 24.0081 34.8726 23.9905 34.8383C23.9593 34.7773 23.9063 34.73 23.8419 34.7053C22.9568 34.4851 22.1322 34.0734 21.4274 33.4999C21.4161 33.4916 21.4042 33.4841 21.3919 33.4775C21.3801 33.4652 21.367 33.4539 21.353 33.4439C21.3213 33.4212 21.2852 33.4054 21.2469 33.3974C21.2086 33.3894 21.1691 33.3895 21.1309 33.3976C21.0926 33.4056 21.0565 33.4216 21.0249 33.4443C20.193 33.8195 19.3898 34.2539 18.6217 34.744L16.6114 32.9666C16.6226 32.9542 16.6332 32.9403 16.643 32.9249H16.5871L18.0291 30.6248C18.0576 30.5624 18.0617 30.4918 18.0406 30.4266C18.0377 30.4178 18.0344 30.4092 18.0308 30.4008C18.0343 30.3932 18.0375 30.3854 18.0404 30.3774C18.0633 30.3143 18.0632 30.2453 18.0401 30.1822V30.2154C17.6493 29.556 17.4309 28.8109 17.4042 28.0475C17.4485 27.9343 17.4232 27.8005 17.2799 27.7272V27.7382C16.1837 27.1793 14.9972 26.8162 13.775 26.6648C13.9796 25.9727 14.1508 25.2713 14.288 24.5631L17.2913 23.9563C17.3791 23.94 17.436 23.8957 17.4666 23.8391C17.4784 23.8255 17.489 23.8107 17.4981 23.7948C17.5334 23.7331 17.5435 23.6602 17.526 23.5913C17.4605 23.124 17.5096 22.648 17.6692 22.2034C17.8287 21.7588 18.094 21.3587 18.4426 21.0368Z" fill="white"/>
<path fill-rule="evenodd" clip-rule="evenodd" d="M24.9229 22.8868C24.4779 23.0818 24.0672 23.3477 23.7077 23.6746C23.2557 24.0856 22.8942 24.5842 22.6455 25.1394C22.4704 25.7058 22.4846 26.313 22.686 26.8708C22.8873 27.4285 23.2651 27.9072 23.7633 28.2358C24.2747 28.5455 24.869 28.6945 25.4678 28.6629C26.0666 28.6313 26.6415 28.4206 27.1167 28.0588C27.5849 27.6916 27.9384 27.2006 28.1362 26.6429C28.334 26.0851 28.3681 25.4833 28.2345 24.9071C27.9216 23.6022 26.569 22.1646 25.0935 22.5627C25.0291 22.5874 24.9761 22.6347 24.9449 22.6957C24.9146 22.7548 24.9069 22.8226 24.9229 22.8868ZM25.641 23.0472C26.5842 23.0709 27.366 24.013 27.6309 24.8187C27.7847 25.2891 27.799 25.7932 27.6722 26.2714C27.5454 26.7496 27.2828 27.1818 26.9155 27.517C26.5536 27.8399 26.1006 28.0458 25.6172 28.1071C25.1337 28.1684 24.6429 28.0821 24.2104 27.8598C23.7836 27.6309 23.4436 27.2708 23.2419 26.8339C23.0403 26.397 22.9878 25.907 23.0926 25.438C23.3609 24.3321 24.5346 23.7128 25.5071 23.2263C25.5928 23.1824 25.6332 23.1168 25.641 23.0472Z" stroke="white" stroke-width="0.4" stroke-linejoin="round" mask="url(#path-2-outside-1_0_99)"/>
<path fill-rule="evenodd" clip-rule="evenodd" d="M27.031 13.9374H23.6404C23.5663 13.9374 23.4952 13.9665 23.4428 14.0183C23.3904 14.0702 23.361 14.1405 23.361 14.2138C23.361 14.2399 23.3647 14.2655 23.3718 14.2901C23.3656 14.3118 23.362 14.3344 23.3611 14.3573L23.1159 17.1167C22.4345 17.1043 21.7637 17.2829 21.181 17.6314C20.3918 16.8774 19.5137 16.22 18.5657 15.6734C18.5026 15.6452 18.4313 15.6412 18.3654 15.662C18.3017 15.6822 18.2475 15.7243 18.2125 15.7805C17.2135 16.5294 16.3565 17.4479 15.6815 18.4934C15.5944 18.6226 15.6371 18.7498 15.729 18.8273C15.7344 18.8418 15.741 18.8558 15.7488 18.8693C16.3021 19.6734 17.0483 20.3262 17.9179 20.7709C17.5634 21.1394 17.2941 21.5806 17.1295 22.064C16.9759 22.515 16.9173 22.9913 16.9563 23.4638L14.3107 23.9983C14.275 23.9467 14.2224 23.9084 14.1613 23.8901C14.0902 23.8696 14.0137 23.8778 13.9487 23.9131C13.8837 23.9483 13.8356 24.0077 13.8148 24.0781C13.8083 24.114 13.8017 24.15 13.7951 24.1859C13.7732 24.2273 13.7652 24.2751 13.7692 24.3233C13.607 25.17 13.3983 26.0073 13.1441 26.8317C13.0799 27.0288 13.2299 27.1601 13.3904 27.1709C13.4188 27.1804 13.4488 27.1853 13.4794 27.1853C14.6532 27.2932 15.796 27.6163 16.8496 28.1374C16.893 28.934 17.1197 29.7105 17.5126 30.4076L16.1623 32.6485C16.1291 32.7007 16.1164 32.7522 16.119 32.8001C16.1025 32.8104 16.087 32.8225 16.0728 32.8363C16.0457 32.8621 16.0242 32.893 16.0095 32.9272C15.9948 32.9614 15.9872 32.9982 15.9872 33.0354C15.9872 33.0725 15.9948 33.1093 16.0095 33.1435C16.0242 33.1777 16.0457 33.2086 16.0728 33.2344L18.3866 35.2692C18.4107 35.3009 18.4413 35.3271 18.4764 35.346C18.5116 35.365 18.5504 35.3763 18.5904 35.3791C18.6303 35.3819 18.6704 35.3762 18.7079 35.3623C18.7454 35.3485 18.7795 35.3268 18.8078 35.2988C18.8207 35.286 18.8323 35.2721 18.8424 35.2572C19.5833 34.7805 20.3572 34.3559 21.1582 33.9865C21.8565 34.542 22.6613 34.9517 23.524 35.1908C23.5854 35.8655 23.8051 36.5172 24.166 37.0938C24.1773 37.1128 24.1908 37.1302 24.206 37.1458C24.218 37.1986 24.2449 37.2474 24.2841 37.2861C24.3359 37.3374 24.4054 37.3674 24.4786 37.3702L27.4073 37.6134C27.4638 37.6134 27.5186 37.5965 27.5646 37.5655C27.5682 37.5668 27.5718 37.5681 27.5754 37.5693C27.6113 37.5792 27.649 37.582 27.686 37.5773C27.7231 37.5727 27.7588 37.5607 27.7911 37.5421C27.8234 37.5236 27.8517 37.4988 27.8741 37.4693C27.8966 37.4397 27.9128 37.4061 27.9219 37.3702C28.0258 36.609 28.1787 35.8551 28.3795 35.1132C29.6938 34.8151 30.8882 34.137 31.8111 33.1663L33.4549 34.5616C33.5032 34.5974 33.5617 34.6167 33.6217 34.6169C33.6413 34.6347 33.6637 34.6495 33.688 34.6606C33.7218 34.6761 33.7586 34.684 33.7958 34.684C33.833 34.684 33.8697 34.6761 33.9035 34.6606C33.9373 34.6452 33.9673 34.6227 33.9914 34.5947C34.6177 33.9153 35.1721 33.1742 35.6458 32.383C35.6742 32.3207 35.6783 32.25 35.6572 32.1849C35.6536 32.1734 35.6491 32.1623 35.644 32.1516C35.6442 32.1476 35.6443 32.1437 35.6443 32.1397C35.6443 32.0662 35.6169 31.9954 35.5674 31.9406C34.9802 31.3273 34.3569 30.7489 33.7007 30.2084C34.1941 29.577 34.6469 28.9155 35.0563 28.2277C35.0702 28.221 35.0842 28.2128 35.0981 28.2029C36.0023 27.6128 37.0308 27.2346 38.105 27.097C38.2504 27.097 38.4068 26.9754 38.3845 26.8206L38.0491 23.6689C38.0491 23.5583 37.9709 23.4145 37.8479 23.4035L35.007 22.9808C34.5372 22.388 34.1815 21.7156 33.9568 20.9972C33.9738 20.983 33.9892 20.9667 34.0025 20.9486L35.3439 17.8522C35.3789 17.7897 35.3891 17.7166 35.3725 17.6471C35.3612 17.5996 35.338 17.556 35.3053 17.5203C35.2918 17.4565 35.2514 17.3968 35.1762 17.3543C34.3909 16.9181 33.6432 16.4188 32.9406 15.8614C32.8871 15.8132 32.8173 15.7865 32.745 15.7865C32.6726 15.7865 32.6029 15.8132 32.5494 15.8614L32.5447 15.8659L32.5399 15.8709C32.5317 15.8748 32.5238 15.879 32.516 15.8837C31.5946 16.412 30.743 17.0508 29.9804 17.7855C29.2915 17.368 28.5497 17.0425 27.7745 16.8176C27.7469 15.9035 27.6277 14.9942 27.4187 14.1031C27.3735 13.8986 27.1752 13.864 27.031 13.9374ZM18.4426 21.0368C18.4619 21.0186 18.4775 20.9995 18.4898 20.98C18.496 20.9788 18.5021 20.9775 18.5081 20.9759C18.5793 20.9572 18.6402 20.9116 18.6775 20.8488C18.7114 20.7851 18.7198 20.711 18.7012 20.6414C18.6826 20.5718 18.6382 20.5116 18.5769 20.4728C17.6439 20.0845 16.8397 19.4456 16.2551 18.6289C16.8621 17.7255 17.6169 16.9283 18.4887 16.2699C19.3298 16.7822 20.1127 17.3831 20.8237 18.062C20.8501 18.0875 20.8813 18.1075 20.9155 18.121C20.9232 18.124 20.9311 18.1267 20.939 18.129C20.9766 18.1801 21.031 18.2172 21.0934 18.2335C21.1645 18.2522 21.2403 18.2423 21.3041 18.206C21.8785 17.8191 22.5667 17.6324 23.2603 17.6752C23.2986 17.6752 23.3361 17.6674 23.3706 17.6527L23.3723 17.6527C23.4464 17.6527 23.5175 17.6236 23.5699 17.5718C23.6223 17.5199 23.6517 17.4496 23.6517 17.3763L23.9082 14.4903H26.9363C27.104 15.2798 27.1982 16.083 27.2175 16.8899C27.2175 16.9587 27.2391 17.0141 27.2737 17.0561C27.2758 17.0941 27.2858 17.1315 27.3035 17.166C27.3347 17.227 27.3876 17.2744 27.4521 17.299V17.2437C28.2983 17.4895 29.1013 17.8625 29.833 18.3496C29.8852 18.384 29.9371 18.3979 29.9856 18.3964C30.0029 18.3994 30.0206 18.4009 30.0384 18.4006C30.1128 18.3996 30.1838 18.3694 30.2356 18.3166C30.9726 17.579 31.8038 16.94 32.708 16.4158C33.3659 16.914 34.0578 17.3666 34.7789 17.7705L33.5624 20.5787C33.5563 20.58 33.5503 20.5815 33.5443 20.5832C33.4732 20.6038 33.4132 20.6514 33.3776 20.7157C33.3419 20.78 33.3336 20.8556 33.3543 20.926L33.3991 20.9592C33.6163 21.7939 33.9958 22.5787 34.5164 23.2698C34.5079 23.3761 34.5673 23.4733 34.7181 23.4919L37.5155 23.9066L37.8007 26.5868C36.7606 26.7537 35.765 27.1291 34.8756 27.6911C34.8604 27.6918 34.8453 27.6936 34.8304 27.6968C34.7627 27.7109 34.7027 27.7493 34.662 27.8047V27.8489C34.2005 28.6208 33.6851 29.3599 33.1194 30.0606C33.0707 30.1136 33.0437 30.1826 33.0437 30.2541C33.0437 30.3257 33.0707 30.3947 33.1194 30.4477C33.1249 30.4534 33.1305 30.4589 33.1364 30.4641L33.1083 30.492C33.7999 31.0326 34.4553 31.6172 35.0703 32.2419C34.675 32.8881 34.2243 33.4996 33.7233 34.0696L32.0464 32.6374C31.9923 32.586 31.9202 32.5573 31.8452 32.5573C31.8106 32.5573 31.7765 32.5635 31.7446 32.5751C31.6701 32.5629 31.5898 32.5851 31.5209 32.6595C30.6397 33.641 29.4649 34.319 28.1675 34.5947L28.1605 34.5963C28.1078 34.5946 28.0551 34.6075 28.0088 34.6341C27.9438 34.6714 27.8965 34.7328 27.8772 34.8046C27.6675 35.5449 27.5103 36.2987 27.407 37.0605L24.6546 36.8318C24.6521 36.8269 24.6495 36.8221 24.6467 36.8173C24.3282 36.2999 24.1332 35.7175 24.0766 35.1143C24.0766 35.0538 24.0566 34.9954 24.0202 34.9477C24.018 34.9099 24.0081 34.8726 23.9905 34.8383C23.9593 34.7773 23.9063 34.73 23.8419 34.7053C22.9568 34.4851 22.1322 34.0734 21.4274 33.4999C21.4161 33.4916 21.4042 33.4841 21.3919 33.4775C21.3801 33.4652 21.367 33.4539 21.353 33.4439C21.3213 33.4212 21.2852 33.4054 21.2469 33.3974C21.2086 33.3894 21.1691 33.3895 21.1309 33.3976C21.0926 33.4056 21.0565 33.4216 21.0249 33.4443C20.193 33.8195 19.3898 34.2539 18.6217 34.744L16.6114 32.9666C16.6226 32.9542 16.6332 32.9403 16.643 32.9249H16.5871L18.0291 30.6248C18.0576 30.5624 18.0617 30.4918 18.0406 30.4266C18.0377 30.4178 18.0344 30.4092 18.0308 30.4008C18.0343 30.3932 18.0375 30.3854 18.0404 30.3774C18.0633 30.3143 18.0632 30.2453 18.0401 30.1822V30.2154C17.6493 29.556 17.4309 28.8109 17.4042 28.0475C17.4485 27.9343 17.4232 27.8005 17.2799 27.7272V27.7382C16.1837 27.1793 14.9972 26.8162 13.775 26.6648C13.9796 25.9727 14.1508 25.2713 14.288 24.5631L17.2913 23.9563C17.3791 23.94 17.436 23.8957 17.4666 23.8391C17.4784 23.8255 17.489 23.8107 17.4981 23.7948C17.5334 23.7331 17.5435 23.6602 17.526 23.5913C17.4605 23.124 17.5096 22.648 17.6692 22.2034C17.8287 21.7588 18.094 21.3587 18.4426 21.0368Z" stroke="white" stroke-width="0.4" stroke-linejoin="round" mask="url(#path-2-outside-1_0_99)"/>
</svg>
