<svg width="51" height="51" viewBox="0 0 51 51" fill="none" xmlns="http://www.w3.org/2000/svg">
<path fill-rule="evenodd" clip-rule="evenodd" d="M25.5 49.4691C38.7378 49.4691 49.4691 38.7378 49.4691 25.5C49.4691 12.2622 38.7378 1.53093 25.5 1.53093C12.2622 1.53093 1.53093 12.2622 1.53093 25.5C1.53093 38.7378 12.2622 49.4691 25.5 49.4691ZM25.5 50.5C39.3071 50.5 50.5 39.3071 50.5 25.5C50.5 11.6929 39.3071 0.5 25.5 0.5C11.6929 0.5 0.5 11.6929 0.5 25.5C0.5 39.3071 11.6929 50.5 25.5 50.5Z" fill="white"/>
<path d="M13.389 32.6978C13.3871 32.6665 13.3706 32.638 13.3445 32.6207L13.3179 32.6031C13.2303 31.2208 13.2201 29.6936 13.6307 28.4124C14.0434 27.1246 14.8793 26.0888 16.5002 25.6979C17.6668 25.5379 18.844 25.4669 20.0214 25.4855C20.4486 25.5097 20.8727 25.3994 21.2334 25.1702C21.5947 24.9406 21.8739 24.6033 22.0312 24.2064C22.0342 24.1988 22.0363 24.191 22.0374 24.1829C22.102 23.7027 22.025 23.2142 21.8156 22.7769C21.6062 22.3396 21.2735 21.9723 20.8582 21.7197L20.8577 21.7194C19.7798 21.0725 18.9875 20.0448 18.6391 18.842C18.3714 17.5915 18.8437 16.3212 19.7083 15.4846C20.5721 14.6487 21.82 14.2525 23.1028 14.7377C23.751 14.9856 24.3039 15.4307 24.6826 16.0094C25.0611 16.5877 25.2463 17.27 25.2121 17.959C25.1457 18.741 24.8208 19.4648 24.3805 20.1405C23.9396 20.8169 23.3874 21.4389 22.8716 22.0196C22.7024 22.204 22.7629 22.4338 22.8904 22.5623C22.9546 22.6271 23.0421 22.6744 23.1386 22.6804C23.2385 22.6866 23.3379 22.6478 23.4168 22.5584C24.2497 21.623 25.1631 20.4858 25.6427 19.2676C26.1244 18.0441 26.1706 16.7313 25.2572 15.464L25.2566 15.4633C24.9205 15.0058 24.4918 14.6236 23.998 14.3412C23.5042 14.0589 22.9564 13.8827 22.39 13.8239C21.8236 13.7652 21.251 13.8253 20.7094 14.0003C20.1677 14.1752 19.6689 14.4613 19.2452 14.8399L19.2452 14.8399L19.244 14.8411C18.7956 15.2557 18.4369 15.757 18.1899 16.3143C17.9428 16.8716 17.8126 17.4731 17.8072 18.0822C17.8017 18.6913 17.9212 19.295 18.1583 19.8566C18.3954 20.4181 18.7451 20.9256 19.1861 21.3481L19.1864 21.3485C19.4332 21.5828 19.7117 21.7785 19.9815 21.9682L19.9844 21.9702C20.2745 22.1742 20.5544 22.3713 20.7923 22.6079L20.7934 22.6089C21.1581 22.9608 21.364 23.4101 21.3446 23.8015C21.3349 23.9955 21.2702 24.176 21.1415 24.328C21.0133 24.4794 20.817 24.6081 20.5349 24.6911C19.9162 24.7926 19.2877 24.8221 18.6621 24.7791L18.6621 24.7789L18.6555 24.7789C17.9625 24.7773 17.2708 24.8381 16.5888 24.9606C15.8586 25.087 15.1695 25.386 14.5796 25.8325C13.9896 26.2791 13.5161 26.8602 13.1989 27.5269L13.1987 27.5267L13.1959 27.534C12.5626 29.1828 12.3655 30.9657 12.6233 32.7119C12.6254 32.8285 12.6753 32.9215 12.7514 32.984C12.8267 33.0459 12.923 33.0743 13.0147 33.0743C13.1062 33.0743 13.2024 33.0459 13.2758 32.9823C13.3521 32.9163 13.3966 32.8181 13.389 32.6978ZM23.1733 24.6647C23.2288 24.7198 23.2994 24.7563 23.3754 24.7701C23.3862 24.774 23.3979 24.7762 23.41 24.7762C23.7531 24.7762 24.1108 24.777 24.4163 24.8717C24.7131 24.9636 24.9557 25.1424 25.0798 25.5033C25.2407 26.1925 25.2967 26.9019 25.2461 27.6077L25.2459 27.6077V27.6149V32.614C25.2459 32.7153 25.2864 32.8124 25.3583 32.8839C25.4301 32.9554 25.5275 32.9955 25.6289 32.9955C25.7303 32.9955 25.8277 32.9554 25.8996 32.8839C25.9714 32.8124 26.0119 32.7153 26.0119 32.614V26.6519C26.0871 25.938 25.8949 25.2216 25.4721 24.6399C25.4669 24.6329 25.4609 24.6266 25.4542 24.6211C24.8888 24.1626 24.1647 23.9443 23.4389 24.0133C23.3393 24.0146 23.244 24.0545 23.1733 24.1248C23.1014 24.1963 23.061 24.2934 23.061 24.3947C23.061 24.4961 23.1014 24.5932 23.1733 24.6647ZM36.1428 24.6031L36.1431 24.6026L36.1331 24.5977C35.2323 24.1588 34.3027 23.7813 33.3504 23.4679C32.4293 23.088 31.6448 22.4409 31.0991 21.6111C30.5527 20.7802 30.2711 19.8048 30.2912 18.8123L30.2912 18.8099C30.2902 18.5581 30.3644 18.3115 30.5044 18.1015C30.6443 17.8915 30.8439 17.7274 31.0778 17.6301C31.3117 17.5328 31.5694 17.5067 31.8182 17.5551C32.0671 17.6035 32.2959 17.7242 32.4756 17.9019L32.4753 17.9022L32.4824 17.908C32.9724 18.3105 33.1386 18.873 33.1167 19.4653C33.0948 20.0595 32.883 20.6751 32.6274 21.1616C32.5108 21.3787 32.6262 21.5848 32.7809 21.6761C32.8592 21.7222 32.9556 21.7454 33.0508 21.7261C33.1491 21.7062 33.2357 21.6428 33.2912 21.5361L33.2915 21.5355C33.6421 20.8497 33.8917 20.0195 33.8699 19.2284C33.848 18.4349 33.5522 17.6768 32.8096 17.1539C32.5404 16.9404 32.2204 16.7997 31.8806 16.7451C31.5397 16.6905 31.1905 16.7244 30.8667 16.8437C30.543 16.9629 30.2557 17.1635 30.0328 17.4259C29.8099 17.6883 29.659 18.0036 29.5948 18.3413L29.5947 18.3413L29.5942 18.345C29.4736 19.1409 29.5413 19.9538 29.7918 20.7191C30.0422 21.4842 30.4684 22.1806 31.0364 22.7532C31.6526 23.4003 32.402 23.9075 33.2333 24.24L33.2331 24.2404L33.2417 24.243C34.2034 24.531 35.1259 24.9352 35.9886 25.4466C37.0596 26.2407 37.5147 27.3968 37.6598 28.6595C37.8053 29.926 37.6375 31.2878 37.4733 32.4766L37.4723 32.4764V32.4903C37.4723 32.7157 37.6327 32.8769 37.799 32.9254C37.8832 32.95 37.9791 32.9488 38.0614 32.9016C38.1468 32.8526 38.2005 32.7641 38.2149 32.6491L38.2157 32.6492V32.6366V32.6211C38.4977 30.6238 38.7745 28.4796 37.8552 26.5478C37.4828 25.7501 36.8885 25.0753 36.1428 24.6031ZM29.3595 23.7771C29.3401 23.7781 29.3215 23.7847 29.3058 23.7962C28.7535 24.2002 28.3106 24.7343 28.0169 25.3507C27.724 25.9655 27.5887 26.643 27.6232 27.3225C27.5705 28.4728 27.5881 29.6376 27.6057 30.7971L27.6057 30.7987C27.6145 31.3793 27.6233 31.9586 27.6233 32.5353C27.6233 32.6548 27.6724 32.7506 27.7493 32.8147C27.8238 32.8769 27.9193 32.9055 28.0106 32.9055C28.1018 32.9055 28.1972 32.8769 28.2708 32.8138C28.3465 32.7489 28.3926 32.6527 28.3893 32.5338V27.9528C28.3893 27.3015 28.4235 26.6015 28.6088 25.9756C28.7935 25.3519 29.1264 24.8081 29.7211 24.4585C29.7265 24.4554 29.7315 24.4518 29.7362 24.4477C29.8054 24.3874 29.8513 24.3049 29.8659 24.2143C29.8805 24.1238 29.8628 24.031 29.8159 23.9521C29.7691 23.8732 29.696 23.8132 29.6096 23.7824C29.5288 23.7536 29.441 23.7518 29.3595 23.7771Z" fill="white" stroke="white" stroke-width="0.2" stroke-linejoin="round"/>
</svg>
