<svg width="50" height="51" viewBox="0 0 50 51" fill="none" xmlns="http://www.w3.org/2000/svg">
<path fill-rule="evenodd" clip-rule="evenodd" d="M25 49.4691C38.2378 49.4691 48.9691 38.7378 48.9691 25.5C48.9691 12.2622 38.2378 1.53093 25 1.53093C11.7622 1.53093 1.03093 12.2622 1.03093 25.5C1.03093 38.7378 11.7622 49.4691 25 49.4691ZM25 50.5C38.8071 50.5 50 39.3071 50 25.5C50 11.6929 38.8071 0.5 25 0.5C11.1929 0.5 0 11.6929 0 25.5C0 39.3071 11.1929 50.5 25 50.5Z" fill="white"/>
<path d="M12.6467 23.7165L12.5549 19.6937C17.8106 19.4285 23.044 19.4028 28.3224 19.583C28.3222 20.8773 28.3155 22.1716 28.3023 23.466C28.2543 23.446 28.2024 23.4354 28.1493 23.4354C23.03 23.4354 17.9147 23.5184 12.8033 23.6845L12.8065 23.7844M12.6467 23.7165L12.6492 23.8284C12.6913 23.8009 12.7437 23.7844 12.8065 23.7844M12.6467 23.7165C12.6933 23.6961 12.7467 23.6844 12.8065 23.6844V23.7844M12.6467 23.7165L28.3012 23.577C28.2556 23.55 28.2032 23.5354 28.1493 23.5354C23.0311 23.5354 17.9168 23.6184 12.8065 23.7844M35.9381 27.9801L35.9382 27.9789L36.2353 24.3498L36.2356 24.3498V24.3416C36.2356 24.2195 36.1887 24.1205 36.1122 24.0531C36.0376 23.9874 35.941 23.957 35.8474 23.957C35.6603 23.957 35.458 24.0822 35.4417 24.3343C35.4417 24.3347 35.4416 24.335 35.4416 24.3354L35.1446 27.9626L35.1443 27.9626V27.9708C35.1443 28.0922 35.1899 28.1911 35.2654 28.2587C35.3391 28.3248 35.4349 28.3554 35.528 28.3554C35.7149 28.3554 35.9146 28.2296 35.9381 27.9801ZM35.736 22.6058L35.8066 22.5351L35.736 22.6058C35.8105 22.6802 35.9114 22.7219 36.0167 22.7219C36.122 22.7219 36.2229 22.6802 36.2974 22.6058L36.2268 22.5351L36.2974 22.6058C36.3719 22.5315 36.4138 22.4306 36.4138 22.3254C36.4138 22.2201 36.3719 22.1193 36.2974 22.045L36.2268 22.1157L36.2974 22.045C36.2229 21.9706 36.122 21.9289 36.0167 21.9289C35.9114 21.9289 35.8105 21.9706 35.736 22.045L35.8066 22.1157L35.736 22.045C35.6615 22.1193 35.6196 22.2201 35.6196 22.3254C35.6196 22.4306 35.6615 22.5315 35.736 22.6058ZM30.5043 23.8369L29.107 23.9153L29.1166 19.5265C29.1166 19.5264 29.1166 19.5263 29.1166 19.5263C29.1165 19.4212 29.0747 19.3204 29.0003 19.2461C28.9812 19.2271 28.9605 19.2102 28.9384 19.1957C28.9378 19.1135 28.9142 19.0301 28.8658 18.9603C28.8011 18.8667 28.6951 18.8024 28.5567 18.798C23.195 18.6081 17.8568 18.6318 12.4709 18.9047C12.3259 18.9055 12.2194 18.9747 12.1564 19.0707C12.1551 19.0707 12.1539 19.0707 12.1526 19.0707C12.0473 19.0707 11.9464 19.1124 11.8719 19.1867C11.7974 19.2611 11.7555 19.3619 11.7554 19.4672L11.7555 19.4695L12.0831 33.828C12.0731 33.8855 12.0743 33.9452 12.087 34.0022L12.0883 34.055C12.0883 34.0554 12.0883 34.0558 12.0883 34.0562C12.0886 34.1609 12.1304 34.2613 12.2046 34.3354C12.2791 34.4098 12.3801 34.4515 12.4854 34.4515C12.5906 34.4515 12.6916 34.4097 12.7661 34.3354C12.7828 34.3187 12.7979 34.3007 12.8112 34.2816C18.041 34.0522 23.2669 34.0574 28.4891 34.2971L28.4891 34.2972H28.4937C28.6551 34.2972 28.772 34.2146 28.8321 34.0998C28.886 33.997 28.893 33.8718 28.8551 33.7629C28.8551 33.7626 28.8551 33.7624 28.8551 33.7622C28.9416 31.69 29.007 29.6178 29.0512 27.5455C29.125 27.6161 29.2233 27.6556 29.3257 27.6556V27.6562L29.3372 27.6549C29.6375 27.6201 29.9409 27.6201 30.2412 27.6549L30.2415 27.6549C30.4278 27.676 30.6124 27.71 30.7938 27.7565C30.7946 27.7579 30.7955 27.7593 30.7963 27.7608C32.3437 30.496 34.5213 32.8243 37.1491 34.5531C37.2938 34.6526 37.447 34.6334 37.5591 34.5519C37.6627 34.4765 37.7316 34.3487 37.7374 34.2175C37.7405 34.2025 37.7428 34.1871 37.7443 34.1714L37.7444 34.1706C38.2316 28.7256 38.3628 23.2547 38.137 17.7927C38.136 17.5794 37.9884 17.4541 37.83 17.4202C37.6851 17.3892 37.5077 17.4301 37.41 17.5657C34.8085 19.3021 32.481 21.4157 30.5043 23.8369ZM30.6195 26.8953C30.1913 26.8204 29.7531 26.809 29.3191 26.8626C29.2245 26.8642 29.1338 26.8994 29.0631 26.9617C29.0776 26.2108 29.0894 25.46 29.0985 24.7091L30.4838 24.6314L30.6162 26.8471C30.6163 26.8633 30.6175 26.8794 30.6195 26.8953ZM37.0077 33.4992C34.7929 31.9198 32.9415 29.8838 31.5802 27.5271C31.5878 27.4857 31.5889 27.4433 31.5833 27.4015C31.5762 27.3492 31.559 27.299 31.5325 27.2535L31.4461 27.3038L31.5325 27.2535C31.5061 27.208 31.4709 27.1682 31.429 27.1363C31.3991 27.1135 31.3662 27.0951 31.3313 27.0815C31.3824 27.0133 31.4104 26.9301 31.4104 26.8439H31.4106L31.4102 26.838L31.2558 24.2547C31.2558 24.2543 31.2558 24.2539 31.2558 24.2535C31.2543 24.2175 31.2481 24.1821 31.2375 24.1482C33.0158 22.0083 35.0798 20.1226 37.3714 18.5436C37.548 23.5315 37.4266 28.5256 37.0077 33.4992ZM28.1487 24.2284H28.1493C28.1994 24.2284 28.2485 24.2189 28.2942 24.201C28.2827 25.1517 28.2677 26.1024 28.2493 27.053L12.7343 27.5582L12.6635 24.4556C12.707 24.4711 12.7559 24.4791 12.8097 24.4774L12.8104 24.4773C17.9192 24.2797 23.032 24.1967 28.1487 24.2284ZM28.233 27.8467C28.1926 29.727 28.1385 31.6073 28.0707 33.4877C23.0072 33.296 17.9402 33.2962 12.8696 33.4882L12.7524 28.3507L28.233 27.8467Z" fill="white" stroke="white" stroke-width="0.2" stroke-linejoin="round"/>
</svg>
