<svg width="51" height="51" viewBox="0 0 51 51" fill="none" xmlns="http://www.w3.org/2000/svg">
<path fill-rule="evenodd" clip-rule="evenodd" d="M25.5 49.4691C38.7378 49.4691 49.4691 38.7378 49.4691 25.5C49.4691 12.2622 38.7378 1.53093 25.5 1.53093C12.2622 1.53093 1.53093 12.2622 1.53093 25.5C1.53093 38.7378 12.2622 49.4691 25.5 49.4691ZM25.5 50.5C39.3071 50.5 50.5 39.3071 50.5 25.5C50.5 11.6929 39.3071 0.5 25.5 0.5C11.6929 0.5 0.5 11.6929 0.5 25.5C0.5 39.3071 11.6929 50.5 25.5 50.5Z" fill="white"/>
<mask id="path-2-outside-1_0_85" maskUnits="userSpaceOnUse" x="12.001" y="11.9351" width="27" height="27" fill="black">
<rect fill="white" x="12.001" y="11.9351" width="27" height="27"/>
<path fill-rule="evenodd" clip-rule="evenodd" d="M34.41 13.0102L30.3435 16.5468C30.1633 16.232 29.6685 16.5634 29.8517 16.8496L29.8563 16.8583C29.8195 16.8546 29.779 16.8588 29.7356 16.8729C25.0125 18.4732 20.4463 20.5039 16.0946 22.9394C16.0284 22.9794 15.9809 23.044 15.9624 23.1191C15.9439 23.1941 15.956 23.2734 15.996 23.3396C16.036 23.4057 16.1006 23.4533 16.1756 23.4718C16.2507 23.4902 16.33 23.4782 16.3961 23.4382C20.6996 21.0269 25.2153 19.0156 29.8864 17.4296C29.983 17.3985 30.0428 17.3354 30.0715 17.2622L32.4569 21.7386C30.6882 22.2339 29.0142 23.0193 27.5031 24.0625C27.3587 23.8179 27.177 23.5953 26.9633 23.4034C26.55 23.0044 26.0085 22.7651 25.4353 22.7282C24.862 22.6912 24.2943 22.859 23.8333 23.2017C23.3722 23.5443 23.0478 24.0395 22.9179 24.5991C22.8095 25.0658 22.8423 25.552 23.0088 25.9969L16.6502 28.8921C16.2538 27.2563 16.1712 25.559 16.4078 23.8904C16.4658 23.5308 15.9091 23.3684 15.8511 23.7396C15.8321 23.8684 15.815 23.9974 15.7996 24.1266C15.7787 24.125 15.7577 24.1258 15.7369 24.129C15.699 24.1348 15.6628 24.1484 15.6304 24.1688L13.2177 25.7348C13.1541 25.7755 13.108 25.8386 13.0887 25.9116C13.075 25.9632 13.0754 26.0171 13.0892 26.0679C12.9593 26.9694 12.973 27.8854 13.1294 28.782C13.1097 28.808 13.0944 28.8373 13.0844 28.8685C13.0721 28.9072 13.0679 28.948 13.0723 28.9883C13.0767 29.0286 13.0895 29.0676 13.1099 29.1027C13.1303 29.1378 13.1578 29.1682 13.1907 29.192C13.2236 29.2157 13.2611 29.2323 13.3008 29.2407C13.3405 29.2491 13.3815 29.249 13.4212 29.2405C13.4609 29.232 13.4984 29.2153 13.5312 29.1915C14.2474 28.6357 15.0256 28.1648 15.8502 27.7883C15.9281 28.3187 16.0367 28.8453 16.1759 29.3654C16.2017 29.4323 16.2514 29.4872 16.3153 29.5196C16.3585 29.5414 16.406 29.552 16.4537 29.5508C16.5131 29.567 16.5775 29.5626 16.6397 29.5277L23.141 26.5675C23.2803 27.0206 23.5554 27.421 23.9302 27.7139C24.333 28.0285 24.8283 28.2014 25.3393 28.2056C25.6004 28.2001 25.8576 28.1548 26.1022 28.0726L26.1049 28.0778L28.7283 33.7985C28.7122 33.7935 28.6958 33.7899 28.679 33.7878C28.6406 33.7829 28.6015 33.7858 28.5642 33.7963L26.063 34.6447C25.9194 32.6182 25.8637 30.5859 25.8963 28.5536C25.8963 28.4767 25.8657 28.4029 25.8114 28.3486C25.757 28.2942 25.6832 28.2636 25.6063 28.2636C25.5294 28.2636 25.4557 28.2942 25.4013 28.3486C25.3469 28.4029 25.3163 28.4767 25.3163 28.5536C25.2842 30.5571 25.3378 32.5605 25.477 34.5584C24.5049 34.3223 23.5453 34.037 22.602 33.7036C22.5719 33.6935 22.5433 33.6885 22.5164 33.6878C23.2777 31.9616 24.0562 30.2501 24.852 28.5535C25.0028 28.2171 24.5041 27.9155 24.3533 28.2519C22.9459 31.2755 21.5926 34.3261 20.2934 37.4039C20.1426 37.7403 20.6414 38.0418 20.7922 37.6939C21.2893 36.5104 21.7943 35.3337 22.3072 34.1638C22.3393 34.2099 22.3867 34.2483 22.4512 34.2719C23.4604 34.6195 24.4852 34.9195 25.5224 35.1712C25.5943 36.0871 25.6841 37.0017 25.7919 37.9144C25.7919 38.2856 26.4183 38.2856 26.3719 37.9144C26.2671 37.0274 26.1793 36.1387 26.1085 35.2488L28.7266 34.3646C28.7987 34.3406 28.8592 34.2902 28.8957 34.2235C28.9009 34.214 28.9056 34.2042 28.9098 34.1943L30.5359 37.7402C30.6867 38.0766 31.1854 37.7402 31.0347 37.4502L26.6228 27.8297C26.6854 27.7914 26.7465 27.7504 26.8059 27.7066C27.2315 27.3931 27.5499 26.9556 27.7172 26.454C27.9118 25.9285 27.9439 25.3567 27.8095 24.8127C27.7912 24.739 27.7701 24.6662 27.746 24.5945C29.2477 23.5547 30.9127 22.7727 32.6723 22.281C32.6886 22.2929 32.7072 22.3037 32.7282 22.3131C34.4723 23.0705 36.419 23.2256 38.2611 22.7539C38.328 22.7281 38.3829 22.6784 38.4153 22.6144C38.4444 22.5571 38.4534 22.492 38.4415 22.4293C38.4701 22.3868 38.4857 22.3326 38.4816 22.2666L38.4584 22.313C38.3185 18.9223 37.0552 15.6749 34.8683 13.0813C34.854 13.0599 34.8369 13.04 34.8175 13.0222C34.7694 12.9719 34.7158 12.9469 34.6623 12.9414C34.58 12.9241 34.4894 12.9408 34.41 13.0102ZM15.7818 27.2492C15.6943 26.4319 15.6792 25.6078 15.7372 24.7865L13.6551 26.1379C13.6564 26.1659 13.6538 26.1943 13.6472 26.222C13.5492 26.9413 13.5506 27.67 13.6509 28.3877C14.2518 27.9599 14.8912 27.5882 15.5611 27.2776C15.5946 27.2585 15.6315 27.2462 15.6698 27.2415C15.7073 27.2368 15.7453 27.2394 15.7818 27.2492ZM33.0763 21.675L30.6124 17.0512C30.6498 17.0395 30.6867 17.0192 30.7214 16.9888L32.162 15.7319C33.3708 17.8205 34.3576 20.0302 35.1062 22.3246C35.1133 22.346 35.1221 22.3654 35.1322 22.3831C34.4409 22.2959 33.7599 22.1182 33.1072 21.8514C33.1194 21.795 33.1119 21.7343 33.0763 21.675ZM35.6126 22.429C36.3759 22.4787 37.1466 22.4188 37.9008 22.2477C37.7554 19.0879 36.5858 16.0633 34.5717 13.6293L32.6124 15.3389C33.8643 17.5048 34.8866 19.7956 35.6629 22.1738C35.6984 22.2802 35.671 22.3681 35.6126 22.429ZM23.6242 26.208C23.6442 26.237 23.6597 26.2724 23.669 26.3148C23.7853 26.7307 24.0474 27.0908 24.4073 27.3294C24.7672 27.5679 25.201 27.6689 25.6293 27.614C26.0306 27.5323 26.3992 27.3351 26.6898 27.0465C26.9804 26.758 27.1803 26.3908 27.2648 25.9901C27.3571 25.5538 27.317 25.0999 27.1496 24.6865C26.9822 24.2732 26.6951 23.9193 26.3253 23.6702C25.9689 23.442 25.546 23.3408 25.125 23.3829C24.704 23.425 24.3095 23.6079 24.0054 23.9021C23.7478 24.1769 23.5765 24.5211 23.5126 24.8922C23.4487 25.2633 23.495 25.645 23.6458 25.9901L23.6226 25.9669C23.6686 26.049 23.6616 26.1348 23.6242 26.208Z"/>
</mask>
<path fill-rule="evenodd" clip-rule="evenodd" d="M34.41 13.0102L30.3435 16.5468C30.1633 16.232 29.6685 16.5634 29.8517 16.8496L29.8563 16.8583C29.8195 16.8546 29.779 16.8588 29.7356 16.8729C25.0125 18.4732 20.4463 20.5039 16.0946 22.9394C16.0284 22.9794 15.9809 23.044 15.9624 23.1191C15.9439 23.1941 15.956 23.2734 15.996 23.3396C16.036 23.4057 16.1006 23.4533 16.1756 23.4718C16.2507 23.4902 16.33 23.4782 16.3961 23.4382C20.6996 21.0269 25.2153 19.0156 29.8864 17.4296C29.983 17.3985 30.0428 17.3354 30.0715 17.2622L32.4569 21.7386C30.6882 22.2339 29.0142 23.0193 27.5031 24.0625C27.3587 23.8179 27.177 23.5953 26.9633 23.4034C26.55 23.0044 26.0085 22.7651 25.4353 22.7282C24.862 22.6912 24.2943 22.859 23.8333 23.2017C23.3722 23.5443 23.0478 24.0395 22.9179 24.5991C22.8095 25.0658 22.8423 25.552 23.0088 25.9969L16.6502 28.8921C16.2538 27.2563 16.1712 25.559 16.4078 23.8904C16.4658 23.5308 15.9091 23.3684 15.8511 23.7396C15.8321 23.8684 15.815 23.9974 15.7996 24.1266C15.7787 24.125 15.7577 24.1258 15.7369 24.129C15.699 24.1348 15.6628 24.1484 15.6304 24.1688L13.2177 25.7348C13.1541 25.7755 13.108 25.8386 13.0887 25.9116C13.075 25.9632 13.0754 26.0171 13.0892 26.0679C12.9593 26.9694 12.973 27.8854 13.1294 28.782C13.1097 28.808 13.0944 28.8373 13.0844 28.8685C13.0721 28.9072 13.0679 28.948 13.0723 28.9883C13.0767 29.0286 13.0895 29.0676 13.1099 29.1027C13.1303 29.1378 13.1578 29.1682 13.1907 29.192C13.2236 29.2157 13.2611 29.2323 13.3008 29.2407C13.3405 29.2491 13.3815 29.249 13.4212 29.2405C13.4609 29.232 13.4984 29.2153 13.5312 29.1915C14.2474 28.6357 15.0256 28.1648 15.8502 27.7883C15.9281 28.3187 16.0367 28.8453 16.1759 29.3654C16.2017 29.4323 16.2514 29.4872 16.3153 29.5196C16.3585 29.5414 16.406 29.552 16.4537 29.5508C16.5131 29.567 16.5775 29.5626 16.6397 29.5277L23.141 26.5675C23.2803 27.0206 23.5554 27.421 23.9302 27.7139C24.333 28.0285 24.8283 28.2014 25.3393 28.2056C25.6004 28.2001 25.8576 28.1548 26.1022 28.0726L26.1049 28.0778L28.7283 33.7985C28.7122 33.7935 28.6958 33.7899 28.679 33.7878C28.6406 33.7829 28.6015 33.7858 28.5642 33.7963L26.063 34.6447C25.9194 32.6182 25.8637 30.5859 25.8963 28.5536C25.8963 28.4767 25.8657 28.4029 25.8114 28.3486C25.757 28.2942 25.6832 28.2636 25.6063 28.2636C25.5294 28.2636 25.4557 28.2942 25.4013 28.3486C25.3469 28.4029 25.3163 28.4767 25.3163 28.5536C25.2842 30.5571 25.3378 32.5605 25.477 34.5584C24.5049 34.3223 23.5453 34.037 22.602 33.7036C22.5719 33.6935 22.5433 33.6885 22.5164 33.6878C23.2777 31.9616 24.0562 30.2501 24.852 28.5535C25.0028 28.2171 24.5041 27.9155 24.3533 28.2519C22.9459 31.2755 21.5926 34.3261 20.2934 37.4039C20.1426 37.7403 20.6414 38.0418 20.7922 37.6939C21.2893 36.5104 21.7943 35.3337 22.3072 34.1638C22.3393 34.2099 22.3867 34.2483 22.4512 34.2719C23.4604 34.6195 24.4852 34.9195 25.5224 35.1712C25.5943 36.0871 25.6841 37.0017 25.7919 37.9144C25.7919 38.2856 26.4183 38.2856 26.3719 37.9144C26.2671 37.0274 26.1793 36.1387 26.1085 35.2488L28.7266 34.3646C28.7987 34.3406 28.8592 34.2902 28.8957 34.2235C28.9009 34.214 28.9056 34.2042 28.9098 34.1943L30.5359 37.7402C30.6867 38.0766 31.1854 37.7402 31.0347 37.4502L26.6228 27.8297C26.6854 27.7914 26.7465 27.7504 26.8059 27.7066C27.2315 27.3931 27.5499 26.9556 27.7172 26.454C27.9118 25.9285 27.9439 25.3567 27.8095 24.8127C27.7912 24.739 27.7701 24.6662 27.746 24.5945C29.2477 23.5547 30.9127 22.7727 32.6723 22.281C32.6886 22.2929 32.7072 22.3037 32.7282 22.3131C34.4723 23.0705 36.419 23.2256 38.2611 22.7539C38.328 22.7281 38.3829 22.6784 38.4153 22.6144C38.4444 22.5571 38.4534 22.492 38.4415 22.4293C38.4701 22.3868 38.4857 22.3326 38.4816 22.2666L38.4584 22.313C38.3185 18.9223 37.0552 15.6749 34.8683 13.0813C34.854 13.0599 34.8369 13.04 34.8175 13.0222C34.7694 12.9719 34.7158 12.9469 34.6623 12.9414C34.58 12.9241 34.4894 12.9408 34.41 13.0102ZM15.7818 27.2492C15.6943 26.4319 15.6792 25.6078 15.7372 24.7865L13.6551 26.1379C13.6564 26.1659 13.6538 26.1943 13.6472 26.222C13.5492 26.9413 13.5506 27.67 13.6509 28.3877C14.2518 27.9599 14.8912 27.5882 15.5611 27.2776C15.5946 27.2585 15.6315 27.2462 15.6698 27.2415C15.7073 27.2368 15.7453 27.2394 15.7818 27.2492ZM33.0763 21.675L30.6124 17.0512C30.6498 17.0395 30.6867 17.0192 30.7214 16.9888L32.162 15.7319C33.3708 17.8205 34.3576 20.0302 35.1062 22.3246C35.1133 22.346 35.1221 22.3654 35.1322 22.3831C34.4409 22.2959 33.7599 22.1182 33.1072 21.8514C33.1194 21.795 33.1119 21.7343 33.0763 21.675ZM35.6126 22.429C36.3759 22.4787 37.1466 22.4188 37.9008 22.2477C37.7554 19.0879 36.5858 16.0633 34.5717 13.6293L32.6124 15.3389C33.8643 17.5048 34.8866 19.7956 35.6629 22.1738C35.6984 22.2802 35.671 22.3681 35.6126 22.429ZM23.6242 26.208C23.6442 26.237 23.6597 26.2724 23.669 26.3148C23.7853 26.7307 24.0474 27.0908 24.4073 27.3294C24.7672 27.5679 25.201 27.6689 25.6293 27.614C26.0306 27.5323 26.3992 27.3351 26.6898 27.0465C26.9804 26.758 27.1803 26.3908 27.2648 25.9901C27.3571 25.5538 27.317 25.0999 27.1496 24.6865C26.9822 24.2732 26.6951 23.9193 26.3253 23.6702C25.9689 23.442 25.546 23.3408 25.125 23.3829C24.704 23.425 24.3095 23.6079 24.0054 23.9021C23.7478 24.1769 23.5765 24.5211 23.5126 24.8922C23.4487 25.2633 23.495 25.645 23.6458 25.9901L23.6226 25.9669C23.6686 26.049 23.6616 26.1348 23.6242 26.208Z" fill="white"/>
<path fill-rule="evenodd" clip-rule="evenodd" d="M34.41 13.0102L30.3435 16.5468C30.1633 16.232 29.6685 16.5634 29.8517 16.8496L29.8563 16.8583C29.8195 16.8546 29.779 16.8588 29.7356 16.8729C25.0125 18.4732 20.4463 20.5039 16.0946 22.9394C16.0284 22.9794 15.9809 23.044 15.9624 23.1191C15.9439 23.1941 15.956 23.2734 15.996 23.3396C16.036 23.4057 16.1006 23.4533 16.1756 23.4718C16.2507 23.4902 16.33 23.4782 16.3961 23.4382C20.6996 21.0269 25.2153 19.0156 29.8864 17.4296C29.983 17.3985 30.0428 17.3354 30.0715 17.2622L32.4569 21.7386C30.6882 22.2339 29.0142 23.0193 27.5031 24.0625C27.3587 23.8179 27.177 23.5953 26.9633 23.4034C26.55 23.0044 26.0085 22.7651 25.4353 22.7282C24.862 22.6912 24.2943 22.859 23.8333 23.2017C23.3722 23.5443 23.0478 24.0395 22.9179 24.5991C22.8095 25.0658 22.8423 25.552 23.0088 25.9969L16.6502 28.8921C16.2538 27.2563 16.1712 25.559 16.4078 23.8904C16.4658 23.5308 15.9091 23.3684 15.8511 23.7396C15.8321 23.8684 15.815 23.9974 15.7996 24.1266C15.7787 24.125 15.7577 24.1258 15.7369 24.129C15.699 24.1348 15.6628 24.1484 15.6304 24.1688L13.2177 25.7348C13.1541 25.7755 13.108 25.8386 13.0887 25.9116C13.075 25.9632 13.0754 26.0171 13.0892 26.0679C12.9593 26.9694 12.973 27.8854 13.1294 28.782C13.1097 28.808 13.0944 28.8373 13.0844 28.8685C13.0721 28.9072 13.0679 28.948 13.0723 28.9883C13.0767 29.0286 13.0895 29.0676 13.1099 29.1027C13.1303 29.1378 13.1578 29.1682 13.1907 29.192C13.2236 29.2157 13.2611 29.2323 13.3008 29.2407C13.3405 29.2491 13.3815 29.249 13.4212 29.2405C13.4609 29.232 13.4984 29.2153 13.5312 29.1915C14.2474 28.6357 15.0256 28.1648 15.8502 27.7883C15.9281 28.3187 16.0367 28.8453 16.1759 29.3654C16.2017 29.4323 16.2514 29.4872 16.3153 29.5196C16.3585 29.5414 16.406 29.552 16.4537 29.5508C16.5131 29.567 16.5775 29.5626 16.6397 29.5277L23.141 26.5675C23.2803 27.0206 23.5554 27.421 23.9302 27.7139C24.333 28.0285 24.8283 28.2014 25.3393 28.2056C25.6004 28.2001 25.8576 28.1548 26.1022 28.0726L26.1049 28.0778L28.7283 33.7985C28.7122 33.7935 28.6958 33.7899 28.679 33.7878C28.6406 33.7829 28.6015 33.7858 28.5642 33.7963L26.063 34.6447C25.9194 32.6182 25.8637 30.5859 25.8963 28.5536C25.8963 28.4767 25.8657 28.4029 25.8114 28.3486C25.757 28.2942 25.6832 28.2636 25.6063 28.2636C25.5294 28.2636 25.4557 28.2942 25.4013 28.3486C25.3469 28.4029 25.3163 28.4767 25.3163 28.5536C25.2842 30.5571 25.3378 32.5605 25.477 34.5584C24.5049 34.3223 23.5453 34.037 22.602 33.7036C22.5719 33.6935 22.5433 33.6885 22.5164 33.6878C23.2777 31.9616 24.0562 30.2501 24.852 28.5535C25.0028 28.2171 24.5041 27.9155 24.3533 28.2519C22.9459 31.2755 21.5926 34.3261 20.2934 37.4039C20.1426 37.7403 20.6414 38.0418 20.7922 37.6939C21.2893 36.5104 21.7943 35.3337 22.3072 34.1638C22.3393 34.2099 22.3867 34.2483 22.4512 34.2719C23.4604 34.6195 24.4852 34.9195 25.5224 35.1712C25.5943 36.0871 25.6841 37.0017 25.7919 37.9144C25.7919 38.2856 26.4183 38.2856 26.3719 37.9144C26.2671 37.0274 26.1793 36.1387 26.1085 35.2488L28.7266 34.3646C28.7987 34.3406 28.8592 34.2902 28.8957 34.2235C28.9009 34.214 28.9056 34.2042 28.9098 34.1943L30.5359 37.7402C30.6867 38.0766 31.1854 37.7402 31.0347 37.4502L26.6228 27.8297C26.6854 27.7914 26.7465 27.7504 26.8059 27.7066C27.2315 27.3931 27.5499 26.9556 27.7172 26.454C27.9118 25.9285 27.9439 25.3567 27.8095 24.8127C27.7912 24.739 27.7701 24.6662 27.746 24.5945C29.2477 23.5547 30.9127 22.7727 32.6723 22.281C32.6886 22.2929 32.7072 22.3037 32.7282 22.3131C34.4723 23.0705 36.419 23.2256 38.2611 22.7539C38.328 22.7281 38.3829 22.6784 38.4153 22.6144C38.4444 22.5571 38.4534 22.492 38.4415 22.4293C38.4701 22.3868 38.4857 22.3326 38.4816 22.2666L38.4584 22.313C38.3185 18.9223 37.0552 15.6749 34.8683 13.0813C34.854 13.0599 34.8369 13.04 34.8175 13.0222C34.7694 12.9719 34.7158 12.9469 34.6623 12.9414C34.58 12.9241 34.4894 12.9408 34.41 13.0102ZM15.7818 27.2492C15.6943 26.4319 15.6792 25.6078 15.7372 24.7865L13.6551 26.1379C13.6564 26.1659 13.6538 26.1943 13.6472 26.222C13.5492 26.9413 13.5506 27.67 13.6509 28.3877C14.2518 27.9599 14.8912 27.5882 15.5611 27.2776C15.5946 27.2585 15.6315 27.2462 15.6698 27.2415C15.7073 27.2368 15.7453 27.2394 15.7818 27.2492ZM33.0763 21.675L30.6124 17.0512C30.6498 17.0395 30.6867 17.0192 30.7214 16.9888L32.162 15.7319C33.3708 17.8205 34.3576 20.0302 35.1062 22.3246C35.1133 22.346 35.1221 22.3654 35.1322 22.3831C34.4409 22.2959 33.7599 22.1182 33.1072 21.8514C33.1194 21.795 33.1119 21.7343 33.0763 21.675ZM35.6126 22.429C36.3759 22.4787 37.1466 22.4188 37.9008 22.2477C37.7554 19.0879 36.5858 16.0633 34.5717 13.6293L32.6124 15.3389C33.8643 17.5048 34.8866 19.7956 35.6629 22.1738C35.6984 22.2802 35.671 22.3681 35.6126 22.429ZM23.6242 26.208C23.6442 26.237 23.6597 26.2724 23.669 26.3148C23.7853 26.7307 24.0474 27.0908 24.4073 27.3294C24.7672 27.5679 25.201 27.6689 25.6293 27.614C26.0306 27.5323 26.3992 27.3351 26.6898 27.0465C26.9804 26.758 27.1803 26.3908 27.2648 25.9901C27.3571 25.5538 27.317 25.0999 27.1496 24.6865C26.9822 24.2732 26.6951 23.9193 26.3253 23.6702C25.9689 23.442 25.546 23.3408 25.125 23.3829C24.704 23.425 24.3095 23.6079 24.0054 23.9021C23.7478 24.1769 23.5765 24.5211 23.5126 24.8922C23.4487 25.2633 23.495 25.645 23.6458 25.9901L23.6226 25.9669C23.6686 26.049 23.6616 26.1348 23.6242 26.208Z" stroke="white" stroke-width="0.4" stroke-linejoin="round" mask="url(#path-2-outside-1_0_85)"/>
</svg>
