<svg width="51" height="51" viewBox="0 0 51 51" fill="none" xmlns="http://www.w3.org/2000/svg">
<path fill-rule="evenodd" clip-rule="evenodd" d="M25.5 49.4691C38.7378 49.4691 49.4691 38.7378 49.4691 25.5C49.4691 12.2622 38.7378 1.53093 25.5 1.53093C12.2622 1.53093 1.53093 12.2622 1.53093 25.5C1.53093 38.7378 12.2622 49.4691 25.5 49.4691ZM25.5 50.5C39.3071 50.5 50.5 39.3071 50.5 25.5C50.5 11.6929 39.3071 0.5 25.5 0.5C11.6929 0.5 0.5 11.6929 0.5 25.5C0.5 39.3071 11.6929 50.5 25.5 50.5Z" fill="white"/>
<path d="M23.1064 34.1799V34.185L23.1062 34.1827L23.1064 34.1799Z" fill="white"/>
<path d="M23.1064 34.144V34.1799C23.1072 34.1684 23.1072 34.1564 23.1064 34.144Z" fill="white"/>
<path fill-rule="evenodd" clip-rule="evenodd" d="M16.4643 35.2967L16.4641 35.3018C16.444 35.6297 15.9639 35.64 15.9639 35.3018C16.1773 30.9912 16.2139 26.6806 16.0739 22.37C16.0689 22.2059 16.1942 22.1239 16.3206 22.124L25.6274 13.9672C25.7667 13.8474 25.937 13.9087 26.0191 14.0238L26.0275 14.0288C29.2969 16.18 32.1437 18.9397 34.4207 22.165H34.4607C34.5633 22.3089 34.485 22.4498 34.3614 22.5086C34.0948 26.6045 34.3196 30.7186 35.0309 34.7587C35.0749 34.992 34.8276 35.1259 34.6693 35.0546C34.6385 35.0683 34.6023 35.0761 34.5606 35.0761C28.5291 34.809 22.4879 34.8826 16.4643 35.2967ZM16.5862 22.7779C16.7 26.7854 16.6674 30.787 16.4882 34.7827C20.2729 34.5231 24.0646 34.3979 27.8564 34.4071C27.8511 34.3862 27.8482 34.3634 27.8482 34.3387C27.832 32.822 27.6847 31.3098 27.408 29.8197C27.188 28.672 26.8378 26.9095 25.3473 26.8378C23.8567 26.7661 23.4566 28.713 23.2665 29.8402C23.0385 31.2754 22.9847 32.734 23.1062 34.1827C23.0846 34.4713 22.6062 34.4584 22.6062 34.144C22.486 32.6494 22.5465 31.1454 22.7863 29.666C22.8405 28.5226 23.333 27.4473 24.1568 26.6738C24.5555 26.3866 25.0427 26.2584 25.5271 26.3131C26.0116 26.3678 26.4598 26.6017 26.7878 26.971C27.5092 27.9067 27.9287 29.0491 27.9882 30.2398C28.2154 31.594 28.3358 32.9647 28.3484 34.3387C28.3492 34.3641 28.3468 34.3876 28.3418 34.4091C30.3925 34.4203 32.4432 34.4708 34.4927 34.5607C33.8133 30.6002 33.6001 26.5704 33.858 22.5575L16.5862 22.7779ZM16.9453 22.261L33.7525 22.0465C31.5647 19.0655 28.874 16.5078 25.8063 14.4949L16.9453 22.261Z" fill="white"/>
<path fill-rule="evenodd" clip-rule="evenodd" d="M22.6261 34.2461C22.6133 34.2166 22.6061 34.1825 22.6061 34.1438C22.4859 32.6493 22.5464 31.1452 22.7862 29.6659C22.8404 28.5225 23.3329 27.4472 24.1567 26.6737C24.5553 26.3865 25.0426 26.2582 25.527 26.3129C26.0114 26.3676 26.4597 26.6016 26.7877 26.9709C27.5091 27.9066 27.9286 29.0489 27.9881 30.2397C28.2063 31.5404 28.326 32.8563 28.3463 34.1757C28.3471 34.23 28.3478 34.2842 28.3483 34.3385C28.349 34.364 28.3467 34.3874 28.3417 34.4089C28.4204 34.4094 28.4992 34.4098 28.5779 34.4104C30.4704 34.4235 32.3627 34.4702 34.2542 34.5503C34.3337 34.5537 34.4131 34.5571 34.4926 34.5606C34.4792 34.4822 34.4659 34.4038 34.4528 34.3254C33.8177 30.5175 33.6132 26.6471 33.8434 22.7909C33.8481 22.713 33.8529 22.6352 33.8579 22.5574L16.5861 22.7778C16.5883 22.8555 16.5904 22.9333 16.5925 23.011C16.6965 26.8621 16.6651 30.7078 16.4984 34.548C16.495 34.6262 16.4915 34.7044 16.488 34.7825C16.5661 34.7772 16.6442 34.7719 16.7222 34.7666C18.6503 34.6372 20.5801 34.5427 22.5108 34.483C22.751 34.4756 22.9911 34.4687 23.2313 34.4624C24.6936 34.4238 26.1564 34.4052 27.6192 34.4066C27.6982 34.4067 27.7773 34.4068 27.8563 34.407C27.851 34.386 27.8481 34.3632 27.8481 34.3385C27.8475 34.2836 27.8467 34.2286 27.8458 34.1737C27.821 32.7123 27.6745 31.2556 27.4079 29.8196C27.1878 28.6719 26.8377 26.9094 25.3471 26.8377C23.8566 26.7659 23.4564 28.7129 23.2664 29.8401C23.0526 31.1858 22.9919 32.5521 23.0854 33.9115C23.0907 33.989 23.0966 34.0664 23.1029 34.1438C23.1029 34.1438 23.1029 34.1439 23.1029 34.1438C23.1039 34.1557 23.1049 34.1678 23.1059 34.1798C23.1059 34.1797 23.1059 34.1798 23.1059 34.1798C23.1059 34.1807 23.106 34.1816 23.1061 34.1825C23.106 34.1833 23.106 34.1841 23.1059 34.1848C23.1059 34.1848 23.1059 34.1848 23.1059 34.1848C23.1045 34.2018 23.1015 34.2178 23.0971 34.2326C23.0767 34.3013 23.0266 34.3474 22.9658 34.3711C22.8451 34.4181 22.6822 34.3764 22.6261 34.2461ZM23.336 34.2263C24.7612 34.1897 26.1868 34.172 27.6125 34.1733C27.5877 32.7266 27.4426 31.2846 27.1787 29.8629C27.0676 29.2837 26.9299 28.5894 26.646 28.0308C26.3665 27.4807 25.9672 27.101 25.3359 27.0707C24.7234 27.0412 24.3183 27.414 24.0276 27.9938C23.7351 28.5772 23.5918 29.3132 23.4966 29.8777C23.2757 31.2685 23.2206 32.6815 23.3322 34.0857C23.3359 34.0998 23.3382 34.1145 23.3391 34.1296C23.3403 34.1485 23.3404 34.1674 23.3396 34.1862C23.3395 34.1987 23.3384 34.211 23.3364 34.223C23.3363 34.2241 23.3362 34.2252 23.336 34.2263ZM23.1059 34.1798C23.1066 34.1682 23.1071 34.1563 23.1063 34.1438L23.1059 34.1798ZM23.1059 34.1798L23.1059 34.1848L23.1061 34.1825L23.1059 34.1798ZM22.3846 34.2536C22.3776 34.2219 22.3736 34.1888 22.3729 34.1545C22.2524 32.6482 22.3132 31.1325 22.5538 29.6415C22.614 28.4434 23.1316 27.3162 23.997 26.5036C24.0044 26.4967 24.0122 26.4903 24.0203 26.4844C24.4656 26.1637 25.0107 26.0199 25.5532 26.0811C26.0956 26.1424 26.5964 26.4043 26.9621 26.816C26.964 26.8182 26.966 26.8204 26.9678 26.8227C26.9694 26.8246 26.9709 26.8265 26.9724 26.8284C27.7204 27.7986 28.156 28.9815 28.2204 30.2144C28.4394 31.524 28.5595 32.8488 28.5796 34.1771C30.4583 34.1902 32.3369 34.2362 34.2146 34.3152C33.5839 30.5112 33.3809 26.6455 33.6096 22.7939L16.8258 23.008C16.9296 26.8548 16.8985 30.6962 16.7326 34.5322C18.6152 34.4061 20.4994 34.3132 22.3846 34.2536ZM34.4605 22.1649C34.5632 22.3088 34.4849 22.4497 34.3613 22.5085C34.0947 26.6043 34.3195 30.7184 35.0307 34.7586C35.0748 34.9919 34.8274 35.1257 34.6692 35.0544C34.6383 35.0681 34.6021 35.0759 34.5605 35.0759C28.529 34.8088 22.4877 34.8825 16.4642 35.2965L16.4639 35.3017C16.4439 35.6296 15.9637 35.6398 15.9637 35.3017C16.1771 30.991 16.2138 26.6804 16.0738 22.3698C16.0688 22.2057 16.194 22.1237 16.3204 22.1239L25.6272 13.9671C25.7665 13.8472 25.9369 13.9086 26.019 14.0237L26.0274 14.0287C29.2967 16.1799 32.1436 18.9396 34.4205 22.1649H34.4605ZM34.5555 21.9518C34.593 21.9685 34.6259 21.995 34.6504 22.0294C34.7434 22.1597 34.7653 22.3111 34.7148 22.4488C34.6873 22.5239 34.6415 22.5865 34.5869 22.6356C34.3329 26.6755 34.5589 30.7323 35.2602 34.7168C35.3005 34.9331 35.2016 35.1116 35.0603 35.2113C34.954 35.2864 34.8098 35.326 34.6698 35.298C34.6343 35.3055 34.5978 35.3092 34.5605 35.3092C34.5588 35.3092 34.5572 35.3092 34.5555 35.3092C34.5537 35.3091 34.552 35.3091 34.5502 35.309C28.5821 35.0447 22.6045 35.1145 16.644 35.5181C16.557 35.6913 16.3783 35.7829 16.2088 35.7847C16.0963 35.7859 15.9761 35.749 15.8816 35.6625C15.7835 35.5728 15.7305 35.4453 15.7305 35.3017C15.7305 35.2978 15.7306 35.294 15.7308 35.2901C15.9439 30.9859 15.9805 26.6816 15.8406 22.3774C15.8361 22.2289 15.8928 22.0991 15.9936 22.0103C16.0612 21.9506 16.1415 21.9154 16.2221 21.8999L25.4751 13.7903C25.6009 13.682 25.7527 13.6497 25.8925 13.679C26.0067 13.703 26.1058 13.7661 26.177 13.8479C29.4354 15.9957 32.2762 18.7436 34.5555 21.9518ZM33.7524 22.0464C33.6956 21.9691 33.6385 21.892 33.5811 21.8153C31.4248 18.9331 28.7943 16.4555 25.8062 14.4948L16.9452 22.2609L33.7524 22.0464ZM17.5744 22.0195L33.292 21.819C31.2069 19.0638 28.6834 16.6863 25.8261 14.7875L17.5744 22.0195Z" fill="white"/>
</svg>
