<svg width="24" height="24" fill="none" xmlns="http://www.w3.org/2000/svg"><mask id="a" maskUnits="userSpaceOnUse" x="0" y="4" width="24" height="16"><rect y="4" width="24" height="16" rx="2" fill="#C4C4C4"/></mask><g mask="url(#a)"><path d="M24 4H0v16h24V4z" fill="#F0F0F0"/><path d="M24 6H0v2h24V6zm0 4H0v2h24v-2zm0 4H0v2h24v-2zm0 4H0v2h24v-2z" fill="#D80027"/><path d="M12 4H0v8.616h12V4z" fill="#2E52B2"/><path d="M4.68 7.53l-.194.594h-.625l.506.367-.194.595.506-.368.506.368-.193-.595.505-.367h-.625l-.193-.595zm.192 2.74l-.193-.595-.193.594h-.625l.506.368-.194.594.506-.367.506.367-.193-.594.505-.368h-.625zm-2.642 0l-.193-.595-.193.594h-.625l.506.368-.194.594.506-.367.506.367-.194-.594.506-.368H2.23zm-.193-2.74l-.193.594h-.625l.506.367-.194.595.506-.368.506.368-.194-.595.506-.367H2.23l-.193-.595zM4.68 5.384l-.194.594h-.625l.506.368-.194.594.506-.367.506.367-.193-.594.505-.368h-.625l-.193-.594zm-2.643 0l-.193.594h-.625l.506.368-.194.594.506-.367.506.367-.194-.594.506-.368H2.23l-.193-.594zM7.32 7.53l-.192.594h-.626l.506.367-.193.595.506-.368.505.368-.193-.595.506-.367h-.625l-.193-.595zm.194 2.74l-.193-.595-.193.594h-.626l.506.368-.193.594.506-.367.505.367-.193-.594.506-.368h-.625zm2.642 0l-.193-.595-.193.594h-.625l.506.368-.193.594.505-.367.506.367-.193-.594.505-.368h-.625zm-.193-2.74l-.193.594h-.625l.506.367-.193.595.505-.368.506.368-.193-.595.505-.367h-.625l-.193-.595zM7.32 5.384l-.192.594h-.626l.506.368-.193.594.506-.367.505.367-.193-.594.506-.368h-.625l-.193-.594zm2.643 0l-.193.594h-.625l.506.368-.193.594.505-.367.506.367-.193-.594.505-.368h-.625l-.193-.594z" fill="#F0F0F0"/></g></svg>