<svg width="116" height="17" fill="none" xmlns="http://www.w3.org/2000/svg"><path fill-rule="evenodd" clip-rule="evenodd" d="M0 0h16.709v2.429H0V0zm0 4.857h16.709v2.43H0v-2.43zm0 4.857h16.709v2.428H0V9.714zm0 4.857h16.709V17H0v-2.43z" fill="#FEFEFE"/><path fill-rule="evenodd" clip-rule="evenodd" d="M35.969.04v16.922H33.57V.039h2.398zm-4.796 0v16.922h-2.398V.039h2.398zm-4.796 0v16.922h-2.398V.039h2.398zm-4.796 0v16.922h-2.398V.039h2.398z" fill="#D7B56D"/><path fill-rule="evenodd" clip-rule="evenodd" d="M38.367 0h16.709v2.429h-16.71V0zm0 4.857h16.709v2.43h-16.71v-2.43zm0 4.857h16.709v2.428h-16.71V9.714zm0 4.857h16.709V17h-16.71v-2.43z" fill="#FEFEFE"/><path d="M62.863 4.126c-.41 0-.78-.087-1.106-.263a1.957 1.957 0 01-.77-.734 2.045 2.045 0 01-.279-1.066c0-.397.093-.752.28-1.065.186-.314.443-.559.77-.734A2.294 2.294 0 0162.862 0c.358 0 .68.064.968.193.287.128.526.313.716.555l-.705.646c-.254-.31-.561-.464-.923-.464-.213 0-.402.047-.568.141a.978.978 0 00-.387.4 1.26 1.26 0 00-.137.592c0 .223.046.42.137.593.092.171.22.305.387.4.166.094.355.14.568.14.362 0 .67-.154.923-.464l.705.646a1.87 1.87 0 01-.716.556c-.287.128-.61.192-.968.192zm5.456-.85h-1.656l-.308.771h-1.13L66.954.079h1.091l1.735 3.968h-1.153l-.308-.77zm-.324-.827l-.504-1.27-.504 1.27h1.008zm4.611-2.37c.355 0 .663.06.924.179s.463.289.604.51c.142.221.213.48.213.78 0 .298-.07.557-.213.776a1.38 1.38 0 01-.604.507c-.261.12-.57.179-.924.179h-.682v1.037h-1.108V.079h1.79zm-.067 2.047c.228 0 .4-.05.515-.15.116-.1.174-.243.174-.429 0-.185-.058-.328-.174-.43-.115-.102-.287-.153-.515-.153h-.615v1.162h.615zM75.606.079h1.109v3.968h-1.109V.079zm3.454.89h-1.204V.08h3.51v.89h-1.198v3.078h-1.109V.969zm5.87 2.307h-1.656l-.308.771h-1.13L83.564.079h1.091l1.735 3.968h-1.153l-.308-.77zm-.324-.827l-.504-1.27-.504 1.27h1.008zm2.82-2.37h1.109v3.078h1.869v.89h-2.977V.079zM62.864 16.633c-.41 0-.78-.088-1.106-.264a1.957 1.957 0 01-.77-.734 2.045 2.045 0 01-.279-1.066c0-.396.093-.752.28-1.065.186-.314.443-.559.77-.734a2.296 2.296 0 011.105-.264c.358 0 .68.064.968.193.287.128.526.313.716.555l-.705.647c-.254-.31-.561-.465-.923-.465-.213 0-.402.047-.568.142a.978.978 0 00-.387.4c-.09.171-.137.369-.137.591 0 .223.046.42.137.593.092.172.22.305.387.4.166.094.355.141.568.141.362 0 .67-.155.923-.465l.705.646a1.87 1.87 0 01-.716.556c-.287.128-.61.193-.968.193zm4.79 0a2.32 2.32 0 01-1.116-.267 1.988 1.988 0 01-1.06-1.797 1.987 1.987 0 011.06-1.797 2.32 2.32 0 011.116-.266c.415 0 .787.089 1.117.267a1.987 1.987 0 011.06 1.796 1.988 1.988 0 01-1.06 1.797 2.32 2.32 0 01-1.117.267zm0-.93a1.014 1.014 0 00.918-.541c.094-.172.14-.37.14-.593 0-.223-.046-.42-.14-.592a1.014 1.014 0 00-.918-.541 1.014 1.014 0 00-.918.541c-.093.172-.14.37-.14.592 0 .223.047.42.14.593a1.014 1.014 0 00.918.541zm7.209-3.117v3.967h-.912l-1.73-2.114v2.114h-1.085v-3.967h.912l1.73 2.114v-2.114h1.085zm2.882 4.047c-.317 0-.625-.04-.923-.12a2.255 2.255 0 01-.728-.317l.364-.827c.175.117.379.211.61.283.231.072.459.108.683.108.425 0 .638-.108.638-.323 0-.114-.06-.198-.182-.252a3.303 3.303 0 00-.585-.174 5.528 5.528 0 01-.739-.206 1.244 1.244 0 01-.509-.355c-.142-.162-.213-.381-.213-.657 0-.242.066-.46.196-.655.13-.194.326-.348.585-.462.26-.113.578-.17.954-.17.258 0 .511.03.761.088.25.059.47.145.66.258l-.34.833c-.374-.204-.736-.306-1.086-.306-.22 0-.38.033-.481.1-.101.065-.152.151-.152.257 0 .106.06.185.18.238.119.053.311.108.576.165.298.064.545.133.741.207.196.073.366.19.51.351.143.16.215.379.215.655 0 .238-.065.453-.196.646a1.33 1.33 0 01-.587.462c-.262.115-.579.173-.952.173zm3.744-3.157h-1.203v-.89h3.51v.89h-1.198v3.077h-1.109v-3.078zm5.155 2.023h-.605v1.054H84.93v-3.967h1.791c.355 0 .662.059.924.178.26.12.462.29.604.51.142.221.213.481.213.78 0 .287-.066.537-.199.75a1.35 1.35 0 01-.568.502l.845 1.247h-1.186l-.711-1.054zm.7-1.445c0-.186-.058-.33-.174-.431-.116-.102-.287-.153-.515-.153h-.615v1.162h.615c.228 0 .4-.05.515-.15.116-.1.174-.243.174-.428zm4.259 2.579c-.583 0-1.035-.161-1.358-.482-.322-.321-.484-.777-.484-1.366v-2.2h1.108v2.166c0 .635.249.952.745.952.492 0 .739-.317.739-.952v-2.165h1.09v2.199c0 .59-.16 1.045-.483 1.366-.323.321-.775.482-1.357.482zm5.266 0a2.29 2.29 0 01-1.105-.264 1.955 1.955 0 01-.77-.734 2.043 2.043 0 01-.28-1.066c0-.396.094-.752.28-1.065a1.95 1.95 0 01.77-.734 2.296 2.296 0 011.105-.264c.358 0 .68.064.968.193.288.128.526.313.716.555l-.705.647c-.253-.31-.561-.465-.923-.465-.213 0-.402.047-.568.142a.978.978 0 00-.386.4 1.23 1.23 0 00-.137.591c0 .223.045.42.137.593.091.172.22.305.386.4.166.094.355.141.568.141.362 0 .67-.155.923-.465l.706.646c-.19.242-.43.427-.717.556-.287.128-.61.193-.968.193zm3.699-3.157h-1.203v-.89h3.509v.89h-1.198v3.077h-1.108v-3.078zm3.442-.89h1.108v3.967h-1.108v-3.967zm4.595 4.047c-.414 0-.786-.09-1.116-.267a1.986 1.986 0 01-1.061-1.797 1.985 1.985 0 011.061-1.797c.33-.177.702-.266 1.116-.266.414 0 .787.089 1.117.267.33.177.589.423.778.736.188.314.282.667.282 1.06s-.094.747-.282 1.06c-.189.314-.448.56-.778.737-.33.178-.703.267-1.117.267zm0-.93c.198 0 .377-.047.537-.142a1 1 0 00.381-.4c.093-.171.14-.369.14-.592 0-.223-.047-.42-.14-.592a1.009 1.009 0 00-.381-.4 1.036 1.036 0 00-.537-.141 1.022 1.022 0 00-.918.541c-.093.172-.14.37-.14.592 0 .223.047.42.14.593a1.023 1.023 0 00.918.541zm7.209-3.117v3.967h-.913l-1.729-2.114v2.114h-1.086v-3.967h.913l1.729 2.114v-2.114h1.086z" fill="#FEFEFE"/><path d="M60.708 6.332h1.108V10.3h-1.108V6.332zm6.347 0V10.3h-.913l-1.729-2.114V10.3h-1.086V6.332h.913l1.729 2.115V6.332h1.086zm5.467 0L70.844 10.3h-1.092L68.08 6.332h1.198l1.063 2.585 1.086-2.585h1.096zm4.097 3.1v.868h-3.145V6.332h3.072V7.2h-1.975v.67h1.74v.838h-1.74v.726h2.048zm2.715.947c-.317 0-.625-.04-.924-.119a2.258 2.258 0 01-.727-.317l.363-.828c.176.117.38.212.61.284.232.072.46.108.683.108.426 0 .638-.108.638-.324 0-.113-.06-.197-.182-.252a3.305 3.305 0 00-.584-.173 5.521 5.521 0 01-.74-.207 1.242 1.242 0 01-.508-.354c-.142-.162-.213-.382-.213-.657 0-.242.065-.46.196-.655.13-.195.325-.349.585-.462.259-.113.577-.17.954-.17.257 0 .51.03.761.088.25.058.47.144.66.258l-.341.833c-.373-.204-.735-.306-1.086-.306-.22 0-.38.033-.481.1-.1.065-.151.151-.151.257 0 .106.06.185.179.238.12.053.311.108.576.164.299.065.546.134.742.207.196.074.366.191.51.352.143.16.215.378.215.654 0 .238-.066.454-.196.646-.13.193-.327.347-.588.463-.261.115-.578.172-.951.172zm3.744-3.157h-1.203v-.89h3.509v.89h-1.198V10.3h-1.108V7.222z" fill="#D7B56D"/></svg>