<svg width="30" height="30" fill="none" xmlns="http://www.w3.org/2000/svg"><path d="M6.985 14.986h2.443a8.09 8.09 0 00-2.486 5.825c0 4.463 3.628 8.09 8.091 8.09 4.462 0 8.09-3.628 8.09-8.09a8.09 8.09 0 00-2.489-5.825h2.41c.749 0 1.363-.618 1.363-1.634 0-1.015-.614-1.633-1.363-1.633h-4.08l-1.45-1.847c.352-.366.773-.791 1.067-1.167.586-.756 1.151-1.799 1.134-3.1-.017-1.253-.397-2.426-1.19-3.287-.793-.862-1.993-1.38-3.512-1.37-1.516.01-2.72.522-3.52 1.377-.8.855-1.182 2.024-1.18 3.29.003 1.302.55 2.338 1.126 3.087.33.428.733.828 1.072 1.166l-1.476 1.851h-4.05c-.75 0-1.367.618-1.367 1.633 0 1.016.618 1.634 1.367 1.634zm8.034-13.1c1.31-.01 2.21.41 2.817 1.069.607.658.927 1.591.942 2.664.013 1.024-.427 1.854-.938 2.512a8.867 8.867 0 01-.762.84c-.233.233-.414.389-.564.603a.469.469 0 00.014.557l1.246 1.588h-5.54l1.266-1.591a.469.469 0 000-.585c-.15-.19-.341-.356-.574-.585a8.108 8.108 0 01-.748-.827c-.498-.648-.925-1.473-.926-2.516-.002-1.078.316-1.997.926-2.65.61-.653 1.527-1.071 2.841-1.08zM6.985 12.657h16.059c.246 0 .43.182.43.694 0 .513-.184.696-.43.696H6.984c-.245 0-.428-.183-.428-.696 0-.512.183-.694.429-.694zm3.937 2.328h8.182a5.768 5.768 0 01-4.091 1.713 5.763 5.763 0 01-4.09-1.713zM15.033 26.6a5.797 5.797 0 005.789-5.79 5.787 5.787 0 00-1.998-4.367 6.714 6.714 0 001.04-.883 7.144 7.144 0 012.321 5.251 7.146 7.146 0 01-7.152 7.152A7.146 7.146 0 017.88 20.81a7.144 7.144 0 012.299-5.233c.32.332.671.627 1.047.884a5.787 5.787 0 00-1.983 4.349 5.797 5.797 0 005.79 5.79zm-2.934-9.638c.897.433 1.89.673 2.914.673a6.703 6.703 0 002.941-.686 4.844 4.844 0 01-2.921 8.713 4.845 4.845 0 01-4.852-4.851 4.847 4.847 0 011.918-3.849z" fill="#C49378"/></svg>