<svg width="30" height="30" fill="none" xmlns="http://www.w3.org/2000/svg"><path d="M27.913 5.692a.67.67 0 00-.622-.622c-.104 0-2.803-.242-6.229.173-.588.069-1.21.172-1.799.276a21.89 21.89 0 00-3.599 1.002c-.76.276-1.487.587-2.145.967-.173.103-.346.172-.519.276l-.035.035c-.865.518-1.66 1.07-2.352 1.692a5.78 5.78 0 00-.485.449 8.85 8.85 0 00-1.592 2.141 9.116 9.116 0 00-1.003 5.803 9.152 9.152 0 002.076 4.455l-1.488 1.485c-.519.518-1.211.794-1.972.794a2.866 2.866 0 01-1.973-.794.67.67 0 00-.968 0 .667.667 0 000 .967A4.111 4.111 0 006.148 26a4.111 4.111 0 002.942-1.209l1.488-1.485a9.02 9.02 0 004.463 2.072c.485.07.97.104 1.488.104 1.523 0 3.01-.38 4.326-1.07A8.866 8.866 0 0023 22.821c.173-.172.311-.31.45-.483.623-.69 1.176-1.45 1.695-2.349v-.034c.104-.173.208-.346.277-.518a17.49 17.49 0 00.969-2.141c.415-1.106.727-2.315 1.004-3.593.103-.587.207-1.208.276-1.795.52-3.42.277-6.114.242-6.217zm-6.85 7.184l5.536-5.526c0 1.07-.035 2.624-.243 4.386-.034.38-.103.76-.173 1.14h-5.12zm.172-6.252a29.94 29.94 0 013.98-.241h.415l-5.537 5.526V6.797c.381-.07.762-.138 1.142-.173zm-5.12 1.21c.795-.312 1.66-.553 2.594-.76v6.216l-4.74 4.697V8.8a.262.262 0 01.138-.069 14.839 14.839 0 012.007-.898zm-6.368 4.904c.346-.657.83-1.278 1.35-1.831.138-.138.277-.276.45-.415.346-.31.692-.587 1.072-.863v9.74l-2.006 2.003c-.9-1.07-1.488-2.314-1.696-3.696-.277-1.726 0-3.453.83-4.938zm12.734 8.703c-.138.138-.277.276-.415.449a6.978 6.978 0 01-1.834 1.347 7.9 7.9 0 01-4.948.829c-1.384-.242-2.665-.794-3.703-1.692l1.973-1.97h9.757l-.83 1.037zm2.664-4.593c-.276.69-.553 1.381-.9 2.003a.262.262 0 00-.069.138h-9.204l4.706-4.732h6.229a20.43 20.43 0 01-.762 2.59z" fill="#C49378"/></svg>