<svg width="30" height="30" fill="none" xmlns="http://www.w3.org/2000/svg"><g clip-path="url(#clip0)" fill="#C49378"><path d="M5.934 14.524c-1.92 0-3.48-1.547-3.48-3.448s1.56-3.449 3.48-3.449c1.919 0 3.48 1.547 3.48 3.449 0 1.901-1.561 3.448-3.48 3.448zm0-5.929c-1.386 0-2.513 1.113-2.513 2.48 0 1.368 1.127 2.481 2.513 2.481 1.385 0 2.512-1.113 2.512-2.48 0-1.368-1.127-2.48-2.512-2.48zm1.4 15.475h-6.07A1.262 1.262 0 010 22.815v-1.583c0-3.24 2.662-5.876 5.934-5.876a5.93 5.93 0 013.542 1.161.484.484 0 01-.575.78 4.962 4.962 0 00-2.967-.973c-2.738 0-4.966 2.202-4.966 4.908v1.583c0 .16.133.29.297.29h6.07a.484.484 0 010 .967zm21.401-.366h-6.07a.484.484 0 010-.967h6.07c.164 0 .297-.13.297-.29v-1.582c0-2.707-2.228-4.908-4.966-4.908-1.144 0-2.26.393-3.144 1.109a.484.484 0 11-.61-.752 5.983 5.983 0 013.754-1.325c3.272 0 5.934 2.636 5.934 5.876v1.583c0 .693-.567 1.256-1.265 1.256zm-4.669-9.42c-1.92 0-3.48-1.546-3.48-3.448 0-1.9 1.56-3.448 3.48-3.448s3.48 1.547 3.48 3.448c0 1.902-1.561 3.448-3.48 3.448zm0-5.928c-1.385 0-2.512 1.113-2.512 2.48 0 1.368 1.127 2.48 2.512 2.48 1.386 0 2.513-1.112 2.513-2.48 0-1.367-1.128-2.48-2.513-2.48z"/><path d="M21.567 25.645H8.433a1.578 1.578 0 01-1.582-1.57v-2.226c0-4.45 3.655-8.069 8.15-8.069 4.493 0 8.149 3.62 8.149 8.069v2.226c0 .866-.71 1.57-1.583 1.57zM15 14.748c-3.96 0-7.182 3.186-7.182 7.1v2.227a.61.61 0 00.615.603h13.134a.61.61 0 00.615-.603v-2.226c0-3.915-3.222-7.1-7.182-7.1zm-.168-1.533c-2.466 0-4.472-1.987-4.472-4.43 0-2.443 2.006-4.43 4.472-4.43 2.466 0 4.472 1.987 4.472 4.43 0 2.443-2.006 4.43-4.472 4.43zm0-7.892c-1.932 0-3.504 1.553-3.504 3.462 0 1.91 1.572 3.462 3.504 3.462s3.504-1.553 3.504-3.462c0-1.91-1.572-3.462-3.504-3.462z"/></g><defs><clipPath id="clip0"><path fill="#fff" d="M0 0h30v30H0z"/></clipPath></defs></svg>