<svg width="30" height="30" fill="none" xmlns="http://www.w3.org/2000/svg"><path d="M15 27.743v-1.216c7.257 0 13.382-3.066 13.382-6.691 0-1.85-1.6-3.644-4.392-4.927l.505-1.107c3.242 1.49 5.104 3.692 5.104 6.034 0 4.434-6.412 7.907-14.599 7.907zm-2.488-.109C5.492 26.989.402 23.71.402 19.836c0-2.92 2.907-5.584 7.59-6.953l.341 1.168c-4.142 1.21-6.715 3.43-6.715 5.785 0 3.181 4.732 6.01 11.004 6.581l-.11 1.217z" fill="#C49378"/><path d="M15 23.485c-4.27 0-7.75-3.473-7.75-7.749C7.25 9.878 14.227.979 14.52.602L15 0l.474.602c.298.377 7.275 9.276 7.275 15.134 0 4.276-3.48 7.75-7.75 7.75zm0-21.502c-1.582 2.129-6.533 9.16-6.533 13.753A6.542 6.542 0 0015 22.269c3.6 0 6.533-2.932 6.533-6.533 0-4.592-4.952-11.624-6.533-13.753z" fill="#C49378"/><path d="M19.258 16.794c-2.147 0-4.258-2.11-4.258-4.257h1.216c0 1.478 1.564 3.041 3.042 3.041v1.216z" fill="#C49378"/><path d="M11.959 16.794v-1.216c1.478 0 3.04-1.563 3.04-3.041h1.217c0 2.147-2.11 4.257-4.258 4.257z" fill="#C49378"/><path d="M16.216 19.836H15c0-1.478-1.563-3.041-3.041-3.041v-1.217c2.147 0 4.257 2.11 4.257 4.258z" fill="#C49378"/><path d="M16.216 19.836H15c0-2.147 2.11-4.258 4.258-4.258v1.217c-1.478 0-3.041 1.563-3.041 3.041zM17.001 30l-2.859-2.865 2.859-2.865.864.864-2.008 2.001 2.008 2.001L17 30z" fill="#C49378"/></svg>