<svg width="24" height="24" fill="none" xmlns="http://www.w3.org/2000/svg"><rect y="3" width="24" height="17" rx="2" fill="#fff"/><mask id="a" maskUnits="userSpaceOnUse" x="0" y="3" width="24" height="17"><rect y="3" width="24" height="17" rx="2" fill="#fff"/></mask><g mask="url(#a)"><path fill="#30C6E0" d="M0 3h24v17H0z"/><path fill-rule="evenodd" clip-rule="evenodd" d="M12 14.9c1.893 0 3.428-1.523 3.428-3.4 0-1.878-1.535-3.4-3.428-3.4-1.894 0-3.429 1.522-3.429 3.4 0 1.877 1.535 3.4 3.429 3.4z" fill="#FFCD4B"/><path fill-rule="evenodd" clip-rule="evenodd" d="M10.601 17.577l1.4-2.07 1.398 2.07.354-2.467 2.166 1.263-.76-2.375 2.504.206-1.724-1.813 2.347-.891-2.347-.892 1.724-1.813-2.504.207.76-2.376-2.166 1.264-.354-2.467L12 7.493l-1.399-2.07-.354 2.467-2.166-1.264.76 2.376-2.504-.207 1.724 1.813-2.347.892 2.347.891-1.724 1.813 2.504-.206-.76 2.375 2.166-1.263.354 2.467zm5.4-6.077c0 2.19-1.792 3.967-4 3.967-2.21 0-4-1.776-4-3.967 0-2.19 1.79-3.967 4-3.967 2.208 0 4 1.776 4 3.967zM1.143 4.467c0-.184.15-.333.333-.333h.477c.184 0 .333.149.333.333v.467c0 .184-.15.333-.333.333h-.477a.333.333 0 01-.333-.333v-.467zm0 2.267c0-.184.15-.334.333-.334h.477c.184 0 .333.15.333.334V7.2c0 .185-.15.334-.333.334h-.477a.333.333 0 01-.333-.334v-.466zm.333 1.933A.333.333 0 001.143 9v.467c0 .184.15.333.333.333h.477a.333.333 0 00.333-.333V9a.333.333 0 00-.333-.333h-.477zm-.333 2.6c0-.184.15-.333.333-.333h.477c.184 0 .333.149.333.333v.467c0 .184-.15.333-.333.333h-.477a.333.333 0 01-.333-.333v-.467zm.333 1.934a.333.333 0 00-.333.333V14c0 .185.15.334.333.334h.477c.184 0 .333-.15.333-.333v-.467a.333.333 0 00-.333-.334h-.477zm-.333 2.6c0-.185.15-.334.333-.334h.477c.184 0 .333.15.333.333v.467c0 .184-.15.334-.333.334h-.477a.333.333 0 01-.333-.334v-.466zm.333 1.933a.333.333 0 00-.333.333v.467c0 .184.15.333.333.333h.477c.184 0 .333-.15.333-.333v-.467a.333.333 0 00-.333-.333h-.477zm.81-.8c0-.184.15-.334.333-.334h.476c.185 0 .334.15.334.334v.466c0 .185-.15.334-.334.334H2.62a.333.333 0 01-.333-.334v-.466zm.333-2.6a.333.333 0 00-.333.333v.467c0 .184.15.333.333.333h.476c.185 0 .334-.15.334-.333v-.467a.333.333 0 00-.334-.333H2.62zM2.286 12.4c0-.184.15-.333.333-.333h.476c.185 0 .334.15.334.333v.467c0 .184-.15.333-.334.333H2.62a.333.333 0 01-.333-.333V12.4zm.333-2.6a.333.333 0 00-.333.334v.466c0 .185.15.334.333.334h.476c.185 0 .334-.15.334-.333v-.467a.333.333 0 00-.334-.334H2.62zm-.333-1.933c0-.184.15-.333.333-.333h.476c.185 0 .334.149.334.333v.467c0 .184-.15.333-.334.333H2.62a.333.333 0 01-.333-.333v-.467zm.333-2.6a.333.333 0 00-.333.333v.467c0 .184.15.333.333.333h.476a.333.333 0 00.334-.333V5.6a.333.333 0 00-.334-.333H2.62z" fill="#FFCD4B"/></g></svg>