<svg width="132" height="128" fill="none" xmlns="http://www.w3.org/2000/svg"><path d="M69.69 105.75h-2.92V91.84h2.92v13.91zM58.81 93.07c-.99-.81-2.4-1.22-4.21-1.22h-8.38v13.91h2.92l.01-4.61h5.46c1.81 0 3.22-.41 4.21-1.22.99-.81 1.49-1.96 1.49-3.43-.01-1.48-.51-2.62-1.5-3.43zm-2.1 5.06c-.44.39-1.07.59-1.88.59h-5.7v-4.45h5.7c.81 0 1.43.2 1.88.59.44.39.67.94.67 1.64 0 .69-.22 1.24-.67 1.63zm19.84-6.29v2.43h5.96v11.48h2.92V94.27h5.96v-2.43H76.55zm45.11 11.47V91.84h-2.92v13.91h12.33v-2.42l-9.41-.02zM31.7 91.84l-6.91 13.91h-3.06l7.26-13.91h2.71z" fill="#fff"/><path d="M31.99 91.84l7.26 13.91h-3.06l-6.91-13.91h2.71z" fill="#fff"/><path d="M35.43 99.76h-9.95v2.43h9.95v-2.43zm69.64-7.92l-6.91 13.91H95.1l7.26-13.91h2.71z" fill="#fff"/><path d="M105.35 91.84l7.26 13.91h-3.06l-6.91-13.91h2.71z" fill="#fff"/><path d="M108.8 99.76h-9.95v2.43h9.95v-2.43zm-94.16 1.31c-.38 1.27-1.67 2.21-3.19 2.21H6.02c-1.83 0-3.31-1.34-3.31-3v-3.01c0-1.65 1.49-3 3.31-3h5.43c1.46 0 2.7.86 3.14 2.05l2.43-1.22c-.9-2.07-3.06-3.54-5.57-3.54H6.02C2.7 91.56 0 94.12 0 97.27v3.01c0 3.15 2.7 5.71 6.02 5.71h5.43c2.57 0 4.77-1.54 5.63-3.69l-2.44-1.23zm42.48 19.19v6.07h4.98v1.28h-6.52v-7.35h1.54zm16.67 4.16v-4.16h1.54v4.38c0 1.01-.34 1.77-1.02 2.3-.68.52-1.65.78-2.89.78-1.25 0-2.21-.26-2.89-.78-.68-.52-1.02-1.29-1.02-2.3v-4.38h1.54v4.16c0 1.34.79 2.02 2.37 2.02s2.37-.67 2.37-2.02zm13.4-.66c1.14.3 1.71.92 1.71 1.87 0 .6-.26 1.08-.77 1.44-.51.36-1.22.54-2.11.54h-4.61v-7.35h4.72c.78 0 1.39.17 1.83.5.44.34.66.8.66 1.4 0 .71-.47 1.24-1.43 1.6zm-1.2-2.23h-3.03v1.78h2.91c.36 0 .64-.09.84-.26.2-.17.3-.4.3-.68 0-.27-.09-.47-.27-.62-.17-.14-.42-.22-.75-.22zm-3.03 4.81h3.13c.39 0 .68-.08.89-.25.21-.17.32-.41.32-.71 0-.27-.11-.49-.33-.66-.22-.16-.52-.25-.91-.25h-3.1v1.87zm-33.53-1.02c-.2.68-.89 1.17-1.7 1.17h-2.37c-.97 0-1.76-.71-1.76-1.59v-1.6c0-.88.79-1.59 1.76-1.59h2.37c.78 0 1.44.46 1.67 1.09l1.29-.65c-.48-1.1-1.63-1.88-2.96-1.88h-2.37c-1.77 0-3.2 1.36-3.2 3.03v1.6c0 1.67 1.44 3.03 3.2 3.03h2.37c1.37 0 2.53-.82 2.99-1.96l-1.29-.65z" fill="#fff"/><path d="M92.55 22.09c-.05-.14-.09-.29-.12-.44-.8-4.42-3.97-8.04-8.16-9.56v6.25c1.38 1.03 2.43 2.37 2.68 4.11.01.04.02.25.02.28V26c0 .03.03.06.06.06h5.52v-3.97z" fill="url(#paint0_linear)"/><path d="M81.86 20.34v-9.88c0-3.85-2.24-7.22-5.56-9.02a11.57 11.57 0 00-5.55-1.4S67.21 0 66.03 0c-1.14 0-4.57.04-4.57.04-5.6 0-10.49 3.9-11.25 8.96h5.71c.71-1.97 3.06-3.52 5.54-3.52 0 0 3.42-.04 4.57-.04 1.18 0 4.72.04 4.72.04 2.99 0 5.44 2.21 5.54 4.81v11.32c0 .1-.01.19-.03.28v4.25h5.6v-5.8z" fill="url(#paint1_linear)"/><path d="M38.52 41.62c0 6.18 4.25 11.32 10.22 12.35.11.02.66.07.93.1.1.01.21.01-.02.01h24.23v-5.69l-23.79-.01c-.49 0-.97-.07-1.43-.25-2.68-1.01-4.59-3.55-4.59-6.51V23.87c0-2.96 1.91-5.49 4.59-6.51.45-.17.94-.25 1.43-.25l23.79-.01v-5.69H49.65c.23 0 .13 0 .02.01-.27.03-.83.08-.93.1-5.97 1.02-10.22 6.17-10.22 12.35v17.75z" fill="url(#paint2_linear)"/><path d="M92.55 39.43h-5.52c-.03 0-.06.03-.06.06v3.27c0 .03-.01.24-.02.28-.25 1.74-1.3 3.07-2.68 4.11v6.25c4.19-1.51 7.36-5.14 8.16-9.56.03-.15.07-.29.12-.44v-3.97z" fill="url(#paint3_linear)"/><path d="M81.87 39.35h-5.48v7.7h-.09v8.16c-.11 2.6-2.55 4.81-5.54 4.81 0 0-3.54.04-4.72.04-1.14 0-4.57-.04-4.57-.04-2.48 0-4.83-1.55-5.54-3.52h-5.71c.76 5.06 5.65 8.96 11.25 8.96 0 0 3.43.04 4.57.04 1.18 0 4.72-.04 4.72-.04 2.02 0 3.92-.51 5.55-1.4 3.32-1.8 5.56-5.17 5.56-9.02v-9.88h.01v-5.81h-.01z" fill="url(#paint4_linear)"/><path d="M55.93 19.52h-5.71v26.45h5.71V19.52z" fill="url(#paint5_linear)"/><defs><linearGradient id="paint0_linear" x1="36.446" y1="71.049" x2="237.421" y2="-129.926" gradientUnits="userSpaceOnUse"><stop stop-color="#7C4A28"/><stop offset=".025" stop-color="#8D5D3C"/><stop offset=".065" stop-color="#A27555"/><stop offset=".101" stop-color="#AF8465"/><stop offset=".13" stop-color="#B3896A"/><stop offset=".27" stop-color="#DBC0A5"/><stop offset=".347" stop-color="#E0C5AA"/><stop offset=".429" stop-color="#EDD2B6"/><stop offset=".579" stop-color="#EAD2BC"/><stop offset=".681" stop-color="#E6D3C4"/><stop offset=".734" stop-color="#E4D0C1"/><stop offset=".779" stop-color="#DDC7B6"/><stop offset=".822" stop-color="#D1B7A4"/><stop offset=".862" stop-color="#C1A18C"/><stop offset=".902" stop-color="#AB856C"/><stop offset=".902" stop-color="#AB846B"/><stop offset="1" stop-color="#845736"/></linearGradient><linearGradient id="paint1_linear" x1="23.84" y1="58.443" x2="224.815" y2="-142.532" gradientUnits="userSpaceOnUse"><stop stop-color="#7C4A28"/><stop offset=".025" stop-color="#8D5D3C"/><stop offset=".065" stop-color="#A27555"/><stop offset=".101" stop-color="#AF8465"/><stop offset=".13" stop-color="#B3896A"/><stop offset=".27" stop-color="#DBC0A5"/><stop offset=".347" stop-color="#E0C5AA"/><stop offset=".429" stop-color="#EDD2B6"/><stop offset=".579" stop-color="#EAD2BC"/><stop offset=".681" stop-color="#E6D3C4"/><stop offset=".734" stop-color="#E4D0C1"/><stop offset=".779" stop-color="#DDC7B6"/><stop offset=".822" stop-color="#D1B7A4"/><stop offset=".862" stop-color="#C1A18C"/><stop offset=".902" stop-color="#AB856C"/><stop offset=".902" stop-color="#AB846B"/><stop offset="1" stop-color="#845736"/></linearGradient><linearGradient id="paint2_linear" x1="28.957" y1="63.561" x2="229.932" y2="-137.415" gradientUnits="userSpaceOnUse"><stop stop-color="#7C4A28"/><stop offset=".025" stop-color="#8D5D3C"/><stop offset=".065" stop-color="#A27555"/><stop offset=".101" stop-color="#AF8465"/><stop offset=".13" stop-color="#B3896A"/><stop offset=".27" stop-color="#DBC0A5"/><stop offset=".347" stop-color="#E0C5AA"/><stop offset=".429" stop-color="#EDD2B6"/><stop offset=".579" stop-color="#EAD2BC"/><stop offset=".681" stop-color="#E6D3C4"/><stop offset=".734" stop-color="#E4D0C1"/><stop offset=".779" stop-color="#DDC7B6"/><stop offset=".822" stop-color="#D1B7A4"/><stop offset=".862" stop-color="#C1A18C"/><stop offset=".902" stop-color="#AB856C"/><stop offset=".902" stop-color="#AB846B"/><stop offset="1" stop-color="#845736"/></linearGradient><linearGradient id="paint3_linear" x1="49.154" y1="83.757" x2="250.129" y2="-117.218" gradientUnits="userSpaceOnUse"><stop stop-color="#7C4A28"/><stop offset=".025" stop-color="#8D5D3C"/><stop offset=".065" stop-color="#A27555"/><stop offset=".101" stop-color="#AF8465"/><stop offset=".13" stop-color="#B3896A"/><stop offset=".27" stop-color="#DBC0A5"/><stop offset=".347" stop-color="#E0C5AA"/><stop offset=".429" stop-color="#EDD2B6"/><stop offset=".579" stop-color="#EAD2BC"/><stop offset=".681" stop-color="#E6D3C4"/><stop offset=".734" stop-color="#E4D0C1"/><stop offset=".779" stop-color="#DDC7B6"/><stop offset=".822" stop-color="#D1B7A4"/><stop offset=".862" stop-color="#C1A18C"/><stop offset=".902" stop-color="#AB856C"/><stop offset=".902" stop-color="#AB846B"/><stop offset="1" stop-color="#845736"/></linearGradient><linearGradient id="paint4_linear" x1="44.626" y1="79.229" x2="245.601" y2="-121.747" gradientUnits="userSpaceOnUse"><stop stop-color="#7C4A28"/><stop offset=".025" stop-color="#8D5D3C"/><stop offset=".065" stop-color="#A27555"/><stop offset=".101" stop-color="#AF8465"/><stop offset=".13" stop-color="#B3896A"/><stop offset=".27" stop-color="#DBC0A5"/><stop offset=".347" stop-color="#E0C5AA"/><stop offset=".429" stop-color="#EDD2B6"/><stop offset=".579" stop-color="#EAD2BC"/><stop offset=".681" stop-color="#E6D3C4"/><stop offset=".734" stop-color="#E4D0C1"/><stop offset=".779" stop-color="#DDC7B6"/><stop offset=".822" stop-color="#D1B7A4"/><stop offset=".862" stop-color="#C1A18C"/><stop offset=".902" stop-color="#AB856C"/><stop offset=".902" stop-color="#AB846B"/><stop offset="1" stop-color="#845736"/></linearGradient><linearGradient id="paint5_linear" x1="25.608" y1="60.211" x2="226.584" y2="-140.764" gradientUnits="userSpaceOnUse"><stop stop-color="#7C4A28"/><stop offset=".025" stop-color="#8D5D3C"/><stop offset=".065" stop-color="#A27555"/><stop offset=".101" stop-color="#AF8465"/><stop offset=".13" stop-color="#B3896A"/><stop offset=".27" stop-color="#DBC0A5"/><stop offset=".347" stop-color="#E0C5AA"/><stop offset=".429" stop-color="#EDD2B6"/><stop offset=".579" stop-color="#EAD2BC"/><stop offset=".681" stop-color="#E6D3C4"/><stop offset=".734" stop-color="#E4D0C1"/><stop offset=".779" stop-color="#DDC7B6"/><stop offset=".822" stop-color="#D1B7A4"/><stop offset=".862" stop-color="#C1A18C"/><stop offset=".902" stop-color="#AB856C"/><stop offset=".902" stop-color="#AB846B"/><stop offset="1" stop-color="#845736"/></linearGradient></defs></svg>