<svg width="42" height="50" fill="none" xmlns="http://www.w3.org/2000/svg"><path d="M41.244 16.863a2.428 2.428 0 01-.091-.336c-.61-3.374-3.03-6.138-6.23-7.298V14c1.054.786 1.856 1.81 2.047 3.137.007.03.015.191.015.214v2.496a.05.05 0 00.046.046h4.213v-3.03z" fill="url(#paint0_linear)"/><path d="M33.084 15.527V7.985c0-2.94-1.71-5.512-4.244-6.886A8.832 8.832 0 0024.603.031S21.901 0 21 0c-.87 0-3.488.03-3.488.03-4.275 0-8.008 2.978-8.588 6.84h4.359c.542-1.504 2.335-2.687 4.229-2.687 0 0 2.61-.03 3.488-.03.9 0 3.603.03 3.603.03 2.283 0 4.153 1.687 4.23 3.672v8.641a.964.964 0 01-.024.214v3.244h4.275v-4.427z" fill="url(#paint1_linear)"/><path d="M0 31.771c0 4.718 3.244 8.641 7.802 9.428.084.015.503.053.71.076.076.008.16.008-.016.008h18.496v-4.344l-18.16-.008c-.374 0-.74-.053-1.092-.19-2.045-.772-3.503-2.71-3.503-4.97v-13.55c0-2.26 1.458-4.19 3.503-4.97.344-.129.718-.19 1.092-.19l18.16-.008V8.71H8.496c.176 0 .1 0 .015.008-.206.023-.633.06-.71.076C3.245 9.573 0 13.504 0 18.22v13.55z" fill="url(#paint2_linear)"/><path d="M41.244 30.1h-4.213a.05.05 0 00-.046.045v2.496c0 .023-.008.183-.015.214-.191 1.328-.993 2.343-2.046 3.137v4.771c3.198-1.152 5.618-3.923 6.229-7.297.023-.115.053-.222.091-.336V30.1z" fill="url(#paint3_linear)"/><path d="M33.092 30.038h-4.184v5.878h-.069v6.229c-.083 1.985-1.946 3.672-4.229 3.672 0 0-2.702.03-3.602.03-.87 0-3.49-.03-3.49-.03-1.892 0-3.686-1.184-4.228-2.687H8.93c.58 3.862 4.313 6.84 8.588 6.84 0 0 2.618.03 3.489.03.9 0 3.602-.03 3.602-.03 1.543 0 2.993-.39 4.237-1.07 2.534-1.373 4.245-3.946 4.245-6.885v-7.542h.007v-4.435h-.007z" fill="url(#paint4_linear)"/><path d="M13.29 14.9H8.93v20.192h4.359V14.9z" fill="url(#paint5_linear)"/><defs><linearGradient id="paint0_linear" x1="-1.583" y1="54.236" x2="151.833" y2="-99.18" gradientUnits="userSpaceOnUse"><stop stop-color="#7C4A28"/><stop offset=".025" stop-color="#8D5D3C"/><stop offset=".065" stop-color="#A27555"/><stop offset=".101" stop-color="#AF8465"/><stop offset=".13" stop-color="#B3896A"/><stop offset=".27" stop-color="#DBC0A5"/><stop offset=".347" stop-color="#E0C5AA"/><stop offset=".429" stop-color="#EDD2B6"/><stop offset=".579" stop-color="#EAD2BC"/><stop offset=".681" stop-color="#E6D3C4"/><stop offset=".734" stop-color="#E4D0C1"/><stop offset=".779" stop-color="#DDC7B6"/><stop offset=".822" stop-color="#D1B7A4"/><stop offset=".862" stop-color="#C1A18C"/><stop offset=".902" stop-color="#AB856C"/><stop offset=".902" stop-color="#AB846B"/><stop offset="1" stop-color="#845736"/></linearGradient><linearGradient id="paint1_linear" x1="-11.206" y1="44.613" x2="142.21" y2="-108.803" gradientUnits="userSpaceOnUse"><stop stop-color="#7C4A28"/><stop offset=".025" stop-color="#8D5D3C"/><stop offset=".065" stop-color="#A27555"/><stop offset=".101" stop-color="#AF8465"/><stop offset=".13" stop-color="#B3896A"/><stop offset=".27" stop-color="#DBC0A5"/><stop offset=".347" stop-color="#E0C5AA"/><stop offset=".429" stop-color="#EDD2B6"/><stop offset=".579" stop-color="#EAD2BC"/><stop offset=".681" stop-color="#E6D3C4"/><stop offset=".734" stop-color="#E4D0C1"/><stop offset=".779" stop-color="#DDC7B6"/><stop offset=".822" stop-color="#D1B7A4"/><stop offset=".862" stop-color="#C1A18C"/><stop offset=".902" stop-color="#AB856C"/><stop offset=".902" stop-color="#AB846B"/><stop offset="1" stop-color="#845736"/></linearGradient><linearGradient id="paint2_linear" x1="-7.3" y1="48.52" x2="146.116" y2="-104.897" gradientUnits="userSpaceOnUse"><stop stop-color="#7C4A28"/><stop offset=".025" stop-color="#8D5D3C"/><stop offset=".065" stop-color="#A27555"/><stop offset=".101" stop-color="#AF8465"/><stop offset=".13" stop-color="#B3896A"/><stop offset=".27" stop-color="#DBC0A5"/><stop offset=".347" stop-color="#E0C5AA"/><stop offset=".429" stop-color="#EDD2B6"/><stop offset=".579" stop-color="#EAD2BC"/><stop offset=".681" stop-color="#E6D3C4"/><stop offset=".734" stop-color="#E4D0C1"/><stop offset=".779" stop-color="#DDC7B6"/><stop offset=".822" stop-color="#D1B7A4"/><stop offset=".862" stop-color="#C1A18C"/><stop offset=".902" stop-color="#AB856C"/><stop offset=".902" stop-color="#AB846B"/><stop offset="1" stop-color="#845736"/></linearGradient><linearGradient id="paint3_linear" x1="8.118" y1="63.937" x2="161.534" y2="-89.479" gradientUnits="userSpaceOnUse"><stop stop-color="#7C4A28"/><stop offset=".025" stop-color="#8D5D3C"/><stop offset=".065" stop-color="#A27555"/><stop offset=".101" stop-color="#AF8465"/><stop offset=".13" stop-color="#B3896A"/><stop offset=".27" stop-color="#DBC0A5"/><stop offset=".347" stop-color="#E0C5AA"/><stop offset=".429" stop-color="#EDD2B6"/><stop offset=".579" stop-color="#EAD2BC"/><stop offset=".681" stop-color="#E6D3C4"/><stop offset=".734" stop-color="#E4D0C1"/><stop offset=".779" stop-color="#DDC7B6"/><stop offset=".822" stop-color="#D1B7A4"/><stop offset=".862" stop-color="#C1A18C"/><stop offset=".902" stop-color="#AB856C"/><stop offset=".902" stop-color="#AB846B"/><stop offset="1" stop-color="#845736"/></linearGradient><linearGradient id="paint4_linear" x1="4.661" y1="60.48" x2="158.077" y2="-92.936" gradientUnits="userSpaceOnUse"><stop stop-color="#7C4A28"/><stop offset=".025" stop-color="#8D5D3C"/><stop offset=".065" stop-color="#A27555"/><stop offset=".101" stop-color="#AF8465"/><stop offset=".13" stop-color="#B3896A"/><stop offset=".27" stop-color="#DBC0A5"/><stop offset=".347" stop-color="#E0C5AA"/><stop offset=".429" stop-color="#EDD2B6"/><stop offset=".579" stop-color="#EAD2BC"/><stop offset=".681" stop-color="#E6D3C4"/><stop offset=".734" stop-color="#E4D0C1"/><stop offset=".779" stop-color="#DDC7B6"/><stop offset=".822" stop-color="#D1B7A4"/><stop offset=".862" stop-color="#C1A18C"/><stop offset=".902" stop-color="#AB856C"/><stop offset=".902" stop-color="#AB846B"/><stop offset="1" stop-color="#845736"/></linearGradient><linearGradient id="paint5_linear" x1="-9.856" y1="45.963" x2="143.56" y2="-107.453" gradientUnits="userSpaceOnUse"><stop stop-color="#7C4A28"/><stop offset=".025" stop-color="#8D5D3C"/><stop offset=".065" stop-color="#A27555"/><stop offset=".101" stop-color="#AF8465"/><stop offset=".13" stop-color="#B3896A"/><stop offset=".27" stop-color="#DBC0A5"/><stop offset=".347" stop-color="#E0C5AA"/><stop offset=".429" stop-color="#EDD2B6"/><stop offset=".579" stop-color="#EAD2BC"/><stop offset=".681" stop-color="#E6D3C4"/><stop offset=".734" stop-color="#E4D0C1"/><stop offset=".779" stop-color="#DDC7B6"/><stop offset=".822" stop-color="#D1B7A4"/><stop offset=".862" stop-color="#C1A18C"/><stop offset=".902" stop-color="#AB856C"/><stop offset=".902" stop-color="#AB846B"/><stop offset="1" stop-color="#845736"/></linearGradient></defs></svg>