<svg width="605" height="495" fill="none" xmlns="http://www.w3.org/2000/svg"><path fill-rule="evenodd" clip-rule="evenodd" d="M330.352 465.954C207.094 453.421 105.073 363.113 60.37 248 15.667 132.887 183.974 34.828 305.198 29.21 426.421 23.592 520 131.297 520 253.974s-66.389 224.513-189.648 211.98z" fill="#FFE5D2"/><path fill-rule="evenodd" clip-rule="evenodd" d="M482.001 343.694c.101-.059.729.771 1.659 2.405.933 1.628 2.094 4.101 3.173 7.293 2.212 6.361 3.6 15.75 2.777 25.991-.816 10.239-3.183 19.226-5.009 25.624-1.868 6.4-3.243 10.285-3.48 10.22-.262-.072.666-4.092 2.199-10.555 1.494-6.462 3.625-15.402 4.423-25.431.803-10.026-.339-19.152-2.174-25.461-1.783-6.34-3.862-9.934-3.568-10.086zm6.309-51.244c.117-.052.878 1.339 2.146 3.905a361.625 361.625 0 015.155 10.971c4.179 9.331 9.804 22.393 13.884 37.558 2.005 7.586 3.372 14.961 4.064 21.733.698 6.771.769 12.923.42 18.058-.338 5.137-.987 9.259-1.611 12.062-.617 2.808-1.106 4.321-1.216 4.296-.347-.067 1.181-6.249 1.505-16.42.404-10.15-.929-24.252-4.972-39.246-4.033-15-9.428-28.069-13.29-37.517-1.944-4.727-3.516-8.553-4.605-11.198-1.063-2.656-1.598-4.149-1.48-4.202zm-233.477 60.145c.217.233-1.906 2.258-4.661 6.017-.684.945-1.427 1.978-2.122 3.158-.76 1.136-1.421 2.44-2.157 3.786-1.368 2.745-2.666 5.864-3.668 9.259-.958 3.408-1.516 6.74-1.817 9.792-.092 1.531-.225 2.987-.187 4.353-.038 1.369.041 2.64.117 3.804.334 4.648 1.056 7.492.748 7.575-.187.064-1.375-2.683-2.064-7.44-.165-1.188-.323-2.494-.353-3.907-.106-1.411-.03-2.921.018-4.511.215-3.17.744-6.646 1.74-10.183a50.158 50.158 0 013.943-9.55c.804-1.373 1.541-2.692 2.383-3.83.776-1.182 1.605-2.203 2.377-3.122 3.113-3.661 5.581-5.354 5.703-5.201zm4.983 16.406c.157.251-1.026 1.156-2.571 2.886-.782.855-1.606 1.962-2.417 3.246a25.127 25.127 0 00-2.105 4.454 24.982 24.982 0 00-1.088 4.806c-.154 1.51-.188 2.889-.098 4.046.15 2.314.525 3.757.245 3.858-.2.084-1.042-1.236-1.557-3.682-.269-1.22-.379-2.713-.309-4.367a20.936 20.936 0 011.036-5.271 20.935 20.935 0 012.434-4.79c.963-1.346 1.972-2.452 2.934-3.247 1.913-1.61 3.39-2.131 3.496-1.939zm-69.171-152.894c.097-.084.935.74 2.372 2.313a36.045 36.045 0 012.506 2.966c.923 1.198 2.032 2.528 3.073 4.126l1.687 2.476c.58.867 1.106 1.815 1.692 2.773 1.199 1.903 2.274 4.05 3.443 6.29 2.208 4.545 4.319 9.702 6 15.293 1.627 5.607 2.66 11.085 3.277 16.098.236 2.517.5 4.904.527 7.151.029 1.123.103 2.205.086 3.249l-.069 2.994c-.006 1.91-.214 3.627-.337 5.135a35.939 35.939 0 01-.492 3.85c-.351 2.102-.606 3.25-.734 3.232-.33-.044.291-4.702.24-12.231-.018-.942-.034-1.925-.052-2.953-.022-1.026-.131-2.091-.192-3.194-.093-2.209-.412-4.551-.688-7.019-.702-4.915-1.765-10.277-3.362-15.78-1.651-5.488-3.672-10.568-5.756-15.075-1.107-2.221-2.114-4.361-3.236-6.266-.549-.959-1.037-1.912-1.575-2.785-.544-.871-1.064-1.707-1.561-2.506-4.049-6.348-7.104-9.92-6.849-10.137zm21.2 8.772c.159-.142 2.309 1.869 5.044 5.746 1.376 1.93 2.826 4.362 4.238 7.166a64.01 64.01 0 013.722 9.505 64.049 64.049 0 012.04 10.003c.338 3.122.443 5.95.335 8.319-.189 4.739-.902 7.596-1.111 7.564-.302-.037-.06-2.93-.213-7.566-.061-2.316-.3-5.067-.721-8.092a77.455 77.455 0 00-2.124-9.697 77.406 77.406 0 00-3.486-9.295c-1.29-2.77-2.585-5.208-3.792-7.187-2.391-3.974-4.164-6.271-3.932-6.466z" fill="#fff"/><path fill-rule="evenodd" clip-rule="evenodd" d="M137.611 378.076l-1.63-3.327-45.37 34.665 19.794 32.066 45.162-38.079-17.956-25.325z" fill="#FF7B5B"/><path fill-rule="evenodd" clip-rule="evenodd" d="M92.513 410.156l17.388 30.07 1.112-.496-15.485-28.116-3.015-1.458z" fill="#D7D4D4"/><path fill-rule="evenodd" clip-rule="evenodd" d="M136.715 377.418l-44.202 32.737s.185.703 1.282 1.137c1.098.433 1.733.322 1.733.322L142 379.809s-2.679-.623-3.651-1.347c-.972-.728-1.633-1.044-1.633-1.044z" fill="#F5F3F3"/><path fill-rule="evenodd" clip-rule="evenodd" d="M143.135 378.526l-48.437 32.353 15.732 29.815 2.534 4.129 48.438-35.85s-5.101-7.615-8.164-12.212c-3.064-4.598-9.077-15.44-9.404-16.135-.328-.695-.699-2.1-.699-2.1z" fill="#FF7B5B"/><path fill-rule="evenodd" clip-rule="evenodd" d="M542.58 155.166l1.368-2.795 38.098 29.11-16.621 26.927-37.924-31.977 15.079-21.265z" fill="#775298"/><path fill-rule="evenodd" clip-rule="evenodd" d="M580.45 182.104l-14.6 25.251-.935-.416 13.003-23.61 2.532-1.225z" fill="#D7D4D4"/><path fill-rule="evenodd" clip-rule="evenodd" d="M543.333 154.612l37.117 27.491s-.156.59-1.076.954c-.923.364-1.457.271-1.457.271l-39.022-26.708s2.249-.522 3.066-1.132c.816-.61 1.372-.876 1.372-.876z" fill="#F5F3F3"/><path fill-rule="evenodd" clip-rule="evenodd" d="M537.941 155.544l40.674 27.167-13.209 25.037-2.129 3.466-40.676-30.104s4.285-6.395 6.856-10.255c2.574-3.861 7.623-12.966 7.897-13.549.275-.582.587-1.762.587-1.762z" fill="#775298"/><path fill-rule="evenodd" clip-rule="evenodd" d="M83.445 102.772s-2.876 1.991-1.439 5.311c1.44 3.319 7.745 13.165 16.264 12.833.35-.012-10.732-18.144-10.732-18.144h-4.093z" fill="#FF7B5B"/><path fill-rule="evenodd" clip-rule="evenodd" d="M70.413 284.294s-10.653-9.517-14.063-7.812c-4.167 2.083-28.017 25.451-27.085 36.46.383 4.509 5.632.646 14.985-9.056 9.355-9.701 21.135-5.543 21.135-5.543l5.028-14.049zm25.882 16.049l-12.86-7.715S50.1 323.88 55.308 328.047c3.95 3.16 6.272.326 15.627-9.376 9.352-9.699 21.203-4.122 21.203-4.122l4.157-14.206z" fill="#775298"/><path fill-rule="evenodd" clip-rule="evenodd" d="M174.854 197.526l2.412 34.245-53.535-13.946 51.123-20.299z" fill="#F3A683"/><path fill-rule="evenodd" clip-rule="evenodd" d="M123.731 219.003s46.828 2.952 53.063.871c0 0 9.152 89.903-7.132 99.602-16.284 9.702-52.827-4.504-52.827-4.504l9.867-19.401 21.273-1.386V259.54l-1.526.346-22.718-40.883z" fill="#112129"/><path fill-rule="evenodd" clip-rule="evenodd" d="M65.032 280.327s-11.778 4.851-7.967 16.631c0 0 40.206 31.527 59.771 24.251 10.961-4.076 22.735-35.174 30.972-61.743l28.987-39.592s-13.671.684-18.232.666c-8.717-.033-34.831-1.537-34.831-1.537s-13.641 71.372-18.502 73.104c-4.86 1.731-40.198-11.78-40.198-11.78z" fill="#22343D"/><path fill-rule="evenodd" clip-rule="evenodd" d="M134.644 129.487s28.064-26.332 32.913-33.262c4.85-6.93 15.247-30.142 28.062-39.842l-6.235-13.166s3.812-2.078 6.235 3.464c0 0 9.007-18.014 11.086-17.67 2.081.347-4.156 13.86-4.156 13.86s8.664-12.474 11.088-12.126c2.423.346-6.237 14.021-6.237 14.021s9.699-11.25 11.086-9.864c1.386 1.386-7.622 9.864-7.622 9.864s9.7-5.569 10.74-3.733c1.04 1.838-9.7 6.688-9.7 6.688s-1.04 7.968-7.621 11.432c0 0-13.034 35.213-24.814 46.646l-37.841 39.328-6.984-15.64zm-33.501 13.647s-26.591 27.817-33.565 32.601c-6.975 4.783-30.283 14.963-40.102 27.69l-13.107-6.359s-2.113 3.79 3.407 6.266c0 0-18.1 8.84-17.772 10.923.326 2.082 13.896-4.028 13.896-4.028s-12.553 8.547-12.23 10.974c.325 2.427 14.08-6.106 14.08-6.106s-11.34 9.594-9.967 10.992c1.371 1.399 9.935-7.527 9.935-7.527s-5.66 9.647-3.832 10.703c1.826 1.056 6.777-9.638 6.777-9.638s7.977-.962 11.504-7.513c0 0 33.353-13.271 44.897-24.943l41.505-29.41-15.426-14.625z" fill="#FFC6B2"/><path fill-rule="evenodd" clip-rule="evenodd" d="M111.112 132.047l-13.45 13.166 3.412 14.842s13.25 31.811 15.253 39.571c3.113 12.067-1.923 30.467-1.923 30.467s22.463-1.865 42.902-2.558c20.438-.693 27.124-7.278 27.124-7.278s-17.721-59.021-29.956-75.52c-12.236-16.496-16.686-21.66-16.686-21.66l-18.015 3.938-8.661 5.032z" fill="#fff"/><path fill-rule="evenodd" clip-rule="evenodd" d="M150.582 142.792l14.014-8.954s2.14-9.593-14.759-20.908l-19.816 12.417 20.561 17.445zm-50.085 1.38c-7.682 1.078-21.721 20.549-23.287 20.512 0 0 9.88 16.124 17.707 16.647 0 0 34.443-41.207 5.58-37.159z" fill="#fff"/><path fill-rule="evenodd" clip-rule="evenodd" d="M127.616 131.503s-11.167-8.344-10.78-11.67c.098-.838 1.646-2.198 2.048-3.405 2.165-6.496-8.274-23.233-14.688-26.76-5.045-2.775-2.834-3.02-13.453 3.29-10.618 6.31-4.569 17.222.173 22.866 4.483 5.335 9.618 7.62 14.237 8.006l6.568 14.588 15.895-6.915z" fill="#FFC6B2"/><path fill-rule="evenodd" clip-rule="evenodd" d="M107.467 143.085c-2.113-5.181 1.887-11.707 8.933-14.581 7.049-2.875 14.471-1.005 16.587 4.173 2.111 5.179-4.98 12.965-8.939 14.58-3.958 1.615-14.471 1.006-16.581-4.172zm-16.55-27.26s-3.622-.201-4.024 2.213c-.403 2.414 6.639 2.414 9.255.603l-5.231-2.816z" fill="#FFC6B2"/><path fill-rule="evenodd" clip-rule="evenodd" d="M92.728 118.038c-.688-4.362-5.336-7.605-5.104-11.855 2.228.017 3.658-2.742 2.644-5.101-.399-.926-1.075-1.72-1.507-2.634-.43-.913-.545-2.109.116-2.625.314-.244.737-.287 1.143-.327 3.303-.34 8.962.65 12.002-.476 2.895-1.072 5.996-3.159 5.695-6.704-.263-3.088-2.99-5.591-5.494-7.483-1.435-1.084-5.535-3.92-7.082-3.662-2.361.392-2.934 3.543-3.104 6.18-1.651-1.573-4.088-1.321-5.524-.042-1.436 1.28-2.116 3.313-2.742 5.275-.626 1.964-1.29 4.002-2.707 5.306-1.32 1.216-3.41 2.136-3.135 4.203.325 2.463 3.544 3.34 5.032 5.441-.367-.515-.677 2.774-.466 3.331.635 1.68 2.22 2.792 3.365 4.077 2.44 2.739 3.635 5.497 6.868 7.096z" fill="#FF7B5B"/><path fill-rule="evenodd" clip-rule="evenodd" d="M112.961 108.064l-8.252 4.268s9.911 7.194 8.252-4.268z" fill="#fff"/><path fill-rule="evenodd" clip-rule="evenodd" d="M101.608 109.756c.451.856-.217 2.093-1.491 2.763-1.274.671-2.672.521-3.123-.335-.45-.855.217-2.091 1.491-2.763 1.275-.671 2.672-.521 3.123.335zm12.049-8.231c.451.856-.216 2.093-1.49 2.763-1.274.671-2.672.521-3.123-.335-.45-.856.216-2.093 1.49-2.763 1.276-.671 2.672-.521 3.123.335z" fill="#FFB2A0"/><path fill-rule="evenodd" clip-rule="evenodd" d="M107.2 107.761c-.038-.048.116-.251.473-.508.341-.263.934-.547 1.374-1.021.436-.459.592-1.417-.075-1.552-.694-.235-1.481.56-2.385 1.317l-.663.55c-.205.188-.635.463-1.082.407-.852-.137-1.214-.705-1.541-1.086a7.51 7.51 0 01-1.281-2.478c-.443-1.537-.244-2.529-.138-2.521.149-.007.198.947.76 2.299a8.283 8.283 0 001.325 2.155c.301.366.68.706.95.717.113.006.201-.033.414-.211.217-.181.435-.365.655-.551.455-.367.849-.739 1.37-1.086.505-.34 1.226-.556 1.872-.336.689.181 1.094.985.974 1.544a2.172 2.172 0 01-.682 1.296c-.68.568-1.288.705-1.671.877-.392.149-.608.241-.649.188z" fill="#FF7B5B"/><path fill-rule="evenodd" clip-rule="evenodd" d="M105.153 123.83s5.264.03 8.12-1.729c0 0-2.416 2.968-7.251 3.736l-.869-2.007z" fill="#FFA192"/><path fill-rule="evenodd" clip-rule="evenodd" d="M107.436 100.224c-.048.26-.784.341-1.562.684-.789.319-1.358.792-1.578.645-.224-.119.148-1.059 1.213-1.507 1.064-.451 1.996-.067 1.927.178zm-10.316 6.767c-.199-.147.114-.995.871-1.844.767-.867 1.747-1.155 1.85-.913.11.236-.487.785-1.159 1.547-.683.759-1.346 1.371-1.561 1.21z" fill="#22343D"/><path fill-rule="evenodd" clip-rule="evenodd" d="M93.122 105.683c-.427-.316-.76-1.67.873-3.493 1.648-1.864 3.489-1.535 3.71-1.018.236.509-.377 1.232-1.823 2.871-1.467 1.634-2.298 1.986-2.76 1.64zm8.665-7.182c-.236-.442.025-1.727 2.148-2.622 2.153-.925 3.587.096 3.567.626-.004.527-.815.896-2.706 1.711-1.905.8-2.754.766-3.009.285z" fill="#FF7B5B"/><path fill-rule="evenodd" clip-rule="evenodd" d="M554.6 111.283c.139.138-2.148 2.71-6.892 5.512-4.686 2.799-12.06 5.573-20.54 5.636-8.481.062-15.895-2.603-20.622-5.332-4.784-2.731-7.109-5.271-6.973-5.411.198-.25 2.798 1.892 7.589 4.237 4.744 2.355 11.895 4.692 19.991 4.633 8.098-.061 15.212-2.503 19.922-4.927 4.754-2.416 7.324-4.596 7.525-4.348zm-51.74-3.886c-.129.285-2.661-.766-6.926-1.717-2.126-.502-4.705-.889-7.577-1.246-2.884-.319-6.071-.572-9.436-.812-3.367-.236-6.59-.507-9.517-.869-2.927-.389-5.557-.85-7.723-1.436-4.35-1.135-6.813-2.479-6.727-2.668.113-.287 2.703.598 7.01 1.373 2.149.41 4.742.728 7.629 1.015 2.895.265 6.091.481 9.462.718 3.374.24 6.602.55 9.526.969 2.923.459 5.545.994 7.69 1.675 4.307 1.315 6.686 2.819 6.589 2.998z" fill="#775298"/><mask id="a" style="mask-type:alpha" maskUnits="userSpaceOnUse" x="434" y="35" width="171" height="84"><path fill-rule="evenodd" clip-rule="evenodd" d="M434.468 35.206h169.886v83.235H434.468V35.206z" fill="#fff"/></mask><g mask="url(#a)"><path fill-rule="evenodd" clip-rule="evenodd" d="M451.556 52.065c8.086-1.715 16.463-.238 24.616 1.12 8.153 1.359 16.618 2.584 24.589.396 14.392-3.95 25.318-18.491 40.242-18.374 6.146.047 11.938 2.672 17.926 4.06 7.434 1.725 15.179 1.54 22.71 2.77 7.533 1.231 15.313 4.26 19.57 10.595 5.05 7.518 3.665 18.122-1.634 25.467-5.299 7.346-13.785 11.818-22.48 14.352-6.065 1.768-12.527 2.79-17.775 6.306-5.309 3.558-8.776 9.284-13.722 13.33-12.412 10.15-31.728 7.241-44.549-2.388-3.221-2.418-6.207-5.225-9.826-6.995-14.72-7.206-35.891 2.332-48.569-10.777-12.874-13.315-11.04-35.632 8.902-39.862z" fill="#775298"/></g><path fill-rule="evenodd" clip-rule="evenodd" d="M447.516 309.917s13.487 28.908 15.065 23.556c1.574-5.356 1.053-18.212.209-20.048-.849-1.835-6.362-9.944-6.362-9.944l-8.912 6.436z" fill="#FFB2A0"/><path fill-rule="evenodd" clip-rule="evenodd" d="M545.04 76.152c1.248 1.598.414-.119 1.827 2.187 5.873-.204 9.815-5.174 9.815-5.174s9.322.247 9.214-1.419c-.106-1.667-8.936-1.045-8.936-1.045s9.341-2.933 8.829-4.398c-.51-1.464-11.294 3.205-11.294 3.205s10.882-6.755 9.274-7.838c-1.606-1.08-12.077 4.815-12.077 4.815s9.1-7.474 7.736-8.437c-1.361-.964-13.983 8.764-13.983 8.764.184-4.785-3.249-4.618-3.249-4.618l.142 11.685s2.127 1.537 2.702 2.273zM406.867 23.268c-1.995.368-.449-.326-3.038.464-4.252-4.055-3.688-10.428-3.688-10.428s-7.132-6.004-5.949-7.177c1.189-1.176 7.377 5.152 7.377 5.152s-5.035-8.396-3.681-9.151c1.353-.755 6.32 9.895 6.32 9.895S400.554-.253 402.475.005c1.918.257 5.835 11.616 5.835 11.616S406.467-.008 408.123.176c1.658.183 4.641 15.838 4.641 15.838 3.039-3.7 5.493-1.295 5.493-1.295l-7.703 8.471s-2.77-.09-3.687.078zm48.382 48.808c-2.579-.424-8.816 3.721-11.936 10.477-1.747 3.782-2.949 7.623-.944 13.772.944 2.893 2.92 3.256 3.361 4.552.557 1.64-1.289 6.811-1.289 6.811l7.362 2.974c.479-3.553 1.021-7.127 4.641-8.669 1.355-.578 2.805-.943 4.083-1.677 3.449-1.977 5.291-6.302 6.708-9.843 1.057-2.645-5.519-17.337-11.986-18.397z" fill="#FFC6B2"/><path fill-rule="evenodd" clip-rule="evenodd" d="M446.485 172.479l-12.334-4.949s-36.605 67.883-36.452 86.717c.151 18.833 50.274 56.541 50.274 56.541l8.454-7.306s-15.475-26.985-23.748-36.499c-8.273-9.516 13.806-94.504 13.806-94.504z" fill="#FFB2A0"/><path fill-rule="evenodd" clip-rule="evenodd" d="M507.727 249.807s27.186-12.898 21.723-14.037c-5.463-1.134-18.239.429-19.998 1.421-1.762.993-9.395 7.145-9.395 7.145l7.67 5.471z" fill="#FFC6B2"/><path fill-rule="evenodd" clip-rule="evenodd" d="M458.601 171.89l-18.711 6.808s-18.717 82.325-11.571 95.25c7.142 12.93 27.21 4.374 55.789-11.224l23.938-13.068-7.99-5.318s-27.856 5.458-35.679 10.901c0 0 4.083-11.568 9.526-27.896 5.443-16.33 9.197-32.999-15.302-55.453zm-23.031-56.085c0-5.47 1.76-9.426 7.23-9.426 5.47 0 13.031 1.918 13.031 7.389 0 5.472-4.31 14.355-9.783 14.355-5.469 0-10.478-6.846-10.478-12.318z" fill="#FFC6B2"/><path fill-rule="evenodd" clip-rule="evenodd" d="M439.889 105.595s-17.008-18.406-20.41-36.438c-3.404-18.029-9.184-47.286-9.184-47.286l-6.464 1.861s-3.064 39.984 0 46.106c3.06 6.124 18.02 46.891 22.575 57.598l13.483-21.841zm18.273 14.346s1.308-5.726 22.816-13.508c21.507-7.78 62.083-33.001 62.083-33.001l4.048 4.631s-22.047 25.467-34.873 29.933c-12.826 4.468-40.069 22.08-42.872 23.489-4.239 2.133-4.187 4.816-11.202-11.544z" fill="#FFC6B2"/><path fill-rule="evenodd" clip-rule="evenodd" d="M439.889 105.595s-17.28 5.601-17.28 31.896c0 0 .011 36.013 4.083 42.564 0 0 6.621 1.697 14.876 0 8.655-1.779 17.033-8.165 17.033-8.165l13.593-40.809-1.625-19.121-18.483-3.568s5.302 24.776-13.881 14.125c-3.728-2.07 5.485-16.127 5.485-16.127l-3.801-.795z" fill="#22343D"/><path fill-rule="evenodd" clip-rule="evenodd" d="M425.268 126.981l-8.515-17.74s1.221-10.762 16.853-14.618c0 0 1.58 5.424 3.314 7.497 1.731 2.071 6.776 4.276 6.776 4.276l-18.428 20.585zm32.192 7.131l27.076-5.55s4.708-9.754-6.455-21.357c0 0-21.12 1.276-23.854 1.503-2.691.224-.843 2.296-.843 2.296l4.076 23.108zm-30.811 37.172s-25.61 47.35-29.841 55.811c0 0 75.555 34.707 106.226-7.07 0 0-17.446-36.927-44.418-50.986l-11.635-3.484-19.877 5.501" fill="#22343D"/><path fill-rule="evenodd" clip-rule="evenodd" d="M466.243 90.025s2.918-2.917 4.712-.898c1.795 2.02-6.506 4.937-6.506 4.937l1.794-4.039z" fill="#FFC6B2"/><path fill-rule="evenodd" clip-rule="evenodd" d="M519.606 50.236c.028.101-1.099.589-3.25 1.1-2.146.517-5.331.985-9.286 1.066-3.953.079-8.654-.273-13.8-.97-5.149-.683-10.742-1.686-16.628-2.328-5.875-.628-11.525-.743-16.528.065-5.005.795-9.337 2.434-12.648 4.349-3.311 1.93-5.615 4.07-7.03 5.69-1.422 1.622-2.063 2.657-2.207 2.57-.079-.041.349-1.207 1.638-3.025 1.281-1.812 3.541-4.204 6.912-6.366 3.369-2.15 7.846-3.996 13.049-4.92 5.209-.937 11.036-.865 17.013-.224 5.984.652 11.584 1.712 16.673 2.481 5.088.784 9.687 1.263 13.56 1.353 7.762.217 12.461-1.16 12.532-.84z" fill="#775298"/><path fill-rule="evenodd" clip-rule="evenodd" d="M451.387 88.369c-.008.114-.839.195-2.108-.226-.313-.11-.684-.255-1.029-.571a1.68 1.68 0 01-.425-.62 1.398 1.398 0 01.01-1.06c.041-.06.038-.206.118-.209l.247-.008c.158-.022.345.03.527.064.335.064.443.054.682.07a5.37 5.37 0 001.285-.129c1.771-.373 2.956-1.662 3.488-2.722.557-1.067.606-1.87.755-1.86.105-.014.312.84-.149 2.127a5.374 5.374 0 01-1.3 1.99 5.433 5.433 0 01-2.589 1.378 5.679 5.679 0 01-1.527.132 5.868 5.868 0 01-.657-.076c-.091-.015-.08-.035-.098-.024-.011.01-.016.028-.015.054.037.123.103.24.197.345.19.214.465.373.734.507 1.096.538 1.875.697 1.854.838z" fill="#FF7B5B"/><path fill-rule="evenodd" clip-rule="evenodd" d="M445.313 88.684l9.975 3.93s-8.766 6.045-9.975-3.93z" fill="#fff"/><path fill-rule="evenodd" clip-rule="evenodd" d="M459.547 90.575c-.354.673-1.453.79-2.454.263-1.002-.526-1.526-1.499-1.173-2.17.354-.674 1.453-.792 2.455-.265 1.001.527 1.526 1.499 1.172 2.172zm-11.132-5.902c-.303.698-1.389.9-2.427.45s-1.636-1.38-1.334-2.077c.301-.698 1.389-.9 2.427-.45s1.636 1.38 1.334 2.077z" fill="#FFB2A0"/><path fill-rule="evenodd" clip-rule="evenodd" d="M444.72 99.623s3.497 2.929 7.145 1.986c0 0-1.258 1.886-6.1 1.193 0 0 .402-2.078-1.045-3.179z" fill="#FFA192"/><path fill-rule="evenodd" clip-rule="evenodd" d="M458.59 84.311a.79.79 0 11-1.581 0 .79.79 0 011.581 0zm-6.467-2.33a.79.79 0 11-1.581 0 .79.79 0 011.581 0z" fill="#22343D"/><path fill-rule="evenodd" clip-rule="evenodd" d="M461.129 82.206c-.244.103-.715-.468-1.429-.93-.699-.482-1.408-.698-1.407-.963-.023-.253.966-.459 1.927.186.962.64 1.153 1.63.909 1.707zm-11.397-3.835c-.017-.246.832-.557 1.969-.527 1.157.025 2.011.586 1.892.82-.109.237-.914.135-1.929.116-1.021-.03-1.916-.14-1.932-.409z" fill="#775298"/><path fill-rule="evenodd" clip-rule="evenodd" d="M453.293 321.663s4.149 14.727 8.433 13.521c4.284-1.204 1.063-21.758 1.063-21.758l-4.274-6.756s4.015 34.405-5.222 14.993zm52.32-81.648s3.017-3.292 6.674-3.84c3.658-.549 16.733-2.104 18.653-.367 1.921 1.738-10.597 7.563-10.597 7.563s4.361-2.78 2.55-3.813c-3.2-1.83-17.28.457-17.28.457zm-5.188 3.943l4.093 8.311 2.234-1.24-5.459-8.187-.868 1.116zm-45.772 56.191l-10.048 9.057 2.978 2.481 8.434-9.18-1.364-2.358zm-210.066-90.155c-2.858-7.092-3.956-14.987-8.22-21.332-6.135-9.131-17.921-13.662-22.9-23.473-2.114-4.167-2.778-8.934-2.8-13.606-.041-9.244 2.727-19.072 9.867-24.946 8.204-6.75 20.514-6.656 30.123-2.122 9.606 4.535 16.947 12.767 23.188 21.365 6.242 8.597 11.706 17.823 18.974 25.571 5.389 5.745 11.781 10.7 15.84 17.449 11.129 18.503-.321 41.915-19.967 48.593-17.263 5.866-38.133-12.674-44.105-27.499z" fill="#22343D"/><path fill-rule="evenodd" clip-rule="evenodd" d="M219.994 340.494c1.709 1.404-.156.431 2.33 2.05-.555 6.21-6.298 10.122-6.298 10.122s-.243 9.886-2.088 9.683c-1.849-.2-.665-9.52-.665-9.52s-3.781 9.738-5.381 9.118c-1.598-.617 4.19-11.791 4.19-11.791s-8.113 11.167-9.227 9.406c-1.113-1.759 6.025-12.535 6.025-12.535s-8.814 9.242-9.81 7.746c-.995-1.492 10.519-14.345 10.519-14.345-5.329-.058-4.952-3.686-4.952-3.686l12.98.77s1.591 2.333 2.377 2.982zm124.004-186.448c2.221.389.497-.346 3.379.492 4.734-4.301 4.105-11.058 4.105-11.058s7.939-6.366 6.623-7.61c-1.325-1.247-8.211 5.461-8.211 5.461s5.603-8.902 4.096-9.703c-1.505-.8-7.033 10.493-7.033 10.493s4.068-13.017 1.928-12.744c-2.134.273-6.493 12.318-6.493 12.318s2.05-12.331.206-12.136c-1.845.194-4.829 16.348-4.829 16.348-4.347-3.538-7.389-1.273-7.389-1.273l9.513 9.329s3.084-.094 4.105.083zm-54.341 53.99c4.015-.627 16.261 7.309 13.145 23.425-.26 1.353-2.028 4.332-2.468 5.564-.556 1.56 3.776 7.271 3.776 7.271l-11.183 3.573c-.477-3.378.326-8.315-3.288-9.783-1.352-.549-2.799-.896-4.074-1.593-3.444-1.88-5.282-5.994-6.696-9.361-1.056-2.517-1.86-5.223-1.83-7.954.073-6.875 6.163-10.134 12.618-11.142z" fill="#FFC6B2"/><path fill-rule="evenodd" clip-rule="evenodd" d="M312.051 252.173c0-5.8-1.84-8.015-7.928-8.015s-14.125 2.215-14.125 8.015c0 5.803 4.299 13.063 10.39 13.063 6.087 0 11.663-7.26 11.663-13.063z" fill="#FFC6B2"/><path fill-rule="evenodd" clip-rule="evenodd" d="M307.243 241.347s18.931-19.519 22.717-38.639c3.788-19.119 10.223-50.144 10.223-50.144l7.194 1.973s3.409 42.4 0 48.893c-3.406 6.494-22.719 51.588-22.34 63.131l-17.794-25.214zm-33.745 9.451s-6.437 1.082-16.282 23.449c-9.845 22.367-40.136 64.006-40.136 64.006l4.923 4.534s29.533-22.004 35.213-35.351c5.678-13.347 12.872-29.942 16.282-29.222 3.406.723 17.795-19.121 0-27.416z" fill="#FFC6B2"/><path fill-rule="evenodd" clip-rule="evenodd" d="M324.18 269.543l8.814-24.33s-1.359-11.41-18.757-15.501l-9.856 14.2 19.799 25.631zm-47.744-20.612s-10.399.876-18.828 19.39c0 0 9.27 12.798 16.051 13.23 0 0 25.188-21.53 2.777-32.62z" fill="#FF7B5B"/><path fill-rule="evenodd" clip-rule="evenodd" d="M305.01 468.488s-15.012 30.655-16.767 24.98c-1.752-5.678-1.173-19.313-.233-21.258.944-1.948 7.082-10.546 7.082-10.546l9.918 6.824z" fill="#FFC6B2"/><path fill-rule="evenodd" clip-rule="evenodd" d="M306.157 322.747l13.728-5.248s40.743 71.985 40.574 91.957c-.169 19.97-55.957 59.958-55.957 59.958l-9.411-7.75s26.443-38.879 35.65-48.968c4.605-5.045-28.357-29.772-33.35-53.563-4.992-23.792 8.766-36.386 8.766-36.386z" fill="#654287"/><path fill-rule="evenodd" clip-rule="evenodd" d="M223.615 452.429s-28.081 20.699-26.913 14.89c1.172-5.814 8.241-17.68 10.014-19.001 1.776-1.317 11.363-6.283 11.363-6.283l5.536 10.394z" fill="#FFC6B2"/><path fill-rule="evenodd" clip-rule="evenodd" d="M268.806 348.238l40.617-23.54s1.612 81.77-8.139 99.45c-9.749 17.68-78.565 28.881-78.565 28.881l-4.64-10.994s42.456-25.296 55.491-30.246c13.036-4.953-4.764-63.551-4.764-63.551z" fill="#775298"/><path fill-rule="evenodd" clip-rule="evenodd" d="M292.996 308.597s-29.907 10.589-24.189 39.642c5.716 29.051 15.245 34.497 15.245 34.497l17.151-28.142 17.219-36.855-17.219-2.185-8.207-6.957z" fill="#775298"/><path fill-rule="evenodd" clip-rule="evenodd" d="M307.243 241.347s22.018 12.34 22.018 40.224c0 0-2.797 31.789-7.331 38.734 0 0-7.369 1.8-16.557 0-9.633-1.886-18.956-8.657-18.956-8.657l-7.525-38.92-5.853-22.724 3.173-1.047 16.56-1.819s-2.379 24.737 16.111 12.453c3.895-2.587-4.848-15.486-4.848-15.486l3.208-2.758z" fill="#FF7B5B"/><path fill-rule="evenodd" clip-rule="evenodd" d="M320.72 135.979l46.165 26.931 25.969-49.052-43.281-24.046-28.853 46.167zm64.224 234.808l33.017-20.44-27.278-47.614-30.182 19.571 24.443 48.483z" fill="#fff"/><path fill-rule="evenodd" clip-rule="evenodd" d="M222.376 167.891c.087-.078 1.106.848 2.718 2.735 1.605 1.89 3.795 4.764 5.993 8.642 2.206 3.861 4.389 8.761 5.948 14.449 1.613 5.645 2.695 11.991 5.175 18.104 1.287 3.02 2.848 5.831 4.705 8.316a45.206 45.206 0 006.091 6.526c4.371 3.679 8.951 6.209 13.032 7.672 4.077 1.482 7.569 2.147 9.997 2.386 2.426.268 3.797.307 3.798.467.007.099-1.36.308-3.851.26-2.489-.019-6.113-.494-10.38-1.863-4.271-1.349-9.096-3.845-13.709-7.604a45.015 45.015 0 01-6.444-6.741c-1.965-2.587-3.625-5.544-4.972-8.709-2.584-6.389-3.605-12.791-5.107-18.362a67.121 67.121 0 00-5.447-14.269c-2.004-3.881-3.994-6.823-5.404-8.829-1.418-2.001-2.25-3.086-2.143-3.18zm56.718-31.508c.34-.052.669 4.493 3.212 11.215a50.549 50.549 0 005.872 11.062c1.355 1.933 2.916 3.838 4.681 5.736 1.754 1.907 3.665 3.843 5.47 6.015 3.62 4.384 6.111 9.122 8.456 13.303 2.329 4.223 4.184 8.24 5.127 11.834.983 3.582 1.041 6.666.729 8.711-.326 2.055-.837 3.096-.922 3.067-.162-.042.103-1.142.195-3.132.081-1.989-.173-4.886-1.272-8.272-1.063-3.399-2.975-7.231-5.361-11.364-2.423-4.132-4.935-8.774-8.394-12.952-1.736-2.09-3.619-4.02-5.383-5.974-1.774-1.944-3.388-3.969-4.749-5.995-2.731-4.057-4.554-8.1-5.696-11.595a41.94 41.94 0 01-1.901-8.474c-.233-2.036-.17-3.175-.064-3.185z" fill="#22343D"/><path fill-rule="evenodd" clip-rule="evenodd" d="M293.247 225.553c-.017-.13.735-.25 1.445-1.084.163-.192.328-.473.325-.637a1.01 1.01 0 00-.337-.656.957.957 0 00-.785-.259c-.333.024-.738.189-1.266.268-1.158.154-2.062-.5-2.656-1.03a9.479 9.479 0 01-1.424-1.63c-.692-1.02-.907-1.757-.801-1.812.123-.065.54.545 1.32 1.401.39.425.882.913 1.462 1.383.573.456 1.273.872 1.972.762.371-.048.803-.221 1.329-.257.535-.053 1.131.194 1.458.562.347.376.542.819.501 1.343-.104.537-.388.788-.624 1.022-1.018.892-1.951.746-1.919.624z" fill="#FF7B5B"/><path fill-rule="evenodd" clip-rule="evenodd" d="M298.703 226.321l-8.866 3.224s7.523 6.582 8.866-3.224z" fill="#fff"/><path fill-rule="evenodd" clip-rule="evenodd" d="M288.952 225.773c.354.673-.17 1.646-1.172 2.172-1.001.527-2.1.41-2.454-.263-.354-.672.17-1.645 1.172-2.172 1.002-.528 2.1-.411 2.454.263zm10.511-5.391c.29.703-.323 1.622-1.368 2.054-1.046.433-2.13.214-2.42-.489-.29-.703.323-1.622 1.369-2.054 1.046-.432 2.129-.214 2.419.489z" fill="#FFB2A0"/><path fill-rule="evenodd" clip-rule="evenodd" d="M290.099 238.322s2.966.604 6.748-.341c0 0-1.864 1.811-4.91 2.232 0 0-.682-1.261-1.838-1.891z" fill="#FFA192"/><path fill-rule="evenodd" clip-rule="evenodd" d="M293.13 218.392a.79.79 0 11-1.024 1.204.79.79 0 011.024-1.204zm-5.958 3.428a.79.79 0 11-1.024 1.204.79.79 0 011.024-1.204zm5.993-6.726c-.079.253-.819.243-1.632.49-.821.221-1.443.621-1.645.448-.209-.144.274-1.032 1.387-1.349 1.111-.32 1.989.176 1.89.411zm-10.293 6.216c-.199-.147.113-.995.871-1.842.766-.867 1.747-1.156 1.849-.915.11.236-.488.785-1.16 1.547-.681.759-1.344 1.372-1.56 1.21z" fill="#22343D"/><path fill-rule="evenodd" clip-rule="evenodd" d="M279.528 227.894s-2.844-2.389-4.209-.228c-1.364 2.161 6.143 3.299 6.143 3.299l-1.934-3.071z" fill="#FFC6B2"/><path fill-rule="evenodd" clip-rule="evenodd" d="M211.15 445.703s-4.077 1.772-5.14 2.837c-1.064 1.063-10.813 17.902-9.572 20.029 1.241 2.127 11.018-5.093 11.018-5.093s-8.181 1.549 3.694-17.773zm79.556 22.267s-2.896 3.13-3.343 4.568c-.447 1.435-1.246 20.877.842 22.182 2.088 1.307 7.795-9.421 7.795-9.421s-6.823 5.344-5.294-17.284" fill="#775298"/></svg>