<svg width="626" height="594" fill="none" xmlns="http://www.w3.org/2000/svg"><path d="M34.489 32.459H193.97m2.805 2.686a2.688 2.688 0 00-2.604-2.717m2.373 2.841v90.906h-30.636m-2.558-2.641a2.688 2.688 0 002.697 2.687m-2.943-2.609V65.967H43.38m-3.282 0h-1.402" stroke="#EEE" stroke-opacity=".8" stroke-width=".3" stroke-linecap="round" stroke-linejoin="round"/><path d="M38.696 39.253h151.068v86.922h6.78M82.43 88.45v30.699m.231-.108a1.299 1.299 0 001.295 1.282m-.124.231h60.794m.124-.231a1.281 1.281 0 001.279-1.282m0 .108V88.451m0-.108a1.295 1.295 0 00-1.279-1.297m-.124-.001H83.832m.124 0a1.308 1.308 0 00-1.295 1.297" stroke="#EEE" stroke-opacity=".8" stroke-width=".3" stroke-linecap="round" stroke-linejoin="round"/><path d="M68.87 40.658v3.505h45.83v-3.505H68.87zm94.942 0v3.505h22.438v-3.505h-22.438zm24.549 11.011h-3.267v22.267h3.267V51.668zm0 24.598h-3.267v22.267h3.267V76.267z" stroke="#EEE" stroke-opacity=".8" stroke-width=".3" stroke-linecap="round" stroke-linejoin="round"/><path d="M185.094 65.967h-21.99V39.253M34.612 32.428a2.674 2.674 0 00-1.906.781 2.687 2.687 0 00-.791 1.906m0 .154v90.906h30.636m.123 0a2.688 2.688 0 002.681-2.641m.001.078V65.967" stroke="#EEE" stroke-opacity=".8" stroke-width=".3" stroke-linecap="round" stroke-linejoin="round"/><path d="M31.915 126.175h6.78V39.253m25.967 1.405v3.505H42.209v-3.505h22.453zM40.098 51.669h3.282v22.267h-3.282V51.668zm0 24.598h3.282v22.267h-3.282V76.267z" stroke="#EEE" stroke-opacity=".8" stroke-width=".3" stroke-linecap="round" stroke-linejoin="round"/><path d="M43.38 65.967h21.976V39.253" stroke="#EEE" stroke-opacity=".8" stroke-width=".3" stroke-linecap="round" stroke-linejoin="round"/><path d="M408.175 189.456H392.98m10.048-1.174H392.98m-3.051-1.405v-8.215m1.171 8.215v-8.215m1.88-2.564h15.195m-15.195 1.158h10.048m-11.605 9.126a1.979 1.979 0 001.88 1.653m-.061-10.763a1.97 1.97 0 00-1.88 1.652m11.665 9.358v-11.026m-1.633 5.513a1.765 1.765 0 00-1.085-1.626 1.754 1.754 0 00-2.395 1.283 1.762 1.762 0 001.723 2.104 1.76 1.76 0 001.757-1.761m6.781 6.687H392.98m10.048-1.174H392.98m-3.051-1.405v-8.215m1.171 8.215v-8.215m1.88-2.564h15.195m-15.195 1.158h10.048m-12.822 9.312a3.183 3.183 0 001.024 1.844 3.17 3.17 0 001.95.796m-1.757-2.826a1.979 1.979 0 001.88 1.653m-.123-11.998a3.072 3.072 0 00-1.968.775 3.089 3.089 0 00-1.006 1.865m3.036-1.405a1.97 1.97 0 00-1.88 1.652m11.665 9.358v-11.026" stroke="#EEE" stroke-opacity=".8" stroke-width=".61" stroke-linecap="round" stroke-linejoin="round"/><path d="M401.394 182.769a1.765 1.765 0 00-1.085-1.626 1.754 1.754 0 00-2.395 1.283 1.762 1.762 0 001.723 2.104 1.76 1.76 0 001.757-1.761" stroke="#EEE" stroke-opacity=".8" stroke-width=".61" stroke-linecap="round" stroke-linejoin="round"/><path d="M369.587 166.478h13.099m-14.039-1.05a1.05 1.05 0 001.063 1.05m13.084 0a1.045 1.045 0 001.063-1.05m-.231.124v-10.779m-14.979 0v10.779m1.171-.479h12.406v-7.258h-12.406v7.258z" stroke="#EEE" stroke-opacity=".8" stroke-width=".3" stroke-linecap="round" stroke-linejoin="round"/><path d="M377.076 161.444a.83.83 0 00-.506-.783.829.829 0 00-.914.178.84.84 0 00-.178.916.827.827 0 00.314.373.826.826 0 00.468.134.817.817 0 00.816-.818" stroke="#EEE" stroke-opacity=".8" stroke-width=".3" stroke-linecap="round" stroke-linejoin="round"/><path d="M361.404 390.677a.23.23 0 01-.163-.395.232.232 0 01.163-.068v.463zm26.66 0h-26.66v-.463h26.66l.231.232-.231.231zm0-.463a.232.232 0 010 .463v-.463zm-.231 186.043V390.492h.462v185.811l-.462-.046zm.462 0a.232.232 0 01-.395.164.235.235 0 01-.067-.164h.462zm0-19.904v19.904h-.462v-19.858l.231-.247.231.201zm-.462 0a.231.231 0 01.231-.232c.061 0 .12.024.163.068a.228.228 0 01.068.164h-.462zm177.219.231H388.064v-.479h177.019l.231.248-.262.231zm0-.479a.25.25 0 01.231.248c0 .061-.024.12-.068.163a.228.228 0 01-.163.068v-.479zm.231-217.204v217.498h-.462V338.947l.462-.046zm-.462 0a.232.232 0 01.394-.164.232.232 0 01.068.164h-.462zm0 19.92v-19.874h.462v19.92l-.231.232-.231-.278zm.462 0a.232.232 0 01-.394.164.232.232 0 01-.068-.164h.462zm-117.119-.247h116.919v.479H448.164l-.231-.232.231-.247zm0 .479a.232.232 0 01-.231-.232.224.224 0 01.013-.093.229.229 0 01.218-.154v.479zm.232-23.487v23.301h-.463v-23.255l.463-.046zm-.463 0a.232.232 0 01.231-.232.232.232 0 01.232.232h-.463z" fill="#EEE" fill-opacity=".8"/><path d="M388.064 390.492v165.907m-20.11-80.375h20.11v-85.532m0 42.651h-26.66m203.679 123.256H388.064m0 0h88.394v19.905m-44.197-19.905v19.905m88.394-19.905v19.905" stroke="#EEE" stroke-opacity=".8" stroke-width=".3" stroke-linecap="round" stroke-linejoin="round"/><path d="M506.862 358.868c.01.036.011.074.003.111a.257.257 0 01-.047.102.255.255 0 01-.086.07.255.255 0 01-.108.025.256.256 0 01-.109-.025.255.255 0 01-.086-.07.257.257 0 01-.047-.102.231.231 0 01.003-.111h.477zm0-22.653v22.653h-.477v-22.653h.477zm-.477 0a.236.236 0 01-.003-.112.253.253 0 01.133-.172.256.256 0 01.109-.025.247.247 0 01.241.197.236.236 0 01-.003.112h-.477z" fill="#EEE" fill-opacity=".8"/><path d="M565.083 457.51h19.879m-19.879-49.213h19.879m-19.879 98.657h19.879m-85.127-97.947h-46.77v97.005h46.77v-97.005zm-23.377 0v97.005" stroke="#EEE" stroke-opacity=".8" stroke-width=".3" stroke-linecap="round" stroke-linejoin="round"/><path d="M453.065 409.007v48.503h46.77m-148.247-309.3h-21.76v-21.788h21.76v21.788zm-4.208-21.788v-1.884h-13.561v1.884h13.561zm-18.476 21.788H307.16v-21.788h21.744v21.788zm-4.207-21.788v-1.884h-13.561v1.884h13.561zM237.705 17.696V148.21m143.579-59.991h23.377v53.197h-23.377V88.219z" stroke="#EEE" stroke-opacity=".8" stroke-width=".3" stroke-linecap="round" stroke-linejoin="round"/><path d="M382.686 89.393h20.804v50.618h-20.804V89.393z" stroke="#EEE" stroke-opacity=".8" stroke-width=".3" stroke-linecap="round" stroke-linejoin="round"/><path d="M384.319 94.55h17.306v43.824h-17.306V94.55zm19.171-5.157l-1.865 5.157m-17.305 0l-1.634-5.157m1.634 48.965l-1.634 1.653" stroke="#EEE" stroke-opacity=".8" stroke-width=".3" stroke-linecap="round" stroke-linejoin="round"/><path d="M394.382 120.446a1.31 1.31 0 00-1.294-1.297 1.294 1.294 0 00-.905 2.203c.24.241.565.376.905.376a1.296 1.296 0 001.294-1.282z" stroke="#EEE" stroke-opacity=".8" stroke-width=".3" stroke-linecap="round" stroke-linejoin="round"/><path d="M408.175 82.135h-28.756v66.075h28.756V82.135zm-46.771 48.734h13.099m-12.976-.231a1.045 1.045 0 00-1.063 1.05m15.21 0a1.05 1.05 0 00-1.063-1.05m.832 1.173V147.5h-14.979v-15.689" stroke="#EEE" stroke-opacity=".8" stroke-width=".3" stroke-linecap="round" stroke-linejoin="round"/><path d="M361.866 132.043h12.174v12.415h-12.174v-12.415z" stroke="#EEE" stroke-opacity=".8" stroke-width=".3" stroke-linecap="round" stroke-linejoin="round"/><path d="M368.894 140.829a.834.834 0 00-1.372-.515.828.828 0 00-.277.515.83.83 0 001.649 0" stroke="#EEE" stroke-opacity=".8" stroke-width=".3" stroke-linecap="round" stroke-linejoin="round"/><path d="M379.419 148.211h-22.684v-20.152h22.684v20.152zm-17.553-10.779h12.159M237.705 17.696V148.21m0-130.514v72.639h-19.879m19.879-28.83h-19.879m19.879 57.644h-19.879m104.99-101.453V32.69h85.358m-64.076 0V17.696M365.38 32.69V17.696m21.513 14.994V17.696m-83.956 31.718a6.683 6.683 0 00-1.944-4.727 6.662 6.662 0 00-4.713-1.96" stroke="#EEE" stroke-opacity=".8" stroke-width=".3" stroke-linecap="round" stroke-linejoin="round"/><path d="M302.706 49.553h.231a.233.233 0 00-.067-.164.232.232 0 00-.327 0 .215.215 0 00-.05.075.225.225 0 00-.018.089.248.248 0 00.231.247.228.228 0 00.169-.073.218.218 0 00.049-.08.213.213 0 00.013-.094h-.231z" fill="#C49378"/><path d="M296.28 56.115a6.632 6.632 0 004.723-1.96 6.654 6.654 0 001.934-4.741m-6.78 6.933h-36.708V42.758h36.708m-85.112 356.413h-28.293v56.702H37.524V295.355h145.228v43.593h21.744M37.524 295.356v-20.152m145.228 20.152v-20.152m0 180.669v20.152M37.524 455.873v20.152" stroke="#EEE" stroke-opacity=".8" stroke-width=".3" stroke-linecap="round" stroke-linejoin="round"/><path d="M37.525 295.355v80.375h-20.11m20.11-40.303h-20.11m20.11 80.375h-20.11m20.109 40.071h72.491v20.152M73.77 455.873v20.152m72.505-20.152v20.152M110.03 295.356v-20.152m-36.26 20.152v-20.152m72.505 20.152v-20.152m36.477 152.317h28.293" stroke="#EEE" stroke-opacity=".8" stroke-width=".3" stroke-linecap="round" stroke-linejoin="round"/><path d="M204.496 204.913v13.357h13.33v-13.357h-13.33zm0 120.445v13.589h13.33v-13.589h-13.33z" stroke="#EEE" stroke-width="1.06" stroke-linecap="round" stroke-linejoin="round"/><path d="M386.893 275.204v50.155h10.048v-50.155h-10.048zm0 0h10.048v50.155" stroke="#EEE" stroke-width=".3" stroke-linecap="round" stroke-linejoin="round"/><path d="M396.94 275.204h10.063v50.155H396.94v-50.155zm10.063 0h9.817v50.155h-9.817v-50.155zm9.817 0h10.063v50.155H416.82v-50.155zm10.063 0h10.047v50.155h-10.047v-50.155zm50.037 50.155h-9.816v-12.431 12.431h-10.063v-25.077 25.077h-10.048v-37.493 37.493H436.93v-50.155" stroke="#EEE" stroke-width=".3" stroke-linecap="round" stroke-linejoin="round"/><path d="M568.35 218.27h-13.315v107.088h13.315V218.27z" stroke="#EEE" stroke-width="1.06" stroke-linecap="round" stroke-linejoin="round"/><path d="M376.83 275.204h10.063v50.155H376.83v-50.155z" stroke="#EEE" stroke-width=".3" stroke-linecap="round" stroke-linejoin="round"/><path d="M204.496 325.358v13.589h13.33v-13.589h-13.33z" stroke="#EEE" stroke-width="1.06" stroke-linecap="round" stroke-linejoin="round"/><path d="M376.845 275.204h60.085m-60.085-.927h59.392m-59.392 26.004h80.196m-76.22-.123a3.881 3.881 0 00-2.388-3.581 3.86 3.86 0 00-4.215.84 3.889 3.889 0 00-.839 4.224 3.875 3.875 0 003.574 2.393c1.026 0 2.01-.408 2.735-1.135a3.883 3.883 0 001.133-2.741" stroke="#EEE" stroke-width=".3" stroke-linecap="round" stroke-linejoin="round"/><path d="M555.035 208.434H367.954v9.836h187.081v-9.836zm-337.209 9.836v-6.563m337.209-6.794v13.357h13.315v-13.357h-13.315z" stroke="#EEE" stroke-width="1.06" stroke-linecap="round" stroke-linejoin="round"/><path d="M568.35 218.27h.832a.834.834 0 00-1.647-.184.835.835 0 00.815 1.003.83.83 0 00.832-.819h-.832z" fill="#C49378"/><path d="M568.35 29.88V17.696h-13.315V29.88m-.015 33.509v46.866M207.763 218.27h10.063v107.088h-10.063V218.27zM555.035 17.696H421.504v22.252m0 30.003v138.482M408.175 17.696v22.252m0 30.003v138.482M354.624 395.65v80.375h6.78v-95.137m0-29.989v-11.952h-6.78v11.952m0 29.989v8.199M207.763 275.203H17.414v-6.562h190.349v6.562zm10.063 113.884v-8.199m0-29.989v-11.952h-6.781v11.952m0 29.989v95.137h6.781V395.65m-6.781-230.809V17.696h6.781V148.21m0 6.563v10.068m0 30.235v9.837h-6.781v-9.837m143.579-40.303h-53.32m-30.158 0h-53.32m0-6.563h53.32m30.158 0h60.1M555.02 29.88h13.33m-13.33 33.509h13.33m0-59.05h43.504m13.33 0V238.42m-13.33.002H568.35m0-220.726h43.504v220.725m0-234.082h13.329" stroke="#EEE" stroke-width="1.06" stroke-linecap="round" stroke-linejoin="round"/><path d="M568.35 67.836h43.504M568.35 77.904h43.504M568.35 87.987h43.504m-43.504 9.837h43.504m-43.504 10.083h43.504m-40.222 10.069h40.221m-40.221 10.083h40.221m-40.221 10.068h40.221M568.35 148.21h43.504m-43.504 9.837h43.504M568.35 168.13h43.504m-43.504 10.068h43.504m-43.504 10.084h43.504M568.35 198.35h43.504m-43.504 10.084h43.504m-43.504 9.836h43.504m-43.504 10.068h43.504m-43.504 10.084h43.504" stroke="#EEE" stroke-width=".3" stroke-linecap="round" stroke-linejoin="round"/><path d="M611.854 238.422h13.329" stroke="#EEE" stroke-width="1.06" stroke-linecap="round" stroke-linejoin="round"/><path d="M591.743 67.836v170.586l5.147-5.621m-5.147 5.621l-5.378-5.621" stroke="#EEE" stroke-width=".3" stroke-linecap="round" stroke-linejoin="round"/><path d="M594.317 67.712a2.474 2.474 0 00-1.523-2.282 2.458 2.458 0 00-2.687.535 2.476 2.476 0 00.374 3.802 2.463 2.463 0 003.648-1.11c.124-.299.188-.62.188-.945m.693-33.153l-2.327 2.115m-2.342 1.868l-1.634 1.406m-2.111 1.884l-1.634 1.405m-2.342 1.868l-1.402 1.406m-2.343 1.868l-1.402 1.42m-2.342 1.87l-1.634 1.405m-2.342 1.868l-1.403 1.405m-2.327 1.884l-2.342 2.1" stroke="#EEE" stroke-width=".3" stroke-linecap="round" stroke-linejoin="round"/><path d="M217.826 389.087h53.32m30.158 0h53.32m0 6.563h-53.32m-30.158 0h-53.32m143.578-240.877v10.068m-6.78 0v-10.068" stroke="#EEE" stroke-width="1.06" stroke-linecap="round" stroke-linejoin="round"/><path d="M217.826 204.913v-9.837" stroke="#EEE" stroke-width=".3" stroke-linecap="round" stroke-linejoin="round"/><path d="M217.826 195.076h-6.781m6.781-30.235h-6.781m6.781 216.047h-6.781m6.781-29.989h-6.781m150.359 29.989h-6.78m6.78-29.989h-6.78m-53.32-196.126v-6.563m-30.158 0v6.563-6.563zm30.158 247.44v-6.563m-30.158 0v6.563-6.563z" stroke="#EEE" stroke-width="1.06" stroke-linecap="round" stroke-linejoin="round"/><path d="M244.486 166.478v-1.637h-26.66v1.637h26.66z" stroke="#EEE" stroke-width=".61" stroke-linecap="round" stroke-linejoin="round"/><path d="M244.486 166.478l-2.111 2.116m-2.096 2.347l-1.172 1.405m-2.111 2.1l-1.402 1.652m-2.096 2.1l-1.402 1.405m-2.112 2.348l-1.402 1.405m-1.865 2.116l-1.402 1.405m-2.111 2.331l-1.402 1.406m-2.112 2.115l-1.864 2.347" stroke="#EEE" stroke-width=".3" stroke-linecap="round" stroke-linejoin="round"/><path d="M244.486 379.251v1.637h-26.66v-1.637h26.66z" stroke="#EEE" stroke-width=".61" stroke-linecap="round" stroke-linejoin="round"/><path d="M244.486 379.25l-2.111-2.115m-2.096-2.347l-1.172-1.405m-2.111-2.1l-1.402-1.405m-2.096-2.348l-1.402-1.405m-2.112-2.115l-1.402-1.637m-1.865-2.101l-1.402-1.405m-2.111-2.347l-1.402-1.405m-2.112-2.116l-1.864-2.1" stroke="#EEE" stroke-width=".3" stroke-linecap="round" stroke-linejoin="round"/><path d="M299.439 181.488h1.865v-26.715h-1.865v26.715z" stroke="#EEE" stroke-width=".61" stroke-linecap="round" stroke-linejoin="round"/><path d="M299.439 181.487l-2.111-1.883m-2.096-2.101l-1.402-1.405m-2.343-2.115l-1.402-1.405m-2.111-1.869l-1.634-1.42m-2.111-2.101l-1.402-1.405m-2.096-2.115l-1.634-1.405m-2.111-1.869l-1.402-1.405m-2.343-2.115l-2.095-2.101" stroke="#EEE" stroke-width=".3" stroke-linecap="round" stroke-linejoin="round"/><path d="M299.439 362.142h1.865v26.946h-1.865v-26.946z" stroke="#EEE" stroke-width=".61" stroke-linecap="round" stroke-linejoin="round"/><path d="M299.439 362.142l-2.111 2.115m-2.096 2.099l-1.402 1.406m-2.343 2.116l-1.402 1.173m-2.111 2.1l-1.634 1.406m-2.111 2.115l-1.402 1.405m-2.096 2.101l-1.634 1.405m-2.111 1.884l-1.402 1.405m-2.343 2.115l-2.095 2.1" stroke="#EEE" stroke-width=".3" stroke-linecap="round" stroke-linejoin="round"/><path d="M327.964 379.251v1.637h26.66v-1.637h-26.66z" stroke="#EEE" stroke-width=".61" stroke-linecap="round" stroke-linejoin="round"/><path d="M327.964 379.25l2.111-2.115m1.864-2.347l1.403-1.405m2.111-2.1l1.402-1.405m2.096-2.348l1.403-1.405m1.879-2.115l1.403-1.637m2.096-2.101l1.402-1.405m2.111-2.347l1.402-1.405m1.865-2.116l2.111-2.1" stroke="#EEE" stroke-width=".3" stroke-linecap="round" stroke-linejoin="round"/><path d="M361.404 148.21h46.771v6.563h-46.771m-6.78 10.068h6.78" stroke="#EEE" stroke-width="1.06" stroke-linecap="round" stroke-linejoin="round"/><path d="M327.964 166.478v-1.637h26.66v1.637h-26.66z" stroke="#EEE" stroke-width=".61" stroke-linecap="round" stroke-linejoin="round"/><path d="M327.964 166.478l2.111 2.116m1.864 2.347l1.403 1.405m2.111 2.1l1.402 1.652m2.096 2.1l1.403 1.405m1.879 2.348l1.403 1.405m2.096 2.116l1.402 1.405m2.111 2.331l1.402 1.406m32.979-35.841h-14.979" stroke="#EEE" stroke-width=".3" stroke-linecap="round" stroke-linejoin="round"/><path d="M421.505 69.951h-13.33m13.33-30.003h-13.33" stroke="#EEE" stroke-width="1.06" stroke-linecap="round" stroke-linejoin="round"/><path d="M381.284 41.585v-1.637h26.891v1.637h-26.891z" stroke="#EEE" stroke-width=".61" stroke-linecap="round" stroke-linejoin="round"/><path d="M381.284 41.585l2.095 2.115m2.112 2.347l1.402 1.406m1.865 2.1l1.418 1.405m2.095 2.347l1.402 1.405m2.112 2.116l1.402 1.636m2.096 2.116l1.171 1.405m2.111 2.332l1.403 1.405m2.095 2.116l2.112 2.115m0-52.255V32.69m-6.55 105.668l1.865 1.653M568.35 17.696h-13.315V29.88h13.315V17.696zm-160.175 0h13.33v22.252h-13.33V17.696zm13.33 52.255h-13.33v138.482h13.33V69.951z" stroke="#EEE" stroke-width=".3" stroke-linecap="round" stroke-linejoin="round"/><path d="M4.1 4.34h564.25v25.54h3.282V.818H.817v491.837h350.54v100.527H601.79V322.07h-30.158V143.748h-3.282v181.611h29.942v264.302H354.624V489.382H4.099V4.339z" stroke="#EEE" stroke-width="1.06" stroke-linecap="round" stroke-linejoin="round"/><path d="M555.02 110.254h13.33m-13.33 33.509h13.33" stroke="#EEE" stroke-width=".3" stroke-linecap="round" stroke-linejoin="round"/><path d="M555.035 63.389h13.315v46.85h-13.315v-46.85zm0 80.359h13.315v61.165h-13.315v-61.165zm13.315-33.494h3.283m-3.283-46.865h3.283v46.85h-3.283v-46.85z" stroke="#EEE" stroke-width="1.06" stroke-linecap="round" stroke-linejoin="round"/><path d="M571.632 110.949v-.71 33.508M555.02 29.88h13.33m-13.33 33.509h13.33" stroke="#EEE" stroke-width=".3" stroke-linecap="round" stroke-linejoin="round"/><path d="M561.569 30.806h3.514v2.116h-3.514v-2.116zm0 29.525h3.514v2.116h-3.514V60.33zm6.781-30.451h3.283m-3.283 33.509h3.283" stroke="#EEE" stroke-width="1.06" stroke-linecap="round" stroke-linejoin="round"/><path d="M571.632 30.575v-.695 33.509" stroke="#EEE" stroke-width=".3" stroke-linecap="round" stroke-linejoin="round"/><path d="M561.569 30.806l.94-.926m-.231.926l1.171-.926m-.231.926l.925-.926m0 .926l.94-.695m-3.514 32.567l.477-.231m-.23.942l.925-.942m0 .942l.94-.942m0 .942l.94-.942m0 .941l.462-.478m-2.574.479l-.94-.71m1.649.71l-.94-.942m1.865.942l-.925-.942m1.865.942l-.94-.942" stroke="#FF0" stroke-width=".3" stroke-linecap="round" stroke-linejoin="round"/><path d="M565.083 62.447h.231a.23.23 0 10-.445.089.232.232 0 00.377.075.234.234 0 00.068-.165h-.231z" fill="#C49378"/><path d="M561.816 30.806l-.247-.231m1.172.231l-.925-.926m1.865.926l-.94-.926m1.88.926l-.94-.926m1.402.463l-.709-.463" stroke="#FF0" stroke-width=".3" stroke-linecap="round" stroke-linejoin="round"/><path d="M565.083 30.806h-3.514v-.926h3.514v.926z" stroke="#EEE" stroke-width="1.06" stroke-linecap="round" stroke-linejoin="round"/><path d="M565.083 31.285h6.549V29.88v.695" stroke="#EEE" stroke-width=".3" stroke-linecap="round" stroke-linejoin="round"/><path d="M565.083 30.11l.231-.23m0 1.405l1.402-1.405m.232 1.405l1.171-1.405m.231 1.405l1.402-1.405m0 1.405l1.403-1.405m0 1.405l.478-.479m-6.55 31.872l.462-.695m.231 1.406l1.418-1.406m0 1.406l1.403-1.406m.231 1.406l1.171-1.406m.231 1.406l1.402-1.406m-5.856 1.406l-.693-.71m2.111.71l-1.171-1.406m2.805 1.406l-1.403-1.406m2.805 1.406l-1.402-1.406m2.804 1.406l-1.402-1.406m-3.976-30.698l-1.171-1.174m2.573 1.174l-1.402-1.405m2.805 1.405l-1.171-1.405m2.804 1.405l-1.402-1.405m2.342.926l-.94-.926" stroke="#FF0" stroke-width=".3" stroke-linecap="round" stroke-linejoin="round"/><path d="M565.083 29.88h6.549v1.405h-6.549V29.88zm0 33.509h6.549v-1.406h-6.549v1.406zm-3.514-.942h3.514v.942h-3.514v-.942z" stroke="#EEE" stroke-width="1.06" stroke-linecap="round" stroke-linejoin="round"/><path d="M451.2 305.671l5.841-5.389-5.841-5.158m-14.963-20.847l40.683 51.082" stroke="#EEE" stroke-width=".3" stroke-linecap="round" stroke-linejoin="round"/><path d="M518.532 240.17l2.31-1.27h.996v7.1h-1.27v-5.659l-2.036 1.079v-1.25z" fill="#C49378"/><path d="M533.907 243.481c0-2.667-.79-5.273-2.268-7.49a13.433 13.433 0 00-20.699-2.043 13.502 13.502 0 00-2.916 14.692 13.473 13.473 0 004.955 6.049 13.426 13.426 0 007.474 2.272 13.431 13.431 0 0012.434-8.319 13.497 13.497 0 001.02-5.161m-235-9.985a13.505 13.505 0 00-2.26-7.494 13.463 13.463 0 00-6.035-4.971 13.428 13.428 0 00-14.666 2.912 13.5 13.5 0 002.031 20.745 13.436 13.436 0 0016.984-1.67 13.498 13.498 0 003.946-9.522z" stroke="#EEE" stroke-width=".3" stroke-linecap="round" stroke-linejoin="round"/><path d="M427.732 388.739c0 .703-.249 1.273-.747 1.709-.498.433-1.142.65-1.933.65-.781 0-1.416-.212-1.905-.635-.485-.423-.727-.982-.727-1.675h1.279c.016.355.148.646.396.874.247.225.563.337.947.337.397 0 .723-.12.977-.361.253-.241.38-.554.38-.938 0-.371-.127-.667-.38-.888-.254-.222-.577-.333-.967-.333-.313 0-.593.07-.84.21l-.474-.771 1.953-1.909h-2.802V383.9h4.433v1.06l-1.65 1.611c.609.03 1.103.243 1.484.64.384.394.576.903.576 1.528z" fill="#C49378"/><path d="M438.907 388.481a13.5 13.5 0 00-2.269-7.491 13.456 13.456 0 00-6.04-4.965 13.43 13.43 0 00-14.663 2.929 13.498 13.498 0 002.055 20.743 13.44 13.44 0 007.479 2.264 13.397 13.397 0 009.512-3.944 13.457 13.457 0 003.926-9.536" stroke="#EEE" stroke-width=".3" stroke-linecap="round" stroke-linejoin="round"/><path d="M287.298 433.319l3.223-4.419h1.708v4.248h.992v1.123h-.992V436h-1.269v-1.729h-3.662v-.952zm3.662-.171v-3.027l-2.241 3.027h2.241z" fill="#C49378"/><path d="M303.906 433.496a13.492 13.492 0 00-2.26-7.495 13.437 13.437 0 00-20.706-2.053 13.504 13.504 0 00-2.913 14.699 13.471 13.471 0 004.962 6.049 13.433 13.433 0 0016.977-1.683 13.494 13.494 0 003.94-9.517" stroke="#EEE" stroke-width=".3" stroke-linecap="round" stroke-linejoin="round"/><path d="M110.811 372.642c0 .726-.251 1.316-.752 1.772-.498.456-1.158.684-1.978.684-.778 0-1.411-.21-1.899-.63-.485-.42-.733-.974-.743-1.66h1.27c.02.364.151.652.395.864.248.211.567.317.958.317.432 0 .778-.12 1.035-.361.257-.241.385-.56.385-.957 0-.4-.125-.723-.376-.967-.25-.244-.579-.366-.986-.366a1.56 1.56 0 00-.747.176 1.105 1.105 0 00-.483.468h-1.211l.591-4.082h4.121v1.119h-3.101l-.259 1.621c.368-.267.814-.401 1.338-.401.7 0 1.281.225 1.743.674.466.446.699 1.022.699 1.729z" fill="#C49378"/><path d="M121.906 372.481c0-2.667-.789-5.273-2.267-7.49a13.433 13.433 0 00-20.699-2.043 13.507 13.507 0 00-2.916 14.692 13.48 13.48 0 004.955 6.05 13.433 13.433 0 007.474 2.271 13.431 13.431 0 0012.434-8.319 13.474 13.474 0 001.019-5.161m-2.136-191.457a13.502 13.502 0 00-2.299-7.474 13.453 13.453 0 00-6.052-4.937 13.426 13.426 0 00-14.642 2.968 13.507 13.507 0 00-2.879 14.689 13.48 13.48 0 004.962 6.037 13.44 13.44 0 007.472 2.26 13.416 13.416 0 0012.423-8.321 13.468 13.468 0 001.015-5.16M328.907 81.48c0-2.666-.789-5.272-2.268-7.489a13.457 13.457 0 00-6.037-4.965 13.429 13.429 0 00-14.662 2.922 13.5 13.5 0 00-2.916 14.691 13.476 13.476 0 004.955 6.05 13.431 13.431 0 007.474 2.272 13.414 13.414 0 009.518-3.944 13.488 13.488 0 003.936-9.536m61 105.015a13.501 13.501 0 00-2.261-7.495 13.437 13.437 0 00-20.706-2.053 13.504 13.504 0 00-2.913 14.699 13.471 13.471 0 004.962 6.049 13.433 13.433 0 007.48 2.265c3.564 0 6.982-1.418 9.502-3.943a13.483 13.483 0 003.936-9.522zm111.999-73.077a13.5 13.5 0 00-2.298-7.474 13.457 13.457 0 00-6.053-4.938 13.438 13.438 0 00-14.642 2.969 13.499 13.499 0 002.084 20.725 13.431 13.431 0 007.472 2.26 13.397 13.397 0 009.512-3.944 13.473 13.473 0 003.925-9.536" stroke="#EEE" stroke-width=".3" stroke-linecap="round" stroke-linejoin="round"/><path d="M585.532 48.17l2.31-1.27h.996V54h-1.27v-5.66l-2.036 1.08v-1.25zm5.083 2.25c0-1.174.231-2.071.694-2.69.462-.621 1.118-.932 1.967-.932.85 0 1.503.317 1.958.952.456.635.684 1.535.684 2.7 0 1.185-.23 2.09-.689 2.715-.458.622-1.11.933-1.953.933-.869 0-1.53-.318-1.982-.953-.453-.634-.679-1.543-.679-2.724zm3.975.03c0-1.693-.438-2.539-1.314-2.539-.879 0-1.318.837-1.318 2.51 0 .869.109 1.514.327 1.934.218.416.549.625.991.625.876 0 1.314-.844 1.314-2.53z" fill="#C49378"/><path d="M604.907 51.48c0-2.665-.789-5.272-2.268-7.489a13.457 13.457 0 00-6.037-4.965 13.429 13.429 0 00-14.662 2.922 13.5 13.5 0 00-2.916 14.691 13.476 13.476 0 004.955 6.05 13.431 13.431 0 0016.987-1.676 13.495 13.495 0 003.941-9.532z" stroke="#EEE" stroke-width=".3" stroke-linecap="round" stroke-linejoin="round"/><path d="M367.954 475.793H.817v16.878h367.137v-16.878zM571.632.818H.817V17.11h570.815V.82zm13.33 321.251h-29.988v16.878h29.988v-16.878zm-223.558 14.67h-6.78v13.651h6.78v-13.651zm240.387 239.565H351.449v16.661h250.342v-16.661zm-46.771-367.87H368.616v9.836H555.02v-9.836z" fill="#C49378"/><path d="M468.105 204.913h-12.559v12.569h12.559v-12.569zm-106.701-9.574h-6.78v13.65h6.78v-13.65zm46.771-46.696H301.858v6.13h106.317v-6.13zm-137.477 0h-53.905v6.13h53.905v-6.13zm-60.192 120.585H14.547v5.543h195.959v-5.543zm150.898 120.06h-59.7v6.13h59.7v-6.13zm-90.859 0h-53.659v6.13h53.659v-6.13zm90.859-54.401h-6.78v13.65h6.78v-13.65z" fill="#C49378"/><path d="M555.02 208.434H368.616v9.836H555.02v-9.836zm-187.205-3.521h-12.56v12.569h12.56v-12.569z" fill="#C49378"/><path d="M361.404 195.339h-6.78v13.65h6.78v-13.65zM554.65 326.038H368.246v9.837H554.65v-9.837zm-186.835-.818h-12.56v12.569h12.56V325.22z" fill="#C49378"/><path d="M566.624 34.867a.496.496 0 01-.493.494.494.494 0 01-.493-.494h.986zm0-1.636v1.636h-.986v-1.636l.493-.464.493.463zm-.986 0a.496.496 0 01.493-.495.494.494 0 01.493.495h-.986zm29.048.463h-28.555v-.927h28.555l.493.463-.493.464zm0-.927a.462.462 0 01.327.791.462.462 0 01-.327.136v-.927zm-.493 2.1v-1.636h.986v1.636l-.493.464-.493-.464zm.986 0a.496.496 0 01-.493.494.493.493 0 01-.493-.494h.986zm-29.048-.463h28.555v.926h-28.555v-.926zm0 .926a.462.462 0 010-.926v.926z" fill="#EEE"/><path d="M109.014 181.623c0 .728-.259 1.323-.776 1.784-.514.461-1.178.692-1.991.692-.827 0-1.49-.239-1.987-.717-.497-.477-.746-1.082-.746-1.813 0-.623.183-1.222.548-1.799.159-.247.355-.53.588-.85l1.527-2.105h1.631l-1.996 2.501a2.2 2.2 0 01.721-.104c.718 0 1.311.225 1.779.677.468.451.702 1.029.702 1.734zm-1.349.01c0-.399-.13-.721-.391-.968-.257-.248-.596-.371-1.018-.371-.425 0-.764.122-1.018.366-.25.24-.375.561-.375.963 0 .402.128.727.385.974s.598.37 1.023.37c.419 0 .755-.122 1.008-.365.257-.244.386-.567.386-.969zm180.963 54.226V237h-5.05v-.84l2.184-2.046c.349-.329.62-.599.811-.81.201-.221.355-.433.464-.638a1.39 1.39 0 00.173-.667c0-.346-.115-.624-.346-.835-.227-.211-.527-.316-.899-.316-.382 0-.687.127-.914.38-.228.251-.331.572-.312.964l-1.245-.069c-.01-.722.218-1.303.682-1.744.468-.445 1.084-.668 1.848-.668.741 0 1.347.21 1.819.628.474.418.711.952.711 1.601 0 .679-.3 1.339-.899 1.982-.247.276-.588.611-1.023 1.003l-1.161 1.062c.418-.086.957-.128 1.616-.128h1.541zm29.906-158.044v.993l-.504.737a35.2 35.2 0 00-1.314 2.026 5.947 5.947 0 00-.598 1.477c-.135.53-.203 1.181-.203 1.952h-1.368c0-.847.077-1.561.232-2.145.151-.566.382-1.11.692-1.63.257-.428.769-1.191 1.536-2.288h-3.795v-1.122h5.322zm60.366 109.07c0 .672-.244 1.212-.731 1.621-.488.405-1.138.608-1.952.608-.817 0-1.466-.206-1.947-.618-.481-.412-.722-.945-.722-1.601 0-.432.109-.817.327-1.156.217-.34.515-.582.894-.727a1.584 1.584 0 01-.647-.593 1.673 1.673 0 01-.223-.864c0-.564.21-1.012.628-1.344.422-.333.988-.5 1.7-.5.711 0 1.275.168 1.69.504.418.336.627.786.627 1.349 0 .32-.076.607-.227.86-.152.254-.359.45-.623.588.366.145.658.387.875.727.221.339.331.721.331 1.146zm-3.434-3.844a.81.81 0 00-.282.647c0 .27.096.488.287.652.194.165.446.247.756.247.309 0 .558-.082.746-.247a.817.817 0 00.286-.652.792.792 0 00-.291-.642c-.191-.165-.441-.247-.751-.247s-.56.08-.751.242zm2.1 3.775c0-.343-.124-.621-.371-.835-.247-.214-.57-.321-.968-.321-.405 0-.732.107-.979.321-.243.211-.365.489-.365.835 0 .349.122.632.365.85.247.214.574.321.979.321s.729-.107.973-.321c.244-.218.366-.501.366-.85zm113.448-75.584c0 .625-.183 1.227-.549 1.803-.158.247-.354.531-.588.85L488.35 116h-1.63l1.986-2.51a2.257 2.257 0 01-.721.104c-.732 0-1.326-.224-1.784-.672-.458-.449-.687-1.028-.687-1.74 0-.725.257-1.318.771-1.779.517-.461 1.182-.692 1.996-.692.834 0 1.497.239 1.991.717.495.474.742 1.076.742 1.804zm-2.743 1.274c.425 0 .763-.12 1.013-.36.254-.241.381-.562.381-.964 0-.402-.129-.726-.386-.973s-.598-.371-1.023-.371c-.418 0-.756.122-1.013.366-.253.244-.38.566-.38.968 0 .399.128.722.385.969.261.244.602.365 1.023.365z" fill="#C49378"/></svg>