<svg width="159" height="34" viewBox="0 0 159 34" fill="none" xmlns="http://www.w3.org/2000/svg">
<g clip-path="url(#clip0_17_16851)">
<path fill-rule="evenodd" clip-rule="evenodd" d="M39.4404 22.3691C39.4404 24.7749 39.4348 27.034 39.4348 29.4398C34.0167 30.4032 33.122 22.3691 39.4404 22.3691ZM126.648 22.3691C126.648 24.7749 126.643 27.034 126.643 29.4398C121.224 30.4032 120.33 22.3691 126.648 22.3691ZM134.649 28.5722C134.643 24.8255 134.643 21.0845 134.649 17.3378C134.66 9.26423 123.812 8.78534 118.299 11.7094C112.2 14.9434 116.571 20.9831 120.814 18.8534C123.751 17.3773 123.891 13.4391 120.752 11.777C125.787 11.2136 126.71 14.5208 126.665 17.5519C126.643 18.8478 126.665 20.0366 126.648 20.9324C112.83 18.2957 110.726 31.2539 119.233 32.8484C123.036 33.3611 125.236 32.1385 126.643 30.792V32.6851H133.641H134.649H137.62L134.649 30.3413V30.3131V28.5722ZM138.171 13.3658L141.136 15.7096L141.141 30.3357L138.171 32.6794H149.125H152.096L149.125 30.3357V30.3244V28.5722V27.0679V13.9292L151.196 13.4503C149.569 16.5266 152.006 19.2083 154.74 19.1746C159.799 19.1069 160.727 10.8812 155.483 10.1206C152.799 9.78821 150.724 11.439 149.131 12.4926V10.3178L138.171 13.3658ZM50.9687 13.3658L53.9338 15.7096L53.9394 30.3357L50.9687 32.6794H61.9231H64.8938L61.9231 30.3357V30.3244V28.9271V28.5722V27.0679V13.9292L63.9936 13.4503C62.3676 16.5266 64.8038 19.2083 67.5381 19.1746C72.5962 19.1069 73.5245 10.8812 68.2808 10.1206C65.5971 9.78821 63.521 11.439 61.9231 12.4926V10.3178L50.9687 13.3658ZM10.9488 31.2483V17.5125C19.4895 17.5125 20.2659 31.0624 10.9488 31.2483ZM10.9488 3.5682C18.0154 3.5682 17.8017 16.228 10.9488 16.228V3.5682ZM2.97069 4.46965V30.33L0 32.6907H7.87682H13.7676H15.6806C29.8644 32.0596 28.7729 16.6223 17.4922 16.8308C26.6293 16.5548 26.8825 1.99629 13.7225 2.13715L0.00563179 2.13152L2.97069 4.46965ZM97.999 0.182129V11.3657C99.2761 10.8136 103.698 8.95436 107.755 11.084C111.153 12.87 112.689 16.3857 112.847 20.014C113.106 26.003 110.292 32.5893 103.501 32.9386C101.515 33.04 99.535 32.4428 97.999 30.8821V32.6851H87.0445L90.0152 30.3413L90.0097 5.59647L87.0445 3.25269L97.999 0.182129ZM97.999 29.3779C106.123 31.3836 106.911 11.9348 97.999 12.8194V29.3779ZM79.5615 0.182129C81.739 0.182129 83.5056 1.95122 83.5056 4.1316C83.5056 6.31199 81.739 8.08109 79.5615 8.08109C77.3842 8.08109 75.6175 6.31199 75.6175 4.1316C75.6119 1.95122 77.3786 0.182129 79.5615 0.182129ZM83.5562 28.5778V29.3215V30.3413L86.5269 32.6851H83.5562H72.6018L75.5725 30.3413L75.5669 15.6701L72.6018 13.3265L83.5619 10.2558L83.5562 28.5778ZM47.441 28.5722C47.4354 24.8255 47.4354 21.0845 47.441 17.3378C47.4523 9.26423 36.6047 8.78534 31.0909 11.7094C24.992 14.9434 29.3637 20.9831 33.6059 18.8534C36.5428 17.3773 36.6835 13.4391 33.544 11.777C38.5796 11.2136 39.5023 14.5208 39.4572 17.5519C39.4348 18.8478 39.4572 20.0366 39.4404 20.9324C25.6222 18.2957 23.5179 31.2539 32.0249 32.8484C35.8283 33.3611 38.0282 32.1385 39.4348 30.792V32.6851H46.4338H47.441H50.4117L47.441 30.3413V30.3131V28.5722Z" fill="white"/>
<path fill-rule="evenodd" clip-rule="evenodd" d="M39.8338 1.30308C40.0027 1.07772 40.2052 0.88052 40.4471 0.705864C41.7073 -0.189951 43.4459 0.097385 44.3293 1.34815C45.2182 2.59891 44.9144 4.33984 43.6598 5.23566C43.4066 5.41594 43.1365 5.54553 42.8608 5.63003L35.209 7.83859L39.8338 1.30308Z" fill="white" fill-opacity="0.5"/>
</g>
<defs>
<clipPath id="clip0_17_16851">
<rect width="159" height="34" fill="white"/>
</clipPath>
</defs>
</svg>
