<svg width="16" height="16" viewBox="0 0 16 16" fill="none" xmlns="http://www.w3.org/2000/svg">
<path d="M12 3.16663H4.00004C2.80342 3.16663 1.83337 4.19547 1.83337 5.46461V12.5353C1.83337 13.8045 2.80342 14.8333 4.00004 14.8333H12C13.1967 14.8333 14.1667 13.8045 14.1667 12.5353V5.46461C14.1667 4.19547 13.1967 3.16663 12 3.16663Z" stroke="#301C3D" stroke-width="1.5"/>
<path d="M4.5 1.83337V4.16671" stroke="#301C3D" stroke-width="1.5" stroke-linecap="round"/>
<path d="M2.5 6.16669H13.5" stroke="#301C3D" stroke-width="1.5" stroke-linecap="round"/>
<path d="M11.8334 1.83337V4.16671" stroke="#301C3D" stroke-width="1.5" stroke-linecap="round"/>
<path d="M5.5 9.33331C5.77614 9.33331 6 9.10946 6 8.83331C6 8.55717 5.77614 8.33331 5.5 8.33331C5.22386 8.33331 5 8.55717 5 8.83331C5 9.10946 5.22386 9.33331 5.5 9.33331Z" fill="#301C3D"/>
<path d="M8.16663 9.33331C8.44277 9.33331 8.66663 9.10946 8.66663 8.83331C8.66663 8.55717 8.44277 8.33331 8.16663 8.33331C7.89048 8.33331 7.66663 8.55717 7.66663 8.83331C7.66663 9.10946 7.89048 9.33331 8.16663 9.33331Z" fill="#301C3D"/>
<path d="M10.8334 9.33331C11.1095 9.33331 11.3334 9.10946 11.3334 8.83331C11.3334 8.55717 11.1095 8.33331 10.8334 8.33331C10.5572 8.33331 10.3334 8.55717 10.3334 8.83331C10.3334 9.10946 10.5572 9.33331 10.8334 9.33331Z" fill="#301C3D"/>
<path d="M5.5 12C5.77614 12 6 11.7761 6 11.5C6 11.2239 5.77614 11 5.5 11C5.22386 11 5 11.2239 5 11.5C5 11.7761 5.22386 12 5.5 12Z" fill="#301C3D"/>
<path d="M8.16663 12C8.44277 12 8.66663 11.7761 8.66663 11.5C8.66663 11.2239 8.44277 11 8.16663 11C7.89048 11 7.66663 11.2239 7.66663 11.5C7.66663 11.7761 7.89048 12 8.16663 12Z" fill="#301C3D"/>
<path d="M10.8334 12C11.1095 12 11.3334 11.7761 11.3334 11.5C11.3334 11.2239 11.1095 11 10.8334 11C10.5572 11 10.3334 11.2239 10.3334 11.5C10.3334 11.7761 10.5572 12 10.8334 12Z" fill="#301C3D"/>
</svg>
