<svg width="26" height="26" viewBox="0 0 26 26" fill="none" xmlns="http://www.w3.org/2000/svg">
<path fill-rule="evenodd" clip-rule="evenodd" d="M12.8012 0C9.3249 0 8.88863 0.0152002 7.52328 0.0773342C6.1606 0.139735 5.23045 0.35547 4.41658 0.672007C3.5747 0.998944 2.86056 1.43628 2.14909 2.14802C1.43708 2.8595 0.999744 3.57364 0.67174 4.41525C0.354404 5.22939 0.138401 6.1598 0.0770674 7.52194C0.0160002 8.88729 0 9.32383 0 12.8001C0 16.2764 0.0154668 16.7114 0.0773342 18.0767C0.140001 19.4394 0.355737 20.3695 0.672007 21.1834C0.99921 22.0253 1.43655 22.7394 2.14829 23.4509C2.8595 24.1629 3.57364 24.6013 4.41498 24.9283C5.22939 25.2448 6.1598 25.4605 7.52221 25.5229C8.88756 25.5851 9.32356 25.6003 12.7996 25.6003C16.2762 25.6003 16.7111 25.5851 18.0765 25.5229C19.4391 25.4605 20.3703 25.2448 21.1848 24.9283C22.0264 24.6013 22.7394 24.1629 23.4506 23.4509C24.1627 22.7394 24.6 22.0253 24.928 21.1837C25.2427 20.3695 25.4587 19.4391 25.5227 18.077C25.584 16.7116 25.6 16.2764 25.6 12.8001C25.6 9.32383 25.584 8.88756 25.5227 7.52221C25.4587 6.15953 25.2427 5.22939 24.928 4.41551C24.6 3.57364 24.1627 2.8595 23.4506 2.14802C22.7386 1.43601 22.0266 0.998677 21.184 0.672007C20.3679 0.35547 19.4373 0.139735 18.0746 0.0773342C16.7092 0.0152002 16.2746 0 12.7972 0H12.8012ZM12.3743 2.30657H12.3746L12.8012 2.30669C16.2188 2.30669 16.6239 2.31896 17.9735 2.38029C19.2215 2.43736 19.8989 2.64589 20.3501 2.8211C20.9474 3.0531 21.3733 3.33043 21.821 3.77844C22.269 4.22644 22.5464 4.65312 22.7789 5.25045C22.9541 5.70113 23.1629 6.37847 23.2197 7.62648C23.281 8.97583 23.2944 9.38116 23.2944 12.7972C23.2944 16.2132 23.281 16.6186 23.2197 17.9679C23.1626 19.2159 22.9541 19.8933 22.7789 20.3439C22.5469 20.9413 22.269 21.3666 21.821 21.8144C21.373 22.2624 20.9477 22.5397 20.3501 22.7717C19.8994 22.9477 19.2215 23.1557 17.9735 23.2128C16.6242 23.2741 16.2188 23.2874 12.8012 23.2874C9.3833 23.2874 8.97823 23.2741 7.62888 23.2128C6.38087 23.1552 5.70353 22.9466 5.25205 22.7714C4.65472 22.5394 4.22804 22.2621 3.78004 21.8141C3.33203 21.3661 3.0547 20.9405 2.82216 20.3429C2.64696 19.8922 2.43816 19.2149 2.38136 17.9669C2.32002 16.6175 2.30776 16.2122 2.30776 12.794C2.30776 9.37583 2.32002 8.97263 2.38136 7.62328C2.43843 6.37527 2.64696 5.69793 2.82216 5.24672C3.05417 4.64938 3.33203 4.22271 3.78004 3.77471C4.22804 3.3267 4.65472 3.04937 5.25205 2.81683C5.70326 2.64083 6.38087 2.43283 7.62888 2.37549C8.80969 2.32216 9.2673 2.30616 11.6529 2.30349V2.30669C11.8758 2.30634 12.1156 2.30645 12.3743 2.30657ZM18.0978 5.96753C18.0978 5.11925 18.7858 4.43205 19.6338 4.43205V4.43151C20.4818 4.43151 21.1698 5.11952 21.1698 5.96753C21.1698 6.81554 20.4818 7.50354 19.6338 7.50354C18.7858 7.50354 18.0978 6.81554 18.0978 5.96753ZM12.8009 6.22673C9.17088 6.22687 6.2278 9.17005 6.2278 12.8001C6.2278 16.4303 9.17103 19.3722 12.8012 19.3722C16.4314 19.3722 19.3735 16.4303 19.3735 12.8001C19.3735 9.16996 16.4311 6.22673 12.8009 6.22673ZM17.0679 12.8001C17.0679 10.4436 15.1575 8.53342 12.8012 8.53342C10.4446 8.53342 8.53449 10.4436 8.53449 12.8001C8.53449 15.1564 10.4446 17.0668 12.8012 17.0668C15.1575 17.0668 17.0679 15.1564 17.0679 12.8001Z" fill="#0C8FD0"/>
</svg>
