<svg width="158" height="51" viewBox="0 0 158 51" fill="none" xmlns="http://www.w3.org/2000/svg">
<path fill-rule="evenodd" clip-rule="evenodd" d="M96.4935 35.014C104.685 37.0354 105.479 17.4354 96.4935 18.3188V35.014ZM96.4935 5.59155V16.8664C97.7814 16.3124 102.244 14.4408 106.333 16.5819C109.762 18.3787 111.305 21.9274 111.47 25.5809C111.724 31.6151 108.894 38.2632 102.05 38.6076C100.043 38.7124 98.051 38.1135 96.5085 36.5413V38.3531H85.4709L88.4662 35.9873V11.0418L85.4709 8.67605L96.4935 5.59155ZM137.004 18.8729L140 21.2386V35.9873L137.004 38.3531H148.042H151.037L148.042 35.9873V35.9723V34.2055V32.6932V19.4418L150.123 18.9627C148.491 22.0622 150.947 24.7723 153.703 24.7274C158.81 24.6525 159.738 16.3723 154.452 15.5937C151.741 15.2643 149.659 16.9263 148.042 17.9894V15.8033L137.004 18.8729ZM133.455 34.2055C133.455 30.4322 133.455 26.659 133.455 22.8857C133.47 14.7402 122.522 14.2611 116.966 17.2108C110.811 20.475 115.229 26.5541 119.497 24.413C122.462 22.9306 122.597 18.9477 119.437 17.2857C124.514 16.7167 125.443 20.0557 125.398 23.1103C125.383 24.413 125.398 25.6108 125.383 26.5242C111.455 23.8589 109.328 36.9306 117.91 38.5328C121.743 39.0568 123.96 37.814 125.383 36.4665V38.3681H132.437H133.455H136.45L133.455 36.0023V35.9723V34.2055ZM125.383 27.9616C125.383 30.3873 125.383 32.6632 125.383 35.0889C119.916 36.0622 119.018 27.9616 125.383 27.9616Z" fill="#301C3D"/>
<path d="M36.3038 25.9551C34.7463 25.1915 33.1438 26.045 35.3154 26.5691C37.9063 27.183 36.214 30.507 32.7245 33.2621C28.6809 36.4364 21.672 39.7156 14.4235 39.7156C-1.76585 39.7156 1.90333 23.769 11.7427 21.014C17.7183 19.307 23.559 21.4482 24.1131 19.5466C24.817 16.1776 12.9558 18.5434 14.2288 11.1017C15.3071 5.02251 25.1016 0.515551 32.4399 1.23427C41.0513 2.13266 35.8246 10.5776 31.4964 11.0567C29.3848 11.2963 28.9505 12.5241 31.6312 11.9102C41.1412 9.76904 43.5823 1.36903 32.6197 0.0963008C25.1315 -0.757176 11.3534 4.12411 10.6345 12.2845C10.3949 15.0846 13.6447 17.2706 16.2805 18.214C14.7679 18.2589 13.1206 18.5434 11.5331 19.0225C-3.83258 23.6792 -4.73115 40.7637 14.2288 40.7637C22.0015 40.7637 29.9988 38.2482 34.6564 34.5498C38.8049 31.2707 39.7484 27.707 36.3038 25.9551Z" fill="#02A8E9"/>
<path d="M49.6925 11.1466C45.6489 17.2258 39.4338 31.4054 36.2289 35.6728C35.9443 36.107 36.2289 36.6161 36.6033 36.2867C37.5468 35.3883 39.4338 31.9744 41.5904 27.8418C40.1826 31.121 38.5801 33.8161 37.7265 37.0953C37.5318 37.7092 37.4419 38.1434 38.1009 38.1434H41.0662C40.2725 37.4846 41.5305 32.3488 42.3841 30.7466C43.6571 28.9498 45.0199 27.5274 46.248 26.4343C51.6544 21.7776 53.7361 25.1017 50.7708 27.5274C49.6925 28.4258 48.0901 29.0397 47.0567 28.9498C46.0233 29.0397 44.2861 31.3156 44.8402 34.4001C45.3045 36.8707 46.7722 38.2482 48.4645 38.4279C51.1902 38.7124 54.1105 37.9488 57.8246 29.3242C58.1541 28.5605 57.585 28.1413 57.2106 28.8899C55.8927 31.645 54.5748 34.1156 53.3917 35.3883C49.0635 40.045 46.0533 34.1006 47.8355 29.6985C49.9022 29.5038 51.1752 28.845 52.583 27.8418C56.1623 25.2814 56.7314 19.9659 50.651 22.2418C47.9253 23.2899 44.96 26.4193 42.9832 28.8899C43.4474 27.4675 44.0615 26.0899 44.6755 24.8621C47.8355 18.5584 52.6279 10.8621 55.0241 9.0204C54.3651 9.17013 53.6612 8.87067 53.0472 8.82575H52.8076C51.8192 8.78083 50.8307 9.48457 49.6925 11.1466Z" fill="#02A8E9"/>
<path d="M68.9071 21.538C65.7022 20.6396 61.8982 27.1829 60.4755 29.5038C61.0895 27.8866 61.7485 25.3711 61.7934 23.8139C61.8833 21.4931 61.4639 21.7326 60.1011 21.8674C59.7267 21.9123 57.7947 22.2417 57.7947 22.2417C58.918 22.4813 58.4088 26.0898 57.5102 28.1711C57.2706 28.7401 56.8063 29.8332 56.5667 30.3123C56.2372 30.9711 57.1358 30.6866 57.645 29.8781C56.7913 34.1904 48.794 49.6129 47.6259 50.7508C48.2848 50.661 48.9887 50.9455 49.6027 50.9904C51.1603 51.0802 51.8192 50.5562 52.7627 48.5198L57.2406 37.2749C60.5803 39.2663 64.7287 37.6492 67.3196 34.5198C70.7492 30.3722 73.385 22.7807 68.9071 21.538ZM67.6341 28.9497C65.0882 33.6513 59.9214 38.9219 57.615 36.5861C59.8315 32.4086 62.1379 28.2759 63.92 25.8203C67.9187 20.1604 70.7492 23.1102 67.6341 28.9497Z" fill="#02A8E9"/>
<path d="M85.2313 29.2792C85.6956 28.276 84.767 28.3808 84.3777 29.2342C83.2994 31.7497 80.7534 37.3498 76.605 37.3498C73.5049 37.3498 74.2986 32.5583 75.0025 30.8514C76.2755 30.8514 79.3307 29.8481 80.7983 28.7701C83.8086 26.4492 85.1714 23.215 83.3892 21.8374C81.3225 20.2652 77.7432 22.077 75.347 24.9219C73.2802 27.3925 71.6778 30.9412 71.7227 33.8011C71.7677 36.7957 73.8943 38.353 76.2455 38.353C81.4723 38.338 83.4941 33.0674 85.2313 29.2792ZM80.349 27.9465C78.6567 29.369 76.2006 30.0278 75.362 30.0278C75.7813 29.1743 76.9644 27.0931 78.1925 25.5658C83.9733 18.4984 84.1979 24.6674 80.349 27.9465Z" fill="#02A8E9"/>
</svg>
