<svg width="246" height="246" viewBox="0 0 246 246" fill="none" xmlns="http://www.w3.org/2000/svg">
<path d="M194.35 28C193.751 27.1575 193.948 24.9855 194.737 24.4226C195.669 23.7562 197.921 24.0773 199.022 24.0773C199.89 24.0773 200.998 24.0532 201.604 24.9889C202.117 25.7866 201.985 27.1057 201.985 27.1057" stroke="#301C3D" stroke-width="1.5" stroke-linecap="round" stroke-linejoin="round"/>
<path d="M195.007 24.6798C192.916 24.7608 192.778 23.7385 193.18 22.9708C193.845 21.6938 196.125 22.041 199.009 22.0487C204.553 22.068 202.93 24.5795 202.221 25" stroke="#301C3D" stroke-width="1.5" stroke-linecap="round" stroke-linejoin="round"/>
<path d="M220.437 40.088C219.154 38.7529 217.505 37.8327 215.701 37.4446C214.88 36.4086 214.089 35.2507 213.59 34.6108C209.655 29.5716 202.906 26.2312 196.319 27.1529C191.333 27.8614 186.074 31.0342 184.546 35.9134C183.891 37.9969 183.713 40.3051 184.644 42.3315C185.223 43.5961 186.74 46.9327 189.895 47.664C190.343 46.3399 190.857 45.0394 191.435 43.7675C194.598 45.4891 200.197 44.7197 201.88 42.2439C202.195 45.6719 207.048 44.6778 209.542 44.0645C209.542 45.47 210.922 47.1117 212.035 47.8735C212.478 48.1711 212.952 48.4177 213.45 48.6086C213.113 49.9417 212.644 51.3586 212.114 52.8175C215.984 53.7773 220.816 50.8597 221.837 46.228C222.284 44.1598 221.811 41.6535 220.437 40.088Z" fill="#B8D7FF" stroke="#B8D7FF" stroke-width="1.5" stroke-linecap="round" stroke-linejoin="round"/>
<path d="M158 107C159.271 104.307 160.321 100.301 163 99" stroke="#301C3D" stroke-width="1.5" stroke-linecap="round" stroke-linejoin="round"/>
<path d="M174 87C170.807 87.0538 167.643 87.6331 164.631 88.7155C159.497 90.6312 154.096 95.5811 150.536 99.6732C146.726 104.068 140.832 108.965 139 110" stroke="#301C3D" stroke-width="1.5" stroke-linecap="round" stroke-linejoin="round"/>
<path d="M21 209C19.515 214.096 16.2582 224 16.2582 224H10C10 224 10.9664 213.963 11.5007 209.078" stroke="#301C3D" stroke-width="1.5" stroke-linecap="round" stroke-linejoin="round"/>
<path d="M92 208.677C93.4845 213.883 96.7401 224 96.7401 224H103C103 224 102.038 212.991 101.5 208" stroke="#301C3D" stroke-width="1.5" stroke-linecap="round" stroke-linejoin="round"/>
<path d="M75.3523 209C76.033 213.545 77 224 77 224H70.8579C70.1579 221.095 66 209 66 209" stroke="#301C3D" stroke-width="1.5" stroke-linecap="round" stroke-linejoin="round"/>
<path d="M212 208C213.434 213.061 216.961 224 216.961 224H223C223 224 222.071 213.297 221.555 208.445" stroke="#301C3D" stroke-width="1.5" stroke-linecap="round" stroke-linejoin="round"/>
<path d="M141.965 208C141.307 212.514 140 224 140 224H145.931C146.607 221.115 151 208 151 208" stroke="#301C3D" stroke-width="1.5" stroke-linecap="round" stroke-linejoin="round"/>
<path d="M235.797 93.6197C231.842 92.0786 225.961 92 220.497 92H220.234C220.099 93.212 219.904 94.5138 219.757 95.8941C218.586 106.888 214.316 118.17 210.823 128.633V128.929H141.64C138.366 128.734 134.039 129.104 131.655 131.652C129.54 133.896 130.509 137.551 130.701 140.506C131.05 145.893 131.996 151.321 132.826 156.692L133.27 159.483C130.99 159.917 130.476 162.85 127.839 162.823C126.078 162.823 125.282 161.376 123.731 160.979C118.811 159.726 117.196 165.969 112.731 165.532C110.249 165.292 109.257 163.976 106.516 165.741C105.637 166.31 104.747 168.016 104.011 168.36C103.065 168.786 88.9028 169.508 86.259 169.826C85.3352 169.938 83.2959 169.766 82.5035 169.078C81.7112 168.39 80.9375 164.178 80.4906 159.909C80.0437 155.641 78.5378 150.15 72.7845 149.862C67.0311 149.574 53.3689 149.035 43.1165 150.023C31.2155 151.171 1.63394 144.935 1.18329 163.833C0.939185 173.907 0.66128 184.213 2.35498 194.219C2.89201 197.414 3.61306 202.24 5.90012 205.191C6.41598 205.869 7.05243 206.447 7.77784 206.897C10.4066 208.505 14.3085 207.881 17.2115 207.881H35.3277C53.8683 207.881 71.8231 207.634 90.3599 207.746C93.0864 207.746 95.8016 207.54 98.3778 206.702H220.632C227.189 206.702 228.245 199.715 230.021 193.441C232.83 183.607 233.998 173.402 235.523 163.284C236.841 154.534 238.309 145.612 240.311 137.001C242.455 127.776 242.917 118.507 243.86 109.114C244.569 102.1 242.692 96.2944 235.797 93.6197Z" fill="#E94A43" stroke="#E94A43" stroke-width="1.5" stroke-linecap="round" stroke-linejoin="round"/>
<g opacity="0.4">
<path opacity="0.4" d="M187 60L189 62" stroke="#E94A43" stroke-width="1.5" stroke-linecap="round" stroke-linejoin="round"/>
<path opacity="0.4" d="M189 58L193 63" stroke="#E94A43" stroke-width="1.5" stroke-linecap="round" stroke-linejoin="round"/>
<path opacity="0.4" d="M192 58L196 63" stroke="#E94A43" stroke-width="1.5" stroke-linecap="round" stroke-linejoin="round"/>
<path opacity="0.4" d="M196 58L200 64" stroke="#E94A43" stroke-width="1.5" stroke-linecap="round" stroke-linejoin="round"/>
<path opacity="0.4" d="M201 59L203 63" stroke="#E94A43" stroke-width="1.5" stroke-linecap="round" stroke-linejoin="round"/>
</g>
<path d="M131.2 132C130.074 128.47 133.883 122.405 137.955 120.573C142.533 118.524 149.772 115.612 155 116.043" stroke="#301C3D" stroke-width="1.5" stroke-linecap="round" stroke-linejoin="round"/>
<path d="M170 111.818V111.716C167.337 104.679 150.199 107.348 144.764 108.264C133.294 110.198 124.047 118.484 112.514 121.789C110.48 122.376 102.905 122.925 98.2876 125.495C97.0032 125.495 95.7301 125.635 94.4909 125.696C90.3815 125.896 85.3908 127.047 81.9292 127.509C79.4132 127.255 76.5769 127.391 74.0533 127.509C71.7406 127.615 58 129.171 58 129.171C60.8664 129.928 63.0473 132.956 64.2149 135.859C65.8195 139.819 66.4749 145.52 66.1961 149.866V150.486C68.8328 150.566 71.1266 150.672 72.7651 150.755C78.5355 151.047 80.0459 156.6 80.4942 160.923C80.9424 165.246 81.6882 169.459 82.5131 170.201C83.3379 170.943 85.3493 171.087 86.2797 170.958C88.9163 170.636 103.135 169.906 104.084 169.474C104.838 169.137 105.715 167.411 106.597 166.824C109.346 165.038 110.341 166.37 112.83 166.612C117.309 167.055 118.929 160.737 123.863 162.005C125.418 162.407 126.217 163.86 127.984 163.872C130.62 163.872 131.155 161.006 133.441 160.567" stroke="#301C3D" stroke-width="1.5" stroke-linecap="round" stroke-linejoin="round"/>
<path d="M138.502 195C137.824 189.354 133.523 163.652 132.508 156.982C131.68 151.577 130.735 146.115 130.387 140.694C130.196 137.721 129.229 134.058 131.339 131.785C133.718 129.221 138.034 128.849 141.301 129.044H215.038C222.258 129.044 222.333 138.62 223 143.269" stroke="#301C3D" stroke-width="1.5" stroke-linecap="round" stroke-linejoin="round"/>
<path d="M211.123 129C214.73 118.58 219.139 107.368 220.349 96.4309C221.017 90.4136 222.634 85.8438 215.696 84.1841C213.136 83.57 208.137 82.9411 206 83.0044" stroke="#301C3D" stroke-width="1.5" stroke-linecap="round" stroke-linejoin="round"/>
<path d="M196 95C194.578 99.7852 189.645 103.566 194.612 108.378C190.572 105.408 186.392 108.192 186.486 113.417C185.681 109.568 177.869 111.42 175.433 111.644C170.338 112.11 165.534 112.08 160.711 113.75C156.962 115.05 154.118 115.834 153.561 119.907C153.244 122.222 152.4 127.216 153.709 129" stroke="#301C3D" stroke-width="1.5" stroke-linecap="round" stroke-linejoin="round"/>
<path d="M207 111.297C207.322 111.151 207.658 111.052 208 111" stroke="#301C3D" stroke-width="1.5" stroke-linecap="round" stroke-linejoin="round"/>
<path d="M200 106C199.683 105.624 199.348 105.289 199 105" stroke="#301C3D" stroke-width="1.5" stroke-linecap="round" stroke-linejoin="round"/>
<path d="M202 101C202.563 100.718 202.912 100.369 203 100" stroke="#301C3D" stroke-width="1.5" stroke-linecap="round" stroke-linejoin="round"/>
<path d="M213 94C213.217 93.9625 213.423 93.8507 213.599 93.6755C213.774 93.5003 213.912 93.2676 214 93" stroke="#301C3D" stroke-width="1.5" stroke-linecap="round" stroke-linejoin="round"/>
<path d="M211 89V88" stroke="#301C3D" stroke-width="1.5" stroke-linecap="round" stroke-linejoin="round"/>
<path d="M217 87.293C217.354 87.2637 217.696 87.1635 218 87" stroke="#301C3D" stroke-width="1.5" stroke-linecap="round" stroke-linejoin="round"/>
<path d="M215 106.078C215.433 105.924 215.831 105.987 216 106.374" stroke="#301C3D" stroke-width="1.5" stroke-linecap="round" stroke-linejoin="round"/>
<path d="M206 95L205 94" stroke="#301C3D" stroke-width="1.5" stroke-linecap="round" stroke-linejoin="round"/>
<path d="M194.413 128C192.567 122.652 197.251 121.312 201.686 120.936C207.07 120.476 209.443 114.599 215 116.312" stroke="#301C3D" stroke-width="1.5" stroke-linecap="round" stroke-linejoin="round"/>
<path d="M168 126C167.677 126.143 167.342 126.241 167 126.293" stroke="#301C3D" stroke-width="1.5" stroke-linecap="round" stroke-linejoin="round"/>
<path d="M161.297 120C161.124 119.7 161.022 119.356 161 119" stroke="#301C3D" stroke-width="1.5" stroke-linecap="round" stroke-linejoin="round"/>
<path d="M165 117V116" stroke="#301C3D" stroke-width="1.5" stroke-linecap="round" stroke-linejoin="round"/>
<path d="M177 121V122" stroke="#301C3D" stroke-width="1.5" stroke-linecap="round" stroke-linejoin="round"/>
<path d="M187 120.064C187.171 119.991 187.35 119.98 187.524 120.032C187.698 120.084 187.862 120.196 188 120.361" stroke="#301C3D" stroke-width="1.5" stroke-linecap="round" stroke-linejoin="round"/>
<path d="M192 113L193 112" stroke="#301C3D" stroke-width="1.5" stroke-linecap="round" stroke-linejoin="round"/>
<path d="M181 114C181 113.527 181.342 113.127 182 113" stroke="#301C3D" stroke-width="1.5" stroke-linecap="round" stroke-linejoin="round"/>
<path d="M143 123C139.876 122.97 134.198 126.613 134 130" stroke="#301C3D" stroke-width="1.5" stroke-linecap="round" stroke-linejoin="round"/>
<path d="M197.853 87.7045C192.106 91.6917 187.081 98.6347 184.245 105C180.358 104.325 175.134 104.115 171 103.893C171.864 98.3721 178.326 90.1876 182.718 87.0555C185.611 84.9925 188.653 86.1028 192.046 86.958C196.162 87.997 198.987 87.997 202.564 85.4351C205.261 83.5072 206.84 81.7292 206.994 78.0271C207.132 74.6812 205.04 73.7885 201.913 74.0398C197.853 74.3661 193.367 76.1741 189.236 76.9956C185.659 77.7045 182.595 77.0518 179.134 77.2881C175.542 77.5357 173.72 82.3069 174.27 85.8665C174.921 90.0713 177.203 88.5109 180.294 88.8035" stroke="#301C3D" stroke-width="1.5" stroke-linecap="round" stroke-linejoin="round"/>
<path d="M182 105C181.523 105.607 181.184 106.285 181 107" stroke="#301C3D" stroke-width="1.5" stroke-linecap="round" stroke-linejoin="round"/>
<path d="M178 108C178.156 106.949 178.494 105.934 179 105" stroke="#301C3D" stroke-width="1.5" stroke-linecap="round" stroke-linejoin="round"/>
<path d="M175 104C174.457 105.27 174.179 107.069 174 108" stroke="#301C3D" stroke-width="1.5" stroke-linecap="round" stroke-linejoin="round"/>
<path d="M172 104C171.593 104.963 171.259 105.967 171 107" stroke="#301C3D" stroke-width="1.5" stroke-linecap="round" stroke-linejoin="round"/>
<path d="M26 150.112C32.6465 150.112 38.9645 151.447 43.2281 150.843C50.0257 149.874 59.4668 149.896 66 150.145" stroke="#301C3D" stroke-width="1.5" stroke-linecap="round" stroke-linejoin="round"/>
<path d="M103.367 169C103.866 176.173 103.972 188.28 103.979 195.392C103.979 200.218 104.443 204.471 101 207" stroke="#301C3D" stroke-width="1.5" stroke-linecap="round" stroke-linejoin="round"/>
<path d="M77.5557 207C78.2333 189.401 78.6154 170.335 75 154" stroke="#301C3D" stroke-width="1.5" stroke-linecap="round" stroke-linejoin="round"/>
<path d="M110 130C107.427 127.247 101.934 125.292 98 125" stroke="#301C3D" stroke-width="1.5" stroke-linecap="round" stroke-linejoin="round"/>
<path d="M20 155C21.5686 152.914 24.7059 150.733 27 150" stroke="#301C3D" stroke-width="1.5" stroke-linecap="round" stroke-linejoin="round"/>
<path d="M28 154C28.3399 152.687 30.7233 150.279 32 150" stroke="#301C3D" stroke-width="1.5" stroke-linecap="round" stroke-linejoin="round"/>
<path d="M81 148C95.4981 148 99.4434 147.943 103.741 151.316C106.889 153.785 107.734 158.848 110 162" stroke="#301C3D" stroke-width="1.5" stroke-linecap="round" stroke-linejoin="round"/>
<path d="M115 146C116.88 148.819 117.902 155.611 121 158" stroke="#301C3D" stroke-width="1.5" stroke-linecap="round" stroke-linejoin="round"/>
<path d="M119 139C122 141.243 123.433 153.497 127 156" stroke="#301C3D" stroke-width="1.5" stroke-linecap="round" stroke-linejoin="round"/>
<path d="M82 127C86.2719 127.414 90.2002 128.938 93 132" stroke="#301C3D" stroke-width="1.5" stroke-linecap="round" stroke-linejoin="round"/>
<path d="M44 155C45.2692 152.945 47.5756 150.324 50 150" stroke="#301C3D" stroke-width="1.5" stroke-linecap="round" stroke-linejoin="round"/>
<path d="M212.434 48C211.43 52.0224 209.202 56.8036 207.757 61.3638C209.952 61.4006 214.593 61.6732 213.937 65.1762C213.401 68.0494 208.797 68.1414 206.63 68.123C206.003 69.5964 205 73 205 73" stroke="#301C3D" stroke-width="1.5" stroke-linecap="round" stroke-linejoin="round"/>
<path d="M180 77C180 77 182.319 70.3572 183.183 66.7977C184.135 62.8743 185.643 59.1234 186.991 55.3088C188.182 51.8768 189.309 47.5671 191 44" stroke="#301C3D" stroke-width="1.5" stroke-linecap="round" stroke-linejoin="round"/>
<path d="M189 41C190.524 44.9452 199 44.6128 201.114 41.5636C201.421 44.8152 206.155 43.8722 208.587 43.2905C208.587 44.6237 209.934 46.1808 211.018 46.9034C212.183 47.6946 213.586 48.0766 215 47.9872" stroke="#301C3D" stroke-width="1.5" stroke-linecap="round" stroke-linejoin="round"/>
<path d="M189 58L190 56" stroke="#301C3D" stroke-width="1.5" stroke-linecap="round" stroke-linejoin="round"/>
<path d="M138 117C138.883 117.473 140.161 117.99 139.983 119" stroke="#301C3D" stroke-width="1.5" stroke-linecap="round" stroke-linejoin="round"/>
<path d="M144 114C144.744 114.497 147.714 116.394 146.841 117" stroke="#301C3D" stroke-width="1.5" stroke-linecap="round" stroke-linejoin="round"/>
<path d="M199 59L200 57" stroke="#301C3D" stroke-width="1.5" stroke-linecap="round" stroke-linejoin="round"/>
<path d="M187 66C187 66 180.896 61.3396 177.978 59.2559C175.299 57.344 172.673 55.2752 170.021 53.3819C168.884 55.5478 166.152 53.3334 167.259 51.1899C168.752 48.2959 172.234 51.3356 170.021 53.3819" fill="#E94A43"/>
<path d="M187 66C187 66 180.896 61.3396 177.978 59.2559C175.299 57.344 172.673 55.2752 170.021 53.3819C168.884 55.5478 166.152 53.3334 167.259 51.1899C168.752 48.2959 172.234 51.3356 170.021 53.3819" stroke="#E94A43" stroke-width="1.5" stroke-linecap="round" stroke-linejoin="round"/>
<path d="M183 65.6291C183 65.6291 183.916 67.1865 184.763 67.2882C186.029 67.4274 187.758 64.7334 188.894 65.5918C189.574 66.1007 188.514 67.2034 188.913 67.7191C189.673 68.6284 190.954 67.0813 191.448 66.5893C192.463 65.5714 194.279 64.1057 195.214 65.7173C195.792 66.7182 195.043 67.5495 197 67.3018" stroke="#301C3D" stroke-width="1.5" stroke-linecap="round" stroke-linejoin="round"/>
<path d="M168.67 46C168.216 45.2633 167.988 44.4713 168 43.6727C168.013 42.874 168.266 42.0856 168.743 41.3556C169.662 39.9227 167.786 38.4709 168.239 37" stroke="#301C3D" stroke-width="1.5" stroke-linecap="round" stroke-linejoin="round"/>
<path d="M171.229 47C170.806 45.8351 170.972 44.6127 171.704 43.5139C171.928 43.1073 172.027 42.6759 171.994 42.2445C171.961 41.8131 171.796 41.3902 171.51 41" stroke="#301C3D" stroke-width="1.5" stroke-linecap="round" stroke-linejoin="round"/>
<path d="M165.466 47C164.473 45.6118 165.304 44.2235 165.784 43.0039C166.125 42.0104 166.061 40.9692 165.6 40" stroke="#301C3D" stroke-width="1.5" stroke-linecap="round" stroke-linejoin="round"/>
<path d="M199 92C199.279 91.5213 199.623 91.1769 200 91" stroke="#301C3D" stroke-width="1.5" stroke-linecap="round" stroke-linejoin="round"/>
<path d="M203 86C203.381 86.0761 203.727 86.2254 204 86.432" stroke="#301C3D" stroke-width="1.5" stroke-linecap="round" stroke-linejoin="round"/>
<path d="M210 101C210.317 100.616 210.652 100.282 211 100" stroke="#301C3D" stroke-width="1.5" stroke-linecap="round" stroke-linejoin="round"/>
<path d="M191 100C191.604 100.405 192.277 100.741 193 101" stroke="#301C3D" stroke-width="1.5" stroke-linecap="round" stroke-linejoin="round"/>
<path d="M188 104C188.393 103.732 188.732 103.393 189 103" stroke="#301C3D" stroke-width="1.5" stroke-linecap="round" stroke-linejoin="round"/>
<path d="M165 103C165.271 103.42 165.612 103.762 166 104" stroke="#301C3D" stroke-width="1.5" stroke-linecap="round" stroke-linejoin="round"/>
<path d="M166 101C166.027 100.743 166.141 100.503 166.323 100.321C166.506 100.139 166.745 100.026 167 100" stroke="#301C3D" stroke-width="1.5" stroke-linecap="round" stroke-linejoin="round"/>
<path d="M172 96C172.305 96.1415 172.644 96.2397 173 96.2892" stroke="#301C3D" stroke-width="1.5" stroke-linecap="round" stroke-linejoin="round"/>
<path d="M174 92C174.008 91.6581 174.056 91.3203 174.143 91" stroke="#301C3D" stroke-width="1.5" stroke-linecap="round" stroke-linejoin="round"/>
<path d="M171 88C171.105 87.6554 171.21 87.3264 171.289 87" stroke="#301C3D" stroke-width="1.5" stroke-linecap="round" stroke-linejoin="round"/>
<path d="M163 89C163.292 89.1731 163.629 89.3187 164 89.4312" stroke="#301C3D" stroke-width="1.5" stroke-linecap="round" stroke-linejoin="round"/>
<path d="M159 96.4312C159.365 96.3137 159.702 96.1687 160 96" stroke="#301C3D" stroke-width="1.5" stroke-linecap="round" stroke-linejoin="round"/>
<path d="M165 93C165.302 93.1514 165.658 93.2022 166 93.1427" stroke="#301C3D" stroke-width="1.5" stroke-linecap="round" stroke-linejoin="round"/>
<path d="M218 98.2667C218.675 98.2573 219.346 98.1678 220 98" stroke="#301C3D" stroke-width="1.5" stroke-linecap="round" stroke-linejoin="round"/>
<path d="M199 119C199.07 118.645 199.167 118.309 199.289 118" stroke="#301C3D" stroke-width="1.5" stroke-linecap="round" stroke-linejoin="round"/>
<path d="M184.428 128L184 129" stroke="#301C3D" stroke-width="1.5" stroke-linecap="round" stroke-linejoin="round"/>
<path d="M180 127H179" stroke="#301C3D" stroke-width="1.5" stroke-linecap="round" stroke-linejoin="round"/>
<path d="M174.002 114C173.987 113.784 174.076 113.571 174.256 113.391C174.435 113.212 174.696 113.075 175 113" stroke="#301C3D" stroke-width="1.5" stroke-linecap="round" stroke-linejoin="round"/>
<path d="M160.431 115L160 114" stroke="#301C3D" stroke-width="1.5" stroke-linecap="round" stroke-linejoin="round"/>
<path d="M157 126C156.73 126.374 156.393 126.711 156 127" stroke="#301C3D" stroke-width="1.5" stroke-linecap="round" stroke-linejoin="round"/>
<path d="M153 122C153.338 122.056 153.673 122.153 154 122.289" stroke="#301C3D" stroke-width="1.5" stroke-linecap="round" stroke-linejoin="round"/>
<path d="M146 105C145.601 104.74 145.261 104.399 145 104" stroke="#301C3D" stroke-width="1.5" stroke-linecap="round" stroke-linejoin="round"/>
<path d="M153 105.289C153.178 105.316 153.359 105.305 153.531 105.255C153.704 105.205 153.864 105.118 154 105" stroke="#301C3D" stroke-width="1.5" stroke-linecap="round" stroke-linejoin="round"/>
<path d="M154.289 100C154.151 99.685 154.054 99.348 154 99" stroke="#301C3D" stroke-width="1.5" stroke-linecap="round" stroke-linejoin="round"/>
<path d="M45.283 148.733C42.5957 143.338 40.6369 138.055 39.5763 131.752C38.9573 128.085 36.4059 116.97 39.5008 114.141C47.1249 107.178 52.9335 134.162 53.6959 139.008C54.0922 141.511 54.3262 146.916 52.9222 149" stroke="#301C3D" stroke-width="1.5" stroke-linecap="round" stroke-linejoin="round"/>
<path d="M26.1878 150C23.4703 144.873 21.5701 139.355 20.5557 133.644C19.9448 130.195 17.4268 119.735 20.4812 117.073C28.0018 110.524 33.7345 135.904 34.4907 140.469C34.8632 142.826 35.6081 148.104 34.0586 149.967" stroke="#301C3D" stroke-width="1.5" stroke-linecap="round" stroke-linejoin="round"/>
<path d="M39 127C37.9704 123.952 34.4457 120.235 31.3837 118.317C28.3218 116.399 23.9834 115.857 23 116.03" stroke="#301C3D" stroke-width="1.5" stroke-linecap="round" stroke-linejoin="round"/>
<path d="M35 141C36.6801 140.065 39.1765 138.455 40 137" stroke="#301C3D" stroke-width="1.5" stroke-linecap="round" stroke-linejoin="round"/>
<path d="M42 113C48.0949 114.414 53.6115 121.729 56.3497 127.152C57.382 129.194 56.9903 131.453 56.5071 133.042C56.0239 134.632 54.1057 138.297 53.3113 139" stroke="#301C3D" stroke-width="1.5" stroke-linecap="round" stroke-linejoin="round"/>
</svg>
