<svg width="246" height="248" viewBox="0 0 246 248" fill="none" xmlns="http://www.w3.org/2000/svg">
<path d="M146.002 24.7731C146.839 24.9177 148.501 24.8474 149.613 25.3009C150.03 25.4407 150.392 25.7157 150.647 26.0852C150.901 26.4547 151.035 26.8993 151.027 27.3533C150.929 29.8633 147.698 29.8984 146.054 30.61C145.954 32.8047 145.992 35.0039 146.168 37.1936C146.303 39.1483 145.93 40.8099 147.559 42.2017C148.69 43.1634 150.793 43.957 152.173 44.2581C155.879 45.0634 158.804 45.7515 162.488 46.8422C164.569 47.4599 169.017 49.3248 171 51.647" stroke="#301C3D" stroke-width="1.5" stroke-linecap="round" stroke-linejoin="round"/>
<path d="M106 48.5462C107.979 46.8668 111.036 46.1553 113.424 45.4012C115.062 44.8807 116.726 44.4499 118.407 44.1105H118.441C119.44 43.9168 120.342 43.3701 120.994 42.5638C121.646 41.7575 122.007 40.7418 122.016 39.6903C122.114 25.3606 122.767 19.9491 123.792 16.1431C124.701 12.7492 125.295 9.14542 126.481 5.8915C127.916 1.90671 132.317 1.29636 136.035 1.05144C139.185 0.845398 142.614 1.21861 145.359 2.89805C146.275 3.45786 146.861 4.84185 147 5.9226" stroke="#301C3D" stroke-width="1.5" stroke-linecap="round" stroke-linejoin="round"/>
<path d="M150.943 10.5785C151 8.64969 149.923 6.93302 148.36 6.48912C147.27 6.17112 146.128 6.08821 145.006 6.24556C143.23 6.55197 141.625 9.9146 143.078 11.867C140.416 11.1992 143.515 16.2745 143.58 16.6517C143.755 17.673 142.332 20.8235 144.538 20.4346C144.34 22.2888 144.687 23.8955 146.002 25.0779C147.721 26.6217 149.083 25.5729 149.733 23.2473C150.036 21.9708 150.149 20.6541 150.068 19.3426C150.068 18.8712 149.79 18.6551 149.874 18.1287C149.946 17.6612 150.589 16.9188 150.733 16.3806C151.175 14.7504 150.935 12.6959 150.935 10.991C150.935 10.8574 150.939 10.7199 150.943 10.5785Z" stroke="#301C3D" stroke-width="1.5" stroke-linecap="round" stroke-linejoin="round"/>
<path d="M126 8.2701C124.117 7.92685 122.54 10.1985 123.121 11.9263C121.123 13.2762 122.041 15.9527 123.957 16.5043" stroke="#301C3D" stroke-width="1.5" stroke-linecap="round" stroke-linejoin="round"/>
<path d="M136 17.5378L136.176 16.5042" stroke="#301C3D" stroke-width="1.5" stroke-linecap="round" stroke-linejoin="round"/>
<path d="M130.841 21.7238C129.319 21.8343 127.909 22.28 126.855 23.5138C125.801 24.7476 125.847 26.4013 126.322 27.7971C126.797 29.193 127.577 30.3973 129.068 29.7712C130.088 29.344 130.999 27.8929 131.019 26.88C131.111 27.8229 132.456 28.6368 133.359 28.751C135.43 29.0125 136.214 26.578 136.168 24.9465C137.326 26.4197 141.343 27.6314 140.976 24.5045C140.861 23.5322 140.018 22.9061 139.138 22.4973C137.419 21.7054 132.784 21.5802 130.841 21.7238Z" stroke="#301C3D" stroke-width="1.5" stroke-linecap="round" stroke-linejoin="round"/>
<path d="M132 30.9494C134.31 31.1726 135.515 29.8773 136 28.9076" stroke="#301C3D" stroke-width="1.5" stroke-linecap="round" stroke-linejoin="round"/>
<path d="M117.728 115.731C117.728 112.185 118.018 108.945 117.999 105.485L113.272 105.395C113.308 107.903 113 111.994 113 114.921" stroke="#301C3D" stroke-width="1.5" stroke-linecap="round" stroke-linejoin="round"/>
<path d="M165.68 116.342C166.067 113.902 166.103 111.419 165.789 108.968C165.603 107.612 165.198 105.395 165.198 105.395L160 105.537C160.73 109.33 160.116 112.869 160 116.765" stroke="#301C3D" stroke-width="1.5" stroke-linecap="round" stroke-linejoin="round"/>
<path d="M146 106.529C149.311 106.529 156.699 106.502 160 106.429" stroke="#301C3D" stroke-width="1.5" stroke-linecap="round" stroke-linejoin="round"/>
<path d="M146 114.698C149.761 114.698 156.282 115.136 160 114.853" stroke="#301C3D" stroke-width="1.5" stroke-linecap="round" stroke-linejoin="round"/>
<path d="M166 106.729C168.111 106.729 169.533 106.828 171.626 106.729C172.447 106.694 174.915 106.484 175.687 106.429C175.687 106.429 176.062 113.329 175.991 114.788C174.161 115.626 172.098 115.579 170.092 115.717C169.379 115.769 166.379 115.662 166.379 115.662" stroke="#301C3D" stroke-width="1.5" stroke-linecap="round" stroke-linejoin="round"/>
<path d="M132 106.886C129.648 106.94 120.114 106.735 119 106.429" stroke="#301C3D" stroke-width="1.5" stroke-linecap="round" stroke-linejoin="round"/>
<path d="M118 113.664C120.182 114.423 123.111 114.341 125.434 114.566C126.862 114.709 130.545 114.725 132 114.664" stroke="#301C3D" stroke-width="1.5" stroke-linecap="round" stroke-linejoin="round"/>
<path d="M113 113.635C111.047 113.786 108.931 113.312 107.081 113.112C107.081 113.112 107 107.417 107 105.395" stroke="#301C3D" stroke-width="1.5" stroke-linecap="round" stroke-linejoin="round"/>
<path d="M113 105.628C112.21 105.628 107 105.395 107 105.395" stroke="#301C3D" stroke-width="1.5" stroke-linecap="round" stroke-linejoin="round"/>
<path d="M180.703 103.328C181.873 112.156 184.541 135.183 184.849 142.751C185.27 153.077 185.065 164.53 180.855 174.214C179.88 176.462 177.484 178.924 176 180.849" stroke="#301C3D" stroke-width="1.5" stroke-linecap="round" stroke-linejoin="round"/>
<path d="M181 160.177C181 161.716 180.409 169.299 178 169.479" stroke="#301C3D" stroke-width="1.5" stroke-linecap="round" stroke-linejoin="round"/>
<path d="M96.8982 108.496C96.8705 110.602 96.3209 123.107 96.143 126.669C95.7476 135.001 96.2695 143.464 96.5384 151.784C96.7301 156.897 97.277 161.991 98.1753 167.031C98.7882 170.515 99.2943 173.907 100.9 177.07C101.917 178.931 103.313 180.569 105 181.882" stroke="#301C3D" stroke-width="1.5" stroke-linecap="round" stroke-linejoin="round"/>
<path d="M102 165.344C102.399 166.567 102.778 174.12 105 173.586" stroke="#301C3D" stroke-width="1.5" stroke-linecap="round" stroke-linejoin="round"/>
<path d="M107.447 113.664C106.9 131.734 104.924 149.091 105.416 167.228C105.534 171.518 105.009 175.718 105.002 180.008C104.961 198.238 105.534 215.649 107.318 233.816C107.495 235.647 107.037 237.016 108.795 237.8C110.897 238.731 124.787 239.056 127.771 238.347C130.035 237.808 129.817 236.853 130.187 234.557C131.945 223.542 131.564 213.085 132.233 202.089C132.565 196.601 132.887 180.904 133.093 175.513C133.618 161.747 135.789 126.754 136 123.073" stroke="#301C3D" stroke-width="1.5" stroke-linecap="round" stroke-linejoin="round"/>
<path d="M135 121.933C137.604 123.501 141.321 123.026 144 122.205" stroke="#301C3D" stroke-width="1.5" stroke-linecap="round" stroke-linejoin="round"/>
<path d="M142 122.712C142 129.419 142.39 136.114 142.79 142.801C143.046 147.123 143.061 151.448 143.392 155.769C144.234 166.782 144.95 178.186 145.002 189.23C145.069 202.504 145.451 215.359 145.845 228.672C145.974 233.149 145.013 238.979 148.342 238.723C153.055 238.358 169.546 239.165 171.35 237.831C172.307 237.121 172.934 224.758 173.309 219.987C174.393 206.375 175.269 191.732 175.907 178.054C176.404 167.352 176.623 156.669 176.968 145.967C177.135 140.738 176.597 135.493 176.445 130.284C176.356 127.32 175.191 114.698 175.191 114.698" stroke="#301C3D" stroke-width="1.5" stroke-linecap="round" stroke-linejoin="round"/>
<path d="M149.589 243.286C150.436 243.189 151.309 243.211 152.111 243.088C153.797 242.896 155.492 242.837 157.185 242.913C160.479 242.913 163.774 242.754 167.064 243.018C168.557 243.136 172.918 243.106 173 246.83C173 246.83 171.135 246.83 170.176 246.83C168.344 246.874 166.527 246.83 164.703 246.869C160.312 247.005 155.92 246.799 151.548 246.97C150.399 247.014 148 246.996 148 246.996C148 246.004 148 244.63 148.067 243.637C148.559 243.442 149.071 243.324 149.589 243.286Z" fill="#301C3D" stroke="#301C3D" stroke-width="1.5" stroke-linecap="round" stroke-linejoin="round"/>
<path d="M128.396 243.25C127.549 243.158 126.675 243.177 125.873 243.055C124.2 242.798 122.475 242.874 120.799 242.882C117.504 242.901 114.213 243.135 110.917 243.392C109.439 243.507 105.057 243.009 105 246.678C105.878 247.238 122.076 246.785 126.45 246.954C127.59 246.996 130 247 130 247C130 246.018 129.973 244.6 129.909 243.622C129.426 243.423 128.916 243.297 128.396 243.25Z" fill="#301C3D" stroke="#301C3D" stroke-width="1.5" stroke-linecap="round" stroke-linejoin="round"/>
<path d="M174.056 105.395L174 103.328" stroke="#301C3D" stroke-width="1.5" stroke-linecap="round" stroke-linejoin="round"/>
<path d="M144.282 105.395H133.718C132.769 105.395 132 106.178 132 107.143V113.983C132 114.948 132.769 115.731 133.718 115.731H144.282C145.231 115.731 146 114.948 146 113.983V107.143C146 106.178 145.231 105.395 144.282 105.395Z" stroke="#301C3D" stroke-width="1.5" stroke-linecap="round" stroke-linejoin="round"/>
<path d="M128 17.5378L128.176 16.5042" stroke="#301C3D" stroke-width="1.5" stroke-linecap="round" stroke-linejoin="round"/>
<path d="M73 101.26L64 104.361" stroke="#301C3D" stroke-width="1.5" stroke-linecap="round" stroke-linejoin="round"/>
<path d="M75 114.698C72.4031 115.684 68.2633 116.776 66 117.798" stroke="#301C3D" stroke-width="1.5" stroke-linecap="round" stroke-linejoin="round"/>
<path d="M70 104.361L72 103.328" stroke="#301C3D" stroke-width="1.5" stroke-linecap="round" stroke-linejoin="round"/>
<path d="M74 55.7815C69.4928 57.824 65.1457 60.2433 61 63.0168" stroke="#301C3D" stroke-width="1.5" stroke-linecap="round" stroke-linejoin="round"/>
<path d="M78 69.2185C73.779 71.5778 65 76.4538 65 76.4538" stroke="#301C3D" stroke-width="1.5" stroke-linecap="round" stroke-linejoin="round"/>
<path d="M76 67.1513C76.7024 66.9016 77.3742 66.5544 78 66.1177" stroke="#301C3D" stroke-width="1.5" stroke-linecap="round" stroke-linejoin="round"/>
<path d="M112 102.386C110.196 103.66 108.188 104.422 106.048 105.101C103.035 106.047 100.021 107.111 97.0079 107.996C93.58 108.995 89.9789 110.018 86.5472 110.91C84.5998 111.417 81.2736 112.085 81.2736 112.085L77.5067 112.63L76 101.26L112 102.386Z" fill="#B8D7FF" stroke="#B8D7FF" stroke-width="1.5" stroke-linecap="round" stroke-linejoin="round"/>
<path d="M94.731 59.6422C92.2797 60.5353 90.0257 62.4693 87.692 63.7003C86.1438 64.5197 84.6222 65.4517 83.0209 66.0963C83.6166 67.471 80.6492 69.1253 81.0477 66.8031C81.0932 67.4322 80.7062 69.2224 79.86 69.2185C79.1921 69.2185 79.139 68.2283 78.972 67.704C78.27 65.506 77.2189 63.4323 76.441 61.2305C75.7542 59.2888 74.6196 57.5063 74.206 55.4792C74.1301 55.1219 73.8949 54.4346 74.0542 54.0618C74.3388 53.4016 75.6555 52.8074 75.9971 53.7084C75.9971 52.8734 76.7901 51.3046 78.3953 52.0113C78.3953 52.0113 82.1898 49.7357 83.3662 49.2076C86.3628 47.8374 89.452 46.6901 92.6098 45.7747C95.7593 44.8737 99.1973 46.0543 102.328 46.5513C105.178 47.0173 108.046 47.7513 110.797 48.493C111.989 48.8076 113.947 49.293 114 50.4929" fill="#B8D7FF"/>
<path d="M94.731 59.6422C92.2797 60.5353 90.0257 62.4693 87.692 63.7003C86.1438 64.5197 84.6222 65.4517 83.0209 66.0963C83.6166 67.471 80.6492 69.1253 81.0477 66.8031C81.0932 67.4322 80.7062 69.2224 79.86 69.2185C79.1921 69.2185 79.139 68.2283 78.972 67.704C78.27 65.506 77.2189 63.4323 76.441 61.2305C75.7542 59.2888 74.6196 57.5063 74.206 55.4792C74.1301 55.1219 73.8949 54.4346 74.0542 54.0618C74.3388 53.4016 75.6555 52.8074 75.9971 53.7084C75.9971 52.8734 76.7901 51.3046 78.3953 52.0113C78.3953 52.0113 82.1898 49.7357 83.3662 49.2076C86.3628 47.8374 89.452 46.6901 92.6098 45.7747C95.7593 44.8737 99.1973 46.0543 102.328 46.5513C105.178 47.0173 108.046 47.7513 110.797 48.493C111.989 48.8076 113.947 49.293 114 50.4929" stroke="#B8D7FF" stroke-width="1.5" stroke-linecap="round" stroke-linejoin="round"/>
<path d="M102 47.5126C102.652 48.1081 108.427 50.8048 107.975 51.647" stroke="#301C3D" stroke-width="1.5" stroke-linecap="round" stroke-linejoin="round"/>
<path d="M93 50.6134V51.7166C95.4442 51.8296 97.366 52.5585 97.2205 54.1373C97.1235 55.217 94.8994 56.3163 93 57.1037V94.0146C93.8339 93.8258 94.6843 93.7279 95.5375 93.7222C97.825 93.7222 97.5265 95.5699 96.1197 97.1019C95.2054 98.0959 94.0822 99.2458 93 100.318V102.294H182V50.6134H93Z" fill="#301C3D" stroke="#301C3D" stroke-width="1.5" stroke-linecap="round" stroke-linejoin="round"/>
<path d="M133.343 75.366C132.27 74.4888 131.099 73.472 130.526 72.176C129.404 69.5802 129.954 65.8478 133.381 66.6732C135.139 67.0919 136.119 68.667 137.496 69.5961C138.618 67.4229 139.367 64.7313 141.903 65.1221C144.44 65.5129 144.286 68.5673 143.46 71.2629C142.715 73.5696 141.626 75.7334 140.235 77.6708C139.921 78.0905 139.477 78.3773 138.982 78.4796C138.488 78.5819 137.976 78.4931 137.537 78.2291C136.084 77.3691 134.684 76.4128 133.343 75.366Z" fill="#E94A43" stroke="#E94A43" stroke-width="1.5" stroke-linecap="round" stroke-linejoin="round"/>
<path d="M126.128 70.4901C125.637 68.2721 124.748 65.189 127.397 64.0014C129.478 63.0693 132.568 65.8457 133.675 62.853C134.745 59.9508 133.081 56.3171 130.019 55.9003C127.481 55.5503 122.352 55.9003 120.436 57.9491C117.963 60.584 119.37 65.4761 119.669 68.6339C119.895 71.1036 119.358 74.7294 121.141 76.7036C122.172 77.848 126.044 79.3659 127.305 77.9463C128.669 76.4244 126.488 72.1221 126.128 70.4901Z" stroke="#FFC20E" stroke-width="1.5" stroke-linecap="round" stroke-linejoin="round"/>
<path d="M145.463 61.5187C143.936 60.7485 142.23 61.2799 140.84 61.9038C139.45 62.5276 137.786 61.5996 138.023 59.4508C138.259 57.302 140.695 55.1377 144.513 54.8066C150.327 54.3021 155.458 57.0478 155.881 63.2131C156.126 66.7444 156.217 72.5323 153.824 75.4898C153.06 76.4525 150.499 77.7464 149.201 77.4422C147.903 77.1379 147.788 75.7516 147.727 74.5155C147.597 71.7698 148.09 68.9817 147.872 66.2399C147.825 65.2882 147.635 64.3494 147.307 63.4557C146.952 62.6016 146.295 61.9112 145.463 61.5187V61.5187Z" stroke="#FFC20E" stroke-width="1.5" stroke-linecap="round" stroke-linejoin="round"/>
<path d="M116 76.4537C116.914 77.5727 117.917 78.61 119 79.5546" stroke="#FFC20E" stroke-width="1.5" stroke-linecap="round" stroke-linejoin="round"/>
<path d="M116 80.5883C116.646 81.4128 117.247 82.2256 118 82.6555" stroke="#FFC20E" stroke-width="1.5" stroke-linecap="round" stroke-linejoin="round"/>
<path d="M117 85.7563C117.564 86.1781 118.242 86.5284 119 86.79" stroke="#FFC20E" stroke-width="1.5" stroke-linecap="round" stroke-linejoin="round"/>
<path d="M118 90.9244C117.63 90.685 117.291 90.3344 117 89.8907" stroke="#FFC20E" stroke-width="1.5" stroke-linecap="round" stroke-linejoin="round"/>
<path d="M161 76.4537C160.371 77.4658 158.046 78.9268 157 79.5546" stroke="#FFC20E" stroke-width="1.5" stroke-linecap="round" stroke-linejoin="round"/>
<path d="M161 80.5883C160.181 81.4396 159.16 82.1431 158 82.6555" stroke="#FFC20E" stroke-width="1.5" stroke-linecap="round" stroke-linejoin="round"/>
<path d="M160 85.7563C159.374 86.1324 158.705 86.4779 158 86.79" stroke="#FFC20E" stroke-width="1.5" stroke-linecap="round" stroke-linejoin="round"/>
<path d="M159 90.3016C159.355 90.1968 159.691 90.0588 160 89.8907" stroke="#FFC20E" stroke-width="1.5" stroke-linecap="round" stroke-linejoin="round"/>
<path d="M122.756 93.7732C122.271 91.4083 122.195 88.888 122.105 86.4726C122.047 84.8805 121.641 82.2787 122.943 81.1215C124.091 80.104 125.185 80.8147 126.384 81.0399C127.463 81.2418 128.543 81.0399 129.622 80.9467C132.206 80.7603 134.318 82.5 132.008 84.8106C129.77 87.0551 127.589 89.2142 126.758 92.5189C126.153 94.9576 123.242 96.1381 122.756 93.7732Z" stroke="#FFC20E" stroke-width="1.5" stroke-linecap="round" stroke-linejoin="round"/>
<path d="M137.117 87.5442C136.636 85.8969 137.704 84.6624 139.151 84.2536C141.166 83.6844 142.888 85.4159 144.768 85.4881C147.136 85.5803 146.288 83.7486 146.434 82.2014C146.563 80.8266 147.613 80.526 148.81 80.5982C152.018 80.8066 153.905 83.8808 153.997 87.1554C154.104 90.863 151.181 94.1616 147.958 94.8951C145.223 95.5204 141.57 94.3019 139.683 92.1375C138.537 90.8244 137.661 89.2581 137.117 87.5442V87.5442Z" stroke="#FFC20E" stroke-width="1.5" stroke-linecap="round" stroke-linejoin="round"/>
<path d="M128 98.8134C128 95.5436 130.914 92.2809 133.884 93.1272C136.1 93.7538 137.163 96.0585 139.318 96.7499C139.949 96.9516 144.245 97.2289 142.645 98.9359C142.21 99.4004 139.491 99.0943 138.973 99.0943C137.159 99.0943 135.372 99.0331 133.577 98.9611C131.782 98.889 128 98.8134 128 98.8134Z" stroke="#FFC20E" stroke-width="1.5" stroke-linecap="round" stroke-linejoin="round"/>
<path d="M86 61.9832C87.0139 61.1809 87.5777 59.8491 88.4928 59.0067C89.0528 58.4973 89.8654 58.4532 90.528 58.1643C91.8457 57.5947 96.8459 55.8497 96.9924 54.1529C97.1973 51.8263 93.244 51.2927 89.5763 51.8503" stroke="#301C3D" stroke-width="1.5" stroke-linecap="round" stroke-linejoin="round"/>
<path d="M91.6028 102.676C93.1415 101.23 95.3185 99.103 96.8838 97.4222C98.3161 95.8824 98.62 94.0332 96.2911 94.0253C93.9622 94.0175 91.8726 94.8089 89.6462 95.5572C86.3675 96.6778 83.0963 97.6847 79.8138 98.7896C78.807 99.1304 78.2029 99.3302 77.2911 99.1343C76.6148 98.9894 77.1125 98.2959 76.0715 98.6994C75.7839 98.8208 75.5367 99.0258 75.36 99.2894C75.1833 99.5531 75.0847 99.864 75.0761 100.184C74.1909 97.9237 72.8764 100.329 73.0094 101.669C73.1689 103.283 73.3893 104.522 73.6172 106.112C73.925 108.271 74.2707 110.567 74.966 112.624C75.3193 113.67 75.684 115.5 76.4857 116.268C77.9826 117.733 78.9248 115.645 78.9286 114.07C79.4529 115.86 81.0903 114.485 81.2955 113.074" fill="#B8D7FF"/>
<path d="M91.6028 102.676C93.1415 101.23 95.3185 99.103 96.8838 97.4222C98.3161 95.8824 98.62 94.0332 96.2911 94.0253C93.9622 94.0175 91.8726 94.8089 89.6462 95.5572C86.3675 96.6778 83.0963 97.6847 79.8138 98.7896C78.807 99.1304 78.2029 99.3302 77.2911 99.1343C76.6148 98.9894 77.1125 98.2959 76.0715 98.6994C75.7839 98.8208 75.5367 99.0258 75.36 99.2894C75.1833 99.5531 75.0847 99.864 75.0761 100.184C74.1909 97.9237 72.8764 100.329 73.0094 101.669C73.1689 103.283 73.3893 104.522 73.6172 106.112C73.925 108.271 74.2707 110.567 74.966 112.624C75.3193 113.67 75.684 115.5 76.4857 116.268C77.9826 117.733 78.9248 115.645 78.9286 114.07C79.4529 115.86 81.0903 114.485 81.2955 113.074" stroke="#B8D7FF" stroke-width="1.5" stroke-linecap="round" stroke-linejoin="round"/>
<path d="M75 99.1932C75.1425 99.8074 75.2213 100.965 75.4125 101.26" stroke="#301C3D" stroke-width="1.5" stroke-linecap="round" stroke-linejoin="round"/>
<path d="M80 106.429C80.2618 107.78 80.9331 111.393 81 112.63" stroke="#301C3D" stroke-width="1.5" stroke-linecap="round" stroke-linejoin="round"/>
<path d="M149 243.899V238.731" stroke="#301C3D" stroke-width="1.5" stroke-linecap="round" stroke-linejoin="round"/>
<path d="M166 242.866C166.222 241.495 166.366 240.115 166.431 238.731" stroke="#301C3D" stroke-width="1.5" stroke-linecap="round" stroke-linejoin="round"/>
<path d="M128 242.866C128 241.615 128 238.731 128 238.731" stroke="#301C3D" stroke-width="1.5" stroke-linecap="round" stroke-linejoin="round"/>
<path d="M112 243.899V238.731" stroke="#301C3D" stroke-width="1.5" stroke-linecap="round" stroke-linejoin="round"/>
</svg>
