<svg width="248" height="248" viewBox="0 0 248 248" fill="none" xmlns="http://www.w3.org/2000/svg">
<path d="M162.388 124.006C158.944 121.829 155.584 120.472 154.208 116.361C154.148 116.184 154.11 116 154.095 115.813C153.985 115.783 152.76 114.438 152.798 113.655C152.681 113.34 154.185 112.846 154.102 112.515C153.962 111.96 152.847 110.19 153.15 109.665C153.15 109.521 155.07 109.441 155.686 109.578C158.252 110.163 160.717 110.839 163.552 111.026C163.442 110.691 164.274 109.943 164.228 109.593C163.964 107.518 162.663 105.493 161.787 103.623C159.977 99.7219 157.869 95.9677 155.482 92.3943C154.537 91.9915 153.686 91.5507 152.904 92.1131C148.856 95.0239 148.792 100.074 147.877 104.653C147.835 104.71 147.363 108.575 147.499 110.383C147.589 112.364 147.526 114.348 147.31 116.319C147.291 116.52 147 125.644 147 125.644C147.127 126.236 147.36 126.8 147.688 127.308C149.578 130.516 151.468 131.656 151.468 131.656C155.327 131.181 163.703 130.136 167.573 129.497C168.416 129.357 169.497 129.091 170 128.669C167.577 127.373 164.697 125.469 162.388 124.006Z" fill="#B0D2FF"/>
<path d="M242.901 216.709C242.901 199.073 242.166 181.452 241.629 163.826C241.126 147.282 241.857 131.1 241.857 114.612C241.857 107.069 241.476 96.8992 241.476 91.9747C241.476 87.0502 241.381 67.9935 240.794 56.2205C240.379 47.8871 240.272 37.4082 240.272 29.7275C240.272 29.7275 233.667 29.4718 229.175 29.6359C228.451 29.6588 227.728 29.6779 227 29.6932V30.1093C227 30.1093 227.103 49.0667 227.103 58.3583C227.103 75.9911 227.834 93.6162 228.371 111.241C228.874 127.786 228.143 143.968 228.143 160.452C228.143 167.999 228.524 178.165 228.524 183.093C228.524 188.021 228.623 207.07 229.21 218.843C229.621 227.177 229.731 237.274 229.731 244.958H243C243 244.958 242.901 225.982 242.901 216.709Z" fill="#301C3D"/>
<path d="M227.153 29.5809C227.153 29.5809 227.261 48.5849 227.261 57.8994C227.261 75.5756 228.023 93.244 228.583 110.912C229.107 127.498 228.344 143.72 228.344 160.244C228.344 167.81 228.741 178.001 228.741 182.941C228.741 187.881 228.845 206.977 229.456 218.779C229.885 227.133 230 237.255 230 244.959H223.843C223.843 237.255 223.731 227.133 223.299 218.779C222.691 206.977 222.588 187.878 222.588 182.941C222.588 178.004 222.191 167.81 222.191 160.244C222.191 143.72 222.953 127.498 222.429 110.912C221.869 93.244 221.103 75.5756 221.103 57.8994C221.103 48.6003 221 29.5809 221 29.5809H227.153Z" fill="#E94A43"/>
<path d="M154.008 132.676C154.008 134.124 153.974 136.295 154.046 137.71C163.462 138.217 173.742 135.785 183 136.375" stroke="#301C3D" stroke-width="1.5" stroke-linecap="round" stroke-linejoin="round"/>
<path d="M171.528 138.32C169.533 138.39 165.484 140.972 167.592 143.515C169.201 144.646 170.844 139.837 172.283 138.32C173.363 142.659 178.289 144.7 176.68 140.264C176.17 138.861 173.307 137.908 172.083 137.78C171.376 141.096 169.915 146.256 170.232 149.008" stroke="#301C3D" stroke-width="1.5" stroke-linecap="round" stroke-linejoin="round"/>
<path d="M172.981 145.946C173.104 143.592 172.608 140.989 172 138.801" stroke="#301C3D" stroke-width="1.5" stroke-linecap="round" stroke-linejoin="round"/>
<path d="M154.948 138.801C154.948 154.15 154.426 169.519 154.426 184.911C154.426 197.143 153.284 209.237 153.383 221.514C153.413 225.369 151.209 233.013 157.054 232.7C160.618 232.513 166.39 232.151 170 232.151" stroke="#301C3D" stroke-width="1.5" stroke-linecap="round" stroke-linejoin="round"/>
<path d="M169 153.091C169.648 153.321 170.325 153.409 171 153.351" stroke="#301C3D" stroke-width="1.5" stroke-linecap="round" stroke-linejoin="round"/>
<path d="M170.259 153.95C170.319 165.474 170.765 176.819 170.592 188.37C170.446 198.128 170.323 207.893 170.161 217.613C170.083 222.346 170 230.425 170 232.177C170 233.928 169.944 234.296 172.043 234.591C174.9 234.997 178.382 234.518 181.283 234.373C183.926 234.242 189.905 234.246 193.114 234.262C193.694 234.264 194.253 234.041 194.677 233.637C195.102 233.234 195.361 232.68 195.401 232.088C195.58 229.341 195.835 224.623 195.697 221.537C195.532 218.008 195.674 214.432 195.674 210.898V185.883C195.674 172.76 196.188 157.023 195.925 143.905" stroke="#301C3D" stroke-width="1.5" stroke-linecap="round" stroke-linejoin="round"/>
<path d="M197.343 118.215C197.396 119.881 197.205 121.694 197.579 123.279C197.894 124.597 200.016 127.087 200.016 127.087C197.579 123.279 190.405 120.217 184.162 117.72C178.174 115.319 169.888 109.914 163.851 108.178C163.963 108.909 164.072 111.271 164.072 111.271C160.393 111.6 156.912 109.806 153.121 109.984C153.32 112.01 156.796 114.236 158.331 115.203C157.287 114.755 153.915 112.172 153.073 114.043C152.324 115.717 157.597 118.601 158.495 119.502C156.969 119.115 156.145 117.248 154.409 117.642C154.588 120.944 162.71 124.497 165.026 125.927C172.702 130.671 180.528 135.739 188.56 139.752C193.762 142.35 200.079 147.391 205.776 145.551C214.043 142.868 211.921 128.173 211.273 120.619" stroke="#301C3D" stroke-width="1.5" stroke-linecap="round" stroke-linejoin="round"/>
<path d="M195.607 106.874C195.704 109.523 195.983 112.297 196.092 114.764C196.216 117.791 197.153 117.499 200.182 118.241C202.063 118.703 207.862 119.664 211.47 119.342C211.913 119.302 212.321 119.087 212.607 118.744C212.892 118.402 213.032 117.96 212.994 117.515C212.482 111.15 211.636 102.788 210.97 99.5111C209.939 94.4331 207.583 86.0406 201.721 83.9179C197.327 82.3178 192.678 81.5481 188.006 81.6476C185.714 84.8979 184.683 86.313 182.268 89.4763C180.642 91.6028 178.268 94.2175 177 96.0261" stroke="#301C3D" stroke-width="1.5" stroke-linecap="round" stroke-linejoin="round"/>
<path d="M185 100.182C186.859 99.8002 192 100.182 192 100.182" stroke="#301C3D" stroke-width="1.5" stroke-linecap="round" stroke-linejoin="round"/>
<path d="M187.383 97.9709C186.715 100.152 187.124 102.803 187.124 105.116" stroke="#301C3D" stroke-width="1.5" stroke-linecap="round" stroke-linejoin="round"/>
<path d="M180 97.0274C177.664 96.867 175.319 96.9567 173 97.2948" stroke="#301C3D" stroke-width="1.5" stroke-linecap="round" stroke-linejoin="round"/>
<path d="M176 96.9502C174.158 93.2505 169.129 83.9216 169.129 83.9216C169.129 83.9216 167.891 83.1833 163.798 84.2908C161.685 84.9191 159.761 86.1324 158.217 87.81C156.674 89.4877 155.565 91.5713 155 93.8539" stroke="#301C3D" stroke-width="1.5" stroke-linecap="round" stroke-linejoin="round"/>
<path d="M171 84.9935C175.92 90.5322 183.348 86.7166 187 82.6598" stroke="#301C3D" stroke-width="1.5" stroke-linecap="round" stroke-linejoin="round"/>
<path d="M187.379 61.2241C187.359 63.0953 187.185 68.1663 187.185 68.1663C187.185 68.1663 189.053 68.2075 190.261 69.5772C192.46 72.0697 189.26 73.634 187.065 73.4993C186.942 76.2762 187.032 81.6391 187.032 81.6391" stroke="#301C3D" stroke-width="1.5" stroke-linecap="round" stroke-linejoin="round"/>
<path d="M170 83.6805C170 76.9762 169.97 70.3402 170.389 63.7157C170.519 61.6709 170.864 56.6161 172 55.0996" stroke="#301C3D" stroke-width="1.5" stroke-linecap="round" stroke-linejoin="round"/>
<path d="M174 65.307V63.2655" stroke="#301C3D" stroke-width="1.5" stroke-linecap="round" stroke-linejoin="round"/>
<path d="M179 64.2862V62.2448" stroke="#301C3D" stroke-width="1.5" stroke-linecap="round" stroke-linejoin="round"/>
<path d="M177 70.304C178.386 70.7 179.61 69.9808 180 68.3693" stroke="#301C3D" stroke-width="1.5" stroke-linecap="round" stroke-linejoin="round"/>
<path d="M164 108.072C164 108.072 158.604 96.9571 155.906 92.9134C153.209 88.8697 147.121 91.8977 142.955 92.1642C139.928 92.3573 132.621 92.6469 132.621 92.6469C125.64 92.9791 125.92 102.866 125.651 108.212C125.212 116.936 126.734 124.475 122 131.964C126.412 136.305 137.059 134.254 142.432 134.1C143.254 131.396 143.159 128.276 143.624 125.502C144.124 122.536 144.094 119.42 144.033 116.419C143.84 106.817 144.37 99.1354 151.899 92.8053" stroke="#301C3D" stroke-width="1.5" stroke-linecap="round" stroke-linejoin="round"/>
<path d="M171 129.961C167.173 130.825 156.443 132.204 152.774 132.659C152.389 132.706 151.999 132.658 151.637 132.517C151.275 132.376 150.951 132.147 150.695 131.849L147 127.573" stroke="#301C3D" stroke-width="1.5" stroke-linecap="round" stroke-linejoin="round"/>
<path d="M154 91.8464C147.124 93.032 147.011 108.109 147.089 113.559C147.151 119.529 147.477 123.636 145.718 129.41C144.808 129.403 143.899 129.471 143 129.614" stroke="#301C3D" stroke-width="1.5" stroke-linecap="round" stroke-linejoin="round"/>
<path d="M136 92.8673C136 89.9662 136 86.9189 138.009 85.2376C139.818 83.7332 142.303 83.8024 144.535 83.6985C150.233 83.4061 151 86.7035 151 91.5629" stroke="#301C3D" stroke-width="1.5" stroke-linecap="round" stroke-linejoin="round"/>
<path d="M140.946 82.6597C139.479 77.6041 137 71.021 137 71.021L139.376 70.4108C141.411 74.0278 144 82.3971 144 82.3971" stroke="#301C3D" stroke-width="1.5" stroke-linecap="round" stroke-linejoin="round"/>
<path d="M143 88.7842C144.96 88.1369 148.139 86.8535 150 88.7842" stroke="#301C3D" stroke-width="1.5" stroke-linecap="round" stroke-linejoin="round"/>
<path d="M156.202 233.73C156.202 236.106 155.606 239.914 156.461 241.896" stroke="#301C3D" stroke-width="1.5" stroke-linecap="round" stroke-linejoin="round"/>
<path d="M174 235.772V243.938" stroke="#301C3D" stroke-width="1.5" stroke-linecap="round" stroke-linejoin="round"/>
<path d="M193 234.751C193 237.352 193.12 242.917 193.12 242.917" stroke="#301C3D" stroke-width="1.5" stroke-linecap="round" stroke-linejoin="round"/>
<path d="M194.959 243.544C195.016 244.672 194.997 245.864 194.997 247H171.039C169.879 240.874 194.951 243.424 194.959 243.544Z" fill="#301C3D" stroke="#301C3D" stroke-width="1.5" stroke-linecap="round" stroke-linejoin="round"/>
<path d="M175.959 243.544C176.016 244.672 175.997 245.864 175.997 247H152.039C150.879 240.874 175.951 243.424 175.959 243.544Z" fill="#301C3D" stroke="#301C3D" stroke-width="1.5" stroke-linecap="round" stroke-linejoin="round"/>
<path d="M175 243.938C175 242.765 175.191 241.46 175.29 240.295C175.368 239.411 175.375 238.22 175.885 237.495C176.12 237.164 176.46 236.931 176.844 236.838C177.228 236.744 177.632 236.796 177.983 236.985C179.366 237.857 176.808 241.367 176.341 242.284C177.863 241.386 178.97 239.159 180.828 238.93C182.537 238.719 182.162 240.942 181.072 241.582C179.657 242.418 177.533 242.407 176.369 243.49" stroke="#301C3D" stroke-width="1.5" stroke-linecap="round" stroke-linejoin="round"/>
<path d="M158.268 242.917C158.893 241.277 163.618 237.937 161.422 236.194C158.746 234.069 156.83 240.586 156.501 242.027C155.781 239.345 154.229 236.533 151.038 236.932C150.659 241.875 153.188 241.266 156.716 242.396" stroke="#301C3D" stroke-width="1.5" stroke-linecap="round" stroke-linejoin="round"/>
<path d="M160 78.5768V86.7428" stroke="#301C3D" stroke-width="1.5" stroke-linecap="round" stroke-linejoin="round"/>
<path d="M243 244.958C243 244.958 242.903 225.997 242.903 216.709C242.903 199.073 242.179 181.452 241.65 163.826C241.155 147.282 241.875 131.1 241.875 114.612C241.875 107.069 241.5 96.8992 241.5 91.9747C241.5 87.0502 241.407 67.9935 240.829 56.2205C240.421 47.8871 240.316 37.4082 240.316 29.7275C240.316 29.7275 233.815 29.4718 229.395 29.6359C221.349 29.9337 213.341 29.4183 205.337 29.842C195.308 30.3765 184.969 30.9682 174.921 30.4567C168.117 30.1093 160 30.7086 160 30.7086V71.4521" stroke="#301C3D" stroke-width="1.5" stroke-linecap="round" stroke-linejoin="round"/>
<path d="M195 245.979H247" stroke="#301C3D" stroke-width="1.5" stroke-linecap="round" stroke-linejoin="round"/>
<path d="M200 22.4356L193 18.3527" stroke="#301C3D" stroke-width="1.5" stroke-linecap="round" stroke-linejoin="round"/>
<path d="M194 17.8163C194 17.8163 198.195 10.0972 200.16 6.85645C201.687 4.33547 202.6 5.00951 204.19 5.80541C204.4 5.91204 204.797 6.15576 205.209 6.41471C205.396 6.53311 205.558 6.68866 205.686 6.87236C205.815 7.05606 205.906 7.26426 205.956 7.4849C206.006 7.70555 206.013 7.93426 205.977 8.1578C205.941 8.38133 205.863 8.59525 205.746 8.78718C204.503 10.8474 202.287 14.5489 201.481 16.114C200.595 17.8277 199.524 19.7775 198.824 21.415" stroke="#301C3D" stroke-width="1.5" stroke-linecap="round" stroke-linejoin="round"/>
<path d="M204 5.86889C204.377 5.41723 204.588 4.69458 205.013 4.06226L207 5.25463L205.808 7.1245" stroke="#301C3D" stroke-width="1.5" stroke-linecap="round" stroke-linejoin="round"/>
<path d="M206 4.06224L208 1" stroke="#301C3D" stroke-width="1.5" stroke-linecap="round" stroke-linejoin="round"/>
<path d="M193 22.4357C193.953 23.1966 194.956 23.8789 196 24.4772" stroke="#301C3D" stroke-width="1.5" stroke-linecap="round" stroke-linejoin="round"/>
<path d="M195 23.4564L197 20.3942" stroke="#301C3D" stroke-width="1.5" stroke-linecap="round" stroke-linejoin="round"/>
<path d="M200.334 15.2731C200.483 15.2292 200.61 15.1257 200.688 14.9844L203.875 9.22178C203.935 9.11466 203.975 8.99576 203.991 8.87211C204.008 8.74846 204.001 8.62258 203.97 8.50192C203.911 8.25857 203.763 8.0498 203.56 7.92079L202.498 7.25717C202.396 7.19301 202.284 7.151 202.167 7.13361C202.051 7.11622 201.932 7.12381 201.818 7.15594C201.588 7.21888 201.391 7.37512 201.269 7.59085L198.083 13.3535C198.043 13.4245 198.017 13.5031 198.006 13.5848C197.995 13.6665 197.999 13.7497 198.019 13.8296C198.061 13.987 198.159 14.1213 198.291 14.2046L199.881 15.1944C199.948 15.2388 200.022 15.2687 200.1 15.2822C200.178 15.2957 200.258 15.2926 200.334 15.2731Z" fill="#E94A43"/>
<path d="M218.016 151.699C218.016 156.239 211.072 157.637 209.601 153.358C208.667 150.633 209.526 147.072 212.546 146.534C215.848 145.941 218.016 148.425 218.016 151.699Z" fill="#E94A43" stroke="#E94A43" stroke-width="1.5" stroke-linecap="round" stroke-linejoin="round"/>
<path d="M213.995 148.757C214.409 148.827 214.787 149.039 215.065 149.358C215.344 149.677 215.507 150.084 215.526 150.511" stroke="#301C3D" stroke-width="1.5" stroke-linecap="round" stroke-linejoin="round"/>
<path d="M225.49 152.796V149.869" stroke="#301C3D" stroke-width="1.5" stroke-linecap="round" stroke-linejoin="round"/>
<path d="M29.729 110.049C29.8651 112.241 31.1115 114.663 28.3283 116.02C25.7235 117.289 23.1127 117.274 20.2841 117.42C17.9715 117.547 15.6521 117.445 13.3592 117.115C11.6379 116.901 9.64723 116.809 9.8469 114.767C10.1736 111.376 10.818 108.46 11.3868 105.274C12.4789 99.1596 14.1095 92.3787 20.1903 89.7587C27.1061 86.784 35.123 90.8104 34.7116 99.2361C32.9856 99.4494 31.2498 99.5719 29.5111 99.6029C29.5111 103.217 29.5807 107.65 29.729 110.049Z" stroke="#301C3D" stroke-width="1.5" stroke-linecap="round" stroke-linejoin="round"/>
<path d="M34.168 99.4401C34.3578 100.493 35.3206 104.792 35.5277 106.65C35.5967 107.26 34.0058 107.138 34.0058 107.138C33.8851 109.177 33.9334 119.932 33.9334 119.932" stroke="#301C3D" stroke-width="1.5" stroke-linecap="round" stroke-linejoin="round"/>
<path d="M20.2725 119.932V117.473" stroke="#301C3D" stroke-width="1.5" stroke-linecap="round" stroke-linejoin="round"/>
<path d="M35.3472 129.612L35.3139 129.597C33.9691 128.975 33.9269 127.012 33.9238 125.777C33.9466 123.556 34.6711 121.399 35.9938 119.614C36.8279 118.446 38.2482 117.126 38.6864 119.279C38.1878 116.848 42.3822 115.834 44.2618 115.834C46.1415 115.834 45.8605 117.543 45.3105 118.135C51.0763 115.988 49.5835 127.088 46.1234 124.195C47.4742 125.379 46.5102 126.979 45.105 127.643C43.9459 128.21 42.6218 128.342 41.3734 128.016C40.1251 127.689 39.0355 126.926 38.3026 125.865C38.2271 126.867 38.4386 127.701 37.8614 128.646C37.3235 129.509 36.3444 130.053 35.3472 129.612Z" stroke="#301C3D" stroke-width="1.5" stroke-linecap="round" stroke-linejoin="round"/>
<path d="M15.4545 122.419C12.9125 120.796 8.1908 119.875 5.35159 121.955C3.49388 123.321 2.89012 126.316 4.47847 128.258C2.8313 126.876 -0.261798 128.768 1.7724 130.513C1.54328 130.513 1.28011 130.582 1.04789 130.585C0.982871 132.086 0.7166 133.905 2.73222 133.821C2.62385 136.75 9.28375 135.105 10.578 134.469" stroke="#301C3D" stroke-width="1.5" stroke-linecap="round" stroke-linejoin="round"/>
<path d="M12.2428 155.998C12.2428 147.758 8.97982 137.832 11.7557 129.768" stroke="#301C3D" stroke-width="1.5" stroke-linecap="round" stroke-linejoin="round"/>
<path d="M13.8486 124.031C17.9604 120.293 25.8125 119.932 28.8499 119.932C31.0943 119.934 33.3325 120.146 35.5303 120.564" stroke="#301C3D" stroke-width="1.5" stroke-linecap="round" stroke-linejoin="round"/>
<path d="M37.2214 153.539C32.3214 153.558 24.8805 153.524 20.1291 154.5C17.2 155.114 12.9671 155.071 10.4929 157.101C8.45832 158.771 7.42132 162.49 6.56929 165.001C5.00166 169.629 5.11991 174.848 4.68631 179.645C4.14962 185.629 4.6378 191.718 4.50135 197.73C4.37097 203.539 2.87915 209.305 2.50619 215.099C2.10595 221.308 1.94221 227.252 1.80273 233.258C3.76454 234.833 8.50077 232.856 10.7961 232.902C12.8671 232.942 15.0138 233.716 17.1636 233.467C19.4014 233.206 21.4966 232.168 23.6555 231.646C27.9005 230.621 31.6392 233.28 35.7477 232.488C37.758 232.104 39.3863 230.836 41.5361 231.115C42.749 231.272 43.8497 231.671 44.9018 231.671C45.954 231.671 46.2178 231.324 47.1486 230.845C47.6975 225.868 47.561 220.768 47.558 215.701C47.558 212.465 46.903 196.244 46.903 196.244" stroke="#301C3D" stroke-width="1.5" stroke-linecap="round" stroke-linejoin="round"/>
<path d="M16.2576 155.179C12.6646 159.916 11.2623 169.736 11.4571 175.671" stroke="#301C3D" stroke-width="1.5" stroke-linecap="round" stroke-linejoin="round"/>
<path d="M20.2725 154.359C15.667 159.316 15.259 170.237 14.9749 176.643C14.7966 180.727 15.1623 184.774 14.9961 188.815C14.845 192.488 14.2134 197.566 15.1683 201.081" stroke="#301C3D" stroke-width="1.5" stroke-linecap="round" stroke-linejoin="round"/>
<path d="M14.8382 208.458C14.8592 209.554 14.7967 210.65 14.6514 211.737" stroke="#301C3D" stroke-width="1.5" stroke-linecap="round" stroke-linejoin="round"/>
<path d="M24.2881 153.539C25.9115 154.849 26.5046 159.045 26.6972 160.916" stroke="#301C3D" stroke-width="1.5" stroke-linecap="round" stroke-linejoin="round"/>
<path d="M29.1055 153.539C32.2942 158.525 32.3753 163.406 32.7544 169.166C33.0137 173.149 32.9067 178.257 33.1206 182.228" stroke="#301C3D" stroke-width="1.5" stroke-linecap="round" stroke-linejoin="round"/>
<path d="M33.9238 153.539C34.7765 155.108 34.9786 156.849 35.5299 158.457" stroke="#301C3D" stroke-width="1.5" stroke-linecap="round" stroke-linejoin="round"/>
<path d="M39.9215 224.032C39.9034 218.548 39.5449 213.126 39.5449 207.639" stroke="#301C3D" stroke-width="1.5" stroke-linecap="round" stroke-linejoin="round"/>
<path d="M21.8789 227.311C21.8789 221.791 23.5796 216.418 23.4808 210.917" stroke="#301C3D" stroke-width="1.5" stroke-linecap="round" stroke-linejoin="round"/>
<path d="M27.6911 225.672C27.664 224.578 27.4832 223.496 27.5013 222.393" stroke="#301C3D" stroke-width="1.5" stroke-linecap="round" stroke-linejoin="round"/>
<path d="M35.5303 129.768C35.5303 129.768 37.3586 150.109 37.8226 160.324C38.1477 167.418 38.6562 171.051 38.7424 178.13" stroke="#301C3D" stroke-width="1.5" stroke-linecap="round" stroke-linejoin="round"/>
<path d="M45.166 127.309C45.166 127.309 46.434 138.744 46.754 144.588C47.0558 149.927 47.6023 155.279 47.8136 160.605C47.9917 165.179 48.3781 178.95 48.3781 178.95" stroke="#301C3D" stroke-width="1.5" stroke-linecap="round" stroke-linejoin="round"/>
<path d="M49.1782 185.507C49.1782 190.966 49.4823 195.68 44.0423 197.665C40.3022 199.033 34.4517 199.681 33.95 194.299C33.6672 191.262 35.7471 190.125 36.8904 192.495" stroke="#301C3D" stroke-width="1.5" stroke-linecap="round" stroke-linejoin="round"/>
<path d="M37.1357 195.343C37.1357 193.123 37.1357 189.635 39.5151 188.956C39.5537 188.09 39.5418 187.202 39.5448 186.327" stroke="#301C3D" stroke-width="1.5" stroke-linecap="round" stroke-linejoin="round"/>
<path d="M41.1517 196.163C40.9849 197.038 40.6206 197.795 40.3486 198.622" stroke="#301C3D" stroke-width="1.5" stroke-linecap="round" stroke-linejoin="round"/>
<path d="M44.3636 195.343C44.2904 195.911 43.7733 197.322 43.5605 197.802" stroke="#301C3D" stroke-width="1.5" stroke-linecap="round" stroke-linejoin="round"/>
<path d="M4.21191 135.506C4.21191 135.506 4.6417 153.841 4.87545 157.705C5.10919 161.568 5.81796 169.113 5.81796 169.113" stroke="#301C3D" stroke-width="1.5" stroke-linecap="round" stroke-linejoin="round"/>
<path d="M40.3479 155.179C40.0621 155.441 39.7941 155.714 39.5449 155.998" stroke="#301C3D" stroke-width="1.5" stroke-linecap="round" stroke-linejoin="round"/>
<path d="M6.9977 155.998C6.82418 156.244 6.69639 156.522 6.62109 156.818" stroke="#301C3D" stroke-width="1.5" stroke-linecap="round" stroke-linejoin="round"/>
<path d="M11.5178 233.049C11.5178 235.451 11.6293 237.578 11.5178 239.98C11.4365 241.738 11.4395 244.524 11.4395 244.524" stroke="#301C3D" stroke-width="1.5" stroke-linecap="round" stroke-linejoin="round"/>
<path d="M21.9572 232.229C21.9572 236.66 21.8789 240.09 21.8789 244.524" stroke="#301C3D" stroke-width="1.5" stroke-linecap="round" stroke-linejoin="round"/>
<path d="M36.2847 232.229C36.6221 236.258 35.0717 240.635 35.6684 244.524" stroke="#301C3D" stroke-width="1.5" stroke-linecap="round" stroke-linejoin="round"/>
<path d="M11.04 246.983H26.6878C26.7157 246.505 26.6817 246.026 26.5862 245.555C21.8944 244.382 15.7165 244.363 10.8769 244.749C10.7939 245.673 10.2955 246.283 11.04 246.983Z" fill="#301C3D" stroke="#301C3D" stroke-width="1.5" stroke-linecap="round" stroke-linejoin="round"/>
<path d="M22.3211 246.983H39.544C39.5613 246.431 39.4227 245.887 39.1488 245.432C38.8749 244.978 38.4803 244.637 38.0239 244.461C32.7339 243.379 26.9726 243.644 22.1417 244.112C22.0535 245.281 21.5032 246.073 22.3211 246.983Z" fill="#301C3D" stroke="#301C3D" stroke-width="1.5" stroke-linecap="round" stroke-linejoin="round"/>
<path d="M8.22714 202.72C7.86603 208.876 7.77764 215.037 7.42157 221.168C7.23722 224.354 6.57559 229.195 6.62357 232.229" stroke="#301C3D" stroke-width="1.5" stroke-linecap="round" stroke-linejoin="round"/>
<path d="M37.8621 184.622C36.9513 183.454 36.8693 178.702 37.774 178.96C38.6787 179.218 42.4372 179.455 42.9837 179.495C44.1604 179.598 45.3449 179.566 46.5145 179.399C47.8412 179.196 48.9736 178.843 49.9846 179.236C50.9955 179.63 50.8316 182.141 50.6555 183.3C50.2214 186.192 48.0233 186.229 44.6717 186.318C41.32 186.407 38.7637 185.79 37.8621 184.622Z" stroke="#301C3D" stroke-width="1.5" stroke-linecap="round" stroke-linejoin="round"/>
<path d="M38.7687 182.631C38.6994 182.404 38.7687 182.271 38.9463 182.228" stroke="#301C3D" stroke-width="1.5" stroke-linecap="round" stroke-linejoin="round"/>
<path d="M41.9463 183.483L42.124 183.084" stroke="#301C3D" stroke-width="1.5" stroke-linecap="round" stroke-linejoin="round"/>
<path d="M41.6963 181.111L42.0697 180.902" stroke="#301C3D" stroke-width="1.5" stroke-linecap="round" stroke-linejoin="round"/>
<path d="M45.1035 181.615C45.2541 181.452 45.5101 181.172 45.4739 181.406" stroke="#301C3D" stroke-width="1.5" stroke-linecap="round" stroke-linejoin="round"/>
<path d="M45.54 183.996C45.7599 183.735 45.9857 183.529 46.0971 183.584" stroke="#301C3D" stroke-width="1.5" stroke-linecap="round" stroke-linejoin="round"/>
<path d="M31.8711 103.781V103.297" stroke="#301C3D" stroke-width="1.5" stroke-linecap="round" stroke-linejoin="round"/>
<path d="M98.4423 82.2837C97.965 83.7406 97.8722 85.2941 98.1728 86.7965" stroke="#301C3D" stroke-width="1.5" stroke-linecap="round" stroke-linejoin="round"/>
<path d="M100.779 83.2946C97.2202 86.3066 96.7667 91.4486 101.261 93.5656C102.172 89.6371 104.938 86.8918 108.206 85.3127C110.216 84.3402 116.026 82.1242 116.986 85.5622C119.601 84.7017 119.72 77.0382 117.048 75.8291C113.881 74.3919 107.675 78.1871 106.339 80.9926" stroke="#301C3D" stroke-width="1.5" stroke-linecap="round" stroke-linejoin="round"/>
<path d="M102.421 74.1131C105.27 72.3793 116.049 67.9328 115.675 74.3864" stroke="#301C3D" stroke-width="1.5" stroke-linecap="round" stroke-linejoin="round"/>
<path d="M109.053 71.3945C104.964 69.0684 97.2097 70.1027 89.8524 70.1027C82.495 70.1027 77.5204 70.1787 71.4254 71.5C67.7677 72.2895 62.6676 73.5813 60.1385 76.566C56.464 80.8931 56 87.3943 56 92.9162C56 97.5979 56.5769 103.863 57.0869 108.232L62.6509 107.945" stroke="#301C3D" stroke-width="1.5" stroke-linecap="round" stroke-linejoin="round"/>
<path d="M62.7596 89.0529C62.7596 97.1032 62.4587 104.991 62.7805 113.02C62.9644 117.53 62.8223 124.232 62.9059 128.464C66.7306 128.754 71.2365 128.144 75.0779 127.743C79.4 127.287 83.6008 127.146 87.973 127.039C91.317 126.954 94.5272 126.992 97.7792 126.664C99.5055 126.489 101.959 126.297 103.527 126.467" stroke="#301C3D" stroke-width="1.5" stroke-linecap="round" stroke-linejoin="round"/>
<path d="M102.421 91.3093C102.421 99.2071 104.804 128.684 104.952 135.718C105.099 142.677 105.621 152.567 105.708 159.504C105.776 161.843 105.723 164.185 105.549 166.517C105.349 168.708 105.417 167.933 104.263 169.828C102.784 172.263 102.152 174.188 102.75 177.052" stroke="#301C3D" stroke-width="1.5" stroke-linecap="round" stroke-linejoin="round"/>
<path d="M115.918 84.5402C115.918 84.5402 116.897 99.4254 117.259 106.343C117.61 113.056 117.969 119.773 118.336 126.492C118.988 138.491 119 150.418 119 162.4C119 167.91 118.405 174.661 116.856 179.841C114.736 186.915 102.816 188.084 99.0945 182.769C96.9747 179.735 97.9816 169.952 101.703 173.809" stroke="#301C3D" stroke-width="1.5" stroke-linecap="round" stroke-linejoin="round"/>
<path d="M103.526 186.078C105.087 185.841 106.963 183.591 106.836 181.565" stroke="#301C3D" stroke-width="1.5" stroke-linecap="round" stroke-linejoin="round"/>
<path d="M109.053 184.949C110.562 184.115 112.307 182.245 112.369 180.437" stroke="#301C3D" stroke-width="1.5" stroke-linecap="round" stroke-linejoin="round"/>
<path d="M106.842 131.924C106.965 131.505 107.147 131.122 107.377 130.796" stroke="#301C3D" stroke-width="1.5" stroke-linecap="round" stroke-linejoin="round"/>
<path d="M58.2109 108.232C58.2109 123.45 58.7043 138.825 59.9094 153.941C60.2499 158.246 61.6034 173.947 65.9478 177.052" stroke="#301C3D" stroke-width="1.5" stroke-linecap="round" stroke-linejoin="round"/>
<path d="M60.4209 131.924C60.5578 132.037 60.6603 132.213 60.7098 132.42C60.7593 132.627 60.7524 132.852 60.6904 133.053" stroke="#301C3D" stroke-width="1.5" stroke-linecap="round" stroke-linejoin="round"/>
<path d="M65.2721 128.54C65.2721 150.957 66.5527 174.12 65.524 196.513C65.2124 203.326 65.2721 210.231 64.9861 217.031C64.8068 221.326 64.8453 230.017 64.8453 230.017C67.4065 230.152 81.4207 230.017 81.4207 230.017" stroke="#301C3D" stroke-width="1.5" stroke-linecap="round" stroke-linejoin="round"/>
<path d="M80.7473 151.104C80.7473 170.815 81.6384 189.491 80.8053 209.147C80.5774 214.561 80.5483 220.061 80.4779 225.455C80.4779 226.817 79.9266 230.263 80.8551 231.362C81.7835 232.461 84.3865 231.99 85.8537 232.21C88.7551 232.21 99.1172 232.299 103.208 232.333C103.665 232.338 104.106 232.16 104.437 231.838C104.768 231.516 104.964 231.074 104.982 230.606C105.148 226.363 105.359 216.115 105.322 213.314C105.243 207.729 105.575 188.922 105.736 186.473" stroke="#301C3D" stroke-width="1.5" stroke-linecap="round" stroke-linejoin="round"/>
<path d="M83.777 232.333C83.777 234.88 83.6318 241.359 83.6318 241.359" stroke="#301C3D" stroke-width="1.5" stroke-linecap="round" stroke-linejoin="round"/>
<path d="M100.211 232.333V241.359" stroke="#301C3D" stroke-width="1.5" stroke-linecap="round" stroke-linejoin="round"/>
<path d="M67.0527 231.205V242.487" stroke="#301C3D" stroke-width="1.5" stroke-linecap="round" stroke-linejoin="round"/>
<path d="M66.2863 242.855C71.4197 242.855 94.6596 240.66 93.5397 247H65.9949C65.8782 245.612 65.9763 244.216 66.2863 242.855Z" fill="#301C3D" stroke="#301C3D" stroke-width="1.5" stroke-linecap="round" stroke-linejoin="round"/>
<path d="M82.8517 242.855C87.7882 242.855 110.089 240.66 109.015 247H82.572C82.4601 245.613 82.5543 244.218 82.8517 242.855Z" fill="#301C3D" stroke="#301C3D" stroke-width="1.5" stroke-linecap="round" stroke-linejoin="round"/>
<path d="M75.2965 59.3656C75.4437 59.724 75.6773 60.037 75.9748 60.2741C76.2722 60.5113 76.6234 60.6648 76.9945 60.7197C82.7233 61.4952 87.401 58.7829 88.1594 51.8712C88.4437 49.2616 87.9492 46.3007 88.4273 43.7297C88.9631 40.8545 89.5771 41.4501 92.392 40.6702C92.6146 38.8877 91.6049 36.8137 90.9331 35.2497C93.4059 35.5711 97.7746 34.6412 99.3407 32.4559C101.471 29.4778 99.4478 23.2646 95.887 26.8468V26.8254C95.9353 26.543 95.9168 26.2527 95.8333 25.9794C95.7497 25.706 95.6035 25.4579 95.4072 25.2564C95.2109 25.0549 94.9705 24.906 94.7066 24.8225C94.4427 24.739 94.1632 24.7235 93.8922 24.7772C91.5884 25.2057 87.8791 25.9856 86.2017 26.6069C83.0076 27.7853 78.8368 29.2207 76.2527 31.7189C72.4487 35.3911 73.9983 42.4999 73.9901 47.5391C73.9942 50.9885 73.7304 55.6805 75.2965 59.3656Z" stroke="#301C3D" stroke-width="1.5" stroke-linecap="round" stroke-linejoin="round"/>
<path d="M77 69.8736L77.1451 60.848" stroke="#301C3D" stroke-width="1.5" stroke-linecap="round" stroke-linejoin="round"/>
<path d="M97.4508 69.8736V58.1306C97.4508 56.342 97.3775 55.0465 97.8259 54.4907C98.1838 54.0436 100.21 53.8764 100.21 53.8764C98.9168 48.0258 98.4856 41.611 96.8945 36.0278" stroke="#301C3D" stroke-width="1.5" stroke-linecap="round" stroke-linejoin="round"/>
<path d="M77.9575 131.165C77.804 131.165 66.5621 131.938 65.2393 132.01C65.4549 137.572 64.8246 145.101 71.9322 147.661C71.9322 147.661 77.5469 145.182 78.0363 139.873C78.2892 137.183 78.0529 133.893 77.9575 131.165Z" stroke="#301C3D" stroke-width="1.5" stroke-linecap="round" stroke-linejoin="round"/>
<path d="M66.3213 135.916C67.9427 135.84 70.6671 135.747 70.6671 135.747" stroke="#301C3D" stroke-width="1.5" stroke-linecap="round" stroke-linejoin="round"/>
<path d="M74.3545 135.569L77.3941 135.426" stroke="#301C3D" stroke-width="1.5" stroke-linecap="round" stroke-linejoin="round"/>
<path d="M99.1232 131.009C98.9698 131.009 87.7071 131.27 86.3801 131.266C86.3552 136.832 85.3766 144.358 92.3847 147.204C92.3847 147.204 98.1073 144.979 98.8205 139.696C99.1854 137.031 99.0983 133.737 99.1232 131.009Z" stroke="#301C3D" stroke-width="1.5" stroke-linecap="round" stroke-linejoin="round"/>
<path d="M87.4707 135.245C91.2028 135.245 95.1796 134.742 98.7832 135.008" stroke="#301C3D" stroke-width="1.5" stroke-linecap="round" stroke-linejoin="round"/>
<path d="M79.1475 150.203C80.1883 150.473 81.6563 150.718 82.581 150.98" stroke="#301C3D" stroke-width="1.5" stroke-linecap="round" stroke-linejoin="round"/>
<path d="M94.9346 46.9441V46.2769" stroke="#301C3D" stroke-width="1.5" stroke-linecap="round" stroke-linejoin="round"/>
<path d="M170.519 53.4417C173.077 57.7478 177.317 59.5551 181.519 60.7319C183.395 61.2553 187.818 61.6756 189.597 60.8962" stroke="#301C3D" stroke-width="1.5" stroke-linecap="round" stroke-linejoin="round"/>
<path d="M187.26 78.602C190.171 78.4836 193.019 78.2696 195.923 78.0365C197.742 77.8913 200.305 77.8646 202.117 77.7003C202.533 77.1577 202.252 75.9618 202.076 75.381C201.7 74.2118 200.706 73.1382 199.975 72.1218C198.872 70.5935 198.849 69.2905 198.706 67.4107C198.496 64.8048 197.112 62.5352 195.585 60.6019C194.576 59.3219 193.12 58.3857 192.336 56.9415C191.064 54.5954 190.231 51.9361 188.779 50.4116C187.327 48.887 183.436 47.0721 179.306 47.011C175.175 46.9498 170.748 48.5393 168.658 50.5071C166.159 52.8646 165.926 56.8077 164.846 59.4556C164.313 60.7623 163.105 61.4577 162.332 62.6002C160.925 64.6749 161.814 67.0935 160.989 69.2676C160.482 70.6049 159.046 71.3309 158.205 72.4351C157.023 73.9941 156.554 76.3745 156.449 78.239C158.892 78.3537 161.327 78.667 163.739 78.8084C165.833 78.9345 167.547 78.9574 169.637 78.9688" stroke="#301C3D" stroke-width="1.5" stroke-linecap="round" stroke-linejoin="round"/>
</svg>
