<svg width="246" height="246" viewBox="0 0 246 246" fill="none" xmlns="http://www.w3.org/2000/svg">
<path d="M186.092 38.2072H186C188.106 41.2221 193.207 42.2566 195.923 38.976C196.596 38.117 196.973 37.0762 197 36C194.629 37.3534 188.62 38.8697 186.092 38.2072Z" fill="#301C3D"/>
<path d="M134.009 26.3396C133.965 30.1419 133.94 34.6358 137.846 33.9252C140.584 33.4226 139.966 28.5922 139.882 26.0712C139.828 24.4724 136.893 24 136.893 24C136.893 24 134.027 24.9071 134.009 26.3396Z" fill="#FFC20E" stroke="#FFC20E" stroke-width="1.5" stroke-linecap="round" stroke-linejoin="round"/>
<path d="M140 26.9561C138.026 26.4224 135.033 26.5504 133.096 27C132.968 25.0809 132.729 21.0489 134.241 19.7475C136.075 18.172 139.288 19.1992 139.563 21.7763C139.659 22.5476 140 26.9561 140 26.9561Z" fill="#E94A43" stroke="#E94A43" stroke-width="1.5" stroke-linecap="round" stroke-linejoin="round"/>
<path d="M143 57C143 57 142.256 48.5794 141.653 44.4359C141.322 42.1357 140.597 35.6437 138.381 36.0153C136.164 36.3869 136.389 41.1509 135.756 42.7303C134.993 44.618 132.468 46.7028 130 44.5883" stroke="#301C3D" stroke-width="1.5" stroke-linecap="round" stroke-linejoin="round"/>
<path d="M125.142 30.687C125.119 24.6924 128.577 21.6185 130.358 20.4357C132.139 19.2528 134.288 18.7858 133.968 16.8527C133.648 14.9196 130.79 14.7014 129.408 15.2832C127.407 16.1254 124.598 17.9207 123.022 20.5965C121.36 23.4215 120.134 25.5537 120 32" stroke="#301C3D" stroke-width="1.5" stroke-linecap="round" stroke-linejoin="round"/>
<path d="M129 63C127.963 58.8364 127.065 55.3953 127.065 55.3953C125.388 54.3801 124.676 54.0379 123.052 52.6994C119.993 50.1785 118.237 46.5891 117.271 42.8133C116.575 40.0718 117.052 36.8056 120.701 38.4368C122.696 39.3304 125.729 44.5206 124.764 46.802C123.382 50.0872 120.535 45.5624 119.906 43.6118" stroke="#301C3D" stroke-width="1.5" stroke-linecap="round" stroke-linejoin="round"/>
<path d="M118.194 39.1997C116.899 33.1258 122.431 32.6615 124.965 36.3126C126.701 38.814 130.625 47 125.333 47" stroke="#301C3D" stroke-width="1.5" stroke-linecap="round" stroke-linejoin="round"/>
<path d="M119 33.4923C119.851 28.6346 125.819 29.2404 128.204 32.8828C129.132 34.2927 133.485 44.5259 129.021 43.9788" stroke="#301C3D" stroke-width="1.5" stroke-linecap="round" stroke-linejoin="round"/>
<path d="M133.438 8L133 5" stroke="#301C3D" stroke-width="1.5" stroke-linecap="round" stroke-linejoin="round"/>
<path d="M143 9L145 7" stroke="#301C3D" stroke-width="1.5" stroke-linecap="round" stroke-linejoin="round"/>
<path d="M148 12L150 11" stroke="#301C3D" stroke-width="1.5" stroke-linecap="round" stroke-linejoin="round"/>
<path d="M152 25L154 25.4379" stroke="#301C3D" stroke-width="1.5" stroke-linecap="round" stroke-linejoin="round"/>
<path d="M144 60.3469L143.416 56C140.838 56.7128 136.446 58.9545 133.982 60.1327C132.583 60.8011 129.546 61.8537 129.045 63.3494C128.761 64.2321 129.907 69 129.907 69" stroke="#301C3D" stroke-width="1.5" stroke-linecap="round" stroke-linejoin="round"/>
<path d="M158.12 109.543C158.12 109.543 154.948 114.17 152.811 116.617C149.323 120.62 139.302 129.187 135.061 119.677C131.316 111.279 131.316 100.784 130.434 91.6465C129.935 86.4968 129.604 80.9636 129.272 75.859C129.079 72.8856 128.331 71.5024 130.613 69.7281C135.244 66.1308 141.39 63.2026 146.665 60.6729C148.057 70.6228 149.904 82.1364 145.742 91.6578C146.963 88.2484 148.184 86.3389 149.04 86.5757C150.578 87.0042 149.83 92.4697 148.329 96.285C148.329 91.0827 149.978 87.1508 152.1 83.031C154.222 78.9112 157.848 74.2727 161.136 69.7357C164.177 65.5332 168.119 61.4284 173 60" stroke="#301C3D" stroke-width="1.5" stroke-linecap="round" stroke-linejoin="round"/>
<path d="M204.208 39.6129C206.757 37.7028 210.329 40.5564 208.497 44.0519C207.438 46.0689 205.506 45.7824 203.623 45.6678C203.417 47.9942 202.751 50.5422 202.232 52.8878C201.898 54.4159 201 59 201 59" stroke="#301C3D" stroke-width="1.5" stroke-linecap="round" stroke-linejoin="round"/>
<path d="M182 55C182 55 182.773 30.2676 186 18" stroke="#301C3D" stroke-width="1.5" stroke-linecap="round" stroke-linejoin="round"/>
<path d="M185 35.5672C185.578 40.5035 192.561 43.1199 195.913 38.8556C196.905 37.5943 197.583 35.0229 196.283 33.7203C194.779 32.2188 193.187 33.42 191.702 34.1295C189.94 34.9703 187.444 35.2143 185.548 34.5049C184.948 34.8915 185.074 35.1318 185 35.5672Z" stroke="#301C3D" stroke-width="1.5" stroke-linecap="round" stroke-linejoin="round"/>
<path d="M186 38.7918C188.565 39.641 194.631 37.7293 197 36" stroke="#301C3D" stroke-width="1.5" stroke-linecap="round" stroke-linejoin="round"/>
<path d="M166.872 97L166 91.8961C166 91.8961 178.343 88.8104 182.211 88C182.514 89.1688 183 92.7104 183 92.7104" stroke="#301C3D" stroke-width="1.5" stroke-linecap="round" stroke-linejoin="round"/>
<path d="M187 31V29" stroke="#301C3D" stroke-width="1.5" stroke-linecap="round" stroke-linejoin="round"/>
<path d="M185.152 17.6169C185.556 18.3669 186.07 19.0546 186.679 19.6582C190.117 22.9869 195.572 19.7291 199.701 19.6321C198.88 21.3188 197.26 22.0204 197.027 24.155C196.794 26.2896 197.826 27.4091 199.231 28.9354C200.759 30.611 201.336 31.8798 202.005 34.1076C202.501 35.772 202.501 38.5597 204.591 39C206.264 37.4886 205.962 33.2978 206.325 30.9879C206.676 28.7488 206.791 26.5097 207.115 24.308C207.497 21.7704 208.716 17.4042 207.413 14.9599C207.165 14.4934 206.436 14.6987 206.237 14.4374C205.882 13.9784 205.97 13.2358 205.53 12.8477C204.121 11.6088 201.775 11.2729 199.969 10.8661C197.948 10.4071 196.351 10.3026 194.529 9.29879C193.288 8.61214 192.551 7.12316 191.405 9.26893C190.503 8.18299 189.628 7.11197 188.918 9.16071C186.683 6.39173 184.334 10.1981 184.044 12.3626C183.862 14.1831 184.248 16.0147 185.152 17.6169V17.6169Z" stroke="#301C3D" stroke-width="1.5" stroke-linecap="round" stroke-linejoin="round"/>
<path d="M201 58.1686C196.439 57.9603 192.632 57.4805 189.309 57.2684C186.535 57.0936 183.712 56.3385 181 56C182.738 58.2319 182.04 63.0676 182.915 65.8834C184.139 62.9076 186.663 60.2666 187.799 57.2833C189.14 60.672 190.636 64.3955 191.386 68C194.175 64.6373 197.325 60.3224 201 58.1686Z" stroke="#301C3D" stroke-width="1.5" stroke-linecap="round" stroke-linejoin="round"/>
<path d="M187 65C186.617 70.2967 186.214 86.6843 186 92" stroke="#301C3D" stroke-width="1.5" stroke-linecap="round" stroke-linejoin="round"/>
<path d="M197.085 111L194.517 110.742C194.517 110.742 193.885 98.9455 194.019 94.3302C197.256 93.5711 202.268 94.2011 205.338 95.4043C205.859 97.9207 206 108.825 206 108.825" stroke="#301C3D" stroke-width="1.5" stroke-linecap="round" stroke-linejoin="round"/>
<path d="M195 111C195.465 109.166 197.708 105.012 199.746 105C201.5 105 203.149 107.389 204 109.603" stroke="#301C3D" stroke-width="1.5" stroke-linecap="round" stroke-linejoin="round"/>
<path d="M199.568 101.028C201.432 101.434 201.566 105.173 199.437 104.994C197.308 104.814 197.707 100.622 199.568 101.028Z" stroke="#301C3D" stroke-width="1.5" stroke-linecap="round" stroke-linejoin="round"/>
<path d="M200 94C200.143 92.3374 200.2 90.6685 200.172 89" stroke="#301C3D" stroke-width="1.5" stroke-linecap="round" stroke-linejoin="round"/>
<path d="M195 90C195 90 202.589 89.4526 206 89" stroke="#301C3D" stroke-width="1.5" stroke-linecap="round" stroke-linejoin="round"/>
<path d="M209.912 61C212.65 65.5799 209.667 69.5093 207.039 71.6964C203.035 75.0351 200.619 77.2746 196.424 80.3478C200.619 77.2746 203.126 78.2429 203.247 80.5534C203.368 82.864 198.386 85.7951 194.096 91.2274C192.797 92.8725 191.373 94.8577 190 97" stroke="#301C3D" stroke-width="1.5" stroke-linecap="round" stroke-linejoin="round"/>
<path d="M173.186 90C172.006 85.1126 170.699 76.2439 174.907 77.6386C172.435 71.7099 170.806 66.236 173.101 59.8636C174.06 57.2319 177.109 55.5552 180 56.104C180 56.104 178.949 78.2853 178.89 88.5413" stroke="#301C3D" stroke-width="1.5" stroke-linecap="round" stroke-linejoin="round"/>
<path d="M212 82C211.738 86.7255 211.512 89.9877 211.087 94.7059C210.644 99.6636 210 106 210 106" stroke="#301C3D" stroke-width="1.5" stroke-linecap="round" stroke-linejoin="round"/>
<path d="M128 79L128.375 79.075" stroke="#301C3D" stroke-width="1.5" stroke-linecap="round" stroke-linejoin="round"/>
<path d="M128.689 82.369C128.849 82.4339 129.003 82.5104 129.151 82.5978" stroke="#301C3D" stroke-width="1.5" stroke-linecap="round" stroke-linejoin="round"/>
<path d="M128.615 85.2883C128.879 85.309 129.135 85.3871 129.365 85.5171" stroke="#301C3D" stroke-width="1.5" stroke-linecap="round" stroke-linejoin="round"/>
<path d="M192.248 29.3013V27.748" stroke="#301C3D" stroke-width="1.5" stroke-linecap="round" stroke-linejoin="round"/>
<path d="M165.591 112.307C168.588 112.599 168.393 116.098 171.723 118.265C173.109 119.171 175.041 118.759 177.371 118.456L178.352 118.31C178.371 117.85 178.394 117.371 178.42 116.858C179.735 116.858 184.342 115.638 184.342 115.638L184.503 115.6C184.45 115.163 184.398 114.728 184.342 114.306C187.424 113.613 190.147 112.936 192.559 112.307C191.402 108.516 188.54 91.3965 188.54 91.3965C188.54 91.3965 176.225 93.964 173.026 94.6526C170.404 95.2178 161.823 97.8564 161.823 97.8564C162.157 103.609 164.58 117.008 164.58 117.008L165.063 118.662C164.775 116.124 164.404 112.187 165.591 112.307Z" fill="#B8D7FF" stroke="#B8D7FF" stroke-width="1.5" stroke-linecap="round" stroke-linejoin="round"/>
<path d="M213.213 104.619C211.287 104.994 209.093 106.408 208.718 108.403C210.302 108.916 211.838 109.788 212.291 111.468C208.976 106.116 203.856 109.923 184.342 114.305C184.862 118.284 185.173 123 185.413 126.709C185.651 130.496 185.651 134.295 185.413 138.083C185.413 138.083 198.605 135.511 205.167 133.116C209.396 131.57 224.876 127.76 227.85 124.081C231.184 119.964 230.776 111.356 230.776 100.652C230.776 89.9479 231.944 79.1652 228.952 72.0391C226.36 65.8786 218.483 62.2108 209.905 61.2452C207.755 58.4868 200.815 58.498 200.815 58.498C200.815 58.498 197.71 64.0148 196.721 66.1631C192.927 74.4644 190.181 81.3135 187.743 90.019" stroke="#301C3D" stroke-width="1.5" stroke-linecap="round" stroke-linejoin="round"/>
<path d="M184.342 115.634C184.342 115.634 179.735 116.836 178.42 116.854C178.188 120.971 178.375 123.097 178.375 127.237C178.375 130.313 178.034 134.602 177.971 137.619L185.496 136.593" stroke="#301C3D" stroke-width="1.5" stroke-linecap="round" stroke-linejoin="round"/>
<path d="M164.579 116.922C159.455 117.199 161.074 124.998 161.074 128.453C161.074 130.953 160.815 133.573 162.291 135.68C163.95 138.053 166.351 137.69 169.007 137.435C171.861 137.166 174.49 136.372 177.168 135.961" stroke="#301C3D" stroke-width="1.5" stroke-linecap="round" stroke-linejoin="round"/>
<path d="M177.371 118.456C175.041 118.759 173.109 119.171 171.723 118.265C168.393 116.098 168.595 112.599 165.591 112.307C163.999 112.15 165.217 119.253 165.262 120.541" stroke="#301C3D" stroke-width="1.5" stroke-linecap="round" stroke-linejoin="round"/>
<path d="M161.074 127.656C161.31 128.689 162.891 129.766 164.295 129.954" stroke="#301C3D" stroke-width="1.5" stroke-linecap="round" stroke-linejoin="round"/>
<path d="M161.126 132.184C161.354 133.105 164.313 134.056 165.246 134.022" stroke="#301C3D" stroke-width="1.5" stroke-linecap="round" stroke-linejoin="round"/>
<path d="M195.698 136.268L196.515 137.286" stroke="#301C3D" stroke-width="1.5" stroke-linecap="round" stroke-linejoin="round"/>
<path d="M198.773 135.369L199.586 136.589" stroke="#301C3D" stroke-width="1.5" stroke-linecap="round" stroke-linejoin="round"/>
<path d="M192.807 137.009L193.623 138.233" stroke="#301C3D" stroke-width="1.5" stroke-linecap="round" stroke-linejoin="round"/>
<path d="M181.574 137.286C181.574 137.286 180.862 163.922 180.843 170.09C180.821 177.273 180.469 183.916 180.843 191.117C184.964 192.344 185.994 192.85 190.376 193.127C195.376 193.445 206.193 193.609 211.033 192.378C213.366 191.787 216.977 191.457 218.782 189.698C219.816 188.688 221.131 184.713 218.314 186.146C218.513 184.994 221.408 181.229 218.104 181.861C220.666 175.012 219.104 157.376 219.423 153.233C219.678 149.973 219.423 141.294 219.4 138.053C219.359 135.287 219.775 128.902 219.775 128.902" stroke="#301C3D" stroke-width="1.5" stroke-linecap="round" stroke-linejoin="round"/>
<path d="M167.535 138.019C167.587 142.694 167.643 152.189 167.449 156.86C167.01 167.283 167.954 178.59 167.4 189.025C165.259 189.288 163.104 189.42 160.946 189.421C157.395 189.421 154.141 189.047 153.114 189.025C153.114 186.483 153.489 176.438 153.508 174.054C153.556 169.989 153.657 165.165 153.908 161.123C154.523 151.227 155.721 141.369 156.201 131.477C156.882 117.374 158.388 106.775 161.07 93.0545C161.538 90.6629 165.257 77.0432 165.257 77.0432" stroke="#301C3D" stroke-width="1.5" stroke-linecap="round" stroke-linejoin="round"/>
<path d="M159.572 141.889C159.572 141.889 155.68 146.111 154.265 148.491" stroke="#301C3D" stroke-width="1.5" stroke-linecap="round" stroke-linejoin="round"/>
<path d="M204.474 193.198C204.474 193.198 204.545 203.269 204.444 206.563C204.339 210.032 204.392 213.476 204.212 216.938C204.096 219.183 204.336 221.968 204.354 224.524C204.377 227.406 203.257 229.562 200.17 229.727C197.024 229.895 193.803 229.805 190.649 229.869C187.091 229.947 183.196 230.265 179.671 229.768C175.925 229.236 175.603 228.229 175.334 224.854C175.008 220.796 174.761 216.766 174.761 212.682C174.711 209.702 174.82 206.721 175.086 203.752C175.618 198.748 175.24 193.591 175.202 188.549C175.158 182.968 175.085 177.387 174.985 171.808C174.82 162.549 175.401 136.777 175.401 136.777" stroke="#301C3D" stroke-width="1.5" stroke-linecap="round" stroke-linejoin="round"/>
<path d="M159.527 189.395C159.423 194.736 158.932 200.421 159.715 205.683C160.498 210.946 159.471 216.361 160.018 221.68C160.157 223.038 159.861 225.928 160.7 226.972C161.872 228.428 167.262 227.72 169.022 227.72C171.041 227.72 175.48 227.863 175.48 227.863" stroke="#301C3D" stroke-width="1.5" stroke-linecap="round" stroke-linejoin="round"/>
<path d="M202.35 239.626H178.004C177.774 239.597 177.565 239.48 177.419 239.301C177.274 239.122 177.203 238.894 177.221 238.664C177.223 238.631 177.223 238.599 177.221 238.567C177.201 238.396 177.223 238.224 177.284 238.064C177.344 237.904 177.442 237.761 177.569 237.646C180.386 235.647 184.873 236.441 188.618 236.149C191.499 235.939 195.323 235.868 198.177 235.666C199.481 235.572 200.938 235.292 202.177 235.576C202.395 236.766 202.593 238.469 202.35 239.626Z" fill="#301C3D" stroke="#301C3D" stroke-width="1.5" stroke-linecap="round" stroke-linejoin="round"/>
<path d="M182.817 238.746H160.343C160.076 238.747 159.818 238.648 159.619 238.469C159.42 238.289 159.295 238.043 159.268 237.777C159.246 237.581 159.28 237.382 159.364 237.204C159.449 237.025 159.582 236.874 159.748 236.766C163.19 234.566 169.977 235.621 173.73 235.685C177.386 235.748 178.629 235.546 182.236 235.281L182.817 238.746Z" fill="#301C3D" stroke="#301C3D" stroke-width="1.5" stroke-linecap="round" stroke-linejoin="round"/>
<path d="M160.834 122.771C161.018 123.816 162.418 125.44 163.83 125.44" stroke="#301C3D" stroke-width="1.5" stroke-linecap="round" stroke-linejoin="round"/>
<path d="M192.803 144.284C197.694 146.391 201.331 150.987 205.448 154.15" stroke="#301C3D" stroke-width="1.5" stroke-linecap="round" stroke-linejoin="round"/>
<path d="M197.282 97.9161C197.765 97.6391 199.619 96.5537 199.638 97.8038C200.477 97.5381 202.039 96.827 202.376 98.223" stroke="#301C3D" stroke-width="1.5" stroke-linecap="round" stroke-linejoin="round"/>
<path d="M86.8701 158.997C86.8701 158.997 86.6753 163.904 86.5967 165.266" stroke="#301C3D" stroke-width="1.5" stroke-linecap="round" stroke-linejoin="round"/>
<path d="M106.988 182.842V182.778C106.494 182.888 105.993 182.966 105.49 183.01C105.134 183.029 104.797 183.059 104.486 183.096L104.591 183.785C104.703 185.083 105.051 187.202 105.051 187.202C105.051 187.202 99.0359 188.156 90.024 189.133C81.0122 190.11 75.8658 190.656 75.8658 190.656C75.8658 190.656 75.4351 185.323 75.2515 182.737C75.0605 180.05 74.4462 171.381 74.4462 171.381C74.4462 171.381 78.0345 170.479 81.6527 169.97L82.1921 169.892C81.3531 169.199 80.9373 167.759 80.6751 166.306H80.5066L74.4462 167.092L74.1503 167.13C73.7758 174.353 73.5286 181.588 73.1465 188.194C72.67 188.467 72.1566 188.67 71.6221 188.796L72.2401 194.036L107.823 189.855L106.988 182.842Z" fill="#B8D7FF" stroke="#B8D7FF" stroke-width="1.5" stroke-linecap="round" stroke-linejoin="round"/>
<path d="M102.021 167.235C102.021 167.235 102.284 168.822 102.445 169.739L102.463 169.866C103.37 169.724 104.46 169.536 105.404 169.383L104.714 163.541L84.9791 165.91L84.6495 165.94C84.5596 167.515 84.3573 168.885 83.9453 169.652L84.1925 169.619C84.6495 169.529 102.021 167.235 102.021 167.235Z" fill="#B8D7FF" stroke="#B8D7FF" stroke-width="1.5" stroke-linecap="round" stroke-linejoin="round"/>
<path d="M47.7593 82.762C49.8906 93.8628 51.8195 98.2754 49.707 103.878C50.0067 102.95 51.4675 96.9131 52.7035 97.1901C54.3141 97.5643 54.5051 103.62 55.0183 104.851C54.4901 102.231 55.5539 99.0652 57.569 96.9206C60.0785 94.2483 69.8507 86.9725 72.7273 84.7419C77.413 81.1115 81.3421 78.8733 85.4623 74.6141C85.4623 74.6141 88.9456 80.3966 90.3727 82.7994C91.4215 84.5734 93.6875 89.1059 93.6688 91.1119C93.6688 92.2759 91.8222 93.6682 91.1293 94.5103C88.9232 97.1826 87.6459 99.0315 85.1364 101.509C80.9264 105.69 75.5777 111.263 72.6711 114.201C69.7646 117.139 66.2849 121.649 57.2843 125.054C53.6998 126.417 46.4222 127.79 42.3657 126.619C38.3093 125.447 34.8746 120.166 33.7509 116.413C31.9368 110.5 30.6938 104.428 30.0391 98.2792" stroke="#301C3D" stroke-width="1.5" stroke-linecap="round" stroke-linejoin="round"/>
<path d="M90.1361 90.9735C90.1361 90.9735 86.2107 95.1204 83.4765 97.7366C82.3154 98.8594 81.2291 99.9822 80.1055 101.071" stroke="#301C3D" stroke-width="1.5" stroke-linecap="round" stroke-linejoin="round"/>
<path d="M82.668 96.9207C82.8483 97.4916 82.9946 98.0728 83.1062 98.661" stroke="#301C3D" stroke-width="1.5" stroke-linecap="round" stroke-linejoin="round"/>
<path d="M85.6537 94.5104C85.6239 95.0811 85.7014 95.6524 85.8821 96.1946" stroke="#301C3D" stroke-width="1.5" stroke-linecap="round" stroke-linejoin="round"/>
<path d="M87.8779 92.351C88.0733 92.6698 88.2103 93.0208 88.2824 93.3877" stroke="#301C3D" stroke-width="1.5" stroke-linecap="round" stroke-linejoin="round"/>
<path d="M86.582 75.4901L89.3837 73.2445L96.6726 85.8462L93.4851 89.1135" stroke="#301C3D" stroke-width="1.5" stroke-linecap="round" stroke-linejoin="round"/>
<path d="M57.3963 52.1356C57.3963 52.1356 57.7521 47.7042 57.6922 45.3987C49.628 50.6048 49.5156 36.6184 57.636 38.7292C57.9132 37.8797 58.063 34.6984 58.063 34.6984" stroke="#301C3D" stroke-width="1.5" stroke-linecap="round" stroke-linejoin="round"/>
<path d="M39.4175 65.7253C38.8594 61.9826 39.1141 58.3709 41.2903 55.2645C44.7887 50.2792 46.9087 45.1592 47.6578 39.1185C48.141 35.3758 49.8377 32.6361 51.3622 29.1517C52.542 26.4532 52.8604 23.4852 54.1826 20.8242C56.5573 16.0186 60.8572 13.9039 66.0373 12.8897C69.7829 12.1411 75.8732 12.1037 77.6486 16.4116C78.2254 17.8113 79.7348 22.3512 77.907 23.0137C76.7009 23.4478 71.7156 19.9222 70.487 19.3645C68.7978 22.5533 66.2283 25.0497 64.0372 28.0139C62.7899 29.7056 58.9619 34.3765 56.1153 35.6453" stroke="#301C3D" stroke-width="1.5" stroke-linecap="round" stroke-linejoin="round"/>
<path d="M67.5283 39.0736C68.3374 39.8858 69.4985 40.6418 70.7046 40.2975" stroke="#301C3D" stroke-width="1.5" stroke-linecap="round" stroke-linejoin="round"/>
<path d="M23.5891 193.587C23.3411 198.499 22.797 203.393 21.9598 208.24C20.7088 215.235 19.2854 222.088 17.585 228.768C21.8249 228.914 26.3758 228.394 30.6945 228.199C33.7209 228.072 36.9908 228.106 39.9385 227.919C42.3245 220.924 43.5905 211.275 44.8078 203.965C45.5569 199.418 45.9914 196.817 46.4858 192.236" stroke="#301C3D" stroke-width="1.5" stroke-linecap="round" stroke-linejoin="round"/>
<path d="M16.124 240H42.8824C42.9648 237.066 41.6688 236.695 39.1068 236.542C35.3613 236.317 31.4921 236.373 27.7465 236.336C24.001 236.299 20.379 236.609 16.772 236.377L16.124 240Z" fill="#301C3D" stroke="#301C3D" stroke-width="1.5" stroke-linecap="round" stroke-linejoin="round"/>
<path d="M17.9482 236.347L19.188 229.622" stroke="#301C3D" stroke-width="1.5" stroke-linecap="round" stroke-linejoin="round"/>
<path d="M34.875 235.932C35.6653 233.005 36.0511 231.104 36.7253 228.169" stroke="#301C3D" stroke-width="1.5" stroke-linecap="round" stroke-linejoin="round"/>
<path d="M40.8408 224.921C40.8408 224.921 47.1034 225.257 50.8153 225.149C53.8829 225.059 61.0294 224.719 61.0294 224.719C61.0294 224.719 63.7337 211.095 64.4454 206.23C65.82 196.806 67.1797 187.31 67.6366 177.785C68.0599 169.001 68.2884 163.252 68.7303 154.472C68.9888 149.296 70.0113 130.459 70.0038 125.41C66.6138 126.165 63.1541 126.564 59.681 126.6" stroke="#301C3D" stroke-width="1.5" stroke-linecap="round" stroke-linejoin="round"/>
<path d="M54.4341 225.752C53.5464 228.716 51.9883 234.311 51.9883 234.311" stroke="#301C3D" stroke-width="1.5" stroke-linecap="round" stroke-linejoin="round"/>
<path d="M34.4141 238.578H57.8988C60.9552 233.218 51.0781 234.36 35.3842 234.36" fill="#301C3D"/>
<path d="M34.4141 238.578H57.8988C60.9552 233.218 51.0781 234.36 35.3842 234.36" stroke="#301C3D" stroke-width="1.5" stroke-linecap="round" stroke-linejoin="round"/>
<path d="M67.0635 189.264C68.6479 189.373 71.7979 189.062 73.1388 188.209C73.8879 175.132 74.1463 159.588 75.7607 146.556C76.7682 138.472 77.7983 108.935 77.7983 108.935" stroke="#301C3D" stroke-width="1.5" stroke-linecap="round" stroke-linejoin="round"/>
<path d="M69.7568 125.511C74.1392 124.594 75.304 122.199 74.6261 118.164C74.0343 114.642 74.3826 112.64 74.3826 112.64" stroke="#301C3D" stroke-width="1.5" stroke-linecap="round" stroke-linejoin="round"/>
<path d="M30.0312 145.257C35.0953 144.135 41.9684 140.074 45.1072 136.911" stroke="#301C3D" stroke-width="1.5" stroke-linecap="round" stroke-linejoin="round"/>
<path d="M87.6229 98.8668C88.1959 106.988 88.7016 114.354 88.8888 117.532C89.5518 128.827 90.0987 135.347 89.9526 146.706C89.9264 148.716 89.9526 152.264 89.5968 154.191C86.9149 155.224 77.6109 155.116 75.667 155.314" stroke="#301C3D" stroke-width="1.5" stroke-linecap="round" stroke-linejoin="round"/>
<path d="M87.5255 154.951L87.6229 158.439L75.667 158.997" stroke="#301C3D" stroke-width="1.5" stroke-linecap="round" stroke-linejoin="round"/>
<path d="M105.483 183.003C106.535 182.95 109.112 182.273 109.112 182.273C108.865 178.002 108.412 173.362 107.352 169.11C106.146 169.177 101.67 170.079 100.729 170.064C101.194 173.212 102.602 183.433 102.602 183.433C103.546 183.194 104.511 183.05 105.483 183.003V183.003Z" stroke="#301C3D" stroke-width="1.5" stroke-linecap="round" stroke-linejoin="round"/>
<path d="M96.6387 171.722C97.0132 172.471 96.7024 173.754 96.7848 174.686C96.8784 175.738 97.1593 176.898 97.3653 177.969C97.7961 180.135 98.0131 182.339 98.0133 184.548" stroke="#301C3D" stroke-width="1.5" stroke-linecap="round" stroke-linejoin="round"/>
<path d="M93.2871 172.265C93.8939 176.202 93.819 180.66 94.8303 184.44" stroke="#301C3D" stroke-width="1.5" stroke-linecap="round" stroke-linejoin="round"/>
<path d="M82.8145 173.436C83.189 174.185 82.8781 175.465 82.9605 176.4C83.0542 177.448 83.3351 178.612 83.5411 179.683C83.9717 181.848 84.1887 184.051 84.1891 186.259" stroke="#301C3D" stroke-width="1.5" stroke-linecap="round" stroke-linejoin="round"/>
<path d="M79.4619 173.975C80.0687 177.913 79.9938 182.374 81.0051 186.154" stroke="#301C3D" stroke-width="1.5" stroke-linecap="round" stroke-linejoin="round"/>
<path d="M90.3878 172.493C89.2828 174.96 90.9945 178.938 91.0882 181.58C91.1294 182.782 91.0882 184.062 91.4852 185.14" stroke="#301C3D" stroke-width="1.5" stroke-linecap="round" stroke-linejoin="round"/>
<path d="M86.582 173.051C86.7206 175.525 87.2338 178.077 87.4248 180.589C87.5484 182.176 87.2862 184.331 87.8368 185.847" stroke="#301C3D" stroke-width="1.5" stroke-linecap="round" stroke-linejoin="round"/>
<path d="M84.6869 161.134C84.7843 165.666 84.7543 171.748 82.286 169.982C80.7465 168.859 80.5668 165.333 80.2334 163.466" stroke="#301C3D" stroke-width="1.5" stroke-linecap="round" stroke-linejoin="round"/>
<path d="M77.6231 23.3356C77.7609 30.1269 77.3374 36.918 76.3571 43.6397C75.9563 46.6076 75.4245 53.2584 74.5967 57.9181" stroke="#301C3D" stroke-width="1.5" stroke-linecap="round" stroke-linejoin="round"/>
<path d="M70.0713 33.104L70.2586 31.9924" stroke="#301C3D" stroke-width="1.5" stroke-linecap="round" stroke-linejoin="round"/>
<path d="M74.4912 33.1749L74.7122 31.9286" stroke="#301C3D" stroke-width="1.5" stroke-linecap="round" stroke-linejoin="round"/>
<path d="M62.64 89.6785C60.078 82.8219 54.1001 75.0146 52.7966 73.7683C50.3021 71.3842 51.804 66.8705 56.1452 68.566C53.5233 66.0471 46.9198 62.5477 46.8824 60.8747C46.8187 58.3447 52.6505 54.9837 54.6656 55.2008C58.1003 55.5751 60.0705 64.3741 60.6848 67.0839C61.2991 69.7936 63.861 84.813 62.6699 92.3508" stroke="#301C3D" stroke-width="1.5" stroke-linecap="round" stroke-linejoin="round"/>
<path d="M55.3291 55.2046C55.3291 55.2046 55.8385 53.7075 56.1381 52.5435C58.7975 51.7538 63.03 53.7487 65.3972 54.7031C67.2363 55.4516 67.7082 58.1913 67.9966 59.8605C68.4611 62.5478 69.0454 65.2126 69.3488 67.926C69.8657 72.5408 70.2814 82.414 69.6971 86.9876" stroke="#301C3D" stroke-width="1.5" stroke-linecap="round" stroke-linejoin="round"/>
<path d="M60.251 63.2138C61.4346 63.6667 62.4983 64.4526 63.8055 64.5013C65.0191 62.4166 65.1502 57.7383 65.4798 55.3018" stroke="#301C3D" stroke-width="1.5" stroke-linecap="round" stroke-linejoin="round"/>
<path d="M59.6028 124.107C59.4529 127.053 55.4227 157.519 55.1642 160.528C54.7897 164.757 53.1978 179.799 52.6734 183.032C52.4375 184.492 51.7296 190.11 50.6471 191.266C49.6995 192.269 44.6542 192.442 43.3058 192.576C39.298 192.981 35.4064 193.269 31.4997 193.433C26.2559 193.654 23.1771 193.722 17.9707 193.194C15.8957 192.984 16.3714 193.258 16.0717 191.753C15.7571 190.155 16.5662 159.439 16.7871 151.867C17.0081 144.296 18.2142 134.703 18.9146 128.7C19.5813 122.981 22.2856 94.2146 28.6868 81.3996C30.5596 77.6943 34.7397 70.7329 37.5226 67.6377C39.4703 65.4707 43.2533 62.4765 46.9577 61.6494" stroke="#301C3D" stroke-width="1.5" stroke-linecap="round" stroke-linejoin="round"/>
<path d="M76.9297 61.8441C80.5591 66.4626 83.1061 71.65 83.889 76.1375" stroke="#301C3D" stroke-width="1.5" stroke-linecap="round" stroke-linejoin="round"/>
<path d="M69.6973 71.7098C70.952 66.5786 74.1919 58.6104 76.7202 54.1191C77.9488 55.2419 79.2185 59.8829 78.7503 61.5858C77.8177 61.38 75.1208 61.8179 74.2144 61.5147" stroke="#301C3D" stroke-width="1.5" stroke-linecap="round" stroke-linejoin="round"/>
<path d="M76.93 81.1526C76.93 81.1526 76.8925 74.2773 76.5554 71.7098C76.1509 68.6296 75.5816 65.0328 74.6826 62.1472" stroke="#301C3D" stroke-width="1.5" stroke-linecap="round" stroke-linejoin="round"/>
<path d="M90.3574 74.1126C91.4603 73.1367 92.4199 72.0103 93.2078 70.7666C94.5899 68.7081 94.0917 62.2071 96.0994 60.2197C99.7213 56.9935 99.4217 64.3367 99.2494 67.8398C103.92 64.4714 107.711 62.8807 107.774 67.4468C109.894 66.4887 110.422 69.8908 109.576 71.1895C111.67 72.3685 110.872 74.9322 109.756 76.1748C111.411 77.6719 109.381 80.5088 107.965 81.7514C106.346 83.0649 104.375 83.8697 102.298 84.0644C101.088 84.128 99.0471 83.9895 97.8036 83.4094L95.9758 84.6183" stroke="#301C3D" stroke-width="1.5" stroke-linecap="round" stroke-linejoin="round"/>
<path d="M102.759 72.4733C104.751 71.2794 106.935 69.6663 107.767 67.4469" stroke="#301C3D" stroke-width="1.5" stroke-linecap="round" stroke-linejoin="round"/>
<path d="M104.07 76.1374C105.748 75.1268 108.94 73.248 109.569 71.1746" stroke="#301C3D" stroke-width="1.5" stroke-linecap="round" stroke-linejoin="round"/>
<path d="M106.464 79.2327C107.705 78.3773 108.81 77.3417 109.745 76.1599" stroke="#301C3D" stroke-width="1.5" stroke-linecap="round" stroke-linejoin="round"/>
<path d="M182.794 235.745C182.712 233.963 182.76 230.584 182.76 230.584" stroke="#301C3D" stroke-width="1.5" stroke-linecap="round" stroke-linejoin="round"/>
<path d="M200.725 230.097L200.526 236.119" stroke="#301C3D" stroke-width="1.5" stroke-linecap="round" stroke-linejoin="round"/>
<path d="M165.868 235.456C165.797 233.001 166.172 230.591 166.153 228.147" stroke="#301C3D" stroke-width="1.5" stroke-linecap="round" stroke-linejoin="round"/>
</svg>
