<svg width="248" height="248" viewBox="0 0 248 248" fill="none" xmlns="http://www.w3.org/2000/svg">
<path d="M38.1514 35.9515C50.1265 24.2702 64.3692 15.1532 80.005 9.16008C95.6407 3.167 112.34 0.42433 129.077 1.10045C145.814 1.77657 162.235 5.8572 177.334 13.0918C192.433 20.3265 205.889 30.5625 216.878 43.1714" stroke="#301C3D" stroke-width="1.5" stroke-linecap="round" stroke-linejoin="round"/>
<path d="M46.1837 218.886C17.1011 195.095 -0.748765 158.359 1.13594 117.981C2.07335 97.1788 8.31331 76.9597 19.2653 59.2367" stroke="#301C3D" stroke-width="1.5" stroke-linecap="round" stroke-linejoin="round"/>
<path d="M175.71 235.019C159.021 243.087 140.796 247.18 122.376 246.994C103.956 246.809 85.8113 242.35 69.2773 233.947" stroke="#301C3D" stroke-width="1.5" stroke-linecap="round" stroke-linejoin="round"/>
<path d="M233.25 67.2694C246.008 92.0206 250.045 120.381 244.701 147.731C239.358 175.08 224.95 199.807 203.824 217.882" stroke="#301C3D" stroke-width="1.5" stroke-linecap="round" stroke-linejoin="round"/>
<path d="M209.849 156.215L201.803 155.644C200.066 155.522 198.353 156.115 197.041 157.291C195.728 158.467 194.924 160.131 194.803 161.917C194.685 163.703 195.261 165.464 196.404 166.814C197.548 168.164 199.166 168.991 200.903 169.115L208.949 169.686L209.849 156.215Z" fill="#B8D7FF" stroke="#B8D7FF" stroke-width="1.5" stroke-linecap="round" stroke-linejoin="round"/>
<path d="M151.541 228.254C153.025 224.668 149.453 219.783 143.56 217.343C137.668 214.904 131.688 215.834 130.203 219.42C128.718 223.007 132.291 227.892 138.183 230.331C144.076 232.771 150.056 231.841 151.541 228.254Z" fill="#29ABAC" stroke="#29ABAC" stroke-width="1.5" stroke-linecap="round" stroke-linejoin="round"/>
<path d="M117.975 200.812C123.243 200.812 127.514 196.542 127.514 191.273C127.514 186.005 123.243 181.735 117.975 181.735C112.707 181.735 108.437 186.005 108.437 191.273C108.437 196.542 112.707 200.812 117.975 200.812Z" fill="#FFC20E" stroke="#FFC20E" stroke-width="1.5" stroke-linecap="round" stroke-linejoin="round"/>
<path d="M81.5008 44.0083C88.4255 40.4982 92.3115 34.2444 90.1804 30.0401C88.0493 25.8358 80.7081 25.273 73.7834 28.7831C66.8587 32.2933 62.9727 38.5471 65.1038 42.7514C67.2349 46.9557 74.5761 47.5185 81.5008 44.0083Z" fill="#E94A43" stroke="#E94A43" stroke-width="1.5" stroke-linecap="round" stroke-linejoin="round"/>
<path d="M135.547 66.2653C130.281 67.1751 124.003 70.0641 120.512 74.2979C118.711 72.7018 116.431 70.3434 114.262 69.3099C113.039 68.7233 110.345 67.5103 109.44 67.4424" stroke="#301C3D" stroke-width="1.5" stroke-linecap="round" stroke-linejoin="round"/>
<path d="M115.819 73.2938C115.635 77.3256 115.668 81.3806 115.465 85.3428" stroke="#301C3D" stroke-width="1.5" stroke-linecap="round" stroke-linejoin="round"/>
<path d="M124.502 80.3224C124.879 78.8289 124.856 73.2938 124.856 73.2938" stroke="#301C3D" stroke-width="1.5" stroke-linecap="round" stroke-linejoin="round"/>
<path d="M105.501 72.0915C105.501 72.0915 99.757 69.8452 97.1164 68.8793C93.8882 67.7187 90.7428 66.3372 87.5297 65.1354C81.8379 63.0052 71.5882 58.3516 65.8362 56.3973C64.4688 55.9293 55.2889 51.5715 54.8557 53.8852C52.7237 55.525 50.7121 59.3811 49.6273 61.8109C48.6102 64.0572 47.047 66.7004 47.1976 69.2237C47.4236 72.9488 53.5787 74.8395 56.4604 76.1648C63.787 79.5567 75.8712 84.9965 83.081 88.673C87.3602 90.8557 92.3852 91.889 96.1747 94.431C97.7869 95.513 97.0599 99.4815 96.8 101.308C96.3743 104.281 96.4233 106.958 96.4233 109.953C96.4233 112.458 95.975 116.808 99.1467 117.534C102.318 118.261 106.112 117.396 107.871 117.22C111.02 116.905 114.467 117.044 117.665 117.04C123.718 117.04 129.813 118.058 135.889 118.279C139.791 118.422 146.47 118.923 148.598 117.456C150.727 115.988 149.227 107.044 148.975 102.986C148.809 100.343 148.858 97.6058 148.734 94.9814C148.542 90.8631 148.158 89.9272 152.102 88.2237C157.338 85.9774 162.728 83.806 168.081 81.8592C172.782 80.1595 177.396 78.4523 182.086 76.7339C186.836 74.993 192.347 74.51 196.702 72.1888C198.476 71.2416 199.146 69.9425 199.5 68.0931C199.941 65.7981 199.836 63.5742 199.632 61.2568C199.459 59.325 200.284 56.9963 198.984 55.379C197.685 53.7616 195.654 54.0986 193.869 54.3719C191.53 54.7462 188.478 55.7533 186.188 56.386C180.613 57.921 175.795 59.8828 170.122 61.107C165.5 62.1029 160.814 63.8625 156.287 65.3151C151.925 66.7191 147.856 68.0332 143.329 69.0215C142.575 69.1863 139.513 70.3431 138.771 70.4891" stroke="#301C3D" stroke-width="1.5" stroke-linecap="round" stroke-linejoin="round"/>
<path d="M131.53 61.245C134.667 61.2306 137.739 62.1263 140.365 63.8208C142.176 64.9863 143.321 68.4285 142.01 70.2816C142.01 69.8931 142.239 70.0524 142.451 69.7688" stroke="#301C3D" stroke-width="1.5" stroke-linecap="round" stroke-linejoin="round"/>
<path d="M103.344 72.2898C100.851 69.8365 103.949 65.6092 105.774 64.5261C107.882 63.2956 110.101 62.1543 112.453 62.2553" stroke="#301C3D" stroke-width="1.5" stroke-linecap="round" stroke-linejoin="round"/>
<path d="M131.035 66.6843C131.035 66.6843 131.165 60.5409 131.115 56.8654C132.84 57.7403 135.693 57.2393 135.541 55.1005C135.388 52.9617 132.87 52.2625 130.905 51.4847C130.852 49.3684 130.841 47.2595 130.848 45.1282C130.848 41.3891 131.588 36.9956 130.776 33.335C129.784 28.8967 124.359 28.8967 120.62 29.2556C118.171 29.4949 115.206 29.2182 113.55 31.3607C112.169 33.148 112.429 36.7264 112.322 38.9474C112.116 43.2774 112.188 47.5998 112.188 51.9297C110.472 52.2774 108.537 53.1187 108.442 54.835C108.32 57.0785 110.254 56.7494 111.704 56.039L112.154 55.3847C112.074 60.4063 111.731 68.2734 111.731 68.2734" stroke="#301C3D" stroke-width="1.5" stroke-linecap="round" stroke-linejoin="round"/>
<path d="M116.47 46.1836C116.582 45.9067 116.777 45.6654 117.031 45.4882C117.285 45.311 117.589 45.2054 117.905 45.1837C118.222 45.1621 118.538 45.2252 118.818 45.3659C119.097 45.5065 119.328 45.7187 119.482 45.9774" stroke="#301C3D" stroke-width="1.5" stroke-linecap="round" stroke-linejoin="round"/>
<path d="M118.478 50.2C120.555 53.0652 123.076 52.5137 125.506 50.7283" stroke="#301C3D" stroke-width="1.5" stroke-linecap="round" stroke-linejoin="round"/>
<path d="M113.457 34.8487C115.03 36.8239 116.916 39.0707 119.677 39.1522C123.159 39.2493 122.842 36.8239 122.148 34.1346C122.782 35 123.257 36.7269 124.14 37.2391C125.449 38.0152 126.494 37.2391 126.377 35.6675C127.554 36.8316 128.931 36.9946 130.526 37.049" stroke="#301C3D" stroke-width="1.5" stroke-linecap="round" stroke-linejoin="round"/>
<path d="M52.2082 55.428C52.2082 55.428 48.8337 52.8521 46.8578 52.2081C43.9915 55.534 41.7277 59.2897 40.1592 63.3214C42.2358 63.9469 44.2543 65.2717 46.1294 66.2653" stroke="#301C3D" stroke-width="1.5" stroke-linecap="round" stroke-linejoin="round"/>
<path d="M199.809 56.3115C201.238 55.404 205.788 53.8811 207.481 54.2823C208.687 54.5705 208.481 54.4303 208.58 56.183C208.661 57.6474 208.753 59.0963 208.808 60.5296C208.901 62.3577 208.82 64.1912 208.566 66.0019C208.111 68.6621 199.995 69.2775 199.995 69.2775" stroke="#301C3D" stroke-width="1.5" stroke-linecap="round" stroke-linejoin="round"/>
<path d="M99.5651 118.478L99.4004 126.51C99.4004 126.51 105.671 126.51 107.52 126.372C110.589 126.145 113.681 125.853 116.762 125.868C123.714 125.907 130.65 126.253 137.594 126.08C139.634 126.026 141.667 125.895 143.688 125.791C144.437 125.753 146.915 125.761 146.915 125.761L147.596 118.643" stroke="#301C3D" stroke-width="1.5" stroke-linecap="round" stroke-linejoin="round"/>
<path d="M48.1923 64.2571C46.5486 63.6134 43.9755 62.5186 43.1719 61.2449" stroke="#301C3D" stroke-width="1.5" stroke-linecap="round" stroke-linejoin="round"/>
<path d="M49.1958 59.8953C48.4699 61.0717 46.9417 58.923 46.1836 58.2327" stroke="#301C3D" stroke-width="1.5" stroke-linecap="round" stroke-linejoin="round"/>
<path d="M50.1999 59.2367C49.0425 57.9693 47.4645 57.0145 46.1836 56.2245" stroke="#301C3D" stroke-width="1.5" stroke-linecap="round" stroke-linejoin="round"/>
<path d="M199.809 59.2367C201.918 58.4251 206.837 57.2285 206.837 57.2285" stroke="#301C3D" stroke-width="1.5" stroke-linecap="round" stroke-linejoin="round"/>
<path d="M199.809 62.249C200.742 61.4307 203.121 61.3279 203.825 61.2449" stroke="#301C3D" stroke-width="1.5" stroke-linecap="round" stroke-linejoin="round"/>
<path d="M199.809 65.2612C201.905 64.7082 204.67 64.0953 206.837 64.2961" stroke="#301C3D" stroke-width="1.5" stroke-linecap="round" stroke-linejoin="round"/>
<path d="M103.446 119.482L103.416 125.506" stroke="#301C3D" stroke-width="1.5" stroke-linecap="round" stroke-linejoin="round"/>
<path d="M107.681 118.478L107.433 123.498" stroke="#301C3D" stroke-width="1.5" stroke-linecap="round" stroke-linejoin="round"/>
<path d="M113.457 125.506C113.559 123.136 113.74 120.811 113.955 118.478" stroke="#301C3D" stroke-width="1.5" stroke-linecap="round" stroke-linejoin="round"/>
<path d="M122.494 125.506C122.602 123.6 123.498 120.811 123.498 119.482" stroke="#301C3D" stroke-width="1.5" stroke-linecap="round" stroke-linejoin="round"/>
<path d="M131.53 125.506C131.553 123.46 132.498 121.503 132.534 119.482" stroke="#301C3D" stroke-width="1.5" stroke-linecap="round" stroke-linejoin="round"/>
<path d="M134.543 125.506C135.065 123.891 135.402 122.203 135.547 120.486" stroke="#301C3D" stroke-width="1.5" stroke-linecap="round" stroke-linejoin="round"/>
<path d="M143.58 125.506C143.767 123.856 144.575 122.206 144.584 120.486" stroke="#301C3D" stroke-width="1.5" stroke-linecap="round" stroke-linejoin="round"/>
<path d="M45.1796 54.4368C43.8437 53.7729 41.0563 52.1603 39.7319 51.5115C38.677 50.9993 38.3921 50.6237 38.4652 49.3527C38.7116 45.1374 36.8867 41.495 32.028 42.2728C27.4426 43.0089 23.5579 49.1592 23.1267 53.4086C22.6955 57.6581 26.1028 61.2473 30.307 61.437C31.1263 61.4918 31.9428 61.2954 32.6444 60.875C33.3461 60.4545 33.8986 59.8305 34.2263 59.0885C35.4891 58.9519 37.8068 60.2798 38.9041 60.94C39.6395 61.3839 40.5481 62.1655 41.3527 62.249" stroke="#301C3D" stroke-width="1.5" stroke-linecap="round" stroke-linejoin="round"/>
<path d="M38.1508 47.7356C36.747 47.0242 36.3861 47.0359 34.907 47.5957C33.6341 48.0699 32.4761 48.6142 31.5878 49.7765C31.0485 50.4763 30.3982 51.7202 30.6321 52.6493C31.0287 54.317 33.0115 53.5979 34.1456 52.9681C29.3869 53.3063 28.5938 62.3523 33.1225 61.1317" stroke="#301C3D" stroke-width="1.5" stroke-linecap="round" stroke-linejoin="round"/>
<path d="M28.1113 44.1755C28.0732 45.7446 29.2343 48.0013 31.1226 48.1919" stroke="#301C3D" stroke-width="1.5" stroke-linecap="round" stroke-linejoin="round"/>
<path d="M25.1185 49.1959C24.7835 52.2884 28.5574 55.1875 31.1221 55.2204" stroke="#301C3D" stroke-width="1.5" stroke-linecap="round" stroke-linejoin="round"/>
<path d="M23.1163 53.2123C22.8745 54.9152 24.3358 56.3218 25.7402 56.9502C27.0095 57.5178 27.8735 57.068 29.1143 56.9073" stroke="#301C3D" stroke-width="1.5" stroke-linecap="round" stroke-linejoin="round"/>
<path d="M100.698 126.032C100.698 126.032 98.0575 131.701 96.7598 133.73C94.7983 136.764 93.4704 140.218 92.0257 143.503C88.8607 150.713 84.5227 157.411 80.9579 164.41C77.7326 170.743 75.1712 177.49 71.7687 183.73C69.5053 187.865 67.0798 192.969 65.0541 197.232C64.2996 198.852 63.6546 202.344 65.2125 204.14C68.4378 207.858 72.2892 210.448 76.269 213.357C79.8828 215.988 82.0933 215.09 84.8886 211.414C87.3141 208.226 88.4533 204.433 90.3923 200.957C93.1988 195.92 95.9412 190.853 98.48 185.677C103.101 176.28 108.605 167.466 114.538 158.854C116.425 156.084 123.354 145.86 123.354 145.86C123.354 145.86 124.863 148.299 125.154 148.923C127.794 154.381 131.476 159.332 134.377 164.658C137.625 170.631 140.789 176.615 144.562 182.287C147.172 186.199 149.228 190.432 151.869 194.315C154.777 198.611 157.625 202.96 160.45 207.29C162.408 210.297 164.924 214.387 168.961 213.139C173.838 211.635 178.768 208.523 182.394 204.978C185.249 202.178 185.034 198.964 184.193 195.277C182.401 187.312 177.671 179.528 174.008 172.284C171.895 168.105 166.931 158.941 164.528 154.926C162.125 150.912 157.931 143.763 155.663 139.628C153.294 135.343 147.18 125.506 147.18 125.506" stroke="#301C3D" stroke-width="1.5" stroke-linecap="round" stroke-linejoin="round"/>
<path d="M106.4 126.51C106.811 129.678 102.716 133.846 100.404 135.547" stroke="#301C3D" stroke-width="1.5" stroke-linecap="round" stroke-linejoin="round"/>
<path d="M140.567 125.506C142.663 128.96 143.047 133.45 147.596 134.543" stroke="#301C3D" stroke-width="1.5" stroke-linecap="round" stroke-linejoin="round"/>
<path d="M119.463 188.494C118.627 187.366 116.764 187.667 116.154 188.524C115.307 189.708 115.347 191.572 115.709 192.932C116.129 194.489 116.958 195.706 118.616 195.789C119.775 195.849 121.559 194.977 121.487 193.384" stroke="#301C3D" stroke-width="1.5" stroke-linecap="round" stroke-linejoin="round"/>
<path d="M141.571 219.363C141.549 217.657 139.048 217.736 138.211 218.083C136.643 218.727 135.945 220.184 135.65 221.8C135.15 224.538 136.498 226.097 139.01 225.897" stroke="#301C3D" stroke-width="1.5" stroke-linecap="round" stroke-linejoin="round"/>
<path d="M143.705 222.902C145.322 222.961 145.968 223.939 145.365 225.727C145.004 226.812 143.806 228.306 142.478 227.832C139.667 226.83 144.312 224.517 144.073 227.251" stroke="#301C3D" stroke-width="1.5" stroke-linecap="round" stroke-linejoin="round"/>
<path d="M73.0152 42.1673C71.6553 39.8144 69.853 37.3904 69.2773 34.6922C71.6949 32.827 73.7419 36.1161 70.8063 37.604C72.3353 36.7283 73.9721 36.1125 74.8967 38.1735C75.2349 38.9245 75.5766 40.6865 74.9615 41.3771C74.4722 41.9502 73.616 42.1068 73.0152 42.1673Z" stroke="#301C3D" stroke-width="1.5" stroke-linecap="round" stroke-linejoin="round"/>
<path d="M77.3105 35.5589C77.4231 34.4187 77.2184 33.216 77.4743 32.1266C78.815 34.161 79.1459 36.9568 80.3228 39.1552" stroke="#301C3D" stroke-width="1.5" stroke-linecap="round" stroke-linejoin="round"/>
<path d="M80.3223 32.0695C80.5308 29.962 82.7039 29.3069 83.4897 31.3867C84.3157 33.5849 82.2869 36.1225 82.6678 38.1511C83.4697 37.3618 87.3508 35.3214 87.3508 35.3214" stroke="#301C3D" stroke-width="1.5" stroke-linecap="round" stroke-linejoin="round"/>
<path d="M208.845 56.7165C208.845 56.7165 211.64 56.0229 213.026 55.7609C214.129 55.5567 214.497 55.2638 214.766 54.0038C215.67 49.8228 218.322 46.771 222.573 48.8749C226.585 50.8594 228.508 57.9342 227.765 62.2037C227.023 66.4733 222.937 69.0473 219.024 68.0647C218.263 67.8857 217.573 67.4664 217.047 66.8634C216.521 66.2605 216.184 65.5029 216.082 64.693C214.979 64.2113 209.429 65.849 209.429 65.849" stroke="#301C3D" stroke-width="1.5" stroke-linecap="round" stroke-linejoin="round"/>
<path d="M215.873 52.3541C217.399 52.0622 217.735 52.1656 218.996 53.0562C220.065 53.8211 221.01 54.6156 221.533 55.9052C221.845 56.6849 222.114 57.9819 221.642 58.7764C220.795 60.1954 219.132 59.0314 218.227 58.163C222.618 59.6891 220.885 68.166 216.939 65.8749" stroke="#301C3D" stroke-width="1.5" stroke-linecap="round" stroke-linejoin="round"/>
<path d="M224.91 51.2041C224.473 52.656 222.717 54.4594 220.894 54.1892" stroke="#301C3D" stroke-width="1.5" stroke-linecap="round" stroke-linejoin="round"/>
<path d="M226.918 57.2285C226.463 60.1718 222.257 61.7755 219.89 61.0859" stroke="#301C3D" stroke-width="1.5" stroke-linecap="round" stroke-linejoin="round"/>
<path d="M226.918 62.249C226.675 64.027 224.82 65.0126 223.236 65.2247C221.812 65.4292 221.097 64.7337 219.89 64.2055" stroke="#301C3D" stroke-width="1.5" stroke-linecap="round" stroke-linejoin="round"/>
<path d="M67.9421 208.845C67.9421 208.845 66.2485 211.675 65.627 212.875C65.2636 213.564 64.2568 215.721 64.2568 215.721C64.2568 215.721 67.1425 217.14 68.1747 218.029C69.0579 218.798 71.4093 220.894 71.4093 220.894C71.4093 220.894 74.7311 215.425 75.3017 214.287" stroke="#301C3D" stroke-width="1.5" stroke-linecap="round" stroke-linejoin="round"/>
<path d="M69.2773 218.886C70.3867 217.318 73.2937 212.861 73.2937 212.861" stroke="#301C3D" stroke-width="1.5" stroke-linecap="round" stroke-linejoin="round"/>
<path d="M67.2695 215.873C68.2483 214.31 69.4615 212.509 70.2818 210.853" stroke="#301C3D" stroke-width="1.5" stroke-linecap="round" stroke-linejoin="round"/>
<path d="M71.2854 219.89C71.2854 219.89 69.4424 222.791 68.6474 223.956C67.9536 224.972 67.3574 226.091 66.6816 227.102C65.8101 228.334 65.0007 229.613 64.2568 230.935" stroke="#301C3D" stroke-width="1.5" stroke-linecap="round" stroke-linejoin="round"/>
<path d="M65.261 215.874C63.4141 217.478 62.028 220.375 60.6055 222.35C60.0599 223.105 58.0837 225.334 58.2413 225.914" stroke="#301C3D" stroke-width="1.5" stroke-linecap="round" stroke-linejoin="round"/>
<path d="M63.8109 230.87C61.1977 229.41 58.7508 227.576 56.2473 225.947C55.2262 225.281 52.7151 222.054 51.486 223.114C49.3606 224.948 59.8967 231.349 61.6099 232.389C63.2399 233.396 63.7958 233.044 64.2572 231.214C64.2004 231.161 63.8374 230.78 63.8109 230.87Z" fill="#301C3D" stroke="#301C3D" stroke-width="1.5" stroke-linecap="round" stroke-linejoin="round"/>
<path d="M57.4827 225.914C56.5486 224.94 53.369 216.429 56.7202 216.896C58.3443 217.129 58.1194 224.061 57.6085 225.455C57.9631 224.156 58.0736 222.383 59.4156 221.54C60.5022 220.858 61.787 220.869 62.6525 221.803C65.2336 224.604 58.7408 225.783 57.4827 225.914Z" stroke="#301C3D" stroke-width="1.5" stroke-linecap="round" stroke-linejoin="round"/>
<path d="M180.741 207.841C180.741 207.841 182.793 211.016 183.404 212.201C183.759 212.879 184.747 215.005 184.747 215.005C184.747 215.005 181.763 216.321 180.674 217.176C179.749 217.925 176.917 219.89 176.917 219.89C176.917 219.89 175.821 218.049 175.19 217.041C174.5 215.935 173.258 213.734 172.698 212.606" stroke="#301C3D" stroke-width="1.5" stroke-linecap="round" stroke-linejoin="round"/>
<path d="M178.722 217.882C177.756 216.288 174.706 210.853 174.706 210.853" stroke="#301C3D" stroke-width="1.5" stroke-linecap="round" stroke-linejoin="round"/>
<path d="M181.735 215.873C180.571 214.114 179.109 211.478 177.719 209.849" stroke="#301C3D" stroke-width="1.5" stroke-linecap="round" stroke-linejoin="round"/>
<path d="M177.719 219.89C177.719 219.89 181.65 225.912 182.326 226.963C183.199 228.242 184.007 229.568 184.747 230.935" stroke="#301C3D" stroke-width="1.5" stroke-linecap="round" stroke-linejoin="round"/>
<path d="M183.743 215.874C185.352 217.654 186.518 220.822 187.737 222.988C188.209 223.821 189.897 226.278 189.76 226.918" stroke="#301C3D" stroke-width="1.5" stroke-linecap="round" stroke-linejoin="round"/>
<path d="M184.191 230.888C186.804 229.423 189.249 227.586 191.748 225.954C192.769 225.284 195.268 222.064 196.509 223.109C198.655 224.92 188.114 231.327 186.401 232.387C184.768 233.395 184.21 233.045 183.743 231.234C183.8 231.178 184.161 230.799 184.191 230.888Z" fill="#301C3D" stroke="#301C3D" stroke-width="1.5" stroke-linecap="round" stroke-linejoin="round"/>
<path d="M191.375 225.914C192.32 224.96 195.663 216.482 192.354 216.892C190.742 217.089 190.799 224.042 191.269 225.45C190.953 224.14 190.893 222.363 189.579 221.485C188.521 220.776 187.252 220.754 186.378 221.679C183.754 224.429 190.136 225.753 191.375 225.914Z" stroke="#301C3D" stroke-width="1.5" stroke-linecap="round" stroke-linejoin="round"/>
<path d="M38.1513 178.723C44.2513 178.723 49.1962 173.778 49.1962 167.678C49.1962 161.578 44.2513 156.633 38.1513 156.633C32.0514 156.633 27.1064 161.578 27.1064 167.678C27.1064 173.778 32.0514 178.723 38.1513 178.723Z" fill="#E94A43" stroke="#E94A43" stroke-width="1.5" stroke-linecap="round" stroke-linejoin="round"/>
<path d="M34.145 170.69C34.0137 168.347 35.1913 165.959 35.1163 163.661C36.3913 164.14 37.8839 164.573 39.1552 164.945" stroke="#301C3D" stroke-width="1.5" stroke-linecap="round" stroke-linejoin="round"/>
<path d="M39.3306 169.51C40.1905 169.906 42.3984 170.997 43.0517 169.51C43.7727 167.857 41.0466 167.347 40.0816 167.881C38.0239 169.016 39.7061 173.971 42.0867 172.389" stroke="#301C3D" stroke-width="1.5" stroke-linecap="round" stroke-linejoin="round"/>
<path d="M34.1348 167.698C35.2002 167.507 36.1599 168.702 37.147 168.681" stroke="#301C3D" stroke-width="1.5" stroke-linecap="round" stroke-linejoin="round"/>
<path d="M167.175 50.2C172.444 50.2 176.714 45.9293 176.714 40.6612C176.714 35.3931 172.444 31.1224 167.175 31.1224C161.907 31.1224 157.637 35.3931 157.637 40.6612C157.637 45.9293 161.907 50.2 167.175 50.2Z" fill="#FFC20E" stroke="#FFC20E" stroke-width="1.5" stroke-linecap="round" stroke-linejoin="round"/>
<path d="M180.228 132.535C185.496 132.535 189.767 128.264 189.767 122.996C189.767 117.728 185.496 113.457 180.228 113.457C174.96 113.457 170.689 117.728 170.689 122.996C170.689 128.264 174.96 132.535 180.228 132.535Z" fill="#FFC20E" stroke="#FFC20E" stroke-width="1.5" stroke-linecap="round" stroke-linejoin="round"/>
<path d="M184.747 121.152L178.717 117.474C178.717 117.474 175.494 121.773 174.706 124.172C175.891 125.057 180.175 127.514 180.175 127.514" stroke="#301C3D" stroke-width="1.5" stroke-linecap="round" stroke-linejoin="round"/>
<path d="M176.714 120.486L182.738 124.502" stroke="#301C3D" stroke-width="1.5" stroke-linecap="round" stroke-linejoin="round"/>
<path d="M137.555 23.0899C141.437 23.0899 144.584 19.9431 144.584 16.0613C144.584 12.1795 141.437 9.03271 137.555 9.03271C133.673 9.03271 130.526 12.1795 130.526 16.0613C130.526 19.9431 133.673 23.0899 137.555 23.0899Z" fill="#B8D7FF" stroke="#B8D7FF" stroke-width="1.5" stroke-linecap="round" stroke-linejoin="round"/>
<path d="M137.068 13.049L135.547 18.2925C135.796 19.4161 137.955 19.1539 138.894 18.5846C141.627 16.9591 141.009 13.2512 137.068 13.049Z" stroke="#301C3D" stroke-width="1.5" stroke-linecap="round" stroke-linejoin="round"/>
<path d="M214.368 110.445C218.527 110.445 221.898 107.073 221.898 102.914C221.898 98.7552 218.527 95.3837 214.368 95.3837C210.208 95.3837 206.837 98.7552 206.837 102.914C206.837 107.073 210.208 110.445 214.368 110.445Z" fill="#29ABAC" stroke="#29ABAC" stroke-width="1.5" stroke-linecap="round" stroke-linejoin="round"/>
<path d="M210.854 101.408C213 102.972 214.773 104.872 216.878 106.429" stroke="#301C3D" stroke-width="1.5" stroke-linecap="round" stroke-linejoin="round"/>
<path d="M213.926 98.3959C213.448 99.7037 213.091 101.047 212.861 102.412C213.148 100.673 218.901 101.492 219.89 102.078" stroke="#301C3D" stroke-width="1.5" stroke-linecap="round" stroke-linejoin="round"/>
<path d="M217.711 156.188L209.737 155.629L208.845 169.092L216.819 169.659C217.681 169.739 218.55 169.64 219.375 169.367C220.2 169.095 220.964 168.654 221.623 168.071C222.281 167.489 222.821 166.775 223.211 165.973C223.6 165.172 223.831 164.297 223.891 163.401C223.95 162.506 223.836 161.607 223.556 160.757C223.277 159.907 222.836 159.124 222.26 158.453C221.685 157.783 220.986 157.238 220.205 156.851C219.424 156.464 218.576 156.242 217.711 156.199V156.188Z" fill="#E94A43" stroke="#E94A43" stroke-width="1.5" stroke-linecap="round" stroke-linejoin="round"/>
<path d="M34.0887 108.039C37.7537 106.073 38.1748 99.7256 35.0293 93.8615C31.8837 87.9975 26.3626 84.8375 22.6976 86.8035C19.0326 88.7695 18.6115 95.1171 21.7571 100.981C24.9026 106.845 30.4237 110.005 34.0887 108.039Z" fill="#B8D7FF" stroke="#B8D7FF" stroke-width="1.5" stroke-linecap="round" stroke-linejoin="round"/>
<path d="M28.8582 91.3673C29.6257 92.9054 30.447 94.4435 31.1225 96.0085C28.5895 96.2046 25.596 94.978 23.0898 94.7434C23.8574 96.2815 25.0088 97.7927 25.6842 99.4" stroke="#301C3D" stroke-width="1.5" stroke-linecap="round" stroke-linejoin="round"/>
<path d="M30.9452 99.4C30.2175 100.211 28.9969 100.52 28.1104 101.09C28.8976 100.984 30.8195 101.207 31.0874 102.252C31.3851 103.474 29.7014 103.606 29.4699 104.42" stroke="#301C3D" stroke-width="1.5" stroke-linecap="round" stroke-linejoin="round"/>
<path d="M127.514 46.1836C127.402 45.9067 127.207 45.6654 126.953 45.4882C126.699 45.311 126.395 45.2054 126.079 45.1837C125.762 45.1621 125.445 45.2252 125.166 45.3659C124.887 45.5065 124.656 45.7187 124.502 45.9774" stroke="#301C3D" stroke-width="1.5" stroke-linecap="round" stroke-linejoin="round"/>
<path d="M52.6488 128.15C51.1576 128.938 50.028 130.31 49.5084 131.964C48.9888 133.619 49.1219 135.421 49.8782 136.973C50.6346 138.525 51.9524 139.702 53.5416 140.242C55.1309 140.783 56.8615 140.645 58.3527 139.857L65.2616 136.209L59.5578 124.502L52.6488 128.15Z" fill="#29ABAC" stroke="#29ABAC" stroke-width="1.5" stroke-linecap="round" stroke-linejoin="round"/>
<path d="M76.5848 123.076C75.781 121.523 74.3808 120.348 72.6922 119.807C71.0036 119.266 69.1649 119.404 67.5803 120.191L60.2412 123.837L66.3016 135.547L73.6408 131.901C74.4257 131.511 75.1246 130.974 75.6974 130.319C76.2702 129.664 76.7057 128.906 76.9791 128.086C77.2525 127.266 77.3584 126.402 77.2908 125.542C77.2231 124.683 76.9832 123.844 76.5848 123.076Z" fill="#B8D7FF" stroke="#B8D7FF" stroke-width="1.5" stroke-linecap="round" stroke-linejoin="round"/>
<path d="M55.2207 134.543L58.233 132.535" stroke="white" stroke-width="1.5" stroke-linecap="round" stroke-linejoin="round"/>
<path d="M67.2695 127.514C68.6381 126.928 69.9787 126.257 71.2859 125.506" stroke="#301C3D" stroke-width="1.5" stroke-linecap="round" stroke-linejoin="round"/>
<path d="M71.2855 128.518C70.6986 127.15 70.0283 125.809 69.2773 124.502" stroke="#301C3D" stroke-width="1.5" stroke-linecap="round" stroke-linejoin="round"/>
<path d="M163.749 37.2987C163.094 36.819 161.328 37.5533 160.893 38.4314C159.892 40.4458 162.213 39.8408 163.587 40.0658C165.296 40.3462 168.314 41.5416 167.559 43.8439C166.874 45.9174 162.363 45.2717 163.264 43.9657" stroke="#301C3D" stroke-width="1.5" stroke-linecap="round" stroke-linejoin="round"/>
<path d="M169.052 40.7405C170.151 40.7691 172.613 38.6562 171.293 37.3305C170.477 36.5147 168.913 38.6358 168.756 39.4312C168.501 40.6222 168.909 42.3639 169.865 42.9839C171.028 43.7426 172.531 41.9438 172.698 42.1029" stroke="#301C3D" stroke-width="1.5" stroke-linecap="round" stroke-linejoin="round"/>
<path d="M205.486 160.265C204.8 158.953 203.531 158.223 202.185 158.895C200.718 159.628 199.303 162.128 199.985 163.889C201.701 168.236 207.187 163.668 205.522 160.331L205.486 160.265Z" stroke="#301C3D" stroke-width="1.5" stroke-linecap="round" stroke-linejoin="round"/>
<path d="M202.82 162.657C203.803 163.602 204.659 164.969 205.833 165.669" stroke="#301C3D" stroke-width="1.5" stroke-linecap="round" stroke-linejoin="round"/>
<path d="M212.861 161.132C213.594 160.735 214.2 160.065 214.869 159.645L214.106 165.669" stroke="#301C3D" stroke-width="1.5" stroke-linecap="round" stroke-linejoin="round"/>
<path d="M216.935 164.053C216.325 159.809 220.772 157.74 220.891 161.949C221.016 164.179 217.633 167.788 216.935 164.053Z" stroke="#301C3D" stroke-width="1.5" stroke-linecap="round" stroke-linejoin="round"/>
</svg>
