<svg width="246" height="246" viewBox="0 0 246 246" fill="none" xmlns="http://www.w3.org/2000/svg">
<path d="M144.965 166.412C144.965 179.889 145.158 193.048 145.158 206.581C145.158 209.654 144.765 213.168 144.063 215.069C143.525 216.653 141.546 219.177 139.608 220.107C136.954 221.369 133.747 221.532 130.936 222.099C129.559 222.375 126.21 223.051 126.01 224.952C125.828 226.69 128.189 227.382 129.433 227.579C132.974 228.138 136.724 227.979 140.284 227.979C145.626 227.979 150.976 228.04 156.303 227.79C161.27 227.56 166.556 227.616 171.045 227.246C175.533 226.876 177.597 224.302 174.571 222.352C172.901 221.279 169.214 221.279 167.31 221.022C165.19 220.738 163.093 220.644 160.966 220.19C156.674 219.298 154.506 216.294 154.45 211.649C154.265 196.453 154.643 181.223 154.643 166" stroke="#301C3D" stroke-width="1.5" stroke-linecap="round" stroke-linejoin="round"/>
<path d="M188.982 156.031C188.899 153.669 188.436 149.217 187.814 147.295C187.193 145.373 184.135 144.072 181.484 145.825C180.06 148.256 176.509 149.129 173.636 149.592C169.237 150.3 164.805 150.358 160.391 150.882C153.94 151.648 148.254 152.237 141.724 151.648C137.08 151.223 132.309 151.368 127.688 151.116C125.896 151.016 124.039 150.951 122.25 151.016C120.962 151.066 119.452 151.759 118.176 151.556C117.772 151.492 117.387 151.341 117.046 151.112C117.088 151.311 117.086 151.518 117.04 151.717C116.994 151.916 116.904 152.101 116.779 152.26C115.796 153.378 112.809 151.977 110 150.442C111.205 151.303 112.32 152.203 113.133 152.884C116.522 155.709 113.111 155.774 110.576 156.712C113.589 156.674 114.399 157.298 114.899 160.353C115.251 162.476 115.556 164.617 115.815 166.776H116.169C116.169 166.776 130.547 167.064 133.492 166.987C140.383 166.799 156.181 166.754 163.072 166.566C168.066 166.428 170.258 166.398 175.255 166.214C178.516 166.095 182.979 165.758 185.909 164.33C188.654 162.971 189.106 159.113 188.982 156.031Z" fill="#FFC20E" stroke="#FFC20E" stroke-width="1.5" stroke-linecap="round" stroke-linejoin="round"/>
<path d="M118 42L103 58" stroke="#301C3D" stroke-width="1.5" stroke-linecap="round" stroke-linejoin="round"/>
<path d="M83 79L80 82" stroke="#301C3D" stroke-width="1.5" stroke-linecap="round" stroke-linejoin="round"/>
<path d="M106.514 62.1871C106.742 59.6046 102.483 58.2907 100.673 57.8164C95.3338 56.3418 89.6451 56.8771 84.6685 59.3222C75.9347 63.7381 68.1863 68.8993 59.99 74.3805C59.99 74.3805 59.3965 73.6652 58.6986 74.0454C58.0006 74.4257 58.3253 75.0656 58.3627 75.3931C58.288 75.3931 57.243 74.6402 57.019 75.8374C56.7951 77.0345 58.6053 80.8743 59.5384 82.8281C61.0288 85.7659 62.8242 88.5358 64.8943 91.0914C65.9394 92.3751 67.2495 92.0589 67.8168 91.592C68.3841 91.1252 68.4065 90.1352 68.0855 89.3634C69.2575 90.8166 69.7688 89.1263 69.9517 88.6858C70.325 87.8237 70.4257 87.0106 71.5193 86.0167C74.4231 83.3815 77.6442 80.4038 80.6226 77.9794C81.6595 78.6826 82.8897 79.0383 84.1385 78.9958C85.9375 78.8754 88.8002 78.1676 90.3081 76.9291C88.86 78.0923 87.6507 78.4726 88.4419 79.1878C89.4945 80.129 92.8387 79.233 95.4737 78.1112C98.1088 76.9893 99.613 72.6827 96.1456 72.1594C98.7359 72.1594 100.919 68.9143 98.4223 67.1676L98.2618 67.2466L98.4037 67.1563C102.028 65.53 107.429 67.2165 107.959 64.4496C108.168 63.4595 107.57 62.7292 106.514 62.1871Z" fill="#B8D7FF" stroke="#B8D7FF" stroke-width="1.5" stroke-linecap="round" stroke-linejoin="round"/>
<path d="M120 24C119.211 25.1184 118.504 26.2368 117.842 27.083C115.272 30.4643 112.915 35.3851 111.191 39.2846C110.166 41.5996 113.529 41.9799 115.047 42.841C114.668 44.5642 114.412 46.312 114.281 48.0713C114.109 50.9046 113.937 53.1264 114.079 55.9522C114.217 58.6214 114.999 64.5265 115.691 69" stroke="#301C3D" stroke-width="1.5" stroke-linecap="round" stroke-linejoin="round"/>
<path d="M142.615 68C142.062 65.8863 141.033 58.0684 140.664 55.9163C143.077 56.1657 146.402 54.9189 146.926 52.2605C147.37 50.0548 145.753 48.3323 143.891 47.9142C142.277 47.5536 141.094 48.1405 140 48.9883C140 47.9986 140 47.0012 140.072 46" stroke="#301C3D" stroke-width="1.5" stroke-linecap="round" stroke-linejoin="round"/>
<path d="M136 61.0628C133.887 57.962 133.641 52.2504 134.144 49C134.144 49 125.502 50.1595 120.351 50.6383C118.03 50.8515 115.652 50.9712 113.281 50.9712C113.281 50.9712 112.959 54.9622 113.004 56.305C113.16 59.4496 113.683 62.5659 114.561 65.5924C118.106 66.2096 121.101 66.1048 124.817 65.4203C128.361 64.7658 131.561 63.7708 134.663 61.8782L136 61.0628Z" fill="#E94A43" stroke="#E94A43" stroke-width="1.5" stroke-linecap="round" stroke-linejoin="round"/>
<path d="M125 55C123.158 55.6465 119 57.7404 118 59" stroke="#301C3D" stroke-width="1.5" stroke-linecap="round" stroke-linejoin="round"/>
<path d="M123 59C122.773 59.1918 121.233 60.7122 121 61" stroke="#301C3D" stroke-width="1.5" stroke-linecap="round" stroke-linejoin="round"/>
<path d="M118 41C119.172 41.0747 120.066 41.5747 121 42" stroke="#301C3D" stroke-width="1.5" stroke-linecap="round" stroke-linejoin="round"/>
<path d="M117.541 32C118.447 32.3664 119.234 33.1422 120 33.8276C118.981 34.1612 117.979 34.5526 117 35" stroke="#301C3D" stroke-width="1.5" stroke-linecap="round" stroke-linejoin="round"/>
<path d="M129 34C127.806 34.2028 126.984 34.6338 126 34.9084C126.777 35.5516 127.523 36.2499 128.234 37" stroke="#301C3D" stroke-width="1.5" stroke-linecap="round" stroke-linejoin="round"/>
<path d="M120 23.6584C122.487 26.1911 128.486 24.7022 131.27 23.8268C130.323 24.3468 130.518 25.0239 131.341 25.5626C132.295 26.2023 134.248 25.2783 135.248 25.2895C136.067 25.2895 136.803 25.6262 137.611 25.6636C137.096 26.4866 136.07 27.4406 136.427 28.6564C137.132 28.7124 137.827 28.8531 138.497 29.0754C138.722 33.3139 137.862 37.3766 138.67 41.6338C138.888 42.7935 139.076 45.1092 140.225 45.8088C141.645 46.6767 142.103 44.3835 142.441 43.0779C143.775 38.0687 144.879 33.5234 145.852 28.488C146.371 25.7871 145.544 23.6248 143.061 21.9937C140.304 20.1868 137.562 18.6268 134.421 17.7439C131.04 16.8012 127.791 16.5805 124.553 18.118C122.847 18.8962 120.394 20.7704 120 23.6584Z" stroke="#301C3D" stroke-width="1.5" stroke-linecap="round" stroke-linejoin="round"/>
<path d="M121 87C121.462 83.4779 122.723 79.9483 123.507 76.4744C123.843 74.9898 125.226 70.4582 125.226 70.4582C125.814 71.9984 126.461 73.8541 127.075 75.4166C127.444 76.3074 128.258 79.4361 129.127 79.9706C131.319 81.3141 138.071 75.6134 139.949 74.3626C141.62 73.2492 143.879 72.2471 145.244 70.7403C146.305 69.5712 146.253 69.3411 145.066 68.0124C144.035 66.8618 144.297 66.9286 142.574 67.0882C140.05 67.3355 137.552 67.7961 135.105 68.4652C132.247 69.2074 128.173 70.5918 125.211 70.4582" stroke="#301C3D" stroke-width="1.5" stroke-linecap="round" stroke-linejoin="round"/>
<path d="M121 85C120.252 81.8536 118.999 78.8682 118.306 75.7218C117.876 73.7596 117.719 71.7706 117.109 70C116.058 72.6405 116.458 76.0629 115.085 78.5539C112.388 76.3924 111.774 73.6523 112.066 70.1571C113.664 70.069 117.109 70 117.109 70" stroke="#301C3D" stroke-width="1.5" stroke-linecap="round" stroke-linejoin="round"/>
<path d="M145 71C150.558 71.4461 156.071 72.3385 161.487 73.6687C164.966 74.5833 167.689 75.2571 169.568 78.7312C172.617 84.3772 173.678 91.8412 174.963 98.1195C176.349 104.94 177.25 111.828 179.039 118.543C179.529 120.395 182.051 125.834 178.643 126.27C180.089 126.27 182.137 128.363 180.224 129.345C180.713 130.121 181.195 131.423 180.396 131.807C179.596 132.191 178.404 131.969 177.033 131.431C175.404 130.791 172.55 129.428 170.917 128.623C169.875 128.111 162.634 124.821 162.429 126.364" stroke="#301C3D" stroke-width="1.5" stroke-linecap="round" stroke-linejoin="round"/>
<path d="M180 130C175.191 129.287 171.554 125.802 168 125" stroke="#301C3D" stroke-width="1.5" stroke-linecap="round" stroke-linejoin="round"/>
<path d="M179 126C176.695 125.842 175.568 124.532 174 124" stroke="#301C3D" stroke-width="1.5" stroke-linecap="round" stroke-linejoin="round"/>
<path d="M169 106C167.856 109.925 166.484 114.566 165.242 118.36C164.274 121.356 163.578 124.435 162.658 127.45C161.118 132.499 159.69 137.938 156.676 142.26C154.38 145.549 151.112 147.47 147.276 146.901C144.49 146.489 142.254 144.758 139.839 143.279C135.61 140.687 131.399 138.256 126.752 136.503C123.805 135.38 119.86 133.739 116.91 132.724C114.876 132.024 109.955 130.93 105.001 130.93C104.949 127.409 106.964 123.993 108.366 122.244C110.105 120.068 112.834 119.967 115.343 119.858C119.479 119.682 123.528 119.858 127.645 120.034C130.988 120.177 134.6 121.772 137.894 121.533" stroke="#301C3D" stroke-width="1.5" stroke-linecap="round" stroke-linejoin="round"/>
<path d="M138.212 129C138.342 127.064 137.442 121.567 138.596 120.15C140.731 117.567 142.777 123.03 143.142 124.331C142.992 122.973 140.646 119.477 141.731 118.296C142.677 117.27 145.619 119.214 146 119.53" stroke="#301C3D" stroke-width="1.5" stroke-linecap="round" stroke-linejoin="round"/>
<path d="M142 118C146.254 108.347 148.435 98.8847 152 89" stroke="#301C3D" stroke-width="1.5" stroke-linecap="round" stroke-linejoin="round"/>
<path d="M137 100C137.468 99.2695 138.698 98.8111 139.166 99.7481C139.799 99.4685 140.464 99.2242 141.156 99.0176C141.209 99.2443 141.419 99.403 141.404 99.7103C141.97 99.5108 142.505 99.2728 143 99" stroke="#301C3D" stroke-width="1.5" stroke-linecap="round" stroke-linejoin="round"/>
<path d="M110 96C110.473 100.993 111.222 105.95 112.242 110.842C112.825 113.533 113.486 116.396 114 119" stroke="#301C3D" stroke-width="1.5" stroke-linecap="round" stroke-linejoin="round"/>
<path d="M180.346 132.362C180.346 132.362 181.678 136.863 182.073 138.333C182.457 139.775 182.749 141.239 182.945 142.718C183.588 147.637 178.432 148.984 174.524 149.596C170.131 150.286 165.703 150.342 161.295 150.854C154.852 151.6 149.173 152.175 142.654 151.6C138.013 151.186 133.232 151.328 128.632 151.081C126.842 150.984 124.987 150.921 123.201 150.984C121.914 151.033 120.406 151.708 119.131 151.51C116.359 151.074 115.659 147.032 114.937 144.64C115.257 146.312 119.075 150.708 117.739 152.19C115.972 154.149 107.734 148.167 105.703 147.779C108.152 148.152 112.052 151.137 114.083 152.798C117.469 155.552 114.061 155.616 111.53 156.53C114.539 156.493 115.347 157.101 115.848 160.079C117.747 171.364 118.3 183.179 118.3 194.592C118.3 196.383 118.435 203.5 118.435 203.5C118.435 203.5 116.269 203.798 115.024 203.955C112.161 204.328 109.344 204.664 106.456 204.798C103.116 204.955 99.768 205 96.4242 205H90.8161C90.47 201.305 89.714 197.107 89.4056 193.286C88.3863 180.765 87.4046 168.095 87.4046 155.489C87.4046 148.738 85.4863 137.43 90.0036 132" stroke="#301C3D" stroke-width="1.5" stroke-linecap="round" stroke-linejoin="round"/>
<path d="M179 148.099C180.718 147.897 182.996 147.918 184 149" stroke="#301C3D" stroke-width="1.5" stroke-linecap="round" stroke-linejoin="round"/>
<path d="M123 155C123.801 153.161 126.43 151.536 128 151" stroke="#301C3D" stroke-width="1.5" stroke-linecap="round" stroke-linejoin="round"/>
<path d="M119 228H90.0158C89.8867 224.592 90.5067 224.401 93.4036 223.914C97.2822 223.26 101.5 223.219 105.453 223.227C109.261 223.227 116.029 223 117.376 223C118.723 223 118.985 225.535 119 228Z" fill="#301C3D" stroke="#301C3D" stroke-width="1.5" stroke-linecap="round" stroke-linejoin="round"/>
<path d="M117 223C117 223 116 206.405 116 204" stroke="#301C3D" stroke-width="1.5" stroke-linecap="round" stroke-linejoin="round"/>
<path d="M97 223C97 223 96.7604 214.408 96.5125 210.966C96.4401 209.985 96 205 96 205" stroke="#301C3D" stroke-width="1.5" stroke-linecap="round" stroke-linejoin="round"/>
<path d="M90 200.755C90 200.755 84.1429 201.448 82.2559 201.753C79.1899 202.247 76.3423 202.733 73.152 203C73.152 203 72.572 197.286 72.2631 194.687C71.683 189.828 70.0785 173.786 69.7244 170.762C69.2084 166.378 69.1029 161.944 68.6999 157.537C67.924 149.074 65.9993 136.998 75.461 133.751C78.3349 132.765 85.465 132.245 89.774 132" stroke="#301C3D" stroke-width="1.5" stroke-linecap="round" stroke-linejoin="round"/>
<path d="M79 203C79.9897 207.719 80.6448 212.426 81.2379 217.241C81.4483 218.945 82 222 82 222" stroke="#301C3D" stroke-width="1.5" stroke-linecap="round" stroke-linejoin="round"/>
<path d="M96.1514 221.004C90.772 220.966 85.3941 221.181 80.0384 221.646C78.6326 221.779 69.8437 221.939 71.1277 225H97L96.1514 221.004Z" fill="#301C3D" stroke="#301C3D" stroke-width="1.5" stroke-linecap="round" stroke-linejoin="round"/>
<path d="M80.9973 220.61C81.1136 218.502 77.4183 208.852 75.4272 211.436C73.6105 213.804 78.254 219.287 79.7874 221C78.6101 220.324 74.8131 213.576 73.189 216.753C71.8119 219.442 78.3231 221.365 80.9973 220.61Z" stroke="#301C3D" stroke-width="1.5" stroke-linecap="round" stroke-linejoin="round"/>
<path d="M98 223C99.9821 220.808 101.454 212.924 104.225 214.123C106.996 215.323 102.498 221.195 99.4876 222.793C100.426 221.718 107.188 216.778 106.996 220.537C106.827 223.737 100.406 221.951 98 223Z" stroke="#301C3D" stroke-width="1.5" stroke-linecap="round" stroke-linejoin="round"/>
<path d="M104.927 129.946C100.762 131.46 93.8078 127.973 90.0134 132C89.7788 128.343 92.6567 123.945 95.7215 122.598C100.121 120.669 104.483 120.843 109 121.295" stroke="#301C3D" stroke-width="1.5" stroke-linecap="round" stroke-linejoin="round"/>
<path d="M82 128C79.5782 128.514 76.4387 130.297 76 133" stroke="#301C3D" stroke-width="1.5" stroke-linecap="round" stroke-linejoin="round"/>
<path d="M92 124.958C89.075 123.547 85.3615 122.6 81.8395 123.167C78.671 123.657 75.6517 124.861 73.0044 126.692C69.0581 129.353 66.2458 133.293 69.2797 139" stroke="#301C3D" stroke-width="1.5" stroke-linecap="round" stroke-linejoin="round"/>
<path d="M73 129C70.5415 131.508 68.9964 133.856 69 138" stroke="#301C3D" stroke-width="1.5" stroke-linecap="round" stroke-linejoin="round"/>
<path d="M81 124C84.4365 122.531 88.9231 120.298 92.4688 119.596C94.1776 119.254 94.9229 118.371 95.7359 117.262C96.7484 115.872 97.6744 113.128 98.1185 111.2C99.6617 104.402 100.881 97.3636 102.308 90.5129C103.019 87.0818 103.855 82.9331 105.39 79.7952C106.629 77.2698 109.58 75.5073 112 75" stroke="#301C3D" stroke-width="1.5" stroke-linecap="round" stroke-linejoin="round"/>
<path d="M98 71.2448C96.0128 70.8809 93.9696 70.9231 92 71.3687" stroke="#301C3D" stroke-width="1.5" stroke-linecap="round" stroke-linejoin="round"/>
<path d="M68 90C66.513 88.1429 65.1742 86.1348 64 84" stroke="#301C3D" stroke-width="1.5" stroke-linecap="round" stroke-linejoin="round"/>
<path d="M58 75C58.9354 76.487 60 78 60 78" stroke="#301C3D" stroke-width="1.5" stroke-linecap="round" stroke-linejoin="round"/>
<path d="M134 49C136.923 48.5358 141 47 141 47" stroke="#E94A43" stroke-width="1.5" stroke-linecap="round" stroke-linejoin="round"/>
<path d="M142 58C139.871 59.66 138.173 60.576 136 62" stroke="#E94A43" stroke-width="1.5" stroke-linecap="round" stroke-linejoin="round"/>
<path d="M99 67C97.4606 65.7687 93 66.0214 93 66.0214" stroke="#301C3D" stroke-width="1.5" stroke-linecap="round" stroke-linejoin="round"/>
<path d="M93 60.2999C95.5084 60.0723 103.356 59.4967 107 61" stroke="#301C3D" stroke-width="1.5" stroke-linecap="round" stroke-linejoin="round"/>
<path d="M79 77C80.5103 78.1044 82.1285 79.1125 84.0559 78.9898C85.7891 78.8837 88.5472 78.2602 90 77.1691" stroke="#301C3D" stroke-width="1.5" stroke-linecap="round" stroke-linejoin="round"/>
</svg>
