<svg width="246" height="246" viewBox="0 0 246 246" fill="none" xmlns="http://www.w3.org/2000/svg">
<path d="M133.77 105.589C134.839 103.488 138.547 101.058 140.468 99.7027C143.64 97.4598 159.047 87.9448 163.365 85.2511C166.994 82.9886 169.374 81.4821 171.773 83.2154C174.98 85.5199 179.46 92.9179 182.246 97.709C183.587 100.019 186.953 104.656 185.542 107.075C183.999 109.738 174.52 115.795 170.869 117.884C165.677 120.835 160.858 124.008 155.689 126.965C153.054 128.48 150.845 130.292 148.109 128.121L133.77 105.589Z" fill="#E94A43" stroke="#E94A43" stroke-width="1.5" stroke-linecap="round" stroke-linejoin="round"/>
<path d="M43.9292 156.842L165.965 79.2053C167.451 78.2589 169.231 77.8871 170.971 78.1599C172.711 78.4326 174.291 79.331 175.416 80.6865C178.219 84.1231 180.84 87.7048 183.268 91.4167C185.571 95.1401 187.674 98.9836 189.568 102.931C190.318 104.524 190.462 106.336 189.972 108.028C189.483 109.72 188.393 111.175 186.908 112.121L64.5747 189.948" stroke="#442257" stroke-width="1.5" stroke-linecap="round" stroke-linejoin="round"/>
<path d="M178.308 83.809C180.551 82.8318 183.063 81.3953 183.063 81.3953L192.175 95.8609C192.175 95.8609 189.803 98.0142 187.58 98.703" stroke="#442257" stroke-width="1.5" stroke-linecap="round" stroke-linejoin="round"/>
<path d="M185.116 82.8874C187.429 81.4202 192.307 78.5304 192.307 78.5304C194.423 81.6442 196.874 85.0744 198.75 88.4065C196.039 90.3386 193.768 91.5679 190.999 93.2956" stroke="#442257" stroke-width="1.5" stroke-linecap="round" stroke-linejoin="round"/>
<path d="M196.174 83.1591L227.11 63.4796" stroke="#442257" stroke-width="1.5" stroke-linecap="round" stroke-linejoin="round"/>
<path d="M49.9808 181.923L26.9131 196.602" stroke="#442257" stroke-width="1.5" stroke-linecap="round" stroke-linejoin="round"/>
<path d="M50.9155 167.822L133.822 114.972L139.988 124.66L56.9526 177.488" stroke="#442257" stroke-width="1.5" stroke-linecap="round" stroke-linejoin="round"/>
<path d="M21.1334 186.807L43.9434 172.269" stroke="#442257" stroke-width="1.5" stroke-linecap="round" stroke-linejoin="round"/>
<path d="M33.8036 154.994C34.0668 156.674 35.2092 158.136 36.2313 159.769C40.5631 166.699 44.7718 173.708 49.1512 180.607C52.153 185.34 54.9951 189.996 58.1285 194.625C60.5926 198.287 63.376 201.972 66.4085 199.444C69.3851 196.96 65.3108 191.161 63.3003 187.846C59.1309 180.988 54.8831 174.024 50.5541 167.259C48.3606 163.811 46.1681 160.364 43.9765 156.918C42.8257 155.095 40.9972 151.906 39.2583 150.66C37.1161 149.122 35.0104 150.27 34.1564 152.329C33.7878 153.166 33.6654 154.09 33.8036 154.994Z" stroke="#442257" stroke-width="1.5" stroke-linecap="round" stroke-linejoin="round"/>
<path d="M8.34205 176.536C8.65007 177.874 9.57413 179.101 10.4226 180.453C14.0236 186.193 17.5406 191.99 21.1696 197.708C23.6617 201.628 26.1118 205.523 28.4192 209.544C30.2392 212.714 32.9302 216.665 35.9235 214.019C38.8609 211.423 33.661 207.035 31.8521 204.38C28.0999 198.887 24.8182 192.933 21.2536 187.325C19.4353 184.465 17.6171 181.607 15.7989 178.751C14.844 177.236 13.2647 174.167 11.9263 173.069C10.277 171.711 8.88249 172.91 8.40926 174.464C8.20191 175.136 8.1787 175.852 8.34205 176.536V176.536Z" stroke="#442257" stroke-width="1.5" stroke-linecap="round" stroke-linejoin="round"/>
<path d="M131.496 104.668L129.885 105.692C129.223 106.114 129.027 106.992 129.449 107.655L145.514 132.912C145.936 133.574 146.814 133.77 147.477 133.348L149.087 132.324C149.75 131.903 149.945 131.024 149.524 130.361L133.458 105.104C133.037 104.442 132.158 104.246 131.496 104.668Z" stroke="#442257" stroke-width="1.5" stroke-linecap="round" stroke-linejoin="round"/>
<path d="M47.116 177.379C43.6438 179.249 23.788 191.41 23.788 191.41" stroke="#442257" stroke-width="1.5" stroke-linecap="round" stroke-linejoin="round"/>
<path d="M136.348 120.561C120.572 130.098 103.228 141.763 87.7179 151.628C80.9612 155.927 64.1099 166.836 54.2001 173.05" stroke="#442257" stroke-width="1.5" stroke-linecap="round" stroke-linejoin="round"/>
<path d="M145.956 101.909L144.847 103.757" stroke="#FFC20E" stroke-width="1.5" stroke-linecap="round" stroke-linejoin="round"/>
<path d="M159.76 102.844L161.264 103.413" stroke="#FFC20E" stroke-width="1.5" stroke-linecap="round" stroke-linejoin="round"/>
<path d="M161.136 94.1726L160.324 94.6878" stroke="#FFC20E" stroke-width="1.5" stroke-linecap="round" stroke-linejoin="round"/>
<path d="M167.494 87.3707L167.024 88.4292" stroke="#FFC20E" stroke-width="1.5" stroke-linecap="round" stroke-linejoin="round"/>
<path d="M172.938 101.024L173.652 100.949" stroke="#FFC20E" stroke-width="1.5" stroke-linecap="round" stroke-linejoin="round"/>
<path d="M181.146 100.484L182.036 100.68" stroke="#FFC20E" stroke-width="1.5" stroke-linecap="round" stroke-linejoin="round"/>
<path d="M178.941 104.905L178.818 106.507" stroke="#FFC20E" stroke-width="1.5" stroke-linecap="round" stroke-linejoin="round"/>
<path d="M168.399 105.586L167.932 106.647" stroke="#FFC20E" stroke-width="1.5" stroke-linecap="round" stroke-linejoin="round"/>
<path d="M158.996 113.213L160.5 113.782" stroke="#FFC20E" stroke-width="1.5" stroke-linecap="round" stroke-linejoin="round"/>
<path d="M170.987 113.6L171.947 114.51" stroke="#FFC20E" stroke-width="1.5" stroke-linecap="round" stroke-linejoin="round"/>
<path d="M166.498 114.695L165.759 115.927" stroke="#FFC20E" stroke-width="1.5" stroke-linecap="round" stroke-linejoin="round"/>
<path d="M152.556 124.386L152.36 125.271" stroke="#FFC20E" stroke-width="1.5" stroke-linecap="round" stroke-linejoin="round"/>
<path d="M156.796 122.068L158.028 122.807" stroke="#FFC20E" stroke-width="1.5" stroke-linecap="round" stroke-linejoin="round"/>
<path d="M152.317 115.854L153.477 115.876" stroke="#FFC20E" stroke-width="1.5" stroke-linecap="round" stroke-linejoin="round"/>
<path d="M147.39 120.345L146.734 119.639" stroke="#FFC20E" stroke-width="1.5" stroke-linecap="round" stroke-linejoin="round"/>
<path d="M150.414 107.846L150.291 109.447" stroke="#FFC20E" stroke-width="1.5" stroke-linecap="round" stroke-linejoin="round"/>
<path d="M156.509 106.509L156.96 107.296" stroke="#FFC20E" stroke-width="1.5" stroke-linecap="round" stroke-linejoin="round"/>
<path d="M165.202 98.7813L165.4 97.8937" stroke="#FFC20E" stroke-width="1.5" stroke-linecap="round" stroke-linejoin="round"/>
<path d="M150.982 97.9638L150.192 97.3254" stroke="#FFC20E" stroke-width="1.5" stroke-linecap="round" stroke-linejoin="round"/>
<path d="M153.245 94.0155L154.155 93.0551" stroke="#FFC20E" stroke-width="1.5" stroke-linecap="round" stroke-linejoin="round"/>
<path d="M138.238 103.511L139.47 104.25" stroke="#FFC20E" stroke-width="1.5" stroke-linecap="round" stroke-linejoin="round"/>
<path d="M142.911 112.076L144.44 111.483" stroke="#FFC20E" stroke-width="1.5" stroke-linecap="round" stroke-linejoin="round"/>
<path d="M172.227 95.1217L172.694 94.0604" stroke="#FFC20E" stroke-width="1.5" stroke-linecap="round" stroke-linejoin="round"/>
<path d="M173.557 88.5551L174.618 89.0227" stroke="#FFC20E" stroke-width="1.5" stroke-linecap="round" stroke-linejoin="round"/>
<path d="M232.335 55.7849C232.755 55.3033 233.175 52.8392 233.097 52.2231" stroke="#FFC20E" stroke-width="1.5" stroke-linecap="round" stroke-linejoin="round"/>
<path d="M237.022 59.6773C238.223 58.9968 239.873 59.0052 241.248 58.9744" stroke="#FFC20E" stroke-width="1.5" stroke-linecap="round" stroke-linejoin="round"/>
<path d="M237.384 66.5346C238.764 66.9143 239.977 67.7478 240.825 68.9007" stroke="#FFC20E" stroke-width="1.5" stroke-linecap="round" stroke-linejoin="round"/>
</svg>
