<svg width="248" height="246" viewBox="0 0 248 246" fill="none" xmlns="http://www.w3.org/2000/svg">
<path d="M15.2568 72.1196C16.6432 74.0871 17.312 78.0611 17.8315 80.3825" stroke="#301C3D" stroke-width="1.5" stroke-linecap="round" stroke-linejoin="round"/>
<path d="M25.8572 70.8047C24.3767 75.1618 22.828 77.428 22.5195 80.7039" stroke="#301C3D" stroke-width="1.5" stroke-linecap="round" stroke-linejoin="round"/>
<path d="M23.2725 67.8958C21.6069 72.6262 21.5874 75.8502 21.042 80.6456" stroke="#301C3D" stroke-width="1.5" stroke-linecap="round" stroke-linejoin="round"/>
<path d="M18.6914 70.7041C18.8083 71.7658 19.1265 76.3404 19.5615 80.9085" stroke="#301C3D" stroke-width="1.5" stroke-linecap="round" stroke-linejoin="round"/>
<path d="M17.5711 79.5936C17.3146 77.4378 13.2043 75.1034 11.1848 75.4086C9.41537 75.6749 8.8894 76.9476 9.80822 78.0969C11.1783 79.7949 15.7237 80.256 17.5711 79.5936Z" stroke="#301C3D" stroke-width="1.5" stroke-linecap="round" stroke-linejoin="round"/>
<path d="M23.3184 77.8858C24.4807 77.1975 30.1917 72.8047 30.2533 76.7105C30.2923 79.3079 24.8346 78.4702 23.4352 78.4085" stroke="#301C3D" stroke-width="1.5" stroke-linecap="round" stroke-linejoin="round"/>
<path d="M141.105 32.1851V110.866" stroke="#301C3D" stroke-width="1.5" stroke-linecap="round" stroke-linejoin="round"/>
<path d="M124.164 64.347C124.252 68.1262 123.446 71.8762 123.235 75.6553C122.969 80.3663 122.836 85.7819 123.885 90.3954C124.885 94.7428 127.076 98.6551 128.216 102.925C128.705 104.971 128.468 107.124 127.547 109.015" stroke="#301C3D" stroke-width="1.5" stroke-linecap="round" stroke-linejoin="round"/>
<path d="M81.1846 90.6421C82.6388 88.6852 83.9807 86.6473 85.204 84.5383C86.8598 83.9831 89.3955 83.7104 91.1228 84.0837C94.5838 84.8305 96.8013 87.3727 98.5383 90.285C100.009 92.746 101.278 94.8304 102.801 97.6583C101.08 98.155 97.8824 99.5024 97.8824 99.5024" stroke="#301C3D" stroke-width="1.5" stroke-linecap="round" stroke-linejoin="round"/>
<path d="M93.6455 91.5317C95.2104 92.6129 97.0838 98.22 98.2364 100.165C99.0253 101.499 100.85 105.119 100.85 105.119" stroke="#301C3D" stroke-width="1.5" stroke-linecap="round" stroke-linejoin="round"/>
<path d="M102.382 97.7882C104.603 101.22 107.992 106.152 111.836 107.937" stroke="#301C3D" stroke-width="1.5" stroke-linecap="round" stroke-linejoin="round"/>
<path d="M112.252 108.097C111.187 104.418 105.433 87.0156 104.034 82.691C102.167 76.9475 99.9108 70.2593 97.5732 64.688C96.3654 61.8146 95.2453 60.6003 92.1674 60.3016C86.687 59.7659 54.9568 60.9283 49.8075 60.8893C45.7037 60.8601 35.4213 61.951 33.0967 62.7627" stroke="#301C3D" stroke-width="1.5" stroke-linecap="round" stroke-linejoin="round"/>
<path d="M79.8857 115.314C84.2604 116.157 88.6752 116.776 93.1128 117.171C98.3465 117.645 103.366 119.096 108.583 119.314C113.729 119.571 118.838 120.314 123.843 121.535C126.479 122.165 130.606 123.268 132.34 125.535L132.69 125.947H199.066C199.066 125.947 209.011 125.6 217.835 125.33L217.68 125.19C216.381 124.074 215.115 121.885 214.391 119.944C213.303 117.022 213.17 115.723 211.53 113.093C209.787 110.291 207.553 107.597 203.913 106.924C199.933 106.2 197.219 109.314 193.543 109.269C190.42 109.23 188.297 106.431 184.969 106.886C180.29 107.535 176.898 110.009 172.014 110.376C166.472 110.788 160.492 110.726 154.953 110.551C151.648 110.447 148.619 110.145 145.333 110.551C143.06 110.83 139.924 111.084 137.635 110.551C135.346 110.019 133.112 110.33 130.872 109.772C129.497 109.406 128.066 109.296 126.651 109.447C123.953 109.814 121.625 109.142 118.807 109.002C117.349 108.977 115.891 109.096 114.457 109.36C112.278 107.752 110.531 107.486 108.47 107.334C108.145 107.311 107.82 107.304 107.496 107.311C104.531 105.187 98.8465 104.713 94.405 105.392C90.6096 105.98 87.2265 106.691 83.8986 108.73C81.4083 110.225 79.2004 112.148 77.376 114.408C78.1776 114.799 79.019 115.103 79.8857 115.314Z" fill="#B8D7FF"/>
<path d="M131.632 46.8472C131.135 46.8212 130.541 46.9349 129.811 46.9544C129.074 46.9649 128.338 46.9313 127.606 46.8537C127.717 49.0225 127.807 51.3991 127.807 51.3991C127.807 51.3991 122.778 51.49 120.522 51.4381C120.502 51.1654 120.431 49.042 120.369 47.0615C119.226 47.2639 118.065 47.3444 116.905 47.3018C116.928 47.8472 116.944 48.3115 116.934 48.6394C116.863 51.9251 116.726 55.2108 116.882 58.4997C116.905 59.0247 117.101 59.5273 117.441 59.9282C117.781 60.3291 118.245 60.6056 118.759 60.7139C121.145 61.1912 123.983 60.9347 126.408 60.9639C127.424 60.9639 129.882 61.5289 130.703 60.7139C131.866 59.5549 131.411 54.5452 131.557 52.9413C131.724 50.9142 131.749 48.8778 131.632 46.8472Z" fill="#E94A43" stroke="#E94A43" stroke-width="1.5" stroke-linecap="round" stroke-linejoin="round"/>
<path d="M64.1846 120.145C64.6603 121.166 65.3469 122.074 66.1992 122.81C67.0516 123.546 68.0502 124.093 69.1293 124.414C71.4182 125.177 78.7461 125.947 87.3953 125.947" stroke="#301C3D" stroke-width="1.5" stroke-linecap="round" stroke-linejoin="round"/>
<path d="M73.2723 109.915C73.1587 112.96 78.4898 115.038 79.8859 115.314C84.2606 116.157 88.6753 116.776 93.113 117.171C98.3467 117.645 103.366 119.096 108.584 119.314C113.729 119.571 118.838 120.314 123.843 121.535C126.479 122.165 130.606 123.268 132.34 125.535" stroke="#301C3D" stroke-width="1.5" stroke-linecap="round" stroke-linejoin="round"/>
<path d="M63.7295 111.937C64.8106 111.658 65.9178 111.343 66.934 111.135C68.4794 110.811 74.0605 109.262 74.0605 109.262C73.2099 107.366 72.2749 100.908 72.0281 98.9862" stroke="#301C3D" stroke-width="1.5" stroke-linecap="round" stroke-linejoin="round"/>
<path d="M82.8299 91.9214C81.3494 90.9831 78.1222 89.2234 76.5118 88.2688C74.2002 86.8955 71.4307 85.3468 71.4307 85.3468C67.3853 85.7916 61.2068 87.2364 59.8302 91.1097C58.6127 94.5415 58.7296 98.4181 59.0542 102.149" stroke="#301C3D" stroke-width="1.5" stroke-linecap="round" stroke-linejoin="round"/>
<path d="M84.291 116.035C85.0183 114.268 87.6546 112.139 89.4046 111.467" stroke="#301C3D" stroke-width="1.5" stroke-linecap="round" stroke-linejoin="round"/>
<path d="M90.1357 116.402C91.85 113.2 95.2883 110.557 98.3532 108.976C100.918 107.658 104.129 106.648 107.178 106.687" stroke="#301C3D" stroke-width="1.5" stroke-linecap="round" stroke-linejoin="round"/>
<path d="M105.908 112.911C108.321 111.269 110.846 109.178 113.733 108.723" stroke="#301C3D" stroke-width="1.5" stroke-linecap="round" stroke-linejoin="round"/>
<path d="M60.8236 89.3533C60.8236 83.3988 57.5347 77.2105 53.249 73.1392C57.0347 76.467 55.473 83.0254 57.5672 86.5416" stroke="#301C3D" stroke-width="1.5" stroke-linecap="round" stroke-linejoin="round"/>
<path d="M61.8271 77.4897C63.4505 77.7203 64.5024 79.1878 65.1161 80.5936" stroke="#301C3D" stroke-width="1.5" stroke-linecap="round" stroke-linejoin="round"/>
<path d="M64.1748 70.2659C65.6326 70.6717 66.5481 71.8146 67.5676 72.8632" stroke="#301C3D" stroke-width="1.5" stroke-linecap="round" stroke-linejoin="round"/>
<path d="M58.6223 99.5025C55.5119 96.1226 52.1678 88.7526 50.9016 84.8046C49.6549 80.928 49.7783 76.7657 49.2101 72.7917C49.0088 71.3762 47.84 69.3697 48.4893 67.9964C49.2848 66.3146 51.6029 67.2821 53.275 67.2529C56.171 66.3762 64.158 65.6068 65.869 65.6782" stroke="#301C3D" stroke-width="1.5" stroke-linecap="round" stroke-linejoin="round"/>
<path d="M78.3662 65.0808C80.2558 64.6555 84.6551 64.3892 86.431 65.0451C86.8304 64.5938 87.9278 64.1815 88.5025 64.6977C89.3888 65.4996 88.233 65.7366 88.3466 66.386C88.6875 68.3015 90.233 70.2528 91.3368 72.8794C92.4407 75.506 93.4505 80.6001 93.7914 84.8078" stroke="#301C3D" stroke-width="1.5" stroke-linecap="round" stroke-linejoin="round"/>
<path d="M29.2891 78.1326C30.6235 81.9994 31.9741 85.9734 32.5098 87.7234C33.6591 91.4831 36.6299 101.392 36.6299 101.392" stroke="#301C3D" stroke-width="1.5" stroke-linecap="round" stroke-linejoin="round"/>
<path d="M26.6621 70.5677C27.0712 71.7431 27.6361 73.3827 28.2855 75.2008" stroke="#301C3D" stroke-width="1.5" stroke-linecap="round" stroke-linejoin="round"/>
<path d="M40.2073 63.9899C40.1845 65.9736 41.7722 69.9606 42.2982 71.8274C43.0092 74.3339 46.1001 83.4702 47.4474 88.2688C48.5383 92.1486 50.8792 97.9245 52.2623 101.72" stroke="#301C3D" stroke-width="1.5" stroke-linecap="round" stroke-linejoin="round"/>
<path d="M31.873 63.3925C31.873 63.3925 35.8535 75.9313 36.5029 78.2007C37.6327 82.0448 44.3794 101.463 44.3794 101.463" stroke="#301C3D" stroke-width="1.5" stroke-linecap="round" stroke-linejoin="round"/>
<path d="M122.931 32.1169C122.931 32.1169 122.099 34.9513 123.937 35.1916C124.609 35.2792 125.684 34.565 126.483 34.6007C128.431 34.6883 129.729 34.763 133.018 34.7013L148.839 34.4059C151.846 34.3474 154.81 34.0065 157.625 35.1429C161.076 36.539 159.878 32.7955 159.878 32.7955" stroke="#301C3D" stroke-width="1.5" stroke-linecap="round" stroke-linejoin="round"/>
<path d="M143.4 32C142.219 32 138.81 32.1591 138.81 32.1591" stroke="#301C3D" stroke-width="1.5" stroke-linecap="round" stroke-linejoin="round"/>
<path d="M141.105 152.171V172.654" stroke="#301C3D" stroke-width="1.5" stroke-linecap="round" stroke-linejoin="round"/>
<path d="M131.349 40.8343C131.352 40.6085 131.311 40.3842 131.228 40.1743C131.145 39.9644 131.021 39.773 130.863 39.6111C130.706 39.4491 130.518 39.3198 130.31 39.2306C130.103 39.1413 129.88 39.0938 129.654 39.0908L122.261 38.987C121.235 38.987 118.326 38.646 117.56 39.3116C116.281 40.4415 116.966 46.7563 116.911 48.6427C116.839 51.9284 116.703 55.214 116.859 58.503C116.881 59.028 117.078 59.5306 117.418 59.9315C117.758 60.3324 118.221 60.6088 118.735 60.7172C121.122 61.1945 123.959 60.938 126.385 60.9672C127.401 60.9672 129.859 61.5321 130.68 60.7172C131.842 59.5581 131.388 54.5485 131.534 52.9446C131.836 49.6297 131.609 46.3927 131.365 43.1005C131.336 42.5194 131.336 41.6298 131.349 40.8343Z" stroke="#301C3D" stroke-width="1.5" stroke-linecap="round" stroke-linejoin="round"/>
<path d="M124.139 38.8636L124.32 34.25" stroke="#301C3D" stroke-width="1.5" stroke-linecap="round" stroke-linejoin="round"/>
<path d="M120.249 43.5227C120.249 43.5227 120.47 50.9252 120.512 51.4544C122.768 51.5063 127.798 51.4154 127.798 51.4154C127.798 51.4154 127.512 43.948 127.343 43.4415C124.866 43.396 120.249 43.5227 120.249 43.5227Z" stroke="#301C3D" stroke-width="1.5" stroke-linecap="round" stroke-linejoin="round"/>
<path d="M121.706 61.4996C121.732 62.149 121.742 62.8275 121.794 63.4801C123.235 64.0418 125.086 63.821 126.68 63.6944C126.68 63.0646 126.651 61.7691 126.641 61.5289" stroke="#301C3D" stroke-width="1.5" stroke-linecap="round" stroke-linejoin="round"/>
<path d="M199.741 116.418C200.848 117.967 201.196 120.314 201.861 122.083C202.253 123.231 202.844 124.3 203.608 125.242" stroke="#301C3D" stroke-width="1.5" stroke-linecap="round" stroke-linejoin="round"/>
<path d="M121.956 122.924C123.758 123.509 126.466 124.603 127.956 125.752" stroke="#301C3D" stroke-width="1.5" stroke-linecap="round" stroke-linejoin="round"/>
<path d="M71.4311 85.3436C71.2174 84.1352 70.9246 82.9422 70.5545 81.7722C70.3565 81.1521 70.1682 80.5319 69.9799 79.9086C68.8727 80.9248 66.7883 80.0514 66.9572 78.4476C67.074 77.3469 68.087 76.8729 69.087 76.8826C68.8078 75.9671 68.5156 75.0515 68.1877 74.1522C67.5124 72.2918 66.7948 70.3957 66.2007 68.5159C65.876 67.4672 65.6974 66.1003 66.2494 65.1328C67.402 63.1231 70.9766 62.1296 73.1552 62.2367C74.2655 62.2919 75.233 62.2951 76.2006 62.9315C77.9376 64.0743 78.7979 66.4834 79.5349 68.3535C80.1843 70.058 83.2817 79.506 83.2817 79.506C84.0219 81.6975 84.7914 84.6455 84.7914 84.6455" stroke="#301C3D" stroke-width="1.5" stroke-linecap="round" stroke-linejoin="round"/>
<path d="M73.8722 71.9022L73.6709 71.2139" stroke="#301C3D" stroke-width="1.5" stroke-linecap="round" stroke-linejoin="round"/>
<path d="M77.5773 70.6651L77.376 69.9768" stroke="#301C3D" stroke-width="1.5" stroke-linecap="round" stroke-linejoin="round"/>
<path d="M76.2038 63.071C75.2298 63.9834 74.3986 64.5613 73.048 64.8308C72.074 65.0223 70.0383 64.9671 69.5935 65.9509C69.1812 66.8697 69.9182 67.8989 69.5935 68.8307C69.4604 69.2106 68.9669 69.3437 68.824 69.6814C68.6812 70.019 68.863 70.4768 68.9214 70.8404C69.1487 72.2982 69.7364 74.1423 69.0026 75.5027" stroke="#301C3D" stroke-width="1.5" stroke-linecap="round" stroke-linejoin="round"/>
<path d="M1 145.878C1.17532 139.06 1.37337 132.216 1.37337 125.372C1.37337 120.528 1.64285 109.139 1.75973 104.291C1.77421 103.701 2.02108 103.141 2.44666 102.731C2.87224 102.322 3.44213 102.098 4.03243 102.106C6.41877 102.152 10.2207 102.21 12.8992 102.181C29.7821 101.986 45.1358 101.496 61.9506 102.603C62.3185 102.627 62.6646 102.786 62.9232 103.049C63.1818 103.311 63.3348 103.66 63.3532 104.028C63.5317 107.713 64.0025 117.915 64.0025 120.661C64.0025 124.233 64.2005 139.859 64.1259 144.414C63.8726 160.352 63.7493 177.998 63.6876 193.94" stroke="#301C3D" stroke-width="1.5" stroke-linecap="round" stroke-linejoin="round"/>
<path d="M27.6266 104.694C27.6266 114.038 27.435 123.398 27.0064 132.716C26.7305 138.759 27.0064 160.554 27.0064 160.554" stroke="#301C3D" stroke-width="1.5" stroke-linecap="round" stroke-linejoin="round"/>
<path d="M26.6777 169.774V172.304" stroke="#301C3D" stroke-width="1.5" stroke-linecap="round" stroke-linejoin="round"/>
<path d="M32.0811 114.184C40.1978 114.392 51.9899 113.769 59.4151 113.996" stroke="#301C3D" stroke-width="1.5" stroke-linecap="round" stroke-linejoin="round"/>
<path d="M45.9961 118.044L46.6292 117.093" stroke="#301C3D" stroke-width="1.5" stroke-linecap="round" stroke-linejoin="round"/>
<path d="M32.0811 131.291C37.3927 131.427 42.503 131.577 47.7562 131.444C50.2562 131.379 59.4151 131.379 59.4151 131.379" stroke="#301C3D" stroke-width="1.5" stroke-linecap="round" stroke-linejoin="round"/>
<path d="M44.8047 135.918L45.9248 134.797" stroke="#301C3D" stroke-width="1.5" stroke-linecap="round" stroke-linejoin="round"/>
<path d="M32.0811 147.115C41.1719 147.115 50.3211 147.44 59.4151 147.44" stroke="#301C3D" stroke-width="1.5" stroke-linecap="round" stroke-linejoin="round"/>
<path d="M44.7334 152.658L45.9964 151.71" stroke="#301C3D" stroke-width="1.5" stroke-linecap="round" stroke-linejoin="round"/>
<path d="M64.162 139.408C65.7529 139.34 79.8177 139.732 88.1877 139.732H178.317C191.482 139.732 200.501 139.635 213.618 139.161C218.875 138.97 224.193 138.836 229.449 138.784C235.244 138.72 246.78 138.807 246.78 138.807C246.78 138.807 247.679 147.547 245.845 149.297C242.296 152.687 237.404 151.382 227.102 151.382C216.8 151.382 206.576 151.586 194.219 151.752C179.456 151.95 164.716 151.94 149.866 151.921C143.099 151.921 136.229 152.067 129.411 152.067C122.95 152.067 90.126 152.391 80.1002 152.391C75.7041 152.391 64.0127 152.411 64.0127 152.411" stroke="#301C3D" stroke-width="1.5" stroke-linecap="round" stroke-linejoin="round"/>
<path d="M81.3955 139.408C83.2818 130.382 83.8078 121.291 87.9993 117.45C89.2461 116.307 91.3694 115.934 93.1648 115.749C99.8304 115.061 106.957 115.749 113.658 115.749H173.68C181.579 115.749 186.342 116.723 185.855 121.781C185.424 126.327 182.583 139.434 182.583 139.434" stroke="#301C3D" stroke-width="1.5" stroke-linecap="round" stroke-linejoin="round"/>
<path d="M96.5244 139.408C97.9302 133.798 99.8815 120.512 101.943 116.015" stroke="#301C3D" stroke-width="1.5" stroke-linecap="round" stroke-linejoin="round"/>
<path d="M111.47 139.21C112.713 133.95 115.002 121.152 116.924 116.372" stroke="#301C3D" stroke-width="1.5" stroke-linecap="round" stroke-linejoin="round"/>
<path d="M126.453 139.171C127.726 133.817 129.638 121.255 131.249 116.33" stroke="#301C3D" stroke-width="1.5" stroke-linecap="round" stroke-linejoin="round"/>
<path d="M140.774 139.408C142.339 133.827 144.346 121.262 145.687 115.999" stroke="#301C3D" stroke-width="1.5" stroke-linecap="round" stroke-linejoin="round"/>
<path d="M155.216 139.434C156.515 134.46 157.859 120.947 159.294 115.999" stroke="#301C3D" stroke-width="1.5" stroke-linecap="round" stroke-linejoin="round"/>
<path d="M168.822 139.408C170.371 133.921 171.78 121.486 172.933 116.015" stroke="#301C3D" stroke-width="1.5" stroke-linecap="round" stroke-linejoin="round"/>
<path d="M243.348 138.46C243.348 135.512 244.166 128.239 241.813 126.544C239.761 125.067 235.319 125.025 230.381 125.025C225.443 125.025 199.066 125.947 199.066 125.947H64.6328" stroke="#301C3D" stroke-width="1.5" stroke-linecap="round" stroke-linejoin="round"/>
<path d="M117.749 186.816C118.015 184.381 120.174 181.946 122.398 180.803C126.093 178.92 130.856 176.667 132.736 175.852C136.226 174.339 141.349 172.654 141.349 172.654C141.349 172.654 157.732 178.498 164.206 181.985C165.83 182.865 167.106 183.933 167.567 185.352" stroke="#301C3D" stroke-width="1.5" stroke-linecap="round" stroke-linejoin="round"/>
<path d="M141.349 172.651C141.349 172.651 136.628 176.501 133.443 180.138" stroke="#301C3D" stroke-width="1.5" stroke-linecap="round" stroke-linejoin="round"/>
<path d="M183.144 180.804V151.83" stroke="#301C3D" stroke-width="1.5" stroke-linecap="round" stroke-linejoin="round"/>
<path d="M188.364 151.775V179.602" stroke="#301C3D" stroke-width="1.5" stroke-linecap="round" stroke-linejoin="round"/>
<path d="M98.8721 152.284V172.654" stroke="#301C3D" stroke-width="1.5" stroke-linecap="round" stroke-linejoin="round"/>
<path d="M93.6553 180.157V152.323" stroke="#301C3D" stroke-width="1.5" stroke-linecap="round" stroke-linejoin="round"/>
<path d="M179.54 191.102C176.182 184.755 183.462 177.924 190.007 179.969C193.825 181.164 194.968 186.04 193.76 189.482" stroke="#301C3D" stroke-width="1.5" stroke-linecap="round" stroke-linejoin="round"/>
<path d="M187.559 189.209C184.511 191.686 181.501 185.183 185.537 184.42C188.001 183.94 189.452 187.657 187.559 189.209Z" stroke="#301C3D" stroke-width="1.5" stroke-linecap="round" stroke-linejoin="round"/>
<path d="M230.818 179.161V151.427" stroke="#301C3D" stroke-width="1.5" stroke-linecap="round" stroke-linejoin="round"/>
<path d="M236.039 151.596V169.774" stroke="#301C3D" stroke-width="1.5" stroke-linecap="round" stroke-linejoin="round"/>
<path d="M236.039 176.057V179.602" stroke="#301C3D" stroke-width="1.5" stroke-linecap="round" stroke-linejoin="round"/>
<path d="M228.361 181.553C230.481 178.784 234.24 178.492 237.127 180.164C238.831 181.157 240.451 182.615 240.873 184.911C240.929 185.235 240.974 185.534 241 185.839C241.701 193.433 233.208 197.112 228.338 192.407" stroke="#301C3D" stroke-width="1.5" stroke-linecap="round" stroke-linejoin="round"/>
<path d="M234.877 184.664C238.092 186.81 233.056 192.456 231.283 188.368C230.332 186.135 232.566 183.105 234.877 184.664Z" stroke="#301C3D" stroke-width="1.5" stroke-linecap="round" stroke-linejoin="round"/>
<path d="M203.975 142.255V150.797" stroke="#301C3D" stroke-width="1.5" stroke-linecap="round" stroke-linejoin="round"/>
<path d="M8.16861 54.3861C8.04524 52.292 9.99976 47.9187 11.4316 51.8764C12.1816 48.2661 19.188 45.1362 17.6003 50.805C18.5191 49.9251 22.0873 49.3862 20.7886 51.516C22.0873 49.6492 28.0807 45.2953 27.6944 50.4771C31.5092 47.7758 35.3988 56.1458 31.5677 55.3472C35.2397 54.292 33.8014 61.9997 31.8924 59.2075C32.8664 59.7562 34.2105 62.2562 32.7398 63.1035C31.7657 63.662 29.9216 62.7789 29.2106 62.1295C29.8859 62.7139 30.8567 63.373 31.0969 64.3048C31.3989 65.4509 30.6164 67.5028 29.2301 66.8373C30.2495 66.3535 30.2041 67.5353 29.993 68.3827C29.6391 69.7853 27.9703 70.6067 26.6197 70.5905C23.8178 70.5613 22.3178 67.5483 23.6327 65.2529C23.3567 66.2886 22.7301 67.7399 21.7172 68.2658C20.3373 68.9833 18.0289 68.097 18.8698 66.4379C22.1165 69.1067 16.8666 71.9021 16.4023 69.4249C17.8536 72.4963 12.8049 72.6716 11.2303 71.2431C10.227 70.3372 9.3699 68.3405 11.1881 67.1295C10.0452 68.0126 8.42186 68.3925 7.00629 67.584C6.08422 67.0581 4.30503 65.2626 5.92189 63.8178C3.94789 63.5743 2.19466 61.7237 2.09401 59.74C2.02258 58.3276 2.47388 56.6523 4.19464 56.9088C3.21088 53.8634 6.2076 52.2628 8.16861 54.3861Z" fill="#FFC20E" stroke="#FFC20E" stroke-width="1.5" stroke-linecap="round" stroke-linejoin="round"/>
<path d="M13.2724 64.0223L13.2529 63.4736" stroke="#301C3D" stroke-width="1.5" stroke-linecap="round" stroke-linejoin="round"/>
<path d="M11.9092 57.2237L12.0715 56.6653" stroke="#301C3D" stroke-width="1.5" stroke-linecap="round" stroke-linejoin="round"/>
<path d="M17.373 59.3049L17.5354 58.7465" stroke="#301C3D" stroke-width="1.5" stroke-linecap="round" stroke-linejoin="round"/>
<path d="M24.344 57.1393L24.3311 56.7725" stroke="#301C3D" stroke-width="1.5" stroke-linecap="round" stroke-linejoin="round"/>
<path d="M19.5908 54.1524L19.7467 53.4121" stroke="#301C3D" stroke-width="1.5" stroke-linecap="round" stroke-linejoin="round"/>
<path d="M29.3994 54.8926L29.5617 54.3374" stroke="#301C3D" stroke-width="1.5" stroke-linecap="round" stroke-linejoin="round"/>
<path d="M26.4902 62.4542L26.6526 61.8958" stroke="#301C3D" stroke-width="1.5" stroke-linecap="round" stroke-linejoin="round"/>
<path d="M27.1982 66.6489L27.3606 66.0938" stroke="#301C3D" stroke-width="1.5" stroke-linecap="round" stroke-linejoin="round"/>
<path d="M21.0156 63.3925L21.1715 62.6522" stroke="#301C3D" stroke-width="1.5" stroke-linecap="round" stroke-linejoin="round"/>
<path d="M16.0322 68.2658L16.1881 67.5255" stroke="#301C3D" stroke-width="1.5" stroke-linecap="round" stroke-linejoin="round"/>
<path d="M5.96706 57.3991L5.94434 56.8472" stroke="#301C3D" stroke-width="1.5" stroke-linecap="round" stroke-linejoin="round"/>
<path d="M14.8184 51.7498L14.9807 51.1914" stroke="#301C3D" stroke-width="1.5" stroke-linecap="round" stroke-linejoin="round"/>
<path d="M30.8762 60.438C30.8656 60.2573 30.9248 60.0794 31.0418 59.9413" stroke="#301C3D" stroke-width="1.5" stroke-linecap="round" stroke-linejoin="round"/>
<path d="M8.14941 65.6099V65.2853" stroke="#301C3D" stroke-width="1.5" stroke-linecap="round" stroke-linejoin="round"/>
<path d="M25.0742 51.3212V50.8212" stroke="#301C3D" stroke-width="1.5" stroke-linecap="round" stroke-linejoin="round"/>
<path d="M9.98633 52.9771V52.4803" stroke="#301C3D" stroke-width="1.5" stroke-linecap="round" stroke-linejoin="round"/>
<path d="M8.11719 60.8243C8.19435 60.9908 8.20252 61.1811 8.13991 61.3536" stroke="#301C3D" stroke-width="1.5" stroke-linecap="round" stroke-linejoin="round"/>
<path d="M15.3049 81.3014C15.6533 81.1674 16.0161 81.0747 16.3861 81.0254C17.3991 80.8501 18.5322 80.9248 19.5614 80.9085C21.2367 80.8826 22.86 80.5839 24.5451 80.6131C25.2431 82.8111 25.7691 85.2624 26.3243 87.5286C27.0808 90.6357 29.7885 101.522 24.6263 101.795C20.5127 102.012 13.2141 103.275 12.2595 98.9798C11.0972 93.7363 13.3667 88.1909 14.4121 83.2299C14.6556 82.0676 14.6556 81.5904 15.3049 81.3014Z" stroke="#301C3D" stroke-width="1.5" stroke-linecap="round" stroke-linejoin="round"/>
<path d="M16.2529 94.3174L19.4542 96.4018" stroke="#301C3D" stroke-width="1.5" stroke-linecap="round" stroke-linejoin="round"/>
<path d="M18.208 92.1844L23.2696 94.9312" stroke="#301C3D" stroke-width="1.5" stroke-linecap="round" stroke-linejoin="round"/>
<path d="M18.0547 88.8306L19.9443 89.9182" stroke="#301C3D" stroke-width="1.5" stroke-linecap="round" stroke-linejoin="round"/>
<path d="M75.1709 74.8339C76.5995 75.3144 77.8202 75.2072 78.6351 73.8599" stroke="#301C3D" stroke-width="1.5" stroke-linecap="round" stroke-linejoin="round"/>
</svg>
