<svg width="129" height="40" viewBox="0 0 129 40" fill="none" xmlns="http://www.w3.org/2000/svg">
<g clip-path="url(#clip0_2_1789)">
<path fill-rule="evenodd" clip-rule="evenodd" d="M33.0971 6.71237C40.596 14.0745 40.596 26.011 33.0971 33.3732C25.5983 40.7354 13.4401 40.7354 5.9413 33.3732C-1.55758 26.011 -1.55758 14.0745 5.9413 6.71237C13.4401 -0.649809 25.5983 -0.649809 33.0971 6.71237ZM32.8738 6.96252C40.2509 14.2052 40.2509 25.9479 32.8738 33.1905C25.4967 40.4331 13.5359 40.4331 6.15881 33.1905C-1.21833 25.9479 -1.21834 14.2052 6.15881 6.96252C13.5359 -0.28014 25.4967 -0.280141 32.8738 6.96252Z" fill="white"/>
<path fill-rule="evenodd" clip-rule="evenodd" d="M30.4207 9.40752C36.4035 15.2813 36.4035 24.8045 30.4207 30.6782C24.4379 36.552 14.7378 36.552 8.75504 30.6782C2.77224 24.8045 2.77224 15.2813 8.75504 9.40752C14.7378 3.53376 24.4378 3.53376 30.4207 9.40752ZM30.1758 9.64759C36.0234 15.3887 36.0234 24.6969 30.1758 30.4381C24.328 36.1792 14.847 36.1792 8.99926 30.4381C3.15153 24.6969 3.15153 15.3887 8.99926 9.64759C14.847 3.90649 24.328 3.90649 30.1758 9.64759Z" fill="white"/>
<path d="M1.46545 20.7674L3.53597 20.5898L3.58294 21.1139L1.51243 21.2915L1.46545 20.7674Z" fill="white"/>
<path d="M2.95177 22.2479L1.66697 22.4801L1.5741 21.9838L3.61846 21.6169L3.70066 22.0576L2.68381 23.3521L3.90243 23.132L3.99531 23.6282L1.95148 23.9951L1.87781 23.6015L2.95177 22.2479Z" fill="white"/>
<path d="M2.27576 25.1443L3.89417 24.6679L3.69667 24.0218L4.07032 23.9123L4.62224 25.7197L4.25179 25.8287L4.0543 25.1815L2.43429 25.6584L2.27576 25.1443Z" fill="white"/>
<path d="M2.81372 26.7735L4.73532 25.9968L5.26376 27.2572L4.90827 27.4002L4.57839 26.6142L4.1866 26.7714L4.5026 27.5255L4.14497 27.6701L3.82843 26.9155L3.37206 27.1005L3.71207 27.9122L3.35124 28.0579L2.81372 26.7735Z" fill="white"/>
<path d="M3.62744 28.6345L5.45189 27.6551L5.81966 28.3153C5.95524 28.5585 6.01236 28.7618 5.991 28.9238C5.96966 29.0857 5.86824 29.2162 5.68729 29.3131C5.5963 29.3655 5.49046 29.3874 5.3857 29.3755C5.27071 29.3566 5.1626 29.309 5.07184 29.2372C5.08013 29.2924 5.07482 29.3488 5.05636 29.4017C5.03431 29.4634 5.00242 29.5212 4.96188 29.573L4.49857 30.1951L4.2146 29.6873L4.61226 29.1779C4.66622 29.1162 4.70154 29.0409 4.71421 28.9605C4.71534 28.8812 4.6931 28.8033 4.65016 28.7362C4.64642 28.7293 4.64055 28.7205 4.63361 28.71C4.62667 28.6995 4.62133 28.6911 4.61814 28.6853L3.87831 29.0831L3.62744 28.6345ZM5.06864 28.7205C5.09968 28.7896 5.155 28.8453 5.2245 28.8777C5.25709 28.8878 5.29157 28.8907 5.32545 28.8862C5.35933 28.8816 5.39175 28.8698 5.42039 28.8514C5.45204 28.8382 5.48011 28.8178 5.50243 28.7922C5.52475 28.7664 5.5407 28.7359 5.54904 28.7031C5.55891 28.63 5.54228 28.5558 5.50207 28.4935L5.3825 28.2792L4.95548 28.5088L5.06864 28.7205Z" fill="white"/>
<path d="M6.129 30.2554L5.08706 31.0284L4.77747 30.6259L6.43538 29.3954L6.7108 29.7528L6.39428 31.3595L7.38283 30.6259L7.69296 31.0284L6.03451 32.2588L5.78897 31.9397L6.129 30.2554Z" fill="white"/>
<path d="M6.38013 32.6554L8.46186 31.7782L8.89903 32.1817L8.06473 34.2129L7.66333 33.8419L7.83147 33.4536L7.17919 32.851L6.78153 33.0275L6.38013 32.6554ZM7.53469 32.6963L7.98146 33.1093L8.31134 32.3479L7.53469 32.6963Z" fill="white"/>
<path d="M8.75415 34.6803L9.72243 33.3178L9.15932 32.9311L9.3808 32.6198L10.956 33.7004L10.7344 34.0117L10.1713 33.6291L9.20249 34.9916L8.75415 34.6803Z" fill="white"/>
<path d="M10.249 35.6205L11.2424 33.8282L11.7142 34.0803L10.7209 35.8725L10.249 35.6205Z" fill="white"/>
<path d="M11.6589 35.2384C11.7113 35.1037 11.7909 34.9808 11.8927 34.8768C11.9929 34.777 12.1129 34.6985 12.2453 34.6461C12.3777 34.5937 12.5197 34.5687 12.6623 34.5724C12.968 34.5884 13.2601 34.702 13.494 34.8957C13.601 34.9887 13.6873 35.1025 13.7473 35.2298C13.8075 35.3571 13.84 35.4953 13.8431 35.6356C13.844 35.9261 13.7313 36.2058 13.5282 36.417C13.4277 36.5172 13.307 36.5955 13.1737 36.647C13.0404 36.6987 12.898 36.7238 12.7548 36.7209C12.4497 36.7075 12.1579 36.5945 11.9258 36.3997C11.8198 36.3061 11.7344 36.1923 11.6744 36.0654C11.6128 35.9383 11.5795 35.7998 11.5767 35.6592C11.5751 35.515 11.6031 35.3719 11.6589 35.2384ZM12.1553 35.4313C12.0874 35.5829 12.0827 35.7548 12.1425 35.9097C12.1735 35.9818 12.2188 36.047 12.2758 36.1017C12.3328 36.1564 12.4002 36.1994 12.4744 36.2282C12.5485 36.2569 12.6276 36.271 12.7073 36.2693C12.787 36.2678 12.8656 36.2506 12.9384 36.2189C13.0862 36.1406 13.2012 36.0136 13.2629 35.8602C13.3247 35.7067 13.3292 35.5368 13.2757 35.3805C13.245 35.3083 13.1998 35.2428 13.1428 35.1881C13.0859 35.1333 13.0184 35.0903 12.9443 35.0615C12.8701 35.0328 12.791 35.0188 12.7112 35.0206C12.6316 35.0224 12.5531 35.0398 12.4804 35.0718C12.3282 35.1451 12.2114 35.2742 12.1553 35.4313Z" fill="white"/>
<path d="M14.8136 36.0487L14.5222 37.2975L14.0215 37.1843L14.4859 35.1929L14.9305 35.293L15.7402 36.7236L16.0173 35.5377L16.5179 35.6504L16.0536 37.6418L15.6564 37.5522L14.8136 36.0487Z" fill="white"/>
<path d="M16.5042 37.7192L17.6251 35.7834L18.2218 35.8452L18.809 37.9582L18.2608 37.9011L18.154 37.4918L17.2632 37.3991L17.0555 37.7763L16.5042 37.7192ZM17.449 37.0663L18.059 37.1297L17.8525 36.3274L17.449 37.0663Z" fill="white"/>
<path d="M19.2301 37.9598L19.2504 35.9192L19.7708 35.9244L19.7543 37.5715L20.6483 37.5799L20.6446 37.9729L19.2301 37.9598Z" fill="white"/>
<path d="M22.2455 37.874L21.9033 35.8611L22.6731 35.7348C22.8442 35.702 23.0189 35.6904 23.1929 35.7002C23.3347 35.7153 23.4717 35.7591 23.5952 35.8291C23.7187 35.899 23.8261 35.9934 23.9104 36.1063C24.0055 36.242 24.0674 36.3975 24.0911 36.5606C24.115 36.7237 24.1001 36.89 24.0475 37.0465C23.9877 37.21 23.8867 37.3561 23.7539 37.471C23.6738 37.5409 23.5819 37.5968 23.4822 37.636C23.3309 37.6892 23.1744 37.7269 23.0152 37.7487L22.2455 37.874ZM22.4857 36.1839L22.6896 37.3824L23.0723 37.32C23.1518 37.3098 23.2282 37.2834 23.2967 37.2425C23.3652 37.2016 23.4241 37.1472 23.47 37.0826C23.5559 36.9457 23.5883 36.7828 23.5614 36.6241C23.5344 36.4654 23.4497 36.3217 23.3231 36.2195C23.2584 36.1731 23.1846 36.1405 23.1063 36.1238C23.028 36.1071 22.9469 36.1067 22.8684 36.1226L22.4857 36.1839Z" fill="white"/>
<path d="M24.8907 37.3687L24.2603 35.4245L25.583 35.0115L25.6993 35.37L24.8715 35.6283L25.0001 36.0251L25.7928 35.7778L25.9102 36.1393L25.1186 36.3872L25.2681 36.8489L26.1221 36.5826L26.2406 36.9495L24.8907 37.3687Z" fill="white"/>
<path d="M27.4958 36.4286L25.7344 34.9807L26.2339 34.7428L27.2231 35.5896L27.1894 34.2885L27.6949 34.0479L27.6987 36.3318L27.4958 36.4286Z" fill="white"/>
<path d="M29.0173 35.6142L27.8516 33.9246L29.0008 33.1606L29.2143 33.475L28.4963 33.953L28.7339 34.2972L29.423 33.8387L29.6403 34.1531L28.9522 34.6106L29.2293 35.012L29.9696 34.5194L30.1884 34.837L29.0173 35.6142Z" fill="white"/>
<path d="M30.7025 34.4346L29.3318 32.9012L29.723 32.5642L30.8296 33.802L31.5015 33.2256L31.7658 33.5206L30.7025 34.4346Z" fill="white"/>
<path d="M31.2523 32.6124C31.1416 32.518 31.0509 32.4032 30.9854 32.2744C30.922 32.1474 30.8867 32.0086 30.8818 31.8673C30.8761 31.7283 30.8995 31.5897 30.9507 31.46C31.0072 31.3219 31.088 31.1945 31.1893 31.0838C31.2886 30.9696 31.4074 30.8735 31.5405 30.7998C31.6656 30.7318 31.8037 30.6902 31.946 30.6774C32.0883 30.6646 32.2317 30.6809 32.3673 30.7253C32.5065 30.772 32.6345 30.8456 32.7442 30.9417C32.8553 31.0355 32.9462 31.1503 33.011 31.2792C33.0737 31.4055 33.1085 31.5434 33.113 31.6838C33.118 31.8241 33.0945 31.964 33.0436 32.0952C32.9282 32.3727 32.7215 32.6044 32.4565 32.7534C32.3309 32.8199 32.1929 32.8607 32.0508 32.8734C31.9084 32.8874 31.7645 32.8719 31.6286 32.8278C31.4899 32.7812 31.362 32.708 31.2523 32.6124ZM31.604 32.2178C31.7268 32.3315 31.8901 32.3934 32.0588 32.3902C32.1383 32.3858 32.2162 32.3658 32.2878 32.3315C32.3594 32.2972 32.4233 32.2492 32.4757 32.1903C32.5283 32.1315 32.5683 32.063 32.5934 31.9888C32.6187 31.9146 32.6285 31.8362 32.6225 31.7582C32.6038 31.5937 32.5198 31.4431 32.3887 31.339C32.2655 31.2245 32.1014 31.162 31.9318 31.165C31.8524 31.1693 31.7747 31.1891 31.7031 31.2232C31.6316 31.2574 31.5678 31.3052 31.5153 31.3638C31.4629 31.4225 31.4228 31.4908 31.3975 31.5648C31.3722 31.6388 31.3622 31.7171 31.3681 31.7949C31.3874 31.9608 31.472 32.1126 31.604 32.2178Z" fill="white"/>
<path d="M33.8868 31.1021L32.1584 29.9681L32.5854 29.3418C32.7413 29.1123 32.8993 28.9703 33.0595 28.9157C33.2196 28.8612 33.3867 28.8911 33.5607 29.0054C33.7386 29.1228 33.8326 29.2697 33.8425 29.4461C33.8525 29.6225 33.7762 29.829 33.6135 30.0656L33.5009 30.2306L34.1778 30.6745L33.8868 31.1021ZM33.3023 29.8088C33.3503 29.749 33.3761 29.6751 33.3755 29.5991C33.3713 29.5666 33.3594 29.5355 33.3409 29.5082C33.3224 29.4809 33.2976 29.4583 33.2687 29.4419C33.2425 29.4223 33.2119 29.4089 33.1795 29.4028C33.147 29.3967 33.1137 29.398 33.0819 29.4068C33.0105 29.4325 32.9506 29.482 32.9127 29.5467L32.7718 29.7511L33.1657 30.0095L33.3023 29.8088Z" fill="white"/>
<path d="M35.0931 29.289L33.2386 28.3683L33.4458 27.9658L34.4909 27.7509L34.0489 26.7946L34.256 26.3921L36.111 27.3134L35.8804 27.7599L34.7306 27.1886L35.1309 28.068L34.1749 28.2671L35.3247 28.8383L35.0931 29.289Z" fill="white"/>
<path d="M36.3703 26.6693L34.4258 25.9508L34.9141 24.6752L35.2734 24.8078L34.9681 25.6049L35.3647 25.7516L35.6571 24.9881L36.0191 25.1217L35.7265 25.8853L36.1888 26.0561L36.5037 25.2344L36.8688 25.3691L36.3703 26.6693Z" fill="white"/>
<path d="M35.9395 23.975L37.2046 24.2948L37.0764 24.7831L35.0663 24.2743L35.18 23.8404L36.658 23.0837L35.4554 22.7813L35.5835 22.2928L37.5964 22.8018L37.4944 23.1895L35.9395 23.975Z" fill="white"/>
<path d="M37.7761 21.5352L36.0904 21.4021L36.037 22.0745L35.6516 22.0441L35.8038 20.1611L36.1897 20.1921L36.1363 20.8644L37.8204 20.9996L37.7761 21.5352Z" fill="white"/>
<path d="M3.71945 11.3047L4.78274 11.8288C5.04251 11.9578 5.20602 12.1338 5.27328 12.3571C5.34053 12.5803 5.30495 12.8278 5.16652 13.0996C5.02738 13.3704 4.84626 13.5451 4.62314 13.6237C4.40003 13.7023 4.15875 13.6777 3.89934 13.5498L2.83606 13.0258L3.07145 12.5667L4.11552 13.0865C4.26355 13.1592 4.39433 13.1806 4.50785 13.1505C4.62565 13.1053 4.72233 13.019 4.77936 12.9083C4.83639 12.7974 4.84976 12.6698 4.8169 12.5499C4.7742 12.443 4.67847 12.3527 4.52973 12.279L3.48513 11.7623L3.71945 11.3047Z" fill="white"/>
<path d="M5.02275 10.7142L6.08657 11.4578L5.78872 11.8686L4.09558 10.6859L4.36247 10.319L6.01718 10.1325L5.00621 9.42867L5.30405 9.01782L6.99773 10.2006L6.76126 10.5266L5.02275 10.7142Z" fill="white"/>
<path d="M7.32093 9.86999L5.76978 8.51215L6.12741 8.11859L7.67856 9.47583L7.32093 9.86999Z" fill="white"/>
<path d="M8.36395 8.78938L7.21259 7.57306L6.70925 8.03213L6.44556 7.75386L7.85366 6.46942L8.11681 6.74769L7.61346 7.20728L8.76482 8.42254L8.36395 8.78938Z" fill="white"/>
<path d="M9.48883 7.80671L8.26111 6.15964L9.38202 5.35522L9.60889 5.65917L8.90859 6.16226L9.15894 6.49765L9.82931 6.01605L10.0578 6.32314L9.3874 6.80421L9.6788 7.19568L10.4005 6.67739L10.6311 6.98659L9.48883 7.80671Z" fill="white"/>
<path d="M10.9338 6.77906L9.93359 4.99049L10.6178 4.62366C10.7686 4.5367 10.9301 4.4689 11.0982 4.4219C11.2208 4.39258 11.3479 4.38619 11.4729 4.40303C11.6301 4.42339 11.78 4.48035 11.9101 4.56915C12.1224 4.71408 12.2718 4.93162 12.3292 5.17911C12.3866 5.4266 12.3477 5.68621 12.2203 5.90704C12.1686 5.99946 12.1007 6.08214 12.0196 6.15125C11.8946 6.25051 11.7595 6.33691 11.6166 6.40908L10.9338 6.77906ZM10.5917 5.1063L11.1879 6.16907L11.5279 5.98565C11.5995 5.95031 11.6628 5.90061 11.7137 5.83977C11.7645 5.77894 11.8018 5.70831 11.8231 5.63245C11.8583 5.47542 11.8344 5.31122 11.756 5.17011C11.6775 5.02901 11.5497 4.92054 11.3961 4.86472C11.3194 4.84194 11.2388 4.83512 11.1593 4.84469C11.0798 4.85426 11.0031 4.88 10.9344 4.92026L10.5917 5.1063Z" fill="white"/>
<path d="M13.8031 5.21275L13.6627 4.78198C13.8061 4.81937 13.9529 4.84254 14.1009 4.85116C14.2076 4.85528 14.314 4.84146 14.4159 4.81027C14.4933 4.7907 14.5642 4.75149 14.6214 4.69656C14.6408 4.6766 14.6542 4.65166 14.6599 4.62458C14.6656 4.59751 14.6633 4.56942 14.6535 4.54354C14.6475 4.5225 14.6369 4.50297 14.6226 4.48632C14.6083 4.46967 14.5903 4.45629 14.5701 4.44711C14.4891 4.42303 14.4044 4.41258 14.3198 4.41619C14.007 4.40833 13.7807 4.37113 13.6414 4.303C13.5723 4.26982 13.5109 4.22293 13.4612 4.16529C13.4115 4.10766 13.3745 4.04053 13.3526 3.96813C13.325 3.88955 13.3173 3.80555 13.3301 3.72339C13.3429 3.64122 13.3759 3.56335 13.4262 3.49649C13.5298 3.34924 13.6932 3.23971 13.9141 3.16949C14.0278 3.1334 14.1456 3.11088 14.2649 3.10241C14.3894 3.09328 14.5147 3.09714 14.6385 3.11394L14.7703 3.51274C14.6361 3.49081 14.5002 3.48011 14.3641 3.48077C14.2611 3.48112 14.1586 3.49612 14.0599 3.52532C13.9845 3.54517 13.9151 3.58255 13.8576 3.63432C13.8387 3.65167 13.8253 3.67399 13.8189 3.6986C13.8126 3.72322 13.8136 3.74911 13.8218 3.77319C13.8307 3.7955 13.8448 3.81551 13.8629 3.83168C13.8809 3.84784 13.9024 3.85975 13.9259 3.86647C14.0011 3.89184 14.0801 3.90477 14.1596 3.90473C14.181 3.90473 14.213 3.90787 14.2563 3.90944C14.412 3.91164 14.5672 3.92725 14.7201 3.95608C14.8182 3.97784 14.9082 4.0255 14.9806 4.0939C15.0552 4.16691 15.1103 4.25694 15.1407 4.35593C15.1709 4.43664 15.1806 4.52337 15.1689 4.60859C15.1572 4.6938 15.1244 4.77491 15.0735 4.84486C14.9692 4.99125 14.7949 5.1034 14.5504 5.1813C14.4304 5.21993 14.3056 5.24215 14.1794 5.24733C14.053 5.25259 13.9264 5.24096 13.8031 5.21275Z" fill="white"/>
<path d="M16.1542 4.72059L15.8296 3.09081L15.1565 3.22024L15.0818 2.84713L16.9682 2.48553L17.0423 2.85813L16.3676 2.98757L16.6922 4.61735L16.1542 4.72059Z" fill="white"/>
<path d="M17.2059 4.49739L17.9596 2.39596L18.5581 2.35352L19.5151 4.33493L18.9653 4.37372L18.786 3.98801L17.8924 4.0509L17.7557 4.45809L17.2059 4.49739ZM18.0189 3.69089L18.6306 3.64791L18.2837 2.89381L18.0189 3.69089Z" fill="white"/>
<path d="M20.0402 4.37947L20.1208 2.72086L19.4343 2.6889L19.4525 2.30896L21.3741 2.39909L21.356 2.7785L20.669 2.74654L20.5889 4.40515L20.0402 4.37947Z" fill="white"/>
<path d="M21.5421 4.48167L21.8827 2.46881L23.2518 2.69258L23.1888 3.06412L22.3348 2.92421L22.2649 3.33453L23.0847 3.46869L23.0213 3.84338L22.2029 3.70923L22.1224 4.18768L23.0036 4.3318L22.9396 4.70963L21.5421 4.48167Z" fill="white"/>
<path d="M23.3197 4.62782L23.4467 4.19287C23.5442 4.30311 23.6528 4.40337 23.7708 4.4921C23.8566 4.55432 23.9529 4.60132 24.0553 4.63097C24.1305 4.65732 24.2115 4.66382 24.2901 4.64984C24.3176 4.64385 24.3428 4.63041 24.3629 4.61105C24.3831 4.59168 24.3972 4.56718 24.4038 4.54031C24.4109 4.51961 24.4134 4.49764 24.411 4.47593C24.4086 4.45421 24.4013 4.43327 24.39 4.41454C24.3364 4.35015 24.2721 4.29506 24.1999 4.25156C23.9441 4.07338 23.7779 3.91809 23.7014 3.78568C23.6631 3.72003 23.6392 3.64723 23.6311 3.57197C23.6231 3.49671 23.6312 3.42064 23.6549 3.34863C23.6768 3.26863 23.718 3.19502 23.7752 3.13413C23.8324 3.07325 23.9037 3.02691 23.9832 2.99909C24.1533 2.93376 24.3502 2.93254 24.5741 2.99542C24.689 3.02679 24.7996 3.07184 24.9035 3.12958C25.012 3.19034 25.1139 3.26218 25.2071 3.34391L25.0892 3.74743C24.9899 3.65542 24.8828 3.57197 24.7689 3.49799C24.6834 3.44167 24.5898 3.39806 24.4914 3.36854C24.4177 3.3434 24.3389 3.33639 24.2619 3.3481C24.2364 3.35226 24.2127 3.3635 24.1935 3.38051C24.1745 3.39751 24.1607 3.41955 24.154 3.44401C24.1488 3.46749 24.1491 3.49183 24.1549 3.51518C24.1607 3.53853 24.1719 3.56026 24.1876 3.57869C24.236 3.63997 24.2943 3.69308 24.36 3.7359C24.3766 3.749 24.4028 3.76787 24.4375 3.79302C24.5653 3.88024 24.6852 3.97826 24.7956 4.08597C24.8644 4.15785 24.9121 4.2468 24.9333 4.34327C24.9532 4.4455 24.9472 4.55097 24.9157 4.65036C24.8945 4.73356 24.8531 4.81044 24.7949 4.87436C24.7366 4.93827 24.6634 4.9873 24.5816 5.01719C24.4119 5.08637 24.2033 5.08602 23.956 5.01614C23.8346 4.98225 23.7186 4.93217 23.6112 4.86732C23.5031 4.80125 23.405 4.72064 23.3197 4.62782Z" fill="white"/>
<path d="M25.6947 5.52611L27.4338 4.09808L27.9675 4.36011L27.7631 6.54066L27.2737 6.30013L27.3212 5.88089L26.5205 5.48785L26.1912 5.76927L25.6947 5.52611ZM26.813 5.23946L27.3617 5.50882L27.4546 4.68658L26.813 5.23946Z" fill="white"/>
<path d="M29.5659 7.47089C29.4133 7.47797 29.2606 7.46026 29.1139 7.41848C28.9615 7.37306 28.8174 7.30446 28.6868 7.21515C28.5592 7.13169 28.4477 7.02665 28.3575 6.90491C28.274 6.7923 28.2157 6.66364 28.1864 6.52738C28.157 6.3911 28.1573 6.25029 28.1872 6.11413C28.2187 5.97253 28.2784 5.83842 28.3628 5.71952C28.5454 5.45716 28.7813 5.30571 29.0706 5.26518C29.3599 5.22465 29.6512 5.30308 29.9444 5.50047C30.0522 5.57183 30.1509 5.65558 30.2385 5.74992C30.3298 5.85119 30.4096 5.96189 30.4766 6.08007L30.2193 6.4469C30.1525 6.32403 30.0735 6.20799 29.9834 6.10051C29.9079 6.01062 29.8205 5.93112 29.7234 5.86416C29.5501 5.74712 29.382 5.70206 29.219 5.72896C29.056 5.75586 28.9178 5.85036 28.8043 6.01246C28.7526 6.07898 28.7151 6.15501 28.694 6.23604C28.6729 6.31706 28.6687 6.40143 28.6815 6.48411C28.698 6.5654 28.7315 6.64248 28.7798 6.71047C28.8281 6.77847 28.8903 6.83593 28.9622 6.87924C29.0049 6.90952 29.0509 6.935 29.0994 6.95522C29.1485 6.97462 29.1992 6.9897 29.2511 7.00029L29.3994 6.78753L29.163 6.63032L29.3834 6.31589L30.0575 6.76919L29.5659 7.47089Z" fill="white"/>
<path d="M29.7327 7.92471L31.1124 6.39868L32.1506 7.30372L31.8955 7.58407L31.247 7.01863L30.9656 7.32992L31.587 7.87125L31.3302 8.15633L30.7089 7.615L30.3811 7.97764L31.0495 8.56037L30.7906 8.84703L29.7327 7.92471Z" fill="white"/>
<path d="M32.3891 8.6358L31.4 9.47425L31.0637 9.09172L32.6372 7.75854L32.9351 8.0976L32.7253 9.72212L33.6637 8.9277L33.9995 9.30976L32.4259 10.6423L32.159 10.34L32.3891 8.6358Z" fill="white"/>
<path d="M33.7987 12.4053C33.6757 12.3422 33.5616 12.2636 33.4593 12.1716C33.3569 12.0785 33.2671 11.9728 33.1923 11.8572C33.1092 11.7318 33.0491 11.5931 33.0146 11.4473C32.9825 11.3113 32.9801 11.1702 33.0078 11.0332C33.0354 10.8963 33.0922 10.7666 33.1748 10.6529C33.2607 10.5346 33.3695 10.4342 33.495 10.3573C33.7676 10.1865 34.045 10.1383 34.3271 10.2127C34.6093 10.2871 34.8458 10.4705 35.0366 10.7629C35.1732 10.9714 35.2583 11.2082 35.2853 11.4547L34.8765 11.7104C34.878 11.5843 34.8623 11.4584 34.8299 11.3362C34.7994 11.2242 34.7517 11.1173 34.6885 11.0192C34.5757 10.8446 34.4387 10.738 34.2775 10.6996C34.1163 10.6611 33.9512 10.6943 33.7822 10.7991C33.708 10.8407 33.6432 10.8966 33.5915 10.9635C33.5399 11.0303 33.5025 11.1066 33.4817 11.1879C33.4646 11.2699 33.4649 11.3544 33.4826 11.4363C33.5002 11.5181 33.5348 11.5956 33.5841 11.6638C33.6532 11.7696 33.7403 11.863 33.8414 11.9399C33.9533 12.0257 34.0764 12.0963 34.2076 12.1496L33.7987 12.4053Z" fill="white"/>
<path d="M34.043 13.2872L34.8969 12.8973L35.5835 11.6978L35.8466 12.2528L35.4292 12.9372L36.2368 13.0745L36.4977 13.6247L35.1201 13.359L34.266 13.7505L34.043 13.2872Z" fill="white"/>
<path d="M3.05712 16.9168L3.4676 16.3891L2.82173 16.5762L2.42299 15.9998L2.40271 16.6978L1.76111 16.8832L2.39044 17.1165L2.37015 17.7998L2.78756 17.2632L3.4724 17.5169L3.05712 16.9168Z" fill="white"/>
<path d="M35.9798 16.9032L35.5891 16.3613L36.2275 16.5715L36.6476 16.0097L36.6422 16.7077L37.2764 16.9168L36.6385 17.1269L36.6332 17.8103L36.236 17.2595L35.5421 17.488L35.9798 16.9032Z" fill="white"/>
<path fill-rule="evenodd" clip-rule="evenodd" d="M10.9241 25.4252H28.3962V28.1854H10.9241V25.4252ZM13.3437 26.5083L12.7982 26.9003L13.0234 27.5916L12.4395 27.1581L11.8849 27.5565L12.1005 26.9066L11.5646 26.5083H12.2335L12.4539 25.8444L12.6706 26.5083H13.3437ZM15.7391 26.5083L15.1935 26.9003L15.4188 27.5916L14.8349 27.1581L14.2797 27.5565L14.4959 26.9066L13.9594 26.5083H14.6283L14.8493 25.8444L15.0654 26.5083H15.7391ZM17.5663 26.9003L18.1118 26.5083H17.4387L17.2226 25.8444L17.0015 26.5083H16.3327L16.8692 26.9066L16.653 27.5565L17.2075 27.1581L17.7915 27.5916L17.5663 26.9003ZM20.5075 26.5083L19.9619 26.9003L20.1872 27.5916L19.6033 27.1581L19.0486 27.5565L19.2648 26.9066L18.7284 26.5083H19.3972L19.6177 25.8444L19.8344 26.5083H20.5075ZM22.4418 26.9003L22.9873 26.5083H22.3137L22.0975 25.8444L21.8765 26.5083H21.2077L21.7441 26.9066L21.5279 27.5565L22.0831 27.1581L22.6671 27.5916L22.4418 26.9003ZM25.3713 26.5083L24.8258 26.9003L25.051 27.5916L24.4671 27.1581L23.9125 27.5565L24.1286 26.9066L23.5922 26.5083H24.2611L24.4815 25.8444L24.6982 26.5083H25.3713ZM27.2809 26.9003L27.8264 26.5083H27.1533L26.9366 25.8444L26.7162 26.5083H26.0474L26.5839 26.9066L26.3677 27.5565L26.9222 27.1581L27.5062 27.5916L27.2809 26.9003Z" fill="white"/>
<path d="M18.592 28.4647V32.5732C19.3928 33.0234 19.642 33.461 19.642 33.461C19.642 33.461 19.6004 33.0464 20.6204 32.5654V28.4647H18.592Z" fill="white"/>
<path d="M13.0594 28.4647V30.9958C13.6925 31.324 14.3788 31.5417 15.0878 31.6394V28.4647H13.0594Z" fill="white"/>
<path d="M21.3326 28.4647V32.284C21.9956 32.0696 22.6735 31.9029 23.361 31.785V28.4647H21.3326Z" fill="white"/>
<path d="M15.7965 28.4647V31.7253C16.6622 31.8417 17.3444 32.0287 17.8782 32.2384V28.4652L15.7965 28.4647Z" fill="white"/>
<path d="M28.3944 28.4647H26.8464V30.5608C28.222 29.5998 28.3944 28.4647 28.3944 28.4647Z" fill="white"/>
<path d="M24.0706 28.4647V31.6613C24.9096 31.4984 25.5876 31.261 26.1347 30.9874V28.4668L24.0706 28.4647Z" fill="white"/>
<path d="M10.9236 28.4647C10.7913 28.6166 11.1836 29.6768 12.3467 30.5467V28.4647H10.9236Z" fill="white"/>
<path fill-rule="evenodd" clip-rule="evenodd" d="M10.9241 9.80859H28.3962V14.7697H10.9241V9.80859ZM16.1701 12.8413V13.4891C16.4772 13.6757 16.8317 13.7736 17.1929 13.7715C17.5587 13.7719 17.8443 13.6952 18.0495 13.5414C18.1497 13.4686 18.2301 13.3728 18.284 13.2625C18.3378 13.1522 18.3635 13.0307 18.3587 12.9084C18.3628 12.7594 18.3292 12.6117 18.2609 12.4787C18.1942 12.3549 18.0941 12.2516 17.9717 12.18C17.7779 12.0758 17.5754 11.9881 17.3664 11.918C17.3087 11.8975 17.266 11.8813 17.2377 11.8703C17.1299 11.8358 17.0283 11.7845 16.9372 11.7183C16.9085 11.6991 16.8846 11.6737 16.8674 11.6441C16.8502 11.6146 16.8401 11.5814 16.8378 11.5475C16.8376 11.5113 16.8478 11.4759 16.8674 11.4454C16.887 11.4148 16.9151 11.3903 16.9484 11.375C17.0487 11.3299 17.1586 11.3094 17.2686 11.3153C17.4146 11.3181 17.5593 11.3417 17.6984 11.3855C17.8822 11.4435 18.0607 11.5164 18.2321 11.6035V11.0082C18.0723 10.9324 17.9048 10.8732 17.7325 10.8316C17.5677 10.7921 17.3988 10.7718 17.2292 10.7714C16.8993 10.7717 16.6313 10.8491 16.4252 11.0035C16.328 11.072 16.249 11.1627 16.1953 11.2678C16.1416 11.3728 16.1146 11.4891 16.1167 11.6067C16.1132 11.7141 16.1324 11.8211 16.1733 11.9208C16.2143 12.0205 16.2759 12.1107 16.3543 12.1858C16.5123 12.3374 16.8016 12.4855 17.2222 12.6301C17.393 12.6888 17.5019 12.7386 17.5484 12.7811C17.5715 12.8024 17.5898 12.8283 17.6019 12.8572C17.6139 12.886 17.6195 12.9171 17.6183 12.9483C17.6201 12.9877 17.6106 13.027 17.5908 13.0613C17.571 13.0957 17.5417 13.1239 17.5062 13.1427C17.4041 13.1925 17.2906 13.2151 17.1768 13.2082C17.0251 13.2069 16.8747 13.1793 16.7327 13.1269C16.5358 13.0508 16.3473 12.9551 16.1701 12.8413ZM15.6058 12.4786V10.8179H14.8628V12.4498C14.8624 12.6821 14.8067 12.8591 14.6957 12.9806C14.5847 13.1022 14.4224 13.163 14.2089 13.163C13.9943 13.1634 13.8306 13.1022 13.7178 12.9796C13.605 12.8569 13.5486 12.6804 13.5486 12.4498V10.8179H12.8077V12.4786C12.8095 12.886 12.9331 13.2033 13.1787 13.4308C13.4242 13.6582 13.7669 13.7719 14.2068 13.7719C14.6476 13.7719 14.991 13.6582 15.237 13.4308C15.4828 13.2033 15.6058 12.886 15.6058 12.4786ZM18.425 13.719L19.7119 10.8174H20.5659L21.7157 13.719H20.9316L20.7181 13.1557H19.4482L19.2128 13.719H18.425ZM19.6612 12.6578H20.5328L20.1202 11.551L19.6612 12.6578ZM22.1034 10.8174V13.719H22.864V10.8174H22.1034ZM23.5086 13.719V10.8174H24.6183C24.8659 10.8096 25.1136 10.8325 25.3554 10.8855C25.5501 10.9395 25.7314 11.0326 25.8875 11.1589C26.0438 11.2851 26.1715 11.4419 26.2629 11.6191C26.3641 11.8314 26.4138 12.0637 26.4084 12.298C26.4029 12.5323 26.3423 12.7621 26.2314 12.9696C26.1086 13.1852 25.932 13.3668 25.7184 13.4973C25.5894 13.577 25.4472 13.6341 25.2983 13.666C25.0734 13.7065 24.8448 13.724 24.6162 13.7185L23.5086 13.719ZM24.249 11.4095V13.1321H24.7998C24.9134 13.1361 25.0267 13.1167 25.1322 13.0753C25.2379 13.0339 25.3335 12.9713 25.4131 12.8915C25.5662 12.7196 25.6507 12.499 25.6507 12.2705C25.6507 12.0422 25.5662 11.8215 25.4131 11.6496C25.3334 11.5699 25.2377 11.5075 25.1322 11.4662C25.0266 11.4248 24.9134 11.4055 24.7998 11.4095H24.249Z" fill="white"/>
<path d="M16.5438 17.8659C16.6024 17.8588 16.6577 17.8361 16.704 17.8004C16.7574 17.7506 16.6927 17.9707 16.5438 17.8659Z" fill="white"/>
<path d="M17.024 17.9838L17.371 17.6431C17.371 17.6431 17.1996 17.9969 17.024 17.9838Z" fill="white"/>
<path d="M23.3231 19.7525C23.3231 19.7525 23.6701 19.8835 24.2038 19.7787C24.206 19.7787 23.6723 20.1193 23.3231 19.7525Z" fill="white"/>
<path d="M15.4767 21.7857C15.4767 21.7857 15.6368 21.7071 15.6768 21.6809L15.7169 21.6547L15.877 21.6417C15.877 21.6417 15.6901 21.8094 15.4767 21.7857Z" fill="white"/>
<path d="M17.1737 20.2241L17.4272 20.0276C17.4272 20.0276 17.1604 20.1193 17.1737 20.2241Z" fill="white"/>
<path d="M16.2386 20.2502C16.2899 20.2566 16.3417 20.2434 16.3833 20.2135C16.4501 20.1611 16.8237 19.7681 16.8237 19.7681C16.8237 19.7681 16.3054 20.1088 16.2386 20.2502Z" fill="white"/>
<path d="M15.3853 20.3289C15.3853 20.3289 15.7723 19.949 15.8257 19.9359C15.8791 19.9228 15.8791 20.0276 15.8791 20.0276L15.3853 20.3289Z" fill="white"/>
<path d="M15.3051 19.9516C15.3051 19.9516 15.5453 19.7288 15.5987 19.7158C15.6293 19.7077 15.6614 19.7077 15.6921 19.7158C15.6921 19.7158 15.3851 19.9358 15.3051 19.9516Z" fill="white"/>
<path d="M15.1034 19.8572C15.1034 19.8572 15.437 19.4641 15.5438 19.451C15.6505 19.4379 15.6505 19.4772 15.6505 19.4772V19.5427C15.6505 19.5427 15.1722 19.7943 15.1034 19.8572Z" fill="white"/>
<path d="M14.7577 19.831C14.7977 19.7917 15.0913 19.438 15.2514 19.4117L15.3048 19.3856L15.2915 19.4903L14.7577 19.831Z" fill="white"/>
<path d="M13.9822 20.5516C13.9822 20.5516 14.3825 20.224 14.4226 20.211L14.4626 20.1979H14.3025C14.3025 20.1979 13.9577 20.4468 13.9822 20.5516Z" fill="white"/>
<path d="M13.8219 20.4232C13.8219 20.4232 13.0212 21.0782 12.781 21.3665C12.781 21.3665 12.2205 21.3534 12.1405 21.4057C12.0604 21.4582 12.1005 21.4188 12.1005 21.4188L12.1271 21.2879C12.229 21.2602 12.3213 21.2059 12.394 21.1307C12.5275 20.9996 13.5683 20.2528 13.5683 20.2528L12.583 21.1044C12.583 21.1044 12.5163 21.4057 12.7565 21.1962C12.9967 20.9865 13.6906 20.4755 13.8219 20.4232Z" fill="white"/>
<path d="M11.8619 21.2853L12.0087 21.2721L12.2489 21.1018L13.0897 20.3551C13.0897 20.3551 12.0888 21.0756 11.8619 21.2853Z" fill="white"/>
<path d="M11.4888 21.2852L11.6622 21.259L12.5563 20.4337C12.5563 20.4337 11.6489 21.052 11.4888 21.2852Z" fill="white"/>
<path d="M11.1145 21.2722L11.3014 21.2459L11.8997 20.604C11.8997 20.604 11.2881 21.0232 11.1145 21.2722Z" fill="white"/>
<path d="M10.8611 21.0757L10.8745 21.1674H10.9924C10.9924 21.1674 11.1259 20.9839 11.2326 20.8005C11.1188 20.9046 10.9944 20.9968 10.8611 21.0757Z" fill="white"/>
<path d="M21.2566 20.4075C21.2566 20.4075 21.5769 20.2503 21.697 20.1323C21.6245 20.2651 21.5189 20.3778 21.3901 20.4598C21.3901 20.4598 21.1765 20.5123 21.2566 20.4075Z" fill="white"/>
<path d="M21.1346 20.2241C21.1346 20.2241 21.4149 20.1325 21.4816 20.08C21.416 20.1809 21.3238 20.2624 21.2146 20.3158C21.0566 20.3814 21.1346 20.2241 21.1346 20.2241Z" fill="white"/>
<path d="M21.0033 20.1192C21.0033 20.1192 21.3102 20.004 21.3481 19.9515L21.3081 20.004C21.3081 20.004 21.1501 20.2371 21.0033 20.1192Z" fill="white"/>
<path d="M19.373 19.0188C19.373 19.0188 19.4531 19.0974 19.7334 18.8878C19.7334 18.8878 19.6267 19.1106 19.4531 19.0974C19.2796 19.0843 19.3886 19.0712 19.373 19.0188Z" fill="white"/>
<path d="M18.668 18.2327C18.668 18.2327 19.1617 18.2458 19.2818 18.3768C19.4019 18.5078 19.6288 18.7043 19.6288 18.7043L19.6554 18.7698H19.522C19.522 18.7698 19.5487 18.5995 19.3886 18.7174C19.3179 18.7736 19.2411 18.822 19.1596 18.8615C19.1596 18.8615 19.4264 18.5602 19.2663 18.5078C19.1062 18.4554 19.2663 18.6388 19.0128 18.7174C19.0128 18.7174 19.213 18.4423 19.1062 18.4554C18.9994 18.4685 18.906 18.5864 18.906 18.5864L18.826 18.6126C18.826 18.6126 19.0928 18.3506 18.8526 18.3374L18.7859 18.3506C18.7503 18.3079 18.7108 18.2685 18.668 18.2327Z" fill="white"/>
<path d="M19.762 20.9473L19.8154 20.8948L20.149 20.6984C20.149 20.6984 19.8821 21.0364 19.762 20.9473Z" fill="white"/>
<path d="M19.9491 21.1412C20.0715 20.9933 20.2209 20.8689 20.3894 20.7743C20.3894 20.7743 20.1625 21.1045 19.9491 21.1412Z" fill="white"/>
<path d="M20.1361 21.2722C20.1361 21.2722 20.363 21.0233 20.5631 20.9708C20.5631 20.9708 20.3496 21.2617 20.1361 21.2722Z" fill="white"/>
<path d="M20.3628 21.4031C20.4676 21.2788 20.5887 21.1686 20.7231 21.0756C20.7231 21.0756 20.5763 21.4031 20.3628 21.4031Z" fill="white"/>
<path d="M20.5629 21.5237C20.5629 21.5237 20.9765 21.3403 21.1233 21.1437C21.1233 21.1437 21.0566 21.4189 20.9765 21.4451C20.8965 21.4713 20.9899 21.5761 21.1233 21.4975C21.2567 21.4189 21.3101 21.2354 21.3101 21.2354C21.3101 21.2354 21.3902 21.4843 21.2167 21.5368C21.0433 21.5892 21.2034 21.6678 21.3635 21.5499C21.5237 21.432 21.2301 21.8119 20.9364 21.9167C20.9364 21.9167 21.0966 21.6809 21.0032 21.6809C20.9098 21.6809 20.8831 21.7202 20.8831 21.7202L20.8698 21.5629C20.8698 21.5629 20.6007 21.639 20.5629 21.5237Z" fill="white"/>
<path d="M18.0266 19.7525C18.0266 19.7525 18.1334 19.6739 18.1734 19.6345C18.2135 19.5953 18.5203 19.6345 18.6004 19.438C18.6004 19.438 18.5471 19.5953 18.6272 19.5953C18.7072 19.5953 18.8674 19.5035 18.8674 19.5035C18.8674 19.5035 18.7205 19.7656 18.854 19.7656C18.9874 19.7656 19.1475 19.6214 19.1475 19.6214C19.1475 19.6214 19.1209 19.7656 19.0275 19.8179C18.9341 19.8703 19.0275 20.0145 19.2143 19.8703C19.1785 19.9246 19.1473 19.9815 19.1209 20.0406C19.0931 20.1088 19.0707 20.1788 19.0541 20.2503C19.0541 20.2503 19.0142 20.2241 18.8807 20.3027C18.7472 20.3813 18.4937 20.5778 18.4269 20.5909C18.3602 20.6041 18.9986 20.0564 18.8807 20.0406C18.7627 20.025 18.3469 20.3682 18.3469 20.3682C18.3469 20.3682 18.8139 19.8703 18.7072 19.8442C18.6004 19.8179 18.387 20.0406 18.387 20.0406C18.387 20.0406 18.6538 19.6345 18.4803 19.687C18.3069 19.7393 18.3202 19.8048 18.3202 19.8048C18.3202 19.8048 18.387 19.5167 18.0266 19.7525Z" fill="white"/>
<path d="M27.1017 18.1802L27.3018 18.0624C27.3018 18.0624 27.3798 18.1802 27.1017 18.1802Z" fill="white"/>
<path d="M24.1525 18.6519L24.3927 18.4423C24.3927 18.4423 24.4861 18.589 24.1525 18.6519Z" fill="white"/>
<path d="M26.2343 21.5473C24.6063 21.5473 24.9532 21.4163 24.5529 21.4424C24.4225 21.4524 24.2914 21.4493 24.1617 21.433L24.1526 21.4162C24.1389 21.4204 24.125 21.4237 24.1109 21.4262L24.0496 21.4162C24.0143 21.3638 24.222 21.1658 24.3661 21.1149C24.5529 21.0494 24.6196 20.7611 24.6196 20.7611C24.6196 20.7611 24.2994 21.1149 23.8991 21.2852C23.4987 21.4555 24.1126 20.866 24.3528 20.7219C24.4983 20.6323 24.6106 20.4991 24.6731 20.3419C24.6731 20.3419 24.0058 20.9839 23.6589 21.1673C23.3119 21.3507 23.4586 21.1018 23.4586 21.1018C23.4586 21.1018 23.8456 20.748 24.0058 20.6694C24.054 20.6427 24.0949 20.6049 24.1251 20.5593C24.1553 20.5136 24.1739 20.4616 24.1792 20.4074C24.1792 20.4074 23.5921 20.9708 23.432 20.9708C23.2719 20.9708 23.3653 20.8922 23.6054 20.735C23.7479 20.6425 23.852 20.5031 23.8991 20.3419C23.8991 20.3419 23.6188 20.6694 23.4053 20.735C23.1918 20.8005 23.3119 20.5908 23.4586 20.5122C23.6054 20.4336 23.6855 20.2109 23.6855 20.2109C23.6855 20.2109 23.4586 20.3944 23.3119 20.4991C23.1651 20.6039 23.1785 20.4467 23.2719 20.3681C23.3473 20.2906 23.4104 20.2023 23.4586 20.1061C23.3828 20.152 23.3113 20.2047 23.2452 20.2633C23.0851 20.3944 23.0317 20.1585 23.1117 20.1323C23.1918 20.1061 23.2852 19.9358 23.2319 19.9882C23.1785 20.0406 22.9495 20.1087 22.9495 20.1087V20.1119C22.9392 20.1103 22.9287 20.1116 22.9193 20.1156C22.9098 20.1197 22.9017 20.1264 22.8961 20.135C22.9292 20.3066 22.9829 20.4737 23.0562 20.6328C23.163 20.8424 23.163 21.1569 23.163 21.1569C22.9863 21.5761 22.7867 21.5074 22.8545 21.3439C22.9188 21.2966 22.9732 21.2375 23.0146 21.1699C22.9735 21.1896 22.9306 21.2054 22.8864 21.2171C22.8813 21.1691 22.8683 21.1222 22.848 21.0783C22.884 21.0456 22.9218 21.015 22.9612 20.9866C22.9151 21.0015 22.8678 21.0125 22.8197 21.019C22.8053 20.9902 22.7893 20.9603 22.7717 20.931C22.792 20.9034 22.8153 20.8781 22.8411 20.8555H22.7263C22.656 20.7523 22.5961 20.6426 22.5476 20.528L22.516 20.4352C22.4827 20.2932 22.5034 20.1441 22.5742 20.016L22.4941 20.0291C22.4141 20.0422 22.4808 19.9243 22.4808 19.9243L22.7477 19.669C22.7529 19.7673 22.7796 19.8634 22.8262 19.9505C22.8262 19.9505 22.8128 19.7146 22.8929 19.6099C22.9491 19.5288 22.9941 19.4407 23.0264 19.3479C23.0264 19.3479 23.053 18.9155 22.8128 18.6797C22.5726 18.4438 22.4792 18.3783 22.4391 18.2605C22.4391 18.2605 22.4792 18.4438 22.586 18.5224C22.6692 18.5843 22.7365 18.8138 22.7615 18.9108L22.666 18.981L22.7461 19.0072C22.764 19.007 22.7819 19.0088 22.7995 19.0125C22.8124 19.0464 22.822 19.0815 22.8283 19.1172C22.752 19.2462 22.4792 19.449 22.4547 19.4924C22.4437 19.5094 22.4294 19.5239 22.4126 19.5351C22.3957 19.5463 22.3766 19.554 22.3566 19.5578C22.3366 19.5614 22.316 19.5611 22.2961 19.5566C22.2763 19.5521 22.2576 19.5436 22.2411 19.5318C22.1937 19.5008 22.2828 19.3819 22.3741 19.2901C22.3084 19.3316 22.2363 19.3772 22.1877 19.4138C22.1767 19.425 22.1628 19.433 22.1474 19.437C22.1321 19.4409 22.116 19.4407 22.1008 19.4363L22.074 19.4149C22.0674 19.4051 22.0629 19.3941 22.0611 19.3825C22.0591 19.371 22.0597 19.3591 22.063 19.3479C22.0662 19.3365 22.0718 19.326 22.0795 19.3171C22.0873 19.3081 22.0969 19.3009 22.1077 19.2959C22.2011 19.2566 22.4947 18.8767 22.4947 18.8767C22.4947 18.8767 22.1488 19.1759 21.9887 19.2179C21.8285 19.2598 21.8152 19.2571 21.9219 19.1654C22.0287 19.0737 22.2956 18.7201 22.2155 18.8117C22.1355 18.9034 21.8819 19.1654 21.6951 19.0999C21.5083 19.0345 21.9887 18.8117 21.9086 18.8117C21.8285 18.8117 21.5483 18.982 21.5483 18.982C21.228 18.982 21.6817 18.6807 21.615 18.6807C21.5483 18.6807 21.2814 18.851 21.2147 18.7987C21.1479 18.7462 21.3881 18.6021 21.3881 18.6021C21.2924 18.6247 21.202 18.6647 21.1213 18.72C20.9878 18.8117 20.9211 18.589 20.9211 18.589C20.5342 18.7331 20.7343 18.4449 20.7343 18.4449C20.4007 18.5628 20.3473 18.5104 20.3473 18.5104C20.3457 18.5147 20.3446 18.5191 20.3441 18.5235C20.2167 18.4653 20.104 18.3802 20.0137 18.2746C19.9944 18.2515 19.9748 18.23 19.9539 18.2091C19.9582 18.11 20.0804 17.9602 20.0804 17.9602C19.9834 18.009 19.8812 18.0472 19.7756 18.0739C19.7564 18.0623 19.7372 18.0519 19.718 18.0419C19.7367 17.9686 19.9469 17.8029 19.9469 17.8029C19.9469 17.8029 19.719 17.9308 19.5872 17.9868C19.5632 17.9785 19.5392 17.9712 19.5151 17.9643C19.5821 17.8753 19.655 17.7907 19.7335 17.7113C19.7335 17.7113 19.49 17.858 19.3465 17.9261C19.3107 17.9198 19.2754 17.9151 19.2397 17.9109C19.2677 17.8323 19.3034 17.7567 19.3465 17.685C19.3465 17.685 19.1367 17.8642 18.9809 17.8889C18.9483 17.8889 18.9184 17.8847 18.8928 17.8815C18.746 17.816 19.0529 17.5802 19.0529 17.5802C18.9154 17.6843 18.7716 17.7801 18.6221 17.8669C18.5863 17.8669 18.5532 17.8669 18.5218 17.8632C18.5346 17.782 18.691 17.5838 18.6126 17.6719C18.5453 17.7474 18.3953 17.7956 18.3163 17.8171C18.2961 17.7877 18.2856 17.7529 18.2864 17.7175C18.3707 17.6352 18.4935 17.5163 18.5474 17.4681C18.4656 17.5048 18.381 17.5353 18.2944 17.5592C18.3083 17.4545 18.3323 17.3575 18.3323 17.3575C18.028 17.9366 17.7105 18.0231 17.4756 18.044C17.4745 18.0265 17.4773 18.009 17.484 17.9927C17.4905 17.9765 17.5006 17.9618 17.5136 17.9498C17.5266 17.9378 17.5421 17.9288 17.5591 17.9233C17.576 17.9179 17.594 17.9161 17.6117 17.9182C17.9186 17.8265 17.9854 17.4597 17.9854 17.4597C17.9854 17.4597 17.7718 17.8134 17.6651 17.8265C17.5583 17.8396 17.625 17.6562 17.625 17.6562L17.238 18.0649C17.0733 18.098 16.9029 18.0928 16.7406 18.0498C16.8297 18.0126 16.9978 17.7878 16.9978 17.7878C16.8575 17.7993 16.7373 17.9921 16.7101 18.0393C16.5549 17.9984 16.4141 17.9158 16.304 17.8009C16.037 17.5126 16.4107 17.4078 16.4107 17.4078C16.4107 17.4078 16.4438 17.3973 16.5014 17.3758C16.5083 17.5152 16.6535 17.6788 17.0246 17.5257C17.3448 17.3942 17.3214 17.1369 17.2914 17.0274L17.3154 17.0148C17.4437 16.9428 17.5874 16.9014 17.735 16.8942C17.806 16.9467 17.8951 17.0515 17.916 17.2506C17.916 17.2506 18.0227 17.106 17.885 16.9073C18.0451 16.9377 18.1775 17.0121 18.3296 17.041C18.6232 17.0934 19.5573 17.2244 19.5573 17.2244C19.5573 17.2244 20.2512 17.172 20.3847 17.3292C20.5181 17.4864 20.7316 17.434 21.0252 17.5388L21.1154 17.5708C21.1182 17.5981 21.1151 17.6256 21.1065 17.6517C21.0979 17.6777 21.0838 17.7018 21.0652 17.7223C21.0652 17.7223 21.4789 17.4864 21.3855 17.8401C21.3855 17.8401 21.8259 17.6174 21.639 17.9318C21.639 17.9318 22.026 17.696 21.9193 17.9973C21.9193 17.9973 22.2128 17.8009 22.1728 18.0629C22.244 18.0349 22.3172 18.0122 22.3917 17.9947C22.4221 18.0052 22.4397 18.0104 22.4397 18.0104C22.6266 18.0629 23.0001 18.6131 23.0001 18.6131C23.0269 18.4035 22.7599 18.089 22.7599 18.089H22.8908C22.9153 18.1273 22.9346 18.1724 22.9067 18.1939C22.9067 18.1939 23.0269 18.0759 23.0935 18.1284C23.1603 18.1808 23.0402 18.338 23.0402 18.338C23.0402 18.338 23.3071 18.0759 23.3738 18.1284C23.4406 18.1808 23.187 18.4428 23.187 18.4428C23.187 18.4428 23.4005 18.3642 23.4539 18.3118C23.5073 18.2594 23.6807 18.0498 23.7875 18.1415C23.8942 18.2332 23.2937 18.6655 23.2937 18.6655C23.2937 18.6655 23.3871 18.6786 23.6007 18.5345C23.7598 18.4219 23.9113 18.2994 24.0543 18.1676C24.0543 18.1676 24.4013 18.0759 24.2812 18.1676C24.1611 18.2594 24.0277 18.4559 23.8008 18.5738C23.5739 18.6917 24.0277 18.5476 24.2412 18.3642C24.4548 18.1808 24.8283 18.0367 24.8017 18.1415C24.775 18.2462 24.5748 18.338 24.5748 18.338C24.5748 18.338 24.775 18.3511 24.8951 18.2332C25.0152 18.1153 25.4289 17.9973 25.3488 18.1284C25.2687 18.2594 25.1753 18.2725 25.1753 18.2725C25.1753 18.2725 25.4289 18.2462 25.5089 18.1415C25.589 18.0367 25.8425 18.089 25.7091 18.1939C25.5757 18.2987 25.8025 18.1676 25.8959 18.1022C25.9893 18.0367 26.403 17.945 26.2963 18.0498C26.2243 18.1193 26.1486 18.1849 26.0694 18.2462C26.0694 18.2462 26.2429 18.2725 26.3363 18.1676C26.4297 18.0629 26.8834 17.9056 26.79 17.9973C26.6966 18.089 26.6299 18.1676 26.6299 18.1676C26.6937 18.1402 26.756 18.1096 26.8167 18.0759C26.8654 18.0403 26.9061 17.9952 26.9363 17.9433C27.368 17.9208 27.7967 17.912 28.07 17.9082C28.0651 17.967 28.0465 18.0555 27.9777 18.089C28.0675 18.0475 28.1456 17.9849 28.2051 17.9067H28.3294C28.3556 17.9638 28.3694 18.0252 28.3246 18.0503L28.2312 18.1027L28.3512 18.1158L28.3582 17.9062H28.3646V17.7228C28.3646 17.7228 24.4681 17.8537 24.0143 17.88C23.5606 17.9062 22.7599 17.8014 22.5197 17.8014C22.2795 17.8014 20.8918 17.3821 20.785 17.3297C20.6782 17.2773 20.1445 17.0153 19.6908 17.0153C19.237 17.0153 18.3029 16.9105 18.1962 16.8581C18.0894 16.8057 17.4756 16.6485 17.3421 16.8318C17.2087 17.0153 16.4081 17.3297 16.1945 17.3297C15.981 17.3297 16.0344 17.6703 16.0344 17.6703C15.8743 17.9062 14.5398 17.8537 14.5398 17.8537C14.5398 17.8537 12.6716 17.6703 11.9777 17.6703C11.5945 17.6679 11.2114 17.6854 10.8301 17.7228V17.88C10.893 17.88 10.9688 17.88 11.0542 17.8826C11.0735 17.912 11.0745 17.956 10.9902 18.0109C10.8301 18.1158 10.8301 18.2337 10.8301 18.2337C10.8301 18.2337 11.2646 17.9533 11.4135 17.891H11.4599C11.4727 17.9198 11.4658 17.9602 11.3905 18.0094C11.2304 18.1142 11.2304 18.2321 11.2304 18.2321C11.2304 18.2321 11.619 17.9811 11.7877 17.9015L11.8778 17.9046C11.8827 17.9318 11.8683 17.9675 11.8042 18.0094C11.6441 18.1142 11.6441 18.2321 11.6441 18.2321C11.6441 18.2321 11.9932 18.0068 12.173 17.9177L12.2798 17.9213C12.2798 17.9465 12.2585 17.9769 12.2056 18.0116C12.0455 18.1163 12.0455 18.2342 12.0455 18.2342C12.0455 18.2342 12.3599 18.0314 12.5456 17.9323L12.7026 17.9392C12.6875 17.9699 12.663 17.9952 12.6326 18.0116C12.4725 18.1163 12.4725 18.2342 12.4725 18.2342C12.4725 18.2342 12.7527 18.0534 12.9406 17.9497L13.0938 17.957C13.0771 17.978 13.0564 17.9959 13.0329 18.0094C12.8728 18.1142 12.8728 18.2321 12.8728 18.2321C12.8728 18.2321 13.1237 18.0707 13.3095 17.9654C13.6869 17.9842 13.9633 18.0011 14.0071 18.0094C14.0509 18.0178 14.3343 18.0262 14.6573 18.0283L14.6477 18.1535C14.6477 18.1535 14.9679 17.9046 14.9546 18.1798C14.9546 18.1798 15.3949 17.8915 15.3683 18.1404C15.3683 18.1404 15.7285 17.9177 15.6752 18.2059C15.6752 18.2059 16.2222 17.695 16.0221 18.1666C16.0221 18.1666 16.4091 17.9046 16.2357 18.2715C16.2357 18.2715 16.7961 17.9963 16.3824 18.4156C16.3824 18.4156 17.2364 17.9308 16.6092 18.5728C16.6092 18.5728 17.5567 17.9963 17.2364 18.4287C17.2364 18.4287 17.8903 18.0094 17.837 18.2715L18.1129 18.1074C18.2731 18.0812 18.3841 18.0618 18.3841 18.0618C19.2915 17.957 19.7986 18.2976 20.0121 18.5335C20.2256 18.7693 20.9195 19.0051 20.9195 19.0051C20.9195 19.0051 21.6401 19.1885 21.9871 19.6601C22.334 20.1318 22.2806 20.6034 22.4675 20.8655C22.6543 21.1275 22.6276 21.4157 22.5208 21.4419C22.4829 21.4513 22.4514 21.5111 22.4221 21.586L22.334 21.6253C22.2652 21.6837 22.1826 21.7242 22.0938 21.7432C21.9337 21.7825 21.9337 21.6515 22.0404 21.6385C22.1472 21.6253 22.3607 21.455 22.3874 21.4026C22.4141 21.3502 22.5208 21.3371 22.5208 21.3371C22.4737 21.3213 22.4233 21.3168 22.3741 21.324C22.3741 21.324 22.2539 21.5074 22.0805 21.5336C21.907 21.5599 21.8002 21.4419 21.9737 21.4026C22.1472 21.3633 22.2406 21.1406 22.2406 21.1406C22.2406 21.1406 22.1338 21.324 21.9337 21.324C21.7335 21.324 21.7869 21.1799 21.9204 21.1536C22.0537 21.1275 22.1488 20.9315 22.1488 20.9315C22.1488 20.9315 21.8953 21.1018 21.8018 21.1018C21.7084 21.1018 21.5483 21.0101 21.7885 20.9315C21.8543 20.9138 21.9157 20.8826 21.9685 20.8402C22.0213 20.7978 22.0646 20.745 22.0954 20.6852C22.0954 20.6852 21.8419 20.8817 21.7084 20.8817C21.575 20.8817 21.6017 20.7769 21.6017 20.7769C21.6017 20.7769 21.8552 20.7114 21.9486 20.6066C22.042 20.5017 22.1221 20.3577 22.002 20.4494C21.8819 20.5411 21.8152 20.528 21.8953 20.3184C21.9753 20.1087 21.9486 20.0301 21.9486 20.0301C21.9086 20.397 21.4015 20.5673 21.4015 20.5673C21.4718 20.5892 21.548 20.5846 21.615 20.5542C21.7084 20.5017 21.6817 20.6328 21.575 20.6983C21.5306 20.7195 21.4805 20.7262 21.4319 20.7172L21.4282 20.7114C21.3748 20.6328 20.9745 20.3708 20.7877 20.2922C20.7877 20.2922 20.6542 20.2136 20.841 20.0956C20.9198 20.0506 20.9838 19.9842 21.0252 19.9044C20.9964 19.9594 20.7322 20.0705 20.6675 20.0956C20.603 20.1208 20.4807 20.0301 20.6142 19.9778C20.7476 19.9253 20.7877 19.7681 20.7877 19.7681C20.7244 19.839 20.6406 19.8893 20.5475 19.9122C20.374 19.9647 20.4407 19.8336 20.4807 19.8336C20.5207 19.8336 20.6008 19.7026 20.6008 19.7026C20.5515 19.7418 20.4908 19.7648 20.4273 19.7681C20.3073 19.7812 20.2272 19.6895 20.3073 19.6895C20.3874 19.6895 20.5207 19.5323 20.5207 19.5323C20.5207 19.5323 20.414 19.5585 20.2672 19.6109C20.1204 19.6633 20.0804 19.5323 20.1472 19.5192C20.2139 19.5061 20.2539 19.4143 20.2539 19.4143C20.191 19.4463 20.1235 19.4684 20.0538 19.4799C19.9203 19.5061 19.8802 19.3751 19.987 19.3489C20.0857 19.3248 20.1386 19.1995 20.1472 19.1812C20.1418 19.1922 20.1114 19.2409 19.948 19.3096C19.7612 19.3882 19.7745 19.2179 19.7745 19.2179L20.0147 19.0476C20.0147 19.0476 20.0948 18.9165 19.9347 19.0476C19.8397 19.1257 19.724 19.1757 19.6011 19.1917L19.5477 19.2703L19.5808 19.3033L19.561 19.3226C19.8012 19.4537 19.7745 19.6633 19.7745 19.6633L20.8678 20.528C20.8678 20.528 21.3214 20.8424 21.4815 21.1306C21.5406 21.2456 21.5702 21.3729 21.568 21.5016C21.5311 21.5903 21.4742 21.6695 21.4015 21.7333C21.2963 21.8225 21.2022 21.9237 21.1213 22.0346C21.236 21.9704 21.3474 21.9005 21.4549 21.825C21.5349 21.7594 21.7217 21.694 21.6417 21.8512C21.5616 22.0084 21.2413 22.1657 21.2413 22.1657C21.309 22.1739 21.3775 22.165 21.4407 22.1397C21.5038 22.1144 21.5592 22.0738 21.6017 22.0215C21.7618 21.8381 21.8685 21.9691 21.7217 22.1001C21.575 22.2311 21.495 22.3229 21.3748 22.336C21.2548 22.349 21.5616 22.4015 21.6551 22.3097C21.7485 22.218 21.8152 22.336 21.6417 22.4538C21.6008 22.4839 21.5557 22.5079 21.5077 22.5252C21.5606 22.5293 21.6126 22.5404 21.6625 22.5582C21.6323 22.5923 21.5985 22.6232 21.5616 22.6504C21.2413 22.8862 20.841 22.0739 20.7877 21.9429C20.7343 21.8119 19.9603 21.2355 19.8269 21.1569C19.7956 21.1374 19.7652 21.1165 19.7361 21.0939C19.7308 21.0415 19.7361 20.9964 19.6534 20.9866C19.5466 20.9734 19.6668 20.8424 19.8001 20.7507C19.8384 20.7248 19.8686 20.6891 19.8874 20.6475C19.9062 20.6059 19.913 20.56 19.907 20.5149L19.8402 20.6066C19.8402 20.6066 19.5466 20.8162 19.52 20.8686C19.4933 20.921 19.3064 20.7638 19.52 20.6721C19.7335 20.5803 19.6668 20.3839 19.6534 20.4494C19.64 20.5149 19.3865 20.6721 19.3465 20.6983C19.3064 20.7245 19.1596 20.659 19.3197 20.5411C19.4203 20.4649 19.5062 20.3717 19.5734 20.2659C19.4929 20.3323 19.4081 20.3936 19.3197 20.4494C19.2664 20.4802 19.173 20.5385 19.1063 20.5809L19.0262 20.6333L19.2931 20.9216L19.133 21.0002C19.5066 21.1311 19.5867 21.3146 19.9336 21.4718C20.2805 21.629 20.3606 21.891 20.3606 21.891C20.3985 21.8918 20.4349 21.9052 20.4641 21.929C20.4932 21.9528 20.5131 21.9856 20.5207 22.022C20.1738 22.4151 20.2805 22.0744 20.2805 22.0744C19.64 22.6509 19.9603 22.1007 19.9603 22.1007C19.9416 22.1373 19.8493 22.1955 19.7367 22.2579C19.7286 22.2443 19.719 22.2333 19.7067 22.2333C19.6668 22.2333 19.4399 22.3905 19.3598 22.338C19.2798 22.2856 19.3064 22.3119 19.52 22.2201C19.7335 22.1284 19.6934 21.9712 19.6934 21.9712L19.6668 22.0105C19.5896 22.0834 19.499 22.1412 19.3998 22.1808C19.2531 22.2333 19.213 22.076 19.2664 22.076C19.3197 22.076 19.5333 21.9188 19.5333 21.9188L19.64 21.7878C19.64 21.7878 19.5599 21.7878 19.5466 21.8271C19.5333 21.8664 19.2931 21.9581 19.2531 21.9712C19.203 21.976 19.1526 21.9701 19.1052 21.9539C19.0951 21.9392 19.0849 21.9251 19.0742 21.9109C19.0912 21.8963 19.1112 21.8855 19.133 21.8795C19.1894 21.8577 19.2402 21.8239 19.2818 21.7805C19.3234 21.7371 19.3545 21.6852 19.3732 21.6285C19.3598 21.694 19.1463 21.7594 19.0795 21.8119C19.0648 21.8208 19.0475 21.8249 19.0302 21.8237C19.0128 21.8225 18.9963 21.816 18.983 21.805C18.9684 21.7904 18.9539 21.7768 18.9397 21.7642C18.9349 21.7588 18.9314 21.7523 18.9297 21.7452C18.9282 21.7381 18.9282 21.7308 18.9303 21.7238C18.9322 21.7169 18.9359 21.7105 18.941 21.7053C18.9461 21.7001 18.9524 21.6962 18.9595 21.694C19.0529 21.6547 19.213 21.445 19.213 21.445C19.1059 21.5131 18.9944 21.5743 18.8794 21.6285C18.7994 21.6547 18.6926 21.5368 18.7727 21.5236C18.8528 21.5105 18.9995 21.2878 18.9995 21.2878C18.9995 21.2878 18.7994 21.4319 18.6792 21.4319C18.5592 21.4319 18.8528 21.1306 18.8528 21.1306C18.7589 21.1946 18.6553 21.2432 18.5458 21.2747C18.4124 21.301 18.4658 21.1961 18.4658 21.1961L18.6792 20.9472C18.555 21.0353 18.4211 21.1095 18.2799 21.1684C18.2578 21.1583 18.2349 21.1496 18.2116 21.1421C18.2577 21.0795 18.3115 21.0229 18.3717 20.9734C18.4479 20.9181 18.5193 20.8567 18.5853 20.79C18.4252 20.8424 18.1182 20.6328 18.0916 20.5673C18.0649 20.5017 17.8914 20.5935 17.8914 20.5935C17.8914 20.5935 17.5178 20.8948 17.411 20.9996C17.353 21.0522 17.2871 21.0957 17.2156 21.1285C17.1986 21.1159 17.1786 21.1075 17.1574 21.1044C17.0106 21.0782 17.8113 20.4625 17.8113 20.4625C17.2909 20.7245 17.1174 21.0782 16.8372 21.052C16.557 21.0258 17.6117 20.2136 17.6117 20.2136C17.0646 20.5149 16.5174 21.1175 16.2372 21.2878C15.957 21.4582 16.1304 21.183 16.1304 21.183C16.1304 21.183 16.6642 20.659 16.8644 20.5017C17.0646 20.3445 17.0246 20.3184 17.0246 20.3184C16.8778 20.3577 16.2772 20.8948 16.0237 21.0783C15.7702 21.2616 15.8902 20.9866 15.8902 20.9866L16.9578 20.0301C16.9578 20.0301 15.9324 20.79 15.7189 20.9996C15.5054 21.2092 15.5722 21.0127 15.6122 20.9603C15.6522 20.9079 16.186 20.3577 16.186 20.3577C16.0125 20.397 15.4787 20.8686 15.3586 20.9996C15.2385 21.1306 15.2519 21.0913 15.2252 20.9996C15.1985 20.9079 15.7323 20.4363 15.7323 20.4363C15.5722 20.4887 15.1584 20.8424 14.9716 21.0127C14.7848 21.183 14.7181 21.1961 14.7181 21.1044C14.7181 21.0127 15.2786 20.4363 15.2786 20.4363C15.025 20.5673 14.5046 21.0913 14.3578 21.2485C14.3183 21.2978 14.2682 21.3379 14.211 21.3659H14.1785C14.1154 21.3423 14.0872 21.2842 14.2377 21.1432C14.5313 20.8681 15.2519 20.1606 15.2519 20.1606C14.8851 20.3964 14.5372 20.6592 14.211 20.9467C13.8747 21.2438 13.8032 21.3177 13.7962 21.3313C13.7397 21.3481 13.5406 21.3953 13.784 21.1563C14.0642 20.8812 14.7848 20.2131 14.7848 20.2131C14.3228 20.5353 13.8816 20.8853 13.4637 21.2611C13.4637 21.2611 13.3036 21.4838 13.2235 21.3397C13.2642 21.2651 13.3185 21.1985 13.3836 21.1432C13.4637 21.0908 13.9308 20.6323 13.9308 20.6323C13.9308 20.6323 13.5438 20.8026 13.1034 21.2742C13.1034 21.2742 12.9913 21.3669 12.8813 21.4445C12.8214 21.4494 12.7618 21.4581 12.7031 21.4708C12.5162 21.5231 10.8348 21.5494 10.8348 21.5494V21.8114C11.1285 21.7589 14.7848 21.5494 14.7848 21.5494C14.7314 21.7066 14.8916 21.8638 14.8916 21.8638C15.1584 22.5713 15.7189 22.2568 15.7189 22.2568C15.7723 22.9643 16.6797 22.8594 16.6797 22.8594C17.0267 23.5931 17.7205 23.3049 17.7205 23.3049C18.201 24.1696 19.0818 23.5669 19.0818 23.5669C19.6689 23.9599 19.9625 23.6979 20.1493 23.6193C20.3361 23.5407 20.2827 23.1738 20.2827 23.1738C20.8165 23.4883 21.1635 22.8332 21.1635 22.8332C21.7773 23.0952 21.9374 22.3354 21.9374 22.3354C22.3377 22.283 22.5779 21.8638 22.5779 21.8638C22.8181 21.8375 23.0851 21.6017 23.0851 21.6017C23.9658 21.5494 28.3961 21.9424 28.3961 21.9424V21.7589C28.3961 21.7589 27.8602 21.5473 26.2343 21.5473ZM16.605 17.337C16.7406 17.2847 16.9381 17.2029 17.1665 17.0913C17.2604 17.2579 17.1393 17.422 16.8265 17.4859C16.5666 17.5409 16.5879 17.3936 16.605 17.337ZM22.4045 19.8179C22.231 19.7917 22.3778 19.6476 22.6714 19.4117C22.775 19.329 22.8235 19.3159 22.8454 19.3279C22.8454 19.4385 22.8454 19.4851 22.7829 19.5753L22.7381 19.5952C22.7381 19.5952 22.5758 19.8467 22.4045 19.8179ZM15.2385 22.1761C15.1318 22.1468 15.096 22.0272 15.0784 21.8999C15.1499 21.9198 15.2175 21.9512 15.2786 21.9927C15.3427 22.0346 15.4036 22.0812 15.4606 22.1321C15.4291 22.155 15.3929 22.1708 15.3546 22.1784C15.3162 22.1859 15.2765 22.1852 15.2385 22.1761ZM15.8961 21.7857C15.814 21.7946 15.6922 21.9031 15.6922 21.9031L15.6831 21.9759C15.6516 21.9929 15.619 22.008 15.5855 22.021C15.4254 22.0079 15.4787 21.9817 15.2652 21.8769C15.0517 21.7721 15.5188 21.5755 15.5188 21.5755C15.5188 21.5755 15.3052 21.6017 15.1985 21.6803C15.1792 21.6947 15.1569 21.705 15.1334 21.7107C15.1098 21.7162 15.0852 21.717 15.0613 21.7128C15.0587 21.682 15.0559 21.6526 15.0517 21.628C15.0503 21.6154 15.0503 21.6028 15.0517 21.5902C15.136 21.5352 15.2652 21.4708 15.2652 21.4708L15.0587 21.5131C15.0703 21.4618 15.0859 21.4114 15.1051 21.3623C15.2215 21.313 15.3805 21.2658 15.4254 21.248C15.4921 21.2219 15.6789 21.2087 15.8924 21.3791C15.9681 21.4382 16.0171 21.5242 16.0285 21.6185C15.9814 21.6719 15.9372 21.7277 15.8961 21.7857ZM17.427 21.4713C17.4351 21.447 17.4379 21.4214 17.435 21.3961C17.432 21.3707 17.4235 21.3463 17.4099 21.3246C17.5129 21.2967 17.5481 21.3208 17.5556 21.3559C17.5106 21.3921 17.4677 21.4305 17.427 21.4713ZM17.5337 21.1961C17.4755 21.228 17.4104 21.246 17.3438 21.2485L17.3235 21.2317C17.4836 21.0143 17.9106 20.7292 18.0141 20.6983C18.1476 20.659 17.9875 20.8555 17.9875 20.8555C17.9875 20.8555 17.6405 21.128 17.5337 21.1935V21.1961ZM18.1476 21.0389C18.1182 21.062 18.0707 21.0955 18.0269 21.1254C17.9629 21.1336 17.9004 21.1513 17.8417 21.1778C17.902 21.0829 18.0499 20.867 18.1743 20.8162C18.3344 20.748 18.2144 20.9839 18.1455 21.0363L18.1476 21.0389ZM22.2555 21.9429C22.1856 21.9775 22.0922 22.0346 21.9988 21.9141C22.0133 21.8933 22.0327 21.8762 22.0554 21.8643C22.1244 21.8278 22.1912 21.7876 22.2555 21.7438C22.2911 21.7193 22.3346 21.7085 22.3778 21.7133C22.3436 21.8172 22.3089 21.9167 22.2555 21.9429Z" fill="white"/>
<path d="M18.5491 17.4658C18.5589 17.4613 18.5676 17.4547 18.5746 17.4466C18.5795 17.4392 18.5692 17.4476 18.5491 17.4658Z" fill="white"/>
<path d="M21.5083 22.5225C21.4704 22.5183 21.4421 22.5167 21.4421 22.5167C21.4421 22.5167 21.4549 22.5387 21.5083 22.5225Z" fill="white"/>
<path d="M21.0309 19.8936C21.0348 19.8829 21.0343 19.8817 21.0309 19.8936V19.8936Z" fill="white"/>
<path d="M21.0305 19.8934L21.0266 19.9021C21.0276 19.9003 21.0285 19.8985 21.0293 19.8966C21.0298 19.8955 21.0303 19.8944 21.0305 19.8934Z" fill="white"/>
<path d="M22.5222 19.176C22.5003 19.176 22.4374 19.2257 22.3749 19.2881C22.4742 19.2274 22.5564 19.176 22.5222 19.176Z" fill="white"/>
<path d="M24.7 20.6695C24.7 20.6695 25.1269 20.3682 25.1937 20.3157C25.2604 20.2634 24.9401 20.6957 24.7 20.6695Z" fill="white"/>
<path d="M25.5118 20.4075C25.5118 20.4075 24.5243 21.2329 24.4042 21.3377L25.0047 21.3508C25.0047 21.3508 25.6452 20.8267 25.752 20.5517C25.752 20.5517 25.1114 21.1543 24.938 21.1674C24.7645 21.1805 24.7244 21.2199 24.9513 21.0233C25.1782 20.8267 25.5118 20.46 25.5118 20.4075Z" fill="white"/>
<path d="M26.3122 20.3812C26.3122 20.3812 25.4048 21.2617 25.1801 21.3508C25.1801 21.3508 25.6605 21.4817 25.7806 21.3508C25.9006 21.2197 26.4879 20.8267 26.6347 20.5254C26.6347 20.5254 25.7139 21.2722 25.6071 21.2852C25.5003 21.2983 25.5003 21.2066 25.6739 21.0887C25.8473 20.9708 26.3544 20.4598 26.3122 20.3812Z" fill="white"/>
<path d="M26.0206 21.3665C26.0206 21.3665 26.5811 20.9211 26.6745 20.8162C26.7679 20.7114 26.6211 20.9603 26.6211 20.9603C26.6211 20.9603 26.2587 21.3769 26.0206 21.3665Z" fill="white"/>
<path d="M26.8086 20.8267C26.8086 20.8267 26.8086 20.6695 27.0354 20.5385C27.0354 20.5385 26.8999 20.79 26.8086 20.8267Z" fill="white"/>
<path d="M26.4077 21.39C26.4077 21.39 27.0482 20.9839 27.3418 20.6171C27.3418 20.6171 26.768 21.4949 26.4077 21.39Z" fill="white"/>
<path d="M26.7809 21.4032C26.7809 21.4032 27.4615 20.9709 27.7283 20.6826C27.7283 20.6852 27.0745 21.5762 26.7809 21.4032Z" fill="white"/>
<path d="M27.1947 21.4294C27.1947 21.4294 27.6884 21.1543 28.0087 20.8136C28.0087 20.8136 27.5817 21.5342 27.1947 21.4294Z" fill="white"/>
<path d="M27.6353 21.4713C27.6353 21.4713 28.209 21.052 28.3692 20.8817C28.3692 20.8791 27.8888 21.5865 27.6353 21.4713Z" fill="white"/>
<path d="M28.0361 21.5341C28.0361 21.5341 28.3163 21.3377 28.3831 21.2591C28.4498 21.1805 28.4365 21.5997 28.0361 21.5341Z" fill="white"/>
<path d="M19.5081 22.4906L19.4948 22.4513L19.6928 22.3622C19.6928 22.3622 19.586 22.5063 19.7996 22.5194C20.013 22.5326 20.4401 22.2182 20.5602 22.1133C20.6803 22.0085 20.7336 22.205 20.6269 22.2443C20.5202 22.2836 20.3066 22.5588 20.1065 22.598C19.9063 22.6374 20.2266 22.6635 20.4668 22.4671C20.707 22.2705 20.9472 22.2182 20.7336 22.4408C20.6231 22.5642 20.4864 22.6626 20.3333 22.7291C20.3333 22.7291 20.5735 22.7291 20.6535 22.6112C20.7336 22.4932 20.9872 22.3885 20.8538 22.598C20.7203 22.8077 20.6002 22.792 20.6002 22.792C20.6002 22.792 20.7336 22.8312 20.8004 22.7657C20.8671 22.7002 20.9605 22.6348 20.9738 22.7002C20.9872 22.7657 20.8937 22.9492 20.7336 23.0278C20.5735 23.1064 20.3333 23.1195 20.1866 22.9885C20.0398 22.8575 19.6928 22.6479 19.6127 22.5954C19.57 22.5691 19.534 22.5332 19.5081 22.4906Z" fill="white"/>
<path d="M18.9215 23.3159C18.9215 23.3159 18.9995 22.8862 19.1484 22.729C19.2973 22.5718 19.5354 22.6373 19.522 22.7159C19.5086 22.7946 19.1083 23.0042 19.1083 23.0042C19.1083 23.0042 19.2017 23.0696 19.3218 22.9779C19.4419 22.8862 19.7622 22.6766 19.6821 22.8732C19.602 23.0696 19.2551 23.2007 19.2551 23.2007C19.2551 23.2007 19.562 23.1745 19.6688 23.0435C19.7756 22.9124 19.869 22.8732 19.8823 22.9649C19.8956 23.0565 19.4553 23.3186 19.4553 23.3186C19.4553 23.3186 19.7622 23.3055 19.7889 23.2268C19.8156 23.1482 20.0958 22.9387 20.0024 23.1614C19.909 23.3841 19.7622 23.3841 19.7622 23.3841C19.7622 23.3841 19.949 23.3579 20.0024 23.2924C20.0558 23.2268 20.1225 23.3055 20.0958 23.3841C20.0691 23.4627 19.869 23.6199 19.8289 23.6331C19.7889 23.6461 19.5754 23.7117 19.482 23.6461C19.3886 23.5806 18.9215 23.3159 18.9215 23.3159Z" fill="white"/>
<path d="M18.588 22.0189C18.588 22.0189 18.588 21.8617 18.6681 21.8748C18.7159 21.8826 18.7615 21.9004 18.8016 21.9272C18.8016 21.9272 19.1597 22.1761 19.1063 22.467C19.0618 22.6617 18.9754 22.8449 18.8528 23.0041C18.8528 23.0041 18.8261 23.24 18.786 23.2924C18.746 23.3448 18.4124 23.502 18.4124 23.502C18.4124 23.502 18.6393 23.4627 18.6926 23.4758C18.746 23.4889 18.9062 23.5413 18.7994 23.5806C18.6926 23.6199 18.1589 23.764 18.0388 23.4496C18.0388 23.4496 18.4391 23.3972 18.5192 23.2269C18.4077 23.2967 18.2778 23.3331 18.1455 23.3317C17.9187 23.3317 17.9187 23.2269 18.0121 23.2138C18.1055 23.2007 18.4658 23.1221 18.5592 23.0172C18.5592 23.0172 18.1989 23.1089 18.1322 23.0828C18.0654 23.0566 17.932 22.978 18.0922 22.9517C18.2523 22.9255 18.4925 22.8863 18.5592 22.7814C18.6259 22.6766 19.053 22.3884 18.8261 22.1657C18.5992 21.943 18.588 22.0189 18.588 22.0189Z" fill="white"/>
<path d="M18.4658 22.2155L18.5192 22.1238C18.5192 22.1238 18.5725 22.0714 18.6525 22.1631C18.7326 22.2548 18.7993 22.3203 18.7594 22.3728C18.7193 22.4251 18.5725 22.4251 18.5725 22.4251L18.6659 22.4906C18.6659 22.4906 18.5992 22.6478 18.5591 22.6478C18.5192 22.6478 18.2923 22.6086 18.3056 22.5431C18.3189 22.4775 18.4658 22.3072 18.5458 22.2942C18.6259 22.281 18.5591 22.2417 18.5591 22.2417L18.4658 22.2155Z" fill="white"/>
<path d="M18.199 22.7657C18.199 22.7657 18.2391 22.6478 18.2925 22.674C18.3458 22.7001 18.5481 22.8181 18.199 22.7657Z" fill="white"/>
<path d="M17.2535 22.019C17.2877 22.0293 17.3243 22.0284 17.358 22.0167C17.3916 22.0049 17.4205 21.9827 17.4403 21.9535C17.5128 21.8411 17.5753 21.7227 17.6271 21.5998C17.6271 21.5998 17.8251 21.3246 18.0387 21.4295C18.2522 21.5343 18.4523 21.7177 18.3456 21.888C18.2389 22.0583 18.1321 22.3989 17.7985 22.281C17.4649 22.1631 17.5583 22.2679 17.5583 22.2679L17.1179 22.3858C17.1179 22.3858 17.0512 22.4906 17.0912 22.5037C17.1313 22.5168 17.198 22.4645 17.3314 22.4382C17.4418 22.4195 17.5532 22.4063 17.665 22.3989L17.7184 22.412C17.7184 22.412 17.3581 22.5168 17.3047 22.5562C17.2513 22.5954 17.0645 22.6348 17.0645 22.6348C17.0645 22.6348 16.9978 22.7526 17.198 22.6872C17.2922 22.6518 17.3911 22.6297 17.4915 22.6217C17.4915 22.6217 17.7985 22.5692 17.8519 22.5168C17.9053 22.4645 17.7585 22.6086 17.5716 22.674C17.4589 22.7137 17.3513 22.7665 17.2513 22.8312C17.2513 22.8312 17.238 22.8706 17.3981 22.8444C17.5084 22.8213 17.6127 22.7768 17.7051 22.7134C17.7051 22.7134 17.6117 22.9754 17.3447 22.9492C17.193 22.9382 17.0505 22.8729 16.9444 22.7658C16.9252 22.7776 16.9094 22.7941 16.8985 22.8135C16.8875 22.833 16.8817 22.8549 16.8817 22.8772C16.8817 22.8993 16.8875 22.9213 16.8985 22.9408C16.9094 22.9602 16.9252 22.9767 16.9444 22.9884C17.0912 23.1064 17.238 23.1719 17.3181 23.1719C17.3981 23.1719 17.7184 23.0933 17.7985 22.9492C17.8785 22.8051 18.826 21.8749 18.4791 21.4949C18.4791 21.4949 18.0787 21.0626 17.665 21.377C17.4865 21.5626 17.3467 21.7807 17.2535 22.019Z" fill="white"/>
<path d="M17.3204 22.2285C17.3204 22.2285 17.2937 22.1499 17.3471 22.1499C17.4005 22.1499 17.5072 22.032 17.5072 22.032C17.5072 22.032 17.5873 22.2285 17.3204 22.2285Z" fill="white"/>
<path d="M18.0915 22.0582L18.0381 22.032L17.9715 22.0059C17.9715 22.0059 18.1449 21.8905 18.1983 21.8905H18.2517C18.2517 21.8905 18.2917 21.7464 18.2383 21.7071L18.1849 21.6678H18.1316L18.0782 21.7202L18.0381 21.7727H17.9314L17.8914 21.7202L18.0115 21.681L18.0915 21.6285C18.0915 21.6285 17.9715 21.5238 17.9181 21.5368C17.8647 21.5499 17.8247 21.5237 17.7846 21.5761C17.7446 21.6285 17.6779 21.7202 17.6779 21.7202C17.6779 21.7202 17.5845 21.9036 17.6245 21.9822C17.6645 22.0608 17.9047 22.1919 17.9715 22.205C18.0381 22.218 18.1449 22.0845 18.0915 22.0582Z" fill="white"/>
<path d="M16.3309 21.4949C16.3309 21.4949 16.3577 21.5735 16.5178 21.4949C16.6779 21.4163 16.8647 21.5343 16.9047 21.5867C16.9448 21.639 17.0916 21.8618 17.1049 22.0059C17.1183 22.15 17.4119 21.6653 17.1983 21.4949C16.9848 21.3246 16.8247 21.1805 16.5044 21.3377L16.3309 21.4949Z" fill="white"/>
<path d="M16.2391 21.8617C16.2391 21.8617 16.2125 21.7569 16.3459 21.639C16.4793 21.5211 16.5861 21.4818 16.6529 21.5342C16.7195 21.5865 17.0798 21.7962 17.0264 22.0058C16.9731 22.2154 16.466 22.1761 16.4526 22.1237C16.4393 22.0714 16.2391 21.8617 16.2391 21.8617Z" fill="white"/>
<path d="M16.0393 21.9796C16.0393 21.9796 16.2128 21.901 16.1727 22.0189C16.1445 22.0936 16.0932 22.1578 16.0259 22.2023C16.0259 22.2023 16.1594 22.2023 16.1994 22.1761C16.2394 22.15 16.3862 22.0582 16.3729 22.1761C16.3596 22.294 16.1706 22.4146 16.1706 22.4146C16.2327 22.4298 16.2981 22.4252 16.3574 22.4015C16.4642 22.3621 16.6776 22.1787 16.7177 22.2049C16.7577 22.2312 16.8512 22.1918 16.7577 22.2835L16.5709 22.467C16.5709 22.467 16.7177 22.467 16.7577 22.4015C16.7978 22.336 16.9979 22.2181 16.9979 22.2181C16.9979 22.2181 17.1447 22.1918 17.0646 22.2835C16.9846 22.3753 16.7177 22.7421 16.4108 22.7421C16.1038 22.7421 15.8636 22.4015 15.8636 22.3229C15.8636 22.2443 15.9859 21.9954 16.0393 21.9796Z" fill="white"/>
<path d="M16.5973 22.0582L16.6774 21.9796C16.6774 21.9796 16.7708 21.8617 16.7708 21.8224C16.7708 21.7831 16.8375 21.8748 16.8242 21.9272C16.8108 21.9796 16.5973 22.0582 16.5973 22.0582Z" fill="white"/>
<path d="M65.9956 8.93103C67.4587 7.9372 69.2871 7.62239 71.0364 7.63695C73.1418 7.63533 75.1993 8.21642 77.1167 9.03705C77.1142 10.2121 77.1191 11.3881 77.1142 12.5632C75.2875 11.7831 73.394 10.9673 71.367 10.9446C70.5699 10.9486 69.6977 11.0376 69.0564 11.5508C68.6326 11.8786 68.4949 12.5066 68.7703 12.9679C69.0802 13.4834 69.6491 13.765 70.1791 14.0159C71.6604 14.6601 73.2391 15.0801 74.6709 15.8345C75.59 16.3111 76.4564 16.9327 77.0648 17.7719C77.5025 18.3716 77.7728 19.0789 77.8891 19.8057C78.0325 20.8845 77.9196 22.02 77.4126 22.9992C76.824 24.1744 75.7153 25.029 74.4936 25.5097C73.2992 25.9856 71.9975 26.1564 70.7149 26.1377C69.4924 26.128 68.2633 25.984 67.0969 25.6173C66.1184 25.3171 65.2034 24.855 64.2958 24.3944C64.2966 23.0971 64.2958 21.7998 64.2966 20.5034C65.3476 21.1815 66.4259 21.8387 67.6014 22.2895C68.7126 22.72 69.9227 22.8989 71.113 22.8066C71.6819 22.7557 72.2721 22.6245 72.7279 22.2684C73.2703 21.85 73.4113 21.0092 73.0189 20.4483C72.681 19.9773 72.1476 19.6973 71.6283 19.4585C70.1049 18.7957 68.4677 18.3951 67.0038 17.5995C66.0237 17.0783 65.1127 16.3621 64.5604 15.3958C63.9677 14.3639 63.8094 13.1248 63.9924 11.9643C64.1895 10.7341 64.9537 9.6287 65.9956 8.93103Z" fill="white"/>
<path d="M42.8095 7.87077C44.3156 7.87239 45.8225 7.87726 47.3285 7.86835C47.3475 7.89263 47.3837 7.942 47.4027 7.96627C47.3574 8.18803 47.3599 8.41463 47.3681 8.63962C47.3945 8.79905 47.4011 8.96092 47.397 9.12197C47.3673 9.25384 47.3664 9.38826 47.3714 9.5226C47.3599 10.2235 47.3656 10.9243 47.3681 11.6244C47.3615 11.8939 47.4348 12.165 47.3607 12.4304C47.3738 12.5381 47.3887 12.6465 47.4044 12.7541C47.3903 12.8601 47.3763 12.967 47.3631 13.0739C47.3639 13.1386 47.3673 13.2689 47.3681 13.3345C47.4093 13.5432 47.4093 13.7585 47.359 13.9665C47.373 14.0854 47.3887 14.2044 47.4068 14.3234L47.317 14.3776L47.406 14.4311C47.3401 14.9458 47.3491 15.4758 47.4011 15.9914C47.397 16.1257 47.3837 16.2601 47.3673 16.3936C47.3656 16.5061 47.3656 16.6194 47.3664 16.7327C47.3821 16.8662 47.397 17.0005 47.4044 17.1357C47.3162 17.8034 47.3879 18.48 47.4555 19.1468C47.5115 19.363 47.5693 19.579 47.6402 19.7919C47.9707 20.6805 48.6516 21.4299 49.5147 21.8524C50.658 22.4197 52.0058 22.4974 53.2473 22.2441C54.3412 22.0191 55.3814 21.3919 55.9412 20.4215C56.3863 19.6746 56.5561 18.7957 56.5553 17.9385C56.5545 14.5832 56.5561 11.2286 56.5545 7.87321C58.0804 7.87239 59.607 7.87159 61.1329 7.87321C61.1312 10.9324 61.1329 13.9916 61.1321 17.0507C61.1477 18.3805 61.1361 19.736 60.7281 21.018C60.3473 22.2837 59.6004 23.4557 58.5412 24.2795C57.1604 25.3721 55.3963 25.8771 53.6562 26.0559C51.9884 26.2154 50.2845 26.1644 48.6532 25.7671C47.223 25.4166 45.8365 24.7546 44.8127 23.6936C44.309 23.1967 43.9166 22.6026 43.6034 21.9754C43.5176 21.7868 43.4352 21.5974 43.3602 21.4065C43.3296 21.3239 43.3008 21.2422 43.2736 21.1605C43.2447 21.0771 43.2184 20.9937 43.1937 20.9103C43.1549 20.7865 43.1227 20.6619 43.0832 20.5397C43.0255 20.2678 42.976 19.9951 42.9159 19.7239C42.8886 19.4828 42.887 19.2375 42.8326 19.0004C42.7814 17.1916 42.8219 15.3812 42.8095 13.5724C42.8095 11.6721 42.8087 9.77107 42.8095 7.87077Z" fill="white"/>
<path d="M86.1885 7.87248C87.9534 7.87409 89.7177 7.86924 91.4823 7.87491C91.5653 8.07238 91.6562 8.26742 91.7463 8.46327C91.8513 8.70769 91.9652 8.94886 92.0746 9.19328C92.1806 9.43604 92.2945 9.67645 92.403 9.91842C94.8059 15.2469 97.2167 20.5722 99.6187 25.9006C97.9768 25.8974 96.3348 25.9047 94.692 25.8974C94.2047 24.7102 93.6821 23.5358 93.2063 22.3445C90.4813 22.3178 87.7556 22.3469 85.0311 22.33C85.013 22.3607 84.9775 22.4223 84.9594 22.4538C84.9289 22.5339 84.8992 22.6141 84.8696 22.6941C84.8251 22.8115 84.7797 22.928 84.7368 23.0454C84.6816 23.1806 84.6288 23.3157 84.5819 23.4533C84.5399 23.552 84.4994 23.6515 84.4599 23.7511C84.4187 23.8653 84.375 23.9785 84.337 24.0934C84.2925 24.1955 84.253 24.2982 84.2109 24.4002C84.168 24.5175 84.1227 24.6349 84.0831 24.7531C84.0403 24.851 84.0023 24.9505 83.9628 25.0492C83.9125 25.1861 83.8606 25.3219 83.8095 25.4579C83.7501 25.606 83.6924 25.7549 83.6297 25.9014C82.0198 25.8982 80.4108 25.9023 78.8008 25.899C78.8462 25.7776 78.8973 25.6579 78.9459 25.5372C79.0011 25.4021 79.0563 25.2669 79.1124 25.1326C79.1677 24.9982 79.222 24.8639 79.2781 24.7296C79.3325 24.5944 79.3869 24.4593 79.4438 24.3249C79.6087 23.9211 79.7744 23.5181 79.9401 23.1142C80.072 22.7889 80.208 22.4652 80.3382 22.1389C80.3942 22.0046 80.4503 21.8703 80.5047 21.7343C80.5599 21.6 80.616 21.4656 80.6696 21.3304C80.7256 21.1953 80.7825 21.0602 80.8369 20.9242C80.8921 20.7907 80.9457 20.6563 81.0001 20.5228C81.0661 20.3633 81.1321 20.2031 81.1996 20.0437C81.2425 19.9295 81.2887 19.8171 81.3348 19.7038C81.39 19.571 81.4461 19.4383 81.5005 19.3055C81.5549 19.1704 81.6093 19.0361 81.6653 18.9018C81.7206 18.7666 81.775 18.6322 81.831 18.4979C81.8855 18.3627 81.9407 18.2284 81.9959 18.094C82.2399 17.5 82.4839 16.9068 82.7254 16.3128C82.7815 16.1776 82.8384 16.0425 82.8911 15.9065C82.9481 15.7714 83.0049 15.6362 83.0593 15.5002C83.1153 15.3651 83.1698 15.2283 83.225 15.0923C83.281 14.9571 83.3371 14.822 83.3916 14.686C83.4467 14.5525 83.502 14.4182 83.5564 14.283C83.6685 14.0152 83.7773 13.7464 83.887 13.477C83.9421 13.3434 83.9974 13.2091 84.0527 13.0747C84.1078 12.9395 84.1623 12.8052 84.2175 12.6701C84.2818 12.5155 84.3444 12.3601 84.4104 12.2056C84.6288 11.6641 84.8514 11.1243 85.074 10.5845C85.1251 10.4485 85.1812 10.315 85.2397 10.1815C85.3048 10.0123 85.3782 9.84476 85.4442 9.67558C85.5002 9.54047 85.5571 9.40614 85.6106 9.26938C85.7763 8.8655 85.9453 8.46166 86.1069 8.05538C86.1275 8.01007 86.1679 7.91861 86.1885 7.87248ZM88.9179 12.1966C88.864 12.305 88.8128 12.4143 88.7661 12.5244C88.7157 12.6595 88.6645 12.7947 88.6178 12.9307C88.584 13.0108 88.5519 13.0917 88.5214 13.1727C88.4686 13.307 88.4175 13.4421 88.3688 13.5773C88.2815 13.7926 88.1991 14.0094 88.1208 14.2271C88.087 14.3049 88.0556 14.3834 88.026 14.4627C87.9732 14.5995 87.9213 14.737 87.8726 14.8754C87.8306 14.9758 87.7902 15.0761 87.7514 15.1773C87.6748 15.3918 87.5907 15.6038 87.5074 15.8166C87.3838 16.1509 87.2503 16.4811 87.1283 16.8161C87.0871 16.9133 87.0474 17.0112 87.0096 17.1092C86.9666 17.2273 86.923 17.3446 86.8817 17.4628C86.8406 17.5599 86.801 17.657 86.7631 17.7549C86.7194 17.8731 86.674 17.9912 86.632 18.1095C86.5446 18.3239 86.4638 18.5399 86.3831 18.7569C86.3261 18.8977 86.2709 19.0385 86.219 19.1809C88.0976 19.1858 89.9763 19.1809 91.8548 19.1833C91.786 19.0361 91.7207 18.8888 91.6597 18.7391C91.3305 17.9565 90.9977 17.1747 90.6702 16.3921C90.6022 16.2326 90.5342 16.074 90.468 15.9162C90.3992 15.7503 90.3277 15.5868 90.2606 15.4217C90.1926 15.2623 90.1255 15.1028 90.0575 14.9442C89.9896 14.7783 89.9172 14.6148 89.8519 14.4489C89.5402 13.6979 89.2004 12.9582 88.9179 12.1966Z" fill="white"/>
<path d="M101.63 7.87238C103.152 7.87319 104.675 7.87238 106.198 7.87319C106.198 13.8823 106.198 19.8906 106.198 25.8997C104.674 25.9005 103.152 25.8997 101.63 25.9005C101.63 19.8914 101.63 13.8815 101.63 7.87238Z" fill="white"/>
<path d="M110.108 7.87404C112.554 7.8708 115 7.87323 117.446 7.87242C118.9 7.84814 120.37 7.93231 121.776 8.32644C123.328 8.75133 124.799 9.53069 125.916 10.6832C126.751 11.516 127.366 12.5437 127.776 13.6379C127.826 13.7982 127.878 13.9576 127.938 14.1162C127.949 14.1656 127.971 14.2636 127.983 14.3121C128.015 14.4181 128.038 14.5257 128.068 14.635C128.107 14.7912 128.133 14.9506 128.176 15.1076C128.2 15.293 128.215 15.4816 128.263 15.6637C128.374 17.0532 128.337 18.4704 127.935 19.8154C127.878 19.974 127.826 20.135 127.777 20.2961C127.733 20.3957 127.697 20.4984 127.656 20.5996C127.139 21.8832 126.267 23.0308 125.138 23.8579C123.795 24.8549 122.163 25.4182 120.514 25.6845C118.659 25.9985 116.77 25.8755 114.898 25.9005C113.301 25.8998 111.704 25.9022 110.108 25.899C110.108 19.8906 110.108 13.8823 110.108 7.87404ZM114.692 22.5938C115.803 22.5849 116.915 22.6035 118.027 22.584C119.173 22.5436 120.344 22.2846 121.312 21.6573C122.357 20.9937 123.069 19.9117 123.389 18.7431C123.415 18.6338 123.435 18.5237 123.467 18.4153C123.653 17.5469 123.656 16.6413 123.542 15.764C123.5 15.4047 123.405 15.0542 123.303 14.7078C123.271 14.6261 123.243 14.5451 123.215 14.4643C123.113 14.219 123.004 13.9778 122.877 13.7448C122.583 13.2495 122.216 12.7898 121.759 12.4312C120.7 11.5661 119.296 11.2294 117.945 11.189C116.86 11.1703 115.776 11.1882 114.692 11.1793C114.69 14.9838 114.69 18.7892 114.692 22.5938Z" fill="white"/>
<path d="M44.569 30.079C44.7084 30.0766 44.8542 30.045 44.9927 30.0871C45.0604 30.2101 45.1123 30.342 45.1708 30.4707C45.2755 30.7159 45.3893 30.9571 45.4997 31.2007C45.7165 31.6871 45.9383 32.1727 46.1575 32.6591C46.357 33.0856 46.5309 33.5235 46.7502 33.941C46.5467 33.9427 46.3447 33.9451 46.1427 33.933C46.0627 33.729 45.9688 33.5315 45.8748 33.3349C45.7973 33.1616 45.7182 32.9885 45.6481 32.8137C45.0933 32.8056 44.5386 32.812 43.9837 32.8096C43.964 32.8509 43.9227 32.9334 43.903 32.9747C43.7728 33.2944 43.6194 33.6043 43.504 33.9297C43.3012 33.9459 43.0984 33.9427 42.8973 33.9427C42.9608 33.8108 43.0201 33.6772 43.077 33.5429C43.218 33.2224 43.3573 32.9002 43.4958 32.5782C43.5856 32.3693 43.6771 32.1605 43.7694 31.9525C43.8486 31.7608 43.9326 31.5714 44.0159 31.382C44.0967 31.1918 44.1791 31.0032 44.2616 30.8138C44.3324 30.6455 44.4083 30.4796 44.4817 30.3129C44.5114 30.2352 44.5402 30.1575 44.569 30.079ZM44.7339 31.0016C44.5715 31.4419 44.3828 31.8732 44.194 32.3038C44.5897 32.3046 44.9853 32.3006 45.381 32.307C45.3728 32.2723 45.3571 32.2018 45.3497 32.167C45.2434 31.9623 45.1518 31.751 45.0571 31.5414C44.9787 31.365 44.8971 31.1894 44.8295 31.0097C44.8056 31.0073 44.7578 31.0041 44.7339 31.0016Z" fill="white"/>
<path d="M47.1629 30.0831C47.3426 30.0855 47.5239 30.0871 47.7052 30.1009C48.1125 30.6318 48.5544 31.1368 48.969 31.6628C49.4108 31.1481 49.8378 30.6205 50.2657 30.0944C50.4421 30.0879 50.6193 30.0855 50.7974 30.0814C50.8006 31.3707 50.8015 32.6591 50.7974 33.9483C50.6061 33.9435 50.4157 33.9419 50.2261 33.9386C50.2253 32.9448 50.236 31.951 50.2211 30.9571C49.7925 31.4533 49.4215 31.9979 48.9649 32.4689C48.5395 31.9809 48.1554 31.4589 47.7333 30.9677C47.73 31.9583 47.7324 32.948 47.7324 33.9386C47.5412 33.9419 47.3516 33.9435 47.162 33.9459C47.1604 32.6583 47.1587 31.3707 47.1629 30.0831Z" fill="white"/>
<path d="M51.6344 30.0911C52.3755 30.0823 53.1165 30.0928 53.8576 30.0855C53.8576 30.2538 53.8576 30.4213 53.8576 30.5905C53.3062 30.5881 52.7547 30.5881 52.2032 30.5905C52.204 30.9757 52.204 31.361 52.2032 31.7462C52.7316 31.7478 53.2608 31.7486 53.79 31.7453C53.7983 31.9104 53.8139 32.0748 53.8312 32.2399C53.2889 32.269 52.7456 32.2464 52.204 32.2537C52.2032 32.6494 52.2032 33.0452 52.2032 33.4409C52.7736 33.4417 53.3432 33.4441 53.9137 33.4393C53.9129 33.6084 53.9129 33.7776 53.9129 33.9475C53.1528 33.9345 52.3937 33.95 51.6344 33.9394C51.6361 32.6567 51.6361 31.3739 51.6344 30.0911Z" fill="white"/>
<path d="M54.4852 30.0871C55.0779 30.1235 55.6928 30.0038 56.269 30.1769C57.0209 30.4206 57.1874 31.5269 56.5848 32.0052C56.1536 32.3402 55.575 32.2739 55.0614 32.2771C55.0597 32.4341 55.0589 32.5911 55.0597 32.7489C55.0606 33.1439 55.0589 33.5396 55.0614 33.9354C54.8693 33.9427 54.6772 33.9435 54.486 33.9451C54.4836 32.6592 54.4844 31.3731 54.4852 30.0871ZM55.0606 30.5889C55.0589 30.9847 55.0606 31.3813 55.0597 31.777C55.3886 31.7608 55.739 31.8304 56.0514 31.6992C56.4917 31.5083 56.4537 30.7459 55.9739 30.6253C55.6755 30.5573 55.3639 30.6002 55.0606 30.5889Z" fill="white"/>
<path d="M57.4258 30.0936C57.6137 30.0879 57.8033 30.0863 57.9929 30.0855C57.9938 31.0591 57.9962 32.0327 57.9913 33.0063C58.8065 32.0635 59.6036 31.1052 60.4107 30.1551C60.4865 30.0547 60.6366 30.1009 60.7462 30.0701C60.7487 31.3618 60.747 32.6534 60.747 33.9451C60.5574 33.9427 60.3686 33.9419 60.1807 33.9419C60.179 33.003 60.1848 32.0642 60.1773 31.1255C59.3547 32.0853 58.5262 33.0411 57.6994 33.9977C57.631 33.9953 57.495 33.9912 57.4266 33.9888C57.4258 32.6899 57.4266 31.3917 57.4258 30.0936Z" fill="white"/>
<path d="M61.6102 30.0896C61.7982 30.0879 61.9878 30.0872 62.1774 30.0879C62.1782 30.6132 62.1733 31.1393 62.1807 31.6653C62.3909 31.6346 62.6382 31.6199 62.78 31.4387C63.0743 31.0826 63.1196 30.5655 63.5029 30.2733C63.7123 30.1001 63.9975 30.0969 64.2572 30.0782C64.2589 30.2442 64.2597 30.4108 64.2613 30.5776C64.0214 30.597 63.7362 30.6423 63.6332 30.8884C63.4741 31.2574 63.3298 31.6556 62.9786 31.8951C63.2161 32.0052 63.423 32.1736 63.5623 32.3945C63.8697 32.8704 64.1327 33.3729 64.4352 33.852L64.3866 33.8966C64.4641 33.8998 64.5432 33.9039 64.6232 33.9079C65.1343 32.6138 65.7245 31.3505 66.2669 30.0685C66.4004 30.0677 66.534 30.0677 66.67 30.0685C67.2519 31.3594 67.8381 32.6495 68.4209 33.9403C68.2255 33.9427 68.0318 33.9427 67.8381 33.9435C67.6682 33.5647 67.4911 33.1892 67.322 32.8105C66.7681 32.8088 66.2142 32.8105 65.6601 32.8097C65.4953 33.1868 65.3321 33.5647 65.1681 33.9427C64.7221 33.9419 64.277 33.9468 63.831 33.9403C63.5218 33.4312 63.2605 32.8914 62.8987 32.4163C62.7355 32.1857 62.4494 32.1112 62.1799 32.095C62.174 32.7109 62.179 33.3276 62.1774 33.9443C61.9878 33.9427 61.799 33.9419 61.611 33.9419C61.6102 32.6575 61.611 31.3731 61.6102 30.0896ZM66.4582 30.9304C66.2685 31.3893 66.074 31.845 65.8836 32.3038C66.2842 32.303 66.6849 32.3038 67.0862 32.303C66.8745 31.8466 66.6774 31.3828 66.4582 30.9304Z" fill="white"/>
<path d="M70.1364 30.0879C70.3689 30.0863 70.6022 30.0864 70.8363 30.092C71.2378 30.5824 71.6466 31.0656 72.0522 31.5528C72.4577 31.0632 72.8649 30.5752 73.2689 30.0847C73.4973 30.0879 73.7256 30.0871 73.9556 30.0936C73.428 30.7054 72.9202 31.3335 72.3926 31.9445C72.9556 32.6057 73.4997 33.2831 74.0727 33.9362C74.6249 32.6437 75.1962 31.3593 75.7443 30.0653C75.8804 30.0717 76.023 30.0532 76.1574 30.0952C76.4377 30.6787 76.6923 31.276 76.9627 31.8643C77.1837 32.3499 77.4029 32.8364 77.623 33.322C77.7154 33.5267 77.8069 33.7323 77.8967 33.9395C77.7047 33.941 77.5117 33.954 77.3222 33.9321C77.107 33.5744 77.0204 33.1325 76.7575 32.8137C76.2192 32.8023 75.6809 32.8153 75.1426 32.808C74.9745 33.1836 74.8145 33.5631 74.6488 33.9403C74.2234 33.9435 73.7989 33.9435 73.3752 33.9403C72.9375 33.4077 72.4899 32.8833 72.053 32.3499C71.6078 32.8817 71.1561 33.4086 70.7109 33.9395C70.4777 33.9435 70.2444 33.9427 70.012 33.9451C70.5725 33.2767 71.1405 32.613 71.701 31.9445C71.1768 31.3278 70.655 30.7087 70.1364 30.0879ZM75.9208 30.949C75.7517 31.4071 75.5499 31.8538 75.3618 32.3046C75.7625 32.3022 76.1631 32.307 76.5646 32.3006C76.347 31.8514 76.1862 31.374 75.9208 30.949Z" fill="white"/>
<path d="M79.4577 30.326C79.5014 30.2402 79.5178 30.1286 79.6077 30.0743C79.7272 30.067 79.8476 30.063 79.9696 30.0638C80.01 30.1528 80.0504 30.2411 80.0916 30.3309C80.2004 30.5737 80.3142 30.814 80.4205 31.0584C80.5293 31.2996 80.6431 31.5392 80.7486 31.7836C80.8574 32.0255 80.972 32.266 81.0767 32.5104C81.1871 32.754 81.3026 32.9951 81.4081 33.2411C81.493 33.4297 81.5812 33.6183 81.6652 33.8093C81.6842 33.8409 81.7213 33.9048 81.7402 33.9371C81.5441 33.9428 81.3487 33.9436 81.155 33.9485C81.1154 33.8675 81.0759 33.7875 81.0404 33.7073C80.9695 33.5536 80.9019 33.3989 80.8344 33.2452C80.7535 33.0542 80.6678 32.8665 80.5838 32.6787C80.3949 32.2441 80.2037 31.8111 80.0092 31.3789C79.9301 31.1952 79.8492 31.0115 79.7808 30.8237C79.5945 31.2138 79.4429 31.6185 79.2722 32.015C79.2162 32.1486 79.1617 32.2829 79.1065 32.4165C78.9301 32.8527 78.7389 33.2824 78.5707 33.7211C78.5386 33.7899 78.5056 33.8586 78.4726 33.9274C78.2805 33.9549 78.0868 33.9412 77.8948 33.9461C77.9928 33.7049 78.0975 33.467 78.2006 33.2282C78.2813 33.0388 78.3663 32.8503 78.447 32.66C78.5287 32.4707 78.6135 32.2821 78.6935 32.0919C78.9491 31.5035 79.2079 30.9168 79.4577 30.326Z" fill="white"/>
<path d="M82.1414 30.0896C82.3302 30.0879 82.5207 30.0864 82.7119 30.0855C82.7135 30.6132 82.7078 31.1408 82.7152 31.6686C82.9073 31.6329 83.1257 31.6232 83.2766 31.4832C83.3994 31.3585 83.4728 31.1975 83.5502 31.0438C83.678 30.7508 83.8025 30.4271 84.0836 30.2409C84.2848 30.0985 84.5428 30.0993 84.7802 30.075C84.7826 30.2425 84.7826 30.4108 84.7834 30.5792C84.6211 30.6076 84.4355 30.6027 84.307 30.7184C84.1347 30.869 84.0762 31.0964 83.9979 31.3003C83.8833 31.5326 83.7233 31.7398 83.5139 31.8967C83.931 32.0724 84.1685 32.4713 84.3729 32.8477C84.4133 32.9157 84.4562 32.9853 84.4991 33.0549C84.5708 33.1828 84.6433 33.3098 84.7158 33.4393C84.8659 33.441 85.016 33.4418 85.1684 33.4434C85.1676 33.844 85.1676 34.2445 85.1676 34.6452C84.9772 34.6452 84.7876 34.646 84.5988 34.6484C84.5972 34.4169 84.5972 34.1871 84.598 33.9572C84.2823 34.0099 84.2287 33.6505 84.0885 33.4563C84.0663 33.4183 84.0209 33.343 83.9987 33.305C83.786 32.9586 83.6129 32.5782 83.3128 32.295C83.1538 32.1404 82.9221 32.1234 82.7152 32.0885C82.7078 32.7077 82.7143 33.3268 82.7111 33.9459C82.5207 33.9435 82.3302 33.9427 82.1423 33.9427C82.1406 32.6583 82.1414 31.374 82.1414 30.0896Z" fill="white"/>
<path d="M85.6748 30.0855C85.8636 30.0872 86.0532 30.0872 86.2436 30.0872C86.2436 30.6269 86.2428 31.1668 86.2436 31.7074C86.7316 31.7162 87.2641 31.6442 87.7018 31.9089C87.9441 32.0376 88.0826 32.2787 88.1923 32.5182C88.2228 32.7247 88.2219 32.9351 88.194 33.1422C88.0406 33.5429 87.6812 33.8496 87.2452 33.9111C86.725 33.9775 86.1974 33.9248 85.6748 33.9459C85.6731 32.6591 85.6723 31.3723 85.6748 30.0855ZM86.2452 32.2051C86.2427 32.6178 86.2427 33.0305 86.2444 33.4441C86.5667 33.4304 86.8948 33.47 87.2146 33.4101C87.4257 33.3729 87.5419 33.1868 87.6334 33.0152C87.6326 32.9156 87.6342 32.8169 87.6376 32.719C87.5517 32.5215 87.4397 32.3054 87.2089 32.2479C86.894 32.1703 86.5642 32.2221 86.2452 32.2051Z" fill="white"/>
<path d="M88.8958 30.0928C89.0838 30.0887 89.2727 30.0863 89.4616 30.0814C89.4695 31.3699 89.4651 32.6591 89.4642 33.9475C89.2727 33.9443 89.0838 33.9419 88.8958 33.9378C88.8984 32.6559 88.8975 31.374 88.8958 30.0928Z" fill="white"/>
<path d="M90.3524 30.0839C90.5448 30.0856 90.739 30.088 90.9324 30.1009C90.9235 30.2272 90.9129 30.3542 90.9023 30.4813C90.9368 30.7807 90.9173 31.0826 90.9244 31.3844C90.9068 31.5066 90.8926 31.6305 90.8803 31.7543C91.6147 31.7867 92.3501 31.7543 93.0854 31.7721C93.0872 31.2113 93.0863 30.6505 93.0863 30.0904C93.2734 30.088 93.4623 30.0863 93.6521 30.0823C93.6548 31.3707 93.6548 32.6591 93.653 33.9484C93.4623 33.9435 93.2734 33.9419 93.0863 33.9411C93.0863 33.3826 93.0872 32.8235 93.0854 32.265C92.3518 32.2812 91.6174 32.2489 90.8838 32.282C90.9209 32.5167 90.9262 32.7546 90.9226 32.9918C90.92 33.3058 90.9226 33.6197 90.9235 33.9338C90.7329 33.9427 90.5422 33.9443 90.3524 33.9467C90.3488 32.6591 90.3488 31.3715 90.3524 30.0839Z" fill="white"/>
<path d="M94.5101 30.0961C94.6982 30.0888 94.888 30.0864 95.0786 30.0839C95.0795 30.6245 95.0786 31.1651 95.0786 31.7066C95.6039 31.7154 96.1953 31.6353 96.6402 31.9728C97.2246 32.3904 97.1858 33.3858 96.5502 33.7403C95.9314 34.0826 95.1863 33.8981 94.511 33.937C94.5119 32.6567 94.5137 31.3764 94.5101 30.0961ZM95.0786 32.2116C95.0786 32.6202 95.0786 33.0298 95.0786 33.4393C95.4211 33.4272 95.7751 33.483 96.1115 33.394C96.6093 33.2289 96.5775 32.4163 96.0876 32.2601C95.7619 32.1622 95.4132 32.2229 95.0786 32.2116Z" fill="white"/>
<path d="M97.7595 30.0872C97.9423 30.0872 98.125 30.0872 98.3086 30.0872C98.3095 31.3723 98.3095 32.6584 98.3086 33.9436C98.125 33.9427 97.9423 33.9427 97.7595 33.9436C97.7595 32.6584 97.7587 31.3732 97.7595 30.0872Z" fill="white"/>
<path d="M99.1799 30.0903C99.368 30.0888 99.556 30.0871 99.7467 30.0839C99.7476 30.6447 99.7467 31.2064 99.7476 31.7672C100.475 31.768 101.203 31.7665 101.931 31.7689C101.931 31.2089 101.931 30.6496 101.931 30.0903C102.119 30.0879 102.308 30.0871 102.498 30.0863C102.499 31.2048 102.498 32.3224 102.498 33.4409C102.67 33.4409 102.843 33.4409 103.017 33.4417C103.018 33.8431 103.017 34.2445 103.018 34.646C102.828 34.646 102.639 34.6451 102.451 34.646C102.451 34.4113 102.451 34.1774 102.451 33.9443C102.278 33.9427 102.104 33.9419 101.931 33.9395C101.932 33.3818 101.931 32.825 101.931 32.2674C101.203 32.2691 100.475 32.2674 99.7476 32.2691C99.7476 32.8274 99.7476 33.3867 99.7467 33.9459C99.556 33.9427 99.368 33.9419 99.1799 33.941C99.1808 32.6575 99.1808 31.374 99.1799 30.0903Z" fill="white"/>
<path d="M104.632 33.9419C105.194 32.651 105.752 31.3586 106.313 30.0677C106.445 30.0677 106.58 30.0677 106.716 30.0685C107.3 31.3594 107.884 32.651 108.468 33.9419C108.274 33.9427 108.081 33.9427 107.888 33.9443C107.712 33.5672 107.541 33.1876 107.365 32.8105C106.812 32.8088 106.259 32.8105 105.707 32.8097C105.542 33.1868 105.377 33.564 105.214 33.9427C105.019 33.9427 104.825 33.9427 104.632 33.9419ZM105.93 32.3038C106.33 32.3038 106.73 32.3038 107.132 32.3038C106.925 31.8434 106.716 31.3845 106.509 30.9248C106.313 31.3837 106.122 31.8442 105.93 32.3038Z" fill="white"/>
<path d="M108.446 30.0864C109.536 30.092 110.628 30.0839 111.719 30.0904C111.717 30.2563 111.717 30.4222 111.719 30.5881C111.263 30.5905 110.81 30.5873 110.357 30.5905C110.352 31.7082 110.356 32.8258 110.354 33.9435C110.168 33.9427 109.983 33.9427 109.8 33.9435C109.8 32.8267 109.799 31.7098 109.8 30.5929C109.348 30.5849 108.896 30.5897 108.446 30.5897C108.445 30.4214 108.445 30.2539 108.446 30.0864Z" fill="white"/>
<path d="M112.241 30.0839C112.428 30.0871 112.617 30.0879 112.808 30.0896C112.806 30.6285 112.807 31.1684 112.807 31.7074C113.33 31.713 113.916 31.6402 114.361 31.9736C114.94 32.3783 114.917 33.3502 114.306 33.7169C113.686 34.0924 112.925 33.8884 112.241 33.9467C112.24 32.6591 112.239 31.3715 112.241 30.0839ZM112.807 32.2067C112.807 32.6187 112.806 33.0314 112.808 33.4442C113.147 33.4263 113.497 33.4813 113.831 33.3923C114.306 33.2418 114.309 32.507 113.882 32.2973C113.549 32.1387 113.162 32.2326 112.807 32.2067Z" fill="white"/>
<path d="M115.457 30.0911C115.646 30.0879 115.838 30.0863 116.03 30.0855C116.032 31.3723 116.031 32.6583 116.03 33.9443C115.838 33.9435 115.647 33.9427 115.458 33.9411C115.457 32.6575 115.458 31.3748 115.457 30.0911Z" fill="white"/>
<path d="M116.91 30.0839C117.098 30.0864 117.287 30.0888 117.478 30.0936C117.476 30.6528 117.476 31.2113 117.478 31.7705C118.202 31.7665 118.925 31.7656 119.65 31.7705C119.655 31.208 119.648 30.6464 119.654 30.0839C119.842 30.0871 120.031 30.0871 120.221 30.0879C120.221 31.3731 120.221 32.6583 120.221 33.9435C120.03 33.9427 119.841 33.9427 119.652 33.9459C119.65 33.3858 119.653 32.8258 119.65 32.2658C118.925 32.2698 118.201 32.2691 117.477 32.2666C117.476 32.8234 117.475 33.3802 117.478 33.937C117.288 33.9419 117.098 33.9434 116.91 33.9467C116.907 32.6591 116.908 31.3715 116.91 30.0839Z" fill="white"/>
<path d="M122.307 30.0871C122.448 30.075 122.589 30.0677 122.734 30.0637C123.011 30.6836 123.29 31.3035 123.574 31.9219C123.679 32.1671 123.789 32.4099 123.904 32.6519C124.01 32.9003 124.123 33.1472 124.24 33.3924C124.317 33.5753 124.399 33.7582 124.479 33.9411C124.279 33.9436 124.082 33.9451 123.885 33.9314C123.815 33.7492 123.731 33.5737 123.654 33.3964C123.563 33.2022 123.473 33.0088 123.39 32.8129C122.834 32.8064 122.281 32.8113 121.726 32.8097C121.708 32.8526 121.67 32.9367 121.651 32.9789C121.59 33.114 121.531 33.25 121.472 33.3851C121.396 33.5672 121.314 33.7468 121.245 33.9322C121.042 33.9443 120.841 33.9427 120.64 33.9419C120.8 33.6303 120.925 33.3033 121.066 32.9837C121.229 32.6058 121.396 32.2294 121.558 31.8499C121.722 31.4727 121.888 31.0964 122.049 30.7168C122.107 30.5817 122.166 30.4473 122.231 30.3146C122.256 30.2385 122.282 30.1632 122.307 30.0871ZM122.477 31.0057C122.319 31.446 122.132 31.8766 121.937 32.3038C122.337 32.303 122.739 32.3062 123.142 32.3006C122.964 31.8636 122.746 31.4443 122.575 31.0057C122.55 31.0057 122.502 31.0057 122.477 31.0057Z" fill="white"/>
<path d="M124.911 30.0847C125.1 30.0871 125.288 30.0879 125.481 30.0896C125.48 30.6496 125.479 31.2104 125.482 31.7713C126.203 31.7648 126.924 31.7665 127.646 31.7705C127.648 31.2113 127.648 30.6528 127.647 30.0936C127.835 30.0879 128.025 30.0864 128.216 30.0839C128.217 31.3715 128.217 32.6591 128.215 33.9475C128.025 33.9443 127.835 33.9419 127.646 33.937C127.648 33.3794 127.648 32.8226 127.646 32.2658C126.924 32.2698 126.202 32.2698 125.481 32.2658C125.479 32.8242 125.48 33.3826 125.481 33.9419C125.288 33.9419 125.1 33.9434 124.911 33.9467C124.91 32.6591 124.911 31.3715 124.911 30.0847Z" fill="white"/>
</g>
<defs>
<clipPath id="clip0_2_1789">
<rect width="128" height="39" fill="white" transform="translate(0.317139 0.5)"/>
</clipPath>
</defs>
</svg>
