<svg width="129" height="40" viewBox="0 0 129 40" fill="none" xmlns="http://www.w3.org/2000/svg">
<g clip-path="url(#clip0_17_17112)">
<path fill-rule="evenodd" clip-rule="evenodd" d="M33.2029 6.71231C40.7017 14.0745 40.7017 26.011 33.2029 33.3731C25.704 40.7353 13.5459 40.7353 6.04701 33.3731C-1.45187 26.011 -1.45187 14.0745 6.04701 6.71231C13.5459 -0.64987 25.704 -0.64987 33.2029 6.71231ZM32.9795 6.96246C40.3566 14.2052 40.3566 25.9478 32.9795 33.1904C25.6024 40.4331 13.6416 40.4331 6.26452 33.1904C-1.11262 25.9478 -1.11263 14.2052 6.26452 6.96246C13.6416 -0.280201 25.6024 -0.280202 32.9795 6.96246Z" fill="#301C3D"/>
<path fill-rule="evenodd" clip-rule="evenodd" d="M30.5267 9.40752C36.5095 15.2813 36.5095 24.8045 30.5267 30.6782C24.544 36.552 14.8439 36.552 8.86112 30.6782C2.87832 24.8045 2.87832 15.2813 8.86112 9.40752C14.8439 3.53376 24.5439 3.53376 30.5267 9.40752ZM30.2819 9.64759C36.1295 15.3887 36.1295 24.6969 30.2819 30.4381C24.4341 36.1792 14.9531 36.1792 9.10534 30.4381C3.25761 24.6969 3.25761 15.3887 9.10534 9.64759C14.9531 3.90649 24.4341 3.90649 30.2819 9.64759Z" fill="#301C3D"/>
<path d="M1.57129 20.7675L3.64181 20.5898L3.68878 21.1139L1.61826 21.2916L1.57129 20.7675Z" fill="#301C3D"/>
<path d="M3.05736 22.2479L1.77256 22.4801L1.67969 21.9838L3.72405 21.6169L3.80625 22.0576L2.7894 23.3521L4.00802 23.132L4.1009 23.6282L2.05707 23.9951L1.9834 23.6015L3.05736 22.2479Z" fill="#301C3D"/>
<path d="M2.38184 25.1443L4.00025 24.668L3.80275 24.0218L4.1764 23.9124L4.72831 25.7198L4.35787 25.8287L4.16038 25.1816L2.54037 25.6584L2.38184 25.1443Z" fill="#301C3D"/>
<path d="M2.91895 26.7735L4.84054 25.9968L5.36899 27.2572L5.01349 27.4002L4.68362 26.6142L4.29182 26.7714L4.60782 27.5255L4.25019 27.6701L3.93366 26.9155L3.47728 27.1005L3.81729 27.9122L3.45647 28.0579L2.91895 26.7735Z" fill="#301C3D"/>
<path d="M3.7334 28.6344L5.55785 27.655L5.92561 28.3153C6.0612 28.5584 6.11831 28.7618 6.09696 28.9237C6.07561 29.0856 5.97419 29.2162 5.79324 29.313C5.70226 29.3654 5.59642 29.3873 5.49166 29.3755C5.37666 29.3566 5.26856 29.309 5.17779 29.2371C5.18608 29.2923 5.18078 29.3488 5.16232 29.4016C5.14027 29.4633 5.10837 29.5211 5.06784 29.573L4.60452 30.1951L4.32056 29.6873L4.71821 29.1779C4.77218 29.1161 4.8075 29.0408 4.82017 28.9604C4.8213 28.8811 4.79906 28.8033 4.75612 28.7361C4.75238 28.7293 4.74651 28.7204 4.73957 28.7099C4.73263 28.6994 4.72729 28.691 4.72409 28.6852L3.98427 29.083L3.7334 28.6344ZM5.1746 28.7204C5.20564 28.7895 5.26096 28.8452 5.33046 28.8776C5.36305 28.8877 5.39753 28.8906 5.4314 28.8861C5.46528 28.8815 5.49771 28.8697 5.52635 28.8514C5.558 28.8381 5.58607 28.8177 5.60839 28.7921C5.6307 28.7664 5.64665 28.7358 5.655 28.7031C5.66487 28.6299 5.64823 28.5558 5.60802 28.4934L5.48846 28.2791L5.06144 28.5087L5.1746 28.7204Z" fill="#301C3D"/>
<path d="M6.23434 30.2553L5.1924 31.0282L4.88281 30.6258L6.54073 29.3953L6.81615 29.7527L6.49963 31.3594L7.48818 30.6258L7.79831 31.0282L6.13986 32.2586L5.89432 31.9395L6.23434 30.2553Z" fill="#301C3D"/>
<path d="M6.48535 32.6553L8.56708 31.7781L9.00425 32.1816L8.16996 34.2128L7.76856 33.8418L7.9367 33.4534L7.28442 32.8508L6.88675 33.0274L6.48535 32.6553ZM7.63991 32.6962L8.08668 33.1092L8.41656 32.3477L7.63991 32.6962Z" fill="#301C3D"/>
<path d="M8.86035 34.6804L9.82863 33.3179L9.26552 32.9312L9.487 32.6199L11.0622 33.7004L10.8406 34.0117L10.2775 33.6292L9.30869 34.9917L8.86035 34.6804Z" fill="#301C3D"/>
<path d="M10.3545 35.6206L11.3479 33.8284L11.8197 34.0804L10.8263 35.8727L10.3545 35.6206Z" fill="#301C3D"/>
<path d="M11.7649 35.2384C11.8173 35.1037 11.8968 34.9808 11.9986 34.8768C12.0988 34.777 12.2189 34.6985 12.3513 34.6461C12.4837 34.5937 12.6256 34.5687 12.7683 34.5724C13.074 34.5884 13.366 34.702 13.5999 34.8957C13.7069 34.9887 13.7933 35.1025 13.8533 35.2298C13.9134 35.3571 13.946 35.4953 13.9491 35.6356C13.95 35.9261 13.8372 36.2058 13.6341 36.417C13.5336 36.5172 13.413 36.5955 13.2797 36.647C13.1464 36.6987 13.004 36.7238 12.8607 36.7209C12.5556 36.7075 12.2639 36.5945 12.0317 36.3997C11.9258 36.3061 11.8403 36.1923 11.7803 36.0654C11.7188 35.9383 11.6855 35.7998 11.6827 35.6592C11.6811 35.515 11.7091 35.3719 11.7649 35.2384ZM12.2612 35.4313C12.1934 35.5829 12.1887 35.7548 12.2484 35.9097C12.2794 35.9818 12.3248 36.047 12.3817 36.1017C12.4388 36.1564 12.5062 36.1994 12.5804 36.2282C12.6544 36.2569 12.7336 36.271 12.8132 36.2693C12.8929 36.2678 12.9715 36.2506 13.0443 36.2189C13.1922 36.1406 13.3071 36.0136 13.3688 35.8602C13.4306 35.7067 13.4351 35.5368 13.3816 35.3805C13.3509 35.3083 13.3057 35.2428 13.2488 35.1881C13.1918 35.1333 13.1244 35.0903 13.0503 35.0615C12.9761 35.0328 12.8969 35.0188 12.8172 35.0206C12.7376 35.0224 12.659 35.0398 12.5864 35.0718C12.4342 35.1451 12.3174 35.2742 12.2612 35.4313Z" fill="#301C3D"/>
<path d="M14.9191 36.0486L14.6277 37.2974L14.127 37.1842L14.5914 35.1929L15.036 35.293L15.8457 36.7236L16.1228 35.5376L16.6234 35.6503L16.1591 37.6417L15.7619 37.5521L14.9191 36.0486Z" fill="#301C3D"/>
<path d="M16.6104 37.7192L17.7313 35.7834L18.328 35.8452L18.9152 37.9582L18.367 37.9011L18.2602 37.4918L17.3694 37.3991L17.1617 37.7763L16.6104 37.7192ZM17.5552 37.0663L18.1652 37.1297L17.9587 36.3274L17.5552 37.0663Z" fill="#301C3D"/>
<path d="M19.3359 37.9598L19.3562 35.9192L19.8766 35.9244L19.8601 37.5715L20.7542 37.5799L20.7505 37.9729L19.3359 37.9598Z" fill="#301C3D"/>
<path d="M22.3509 37.8739L22.0088 35.861L22.7786 35.7347C22.9496 35.702 23.1243 35.6903 23.2984 35.7001C23.4402 35.7152 23.5772 35.7591 23.7007 35.829C23.8242 35.899 23.9315 35.9933 24.0158 36.1063C24.111 36.242 24.1729 36.3975 24.1966 36.5606C24.2205 36.7237 24.2055 36.8899 24.153 37.0464C24.0932 37.21 23.9922 37.356 23.8594 37.4709C23.7792 37.5409 23.6874 37.5968 23.5877 37.6359C23.4364 37.6891 23.2799 37.7268 23.1207 37.7486L22.3509 37.8739ZM22.5911 36.1838L22.7951 37.3823L23.1777 37.3199C23.2573 37.3097 23.3336 37.2834 23.4021 37.2425C23.4706 37.2016 23.5296 37.1471 23.5754 37.0826C23.6614 36.9456 23.6938 36.7827 23.6669 36.624C23.6399 36.4653 23.5552 36.3216 23.4286 36.2194C23.3639 36.1731 23.29 36.1404 23.2117 36.1238C23.1334 36.107 23.0524 36.1066 22.9739 36.1226L22.5911 36.1838Z" fill="#301C3D"/>
<path d="M24.9967 37.3686L24.3662 35.4244L25.6889 35.0115L25.8053 35.3699L24.9774 35.6283L25.1061 36.025L25.8988 35.7777L26.0162 36.1393L25.2246 36.3871L25.3741 36.8488L26.228 36.5826L26.3466 36.9494L24.9967 37.3686Z" fill="#301C3D"/>
<path d="M27.6013 36.4286L25.8398 34.9806L26.3394 34.7427L27.3285 35.5896L27.2949 34.2884L27.8004 34.0479L27.8042 36.3317L27.6013 36.4286Z" fill="#301C3D"/>
<path d="M29.1228 35.6143L27.957 33.9247L29.1063 33.1606L29.3197 33.4751L28.6018 33.953L28.8393 34.2973L29.5285 33.8387L29.7458 34.1532L29.0577 34.6107L29.3348 35.0121L30.075 34.5195L30.2939 34.837L29.1228 35.6143Z" fill="#301C3D"/>
<path d="M30.8083 34.4346L29.4375 32.9012L29.8287 32.5642L30.9353 33.802L31.6072 33.2256L31.8715 33.5206L30.8083 34.4346Z" fill="#301C3D"/>
<path d="M31.3577 32.6124C31.247 32.518 31.1562 32.4031 31.0907 32.2744C31.0273 32.1473 30.992 32.0085 30.9872 31.8672C30.9814 31.7283 31.0048 31.5896 31.056 31.4599C31.1125 31.3218 31.1933 31.1945 31.2946 31.0837C31.394 30.9696 31.5128 30.8735 31.6459 30.7997C31.771 30.7318 31.909 30.6902 32.0513 30.6773C32.1936 30.6645 32.3371 30.6808 32.4727 30.7253C32.6118 30.772 32.7399 30.8456 32.8495 30.9417C32.9607 31.0355 33.0515 31.1502 33.1164 31.2792C33.1791 31.4054 33.2138 31.5433 33.2183 31.6837C33.2234 31.824 33.1998 31.9639 33.149 32.0951C33.0335 32.3726 32.8268 32.6044 32.5618 32.7534C32.4362 32.8198 32.2982 32.8607 32.1561 32.8733C32.0137 32.8873 31.8698 32.8718 31.734 32.8277C31.5952 32.7812 31.4673 32.7079 31.3577 32.6124ZM31.7094 32.2178C31.8322 32.3315 31.9955 32.3933 32.1642 32.3901C32.2437 32.3857 32.3216 32.3658 32.3931 32.3315C32.4647 32.2971 32.5286 32.2491 32.5811 32.1903C32.6336 32.1314 32.6736 32.063 32.6988 31.9887C32.724 31.9145 32.7339 31.8362 32.7278 31.7582C32.7092 31.5937 32.6251 31.443 32.494 31.339C32.3708 31.2245 32.2068 31.162 32.0371 31.1649C31.9578 31.1693 31.88 31.189 31.8085 31.2232C31.737 31.2573 31.6732 31.3052 31.6206 31.3637C31.5682 31.4224 31.5281 31.4907 31.5029 31.5647C31.4775 31.6387 31.4676 31.717 31.4735 31.7948C31.4927 31.9607 31.5774 32.1125 31.7094 32.2178Z" fill="#301C3D"/>
<path d="M33.993 31.1022L32.2646 29.9681L32.6916 29.3419C32.8475 29.1124 33.0055 28.9703 33.1657 28.9158C33.3258 28.8613 33.4929 28.8912 33.6669 29.0054C33.8448 29.1229 33.9388 29.2698 33.9487 29.4461C33.9587 29.6226 33.8824 29.8291 33.7197 30.0656L33.6071 30.2306L34.284 30.6745L33.993 31.1022ZM33.4085 29.8088C33.4565 29.7491 33.4823 29.6752 33.4817 29.5992C33.4775 29.5667 33.4656 29.5356 33.4471 29.5083C33.4286 29.481 33.4038 29.4583 33.3749 29.442C33.3487 29.4224 33.3181 29.4089 33.2857 29.4029C33.2532 29.3968 33.2199 29.3981 33.1881 29.4069C33.1167 29.4326 33.0568 29.4821 33.0189 29.5467L32.878 29.7512L33.2719 30.0095L33.4085 29.8088Z" fill="#301C3D"/>
<path d="M35.1991 29.289L33.3447 28.3683L33.5519 27.9658L34.597 27.7509L34.155 26.7946L34.3621 26.3921L36.217 27.3134L35.9865 27.7599L34.8367 27.1886L35.237 28.068L34.281 28.2671L35.4308 28.8383L35.1991 29.289Z" fill="#301C3D"/>
<path d="M36.4758 26.6693L34.5312 25.9509L35.0196 24.6753L35.3789 24.8079L35.0735 25.605L35.4702 25.7517L35.7626 24.9882L36.1245 25.1218L35.832 25.8853L36.2943 26.0562L36.6092 25.2345L36.9743 25.3691L36.4758 26.6693Z" fill="#301C3D"/>
<path d="M36.0451 23.9752L37.3102 24.2949L37.182 24.7832L35.1719 24.2744L35.2856 23.8405L36.7636 23.0838L35.561 22.7814L35.6891 22.293L37.7019 22.8019L37.6 23.1896L36.0451 23.9752Z" fill="#301C3D"/>
<path d="M37.8813 21.5352L36.1957 21.4021L36.1422 22.0745L35.7568 22.0441L35.909 20.1611L36.2949 20.1921L36.2416 20.8644L37.9256 20.9996L37.8813 21.5352Z" fill="#301C3D"/>
<path d="M3.8248 11.3047L4.88808 11.8288C5.14785 11.9577 5.31137 12.1337 5.37862 12.357C5.44588 12.5802 5.4103 12.8278 5.27187 13.0996C5.13273 13.3703 4.95161 13.545 4.72849 13.6236C4.50537 13.7022 4.2641 13.6776 4.00469 13.5497L2.94141 13.0257L3.17679 12.5666L4.22087 13.0865C4.3689 13.1592 4.49968 13.1805 4.61319 13.1504C4.731 13.1053 4.82768 13.019 4.8847 12.9082C4.94174 12.7973 4.9551 12.6698 4.92225 12.5498C4.87955 12.443 4.78382 12.3527 4.63508 12.2789L3.59047 11.7622L3.8248 11.3047Z" fill="#301C3D"/>
<path d="M5.12834 10.7142L6.19216 11.4578L5.89431 11.8686L4.20117 10.6859L4.46807 10.319L6.12277 10.1325L5.1118 9.42867L5.40964 9.01782L7.10332 10.2006L6.86686 10.5266L5.12834 10.7142Z" fill="#301C3D"/>
<path d="M7.42616 9.87005L5.875 8.51221L6.23263 8.11865L7.78378 9.4759L7.42616 9.87005Z" fill="#301C3D"/>
<path d="M8.47015 8.78944L7.3188 7.57312L6.81545 8.03219L6.55176 7.75392L7.95986 6.46948L8.22301 6.74775L7.71967 7.20734L8.87102 8.4226L8.47015 8.78944Z" fill="#301C3D"/>
<path d="M9.59491 7.80671L8.36719 6.15964L9.4881 5.35522L9.71497 5.65917L9.01466 6.16226L9.26502 6.49765L9.93539 6.01605L10.1638 6.32314L9.49348 6.80421L9.78488 7.19568L10.5065 6.67739L10.7372 6.98659L9.59491 7.80671Z" fill="#301C3D"/>
<path d="M11.0393 6.77899L10.0391 4.99043L10.7233 4.62359C10.8741 4.53664 11.0355 4.46884 11.2037 4.42183C11.3263 4.39252 11.4534 4.38613 11.5784 4.40297C11.7355 4.42333 11.8854 4.48029 12.0156 4.56909C12.2279 4.71402 12.3773 4.93156 12.4347 5.17905C12.4921 5.42654 12.4531 5.68615 12.3258 5.90698C12.274 5.9994 12.2061 6.08208 12.125 6.15119C12 6.25045 11.865 6.33685 11.722 6.40901L11.0393 6.77899ZM10.6972 5.10624L11.2934 6.16901L11.6334 5.98559C11.705 5.95024 11.7683 5.90055 11.8191 5.83971C11.87 5.77888 11.9072 5.70825 11.9286 5.63239C11.9637 5.47536 11.9399 5.31116 11.8614 5.17005C11.783 5.02895 11.6551 4.92048 11.5015 4.86466C11.4249 4.84188 11.3442 4.83506 11.2648 4.84463C11.1852 4.8542 11.1086 4.87994 11.0398 4.9202L10.6972 5.10624Z" fill="#301C3D"/>
<path d="M13.9087 5.21281L13.7683 4.78204C13.9117 4.81943 14.0585 4.8426 14.2065 4.85122C14.3132 4.85534 14.4196 4.84152 14.5215 4.81034C14.5989 4.79077 14.6698 4.75155 14.727 4.69662C14.7464 4.67666 14.7598 4.65172 14.7655 4.62464C14.7711 4.59757 14.7689 4.56948 14.759 4.5436C14.753 4.52256 14.7425 4.50303 14.7281 4.48638C14.7138 4.46973 14.6959 4.45635 14.6757 4.44718C14.5947 4.42309 14.51 4.41264 14.4254 4.41625C14.1126 4.40839 13.8863 4.37119 13.747 4.30306C13.6778 4.26988 13.6165 4.223 13.5668 4.16535C13.5171 4.10772 13.4801 4.04059 13.4582 3.9682C13.4306 3.88961 13.4229 3.80561 13.4357 3.72345C13.4485 3.64128 13.4815 3.56341 13.5318 3.49656C13.6354 3.3493 13.7988 3.23977 14.0197 3.16955C14.1334 3.13346 14.2512 3.11094 14.3705 3.10247C14.495 3.09334 14.6203 3.0972 14.744 3.114L14.8759 3.5128C14.7417 3.49087 14.6058 3.48018 14.4697 3.48083C14.3667 3.48118 14.2642 3.49618 14.1655 3.52538C14.0901 3.54523 14.0207 3.58262 13.9632 3.63438C13.9443 3.65173 13.9308 3.67405 13.9245 3.69866C13.9182 3.72328 13.9192 3.74917 13.9274 3.77325C13.9363 3.79556 13.9504 3.81557 13.9684 3.83174C13.9865 3.8479 14.008 3.85981 14.0315 3.86654C14.1067 3.8919 14.1857 3.90483 14.2652 3.90479C14.2866 3.90479 14.3186 3.90793 14.3619 3.9095C14.5176 3.91171 14.6728 3.92731 14.8257 3.95614C14.9238 3.9779 15.0138 4.02556 15.0862 4.09397C15.1608 4.16697 15.2159 4.257 15.2463 4.35599C15.2765 4.4367 15.2862 4.52343 15.2745 4.60865C15.2627 4.69386 15.23 4.77498 15.1791 4.84492C15.0748 4.99131 14.9005 5.10346 14.656 5.18136C14.536 5.21999 14.4112 5.24221 14.285 5.2474C14.1586 5.25265 14.032 5.24102 13.9087 5.21281Z" fill="#301C3D"/>
<path d="M16.2599 4.72065L15.9353 3.09087L15.2622 3.2203L15.1875 2.84719L17.0739 2.4856L17.148 2.85819L16.4733 2.98763L16.7979 4.61741L16.2599 4.72065Z" fill="#301C3D"/>
<path d="M17.3115 4.49739L18.0652 2.39596L18.6636 2.35352L19.6206 4.33493L19.0709 4.37372L18.8916 3.98801L17.998 4.0509L17.8613 4.45809L17.3115 4.49739ZM18.1245 3.69089L18.7362 3.64791L18.3893 2.89381L18.1245 3.69089Z" fill="#301C3D"/>
<path d="M20.1459 4.37959L20.2266 2.72098L19.54 2.68902L19.5582 2.30908L21.4798 2.39922L21.4617 2.77862L20.7747 2.74666L20.6946 4.40527L20.1459 4.37959Z" fill="#301C3D"/>
<path d="M21.6475 4.48161L21.988 2.46875L23.3572 2.69251L23.2942 3.06406L22.4402 2.92415L22.3703 3.33447L23.1901 3.46863L23.1266 3.84332L22.3083 3.70917L22.2277 4.18762L23.109 4.33174L23.045 4.70957L21.6475 4.48161Z" fill="#301C3D"/>
<path d="M23.4258 4.62788L23.5528 4.19293C23.6503 4.30317 23.7588 4.40343 23.8769 4.49216C23.9627 4.55438 24.059 4.60138 24.1614 4.63103C24.2366 4.65738 24.3175 4.66388 24.3962 4.6499C24.4237 4.64391 24.4489 4.63047 24.469 4.61111C24.4892 4.59175 24.5033 4.56724 24.5099 4.54037C24.517 4.51967 24.5194 4.4977 24.517 4.47599C24.5147 4.45427 24.5074 4.43333 24.496 4.4146C24.4425 4.35021 24.3782 4.29512 24.306 4.25162C24.0502 4.07344 23.8839 3.91815 23.8075 3.78575C23.7692 3.72009 23.7453 3.6473 23.7372 3.57203C23.7292 3.49677 23.7373 3.4207 23.761 3.34869C23.7829 3.26869 23.8241 3.19509 23.8813 3.13419C23.9385 3.07331 24.0098 3.02697 24.0893 2.99915C24.2594 2.93382 24.4563 2.9326 24.6802 2.99548C24.7951 3.02685 24.9057 3.0719 25.0095 3.12964C25.1181 3.19041 25.22 3.26224 25.3132 3.34397L25.1953 3.74749C25.096 3.65549 24.9889 3.57203 24.875 3.49805C24.7895 3.44173 24.6959 3.39812 24.5975 3.3686C24.5238 3.34346 24.445 3.33645 24.368 3.34817C24.3424 3.35232 24.3188 3.36357 24.2996 3.38057C24.2806 3.39757 24.2668 3.41961 24.2601 3.44407C24.2549 3.46755 24.2551 3.49189 24.261 3.51524C24.2668 3.53859 24.278 3.56032 24.2937 3.57875C24.3421 3.64003 24.4003 3.69314 24.4661 3.73596C24.4827 3.74906 24.5088 3.76793 24.5435 3.79309C24.6714 3.8803 24.7912 3.97832 24.9017 4.08603C24.9705 4.15791 25.0182 4.24686 25.0394 4.34333C25.0593 4.44556 25.0532 4.55103 25.0218 4.65042C25.0006 4.73362 24.9591 4.8105 24.901 4.87442C24.8427 4.93833 24.7695 4.98736 24.6877 5.01725C24.5179 5.08643 24.3093 5.08608 24.0621 5.0162C23.9407 4.98231 23.8247 4.93223 23.7173 4.86738C23.6091 4.80131 23.5111 4.72071 23.4258 4.62788Z" fill="#301C3D"/>
<path d="M25.8008 5.52617L27.5399 4.09814L28.0736 4.36017L27.8692 6.54072L27.3798 6.30019L27.4273 5.88095L26.6266 5.48791L26.2972 5.76933L25.8008 5.52617ZM26.9191 5.23952L27.4678 5.50888L27.5606 4.68665L26.9191 5.23952Z" fill="#301C3D"/>
<path d="M29.6719 7.47095C29.5193 7.47803 29.3665 7.46033 29.2198 7.41854C29.0675 7.37312 28.9234 7.30452 28.7928 7.21521C28.6652 7.13175 28.5536 7.02671 28.4635 6.90497C28.38 6.79236 28.3216 6.6637 28.2923 6.52744C28.2629 6.39116 28.2633 6.25035 28.2932 6.11419C28.3246 5.97259 28.3844 5.83848 28.4688 5.71958C28.6513 5.45722 28.8873 5.30577 29.1766 5.26524C29.4659 5.22471 29.7572 5.30314 30.0503 5.50053C30.1582 5.57189 30.2569 5.65564 30.3445 5.74998C30.4357 5.85125 30.5155 5.96195 30.5825 6.08013L30.3252 6.44696C30.2585 6.32409 30.1795 6.20805 30.0893 6.10057C30.0139 6.01068 29.9265 5.93118 29.8294 5.86422C29.6561 5.74719 29.4879 5.70212 29.325 5.72902C29.162 5.75592 29.0238 5.85042 28.9102 6.01252C28.8586 6.07904 28.8211 6.15507 28.8 6.2361C28.7789 6.31712 28.7747 6.40149 28.7875 6.48417C28.804 6.56547 28.8374 6.64254 28.8858 6.71053C28.9341 6.77853 28.9962 6.83599 29.0682 6.8793C29.1109 6.90958 29.1569 6.93506 29.2054 6.95528C29.2544 6.97468 29.3052 6.98976 29.357 7.00035L29.5054 6.78759L29.2689 6.63038L29.4893 6.31595L30.1635 6.76925L29.6719 7.47095Z" fill="#301C3D"/>
<path d="M29.8389 7.92471L31.2186 6.39868L32.2568 7.30372L32.0017 7.58407L31.3532 7.01863L31.0718 7.32992L31.6932 7.87125L31.4364 8.15633L30.8151 7.615L30.4873 7.97764L31.1557 8.56037L30.8968 8.84703L29.8389 7.92471Z" fill="#301C3D"/>
<path d="M32.4943 8.6358L31.5052 9.47425L31.1689 9.09172L32.7425 7.75854L33.0403 8.0976L32.8306 9.72212L33.7689 8.9277L34.1047 9.30976L32.5311 10.6423L32.2643 10.34L32.4943 8.6358Z" fill="#301C3D"/>
<path d="M33.9048 12.4052C33.7818 12.3421 33.6677 12.2635 33.5654 12.1715C33.463 12.0784 33.3732 11.9727 33.2984 11.857C33.2153 11.7316 33.1551 11.593 33.1207 11.4472C33.0886 11.3112 33.0862 11.17 33.1138 11.0331C33.1415 10.8962 33.1983 10.7665 33.2808 10.6527C33.3667 10.5345 33.4756 10.4341 33.6011 10.3572C33.8737 10.1864 34.1511 10.1382 34.4332 10.2125C34.7154 10.287 34.9519 10.4704 35.1427 10.7628C35.2792 10.9712 35.3644 11.2081 35.3913 11.4546L34.9825 11.7103C34.984 11.5841 34.9684 11.4583 34.936 11.3361C34.9055 11.224 34.8578 11.1172 34.7946 11.0191C34.6818 10.8444 34.5448 10.7378 34.3836 10.6994C34.2224 10.661 34.0573 10.6942 33.8883 10.799C33.8141 10.8406 33.7492 10.8965 33.6976 10.9633C33.646 11.0302 33.6086 11.1065 33.5878 11.1878C33.5707 11.2698 33.571 11.3543 33.5887 11.4362C33.6062 11.518 33.6408 11.5955 33.6902 11.6637C33.7593 11.7694 33.8463 11.8629 33.9475 11.9398C34.0594 12.0256 34.1825 12.0962 34.3137 12.1495L33.9048 12.4052Z" fill="#301C3D"/>
<path d="M34.1484 13.2872L35.0024 12.8973L35.6889 11.6978L35.9521 12.2528L35.5346 12.9372L36.3423 13.0745L36.6032 13.6247L35.2256 13.359L34.3715 13.7505L34.1484 13.2872Z" fill="#301C3D"/>
<path d="M3.1632 16.9168L3.57367 16.3891L2.9278 16.5762L2.52907 15.9998L2.50879 16.6978L1.86719 16.8832L2.49651 17.1165L2.47623 17.7998L2.89364 17.2632L3.57848 17.5169L3.1632 16.9168Z" fill="#301C3D"/>
<path d="M36.0851 16.9032L35.6944 16.3614L36.3328 16.5715L36.7529 16.0098L36.7476 16.7078L37.3817 16.9168L36.7438 17.127L36.7386 17.8104L36.3414 17.2596L35.6475 17.488L36.0851 16.9032Z" fill="#301C3D"/>
<path fill-rule="evenodd" clip-rule="evenodd" d="M11.0293 25.4253H28.5014V28.1855H11.0293V25.4253ZM13.4489 26.5084L12.9034 26.9004L13.1287 27.5916L12.5447 27.1582L11.9901 27.5565L12.2057 26.9067L11.6698 26.5084H12.3387L12.5591 25.8444L12.7758 26.5084H13.4489ZM15.8443 26.5084L15.2988 26.9004L15.524 27.5916L14.9401 27.1582L14.3849 27.5565L14.6011 26.9067L14.0647 26.5084H14.7335L14.9545 25.8444L15.1707 26.5084H15.8443ZM17.6715 26.9004L18.217 26.5084H17.544L17.3278 25.8444L17.1067 26.5084H16.438L16.9744 26.9067L16.7582 27.5565L17.3128 27.1582L17.8967 27.5916L17.6715 26.9004ZM20.6127 26.5084L20.0672 26.9004L20.2924 27.5916L19.7085 27.1582L19.1539 27.5565L19.37 26.9067L18.8336 26.5084H19.5025L19.7229 25.8444L19.9396 26.5084H20.6127ZM22.547 26.9004L23.0925 26.5084H22.4189L22.2027 25.8444L21.9818 26.5084H21.3129L21.8494 26.9067L21.6332 27.5565L22.1883 27.1582L22.7723 27.5916L22.547 26.9004ZM25.4765 26.5084L24.931 26.9004L25.1563 27.5916L24.5723 27.1582L24.0177 27.5565L24.2339 26.9067L23.6974 26.5084H24.3663L24.5867 25.8444L24.8034 26.5084H25.4765ZM27.3861 26.9004L27.9317 26.5084H27.2585L27.0418 25.8444L26.8214 26.5084H26.1526L26.6891 26.9067L26.4729 27.5565L27.0274 27.1582L27.6114 27.5916L27.3861 26.9004Z" fill="#301C3D"/>
<path d="M18.6982 28.4648V32.5734C19.499 33.0235 19.7482 33.4611 19.7482 33.4611C19.7482 33.4611 19.7066 33.0466 20.7266 32.5655V28.4648H18.6982Z" fill="#301C3D"/>
<path d="M13.165 28.4648V30.9959C13.7981 31.3242 14.4844 31.5419 15.1934 31.6395V28.4648H13.165Z" fill="#301C3D"/>
<path d="M21.4385 28.4648V32.2841C22.1014 32.0697 22.7793 31.903 23.4669 31.7851V28.4648H21.4385Z" fill="#301C3D"/>
<path d="M15.9023 28.4648V31.7254C16.7681 31.8418 17.4503 32.0288 17.9841 32.2385V28.4654L15.9023 28.4648Z" fill="#301C3D"/>
<path d="M28.5002 28.4648H26.9521V30.561C28.3278 29.5999 28.5002 28.4648 28.5002 28.4648Z" fill="#301C3D"/>
<path d="M24.1768 28.4648V31.6615C25.0158 31.4985 25.6938 31.2611 26.2409 30.9875V28.4669L24.1768 28.4648Z" fill="#301C3D"/>
<path d="M11.0294 28.4648C10.8971 28.6168 11.2894 29.677 12.4525 30.5468V28.4648H11.0294Z" fill="#301C3D"/>
<path fill-rule="evenodd" clip-rule="evenodd" d="M11.0293 9.80859H28.5014V14.7697H11.0293V9.80859ZM16.2754 12.8413V13.4891C16.5825 13.6757 16.9369 13.7736 17.2981 13.7715C17.6639 13.7719 17.9495 13.6952 18.1547 13.5414C18.2549 13.4686 18.3354 13.3728 18.3892 13.2625C18.4431 13.1522 18.4687 13.0307 18.4639 12.9084C18.468 12.7594 18.4344 12.6117 18.3662 12.4787C18.2994 12.3549 18.1993 12.2516 18.0769 12.18C17.8831 12.0758 17.6806 11.9881 17.4716 11.918C17.4139 11.8975 17.3712 11.8813 17.3429 11.8703C17.2351 11.8358 17.1336 11.7845 17.0424 11.7183C17.0137 11.6991 16.9899 11.6737 16.9726 11.6441C16.9554 11.6146 16.9454 11.5814 16.9431 11.5475C16.9428 11.5113 16.953 11.4759 16.9726 11.4454C16.9922 11.4148 17.0203 11.3903 17.0536 11.375C17.1539 11.3299 17.2638 11.3094 17.3739 11.3153C17.5198 11.3181 17.6646 11.3417 17.8036 11.3855C17.9874 11.4435 18.166 11.5164 18.3373 11.6035V11.0082C18.1775 10.9324 18.0101 10.8732 17.8377 10.8316C17.6729 10.7921 17.504 10.7718 17.3344 10.7714C17.0045 10.7717 16.7365 10.8491 16.5305 11.0035C16.4332 11.072 16.3543 11.1627 16.3005 11.2678C16.2468 11.3728 16.2198 11.4891 16.2219 11.6067C16.2184 11.7141 16.2377 11.8211 16.2785 11.9208C16.3195 12.0205 16.3811 12.1107 16.4595 12.1858C16.6175 12.3374 16.9068 12.4855 17.3274 12.6301C17.4982 12.6888 17.6072 12.7386 17.6536 12.7811C17.6767 12.8024 17.695 12.8283 17.7071 12.8572C17.7191 12.886 17.7248 12.9171 17.7235 12.9483C17.7254 12.9877 17.7158 13.027 17.6961 13.0613C17.6762 13.0957 17.6469 13.1239 17.6114 13.1427C17.5094 13.1925 17.3958 13.2151 17.2821 13.2082C17.1303 13.2069 16.98 13.1793 16.8379 13.1269C16.641 13.0508 16.4525 12.9551 16.2754 12.8413ZM15.711 12.4786V10.8179H14.968V12.4498C14.9676 12.6821 14.9119 12.8591 14.8009 12.9806C14.6899 13.1022 14.5276 13.163 14.3141 13.163C14.0995 13.1634 13.9359 13.1022 13.8231 12.9796C13.7102 12.8569 13.6538 12.6804 13.6538 12.4498V10.8179H12.9129V12.4786C12.9147 12.886 13.0384 13.2033 13.284 13.4308C13.5294 13.6582 13.8721 13.7719 14.312 13.7719C14.7529 13.7719 15.0963 13.6582 15.3422 13.4308C15.588 13.2033 15.711 12.886 15.711 12.4786ZM18.5302 13.719L19.8172 10.8174H20.6711L21.8209 13.719H21.0368L20.8233 13.1557H19.5534L19.318 13.719H18.5302ZM19.7664 12.6578H20.638L20.2254 11.551L19.7664 12.6578ZM22.2086 10.8174V13.719H22.9692V10.8174H22.2086ZM23.6138 13.719V10.8174H24.7235C24.9711 10.8096 25.2188 10.8325 25.4606 10.8855C25.6554 10.9395 25.8366 11.0326 25.9928 11.1589C26.149 11.2851 26.2767 11.4419 26.3681 11.6191C26.4693 11.8314 26.5191 12.0637 26.5136 12.298C26.5081 12.5323 26.4476 12.7621 26.3366 12.9696C26.2138 13.1852 26.0373 13.3668 25.8236 13.4973C25.6947 13.577 25.5524 13.6341 25.4035 13.666C25.1786 13.7065 24.95 13.724 24.7214 13.7185L23.6138 13.719ZM24.3542 11.4095V13.1321H24.905C25.0186 13.1361 25.1319 13.1167 25.2375 13.0753C25.3431 13.0339 25.4387 12.9713 25.5183 12.8915C25.6714 12.7196 25.7559 12.499 25.7559 12.2705C25.7559 12.0422 25.6714 11.8215 25.5183 11.6496C25.4387 11.5699 25.343 11.5075 25.2374 11.4662C25.1318 11.4248 25.0186 11.4055 24.905 11.4095H24.3542Z" fill="#301C3D"/>
<path d="M16.6494 17.8659C16.7079 17.8588 16.7633 17.8361 16.8095 17.8004C16.863 17.7506 16.7983 17.9707 16.6494 17.8659Z" fill="#301C3D"/>
<path d="M17.1299 17.9838L17.4768 17.6431C17.4768 17.6431 17.3055 17.9968 17.1299 17.9838Z" fill="#301C3D"/>
<path d="M23.4287 19.7524C23.4287 19.7524 23.7757 19.8834 24.3094 19.7786C24.3116 19.7786 23.7778 20.1192 23.4287 19.7524Z" fill="#301C3D"/>
<path d="M15.582 21.7856C15.582 21.7856 15.7422 21.707 15.7822 21.6809L15.8222 21.6547L15.9824 21.6416C15.9824 21.6416 15.7955 21.8093 15.582 21.7856Z" fill="#301C3D"/>
<path d="M17.2798 20.2241L17.5333 20.0276C17.5333 20.0276 17.2665 20.1193 17.2798 20.2241Z" fill="#301C3D"/>
<path d="M16.3447 20.2502C16.396 20.2566 16.4477 20.2434 16.4894 20.2135C16.5561 20.1611 16.9297 19.7681 16.9297 19.7681C16.9297 19.7681 16.4115 20.1088 16.3447 20.2502Z" fill="#301C3D"/>
<path d="M15.4912 20.329C15.4912 20.329 15.8782 19.949 15.9316 19.9359C15.985 19.9229 15.985 20.0276 15.985 20.0276L15.4912 20.329Z" fill="#301C3D"/>
<path d="M15.4111 19.9516C15.4111 19.9516 15.6513 19.7288 15.7047 19.7158C15.7354 19.7077 15.7675 19.7077 15.7981 19.7158C15.7981 19.7158 15.4912 19.9358 15.4111 19.9516Z" fill="#301C3D"/>
<path d="M15.209 19.8573C15.209 19.8573 15.5426 19.4642 15.6494 19.4512C15.7561 19.4381 15.7561 19.4773 15.7561 19.4773V19.5429C15.7561 19.5429 15.2778 19.7944 15.209 19.8573Z" fill="#301C3D"/>
<path d="M14.8633 19.831C14.9033 19.7916 15.1969 19.4379 15.357 19.4117L15.4104 19.3855L15.3971 19.4903L14.8633 19.831Z" fill="#301C3D"/>
<path d="M14.0882 20.5514C14.0882 20.5514 14.4885 20.2239 14.5286 20.2108L14.5686 20.1978H14.4084C14.4084 20.1978 14.0636 20.4467 14.0882 20.5514Z" fill="#301C3D"/>
<path d="M13.9277 20.4233C13.9277 20.4233 13.127 21.0783 12.8868 21.3666C12.8868 21.3666 12.3264 21.3535 12.2463 21.4059C12.1662 21.4583 12.2063 21.4189 12.2063 21.4189L12.233 21.288C12.3348 21.2603 12.4271 21.206 12.4998 21.1308C12.6333 20.9997 13.6742 20.2529 13.6742 20.2529L12.6888 21.1045C12.6888 21.1045 12.6221 21.4059 12.8623 21.1963C13.1025 20.9866 13.7964 20.4757 13.9277 20.4233Z" fill="#301C3D"/>
<path d="M11.9678 21.2852L12.1146 21.272L12.3548 21.1017L13.1955 20.355C13.1955 20.355 12.1946 21.0755 11.9678 21.2852Z" fill="#301C3D"/>
<path d="M11.5947 21.2852L11.7682 21.2589L12.6622 20.4336C12.6622 20.4336 11.7549 21.052 11.5947 21.2852Z" fill="#301C3D"/>
<path d="M11.2207 21.2722L11.4076 21.2459L12.0059 20.604C12.0059 20.604 11.3943 21.0232 11.2207 21.2722Z" fill="#301C3D"/>
<path d="M10.9668 21.0757L10.9802 21.1674H11.0982C11.0982 21.1674 11.2316 20.9839 11.3384 20.8005C11.2246 20.9046 11.1001 20.9968 10.9668 21.0757Z" fill="#301C3D"/>
<path d="M21.3627 20.4075C21.3627 20.4075 21.683 20.2503 21.8031 20.1323C21.7305 20.2651 21.625 20.3778 21.4962 20.4598C21.4962 20.4598 21.2826 20.5123 21.3627 20.4075Z" fill="#301C3D"/>
<path d="M21.2399 20.2242C21.2399 20.2242 21.5202 20.1325 21.5869 20.0801C21.5214 20.181 21.4291 20.2624 21.32 20.3159C21.162 20.3814 21.2399 20.2242 21.2399 20.2242Z" fill="#301C3D"/>
<path d="M21.1094 20.1194C21.1094 20.1194 21.4163 20.0041 21.4542 19.9517L21.4142 20.0041C21.4142 20.0041 21.2562 20.2372 21.1094 20.1194Z" fill="#301C3D"/>
<path d="M19.4786 19.0186C19.4786 19.0186 19.5587 19.0973 19.839 18.8877C19.839 18.8877 19.7323 19.1104 19.5587 19.0973C19.3852 19.0842 19.4942 19.0711 19.4786 19.0186Z" fill="#301C3D"/>
<path d="M18.7734 18.2327C18.7734 18.2327 19.2672 18.2458 19.3873 18.3768C19.5074 18.5078 19.7342 18.7043 19.7342 18.7043L19.7609 18.7698H19.6275C19.6275 18.7698 19.6542 18.5995 19.494 18.7174C19.4234 18.7736 19.3466 18.822 19.265 18.8615C19.265 18.8615 19.5319 18.5602 19.3718 18.5078C19.2116 18.4554 19.3718 18.6388 19.1182 18.7174C19.1182 18.7174 19.3185 18.4423 19.2116 18.4554C19.1049 18.4685 19.0115 18.5864 19.0115 18.5864L18.9315 18.6126C18.9315 18.6126 19.1983 18.3506 18.9581 18.3374L18.8914 18.3506C18.8558 18.3079 18.8163 18.2685 18.7734 18.2327Z" fill="#301C3D"/>
<path d="M19.8672 20.9471L19.9206 20.8947L20.2542 20.6982C20.2542 20.6982 19.9873 21.0362 19.8672 20.9471Z" fill="#301C3D"/>
<path d="M20.0547 21.141C20.1771 20.9932 20.3265 20.8688 20.495 20.7742C20.495 20.7742 20.2681 21.1044 20.0547 21.141Z" fill="#301C3D"/>
<path d="M20.2422 21.2723C20.2422 21.2723 20.4691 21.0234 20.6692 20.9709C20.6692 20.9709 20.4556 21.2618 20.2422 21.2723Z" fill="#301C3D"/>
<path d="M20.4688 21.4032C20.5735 21.2788 20.6946 21.1687 20.8291 21.0757C20.8291 21.0757 20.6823 21.4032 20.4688 21.4032Z" fill="#301C3D"/>
<path d="M20.6689 21.5237C20.6689 21.5237 21.0826 21.3404 21.2294 21.1438C21.2294 21.1438 21.1627 21.419 21.0826 21.4451C21.0025 21.4713 21.0959 21.5762 21.2294 21.4976C21.3628 21.419 21.4162 21.2355 21.4162 21.2355C21.4162 21.2355 21.4963 21.4844 21.3228 21.5368C21.1493 21.5893 21.3095 21.6679 21.4696 21.5499C21.6297 21.4321 21.3361 21.812 21.0425 21.9168C21.0425 21.9168 21.2027 21.681 21.1093 21.681C21.0159 21.681 20.9892 21.7202 20.9892 21.7202L20.9759 21.563C20.9759 21.563 20.7068 21.639 20.6689 21.5237Z" fill="#301C3D"/>
<path d="M18.1318 19.7524C18.1318 19.7524 18.2386 19.6738 18.2786 19.6345C18.3187 19.5952 18.6256 19.6345 18.7056 19.438C18.7056 19.438 18.6523 19.5952 18.7324 19.5952C18.8124 19.5952 18.9726 19.5034 18.9726 19.5034C18.9726 19.5034 18.8258 19.7655 18.9592 19.7655C19.0926 19.7655 19.2528 19.6214 19.2528 19.6214C19.2528 19.6214 19.2261 19.7655 19.1327 19.8178C19.0393 19.8703 19.1327 20.0144 19.3195 19.8703C19.2837 19.9245 19.2525 19.9815 19.2261 20.0406C19.1983 20.1087 19.176 20.1787 19.1594 20.2502C19.1594 20.2502 19.1194 20.2241 18.9859 20.3027C18.8524 20.3813 18.5989 20.5777 18.5322 20.5908C18.4654 20.604 19.1038 20.0564 18.9859 20.0406C18.868 20.0249 18.4521 20.3681 18.4521 20.3681C18.4521 20.3681 18.9192 19.8703 18.8124 19.8441C18.7056 19.8178 18.4922 20.0406 18.4922 20.0406C18.4922 20.0406 18.759 19.6345 18.5856 19.6869C18.4121 19.7392 18.4254 19.8048 18.4254 19.8048C18.4254 19.8048 18.4922 19.5166 18.1318 19.7524Z" fill="#301C3D"/>
<path d="M27.207 18.1804L27.4072 18.0625C27.4072 18.0625 27.4851 18.1804 27.207 18.1804Z" fill="#301C3D"/>
<path d="M24.2578 18.6518L24.498 18.4421C24.498 18.4421 24.5914 18.5889 24.2578 18.6518Z" fill="#301C3D"/>
<path d="M26.3398 21.5473C24.7118 21.5473 25.0587 21.4163 24.6584 21.4424C24.528 21.4524 24.3969 21.4493 24.2671 21.433L24.2581 21.4162C24.2444 21.4204 24.2305 21.4237 24.2164 21.4262L24.155 21.4162C24.1198 21.3638 24.3274 21.1658 24.4716 21.1149C24.6584 21.0494 24.7251 20.7611 24.7251 20.7611C24.7251 20.7611 24.4049 21.1149 24.0045 21.2852C23.6042 21.4555 24.2181 20.866 24.4583 20.7219C24.6037 20.6323 24.716 20.4991 24.7785 20.3419C24.7785 20.3419 24.1112 20.9839 23.7643 21.1673C23.4174 21.3507 23.5641 21.1018 23.5641 21.1018C23.5641 21.1018 23.9511 20.748 24.1112 20.6694C24.1594 20.6427 24.2004 20.6049 24.2306 20.5593C24.2608 20.5136 24.2793 20.4616 24.2847 20.4074C24.2847 20.4074 23.6976 20.9708 23.5375 20.9708C23.3773 20.9708 23.4707 20.8922 23.7109 20.735C23.8534 20.6425 23.9575 20.5031 24.0045 20.3419C24.0045 20.3419 23.7242 20.6694 23.5108 20.735C23.2973 20.8005 23.4174 20.5908 23.5641 20.5122C23.7109 20.4336 23.791 20.2109 23.791 20.2109C23.791 20.2109 23.5641 20.3944 23.4174 20.4991C23.2706 20.6039 23.2839 20.4467 23.3773 20.3681C23.4528 20.2906 23.5158 20.2023 23.5641 20.1061C23.4883 20.152 23.4168 20.2046 23.3507 20.2633C23.1905 20.3944 23.1371 20.1585 23.2172 20.1323C23.2973 20.1061 23.3907 19.9358 23.3373 19.9882C23.2839 20.0406 23.0549 20.1087 23.0549 20.1087V20.1119C23.0447 20.1103 23.0342 20.1116 23.0247 20.1156C23.0153 20.1197 23.0072 20.1264 23.0015 20.135C23.0346 20.3066 23.0884 20.4737 23.1617 20.6328C23.2685 20.8424 23.2685 21.1569 23.2685 21.1569C23.0918 21.5761 22.8922 21.5074 22.96 21.3439C23.0242 21.2966 23.0787 21.2375 23.1201 21.1699C23.079 21.1896 23.036 21.2054 22.9919 21.2171C22.9868 21.1691 22.9738 21.1222 22.9535 21.0782C22.9894 21.0456 23.0272 21.015 23.0667 20.9866C23.0206 21.0015 22.9733 21.0125 22.9252 21.019C22.9108 20.9902 22.8948 20.9603 22.8772 20.931C22.8975 20.9034 22.9208 20.8781 22.9465 20.8555H22.8318C22.7615 20.7523 22.7016 20.6426 22.653 20.528L22.6215 20.4352C22.5881 20.2932 22.6089 20.1441 22.6797 20.016L22.5996 20.0291C22.5195 20.0422 22.5863 19.9243 22.5863 19.9243L22.8531 19.669C22.8583 19.7673 22.8851 19.8634 22.9316 19.9505C22.9316 19.9505 22.9183 19.7146 22.9984 19.6099C23.0546 19.5288 23.0995 19.4407 23.1318 19.3479C23.1318 19.3479 23.1585 18.9155 22.9183 18.6797C22.6781 18.4438 22.5847 18.3783 22.5446 18.2605C22.5446 18.2605 22.5847 18.4438 22.6914 18.5224C22.7747 18.5843 22.8419 18.8138 22.867 18.9108L22.7715 18.981L22.8516 19.0072C22.8695 19.007 22.8874 19.0088 22.905 19.0125C22.9178 19.0464 22.9275 19.0815 22.9337 19.1172C22.8575 19.2462 22.5847 19.449 22.5602 19.4924C22.5492 19.5094 22.5349 19.5239 22.518 19.5351C22.5012 19.5463 22.4821 19.554 22.4621 19.5578C22.442 19.5614 22.4215 19.5611 22.4016 19.5566C22.3817 19.5521 22.363 19.5436 22.3466 19.5318C22.2991 19.5008 22.3883 19.3819 22.4796 19.2901C22.4139 19.3316 22.3418 19.3772 22.2932 19.4138C22.2822 19.425 22.2682 19.433 22.2529 19.437C22.2376 19.4409 22.2214 19.4407 22.2063 19.4363L22.1795 19.4149C22.1729 19.4051 22.1684 19.3941 22.1665 19.3825C22.1646 19.371 22.1652 19.3591 22.1685 19.3479C22.1717 19.3365 22.1773 19.326 22.185 19.3171C22.1927 19.3081 22.2024 19.3009 22.2131 19.2959C22.3065 19.2566 22.6001 18.8767 22.6001 18.8767C22.6001 18.8767 22.2543 19.1759 22.0941 19.2179C21.934 19.2598 21.9207 19.2571 22.0274 19.1654C22.1341 19.0737 22.4011 18.7201 22.321 18.8117C22.2409 18.9034 21.9873 19.1654 21.8005 19.0999C21.6137 19.0345 22.0941 18.8117 22.0141 18.8117C21.934 18.8117 21.6537 18.982 21.6537 18.982C21.3335 18.982 21.7872 18.6807 21.7205 18.6807C21.6537 18.6807 21.3869 18.851 21.3201 18.7987C21.2534 18.7462 21.4936 18.6021 21.4936 18.6021C21.3979 18.6247 21.3074 18.6647 21.2267 18.72C21.0933 18.8117 21.0265 18.589 21.0265 18.589C20.6396 18.7331 20.8397 18.4449 20.8397 18.4449C20.5062 18.5628 20.4527 18.5104 20.4527 18.5104C20.4512 18.5147 20.4501 18.5191 20.4496 18.5235C20.3222 18.4653 20.2095 18.3802 20.1192 18.2746C20.0999 18.2515 20.0802 18.23 20.0594 18.2091C20.0636 18.11 20.1859 17.9602 20.1859 17.9602C20.0889 18.009 19.9866 18.0472 19.8811 18.0739C19.8619 18.0623 19.8427 18.0519 19.8234 18.0419C19.8421 17.9686 20.0524 17.8029 20.0524 17.8029C20.0524 17.8029 19.8245 17.9308 19.6927 17.9868C19.6687 17.9785 19.6447 17.9712 19.6206 17.9643C19.6876 17.8753 19.7605 17.7907 19.839 17.7113C19.839 17.7113 19.5955 17.858 19.452 17.9261C19.4162 17.9198 19.3809 17.9151 19.3451 17.9109C19.3731 17.8323 19.4089 17.7567 19.452 17.685C19.452 17.685 19.2421 17.8642 19.0863 17.8889C19.0537 17.8889 19.0238 17.8847 18.9982 17.8815C18.8514 17.816 19.1584 17.5802 19.1584 17.5802C19.0208 17.6843 18.877 17.7801 18.7276 17.8669C18.6918 17.8669 18.6587 17.8669 18.6273 17.8632C18.6401 17.782 18.7964 17.5838 18.718 17.6719C18.6508 17.7474 18.5008 17.7956 18.4218 17.8171C18.4016 17.7877 18.3911 17.7529 18.3919 17.7175C18.4762 17.6352 18.599 17.5163 18.6529 17.4681C18.5711 17.5048 18.4865 17.5353 18.3999 17.5592C18.4137 17.4545 18.4378 17.3575 18.4378 17.3575C18.1335 17.9366 17.8159 18.0231 17.581 18.044C17.58 18.0265 17.5828 18.009 17.5894 17.9927C17.596 17.9765 17.6061 17.9618 17.6191 17.9498C17.6321 17.9378 17.6476 17.9288 17.6646 17.9233C17.6815 17.9179 17.6994 17.9161 17.7172 17.9182C18.0241 17.8265 18.0908 17.4597 18.0908 17.4597C18.0908 17.4597 17.8773 17.8134 17.7706 17.8265C17.6638 17.8396 17.7305 17.6562 17.7305 17.6562L17.3435 18.0649C17.1788 18.098 17.0084 18.0928 16.8461 18.0498C16.9352 18.0126 17.1033 17.7878 17.1033 17.7878C16.9629 17.7993 16.8428 17.9921 16.8156 18.0393C16.6603 17.9984 16.5196 17.9158 16.4094 17.8009C16.1425 17.5126 16.5162 17.4078 16.5162 17.4078C16.5162 17.4078 16.5493 17.3973 16.6069 17.3758C16.6138 17.5152 16.759 17.6788 17.13 17.5257C17.4503 17.3942 17.4268 17.1369 17.3969 17.0274L17.4209 17.0148C17.5492 16.9428 17.6929 16.9014 17.8405 16.8942C17.9115 16.9467 18.0006 17.0515 18.0215 17.2506C18.0215 17.2506 18.1282 17.106 17.9905 16.9073C18.1506 16.9377 18.2829 17.0121 18.4351 17.041C18.7286 17.0934 19.6628 17.2244 19.6628 17.2244C19.6628 17.2244 20.3567 17.172 20.4902 17.3292C20.6236 17.4864 20.8371 17.434 21.1307 17.5388L21.2208 17.5708C21.2237 17.5981 21.2206 17.6256 21.212 17.6517C21.2034 17.6777 21.1893 17.7018 21.1707 17.7223C21.1707 17.7223 21.5844 17.4864 21.491 17.8401C21.491 17.8401 21.9314 17.6174 21.7445 17.9318C21.7445 17.9318 22.1315 17.696 22.0248 17.9973C22.0248 17.9973 22.3183 17.8009 22.2783 18.0629C22.3494 18.0349 22.4226 18.0122 22.4971 17.9947C22.5276 18.0052 22.5451 18.0104 22.5451 18.0104C22.732 18.0629 23.1056 18.6131 23.1056 18.6131C23.1324 18.4035 22.8654 18.089 22.8654 18.089H22.9962C23.0208 18.1273 23.04 18.1724 23.0122 18.1939C23.0122 18.1939 23.1324 18.0759 23.199 18.1284C23.2657 18.1808 23.1457 18.338 23.1457 18.338C23.1457 18.338 23.4125 18.0759 23.4793 18.1284C23.546 18.1808 23.2925 18.4428 23.2925 18.4428C23.2925 18.4428 23.5059 18.3642 23.5593 18.3118C23.6128 18.2594 23.7862 18.0498 23.8929 18.1415C23.9997 18.2332 23.3992 18.6655 23.3992 18.6655C23.3992 18.6655 23.4926 18.6786 23.7062 18.5345C23.8652 18.4219 24.0168 18.2994 24.1598 18.1676C24.1598 18.1676 24.5068 18.0759 24.3867 18.1676C24.2666 18.2594 24.1331 18.4559 23.9063 18.5738C23.6794 18.6917 24.1331 18.5476 24.3467 18.3642C24.5602 18.1808 24.9338 18.0367 24.9071 18.1415C24.8805 18.2462 24.6803 18.338 24.6803 18.338C24.6803 18.338 24.8805 18.3511 25.0005 18.2332C25.1207 18.1153 25.5343 17.9973 25.4543 18.1284C25.3742 18.2594 25.2808 18.2725 25.2808 18.2725C25.2808 18.2725 25.5343 18.2462 25.6144 18.1415C25.6945 18.0367 25.948 18.089 25.8145 18.1939C25.6811 18.2987 25.9079 18.1676 26.0014 18.1022C26.0948 18.0367 26.5085 17.945 26.4017 18.0498C26.3298 18.1193 26.2541 18.1849 26.1749 18.2462C26.1749 18.2462 26.3483 18.2725 26.4417 18.1676C26.5351 18.0629 26.9889 17.9056 26.8955 17.9973C26.8021 18.089 26.7353 18.1676 26.7353 18.1676C26.7992 18.1402 26.8615 18.1096 26.9221 18.0759C26.9709 18.0403 27.0116 17.9952 27.0417 17.9433C27.4735 17.9208 27.9022 17.912 28.1755 17.9082C28.1706 17.967 28.152 18.0555 28.0831 18.089C28.173 18.0475 28.251 17.9849 28.3105 17.9067H28.4348C28.461 17.9638 28.4749 18.0252 28.4301 18.0503L28.3367 18.1027L28.4567 18.1158L28.4637 17.9062H28.47V17.7228C28.47 17.7228 24.5735 17.8537 24.1198 17.88C23.6661 17.9062 22.8654 17.8014 22.6252 17.8014C22.385 17.8014 20.9972 17.3821 20.8905 17.3297C20.7837 17.2773 20.25 17.0153 19.7962 17.0153C19.3425 17.0153 18.4084 16.9105 18.3016 16.8581C18.1949 16.8057 17.581 16.6485 17.4476 16.8318C17.3142 17.0153 16.5135 17.3297 16.3 17.3297C16.0864 17.3297 16.1399 17.6703 16.1399 17.6703C15.9797 17.9062 14.6453 17.8537 14.6453 17.8537C14.6453 17.8537 12.7771 17.6703 12.0831 17.6703C11.6999 17.6679 11.3169 17.6854 10.9355 17.7228V17.88C10.9985 17.88 11.0743 17.88 11.1597 17.8826C11.1789 17.912 11.18 17.956 11.0957 18.0109C10.9355 18.1158 10.9355 18.2337 10.9355 18.2337C10.9355 18.2337 11.37 17.9533 11.519 17.891H11.5654C11.5782 17.9198 11.5712 17.9602 11.496 18.0094C11.3359 18.1142 11.3359 18.2321 11.3359 18.2321C11.3359 18.2321 11.7245 17.9811 11.8932 17.9015L11.9833 17.9046C11.9881 17.9318 11.9738 17.9675 11.9097 18.0094C11.7495 18.1142 11.7495 18.2321 11.7495 18.2321C11.7495 18.2321 12.0987 18.0068 12.2785 17.9177L12.3853 17.9213C12.3853 17.9465 12.3639 17.9769 12.3111 18.0116C12.1509 18.1163 12.1509 18.2342 12.1509 18.2342C12.1509 18.2342 12.4654 18.0314 12.6511 17.9323L12.8081 17.9392C12.793 17.9699 12.7685 17.9952 12.7381 18.0116C12.5779 18.1163 12.5779 18.2342 12.5779 18.2342C12.5779 18.2342 12.8582 18.0534 13.046 17.9497L13.1993 17.957C13.1825 17.978 13.1619 17.9959 13.1384 18.0094C12.9783 18.1142 12.9783 18.2321 12.9783 18.2321C12.9783 18.2321 13.2291 18.0707 13.415 17.9654C13.7923 17.9842 14.0688 18.0011 14.1126 18.0094C14.1564 18.0178 14.4397 18.0262 14.7627 18.0283L14.7531 18.1535C14.7531 18.1535 15.0734 17.9046 15.0601 18.1798C15.0601 18.1798 15.5004 17.8915 15.4737 18.1404C15.4737 18.1404 15.834 17.9177 15.7807 18.2059C15.7807 18.2059 16.3277 17.695 16.1276 18.1666C16.1276 18.1666 16.5146 17.9046 16.3411 18.2715C16.3411 18.2715 16.9016 17.9963 16.4878 18.4156C16.4878 18.4156 17.3419 17.9308 16.7147 18.5728C16.7147 18.5728 17.6622 17.9963 17.3419 18.4287C17.3419 18.4287 17.9958 18.0094 17.9424 18.2715L18.2184 18.1074C18.3785 18.0812 18.4896 18.0618 18.4896 18.0618C19.397 17.957 19.904 18.2976 20.1176 18.5335C20.3311 18.7693 21.0249 19.0051 21.0249 19.0051C21.0249 19.0051 21.7455 19.1885 22.0926 19.6601C22.4395 20.1318 22.3861 20.6034 22.573 20.8655C22.7597 21.1275 22.7331 21.4157 22.6263 21.4419C22.5884 21.4513 22.5569 21.5111 22.5276 21.586L22.4395 21.6253C22.3707 21.6837 22.2881 21.7242 22.1993 21.7432C22.0391 21.7825 22.0392 21.6515 22.1459 21.6385C22.2527 21.6253 22.4661 21.455 22.4929 21.4026C22.5195 21.3502 22.6263 21.3371 22.6263 21.3371C22.5791 21.3213 22.5288 21.3168 22.4796 21.324C22.4796 21.324 22.3594 21.5074 22.186 21.5336C22.0125 21.5599 21.9057 21.4419 22.0791 21.4026C22.2527 21.3633 22.3461 21.1406 22.3461 21.1406C22.3461 21.1406 22.2393 21.324 22.0391 21.324C21.8389 21.324 21.8923 21.1799 22.0258 21.1536C22.1592 21.1275 22.2543 20.9315 22.2543 20.9315C22.2543 20.9315 22.0008 21.1018 21.9073 21.1018C21.8139 21.1018 21.6537 21.0101 21.8939 20.9315C21.9598 20.9138 22.0211 20.8826 22.0739 20.8402C22.1268 20.7978 22.1701 20.745 22.2009 20.6852C22.2009 20.6852 21.9473 20.8817 21.8139 20.8817C21.6805 20.8817 21.7071 20.7769 21.7071 20.7769C21.7071 20.7769 21.9607 20.7114 22.0541 20.6066C22.1475 20.5017 22.2275 20.3577 22.1075 20.4494C21.9873 20.5411 21.9207 20.528 22.0007 20.3184C22.0808 20.1087 22.0541 20.0301 22.0541 20.0301C22.0141 20.397 21.5069 20.5673 21.5069 20.5673C21.5773 20.5892 21.6535 20.5846 21.7205 20.5542C21.8139 20.5017 21.7872 20.6328 21.6805 20.6983C21.6361 20.7195 21.5859 20.7262 21.5374 20.7172L21.5337 20.7114C21.4803 20.6328 21.0799 20.3708 20.8932 20.2922C20.8932 20.2922 20.7597 20.2136 20.9465 20.0956C21.0253 20.0506 21.0893 19.9842 21.1307 19.9044C21.1018 19.9594 20.8376 20.0705 20.773 20.0956C20.7085 20.1208 20.5862 20.0301 20.7197 19.9778C20.8531 19.9253 20.8932 19.7681 20.8932 19.7681C20.8299 19.839 20.7461 19.8893 20.653 19.9122C20.4795 19.9647 20.5461 19.8336 20.5862 19.8336C20.6262 19.8336 20.7063 19.7026 20.7063 19.7026C20.6569 19.7418 20.5963 19.7648 20.5328 19.7681C20.4128 19.7812 20.3327 19.6895 20.4128 19.6895C20.4928 19.6895 20.6262 19.5323 20.6262 19.5323C20.6262 19.5323 20.5195 19.5585 20.3727 19.6109C20.2259 19.6633 20.1859 19.5323 20.2526 19.5192C20.3194 19.5061 20.3593 19.4143 20.3593 19.4143C20.2965 19.4463 20.229 19.4684 20.1592 19.4799C20.0258 19.5061 19.9857 19.3751 20.0925 19.3489C20.1912 19.3248 20.2441 19.1995 20.2526 19.1812C20.2472 19.1922 20.2169 19.2409 20.0535 19.3096C19.8667 19.3882 19.88 19.2179 19.88 19.2179L20.1202 19.0476C20.1202 19.0476 20.2003 18.9165 20.0401 19.0476C19.9452 19.1257 19.8294 19.1757 19.7065 19.1917L19.6531 19.2703L19.6862 19.3033L19.6665 19.3226C19.9067 19.4537 19.88 19.6633 19.88 19.6633L20.9732 20.528C20.9732 20.528 21.4269 20.8424 21.587 21.1306C21.6461 21.2456 21.6757 21.3729 21.6735 21.5016C21.6366 21.5903 21.5797 21.6695 21.5069 21.7333C21.4018 21.8225 21.3077 21.9237 21.2267 22.0346C21.3415 21.9704 21.4529 21.9005 21.5603 21.825C21.6404 21.7594 21.8272 21.694 21.7471 21.8512C21.6671 22.0084 21.3468 22.1657 21.3468 22.1657C21.4144 22.1739 21.483 22.165 21.5461 22.1397C21.6092 22.1144 21.6647 22.0738 21.7071 22.0215C21.8673 21.8381 21.974 21.9691 21.8272 22.1001C21.6805 22.2311 21.6004 22.3229 21.4803 22.336C21.3602 22.349 21.6671 22.4015 21.7606 22.3097C21.8539 22.218 21.9207 22.336 21.7471 22.4538C21.7063 22.4839 21.6612 22.5079 21.6132 22.5252C21.6661 22.5293 21.7181 22.5404 21.768 22.5582C21.7378 22.5923 21.704 22.6232 21.6671 22.6504C21.3468 22.8862 20.9465 22.0739 20.8932 21.9429C20.8397 21.8119 20.0657 21.2355 19.9324 21.1569C19.901 21.1374 19.8707 21.1165 19.8416 21.0939C19.8362 21.0415 19.8416 20.9964 19.7589 20.9866C19.6521 20.9734 19.7722 20.8424 19.9056 20.7507C19.9438 20.7248 19.974 20.6891 19.9928 20.6475C20.0116 20.6059 20.0184 20.56 20.0124 20.5149L19.9457 20.6066C19.9457 20.6066 19.6521 20.8162 19.6254 20.8686C19.5988 20.921 19.4119 20.7638 19.6254 20.6721C19.839 20.5803 19.7722 20.3839 19.7589 20.4494C19.7455 20.5149 19.492 20.6721 19.452 20.6983C19.4119 20.7245 19.2651 20.659 19.4252 20.5411C19.5258 20.4649 19.6117 20.3717 19.6788 20.2659C19.5983 20.3323 19.5136 20.3936 19.4252 20.4494C19.3719 20.4802 19.2785 20.5385 19.2118 20.5809L19.1317 20.6333L19.3986 20.9216L19.2384 21.0002C19.6121 21.1311 19.6922 21.3146 20.0391 21.4718C20.386 21.629 20.4661 21.891 20.4661 21.891C20.5039 21.8918 20.5404 21.9052 20.5695 21.929C20.5987 21.9528 20.6186 21.9856 20.6262 22.022C20.2793 22.4151 20.386 22.0744 20.386 22.0744C19.7455 22.6509 20.0657 22.1007 20.0657 22.1007C20.0471 22.1373 19.9548 22.1955 19.8421 22.2579C19.8341 22.2443 19.8245 22.2333 19.8122 22.2333C19.7722 22.2333 19.5454 22.3905 19.4653 22.338C19.3852 22.2856 19.4119 22.3119 19.6254 22.2201C19.839 22.1284 19.7989 21.9712 19.7989 21.9712L19.7722 22.0105C19.6951 22.0834 19.6045 22.1412 19.5053 22.1808C19.3586 22.2333 19.3185 22.076 19.3719 22.076C19.4252 22.076 19.6388 21.9188 19.6388 21.9188L19.7455 21.7878C19.7455 21.7878 19.6654 21.7878 19.6521 21.8271C19.6388 21.8664 19.3986 21.9581 19.3586 21.9712C19.3085 21.976 19.2581 21.9701 19.2107 21.9539C19.2006 21.9392 19.1904 21.9251 19.1797 21.9109C19.1967 21.8963 19.2167 21.8855 19.2384 21.8795C19.2949 21.8577 19.3457 21.8239 19.3873 21.7805C19.4288 21.7371 19.46 21.6852 19.4786 21.6285C19.4653 21.694 19.2518 21.7594 19.185 21.8119C19.1703 21.8208 19.153 21.8249 19.1357 21.8237C19.1183 21.8225 19.1018 21.816 19.0884 21.805C19.0739 21.7904 19.0594 21.7768 19.0452 21.7642C19.0403 21.7588 19.0369 21.7523 19.0352 21.7452C19.0336 21.7381 19.0337 21.7308 19.0357 21.7238C19.0377 21.7169 19.0414 21.7105 19.0465 21.7053C19.0515 21.7001 19.0579 21.6962 19.065 21.694C19.1584 21.6547 19.3185 21.445 19.3185 21.445C19.2114 21.5131 19.0999 21.5743 18.9849 21.6285C18.9048 21.6547 18.7981 21.5368 18.8782 21.5236C18.9582 21.5105 19.1049 21.2878 19.1049 21.2878C19.1049 21.2878 18.9048 21.4319 18.7847 21.4319C18.6646 21.4319 18.9582 21.1306 18.9582 21.1306C18.8644 21.1946 18.7608 21.2432 18.6513 21.2747C18.5178 21.301 18.5712 21.1961 18.5712 21.1961L18.7847 20.9472C18.6605 21.0353 18.5266 21.1095 18.3854 21.1684C18.3633 21.1583 18.3404 21.1496 18.3171 21.1421C18.3632 21.0795 18.4169 21.0229 18.4772 20.9734C18.5534 20.9181 18.6248 20.8567 18.6908 20.79C18.5306 20.8424 18.2237 20.6328 18.197 20.5673C18.1704 20.5017 17.9968 20.5935 17.9968 20.5935C17.9968 20.5935 17.6232 20.8948 17.5164 20.9996C17.4585 21.0522 17.3926 21.0957 17.3211 21.1285C17.304 21.1159 17.2841 21.1075 17.2629 21.1044C17.1161 21.0782 17.9168 20.4625 17.9168 20.4625C17.3964 20.7245 17.2229 21.0782 16.9426 21.052C16.6624 21.0258 17.7172 20.2136 17.7172 20.2136C17.17 20.5149 16.6229 21.1175 16.3427 21.2878C16.0624 21.4582 16.2359 21.183 16.2359 21.183C16.2359 21.183 16.7697 20.659 16.9699 20.5017C17.17 20.3445 17.13 20.3184 17.13 20.3184C16.9832 20.3577 16.3827 20.8948 16.1292 21.0782C15.8756 21.2616 15.9957 20.9866 15.9957 20.9866L17.0633 20.0301C17.0633 20.0301 16.0379 20.79 15.8244 20.9996C15.6109 21.2092 15.6776 21.0127 15.7176 20.9603C15.7577 20.9079 16.2914 20.3577 16.2914 20.3577C16.118 20.397 15.5842 20.8686 15.4641 20.9996C15.344 21.1306 15.3574 21.0913 15.3306 20.9996C15.304 20.9079 15.8378 20.4363 15.8378 20.4363C15.6776 20.4887 15.2639 20.8424 15.0771 21.0127C14.8903 21.183 14.8236 21.1961 14.8236 21.1044C14.8236 21.0127 15.384 20.4363 15.384 20.4363C15.1305 20.5673 14.61 21.0913 14.4632 21.2485C14.4238 21.2978 14.3736 21.3379 14.3165 21.3659H14.2839C14.2209 21.3423 14.1927 21.2842 14.3432 21.1432C14.6368 20.8681 15.3574 20.1606 15.3574 20.1606C14.9906 20.3964 14.6427 20.6592 14.3165 20.9467C13.9802 21.2438 13.9087 21.3177 13.9017 21.3313C13.8451 21.3481 13.6461 21.3953 13.8894 21.1563C14.1697 20.8812 14.8903 20.2131 14.8903 20.2131C14.4283 20.5353 13.9871 20.8853 13.5692 21.2611C13.5692 21.2611 13.409 21.4838 13.329 21.3397C13.3697 21.2651 13.424 21.1985 13.4891 21.1432C13.5692 21.0908 14.0362 20.6323 14.0362 20.6323C14.0362 20.6323 13.6492 20.8026 13.2089 21.2742C13.2089 21.2742 13.0968 21.3669 12.9868 21.4445C12.9269 21.4494 12.8673 21.4581 12.8086 21.4708C12.6217 21.5231 10.9403 21.5494 10.9403 21.5494V21.8114C11.2339 21.7589 14.8903 21.5494 14.8903 21.5494C14.8369 21.7066 14.997 21.8638 14.997 21.8638C15.2639 22.5713 15.8244 22.2568 15.8244 22.2568C15.8778 22.9643 16.7851 22.8594 16.7851 22.8594C17.1322 23.5931 17.826 23.3049 17.826 23.3049C18.3065 24.1696 19.1872 23.5669 19.1872 23.5669C19.7743 23.9599 20.068 23.6979 20.2547 23.6193C20.4415 23.5407 20.3882 23.1738 20.3882 23.1738C20.9219 23.4883 21.2689 22.8332 21.2689 22.8332C21.8827 23.0952 22.0429 22.3354 22.0429 22.3354C22.4432 22.283 22.6834 21.8638 22.6834 21.8638C22.9236 21.8375 23.1905 21.6017 23.1905 21.6017C24.0713 21.5494 28.5016 21.9424 28.5016 21.9424V21.7589C28.5016 21.7589 27.9656 21.5473 26.3398 21.5473ZM16.7105 17.337C16.8461 17.2847 17.0435 17.2029 17.272 17.0913C17.3659 17.2579 17.2448 17.422 16.9319 17.4859C16.6721 17.5409 16.6933 17.3936 16.7105 17.337ZM22.5099 19.8179C22.3365 19.7917 22.4833 19.6476 22.7769 19.4117C22.8804 19.329 22.929 19.3159 22.9509 19.3279C22.9509 19.4385 22.9509 19.4851 22.8884 19.5753L22.8435 19.5952C22.8435 19.5952 22.6813 19.8467 22.5099 19.8179ZM15.344 22.1761C15.2372 22.1468 15.2015 22.0272 15.1838 21.8999C15.2553 21.9198 15.3229 21.9512 15.384 21.9927C15.4482 22.0346 15.509 22.0812 15.5661 22.1321C15.5345 22.155 15.4983 22.1708 15.46 22.1784C15.4216 22.1859 15.382 22.1852 15.344 22.1761ZM16.0016 21.7857C15.9194 21.7946 15.7977 21.9031 15.7977 21.9031L15.7886 21.9759C15.7571 21.9929 15.7244 22.008 15.691 22.021C15.5308 22.0079 15.5842 21.9817 15.3707 21.8769C15.1572 21.7721 15.6242 21.5755 15.6242 21.5755C15.6242 21.5755 15.4107 21.6017 15.304 21.6803C15.2846 21.6947 15.2624 21.705 15.2388 21.7107C15.2152 21.7162 15.1907 21.717 15.1668 21.7128C15.1641 21.682 15.1614 21.6526 15.1572 21.628C15.1558 21.6154 15.1558 21.6028 15.1572 21.5902C15.2415 21.5352 15.3707 21.4708 15.3707 21.4708L15.1641 21.5131C15.1758 21.4618 15.1913 21.4114 15.2106 21.3623C15.3269 21.313 15.486 21.2658 15.5308 21.248C15.5976 21.2219 15.7844 21.2087 15.9979 21.3791C16.0736 21.4382 16.1225 21.5242 16.1339 21.6185C16.0869 21.6719 16.0427 21.7277 16.0016 21.7857ZM17.5325 21.4713C17.5406 21.447 17.5433 21.4214 17.5404 21.3961C17.5374 21.3707 17.529 21.3463 17.5154 21.3246C17.6184 21.2967 17.6536 21.3208 17.6611 21.3559C17.6161 21.3921 17.5732 21.4305 17.5325 21.4713ZM17.6392 21.1961C17.581 21.228 17.5159 21.246 17.4492 21.2485L17.4289 21.2317C17.5891 21.0143 18.0161 20.7292 18.1196 20.6983C18.2531 20.659 18.093 20.8555 18.093 20.8555C18.093 20.8555 17.7459 21.128 17.6392 21.1935V21.1961ZM18.2531 21.0389C18.2237 21.062 18.1762 21.0955 18.1324 21.1254C18.0684 21.1336 18.0059 21.1513 17.9472 21.1778C18.0075 21.0829 18.1554 20.867 18.2797 20.8162C18.4399 20.748 18.3198 20.9839 18.251 21.0363L18.2531 21.0389ZM22.361 21.9429C22.2911 21.9775 22.1977 22.0346 22.1043 21.9141C22.1188 21.8933 22.1382 21.8762 22.1609 21.8643C22.2298 21.8278 22.2967 21.7876 22.361 21.7438C22.3966 21.7193 22.4401 21.7085 22.4833 21.7133C22.4491 21.8172 22.4144 21.9167 22.361 21.9429Z" fill="#301C3D"/>
<path d="M18.6543 17.4657C18.6641 17.4612 18.6728 17.4546 18.6798 17.4465C18.6848 17.4391 18.6744 17.4476 18.6543 17.4657Z" fill="#301C3D"/>
<path d="M21.614 22.5224C21.5761 22.5182 21.5479 22.5166 21.5479 22.5166C21.5479 22.5166 21.5607 22.5386 21.614 22.5224Z" fill="#301C3D"/>
<path d="M21.1367 19.8935C21.1406 19.8828 21.1401 19.8816 21.1367 19.8935V19.8935Z" fill="#301C3D"/>
<path d="M21.1367 19.8933L21.1328 19.902C21.1338 19.9002 21.1347 19.8985 21.1355 19.8965C21.136 19.8954 21.1365 19.8944 21.1367 19.8933Z" fill="#301C3D"/>
<path d="M22.6278 19.176C22.6059 19.176 22.543 19.2258 22.4805 19.2882C22.5798 19.2274 22.662 19.176 22.6278 19.176Z" fill="#301C3D"/>
<path d="M24.8057 20.6695C24.8057 20.6695 25.2327 20.3681 25.2994 20.3157C25.3661 20.2633 25.0459 20.6956 24.8057 20.6695Z" fill="#301C3D"/>
<path d="M25.6174 20.4075C25.6174 20.4075 24.6299 21.2329 24.5098 21.3377L25.1103 21.3508C25.1103 21.3508 25.7508 20.8267 25.8576 20.5516C25.8576 20.5516 25.217 21.1543 25.0436 21.1674C24.8701 21.1805 24.83 21.2198 25.0569 21.0232C25.2838 20.8267 25.6174 20.4599 25.6174 20.4075Z" fill="#301C3D"/>
<path d="M26.4183 20.3813C26.4183 20.3813 25.5109 21.2618 25.2861 21.3509C25.2861 21.3509 25.7665 21.4818 25.8867 21.3509C26.0067 21.2198 26.5939 20.8268 26.7407 20.5255C26.7407 20.5255 25.8199 21.2723 25.7132 21.2854C25.6064 21.2985 25.6064 21.2068 25.7799 21.0888C25.9534 20.9709 26.4605 20.46 26.4183 20.3813Z" fill="#301C3D"/>
<path d="M26.126 21.3665C26.126 21.3665 26.6864 20.9211 26.7798 20.8163C26.8732 20.7115 26.7264 20.9604 26.7264 20.9604C26.7264 20.9604 26.3641 21.377 26.126 21.3665Z" fill="#301C3D"/>
<path d="M26.9141 20.8268C26.9141 20.8268 26.9141 20.6696 27.1408 20.5386C27.1408 20.5386 27.0053 20.7902 26.9141 20.8268Z" fill="#301C3D"/>
<path d="M26.5137 21.3902C26.5137 21.3902 27.1542 20.984 27.4477 20.6172C27.4477 20.6172 26.8739 21.495 26.5137 21.3902Z" fill="#301C3D"/>
<path d="M26.8867 21.4032C26.8867 21.4032 27.5673 20.9709 27.8342 20.6826C27.8342 20.6852 27.1803 21.5762 26.8867 21.4032Z" fill="#301C3D"/>
<path d="M27.3008 21.4295C27.3008 21.4295 27.7945 21.1544 28.1148 20.8137C28.1148 20.8137 27.6878 21.5344 27.3008 21.4295Z" fill="#301C3D"/>
<path d="M27.7412 21.4712C27.7412 21.4712 28.315 21.052 28.4751 20.8816C28.4751 20.879 27.9947 21.5865 27.7412 21.4712Z" fill="#301C3D"/>
<path d="M28.1416 21.5342C28.1416 21.5342 28.4218 21.3377 28.4885 21.2591C28.5553 21.1805 28.5419 21.5997 28.1416 21.5342Z" fill="#301C3D"/>
<path d="M19.6139 22.4905L19.6006 22.4512L19.7986 22.3621C19.7986 22.3621 19.6919 22.5062 19.9054 22.5193C20.1189 22.5325 20.5459 22.218 20.666 22.1132C20.7861 22.0084 20.8394 22.2049 20.7327 22.2442C20.626 22.2835 20.4125 22.5586 20.2123 22.5979C20.0121 22.6372 20.3324 22.6634 20.5726 22.4669C20.8128 22.2704 21.053 22.218 20.8394 22.4407C20.7289 22.5641 20.5923 22.6625 20.4391 22.7289C20.4391 22.7289 20.6793 22.7289 20.7594 22.6111C20.8394 22.4931 21.0931 22.3883 20.9596 22.5979C20.8261 22.8075 20.7061 22.7919 20.7061 22.7919C20.7061 22.7919 20.8394 22.8311 20.9062 22.7656C20.9729 22.7001 21.0663 22.6346 21.0796 22.7001C21.0931 22.7656 20.9996 22.9491 20.8394 23.0277C20.6793 23.1063 20.4391 23.1194 20.2924 22.9883C20.1456 22.8574 19.7986 22.6477 19.7185 22.5953C19.6758 22.569 19.6399 22.5331 19.6139 22.4905Z" fill="#301C3D"/>
<path d="M19.0273 23.316C19.0273 23.316 19.1053 22.8863 19.2542 22.7291C19.4031 22.5719 19.6412 22.6374 19.6278 22.716C19.6145 22.7946 19.2141 23.0043 19.2141 23.0043C19.2141 23.0043 19.3075 23.0697 19.4277 22.978C19.5477 22.8863 19.868 22.6767 19.7879 22.8732C19.7079 23.0697 19.3609 23.2007 19.3609 23.2007C19.3609 23.2007 19.6679 23.1746 19.7746 23.0435C19.8814 22.9125 19.9748 22.8732 19.9881 22.9649C20.0015 23.0566 19.5611 23.3187 19.5611 23.3187C19.5611 23.3187 19.868 23.3055 19.8947 23.2269C19.9214 23.1483 20.2017 22.9387 20.1082 23.1615C20.0148 23.3841 19.868 23.3841 19.868 23.3841C19.868 23.3841 20.0549 23.3579 20.1082 23.2924C20.1616 23.2269 20.2283 23.3055 20.2017 23.3841C20.1749 23.4627 19.9748 23.6199 19.9347 23.6331C19.8947 23.6462 19.6812 23.7117 19.5878 23.6462C19.4944 23.5807 19.0273 23.316 19.0273 23.316Z" fill="#301C3D"/>
<path d="M18.6942 22.0189C18.6942 22.0189 18.6942 21.8617 18.7743 21.8748C18.8221 21.8826 18.8677 21.9004 18.9078 21.9272C18.9078 21.9272 19.2659 22.1761 19.2125 22.467C19.168 22.6617 19.0816 22.8449 18.959 23.0041C18.959 23.0041 18.9323 23.24 18.8922 23.2924C18.8522 23.3448 18.5186 23.502 18.5186 23.502C18.5186 23.502 18.7455 23.4627 18.7988 23.4758C18.8522 23.4889 19.0124 23.5413 18.9056 23.5806C18.7988 23.6199 18.2651 23.764 18.145 23.4496C18.145 23.4496 18.5453 23.3972 18.6254 23.2269C18.5139 23.2967 18.384 23.3331 18.2517 23.3317C18.0249 23.3317 18.0249 23.2269 18.1183 23.2138C18.2117 23.2007 18.572 23.1221 18.6654 23.0172C18.6654 23.0172 18.3051 23.1089 18.2384 23.0828C18.1716 23.0566 18.0382 22.978 18.1984 22.9517C18.3585 22.9255 18.5987 22.8863 18.6654 22.7814C18.7321 22.6766 19.1592 22.3884 18.9323 22.1657C18.7054 21.943 18.6942 22.0189 18.6942 22.0189Z" fill="#301C3D"/>
<path d="M18.5718 22.2155L18.6252 22.1238C18.6252 22.1238 18.6786 22.0714 18.7586 22.1631C18.8387 22.2548 18.9054 22.3203 18.8654 22.3728C18.8254 22.4251 18.6786 22.4251 18.6786 22.4251L18.772 22.4906C18.772 22.4906 18.7053 22.6478 18.6652 22.6478C18.6252 22.6478 18.3984 22.6086 18.4117 22.5431C18.425 22.4775 18.5718 22.3072 18.6519 22.2942C18.732 22.281 18.6652 22.2417 18.6652 22.2417L18.5718 22.2155Z" fill="#301C3D"/>
<path d="M18.3047 22.7657C18.3047 22.7657 18.3448 22.6478 18.3982 22.674C18.4515 22.7001 18.6538 22.8181 18.3047 22.7657Z" fill="#301C3D"/>
<path d="M17.3591 22.019C17.3933 22.0293 17.4299 22.0284 17.4636 22.0167C17.4972 22.0049 17.5261 21.9827 17.5459 21.9535C17.6184 21.8411 17.6809 21.7227 17.7327 21.5998C17.7327 21.5998 17.9307 21.3246 18.1442 21.4295C18.3578 21.5343 18.5579 21.7177 18.4512 21.888C18.3445 22.0583 18.2376 22.3989 17.904 22.281C17.5705 22.1631 17.6639 22.2679 17.6639 22.2679L17.2235 22.3858C17.2235 22.3858 17.1568 22.4906 17.1968 22.5037C17.2369 22.5168 17.3036 22.4645 17.437 22.4382C17.5474 22.4195 17.6588 22.4063 17.7706 22.3989L17.824 22.412C17.824 22.412 17.4637 22.5168 17.4103 22.5562C17.3569 22.5954 17.1701 22.6348 17.1701 22.6348C17.1701 22.6348 17.1034 22.7526 17.3036 22.6872C17.3978 22.6518 17.4967 22.6297 17.5971 22.6217C17.5971 22.6217 17.904 22.5692 17.9575 22.5168C18.0109 22.4645 17.8641 22.6086 17.6772 22.674C17.5645 22.7137 17.4569 22.7665 17.3569 22.8312C17.3569 22.8312 17.3436 22.8706 17.5037 22.8444C17.614 22.8213 17.7183 22.7768 17.8107 22.7134C17.8107 22.7134 17.7173 22.9754 17.4503 22.9492C17.2986 22.9382 17.1561 22.8729 17.05 22.7658C17.0308 22.7776 17.015 22.7941 17.0041 22.8135C16.9931 22.833 16.9873 22.8549 16.9873 22.8772C16.9873 22.8993 16.9931 22.9213 17.0041 22.9408C17.015 22.9602 17.0308 22.9767 17.05 22.9884C17.1968 23.1064 17.3436 23.1719 17.4237 23.1719C17.5037 23.1719 17.824 23.0933 17.904 22.9492C17.9841 22.8051 18.9316 21.8749 18.5847 21.4949C18.5847 21.4949 18.1843 21.0626 17.7706 21.377C17.5921 21.5626 17.4523 21.7807 17.3591 22.019Z" fill="#301C3D"/>
<path d="M17.4256 22.2285C17.4256 22.2285 17.3989 22.1499 17.4523 22.1499C17.5057 22.1499 17.6124 22.032 17.6124 22.032C17.6124 22.032 17.6925 22.2285 17.4256 22.2285Z" fill="#301C3D"/>
<path d="M18.1977 22.0582L18.1443 22.032L18.0777 22.0058C18.0777 22.0058 18.2511 21.8905 18.3045 21.8905H18.3579C18.3579 21.8905 18.3979 21.7463 18.3445 21.7071L18.2911 21.6677H18.2378L18.1844 21.7202L18.1443 21.7726H18.0376L17.9976 21.7202L18.1177 21.6809L18.1977 21.6285C18.1977 21.6285 18.0777 21.5237 18.0243 21.5368C17.9709 21.5499 17.9309 21.5237 17.8908 21.576C17.8508 21.6285 17.7841 21.7202 17.7841 21.7202C17.7841 21.7202 17.6907 21.9035 17.7307 21.9822C17.7707 22.0608 18.0109 22.1918 18.0777 22.2049C18.1443 22.218 18.2511 22.0844 18.1977 22.0582Z" fill="#301C3D"/>
<path d="M16.4365 21.4948C16.4365 21.4948 16.4633 21.5734 16.6234 21.4948C16.7835 21.4162 16.9703 21.5341 17.0103 21.5866C17.0504 21.6389 17.1972 21.8617 17.2105 22.0058C17.2239 22.1499 17.5175 21.6652 17.3039 21.4948C17.0904 21.3245 16.9302 21.1804 16.61 21.3376L16.4365 21.4948Z" fill="#301C3D"/>
<path d="M16.3449 21.8618C16.3449 21.8618 16.3183 21.757 16.4518 21.639C16.5851 21.5212 16.692 21.4818 16.7587 21.5343C16.8253 21.5866 17.1857 21.7963 17.1323 22.0059C17.079 22.2155 16.5718 22.1762 16.5585 22.1238C16.5452 22.0714 16.3449 21.8618 16.3449 21.8618Z" fill="#301C3D"/>
<path d="M16.1454 21.9795C16.1454 21.9795 16.3189 21.9009 16.2788 22.0189C16.2506 22.0936 16.1992 22.1577 16.132 22.2022C16.132 22.2022 16.2655 22.2023 16.3055 22.1761C16.3455 22.1499 16.4923 22.0581 16.479 22.1761C16.4657 22.2939 16.2767 22.4145 16.2767 22.4145C16.3388 22.4297 16.4042 22.4252 16.4635 22.4014C16.5703 22.3621 16.7837 22.1787 16.8238 22.2049C16.8638 22.2311 16.9573 22.1918 16.8638 22.2835L16.677 22.4669C16.677 22.4669 16.8238 22.4669 16.8638 22.4014C16.9039 22.3359 17.104 22.218 17.104 22.218C17.104 22.218 17.2508 22.1918 17.1707 22.2835C17.0907 22.3752 16.8238 22.742 16.5169 22.742C16.2099 22.742 15.9697 22.4014 15.9697 22.3228C15.9697 22.2442 16.092 21.9953 16.1454 21.9795Z" fill="#301C3D"/>
<path d="M16.7031 22.0583L16.7832 21.9797C16.7832 21.9797 16.8766 21.8618 16.8766 21.8225C16.8766 21.7832 16.9433 21.875 16.93 21.9273C16.9167 21.9797 16.7031 22.0583 16.7031 22.0583Z" fill="#301C3D"/>
<path d="M66.1014 8.93103C67.5646 7.9372 69.393 7.62239 71.1422 7.63695C73.2476 7.63533 75.3051 8.21642 77.2225 9.03705C77.22 10.2121 77.225 11.3881 77.22 12.5632C75.3933 11.7831 73.4998 10.9673 71.4728 10.9446C70.6757 10.9486 69.8035 11.0376 69.1622 11.5508C68.7385 11.8786 68.6008 12.5066 68.8761 12.9679C69.186 13.4834 69.7549 13.765 70.2849 14.0159C71.7663 14.6601 73.3449 15.0801 74.7767 15.8345C75.6958 16.3111 76.5622 16.9327 77.1706 17.7719C77.6083 18.3716 77.8786 19.0789 77.9949 19.8057C78.1384 20.8845 78.0255 22.02 77.5185 22.9992C76.9299 24.1744 75.8211 25.029 74.5995 25.5097C73.405 25.9856 72.1034 26.1564 70.8207 26.1377C69.5983 26.128 68.3691 25.984 67.2027 25.6173C66.2242 25.3171 65.3092 24.855 64.4017 24.3944C64.4025 23.0971 64.4017 21.7998 64.4025 20.5034C65.4535 21.1815 66.5318 21.8387 67.7072 22.2895C68.8185 22.72 70.0285 22.8989 71.2189 22.8066C71.7877 22.7557 72.3779 22.6245 72.8338 22.2684C73.3761 21.85 73.5171 21.0092 73.1247 20.4483C72.7868 19.9773 72.2534 19.6973 71.7341 19.4585C70.2107 18.7957 68.5736 18.3951 67.1096 17.5995C66.1295 17.0783 65.2186 16.3621 64.6662 15.3958C64.0735 14.3639 63.9153 13.1248 64.0983 11.9643C64.2953 10.7341 65.0595 9.6287 66.1014 8.93103Z" fill="#301C3D"/>
<path d="M42.9147 7.87083C44.4208 7.87246 45.9277 7.87732 47.4338 7.86841C47.4527 7.89269 47.4889 7.94206 47.5079 7.96633C47.4626 8.18809 47.4651 8.41469 47.4733 8.63968C47.4997 8.79911 47.5063 8.96098 47.5022 9.12203C47.4725 9.2539 47.4716 9.38832 47.4766 9.52266C47.4651 10.2235 47.4708 10.9243 47.4733 11.6244C47.4667 11.8939 47.54 12.165 47.4659 12.4305C47.4791 12.5381 47.494 12.6466 47.5096 12.7542C47.4956 12.8602 47.4815 12.9671 47.4684 13.0739C47.4692 13.1387 47.4725 13.2689 47.4733 13.3345C47.5145 13.5433 47.5145 13.7586 47.4642 13.9666C47.4783 14.0855 47.4939 14.2045 47.5121 14.3235L47.4222 14.3776L47.5113 14.4311C47.4453 14.9458 47.4543 15.4759 47.5063 15.9915C47.5022 16.1258 47.4889 16.2601 47.4725 16.3937C47.4708 16.5062 47.4708 16.6194 47.4716 16.7328C47.4873 16.8663 47.5022 17.0006 47.5096 17.1358C47.4214 17.8035 47.4931 18.4801 47.5607 19.1469C47.6168 19.3631 47.6745 19.5791 47.7454 19.792C48.0759 20.6806 48.7568 21.43 49.6199 21.8525C50.7633 22.4198 52.1111 22.4974 53.3525 22.2442C54.4464 22.0192 55.4866 21.3919 56.0464 20.4216C56.4916 19.6746 56.6613 18.7957 56.6605 17.9386C56.6597 14.5832 56.6613 11.2287 56.6597 7.87327C58.1856 7.87246 59.7122 7.87165 61.2381 7.87327C61.2364 10.9325 61.2381 13.9916 61.2373 17.0508C61.2529 18.3805 61.2413 19.7361 60.8333 21.018C60.4525 22.2838 59.7056 23.4557 58.6464 24.2796C57.2656 25.3722 55.5016 25.8772 53.7614 26.056C52.0937 26.2154 50.3898 26.1645 48.7584 25.7671C47.3283 25.4166 45.9417 24.7547 44.9179 23.6936C44.4142 23.1968 44.0218 22.6027 43.7086 21.9754C43.6228 21.7869 43.5404 21.5975 43.4654 21.4066C43.4349 21.324 43.406 21.2422 43.3788 21.1605C43.3499 21.0771 43.3236 20.9938 43.2989 20.9104C43.2602 20.7866 43.2279 20.6619 43.1884 20.5397C43.1308 20.2679 43.0812 19.9951 43.0211 19.7239C42.9938 19.4828 42.9923 19.2376 42.9378 19.0004C42.8867 17.1916 42.9271 15.3812 42.9147 13.5724C42.9147 11.6722 42.914 9.77113 42.9147 7.87083Z" fill="#301C3D"/>
<path d="M86.294 7.87248C88.0589 7.87409 89.8231 7.86924 91.5878 7.87491C91.6708 8.07238 91.7617 8.26742 91.8517 8.46327C91.9568 8.70769 92.0707 8.94886 92.1801 9.19328C92.286 9.43604 92.3999 9.67645 92.5085 9.91842C94.9114 15.2469 97.3222 20.5722 99.7242 25.9006C98.0822 25.8974 96.4403 25.9047 94.7975 25.8974C94.3102 24.7102 93.7876 23.5358 93.3118 22.3445C90.5867 22.3178 87.861 22.3469 85.1366 22.33C85.1185 22.3607 85.083 22.4223 85.0649 22.4538C85.0344 22.5339 85.0047 22.6141 84.975 22.6941C84.9305 22.8115 84.8852 22.928 84.8423 23.0454C84.7871 23.1806 84.7343 23.3157 84.6873 23.4533C84.6453 23.552 84.6049 23.6515 84.5653 23.7511C84.5241 23.8653 84.4804 23.9785 84.4425 24.0935C84.398 24.1955 84.3584 24.2982 84.3164 24.4002C84.2735 24.5175 84.2281 24.6349 84.1886 24.7531C84.1458 24.851 84.1078 24.9505 84.0683 25.0492C84.0179 25.1861 83.966 25.3219 83.9149 25.4579C83.8556 25.606 83.7979 25.7549 83.7352 25.9014C82.1253 25.8982 80.5162 25.9023 78.9062 25.899C78.9516 25.7776 79.0027 25.6579 79.0514 25.5372C79.1065 25.4021 79.1618 25.2669 79.2179 25.1326C79.2731 24.9982 79.3275 24.8639 79.3836 24.7296C79.4379 24.5944 79.4924 24.4593 79.5492 24.3249C79.7141 23.9211 79.8798 23.5181 80.0455 23.1142C80.1774 22.7889 80.3135 22.4652 80.4437 22.1389C80.4997 22.0046 80.5558 21.8703 80.6101 21.7343C80.6654 21.6 80.7215 21.4656 80.775 21.3304C80.8311 21.1953 80.888 21.0602 80.9424 20.9242C80.9976 20.7907 81.0512 20.6563 81.1055 20.5228C81.1716 20.3633 81.2375 20.2031 81.3051 20.0437C81.348 19.9296 81.3941 19.8171 81.4403 19.7038C81.4955 19.571 81.5515 19.4383 81.606 19.3055C81.6604 19.1704 81.7147 19.0361 81.7708 18.9018C81.8261 18.7666 81.8804 18.6322 81.9365 18.4979C81.991 18.3627 82.0461 18.2284 82.1014 18.094C82.3454 17.5 82.5894 16.9068 82.8309 16.3128C82.887 16.1776 82.9439 16.0425 82.9966 15.9065C83.0535 15.7714 83.1104 15.6362 83.1648 15.5002C83.2208 15.3651 83.2753 15.2283 83.3305 15.0923C83.3865 14.9571 83.4426 14.822 83.497 14.686C83.5522 14.5525 83.6075 14.4182 83.6618 14.283C83.774 14.0152 83.8828 13.7464 83.9924 13.477C84.0476 13.3434 84.1029 13.2091 84.1581 13.0747C84.2133 12.9395 84.2678 12.8052 84.3229 12.6701C84.3873 12.5155 84.4499 12.3601 84.5158 12.2056C84.7343 11.6641 84.9569 11.1243 85.1795 10.5845C85.2306 10.4485 85.2867 10.315 85.3452 10.1815C85.4102 10.0123 85.4837 9.84476 85.5496 9.67558C85.6057 9.54047 85.6625 9.40614 85.7161 9.26938C85.8818 8.8655 86.0508 8.46166 86.2124 8.05538C86.233 8.01007 86.2734 7.91861 86.294 7.87248ZM89.0234 12.1966C88.9695 12.305 88.9183 12.4143 88.8715 12.5244C88.8212 12.6595 88.77 12.7947 88.7232 12.9307C88.6895 13.0108 88.6574 13.0917 88.6268 13.1727C88.574 13.307 88.5229 13.4421 88.4743 13.5773C88.387 13.7926 88.3045 14.0094 88.2262 14.2271C88.1924 14.3049 88.1611 14.3834 88.1314 14.4627C88.0786 14.5995 88.0267 14.737 87.9781 14.8754C87.9361 14.9758 87.8956 15.0761 87.8569 15.1773C87.7803 15.3918 87.6961 15.6038 87.6129 15.8166C87.4892 16.1509 87.3557 16.4811 87.2337 16.8161C87.1925 16.9133 87.1529 17.0112 87.115 17.1092C87.0721 17.2273 87.0284 17.3446 86.9872 17.4628C86.9461 17.5599 86.9064 17.657 86.8686 17.7549C86.8249 17.8731 86.7795 17.9913 86.7375 18.1095C86.6501 18.3239 86.5693 18.5399 86.4885 18.7569C86.4316 18.8977 86.3764 19.0385 86.3244 19.1809C88.2031 19.1858 90.0818 19.1809 91.9603 19.1833C91.8914 19.0361 91.8261 18.8888 91.7652 18.7391C91.4359 17.9565 91.1031 17.1747 90.7756 16.3921C90.7077 16.2326 90.6397 16.074 90.5735 15.9162C90.5046 15.7503 90.4331 15.5868 90.366 15.4217C90.2981 15.2623 90.231 15.1028 90.163 14.9442C90.095 14.7783 90.0227 14.6148 89.9573 14.4489C89.6457 13.6979 89.3058 12.9582 89.0234 12.1966Z" fill="#301C3D"/>
<path d="M101.735 7.87231C103.257 7.87313 104.781 7.87231 106.304 7.87313C106.304 13.8822 106.304 19.8906 106.304 25.8997C104.78 25.9005 103.257 25.8997 101.735 25.9005C101.735 19.8913 101.735 13.8814 101.735 7.87231Z" fill="#301C3D"/>
<path d="M110.213 7.8741C112.659 7.87086 115.105 7.87329 117.551 7.87248C119.005 7.8482 120.476 7.93237 121.881 8.3265C123.433 8.75139 124.905 9.53075 126.021 10.6832C126.856 11.516 127.472 12.5438 127.881 13.638C127.932 13.7982 127.984 13.9577 128.043 14.1163C128.054 14.1657 128.076 14.2636 128.088 14.3121C128.121 14.4181 128.143 14.5258 128.173 14.6351C128.212 14.7912 128.239 14.9507 128.281 15.1077C128.305 15.293 128.32 15.4816 128.369 15.6637C128.479 17.0532 128.443 18.4704 128.04 19.8155C127.984 19.9741 127.932 20.1351 127.882 20.2961C127.838 20.3957 127.802 20.4985 127.761 20.5996C127.244 21.8833 126.373 23.0308 125.244 23.858C123.9 24.855 122.269 25.4183 120.619 25.6845C118.764 25.9985 116.875 25.8756 115.004 25.9006C113.407 25.8998 111.81 25.9023 110.213 25.899C110.213 19.8907 110.213 13.8824 110.213 7.8741ZM114.797 22.5938C115.908 22.5849 117.021 22.6035 118.132 22.584C119.279 22.5437 120.449 22.2846 121.418 21.6574C122.462 20.9938 123.174 19.9118 123.494 18.7432C123.52 18.6339 123.541 18.5238 123.573 18.4154C123.758 17.547 123.761 16.6413 123.648 15.7641C123.605 15.4048 123.511 15.0543 123.408 14.7079C123.377 14.6261 123.348 14.5452 123.32 14.4643C123.219 14.2191 123.109 13.9779 122.982 13.7448C122.688 13.2495 122.322 12.7898 121.864 12.4313C120.805 11.5662 119.402 11.2295 118.05 11.189C116.965 11.1704 115.881 11.1882 114.797 11.1793C114.795 14.9839 114.795 18.7893 114.797 22.5938Z" fill="#301C3D"/>
<path d="M44.6746 30.079C44.814 30.0766 44.9598 30.0451 45.0983 30.0872C45.166 30.2102 45.2179 30.3421 45.2764 30.4708C45.3811 30.716 45.4949 30.9572 45.6053 31.2008C45.8221 31.6871 46.0439 32.1727 46.2631 32.6591C46.4626 33.0857 46.6365 33.5235 46.8558 33.9411C46.6523 33.9427 46.4503 33.9452 46.2483 33.933C46.1683 33.729 46.0744 33.5316 45.9804 33.3349C45.9029 33.1617 45.8238 32.9885 45.7537 32.8137C45.1989 32.8057 44.6442 32.8121 44.0893 32.8097C44.0696 32.851 44.0283 32.9335 44.0086 32.9748C43.8784 33.2945 43.725 33.6044 43.6096 33.9297C43.4068 33.9459 43.204 33.9427 43.0029 33.9427C43.0664 33.8108 43.1257 33.6773 43.1826 33.5429C43.3235 33.2224 43.4628 32.9003 43.6014 32.5783C43.6912 32.3694 43.7827 32.1606 43.875 31.9526C43.9542 31.7608 44.0382 31.5714 44.1215 31.3821C44.2023 31.1918 44.2847 31.0033 44.3671 30.8139C44.438 30.6456 44.5139 30.4797 44.5873 30.313C44.617 30.2353 44.6458 30.1576 44.6746 30.079ZM44.8395 31.0017C44.6771 31.442 44.4883 31.8733 44.2996 32.3039C44.6953 32.3046 45.0909 32.3007 45.4866 32.3071C45.4784 32.2723 45.4627 32.2019 45.4553 32.1671C45.3489 31.9623 45.2574 31.7511 45.1627 31.5415C45.0843 31.3651 45.0027 31.1894 44.9351 31.0098C44.9112 31.0073 44.8634 31.0041 44.8395 31.0017Z" fill="#301C3D"/>
<path d="M47.2682 30.0829C47.448 30.0854 47.6293 30.087 47.8106 30.1008C48.2178 30.6316 48.6597 31.1366 49.0744 31.6627C49.5162 31.148 49.9432 30.6204 50.371 30.0943C50.5474 30.0878 50.7247 30.0854 50.9027 30.0813C50.906 31.3706 50.9069 32.659 50.9027 33.9482C50.7114 33.9433 50.521 33.9418 50.3314 33.9385C50.3306 32.9447 50.3414 31.9509 50.3265 30.957C49.8979 31.4531 49.5269 31.9978 49.0702 32.4688C48.6449 31.9808 48.2607 31.4588 47.8387 30.9676C47.8353 31.9582 47.8378 32.9479 47.8378 33.9385C47.6466 33.9418 47.457 33.9433 47.2673 33.9458C47.2658 32.6582 47.2641 31.3706 47.2682 30.0829Z" fill="#301C3D"/>
<path d="M51.7402 30.0911C52.4813 30.0822 53.2224 30.0927 53.9635 30.0854C53.9635 30.2538 53.9635 30.4213 53.9635 30.5905C53.412 30.588 52.8605 30.588 52.309 30.5905C52.3099 30.9757 52.3099 31.3609 52.309 31.7462C52.8374 31.7477 53.3666 31.7486 53.8958 31.7453C53.9041 31.9104 53.9198 32.0747 53.9371 32.2398C53.3947 32.2689 52.8514 32.2463 52.3099 32.2536C52.309 32.6493 52.309 33.0451 52.309 33.4408C52.8794 33.4416 53.4491 33.444 54.0195 33.4392C54.0187 33.6084 54.0187 33.7775 54.0187 33.9475C53.2587 33.9345 52.4995 33.9499 51.7402 33.9393C51.7419 32.6566 51.7419 31.3738 51.7402 30.0911Z" fill="#301C3D"/>
<path d="M54.5907 30.087C55.1834 30.1234 55.7983 30.0037 56.3745 30.1768C57.1263 30.4204 57.2928 31.5267 56.6903 32.005C56.2591 32.3401 55.6805 32.2738 55.1669 32.277C55.1652 32.434 55.1644 32.591 55.1652 32.7488C55.1661 33.1438 55.1644 33.5395 55.1669 33.9353C54.9748 33.9426 54.7827 33.9433 54.5915 33.945C54.589 32.659 54.5898 31.373 54.5907 30.087ZM55.1661 30.5887C55.1644 30.9845 55.1661 31.3811 55.1652 31.7769C55.4941 31.7606 55.8445 31.8302 56.1569 31.6991C56.5971 31.5082 56.5592 30.7458 56.0794 30.6252C55.781 30.5572 55.4694 30.6001 55.1661 30.5887Z" fill="#301C3D"/>
<path d="M57.5312 30.0936C57.7192 30.0878 57.9087 30.0863 58.0983 30.0854C58.0992 31.059 58.1017 32.0326 58.0967 33.0062C58.912 32.0634 59.7091 31.1051 60.5161 30.155C60.592 30.0546 60.742 30.1008 60.8517 30.0701C60.8541 31.3617 60.8525 32.6533 60.8525 33.945C60.6628 33.9426 60.4741 33.9418 60.2862 33.9418C60.2845 33.003 60.2902 32.0642 60.2828 31.1254C59.4602 32.0852 58.6317 33.041 57.8049 33.9976C57.7365 33.9952 57.6005 33.9911 57.532 33.9887C57.5313 32.6898 57.532 31.3916 57.5312 30.0936Z" fill="#301C3D"/>
<path d="M61.7158 30.0895C61.9038 30.0879 62.0934 30.0871 62.283 30.0879C62.2838 30.6132 62.2788 31.1392 62.2863 31.6652C62.4964 31.6345 62.7438 31.6199 62.8856 31.4387C63.1799 31.0825 63.2252 30.5654 63.6085 30.2733C63.8178 30.1 64.1031 30.0968 64.3628 30.0782C64.3644 30.2441 64.3652 30.4108 64.3669 30.5775C64.127 30.5969 63.8418 30.6423 63.7387 30.8883C63.5797 31.2573 63.4353 31.6555 63.0842 31.895C63.3216 32.0051 63.5286 32.1735 63.6679 32.3944C63.9753 32.8703 64.2383 33.3729 64.5408 33.852L64.4922 33.8965C64.5697 33.8997 64.6488 33.9038 64.7288 33.9079C65.2399 32.6138 65.8301 31.3504 66.3725 30.0685C66.506 30.0677 66.6396 30.0677 66.7756 30.0685C67.3575 31.3594 67.9437 32.6494 68.5265 33.9402C68.3311 33.9426 68.1374 33.9426 67.9437 33.9434C67.7738 33.5647 67.5967 33.1891 67.4276 32.8104C66.8737 32.8088 66.3198 32.8104 65.7657 32.8096C65.6009 33.1867 65.4377 33.5647 65.2737 33.9426C64.8277 33.9418 64.3825 33.9467 63.9366 33.9402C63.6274 33.4311 63.3661 32.8914 63.0043 32.4163C62.8411 32.1856 62.555 32.1112 62.2855 32.095C62.2796 32.7108 62.2846 33.3276 62.283 33.9443C62.0934 33.9426 61.9046 33.9418 61.7166 33.9418C61.7158 32.6574 61.7166 31.373 61.7158 30.0895ZM66.5638 30.9304C66.3741 31.3893 66.1796 31.845 65.9892 32.3038C66.3898 32.303 66.7904 32.3038 67.1918 32.303C66.9801 31.8465 66.783 31.3828 66.5638 30.9304Z" fill="#301C3D"/>
<path d="M70.2426 30.0878C70.4751 30.0862 70.7084 30.0862 70.9425 30.0919C71.344 30.5823 71.7528 31.0655 72.1584 31.5526C72.5639 31.0631 72.9712 30.575 73.3751 30.0846C73.6035 30.0878 73.8318 30.087 74.0618 30.0935C73.5342 30.7053 73.0264 31.3334 72.4988 31.9444C73.0618 32.6056 73.6059 33.2829 74.1789 33.9361C74.7311 32.6436 75.3024 31.3592 75.8505 30.0652C75.9866 30.0716 76.1292 30.0531 76.2636 30.0951C76.5439 30.6786 76.7985 31.2759 77.0689 31.8642C77.2899 32.3498 77.5091 32.8363 77.7292 33.3219C77.8216 33.5266 77.9131 33.7321 78.0029 33.9394C77.8109 33.9409 77.6179 33.9539 77.4284 33.932C77.2132 33.5743 77.1266 33.1324 76.8637 32.8136C76.3254 32.8022 75.7871 32.8152 75.2488 32.8079C75.0807 33.1835 74.9207 33.563 74.755 33.9401C74.3296 33.9433 73.9051 33.9433 73.4814 33.9401C73.0437 33.4076 72.5961 32.8832 72.1592 32.3498C71.714 32.8816 71.2623 33.4084 70.8171 33.9394C70.5839 33.9433 70.3506 33.9426 70.1182 33.945C70.6787 33.2765 71.2467 32.6128 71.8072 31.9444C71.283 31.3277 70.7612 30.7086 70.2426 30.0878ZM76.027 30.9489C75.8579 31.407 75.6561 31.8537 75.468 32.3045C75.8687 32.3021 76.2693 32.3069 76.6708 32.3005C76.4532 31.8513 76.2924 31.3739 76.027 30.9489Z" fill="#301C3D"/>
<path d="M79.5629 30.326C79.6066 30.2402 79.623 30.1286 79.7129 30.0743C79.8324 30.067 79.9528 30.063 80.0748 30.0638C80.1152 30.1528 80.1556 30.2411 80.1968 30.3309C80.3056 30.5737 80.4194 30.814 80.5258 31.0584C80.6345 31.2996 80.7483 31.5392 80.8538 31.7836C80.9626 32.0255 81.0772 32.266 81.1819 32.5104C81.2923 32.754 81.4078 32.9951 81.5133 33.2411C81.5982 33.4297 81.6864 33.6183 81.7704 33.8093C81.7894 33.8409 81.8265 33.9048 81.8455 33.9371C81.6493 33.9428 81.4539 33.9436 81.2602 33.9485C81.2207 33.8675 81.1811 33.7875 81.1456 33.7073C81.0747 33.5536 81.0071 33.3989 80.9396 33.2452C80.8587 33.0542 80.773 32.8665 80.689 32.6787C80.5002 32.2441 80.3089 31.8111 80.1144 31.3789C80.0353 31.1952 79.9544 31.0115 79.886 30.8237C79.6998 31.2138 79.5481 31.6185 79.3775 32.015C79.3214 32.1486 79.2669 32.2829 79.2118 32.4165C79.0353 32.8527 78.8441 33.2824 78.6759 33.7211C78.6438 33.7899 78.6108 33.8586 78.5779 33.9274C78.3858 33.9549 78.192 33.9412 78 33.9461C78.0981 33.7049 78.2028 33.467 78.3058 33.2282C78.3866 33.0388 78.4715 32.8503 78.5523 32.66C78.6339 32.4707 78.7187 32.2821 78.7987 32.0919C79.0543 31.5035 79.3131 30.9168 79.5629 30.326Z" fill="#301C3D"/>
<path d="M82.2473 30.0895C82.4361 30.0879 82.6265 30.0863 82.8177 30.0854C82.8194 30.6132 82.8136 31.1408 82.8211 31.6685C83.0131 31.6329 83.2315 31.6232 83.3824 31.4831C83.5052 31.3585 83.5786 31.1975 83.6561 31.0437C83.7839 30.7507 83.9083 30.427 84.1894 30.2408C84.3906 30.0984 84.6486 30.0992 84.886 30.075C84.8885 30.2425 84.8885 30.4108 84.8893 30.5792C84.7269 30.6075 84.5414 30.6027 84.4128 30.7184C84.2405 30.8689 84.182 31.0963 84.1037 31.3002C83.9891 31.5325 83.8292 31.7397 83.6198 31.8967C84.0369 32.0724 84.2743 32.4713 84.4788 32.8477C84.5191 32.9156 84.562 32.9852 84.6049 33.0548C84.6766 33.1827 84.7492 33.3098 84.8217 33.4393C84.9717 33.4409 85.1218 33.4417 85.2742 33.4433C85.2734 33.8439 85.2734 34.2445 85.2734 34.6451C85.083 34.6451 84.8934 34.6459 84.7046 34.6484C84.703 34.4169 84.703 34.187 84.7038 33.9572C84.3881 34.0098 84.3345 33.6505 84.1944 33.4563C84.1721 33.4182 84.1267 33.343 84.1045 33.3049C83.8918 32.9585 83.7187 32.5781 83.4187 32.2949C83.2596 32.1403 83.028 32.1233 82.8211 32.0885C82.8136 32.7076 82.8202 33.3268 82.8169 33.9458C82.6265 33.9434 82.4361 33.9426 82.2481 33.9426C82.2465 32.6582 82.2473 31.3739 82.2473 30.0895Z" fill="#301C3D"/>
<path d="M85.7809 30.0854C85.9696 30.0871 86.1593 30.0871 86.3497 30.0871C86.3497 30.6269 86.3489 31.1667 86.3497 31.7073C86.8377 31.7162 87.3701 31.6442 87.8079 31.9088C88.0502 32.0375 88.1887 32.2786 88.2984 32.5182C88.3289 32.7246 88.328 32.935 88.3 33.1422C88.1467 33.5428 87.7873 33.8496 87.3512 33.911C86.831 33.9774 86.3035 33.9248 85.7809 33.9458C85.7792 32.659 85.7783 31.3723 85.7809 30.0854ZM86.3513 32.2051C86.3488 32.6178 86.3488 33.0305 86.3505 33.444C86.6728 33.4304 87.0009 33.47 87.3207 33.4101C87.5318 33.3728 87.6479 33.1867 87.7395 33.0151C87.7387 32.9156 87.7403 32.8168 87.7436 32.7189C87.6578 32.5215 87.5458 32.3053 87.315 32.2479C87.0001 32.1702 86.6703 32.222 86.3513 32.2051Z" fill="#301C3D"/>
<path d="M89.002 30.0927C89.19 30.0886 89.3789 30.0862 89.5678 30.0813C89.5757 31.3698 89.5713 32.659 89.5704 33.9474C89.3789 33.9442 89.19 33.9418 89.002 33.9377C89.0046 32.6557 89.0037 31.3738 89.002 30.0927Z" fill="#301C3D"/>
<path d="M90.4577 30.0839C90.6502 30.0856 90.8444 30.088 91.0377 30.1009C91.0289 30.2272 91.0183 30.3542 91.0077 30.4813C91.0421 30.7807 91.0227 31.0826 91.0298 31.3844C91.0121 31.5066 90.998 31.6305 90.9856 31.7543C91.7201 31.7867 92.4554 31.7543 93.1907 31.7721C93.1925 31.2113 93.1916 30.6505 93.1916 30.0904C93.3788 30.088 93.5677 30.0863 93.7575 30.0823C93.7601 31.3707 93.7601 32.6591 93.7584 33.9484C93.5677 33.9435 93.3788 33.9419 93.1916 33.9411C93.1916 33.3826 93.1925 32.8235 93.1907 32.265C92.4572 32.2812 91.7227 32.2489 90.9892 32.282C91.0262 32.5167 91.0315 32.7546 91.028 32.9918C91.0253 33.3058 91.028 33.6197 91.0289 33.9338C90.8382 33.9427 90.6475 33.9443 90.4577 33.9467C90.4542 32.6591 90.4542 31.3715 90.4577 30.0839Z" fill="#301C3D"/>
<path d="M94.6162 30.0961C94.8042 30.0888 94.994 30.0864 95.1847 30.084C95.1856 30.6245 95.1847 31.1652 95.1847 31.7066C95.7099 31.7155 96.3014 31.6354 96.7463 31.9729C97.3307 32.3904 97.2918 33.3859 96.6563 33.7404C96.0374 34.0827 95.2924 33.8982 94.6171 33.9371C94.618 32.6568 94.6197 31.3764 94.6162 30.0961ZM95.1847 32.2117C95.1847 32.6203 95.1847 33.0299 95.1847 33.4394C95.5272 33.4272 95.8812 33.4831 96.2175 33.394C96.7154 33.2289 96.6836 32.4164 96.1937 32.2602C95.868 32.1623 95.5193 32.2229 95.1847 32.2117Z" fill="#301C3D"/>
<path d="M97.8656 30.0872C98.0484 30.0872 98.2311 30.0872 98.4147 30.0872C98.4156 31.3723 98.4156 32.6584 98.4147 33.9436C98.2311 33.9427 98.0484 33.9427 97.8656 33.9436C97.8656 32.6584 97.8647 31.3732 97.8656 30.0872Z" fill="#301C3D"/>
<path d="M99.2852 30.0904C99.4732 30.0888 99.6612 30.0872 99.8519 30.084C99.8528 30.6448 99.8519 31.2065 99.8528 31.7673C100.58 31.7681 101.308 31.7665 102.037 31.769C102.037 31.2089 102.037 30.6497 102.037 30.0904C102.224 30.088 102.413 30.0872 102.603 30.0864C102.604 31.2048 102.603 32.3225 102.603 33.4409C102.776 33.4409 102.949 33.4409 103.123 33.4418C103.123 33.8432 103.123 34.2446 103.123 34.646C102.934 34.646 102.745 34.6452 102.557 34.646C102.557 34.4113 102.557 34.1774 102.557 33.9444C102.383 33.9427 102.209 33.942 102.036 33.9395C102.038 33.3819 102.037 32.8251 102.037 32.2675C101.308 32.2691 100.58 32.2675 99.8528 32.2691C99.8528 32.8275 99.8528 33.3868 99.8519 33.9459C99.6612 33.9427 99.4732 33.942 99.2852 33.9411C99.286 32.6576 99.286 31.374 99.2852 30.0904Z" fill="#301C3D"/>
<path d="M104.737 33.9418C105.3 32.6509 105.858 31.3584 106.419 30.0676C106.55 30.0676 106.686 30.0676 106.821 30.0684C107.405 31.3593 107.989 32.6509 108.574 33.9418C108.38 33.9426 108.186 33.9426 107.994 33.9442C107.817 33.5671 107.646 33.1875 107.47 32.8104C106.918 32.8087 106.364 32.8104 105.813 32.8096C105.647 33.1867 105.482 33.5638 105.32 33.9426C105.125 33.9426 104.931 33.9426 104.737 33.9418ZM106.036 32.3037C106.436 32.3037 106.836 32.3037 107.237 32.3037C107.031 31.8433 106.821 31.3844 106.615 30.9247C106.419 31.3836 106.227 31.844 106.036 32.3037Z" fill="#301C3D"/>
<path d="M108.552 30.0864C109.642 30.0921 110.733 30.084 111.824 30.0904C111.823 30.2564 111.823 30.4223 111.824 30.5881C111.369 30.5906 110.916 30.5874 110.462 30.5906C110.458 31.7082 110.462 32.8259 110.46 33.9435C110.273 33.9427 110.089 33.9427 109.905 33.9435C109.905 32.8267 109.904 31.7099 109.906 30.593C109.454 30.5849 109.002 30.5898 108.552 30.5898C108.55 30.4215 108.55 30.254 108.552 30.0864Z" fill="#301C3D"/>
<path d="M112.347 30.084C112.534 30.0872 112.723 30.088 112.913 30.0896C112.912 30.6286 112.913 31.1684 112.913 31.7074C113.435 31.7131 114.021 31.6403 114.466 31.9737C115.045 32.3783 115.022 33.3503 114.411 33.717C113.792 34.0925 113.031 33.8885 112.347 33.9468C112.346 32.6592 112.345 31.3716 112.347 30.084ZM112.913 32.2068C112.913 32.6187 112.912 33.0314 112.913 33.4442C113.252 33.4264 113.603 33.4814 113.937 33.3924C114.411 33.2419 114.414 32.507 113.988 32.2974C113.654 32.1388 113.267 32.2326 112.913 32.2068Z" fill="#301C3D"/>
<path d="M115.562 30.0911C115.751 30.0879 115.943 30.0862 116.135 30.0854C116.137 31.3723 116.136 32.6582 116.135 33.9442C115.943 33.9434 115.752 33.9426 115.563 33.941C115.562 32.6575 115.563 31.3747 115.562 30.0911Z" fill="#301C3D"/>
<path d="M117.016 30.084C117.204 30.0864 117.393 30.0888 117.584 30.0937C117.582 30.6529 117.582 31.2113 117.584 31.7705C118.308 31.7665 119.032 31.7657 119.756 31.7705C119.761 31.2081 119.755 30.6465 119.76 30.084C119.948 30.0872 120.137 30.0872 120.328 30.088C120.328 31.3732 120.328 32.6583 120.328 33.9435C120.136 33.9427 119.947 33.9427 119.758 33.9459C119.756 33.3859 119.759 32.8259 119.756 32.2658C119.032 32.2699 118.307 32.2691 117.583 32.2667C117.582 32.8234 117.581 33.3803 117.584 33.9371C117.394 33.942 117.204 33.9435 117.016 33.9468C117.014 32.6592 117.015 31.3716 117.016 30.084Z" fill="#301C3D"/>
<path d="M122.413 30.0872C122.553 30.0751 122.694 30.0678 122.839 30.0637C123.116 30.6836 123.395 31.3036 123.679 31.9219C123.784 32.1671 123.895 32.41 124.01 32.6519C124.116 32.9004 124.228 33.1472 124.345 33.3924C124.423 33.5754 124.504 33.7582 124.584 33.9412C124.385 33.9436 124.187 33.9452 123.99 33.9315C123.92 33.7493 123.837 33.5737 123.759 33.3965C123.668 33.2023 123.578 33.0088 123.495 32.813C122.94 32.8065 122.386 32.8113 121.832 32.8098C121.813 32.8527 121.775 32.9368 121.757 32.9789C121.695 33.114 121.637 33.25 121.578 33.3851C121.502 33.5672 121.42 33.7469 121.351 33.9323C121.148 33.9444 120.946 33.9427 120.745 33.942C120.905 33.6304 121.03 33.3034 121.171 32.9838C121.335 32.6058 121.502 32.2294 121.663 31.8499C121.827 31.4727 121.993 31.0964 122.154 30.7168C122.212 30.5817 122.271 30.4474 122.336 30.3146C122.361 30.2385 122.387 30.1633 122.413 30.0872ZM122.582 31.0058C122.424 31.4461 122.237 31.8766 122.043 32.3039C122.443 32.3031 122.844 32.3063 123.247 32.3007C123.069 31.8636 122.851 31.4444 122.68 31.0058C122.655 31.0058 122.607 31.0058 122.582 31.0058Z" fill="#301C3D"/>
<path d="M125.018 30.0848C125.207 30.0872 125.395 30.088 125.587 30.0896C125.586 30.6497 125.585 31.2105 125.588 31.7714C126.309 31.7649 127.03 31.7665 127.752 31.7705C127.754 31.2113 127.754 30.6529 127.753 30.0937C127.941 30.088 128.131 30.0864 128.322 30.084C128.324 31.3716 128.324 32.6592 128.321 33.9476C128.131 33.9444 127.941 33.942 127.752 33.9371C127.754 33.3795 127.754 32.8227 127.752 32.2658C127.03 32.2699 126.308 32.2699 125.587 32.2658C125.585 32.8243 125.586 33.3827 125.587 33.942C125.395 33.942 125.207 33.9435 125.018 33.9468C125.016 32.6592 125.017 31.3716 125.018 30.0848Z" fill="#301C3D"/>
</g>
<defs>
<clipPath id="clip0_17_17112">
<rect width="128" height="39" fill="white" transform="translate(0.422852 0.5)"/>
</clipPath>
</defs>
</svg>
