<svg width="95" height="30" viewBox="0 0 95 30" fill="none" xmlns="http://www.w3.org/2000/svg">
<g clip-path="url(#clip0_2_1929)">
<path d="M47.1783 6.13083C49.7953 6.13083 51.9225 7.06207 53.5597 8.92458C55.1969 10.7871 55.8671 13.0386 55.5701 15.6793H42.0709C42.2677 16.9268 42.9148 18.0602 43.8911 18.8676C44.7881 19.5744 45.879 19.9953 47.0206 20.0749C48.1623 20.1544 49.3015 19.889 50.2888 19.3134C51.123 18.7999 51.801 18.0705 52.2503 17.2032L55.0593 18.4407C54.3507 19.801 53.2804 20.9422 51.965 21.7397C50.574 22.5779 48.9727 23.0069 47.3467 22.9771C44.9017 22.9771 42.8488 22.1738 41.188 20.567C40.377 19.7974 39.736 18.8684 39.3057 17.839C38.8754 16.8096 38.6652 15.7023 38.6887 14.5877C38.6669 13.4724 38.8715 12.3641 39.2903 11.3292C39.7091 10.2943 40.3334 9.35393 41.1259 8.56451C41.9185 7.77502 42.8629 7.15263 43.9028 6.73445C44.9427 6.3163 46.0567 6.11101 47.1783 6.13083ZM47.1783 9.01911C46.007 8.99672 44.8673 9.39698 43.9698 10.1459C43.0633 10.9024 42.4299 11.9327 42.166 13.0801H52.1878C51.9455 11.9319 51.3216 10.8983 50.4166 10.1459C49.5093 9.39363 48.3591 8.99344 47.1783 9.01911Z" fill="white"/>
<path d="M71.8469 8.82712V6.44949H75.1965V20.9208C75.2239 22.0377 75.0169 23.1481 74.5883 24.1809C74.1597 25.2138 73.5192 26.1463 72.7083 26.919C71.0472 28.5258 68.9943 29.33 66.5493 29.3318C64.9235 29.3594 63.3228 28.9305 61.9309 28.0943C60.611 27.3016 59.5525 26.1428 58.8855 24.7602L61.9147 23.2688C62.3266 24.1584 62.9724 24.921 63.7837 25.4762C64.5987 26.021 65.5621 26.3039 66.5439 26.2868C67.2443 26.3015 67.9401 26.1724 68.588 25.9074C69.2359 25.6423 69.8219 25.2472 70.3091 24.7467C70.8122 24.2461 71.2071 23.6489 71.4702 22.9917C71.7339 22.3344 71.8602 21.6308 71.8413 20.9235V19.9698C70.3925 21.744 68.4564 22.632 66.0331 22.6338C64.9656 22.6564 63.905 22.457 62.9194 22.0485C61.9337 21.64 61.0447 21.0314 60.3091 20.2615C58.7751 18.6927 58.0081 16.7329 58.0081 14.3822C57.9795 13.2996 58.1694 12.2223 58.5664 11.2139C58.9636 10.2054 59.5598 9.2864 60.32 8.51101C61.0548 7.73826 61.9443 7.12717 62.9311 6.71719C63.918 6.30721 64.9802 6.10741 66.0494 6.13067C68.4872 6.13067 70.4196 7.02949 71.8469 8.82712ZM66.6444 19.5888C67.3335 19.6086 68.0194 19.4867 68.659 19.2305C69.2984 18.9743 69.8779 18.5894 70.3608 18.1001C70.8487 17.6139 71.2324 17.0341 71.4877 16.3959C71.7431 15.7576 71.8651 15.0744 71.8469 14.3877C71.8469 13.0154 71.299 11.6993 70.323 10.729C69.3474 9.75866 68.0242 9.21349 66.6444 9.21349C65.2646 9.21349 63.9413 9.75866 62.9657 10.729C61.9901 11.6993 61.4419 13.0154 61.4419 14.3877C61.4273 15.0726 61.5516 15.7536 61.8074 16.3897C62.0632 17.0258 62.4453 17.6042 62.931 18.0901C63.4166 18.5761 63.9956 18.9598 64.6337 19.2182C65.2717 19.4766 65.9555 19.6045 66.6444 19.5942V19.5888Z" fill="white"/>
<path d="M78.8008 15.9384V6.4494H82.1532V15.9384C82.1315 16.4706 82.2227 17.0013 82.4205 17.4961C82.6183 17.9909 82.9185 18.4388 83.3023 18.8106C83.6944 19.1765 84.156 19.4616 84.659 19.6494C85.1626 19.8372 85.6986 19.924 86.2359 19.9048C86.769 19.9226 87.3001 19.835 87.7988 19.6471C88.2969 19.4593 88.7529 19.175 89.1401 18.8106C89.5238 18.4388 89.824 17.9909 90.0219 17.4961C90.2204 17.0013 90.3116 16.4706 90.2898 15.9384V6.4494H93.6395V15.9384C93.6395 18.0099 92.9429 19.7022 91.5497 21.0153C90.1572 22.3284 88.386 22.9841 86.2359 22.9822C84.0627 22.9822 82.2816 22.3266 80.8926 21.0153C79.5037 19.704 78.8064 18.0117 78.8008 15.9384Z" fill="white"/>
<path d="M14.9408 19.9914C17.9655 19.9914 20.4176 17.5527 20.4176 14.5444C20.4176 11.5361 17.9655 9.09741 14.9408 9.09741C11.916 9.09741 9.46399 11.5361 9.46399 14.5444C9.46399 17.5527 11.916 19.9914 14.9408 19.9914Z" fill="#E94A43"/>
<path d="M14.9406 6.99232C16.0583 6.99232 16.9645 6.0911 16.9645 4.9794C16.9645 3.86771 16.0583 2.96649 14.9406 2.96649C13.8228 2.96649 12.9166 3.86771 12.9166 4.9794C12.9166 6.0911 13.8228 6.99232 14.9406 6.99232Z" fill="#E94A43"/>
<path d="M14.9406 26.1167C16.0583 26.1167 16.9645 25.2155 16.9645 24.1037C16.9645 22.9921 16.0583 22.0909 14.9406 22.0909C13.8228 22.0909 12.9166 22.9921 12.9166 24.1037C12.9166 25.2155 13.8228 26.1167 14.9406 26.1167Z" fill="#E94A43"/>
<path d="M5.32654 16.5546C6.44432 16.5546 7.35046 15.6534 7.35046 14.5417C7.35046 13.43 6.44432 12.5288 5.32654 12.5288C4.20875 12.5288 3.30261 13.43 3.30261 14.5417C3.30261 15.6534 4.20875 16.5546 5.32654 16.5546Z" fill="#E94A43"/>
<path d="M24.5559 16.5546C25.6737 16.5546 26.5798 15.6534 26.5798 14.5417C26.5798 13.43 25.6737 12.5288 24.5559 12.5288C23.4381 12.5288 22.532 13.43 22.532 14.5417C22.532 15.6534 23.4381 16.5546 24.5559 16.5546Z" fill="#E94A43"/>
<path d="M8.14347 23.3141C9.26123 23.3141 10.1673 22.4129 10.1673 21.3012C10.1673 20.1895 9.26123 19.2883 8.14347 19.2883C7.02565 19.2883 6.11951 20.1895 6.11951 21.3012C6.11951 22.4129 7.02565 23.3141 8.14347 23.3141Z" fill="#E94A43"/>
<path d="M21.7417 9.79188C22.8595 9.79188 23.7657 8.89062 23.7657 7.77895C23.7657 6.66726 22.8595 5.76605 21.7417 5.76605C20.624 5.76605 19.7178 6.66726 19.7178 7.77895C19.7178 8.89062 20.624 9.79188 21.7417 9.79188Z" fill="#E94A43"/>
<path d="M21.7417 23.3141C22.8595 23.3141 23.7657 22.4129 23.7657 21.3012C23.7657 20.1895 22.8595 19.2883 21.7417 19.2883C20.624 19.2883 19.7178 20.1895 19.7178 21.3012C19.7178 22.4129 20.624 23.3141 21.7417 23.3141Z" fill="#E94A43"/>
<path d="M8.14347 9.79188C9.26123 9.79188 10.1673 8.89062 10.1673 7.77895C10.1673 6.66726 9.26123 5.76605 8.14347 5.76605C7.02565 5.76605 6.11951 6.66726 6.11951 7.77895C6.11951 8.89062 7.02565 9.79188 8.14347 9.79188Z" fill="#E94A43"/>
<path d="M9.64912 4.02581C10.7669 4.02581 11.6731 3.1246 11.6731 2.01291C11.6731 0.901207 10.7669 0 9.64912 0C8.53136 0 7.62524 0.901207 7.62524 2.01291C7.62524 3.1246 8.53136 4.02581 9.64912 4.02581Z" fill="#E94A43"/>
<path d="M20.2332 29.0914C21.3511 29.0914 22.2572 28.1901 22.2572 27.0784C22.2572 25.9667 21.3511 25.0655 20.2332 25.0655C19.1155 25.0655 18.2094 25.9667 18.2094 27.0784C18.2094 28.1901 19.1155 29.0914 20.2332 29.0914Z" fill="#E94A43"/>
<path d="M20.2332 4.02581C21.3511 4.02581 22.2572 3.1246 22.2572 2.01291C22.2572 0.901207 21.3511 0 20.2332 0C19.1155 0 18.2094 0.901207 18.2094 2.01291C18.2094 3.1246 19.1155 4.02581 20.2332 4.02581Z" fill="#E94A43"/>
<path d="M9.64912 29.0914C10.7669 29.0914 11.6731 28.1901 11.6731 27.0784C11.6731 25.9667 10.7669 25.0655 9.64912 25.0655C8.53136 25.0655 7.62524 25.9667 7.62524 27.0784C7.62524 28.1901 8.53136 29.0914 9.64912 29.0914Z" fill="#E94A43"/>
<path d="M2.34106 21.8206C3.45884 21.8206 4.36498 20.9194 4.36498 19.8077C4.36498 18.696 3.45884 17.7948 2.34106 17.7948C1.22328 17.7948 0.317139 18.696 0.317139 19.8077C0.317139 20.9194 1.22328 21.8206 2.34106 21.8206Z" fill="#E94A43"/>
<path d="M27.5441 11.2942C28.6618 11.2942 29.568 10.393 29.568 9.28123C29.568 8.16956 28.6618 7.26837 27.5441 7.26837C26.4263 7.26837 25.5201 8.16956 25.5201 9.28123C25.5201 10.393 26.4263 11.2942 27.5441 11.2942Z" fill="#E94A43"/>
<path d="M2.34106 11.2942C3.45884 11.2942 4.36498 10.393 4.36498 9.28123C4.36498 8.16956 3.45884 7.26837 2.34106 7.26837C1.22328 7.26837 0.317139 8.16956 0.317139 9.28123C0.317139 10.393 1.22328 11.2942 2.34106 11.2942Z" fill="#E94A43"/>
<path d="M27.5441 21.8206C28.6618 21.8206 29.568 20.9194 29.568 19.8077C29.568 18.696 28.6618 17.7948 27.5441 17.7948C26.4263 17.7948 25.5201 18.696 25.5201 19.8077C25.5201 20.9194 26.4263 21.8206 27.5441 21.8206Z" fill="#E94A43"/>
</g>
<defs>
<clipPath id="clip0_2_1929">
<rect width="94" height="30" fill="white" transform="translate(0.317139)"/>
</clipPath>
</defs>
</svg>
