<svg width="110" height="55" viewBox="0 0 110 55" fill="none" xmlns="http://www.w3.org/2000/svg">
<g clip-path="url(#clip0_2_1756)">
<path d="M94.0461 -0.000366211C88.3716 -0.000366211 83.6985 4.58928 83.6985 10.3472C83.6985 16.0217 88.2881 20.6948 94.0461 20.6948C99.7205 20.6948 104.394 16.1051 104.394 10.3472C104.394 4.58928 99.7205 -0.000366211 94.0461 -0.000366211ZM102.057 4.58928C101.556 4.92308 100.972 5.25687 100.388 5.59066C100.054 4.92308 99.6371 4.25549 99.1364 3.67135C99.5536 3.42101 99.9709 3.08722 100.305 2.83687C101.056 3.25411 101.64 3.9217 102.057 4.58928ZM97.7178 1.16791C98.5523 1.5017 99.3033 1.91894 100.054 2.50308C99.7205 2.83687 99.3033 3.08722 98.886 3.33756C98.3854 2.75342 97.8012 2.25273 97.2171 1.75205C97.384 1.5017 97.5509 1.3348 97.7178 1.16791ZM98.5523 3.50446C97.9681 3.83825 97.384 4.00515 96.7998 4.25549C96.5495 3.67135 96.2992 3.08722 95.9654 2.58653C96.2992 2.41963 96.6329 2.25273 96.8833 2.00239C97.4674 2.41963 98.0516 2.92032 98.5523 3.50446ZM97.3005 1.00101C97.1336 1.16791 96.9667 1.3348 96.8833 1.5017C96.2992 1.16791 95.7985 0.834115 95.1309 0.583771C95.8819 0.583771 96.6329 0.750667 97.3005 1.00101ZM96.5495 1.75205C96.2992 1.91894 96.0488 2.08584 95.7985 2.16929C95.4647 1.6686 95.1309 1.25136 94.7971 0.750667C95.3812 1.00101 95.9654 1.3348 96.5495 1.75205ZM94.213 0.834115C94.6302 1.25136 94.964 1.75205 95.2978 2.33618C94.964 2.41963 94.6302 2.50308 94.213 2.50308V0.834115ZM94.213 2.92032C94.6302 2.92032 95.1309 2.83687 95.5481 2.66997C95.8819 3.17066 96.1323 3.7548 96.3826 4.33894C95.715 4.50583 94.964 4.58928 94.213 4.67273V2.92032ZM93.7957 0.834115V2.50308C93.4619 2.50308 93.1281 2.41963 92.7109 2.33618C93.1281 1.83549 93.4619 1.3348 93.7957 0.834115ZM92.3771 2.16929C92.1267 2.08584 91.793 1.91894 91.6261 1.75205C92.2102 1.41825 92.7943 1.08446 93.3785 0.834115C92.9612 1.25136 92.6274 1.6686 92.3771 2.16929ZM92.9612 0.500323C92.3771 0.750667 91.793 1.08446 91.2088 1.41825C91.0419 1.25136 90.875 1.08446 90.7916 0.917564C91.4592 0.750667 92.2102 0.583771 92.9612 0.500323ZM100.054 18.1913C98.7192 17.4403 98.6357 16.3555 98.7192 16.0217C98.8026 15.6044 99.0529 15.7713 99.2198 15.7713C100.138 15.7713 101.056 15.521 102.224 14.2693C103.559 12.9341 103.976 9.92997 101.89 8.01066C99.7205 5.92445 97.384 6.25825 95.8819 8.17755C95.5481 8.59479 94.7971 8.84514 94.213 8.84514C93.2116 8.84514 93.8792 9.59617 93.8792 9.76307C93.8792 9.92996 93.7123 10.0134 93.6288 10.0134C93.295 9.92996 93.4619 10.4307 93.4619 10.5141C93.4619 10.5976 93.295 10.7644 93.295 10.7644C92.8778 10.7644 92.9612 11.0982 93.0447 11.2651C93.0447 11.3486 93.0447 11.5155 92.8778 11.5989C92.7109 11.6824 92.6274 12.0162 92.6274 12.2665C92.6274 12.6838 93.0447 13.0175 93.7123 13.5182C94.3799 14.0189 94.4633 14.5196 94.4633 14.8534C94.4633 15.1872 94.5467 15.7713 94.6302 16.1051C94.7971 16.5224 94.7971 17.3569 93.8792 17.3569C92.7109 17.4403 90.7081 18.2748 90.5412 18.3582C89.8736 18.6086 89.0392 18.692 88.3716 18.5251C88.0378 18.2748 87.704 18.0244 87.3702 17.6906C87.2033 17.2734 87.4536 16.7727 87.704 16.4389C88.1212 16.8562 88.6219 16.7727 88.9557 16.7727C89.2895 16.7727 90.7916 16.5224 91.0419 16.4389C91.2923 16.3555 91.3757 16.3555 91.4592 16.4389C92.0433 16.6893 92.8778 16.6893 93.2116 15.6044C93.5454 14.4362 92.7943 14.77 92.6274 14.8534C92.544 14.9369 92.3771 14.8534 92.4605 14.77C92.6274 14.5196 92.3771 14.5196 92.2936 14.5196C91.9599 14.5196 91.5426 14.8534 91.4592 14.9369C91.2923 15.0203 91.2088 15.0203 91.1254 15.0203C90.7081 14.77 89.4564 15.1038 89.0392 14.4362C89.0392 14.2693 88.7054 11.5155 88.5385 11.0148C88.5385 10.9313 88.455 10.7644 88.6219 10.5975C88.9557 10.0969 89.7902 10.5975 90.2909 10.5975C90.875 10.5975 90.9585 10.3472 91.1254 10.1803C91.2923 10.0134 91.3757 10.0969 91.4592 10.0134C91.5426 9.92996 91.4592 9.84652 91.4592 9.76307C91.4592 9.67962 91.5426 9.76307 91.6261 9.67962C91.7095 9.59617 91.6261 9.42928 91.6261 9.34583C91.793 9.09548 92.1267 9.26238 91.9598 8.76169C91.8764 8.4279 92.0433 8.09411 92.2102 7.92721C92.4605 7.59342 93.5454 6.09135 91.7095 4.50583C89.9571 3.00377 88.1212 3.17066 86.953 4.42239C85.7847 5.67411 86.3688 7.50997 86.4523 8.01066C86.5357 8.51135 86.2019 8.92859 85.7847 9.09548C85.4509 9.26238 84.6999 9.76307 84.1992 10.1803C84.2826 6.1748 86.7026 2.66997 90.3743 1.25136C90.5412 1.41825 90.7081 1.6686 90.875 1.83549C90.4578 2.16929 89.5399 2.92032 89.5399 2.92032C89.5399 2.92032 89.6233 2.92032 89.7902 3.00377C89.8736 3.00377 90.0405 3.08722 90.0405 3.08722C90.0405 3.08722 90.7916 2.41963 91.2088 2.16929C91.4592 2.41963 91.793 2.58653 92.1267 2.75342C91.9599 3.08722 91.4592 3.9217 91.4592 3.9217C91.4592 3.9217 91.5426 4.00515 91.6261 4.00515C91.7095 4.08859 91.793 4.08859 91.793 4.08859C91.793 4.08859 92.2936 3.17066 92.4605 2.83687C92.8778 3.00377 93.295 3.08722 93.7123 3.08722V4.75618C93.4619 4.75618 92.8778 4.75618 92.6274 4.67273H92.4605L92.544 4.83963C92.6274 4.92308 92.6274 5.00652 92.7109 5.08997C92.8778 5.08997 93.4619 5.08997 93.7123 5.08997V8.17755H94.1295V7.42652C94.7971 7.42652 95.2978 7.34307 95.8819 7.25962L96.4661 6.75894H96.1323C95.4647 6.84238 94.8805 6.92583 94.3798 6.92583C94.3798 6.92583 94.213 6.92583 94.1295 6.92583V5.00652C94.8805 5.00652 95.715 4.92308 96.4661 4.67273C96.6329 5.17342 97.0502 6.42514 97.0502 6.42514L97.4674 6.25825C97.4674 6.25825 97.0502 5.00652 96.8833 4.50583C97.5509 4.33894 98.135 4.00515 98.7192 3.7548C99.2198 4.33894 99.6371 5.00652 99.9709 5.67411C99.6371 5.84101 99.1364 6.0079 99.1364 6.0079C99.5536 6.09135 99.8874 6.1748 99.8874 6.1748C99.8874 6.1748 100.054 6.09135 100.138 6.09135C100.138 6.1748 100.221 6.34169 100.221 6.34169L100.805 6.59204L100.722 6.42514C100.722 6.42514 100.555 6.0079 100.472 5.92445C101.056 5.67411 101.64 5.34032 102.224 4.92308C103.309 6.50859 103.809 8.4279 103.809 10.3472C103.976 13.5182 102.391 16.3555 100.054 18.1913Z" fill="#00AEEF"/>
<path d="M82.7805 2.75343L82.6136 2.92033C82.0295 3.42102 80.6109 4.83964 80.8612 6.42515V6.5086L80.9447 6.84239L81.1116 6.67549C81.9461 5.92446 82.6136 4.58929 82.864 3.08722L82.9474 2.66998L82.7805 2.75343Z" fill="#00AEEF"/>
<path d="M79.9433 5.42378L79.8599 5.59068C79.7764 5.84102 79.6095 6.42516 79.5261 7.09274C79.3592 8.09412 79.4426 9.59619 80.2771 10.681L80.3606 10.8479L80.444 11.0148L80.6109 10.3472C80.7778 9.17895 80.5274 6.75895 80.1102 5.67412L79.9433 5.34033V5.42378Z" fill="#00AEEF"/>
<path d="M78.942 9.59617V9.76307C78.8585 10.7644 78.942 13.3513 81.0282 14.77L81.2785 14.9369V14.6031C81.2785 13.6017 80.1102 10.681 79.2757 9.67962L79.0254 9.34583L78.942 9.59617Z" fill="#00AEEF"/>
<path d="M79.2758 14.1858V14.3527C79.6095 15.8548 80.9447 18.1913 83.1144 18.9424L83.4482 19.0258L83.3647 18.692C82.9475 17.6072 80.8613 15.0203 79.5261 14.1858L79.2758 14.0189V14.1858Z" fill="#00AEEF"/>
<path d="M83.6985 5.00654L83.4481 5.08999C81.8626 6.09137 81.1116 7.25964 81.1116 8.76171V9.0955L81.3619 8.92861C82.1964 8.17757 83.3647 6.34171 83.615 5.34034L83.6985 4.9231V5.00654Z" fill="#00AEEF"/>
<path d="M82.6971 8.17756L82.6136 8.34446C82.1964 8.7617 80.8612 10.1803 80.9447 11.9327C80.9447 12.1831 81.0281 12.5169 81.1116 12.7672L81.195 13.0176L81.3619 12.7672C82.0295 11.8493 82.864 9.51274 82.7805 8.42791V8.09412L82.6971 8.17756Z" fill="#00AEEF"/>
<path d="M82.7806 11.2652L82.6972 11.432C82.0296 12.4334 81.6958 13.4348 81.6958 14.4362C81.6958 15.1038 81.9461 15.7714 82.3634 16.4389L82.5303 16.6893L82.6137 16.4389C82.8641 15.8548 83.1144 14.1024 83.1144 12.6838C83.1144 12.1831 83.031 11.7658 82.9475 11.5155L82.8641 11.1817L82.7806 11.2652Z" fill="#00AEEF"/>
<path d="M83.5316 14.5196L83.4482 14.6865C83.2813 15.3541 83.1144 15.9382 83.1979 16.6058C83.1979 17.941 83.8654 19.0258 85.0337 19.7769L85.2006 19.8603L85.2841 19.61V19.3596C85.2841 18.2748 84.4496 15.4375 83.782 14.6031L83.6151 14.3527L83.5316 14.5196Z" fill="#00AEEF"/>
<path d="M81.2785 18.8589L81.362 19.0258C82.1964 20.4444 83.6985 22.3637 86.4523 21.863H86.7026L86.5357 21.6961C86.0351 20.9451 82.6971 19.0258 81.5289 18.8589L81.1951 18.7755L81.2785 18.8589Z" fill="#00AEEF"/>
<path d="M85.3674 22.5307L84.9502 22.6141L85.3674 22.781C87.1198 23.532 89.2895 23.6989 90.6247 23.2817C91.1254 23.1148 91.3757 22.8644 91.7095 22.5307C93.9626 22.781 96.0488 24.6169 97.3005 26.1189L97.384 26.2024H97.4674C97.6343 26.1189 97.8012 25.952 97.8847 25.8686L97.9681 25.7851L97.8847 25.7017C96.6329 24.0327 94.6302 23.0313 94.5467 22.9479C92.7109 22.1134 89.5398 21.4458 85.3674 22.5307Z" fill="#00AEEF"/>
<path d="M85.4509 17.8576V18.0245C85.7012 19.6934 86.3688 21.8631 89.206 21.6127H89.3729L89.2895 21.4458C89.1226 20.6948 86.5357 18.5251 85.6178 17.941L85.3674 17.7741L85.4509 17.8576Z" fill="#00AEEF"/>
<path d="M105.145 2.58655L105.228 3.00379C105.478 4.50586 106.146 5.84103 106.981 6.59206L107.147 6.75896L107.231 6.42516V6.34172C107.481 4.7562 106.063 3.33758 105.478 2.83689L105.312 2.67L105.145 2.58655Z" fill="#00AEEF"/>
<path d="M108.065 5.2569L107.899 5.59069C107.481 6.67552 107.314 9.09551 107.398 10.2638L107.565 10.9314L107.648 10.8479L107.732 10.681C108.65 9.5962 108.65 8.17758 108.483 7.09276C108.399 6.34172 108.232 5.84103 108.149 5.59069L108.065 5.42379V5.2569Z" fill="#00AEEF"/>
<path d="M109.15 9.42926L108.9 9.76305C108.065 10.8479 106.897 13.6851 106.897 14.6865V15.0203L107.147 14.8534C109.234 13.5182 109.317 10.9313 109.234 9.8465V9.6796L109.15 9.42926Z" fill="#00AEEF"/>
<path d="M108.816 14.0189L108.483 14.1858C107.147 15.0203 105.061 17.6072 104.644 18.692L104.561 19.0258L104.894 18.9424C107.064 18.2748 108.483 15.8548 108.733 14.3527V14.1858L108.816 14.0189Z" fill="#00AEEF"/>
<path d="M104.394 4.8396L104.477 5.25684C104.811 6.34167 105.812 8.17753 106.73 8.92856L106.981 9.09546V8.76166C107.064 7.2596 106.313 6.09132 104.727 5.08994L104.561 5.0065L104.394 4.8396Z" fill="#00AEEF"/>
<path d="M105.312 8.09412V8.42791C105.228 9.51274 106.146 11.9327 106.73 12.7672L106.897 13.0176L106.981 12.7672C107.064 12.4334 107.147 12.1831 107.147 11.9327C107.231 10.1803 105.896 8.7617 105.478 8.34446L105.395 8.26101L105.312 8.09412Z" fill="#00AEEF"/>
<path d="M105.228 11.0983L105.145 11.4321C105.061 11.6824 104.978 12.0996 104.978 12.6003C104.978 14.019 105.145 15.7714 105.478 16.3555L105.562 16.6058L105.729 16.3555C106.146 15.7714 106.396 15.1038 106.396 14.3527C106.396 13.4348 106.063 12.35 105.395 11.3486L105.312 11.1817L105.228 11.0983Z" fill="#00AEEF"/>
<path d="M104.477 14.3527L104.31 14.6031C103.643 15.4375 102.808 18.2748 102.808 19.3596C102.808 19.3596 102.808 19.5265 102.808 19.61L102.892 19.8603L103.058 19.7769C104.227 19.0258 104.811 17.941 104.894 16.6058C104.894 16.0217 104.811 15.3541 104.644 14.6865L104.561 14.5196L104.477 14.3527Z" fill="#00AEEF"/>
<path d="M106.897 18.692L106.563 18.7755C105.395 18.9424 102.057 20.8617 101.556 21.6127L101.39 21.7796H101.64C104.394 22.2803 105.896 20.361 106.73 18.9424L106.814 18.7755L106.897 18.692Z" fill="#00AEEF"/>
<path d="M93.6289 22.9479C93.5454 22.9479 91.5427 24.0327 90.291 25.7017L90.2075 25.7851L90.291 25.8686C90.3744 25.952 90.6248 26.1189 90.7082 26.2024H90.7917L90.8751 26.1189C92.1268 24.6169 94.213 22.6975 96.4661 22.5307C96.7999 22.8644 97.1337 23.1148 97.551 23.2817C98.8027 23.6989 101.056 23.532 102.808 22.781L103.225 22.6141L102.808 22.5307C98.5523 21.4458 95.3813 22.1134 93.6289 22.9479Z" fill="#00AEEF"/>
<path d="M102.641 17.6907L102.391 17.8576C101.473 18.4417 98.9695 20.6114 98.7192 21.3624L98.6357 21.5293H98.8026C101.556 21.7796 102.224 19.61 102.558 17.941V17.7741L102.641 17.6907Z" fill="#00AEEF"/>
<path d="M32.2109 1.00104H35.7158V4.17207H32.2109V1.00104ZM32.5447 7.84379H35.4654V23.3651H32.5447V7.84379Z" fill="#00AEEF"/>
<path d="M10.431 7.84375H13.3517V23.3651H10.5145V21.112H10.431C9.26275 23.0313 7.25999 23.8658 5.09034 23.8658C1.83586 23.8658 0 21.3624 0 18.2748V7.84375H2.92069V17.023C2.92069 19.6934 3.50482 21.6961 6.34206 21.6961C7.51033 21.6961 9.1793 21.112 9.76344 19.443C10.3476 18.0244 10.3476 16.1886 10.3476 15.7713V7.84375H10.431Z" fill="#00AEEF"/>
<path d="M19.193 10.0969C20.2779 8.17756 22.3641 7.34308 23.9496 7.34308C25.0344 7.34308 29.7909 7.59342 29.7909 12.6003V23.2817H26.8703V13.5182C26.8703 10.9314 25.7854 9.59618 23.282 9.59618C23.282 9.59618 21.6965 9.51273 20.4447 10.7645C20.0275 11.1817 19.193 11.8493 19.193 14.9369V23.3651H16.2723V7.84377H19.193V10.0969Z" fill="#00AEEF"/>
<path d="M47.7323 12.7672C47.5654 10.8479 46.6475 9.51273 44.5613 9.51273C41.8075 9.51273 40.7227 11.9327 40.7227 15.521C40.7227 19.1093 41.8075 21.5293 44.5613 21.5293C46.4806 21.5293 47.6489 20.2775 47.8158 18.0244H50.7364C50.4861 21.5293 47.8992 23.6155 44.4778 23.6155C39.5544 23.6155 37.5516 20.1106 37.5516 15.6044C37.5516 11.0982 39.8047 7.34308 44.7282 7.34308C47.9827 7.34308 50.4027 9.42928 50.5695 12.7672H47.7323V12.7672Z" fill="#00AEEF"/>
<path d="M55.0757 16.1051C54.8254 18.7755 55.9937 21.6127 58.9144 21.6127C61.1675 21.6127 62.3357 20.6948 62.6695 18.4417H65.7571C65.2564 21.9465 62.5861 23.6989 58.9144 23.6989C53.9909 23.6989 51.9882 20.1941 51.9882 15.6879C51.9882 11.1817 54.2413 7.42651 59.1647 7.42651C63.7544 7.50996 65.924 10.4306 65.924 14.6865V16.1051H55.0757ZM62.9199 14.1024C63.0033 11.5155 61.835 9.51272 58.9978 9.51272C56.5778 9.51272 55.1592 11.5989 55.1592 14.1024H62.9199Z" fill="#00AEEF"/>
<path d="M69.262 23.1982V9.84654H66.5917V7.84378H69.262V4.50586C69.3455 1.16793 71.9324 0.25 74.102 0.25C74.7696 0.25 75.5206 0.416896 76.1882 0.583793V3.00379C75.6875 3.00379 75.1868 2.92034 74.6861 2.92034C73.0172 2.92034 72.0993 3.33758 72.1827 5.00654V7.84378H75.771V9.84654H72.1827V23.1982H69.262Z" fill="#00AEEF"/>
</g>
<path fill-rule="evenodd" clip-rule="evenodd" d="M109.317 34.2134H0V33.3789H109.317V34.2134Z" fill="#00AEEF"/>
<mask id="path-31-outside-1_2_1756" maskUnits="userSpaceOnUse" x="0" y="40.0001" width="109" height="15" fill="black">
<rect fill="white" y="40.0001" width="109" height="15"/>
<path d="M4.20528 43.6311C4.95116 43.6311 5.59288 43.7907 6.13046 44.1099C6.67139 44.4258 7.08633 44.8708 7.37527 45.4447C7.66758 46.0154 7.81373 46.6812 7.81373 47.4421C7.81373 48.203 7.66758 48.8752 7.37527 49.4588C7.08633 50.0392 6.67979 50.4938 6.15566 50.8227C5.63488 51.1483 5.02507 51.3111 4.32623 51.3111C3.92305 51.3111 3.52491 51.2466 3.13181 51.1177C2.73871 50.9887 2.38089 50.7808 2.05835 50.4938C1.7358 50.2036 1.47878 49.8216 1.28727 49.3476C1.09576 48.8704 1 48.2868 1 47.5968V47.1132H6.96705V48.0998H2.20954C2.20954 48.519 2.29521 48.893 2.46656 49.2218C2.64128 49.5507 2.88654 49.8103 3.20237 50.0005C3.52155 50.1907 3.89617 50.2858 4.32623 50.2858C4.80332 50.2858 5.21322 50.1746 5.55593 49.9521C5.89863 49.7264 6.16237 49.4346 6.34717 49.0768C6.53196 48.7156 6.62435 48.332 6.62435 47.9257V47.268C6.62435 46.7037 6.52188 46.2282 6.31693 45.8413C6.11534 45.4544 5.83311 45.161 5.47025 44.9611C5.10739 44.7579 4.68573 44.6564 4.20528 44.6564C3.89617 44.6564 3.61395 44.6999 3.3586 44.787C3.10325 44.8708 2.88318 44.9997 2.69839 45.1739C2.5136 45.3447 2.37081 45.5591 2.27001 45.8171L1.12095 45.5076C1.24191 45.1336 1.44518 44.8063 1.73076 44.5258C2.01635 44.2421 2.36913 44.0228 2.78911 43.8681C3.20909 43.7101 3.68114 43.6311 4.20528 43.6311Z"/>
<path d="M9.623 54.0001V43.7858H10.7721V44.9659H10.9132C11.0005 44.8369 11.1215 44.6725 11.276 44.4726C11.4339 44.2695 11.6591 44.0889 11.9514 43.9309C12.247 43.7697 12.6468 43.6891 13.1508 43.6891C13.8026 43.6891 14.3772 43.8455 14.8744 44.1582C15.3717 44.471 15.7597 44.9143 16.0386 45.4882C16.3175 46.0621 16.4569 46.7392 16.4569 47.5195C16.4569 48.3062 16.3175 48.9881 16.0386 49.5652C15.7597 50.1391 15.3733 50.5841 14.8794 50.9C14.3856 51.2128 13.8161 51.3692 13.171 51.3692C12.6737 51.3692 12.2756 51.2902 11.9766 51.1322C11.6775 50.971 11.4474 50.7888 11.2861 50.5857C11.1248 50.3793 11.0005 50.2085 10.9132 50.073H10.8124V54.0001H9.623ZM10.7922 47.5001C10.7922 48.0611 10.8779 48.556 11.0492 48.9849C11.2206 49.4105 11.4709 49.7442 11.8002 49.986C12.1294 50.2246 12.5326 50.3439 13.0097 50.3439C13.507 50.3439 13.9219 50.2181 14.2545 49.9666C14.5905 49.7119 14.8425 49.3702 15.0105 48.9413C15.1818 48.5093 15.2675 48.0289 15.2675 47.5001C15.2675 46.9778 15.1835 46.5071 15.0155 46.0879C14.8509 45.6655 14.6006 45.3318 14.2646 45.0868C13.932 44.8385 13.5137 44.7144 13.0097 44.7144C12.5259 44.7144 12.1193 44.8321 11.7901 45.0675C11.4608 45.2996 11.2122 45.6252 11.0442 46.0444C10.8762 46.4603 10.7922 46.9456 10.7922 47.5001Z"/>
<path d="M24.0165 41.0001L24.6213 41.6965C24.3861 41.9158 24.1139 42.0689 23.8048 42.156C23.4957 42.2431 23.1463 42.2963 22.7566 42.3156C22.3668 42.3349 21.9334 42.3543 21.4563 42.3736C20.9187 42.393 20.4736 42.5187 20.1208 42.7509C19.768 42.983 19.4959 43.3183 19.3043 43.7568C19.1128 44.1953 18.9902 44.7338 18.9364 45.3721H19.0372C19.2993 44.9079 19.6622 44.5661 20.1258 44.3468C20.5895 44.1276 21.0867 44.018 21.6176 44.018C22.2224 44.018 22.7666 44.1534 23.2505 44.4242C23.7343 44.6951 24.1173 45.0965 24.3995 45.6285C24.6817 46.1605 24.8229 46.8166 24.8229 47.5968C24.8229 48.3739 24.6784 49.0445 24.3894 49.6088C24.1039 50.173 23.7024 50.6083 23.1849 50.9146C22.6709 51.2176 22.0678 51.3692 21.3757 51.3692C20.6836 51.3692 20.0771 51.2128 19.5563 50.9C19.0356 50.5841 18.6307 50.1166 18.3417 49.4975C18.0528 48.8752 17.9083 48.1063 17.9083 47.1906V46.3974C17.9083 44.7434 18.2006 43.4892 18.7852 42.6348C19.3732 41.7804 20.2569 41.3387 21.4361 41.3096C21.8528 41.2967 22.224 41.2935 22.5499 41.3C22.8758 41.3064 23.1597 41.2919 23.4016 41.2564C23.6436 41.221 23.8485 41.1355 24.0165 41.0001ZM21.3757 50.3439C21.8427 50.3439 22.2442 50.231 22.5802 50.0053C22.9195 49.7796 23.1799 49.4621 23.3613 49.0526C23.5428 48.6399 23.6335 48.1546 23.6335 47.5968C23.6335 47.0552 23.5411 46.5941 23.3563 46.2137C23.1749 45.8332 22.9145 45.543 22.5751 45.3431C22.2358 45.1432 21.8293 45.0433 21.3555 45.0433C21.0095 45.0433 20.6987 45.0997 20.4232 45.2125C20.1477 45.3254 19.9125 45.4914 19.7176 45.7107C19.5227 45.9299 19.3715 46.1975 19.264 46.5135C19.1599 46.8295 19.1044 47.1906 19.0977 47.5968C19.0977 48.4287 19.301 49.0945 19.7075 49.5942C20.1141 50.094 20.6701 50.3439 21.3757 50.3439Z"/>
<path d="M26.6422 51.2144V43.7858H27.8316V51.2144H26.6422ZM27.247 42.5477C27.0151 42.5477 26.8152 42.472 26.6472 42.3204C26.4826 42.1689 26.4003 41.9867 26.4003 41.7739C26.4003 41.5611 26.4826 41.379 26.6472 41.2274C26.8152 41.0759 27.0151 41.0001 27.247 41.0001C27.4788 41.0001 27.677 41.0759 27.8417 41.2274C28.0097 41.379 28.0936 41.5611 28.0936 41.7739C28.0936 41.9867 28.0097 42.1689 27.8417 42.3204C27.677 42.472 27.4788 42.5477 27.247 42.5477Z"/>
<path d="M30.01 54.0001V43.7858H31.1591V44.9659H31.3002C31.3875 44.8369 31.5085 44.6725 31.663 44.4726C31.821 44.2695 32.0461 44.0889 32.3384 43.9309C32.634 43.7697 33.0339 43.6891 33.5378 43.6891C34.1896 43.6891 34.7642 43.8455 35.2614 44.1582C35.7587 44.471 36.1467 44.9143 36.4256 45.4882C36.7045 46.0621 36.8439 46.7392 36.8439 47.5195C36.8439 48.3062 36.7045 48.9881 36.4256 49.5652C36.1467 50.1391 35.7604 50.5841 35.2665 50.9C34.7726 51.2128 34.2031 51.3692 33.558 51.3692C33.0607 51.3692 32.6626 51.2902 32.3636 51.1322C32.0645 50.971 31.8344 50.7888 31.6731 50.5857C31.5119 50.3793 31.3875 50.2085 31.3002 50.073H31.1994V54.0001H30.01ZM31.1792 47.5001C31.1792 48.0611 31.2649 48.556 31.4363 48.9849C31.6076 49.4105 31.8579 49.7442 32.1872 49.986C32.5164 50.2246 32.9196 50.3439 33.3967 50.3439C33.894 50.3439 34.3089 50.2181 34.6415 49.9666C34.9775 49.7119 35.2295 49.3702 35.3975 48.9413C35.5688 48.5093 35.6545 48.0289 35.6545 47.5001C35.6545 46.9778 35.5705 46.5071 35.4025 46.0879C35.2379 45.6655 34.9876 45.3318 34.6516 45.0868C34.319 44.8385 33.9007 44.7144 33.3967 44.7144C32.9129 44.7144 32.5064 44.8321 32.1771 45.0675C31.8478 45.2996 31.5992 45.6252 31.4312 46.0444C31.2632 46.4603 31.1792 46.9456 31.1792 47.5001Z"/>
<path d="M48.395 41.0001L48.9998 41.6965C48.7646 41.9158 48.4924 42.0689 48.1833 42.156C47.8742 42.2431 47.5248 42.2963 47.1351 42.3156C46.7453 42.3349 46.3119 42.3543 45.8348 42.3736C45.2972 42.393 44.852 42.5187 44.4993 42.7509C44.1465 42.983 43.8743 43.3183 43.6828 43.7568C43.4913 44.1953 43.3687 44.7338 43.3149 45.3721H43.4157C43.6778 44.9079 44.0406 44.5661 44.5043 44.3468C44.968 44.1276 45.4652 44.018 45.9961 44.018C46.6008 44.018 47.1451 44.1534 47.6289 44.4242C48.1128 44.6951 48.4958 45.0965 48.778 45.6285C49.0602 46.1605 49.2013 46.8166 49.2013 47.5968C49.2013 48.3739 49.0569 49.0445 48.7679 49.6088C48.4823 50.173 48.0808 50.6083 47.5634 50.9146C47.0494 51.2176 46.4463 51.3692 45.7542 51.3692C45.062 51.3692 44.4556 51.2128 43.9348 50.9C43.414 50.5841 43.0092 50.1166 42.7202 49.4975C42.4313 48.8752 42.2868 48.1063 42.2868 47.1906V46.3974C42.2868 44.7434 42.5791 43.4892 43.1637 42.6348C43.7517 41.7804 44.6353 41.3387 45.8146 41.3096C46.2313 41.2967 46.6025 41.2935 46.9284 41.3C47.2543 41.3064 47.5382 41.2919 47.7801 41.2564C48.022 41.221 48.227 41.1355 48.395 41.0001ZM45.7542 50.3439C46.2212 50.3439 46.6227 50.231 46.9587 50.0053C47.298 49.7796 47.5584 49.4621 47.7398 49.0526C47.9213 48.6399 48.012 48.1546 48.012 47.5968C48.012 47.0552 47.9196 46.5941 47.7348 46.2137C47.5533 45.8332 47.293 45.543 46.9536 45.3431C46.6143 45.1432 46.2077 45.0433 45.734 45.0433C45.3879 45.0433 45.0772 45.0997 44.8017 45.2125C44.5261 45.3254 44.291 45.4914 44.0961 45.7107C43.9012 45.9299 43.75 46.1975 43.6425 46.5135C43.5384 46.8295 43.4829 47.1906 43.4762 47.5968C43.4762 48.4287 43.6795 49.0945 44.086 49.5942C44.4925 50.094 45.0486 50.3439 45.7542 50.3439Z"/>
<path d="M53.2987 51.3885C52.8081 51.3885 52.3629 51.2998 51.9631 51.1225C51.5633 50.942 51.2458 50.6824 51.0106 50.3439C50.7754 50.0021 50.6578 49.5894 50.6578 49.1058C50.6578 48.6802 50.7452 48.3352 50.9199 48.0708C51.0946 47.8032 51.3281 47.5936 51.6204 47.4421C51.9127 47.2905 52.2353 47.1777 52.588 47.1035C52.9442 47.0262 53.302 46.9649 53.6615 46.9198C54.1319 46.8617 54.5132 46.8182 54.8055 46.7892C55.1012 46.7569 55.3162 46.7037 55.4506 46.6296C55.5884 46.5554 55.6573 46.4265 55.6573 46.2427V46.204C55.6573 45.7268 55.5212 45.356 55.249 45.0916C54.9802 44.8273 54.572 44.6951 54.0244 44.6951C53.4566 44.6951 53.0114 44.8144 52.6888 45.0529C52.3663 45.2915 52.1395 45.5463 52.0085 45.8171L50.8796 45.4302C51.0812 44.9788 51.35 44.6274 51.6859 44.3759C52.0253 44.1212 52.3949 43.9438 52.7947 43.8439C53.1979 43.7407 53.5943 43.6891 53.9841 43.6891C54.2327 43.6891 54.5183 43.7181 54.8408 43.7762C55.1667 43.831 55.4809 43.9454 55.7832 44.1195C56.089 44.2936 56.3427 44.5564 56.5442 44.9079C56.7458 45.2593 56.8466 45.73 56.8466 46.3201V51.2144H55.6573V50.2085H55.5968C55.5161 50.3697 55.3817 50.5422 55.1936 50.7259C55.0054 50.9097 54.7551 51.0661 54.4427 51.1951C54.1302 51.324 53.7489 51.3885 53.2987 51.3885ZM53.4801 50.3632C53.9505 50.3632 54.3469 50.2746 54.6695 50.0972C54.9954 49.9199 55.2406 49.691 55.4053 49.4105C55.5733 49.13 55.6573 48.8349 55.6573 48.5254V47.4808C55.6069 47.5388 55.496 47.592 55.3246 47.6404C55.1566 47.6855 54.9618 47.7258 54.74 47.7613C54.5216 47.7935 54.3083 47.8225 54.1 47.8483C53.895 47.8709 53.7287 47.8903 53.601 47.9064C53.2919 47.9451 53.003 48.0079 52.7342 48.095C52.4688 48.1788 52.2537 48.3062 52.0891 48.4771C51.9278 48.6447 51.8472 48.8736 51.8472 49.1638C51.8472 49.5604 52.0001 49.8602 52.3058 50.0634C52.6149 50.2633 53.0064 50.3632 53.4801 50.3632Z"/>
<path d="M58.3321 51.2144V50.1504H58.6143C58.8461 50.1504 59.0393 50.1069 59.1939 50.0198C59.3484 49.9296 59.4728 49.7732 59.5668 49.5507C59.6643 49.325 59.7382 49.0123 59.7886 48.6125C59.8423 48.2094 59.881 47.6968 59.9045 47.0745L60.0456 43.7858H65.2063V51.2144H64.0169V44.8498H61.1745L61.0536 47.5001C61.0267 48.1095 60.9696 48.6463 60.8822 49.1106C60.7982 49.5717 60.6689 49.9586 60.4941 50.2713C60.3228 50.5841 60.0943 50.8194 59.8087 50.9774C59.5232 51.1354 59.1653 51.2144 58.7353 51.2144H58.3321Z"/>
<path d="M69.6665 51.3885C69.1759 51.3885 68.7308 51.2998 68.3309 51.1225C67.9311 50.942 67.6136 50.6824 67.3784 50.3439C67.1432 50.0021 67.0256 49.5894 67.0256 49.1058C67.0256 48.6802 67.113 48.3352 67.2877 48.0708C67.4624 47.8032 67.6959 47.5936 67.9882 47.4421C68.2805 47.2905 68.6031 47.1777 68.9559 47.1035C69.312 47.0262 69.6698 46.9649 70.0293 46.9198C70.4997 46.8617 70.8811 46.8182 71.1734 46.7892C71.469 46.7569 71.6841 46.7037 71.8184 46.6296C71.9562 46.5554 72.0251 46.4265 72.0251 46.2427V46.204C72.0251 45.7268 71.889 45.356 71.6169 45.0916C71.3481 44.8273 70.9399 44.6951 70.3922 44.6951C69.8244 44.6951 69.3792 44.8144 69.0567 45.0529C68.7341 45.2915 68.5073 45.5463 68.3763 45.8171L67.2474 45.4302C67.449 44.9788 67.7178 44.6274 68.0538 44.3759C68.3931 44.1212 68.7627 43.9438 69.1625 43.8439C69.5657 43.7407 69.9621 43.6891 70.3519 43.6891C70.6005 43.6891 70.8861 43.7181 71.2086 43.7762C71.5345 43.831 71.8487 43.9454 72.1511 44.1195C72.4568 44.2936 72.7105 44.5564 72.9121 44.9079C73.1137 45.2593 73.2144 45.73 73.2144 46.3201V51.2144H72.0251V50.2085H71.9646C71.884 50.3697 71.7496 50.5422 71.5614 50.7259C71.3733 50.9097 71.123 51.0661 70.8105 51.1951C70.498 51.324 70.1167 51.3885 69.6665 51.3885ZM69.8479 50.3632C70.3183 50.3632 70.7147 50.2746 71.0373 50.0972C71.3632 49.9199 71.6085 49.691 71.7731 49.4105C71.9411 49.13 72.0251 48.8349 72.0251 48.5254V47.4808C71.9747 47.5388 71.8638 47.592 71.6924 47.6404C71.5245 47.6855 71.3296 47.7258 71.1078 47.7613C70.8895 47.7935 70.6761 47.8225 70.4678 47.8483C70.2628 47.8709 70.0965 47.8903 69.9689 47.9064C69.6598 47.9451 69.3708 48.0079 69.102 48.095C68.8366 48.1788 68.6216 48.3062 68.4569 48.4771C68.2957 48.6447 68.215 48.8736 68.215 49.1638C68.215 49.5604 68.3679 49.8602 68.6736 50.0634C68.9827 50.2633 69.3742 50.3632 69.8479 50.3632Z"/>
<path d="M78.772 43.7858H80.0622L82.0983 49.4346L84.094 43.7858H85.3842L82.6829 51.0596V54.0001H81.4935V51.0596L78.772 43.7858Z"/>
<path d="M86.9578 43.7858H88.1472V50.1504H91.0703V43.7858H92.2596V50.1504H95.1827V43.7858H96.3721V51.2144H86.9578V43.7858Z"/>
<path d="M98.5442 51.2144V43.7858H99.7336V51.2144H98.5442ZM99.149 42.5477C98.9171 42.5477 98.7172 42.472 98.5492 42.3204C98.3846 42.1689 98.3023 41.9867 98.3023 41.7739C98.3023 41.5611 98.3846 41.379 98.5492 41.2274C98.7172 41.0759 98.9171 41.0001 99.149 41.0001C99.3808 41.0001 99.579 41.0759 99.7436 41.2274C99.9116 41.379 99.9956 41.5611 99.9956 41.7739C99.9956 41.9867 99.9116 42.1689 99.7436 42.3204C99.579 42.472 99.3808 42.5477 99.149 42.5477Z"/>
<path d="M107.093 46.9778V48.0418H102.819V46.9778H107.093ZM103.101 43.7858V51.2144H101.912V43.7858H103.101ZM108 43.7858V51.2144H106.811V43.7858H108Z"/>
</mask>
<path d="M4.20528 43.6311C4.95116 43.6311 5.59288 43.7907 6.13046 44.1099C6.67139 44.4258 7.08633 44.8708 7.37527 45.4447C7.66758 46.0154 7.81373 46.6812 7.81373 47.4421C7.81373 48.203 7.66758 48.8752 7.37527 49.4588C7.08633 50.0392 6.67979 50.4938 6.15566 50.8227C5.63488 51.1483 5.02507 51.3111 4.32623 51.3111C3.92305 51.3111 3.52491 51.2466 3.13181 51.1177C2.73871 50.9887 2.38089 50.7808 2.05835 50.4938C1.7358 50.2036 1.47878 49.8216 1.28727 49.3476C1.09576 48.8704 1 48.2868 1 47.5968V47.1132H6.96705V48.0998H2.20954C2.20954 48.519 2.29521 48.893 2.46656 49.2218C2.64128 49.5507 2.88654 49.8103 3.20237 50.0005C3.52155 50.1907 3.89617 50.2858 4.32623 50.2858C4.80332 50.2858 5.21322 50.1746 5.55593 49.9521C5.89863 49.7264 6.16237 49.4346 6.34717 49.0768C6.53196 48.7156 6.62435 48.332 6.62435 47.9257V47.268C6.62435 46.7037 6.52188 46.2282 6.31693 45.8413C6.11534 45.4544 5.83311 45.161 5.47025 44.9611C5.10739 44.7579 4.68573 44.6564 4.20528 44.6564C3.89617 44.6564 3.61395 44.6999 3.3586 44.787C3.10325 44.8708 2.88318 44.9997 2.69839 45.1739C2.5136 45.3447 2.37081 45.5591 2.27001 45.8171L1.12095 45.5076C1.24191 45.1336 1.44518 44.8063 1.73076 44.5258C2.01635 44.2421 2.36913 44.0228 2.78911 43.8681C3.20909 43.7101 3.68114 43.6311 4.20528 43.6311Z" fill="#02AEEF"/>
<path d="M9.623 54.0001V43.7858H10.7721V44.9659H10.9132C11.0005 44.8369 11.1215 44.6725 11.276 44.4726C11.4339 44.2695 11.6591 44.0889 11.9514 43.9309C12.247 43.7697 12.6468 43.6891 13.1508 43.6891C13.8026 43.6891 14.3772 43.8455 14.8744 44.1582C15.3717 44.471 15.7597 44.9143 16.0386 45.4882C16.3175 46.0621 16.4569 46.7392 16.4569 47.5195C16.4569 48.3062 16.3175 48.9881 16.0386 49.5652C15.7597 50.1391 15.3733 50.5841 14.8794 50.9C14.3856 51.2128 13.8161 51.3692 13.171 51.3692C12.6737 51.3692 12.2756 51.2902 11.9766 51.1322C11.6775 50.971 11.4474 50.7888 11.2861 50.5857C11.1248 50.3793 11.0005 50.2085 10.9132 50.073H10.8124V54.0001H9.623ZM10.7922 47.5001C10.7922 48.0611 10.8779 48.556 11.0492 48.9849C11.2206 49.4105 11.4709 49.7442 11.8002 49.986C12.1294 50.2246 12.5326 50.3439 13.0097 50.3439C13.507 50.3439 13.9219 50.2181 14.2545 49.9666C14.5905 49.7119 14.8425 49.3702 15.0105 48.9413C15.1818 48.5093 15.2675 48.0289 15.2675 47.5001C15.2675 46.9778 15.1835 46.5071 15.0155 46.0879C14.8509 45.6655 14.6006 45.3318 14.2646 45.0868C13.932 44.8385 13.5137 44.7144 13.0097 44.7144C12.5259 44.7144 12.1193 44.8321 11.7901 45.0675C11.4608 45.2996 11.2122 45.6252 11.0442 46.0444C10.8762 46.4603 10.7922 46.9456 10.7922 47.5001Z" fill="#02AEEF"/>
<path d="M24.0165 41.0001L24.6213 41.6965C24.3861 41.9158 24.1139 42.0689 23.8048 42.156C23.4957 42.2431 23.1463 42.2963 22.7566 42.3156C22.3668 42.3349 21.9334 42.3543 21.4563 42.3736C20.9187 42.393 20.4736 42.5187 20.1208 42.7509C19.768 42.983 19.4959 43.3183 19.3043 43.7568C19.1128 44.1953 18.9902 44.7338 18.9364 45.3721H19.0372C19.2993 44.9079 19.6622 44.5661 20.1258 44.3468C20.5895 44.1276 21.0867 44.018 21.6176 44.018C22.2224 44.018 22.7666 44.1534 23.2505 44.4242C23.7343 44.6951 24.1173 45.0965 24.3995 45.6285C24.6817 46.1605 24.8229 46.8166 24.8229 47.5968C24.8229 48.3739 24.6784 49.0445 24.3894 49.6088C24.1039 50.173 23.7024 50.6083 23.1849 50.9146C22.6709 51.2176 22.0678 51.3692 21.3757 51.3692C20.6836 51.3692 20.0771 51.2128 19.5563 50.9C19.0356 50.5841 18.6307 50.1166 18.3417 49.4975C18.0528 48.8752 17.9083 48.1063 17.9083 47.1906V46.3974C17.9083 44.7434 18.2006 43.4892 18.7852 42.6348C19.3732 41.7804 20.2569 41.3387 21.4361 41.3096C21.8528 41.2967 22.224 41.2935 22.5499 41.3C22.8758 41.3064 23.1597 41.2919 23.4016 41.2564C23.6436 41.221 23.8485 41.1355 24.0165 41.0001ZM21.3757 50.3439C21.8427 50.3439 22.2442 50.231 22.5802 50.0053C22.9195 49.7796 23.1799 49.4621 23.3613 49.0526C23.5428 48.6399 23.6335 48.1546 23.6335 47.5968C23.6335 47.0552 23.5411 46.5941 23.3563 46.2137C23.1749 45.8332 22.9145 45.543 22.5751 45.3431C22.2358 45.1432 21.8293 45.0433 21.3555 45.0433C21.0095 45.0433 20.6987 45.0997 20.4232 45.2125C20.1477 45.3254 19.9125 45.4914 19.7176 45.7107C19.5227 45.9299 19.3715 46.1975 19.264 46.5135C19.1599 46.8295 19.1044 47.1906 19.0977 47.5968C19.0977 48.4287 19.301 49.0945 19.7075 49.5942C20.1141 50.094 20.6701 50.3439 21.3757 50.3439Z" fill="#02AEEF"/>
<path d="M26.6422 51.2144V43.7858H27.8316V51.2144H26.6422ZM27.247 42.5477C27.0151 42.5477 26.8152 42.472 26.6472 42.3204C26.4826 42.1689 26.4003 41.9867 26.4003 41.7739C26.4003 41.5611 26.4826 41.379 26.6472 41.2274C26.8152 41.0759 27.0151 41.0001 27.247 41.0001C27.4788 41.0001 27.677 41.0759 27.8417 41.2274C28.0097 41.379 28.0936 41.5611 28.0936 41.7739C28.0936 41.9867 28.0097 42.1689 27.8417 42.3204C27.677 42.472 27.4788 42.5477 27.247 42.5477Z" fill="#02AEEF"/>
<path d="M30.01 54.0001V43.7858H31.1591V44.9659H31.3002C31.3875 44.8369 31.5085 44.6725 31.663 44.4726C31.821 44.2695 32.0461 44.0889 32.3384 43.9309C32.634 43.7697 33.0339 43.6891 33.5378 43.6891C34.1896 43.6891 34.7642 43.8455 35.2614 44.1582C35.7587 44.471 36.1467 44.9143 36.4256 45.4882C36.7045 46.0621 36.8439 46.7392 36.8439 47.5195C36.8439 48.3062 36.7045 48.9881 36.4256 49.5652C36.1467 50.1391 35.7604 50.5841 35.2665 50.9C34.7726 51.2128 34.2031 51.3692 33.558 51.3692C33.0607 51.3692 32.6626 51.2902 32.3636 51.1322C32.0645 50.971 31.8344 50.7888 31.6731 50.5857C31.5119 50.3793 31.3875 50.2085 31.3002 50.073H31.1994V54.0001H30.01ZM31.1792 47.5001C31.1792 48.0611 31.2649 48.556 31.4363 48.9849C31.6076 49.4105 31.8579 49.7442 32.1872 49.986C32.5164 50.2246 32.9196 50.3439 33.3967 50.3439C33.894 50.3439 34.3089 50.2181 34.6415 49.9666C34.9775 49.7119 35.2295 49.3702 35.3975 48.9413C35.5688 48.5093 35.6545 48.0289 35.6545 47.5001C35.6545 46.9778 35.5705 46.5071 35.4025 46.0879C35.2379 45.6655 34.9876 45.3318 34.6516 45.0868C34.319 44.8385 33.9007 44.7144 33.3967 44.7144C32.9129 44.7144 32.5064 44.8321 32.1771 45.0675C31.8478 45.2996 31.5992 45.6252 31.4312 46.0444C31.2632 46.4603 31.1792 46.9456 31.1792 47.5001Z" fill="#02AEEF"/>
<path d="M48.395 41.0001L48.9998 41.6965C48.7646 41.9158 48.4924 42.0689 48.1833 42.156C47.8742 42.2431 47.5248 42.2963 47.1351 42.3156C46.7453 42.3349 46.3119 42.3543 45.8348 42.3736C45.2972 42.393 44.852 42.5187 44.4993 42.7509C44.1465 42.983 43.8743 43.3183 43.6828 43.7568C43.4913 44.1953 43.3687 44.7338 43.3149 45.3721H43.4157C43.6778 44.9079 44.0406 44.5661 44.5043 44.3468C44.968 44.1276 45.4652 44.018 45.9961 44.018C46.6008 44.018 47.1451 44.1534 47.6289 44.4242C48.1128 44.6951 48.4958 45.0965 48.778 45.6285C49.0602 46.1605 49.2013 46.8166 49.2013 47.5968C49.2013 48.3739 49.0569 49.0445 48.7679 49.6088C48.4823 50.173 48.0808 50.6083 47.5634 50.9146C47.0494 51.2176 46.4463 51.3692 45.7542 51.3692C45.062 51.3692 44.4556 51.2128 43.9348 50.9C43.414 50.5841 43.0092 50.1166 42.7202 49.4975C42.4313 48.8752 42.2868 48.1063 42.2868 47.1906V46.3974C42.2868 44.7434 42.5791 43.4892 43.1637 42.6348C43.7517 41.7804 44.6353 41.3387 45.8146 41.3096C46.2313 41.2967 46.6025 41.2935 46.9284 41.3C47.2543 41.3064 47.5382 41.2919 47.7801 41.2564C48.022 41.221 48.227 41.1355 48.395 41.0001ZM45.7542 50.3439C46.2212 50.3439 46.6227 50.231 46.9587 50.0053C47.298 49.7796 47.5584 49.4621 47.7398 49.0526C47.9213 48.6399 48.012 48.1546 48.012 47.5968C48.012 47.0552 47.9196 46.5941 47.7348 46.2137C47.5533 45.8332 47.293 45.543 46.9536 45.3431C46.6143 45.1432 46.2077 45.0433 45.734 45.0433C45.3879 45.0433 45.0772 45.0997 44.8017 45.2125C44.5261 45.3254 44.291 45.4914 44.0961 45.7107C43.9012 45.9299 43.75 46.1975 43.6425 46.5135C43.5384 46.8295 43.4829 47.1906 43.4762 47.5968C43.4762 48.4287 43.6795 49.0945 44.086 49.5942C44.4925 50.094 45.0486 50.3439 45.7542 50.3439Z" fill="#02AEEF"/>
<path d="M53.2987 51.3885C52.8081 51.3885 52.3629 51.2998 51.9631 51.1225C51.5633 50.942 51.2458 50.6824 51.0106 50.3439C50.7754 50.0021 50.6578 49.5894 50.6578 49.1058C50.6578 48.6802 50.7452 48.3352 50.9199 48.0708C51.0946 47.8032 51.3281 47.5936 51.6204 47.4421C51.9127 47.2905 52.2353 47.1777 52.588 47.1035C52.9442 47.0262 53.302 46.9649 53.6615 46.9198C54.1319 46.8617 54.5132 46.8182 54.8055 46.7892C55.1012 46.7569 55.3162 46.7037 55.4506 46.6296C55.5884 46.5554 55.6573 46.4265 55.6573 46.2427V46.204C55.6573 45.7268 55.5212 45.356 55.249 45.0916C54.9802 44.8273 54.572 44.6951 54.0244 44.6951C53.4566 44.6951 53.0114 44.8144 52.6888 45.0529C52.3663 45.2915 52.1395 45.5463 52.0085 45.8171L50.8796 45.4302C51.0812 44.9788 51.35 44.6274 51.6859 44.3759C52.0253 44.1212 52.3949 43.9438 52.7947 43.8439C53.1979 43.7407 53.5943 43.6891 53.9841 43.6891C54.2327 43.6891 54.5183 43.7181 54.8408 43.7762C55.1667 43.831 55.4809 43.9454 55.7832 44.1195C56.089 44.2936 56.3427 44.5564 56.5442 44.9079C56.7458 45.2593 56.8466 45.73 56.8466 46.3201V51.2144H55.6573V50.2085H55.5968C55.5161 50.3697 55.3817 50.5422 55.1936 50.7259C55.0054 50.9097 54.7551 51.0661 54.4427 51.1951C54.1302 51.324 53.7489 51.3885 53.2987 51.3885ZM53.4801 50.3632C53.9505 50.3632 54.3469 50.2746 54.6695 50.0972C54.9954 49.9199 55.2406 49.691 55.4053 49.4105C55.5733 49.13 55.6573 48.8349 55.6573 48.5254V47.4808C55.6069 47.5388 55.496 47.592 55.3246 47.6404C55.1566 47.6855 54.9618 47.7258 54.74 47.7613C54.5216 47.7935 54.3083 47.8225 54.1 47.8483C53.895 47.8709 53.7287 47.8903 53.601 47.9064C53.2919 47.9451 53.003 48.0079 52.7342 48.095C52.4688 48.1788 52.2537 48.3062 52.0891 48.4771C51.9278 48.6447 51.8472 48.8736 51.8472 49.1638C51.8472 49.5604 52.0001 49.8602 52.3058 50.0634C52.6149 50.2633 53.0064 50.3632 53.4801 50.3632Z" fill="#02AEEF"/>
<path d="M58.3321 51.2144V50.1504H58.6143C58.8461 50.1504 59.0393 50.1069 59.1939 50.0198C59.3484 49.9296 59.4728 49.7732 59.5668 49.5507C59.6643 49.325 59.7382 49.0123 59.7886 48.6125C59.8423 48.2094 59.881 47.6968 59.9045 47.0745L60.0456 43.7858H65.2063V51.2144H64.0169V44.8498H61.1745L61.0536 47.5001C61.0267 48.1095 60.9696 48.6463 60.8822 49.1106C60.7982 49.5717 60.6689 49.9586 60.4941 50.2713C60.3228 50.5841 60.0943 50.8194 59.8087 50.9774C59.5232 51.1354 59.1653 51.2144 58.7353 51.2144H58.3321Z" fill="#02AEEF"/>
<path d="M69.6665 51.3885C69.1759 51.3885 68.7308 51.2998 68.3309 51.1225C67.9311 50.942 67.6136 50.6824 67.3784 50.3439C67.1432 50.0021 67.0256 49.5894 67.0256 49.1058C67.0256 48.6802 67.113 48.3352 67.2877 48.0708C67.4624 47.8032 67.6959 47.5936 67.9882 47.4421C68.2805 47.2905 68.6031 47.1777 68.9559 47.1035C69.312 47.0262 69.6698 46.9649 70.0293 46.9198C70.4997 46.8617 70.8811 46.8182 71.1734 46.7892C71.469 46.7569 71.6841 46.7037 71.8184 46.6296C71.9562 46.5554 72.0251 46.4265 72.0251 46.2427V46.204C72.0251 45.7268 71.889 45.356 71.6169 45.0916C71.3481 44.8273 70.9399 44.6951 70.3922 44.6951C69.8244 44.6951 69.3792 44.8144 69.0567 45.0529C68.7341 45.2915 68.5073 45.5463 68.3763 45.8171L67.2474 45.4302C67.449 44.9788 67.7178 44.6274 68.0538 44.3759C68.3931 44.1212 68.7627 43.9438 69.1625 43.8439C69.5657 43.7407 69.9621 43.6891 70.3519 43.6891C70.6005 43.6891 70.8861 43.7181 71.2086 43.7762C71.5345 43.831 71.8487 43.9454 72.1511 44.1195C72.4568 44.2936 72.7105 44.5564 72.9121 44.9079C73.1137 45.2593 73.2144 45.73 73.2144 46.3201V51.2144H72.0251V50.2085H71.9646C71.884 50.3697 71.7496 50.5422 71.5614 50.7259C71.3733 50.9097 71.123 51.0661 70.8105 51.1951C70.498 51.324 70.1167 51.3885 69.6665 51.3885ZM69.8479 50.3632C70.3183 50.3632 70.7147 50.2746 71.0373 50.0972C71.3632 49.9199 71.6085 49.691 71.7731 49.4105C71.9411 49.13 72.0251 48.8349 72.0251 48.5254V47.4808C71.9747 47.5388 71.8638 47.592 71.6924 47.6404C71.5245 47.6855 71.3296 47.7258 71.1078 47.7613C70.8895 47.7935 70.6761 47.8225 70.4678 47.8483C70.2628 47.8709 70.0965 47.8903 69.9689 47.9064C69.6598 47.9451 69.3708 48.0079 69.102 48.095C68.8366 48.1788 68.6216 48.3062 68.4569 48.4771C68.2957 48.6447 68.215 48.8736 68.215 49.1638C68.215 49.5604 68.3679 49.8602 68.6736 50.0634C68.9827 50.2633 69.3742 50.3632 69.8479 50.3632Z" fill="#02AEEF"/>
<path d="M78.772 43.7858H80.0622L82.0983 49.4346L84.094 43.7858H85.3842L82.6829 51.0596V54.0001H81.4935V51.0596L78.772 43.7858Z" fill="#02AEEF"/>
<path d="M86.9578 43.7858H88.1472V50.1504H91.0703V43.7858H92.2596V50.1504H95.1827V43.7858H96.3721V51.2144H86.9578V43.7858Z" fill="#02AEEF"/>
<path d="M98.5442 51.2144V43.7858H99.7336V51.2144H98.5442ZM99.149 42.5477C98.9171 42.5477 98.7172 42.472 98.5492 42.3204C98.3846 42.1689 98.3023 41.9867 98.3023 41.7739C98.3023 41.5611 98.3846 41.379 98.5492 41.2274C98.7172 41.0759 98.9171 41.0001 99.149 41.0001C99.3808 41.0001 99.579 41.0759 99.7436 41.2274C99.9116 41.379 99.9956 41.5611 99.9956 41.7739C99.9956 41.9867 99.9116 42.1689 99.7436 42.3204C99.579 42.472 99.3808 42.5477 99.149 42.5477Z" fill="#02AEEF"/>
<path d="M107.093 46.9778V48.0418H102.819V46.9778H107.093ZM103.101 43.7858V51.2144H101.912V43.7858H103.101ZM108 43.7858V51.2144H106.811V43.7858H108Z" fill="#02AEEF"/>
<path d="M4.20528 43.6311C4.95116 43.6311 5.59288 43.7907 6.13046 44.1099C6.67139 44.4258 7.08633 44.8708 7.37527 45.4447C7.66758 46.0154 7.81373 46.6812 7.81373 47.4421C7.81373 48.203 7.66758 48.8752 7.37527 49.4588C7.08633 50.0392 6.67979 50.4938 6.15566 50.8227C5.63488 51.1483 5.02507 51.3111 4.32623 51.3111C3.92305 51.3111 3.52491 51.2466 3.13181 51.1177C2.73871 50.9887 2.38089 50.7808 2.05835 50.4938C1.7358 50.2036 1.47878 49.8216 1.28727 49.3476C1.09576 48.8704 1 48.2868 1 47.5968V47.1132H6.96705V48.0998H2.20954C2.20954 48.519 2.29521 48.893 2.46656 49.2218C2.64128 49.5507 2.88654 49.8103 3.20237 50.0005C3.52155 50.1907 3.89617 50.2858 4.32623 50.2858C4.80332 50.2858 5.21322 50.1746 5.55593 49.9521C5.89863 49.7264 6.16237 49.4346 6.34717 49.0768C6.53196 48.7156 6.62435 48.332 6.62435 47.9257V47.268C6.62435 46.7037 6.52188 46.2282 6.31693 45.8413C6.11534 45.4544 5.83311 45.161 5.47025 44.9611C5.10739 44.7579 4.68573 44.6564 4.20528 44.6564C3.89617 44.6564 3.61395 44.6999 3.3586 44.787C3.10325 44.8708 2.88318 44.9997 2.69839 45.1739C2.5136 45.3447 2.37081 45.5591 2.27001 45.8171L1.12095 45.5076C1.24191 45.1336 1.44518 44.8063 1.73076 44.5258C2.01635 44.2421 2.36913 44.0228 2.78911 43.8681C3.20909 43.7101 3.68114 43.6311 4.20528 43.6311Z" stroke="#00AEEF" stroke-width="0.1" mask="url(#path-31-outside-1_2_1756)"/>
<path d="M9.623 54.0001V43.7858H10.7721V44.9659H10.9132C11.0005 44.8369 11.1215 44.6725 11.276 44.4726C11.4339 44.2695 11.6591 44.0889 11.9514 43.9309C12.247 43.7697 12.6468 43.6891 13.1508 43.6891C13.8026 43.6891 14.3772 43.8455 14.8744 44.1582C15.3717 44.471 15.7597 44.9143 16.0386 45.4882C16.3175 46.0621 16.4569 46.7392 16.4569 47.5195C16.4569 48.3062 16.3175 48.9881 16.0386 49.5652C15.7597 50.1391 15.3733 50.5841 14.8794 50.9C14.3856 51.2128 13.8161 51.3692 13.171 51.3692C12.6737 51.3692 12.2756 51.2902 11.9766 51.1322C11.6775 50.971 11.4474 50.7888 11.2861 50.5857C11.1248 50.3793 11.0005 50.2085 10.9132 50.073H10.8124V54.0001H9.623ZM10.7922 47.5001C10.7922 48.0611 10.8779 48.556 11.0492 48.9849C11.2206 49.4105 11.4709 49.7442 11.8002 49.986C12.1294 50.2246 12.5326 50.3439 13.0097 50.3439C13.507 50.3439 13.9219 50.2181 14.2545 49.9666C14.5905 49.7119 14.8425 49.3702 15.0105 48.9413C15.1818 48.5093 15.2675 48.0289 15.2675 47.5001C15.2675 46.9778 15.1835 46.5071 15.0155 46.0879C14.8509 45.6655 14.6006 45.3318 14.2646 45.0868C13.932 44.8385 13.5137 44.7144 13.0097 44.7144C12.5259 44.7144 12.1193 44.8321 11.7901 45.0675C11.4608 45.2996 11.2122 45.6252 11.0442 46.0444C10.8762 46.4603 10.7922 46.9456 10.7922 47.5001Z" stroke="#00AEEF" stroke-width="0.1" mask="url(#path-31-outside-1_2_1756)"/>
<path d="M24.0165 41.0001L24.6213 41.6965C24.3861 41.9158 24.1139 42.0689 23.8048 42.156C23.4957 42.2431 23.1463 42.2963 22.7566 42.3156C22.3668 42.3349 21.9334 42.3543 21.4563 42.3736C20.9187 42.393 20.4736 42.5187 20.1208 42.7509C19.768 42.983 19.4959 43.3183 19.3043 43.7568C19.1128 44.1953 18.9902 44.7338 18.9364 45.3721H19.0372C19.2993 44.9079 19.6622 44.5661 20.1258 44.3468C20.5895 44.1276 21.0867 44.018 21.6176 44.018C22.2224 44.018 22.7666 44.1534 23.2505 44.4242C23.7343 44.6951 24.1173 45.0965 24.3995 45.6285C24.6817 46.1605 24.8229 46.8166 24.8229 47.5968C24.8229 48.3739 24.6784 49.0445 24.3894 49.6088C24.1039 50.173 23.7024 50.6083 23.1849 50.9146C22.6709 51.2176 22.0678 51.3692 21.3757 51.3692C20.6836 51.3692 20.0771 51.2128 19.5563 50.9C19.0356 50.5841 18.6307 50.1166 18.3417 49.4975C18.0528 48.8752 17.9083 48.1063 17.9083 47.1906V46.3974C17.9083 44.7434 18.2006 43.4892 18.7852 42.6348C19.3732 41.7804 20.2569 41.3387 21.4361 41.3096C21.8528 41.2967 22.224 41.2935 22.5499 41.3C22.8758 41.3064 23.1597 41.2919 23.4016 41.2564C23.6436 41.221 23.8485 41.1355 24.0165 41.0001ZM21.3757 50.3439C21.8427 50.3439 22.2442 50.231 22.5802 50.0053C22.9195 49.7796 23.1799 49.4621 23.3613 49.0526C23.5428 48.6399 23.6335 48.1546 23.6335 47.5968C23.6335 47.0552 23.5411 46.5941 23.3563 46.2137C23.1749 45.8332 22.9145 45.543 22.5751 45.3431C22.2358 45.1432 21.8293 45.0433 21.3555 45.0433C21.0095 45.0433 20.6987 45.0997 20.4232 45.2125C20.1477 45.3254 19.9125 45.4914 19.7176 45.7107C19.5227 45.9299 19.3715 46.1975 19.264 46.5135C19.1599 46.8295 19.1044 47.1906 19.0977 47.5968C19.0977 48.4287 19.301 49.0945 19.7075 49.5942C20.1141 50.094 20.6701 50.3439 21.3757 50.3439Z" stroke="#00AEEF" stroke-width="0.1" mask="url(#path-31-outside-1_2_1756)"/>
<path d="M26.6422 51.2144V43.7858H27.8316V51.2144H26.6422ZM27.247 42.5477C27.0151 42.5477 26.8152 42.472 26.6472 42.3204C26.4826 42.1689 26.4003 41.9867 26.4003 41.7739C26.4003 41.5611 26.4826 41.379 26.6472 41.2274C26.8152 41.0759 27.0151 41.0001 27.247 41.0001C27.4788 41.0001 27.677 41.0759 27.8417 41.2274C28.0097 41.379 28.0936 41.5611 28.0936 41.7739C28.0936 41.9867 28.0097 42.1689 27.8417 42.3204C27.677 42.472 27.4788 42.5477 27.247 42.5477Z" stroke="#00AEEF" stroke-width="0.1" mask="url(#path-31-outside-1_2_1756)"/>
<path d="M30.01 54.0001V43.7858H31.1591V44.9659H31.3002C31.3875 44.8369 31.5085 44.6725 31.663 44.4726C31.821 44.2695 32.0461 44.0889 32.3384 43.9309C32.634 43.7697 33.0339 43.6891 33.5378 43.6891C34.1896 43.6891 34.7642 43.8455 35.2614 44.1582C35.7587 44.471 36.1467 44.9143 36.4256 45.4882C36.7045 46.0621 36.8439 46.7392 36.8439 47.5195C36.8439 48.3062 36.7045 48.9881 36.4256 49.5652C36.1467 50.1391 35.7604 50.5841 35.2665 50.9C34.7726 51.2128 34.2031 51.3692 33.558 51.3692C33.0607 51.3692 32.6626 51.2902 32.3636 51.1322C32.0645 50.971 31.8344 50.7888 31.6731 50.5857C31.5119 50.3793 31.3875 50.2085 31.3002 50.073H31.1994V54.0001H30.01ZM31.1792 47.5001C31.1792 48.0611 31.2649 48.556 31.4363 48.9849C31.6076 49.4105 31.8579 49.7442 32.1872 49.986C32.5164 50.2246 32.9196 50.3439 33.3967 50.3439C33.894 50.3439 34.3089 50.2181 34.6415 49.9666C34.9775 49.7119 35.2295 49.3702 35.3975 48.9413C35.5688 48.5093 35.6545 48.0289 35.6545 47.5001C35.6545 46.9778 35.5705 46.5071 35.4025 46.0879C35.2379 45.6655 34.9876 45.3318 34.6516 45.0868C34.319 44.8385 33.9007 44.7144 33.3967 44.7144C32.9129 44.7144 32.5064 44.8321 32.1771 45.0675C31.8478 45.2996 31.5992 45.6252 31.4312 46.0444C31.2632 46.4603 31.1792 46.9456 31.1792 47.5001Z" stroke="#00AEEF" stroke-width="0.1" mask="url(#path-31-outside-1_2_1756)"/>
<path d="M48.395 41.0001L48.9998 41.6965C48.7646 41.9158 48.4924 42.0689 48.1833 42.156C47.8742 42.2431 47.5248 42.2963 47.1351 42.3156C46.7453 42.3349 46.3119 42.3543 45.8348 42.3736C45.2972 42.393 44.852 42.5187 44.4993 42.7509C44.1465 42.983 43.8743 43.3183 43.6828 43.7568C43.4913 44.1953 43.3687 44.7338 43.3149 45.3721H43.4157C43.6778 44.9079 44.0406 44.5661 44.5043 44.3468C44.968 44.1276 45.4652 44.018 45.9961 44.018C46.6008 44.018 47.1451 44.1534 47.6289 44.4242C48.1128 44.6951 48.4958 45.0965 48.778 45.6285C49.0602 46.1605 49.2013 46.8166 49.2013 47.5968C49.2013 48.3739 49.0569 49.0445 48.7679 49.6088C48.4823 50.173 48.0808 50.6083 47.5634 50.9146C47.0494 51.2176 46.4463 51.3692 45.7542 51.3692C45.062 51.3692 44.4556 51.2128 43.9348 50.9C43.414 50.5841 43.0092 50.1166 42.7202 49.4975C42.4313 48.8752 42.2868 48.1063 42.2868 47.1906V46.3974C42.2868 44.7434 42.5791 43.4892 43.1637 42.6348C43.7517 41.7804 44.6353 41.3387 45.8146 41.3096C46.2313 41.2967 46.6025 41.2935 46.9284 41.3C47.2543 41.3064 47.5382 41.2919 47.7801 41.2564C48.022 41.221 48.227 41.1355 48.395 41.0001ZM45.7542 50.3439C46.2212 50.3439 46.6227 50.231 46.9587 50.0053C47.298 49.7796 47.5584 49.4621 47.7398 49.0526C47.9213 48.6399 48.012 48.1546 48.012 47.5968C48.012 47.0552 47.9196 46.5941 47.7348 46.2137C47.5533 45.8332 47.293 45.543 46.9536 45.3431C46.6143 45.1432 46.2077 45.0433 45.734 45.0433C45.3879 45.0433 45.0772 45.0997 44.8017 45.2125C44.5261 45.3254 44.291 45.4914 44.0961 45.7107C43.9012 45.9299 43.75 46.1975 43.6425 46.5135C43.5384 46.8295 43.4829 47.1906 43.4762 47.5968C43.4762 48.4287 43.6795 49.0945 44.086 49.5942C44.4925 50.094 45.0486 50.3439 45.7542 50.3439Z" stroke="#00AEEF" stroke-width="0.1" mask="url(#path-31-outside-1_2_1756)"/>
<path d="M53.2987 51.3885C52.8081 51.3885 52.3629 51.2998 51.9631 51.1225C51.5633 50.942 51.2458 50.6824 51.0106 50.3439C50.7754 50.0021 50.6578 49.5894 50.6578 49.1058C50.6578 48.6802 50.7452 48.3352 50.9199 48.0708C51.0946 47.8032 51.3281 47.5936 51.6204 47.4421C51.9127 47.2905 52.2353 47.1777 52.588 47.1035C52.9442 47.0262 53.302 46.9649 53.6615 46.9198C54.1319 46.8617 54.5132 46.8182 54.8055 46.7892C55.1012 46.7569 55.3162 46.7037 55.4506 46.6296C55.5884 46.5554 55.6573 46.4265 55.6573 46.2427V46.204C55.6573 45.7268 55.5212 45.356 55.249 45.0916C54.9802 44.8273 54.572 44.6951 54.0244 44.6951C53.4566 44.6951 53.0114 44.8144 52.6888 45.0529C52.3663 45.2915 52.1395 45.5463 52.0085 45.8171L50.8796 45.4302C51.0812 44.9788 51.35 44.6274 51.6859 44.3759C52.0253 44.1212 52.3949 43.9438 52.7947 43.8439C53.1979 43.7407 53.5943 43.6891 53.9841 43.6891C54.2327 43.6891 54.5183 43.7181 54.8408 43.7762C55.1667 43.831 55.4809 43.9454 55.7832 44.1195C56.089 44.2936 56.3427 44.5564 56.5442 44.9079C56.7458 45.2593 56.8466 45.73 56.8466 46.3201V51.2144H55.6573V50.2085H55.5968C55.5161 50.3697 55.3817 50.5422 55.1936 50.7259C55.0054 50.9097 54.7551 51.0661 54.4427 51.1951C54.1302 51.324 53.7489 51.3885 53.2987 51.3885ZM53.4801 50.3632C53.9505 50.3632 54.3469 50.2746 54.6695 50.0972C54.9954 49.9199 55.2406 49.691 55.4053 49.4105C55.5733 49.13 55.6573 48.8349 55.6573 48.5254V47.4808C55.6069 47.5388 55.496 47.592 55.3246 47.6404C55.1566 47.6855 54.9618 47.7258 54.74 47.7613C54.5216 47.7935 54.3083 47.8225 54.1 47.8483C53.895 47.8709 53.7287 47.8903 53.601 47.9064C53.2919 47.9451 53.003 48.0079 52.7342 48.095C52.4688 48.1788 52.2537 48.3062 52.0891 48.4771C51.9278 48.6447 51.8472 48.8736 51.8472 49.1638C51.8472 49.5604 52.0001 49.8602 52.3058 50.0634C52.6149 50.2633 53.0064 50.3632 53.4801 50.3632Z" stroke="#00AEEF" stroke-width="0.1" mask="url(#path-31-outside-1_2_1756)"/>
<path d="M58.3321 51.2144V50.1504H58.6143C58.8461 50.1504 59.0393 50.1069 59.1939 50.0198C59.3484 49.9296 59.4728 49.7732 59.5668 49.5507C59.6643 49.325 59.7382 49.0123 59.7886 48.6125C59.8423 48.2094 59.881 47.6968 59.9045 47.0745L60.0456 43.7858H65.2063V51.2144H64.0169V44.8498H61.1745L61.0536 47.5001C61.0267 48.1095 60.9696 48.6463 60.8822 49.1106C60.7982 49.5717 60.6689 49.9586 60.4941 50.2713C60.3228 50.5841 60.0943 50.8194 59.8087 50.9774C59.5232 51.1354 59.1653 51.2144 58.7353 51.2144H58.3321Z" stroke="#00AEEF" stroke-width="0.1" mask="url(#path-31-outside-1_2_1756)"/>
<path d="M69.6665 51.3885C69.1759 51.3885 68.7308 51.2998 68.3309 51.1225C67.9311 50.942 67.6136 50.6824 67.3784 50.3439C67.1432 50.0021 67.0256 49.5894 67.0256 49.1058C67.0256 48.6802 67.113 48.3352 67.2877 48.0708C67.4624 47.8032 67.6959 47.5936 67.9882 47.4421C68.2805 47.2905 68.6031 47.1777 68.9559 47.1035C69.312 47.0262 69.6698 46.9649 70.0293 46.9198C70.4997 46.8617 70.8811 46.8182 71.1734 46.7892C71.469 46.7569 71.6841 46.7037 71.8184 46.6296C71.9562 46.5554 72.0251 46.4265 72.0251 46.2427V46.204C72.0251 45.7268 71.889 45.356 71.6169 45.0916C71.3481 44.8273 70.9399 44.6951 70.3922 44.6951C69.8244 44.6951 69.3792 44.8144 69.0567 45.0529C68.7341 45.2915 68.5073 45.5463 68.3763 45.8171L67.2474 45.4302C67.449 44.9788 67.7178 44.6274 68.0538 44.3759C68.3931 44.1212 68.7627 43.9438 69.1625 43.8439C69.5657 43.7407 69.9621 43.6891 70.3519 43.6891C70.6005 43.6891 70.8861 43.7181 71.2086 43.7762C71.5345 43.831 71.8487 43.9454 72.1511 44.1195C72.4568 44.2936 72.7105 44.5564 72.9121 44.9079C73.1137 45.2593 73.2144 45.73 73.2144 46.3201V51.2144H72.0251V50.2085H71.9646C71.884 50.3697 71.7496 50.5422 71.5614 50.7259C71.3733 50.9097 71.123 51.0661 70.8105 51.1951C70.498 51.324 70.1167 51.3885 69.6665 51.3885ZM69.8479 50.3632C70.3183 50.3632 70.7147 50.2746 71.0373 50.0972C71.3632 49.9199 71.6085 49.691 71.7731 49.4105C71.9411 49.13 72.0251 48.8349 72.0251 48.5254V47.4808C71.9747 47.5388 71.8638 47.592 71.6924 47.6404C71.5245 47.6855 71.3296 47.7258 71.1078 47.7613C70.8895 47.7935 70.6761 47.8225 70.4678 47.8483C70.2628 47.8709 70.0965 47.8903 69.9689 47.9064C69.6598 47.9451 69.3708 48.0079 69.102 48.095C68.8366 48.1788 68.6216 48.3062 68.4569 48.4771C68.2957 48.6447 68.215 48.8736 68.215 49.1638C68.215 49.5604 68.3679 49.8602 68.6736 50.0634C68.9827 50.2633 69.3742 50.3632 69.8479 50.3632Z" stroke="#00AEEF" stroke-width="0.1" mask="url(#path-31-outside-1_2_1756)"/>
<path d="M78.772 43.7858H80.0622L82.0983 49.4346L84.094 43.7858H85.3842L82.6829 51.0596V54.0001H81.4935V51.0596L78.772 43.7858Z" stroke="#00AEEF" stroke-width="0.1" mask="url(#path-31-outside-1_2_1756)"/>
<path d="M86.9578 43.7858H88.1472V50.1504H91.0703V43.7858H92.2596V50.1504H95.1827V43.7858H96.3721V51.2144H86.9578V43.7858Z" stroke="#00AEEF" stroke-width="0.1" mask="url(#path-31-outside-1_2_1756)"/>
<path d="M98.5442 51.2144V43.7858H99.7336V51.2144H98.5442ZM99.149 42.5477C98.9171 42.5477 98.7172 42.472 98.5492 42.3204C98.3846 42.1689 98.3023 41.9867 98.3023 41.7739C98.3023 41.5611 98.3846 41.379 98.5492 41.2274C98.7172 41.0759 98.9171 41.0001 99.149 41.0001C99.3808 41.0001 99.579 41.0759 99.7436 41.2274C99.9116 41.379 99.9956 41.5611 99.9956 41.7739C99.9956 41.9867 99.9116 42.1689 99.7436 42.3204C99.579 42.472 99.3808 42.5477 99.149 42.5477Z" stroke="#00AEEF" stroke-width="0.1" mask="url(#path-31-outside-1_2_1756)"/>
<path d="M107.093 46.9778V48.0418H102.819V46.9778H107.093ZM103.101 43.7858V51.2144H101.912V43.7858H103.101ZM108 43.7858V51.2144H106.811V43.7858H108Z" stroke="#00AEEF" stroke-width="0.1" mask="url(#path-31-outside-1_2_1756)"/>
<defs>
<clipPath id="clip0_2_1756">
<rect width="109.234" height="26.2862" fill="white" transform="translate(0 -0.000366211)"/>
</clipPath>
</defs>
</svg>
