<svg width="26" height="19" viewBox="0 0 26 19" fill="none" xmlns="http://www.w3.org/2000/svg">
<path d="M25.265 3.07323C24.9706 1.94222 24.1031 1.05161 23.0016 0.749341C21.0053 0.200012 13 0.200012 13 0.200012C13 0.200012 4.99457 0.200012 2.99821 0.749341C1.89668 1.05161 1.02919 1.94222 0.734788 3.07323C0.199951 5.12305 0.199951 9.40001 0.199951 9.40001C0.199951 9.40001 0.199951 13.6768 0.734788 15.7268C1.02919 16.8578 1.89668 17.7484 2.99821 18.0508C4.99457 18.6 13 18.6 13 18.6C13 18.6 21.0053 18.6 23.0016 18.0508C24.1031 17.7484 24.9706 16.8578 25.265 15.7268C25.8 13.6768 25.8 9.40001 25.8 9.40001C25.8 9.40001 25.8 5.12305 25.265 3.07323" fill="#0C8FD0"/>
<path d="M10.6 13.8V5.79999L17 9.80014L10.6 13.8Z" fill="white"/>
</svg>
